<svg width="22" height="25" viewBox="0 0 22 25" fill="none" xmlns="http://www.w3.org/2000/svg">
<path d="M-5.92963e-07 9.96517L6.00709 9.96517C5.56626 9.51113 5.24898 8.9577 5.08392 8.3549C4.81438 7.64459 4.66793 6.89592 4.6505 6.13921C4.62897 5.3178 4.78833 4.50138 5.11794 3.74446C5.44754 2.98754 5.9398 2.30754 6.56187 1.74985C7.75983 0.614264 9.37279 -0.0146476 11.0477 0.000817295C11.8883 -0.0126218 12.7229 0.139974 13.5008 0.449329C14.2787 0.758682 14.9835 1.21834 15.5725 1.8003C16.172 2.35166 16.6477 3.01712 16.9699 3.75503C17.292 4.49295 17.4537 5.28744 17.4448 6.08876C17.4448 7.2828 16.9854 8.59175 16.0666 10.0156L22 10.0156L10.896 25L-5.92963e-07 9.96517ZM6.9606 13.2698L11.0087 18.7943L15.0091 13.2698L6.9606 13.2698ZM7.91845 6.24432C7.92248 6.63636 8.00607 7.02379 8.16446 7.38448C8.32286 7.74518 8.55297 8.07208 8.84162 8.3465C9.1279 8.64389 9.47413 8.88101 9.85885 9.04313C10.2436 9.20525 10.6586 9.28889 11.078 9.28889C11.4975 9.28889 11.9124 9.20525 12.2972 9.04313C12.6819 8.88101 13.0281 8.6439 13.3144 8.3465C13.6062 8.06478 13.838 7.73003 13.9964 7.36139C14.1548 6.99275 14.2367 6.59743 14.2376 6.19805C14.2025 5.57503 13.9861 4.97442 13.6135 4.46585C13.1107 3.68104 12.4953 3.28723 11.7671 3.28443C11.7328 3.28961 11.6978 3.28212 11.6689 3.26344C11.64 3.24475 11.6194 3.21624 11.6111 3.18353C11.6068 3.15379 11.5909 3.12679 11.5667 3.10803C11.5426 3.08927 11.5119 3.08019 11.4811 3.08263L10.779 3.20875L10.3109 3.20875C9.99881 3.20875 9.57406 3.4526 9.03663 3.9361C8.73033 4.18715 8.46702 4.48375 8.2565 4.81482C8.05534 5.26691 7.94501 5.7521 7.93144 6.24432L7.91845 6.24432Z" fill="white"/>
</svg>
