<svg width="237" height="78" viewBox="0 0 237 78" fill="none" xmlns="http://www.w3.org/2000/svg">
<path d="M195.747 6.66836C204.196 7.27524 212.627 6.92827 216.076 6.65809C216.241 6.64513 216.403 6.64483 216.568 6.65945C219.983 6.96185 226.642 7.92288 227.812 9.54255C229.311 11.617 228.5 12 231.309 22.4043L232.038 24.7039C233.517 28.8903 235.871 33.7777 236.305 38.1702C237.145 46.673 234.99 54.5046 235.184 59.3041C235.217 60.1204 235.028 60.9435 234.537 61.5962L228.712 69.3359C228.145 70.089 227.258 70.5319 226.315 70.5319H211.848C211.185 70.5319 210.541 70.7515 210.016 71.1562L204.809 75.1716C204.183 75.6546 203.391 75.8707 202.606 75.7729L184.281 73.49C183.994 73.4543 183.703 73.4602 183.418 73.5076L169.105 75.885C168.942 75.912 168.778 75.9255 168.613 75.9255H157.602C157.448 75.9255 157.293 75.9136 157.141 75.8898L141.613 73.4719C141.46 73.4481 141.305 73.4362 141.151 73.4362H133.39H126.152C125.349 73.4362 124.579 73.7584 124.015 74.3307L122.184 76.1901C121.154 77.2346 119.521 77.3822 118.322 76.5392L114.682 73.9816C114.177 73.6266 113.574 73.4362 112.957 73.4362H104.639C104.489 73.4362 104.339 73.4474 104.191 73.4698L88.3895 75.8557C88.0831 75.902 87.7714 75.9005 87.4655 75.8513L72.6764 73.4742C72.519 73.4489 72.3598 73.4362 72.2003 73.4362H61.449H44.9625L25 75.9255H17H11.6216C10.605 75.9255 9.65752 75.4107 9.10444 74.5576L7.09763 71.4625C6.70825 70.862 6.5464 70.142 6.64132 69.4326L7.93515 59.7622C7.97352 59.4754 7.9702 59.1846 7.92532 58.8988L6.62421 50.6147C6.53919 50.0734 6.30753 49.5657 5.95438 49.1468L1.79395 44.2109C0.595276 42.7888 0.966109 40.6299 2.57062 39.6893L7.22306 36.962C7.72547 36.6675 8.1313 36.2331 8.39103 35.7118L9.6765 33.1319C9.88358 32.7163 9.99136 32.2583 9.99136 31.794L9.99136 26.0937C9.99136 25.5789 9.8589 25.0728 9.60672 24.624L6.87887 19.7696C6.6267 19.3208 6.49424 18.8147 6.49424 18.2999L6.49424 10.395C6.49424 8.99416 7.46371 7.7798 8.82975 7.46952L11.7893 6.79729C12.2495 6.69277 12.6785 6.48118 13.0415 6.17971L14.1539 5.25592C14.6924 4.80866 15.3705 4.56383 16.0705 4.56383H29.8525C30.2628 4.56383 30.6687 4.64799 31.0452 4.81112L40.2737 8.80972C41.3111 9.25924 42.5132 9.08728 43.383 8.36491L47.1267 5.25592C47.6653 4.80866 48.3433 4.56383 49.0434 4.56383H65.4778C65.7876 4.56383 66.0955 4.61181 66.3906 4.70607L72.4399 6.6383L78.2587 9.05449C79.0099 9.36641 79.8556 9.35994 80.6019 9.03656L90.6174 4.69696C90.8216 4.60848 91.035 4.543 91.2537 4.50172L101.65 2.53943C101.827 2.50612 102 2.45703 102.168 2.39275L106.835 0.603859C107.595 0.312655 108.41 0.873571 108.41 1.68721C108.41 2.16991 108.709 2.60218 109.161 2.77265L113.118 4.26633C113.633 4.4609 114.192 4.50977 114.734 4.40759L124.296 2.60265C124.693 2.52789 125.1 2.53371 125.493 2.61977L143.565 6.56912C143.775 6.61511 143.99 6.6383 144.205 6.6383H153.373H175.123C175.604 6.6383 176.078 6.52261 176.505 6.30099L182.682 3.09438C183.426 2.7087 184.296 2.65106 185.083 2.93538L194.954 6.49932C195.209 6.59154 195.476 6.64891 195.747 6.66836Z" fill="#4318A8"/>
<path d="M231.309 22.4043C228.5 12 229.311 11.617 227.812 9.54255C226.642 7.92288 219.983 6.96185 216.568 6.65945C216.403 6.64483 216.241 6.64514 216.076 6.65809C212.627 6.92827 204.196 7.27524 195.747 6.66836C195.476 6.64891 195.209 6.59154 194.954 6.49932L185.083 2.93538C184.296 2.65106 183.426 2.7087 182.682 3.09438L176.505 6.30099C176.078 6.52261 175.604 6.6383 175.123 6.6383H153.373H144.205C143.99 6.6383 143.775 6.61511 143.565 6.56912L125.493 2.61977C125.1 2.53371 124.693 2.52789 124.296 2.60265L114.734 4.40759C114.192 4.50977 113.633 4.4609 113.118 4.26633L109.161 2.77265C108.709 2.60218 108.41 2.16991 108.41 1.68721V1.68721C108.41 0.873571 107.595 0.312655 106.835 0.603859L102.168 2.39275C102 2.45703 101.827 2.50612 101.65 2.53943L91.2537 4.50172C91.035 4.543 90.8216 4.60848 90.6174 4.69696L80.6019 9.03656C79.8556 9.35994 79.0099 9.36641 78.2587 9.05449L72.4399 6.6383L66.3906 4.70607C66.0955 4.61181 65.7876 4.56383 65.4778 4.56383H49.0434C48.3433 4.56383 47.6653 4.80866 47.1267 5.25592L43.383 8.36491C42.5132 9.08728 41.3111 9.25924 40.2737 8.80972L31.0452 4.81112C30.6687 4.64799 30.2628 4.56383 29.8525 4.56383H16.0705C15.3705 4.56383 14.6924 4.80866 14.1539 5.25592L13.0415 6.17971C12.6785 6.48118 12.2495 6.69277 11.7893 6.79729L8.82975 7.46952C7.4637 7.7798 6.49424 8.99416 6.49424 10.395L6.49424 18.2999C6.49424 18.8147 6.6267 19.3208 6.87887 19.7696L9.60672 24.624C9.8589 25.0728 9.99136 25.5789 9.99136 26.0937L9.99136 31.794C9.99136 32.2583 9.88358 32.7163 9.6765 33.1319L8.39103 35.7118C8.1313 36.2331 7.72547 36.6675 7.22306 36.962L2.57062 39.6893C0.966109 40.6299 0.595276 42.7888 1.79395 44.2109L5.95438 49.1468C6.30753 49.5657 6.53919 50.0734 6.62421 50.6147L7.92532 58.8988C7.9702 59.1846 7.97352 59.4754 7.93515 59.7622L6.64132 69.4326C6.5464 70.142 6.70825 70.862 7.09763 71.4625L9.10444 74.5576C9.65752 75.4107 10.605 75.9255 11.6216 75.9255H17H25L44.9625 73.4362H61.449H72.2003C72.3598 73.4362 72.519 73.4489 72.6764 73.4742L87.4655 75.8513C87.7714 75.9005 88.0831 75.902 88.3895 75.8557L104.191 73.4698C104.339 73.4474 104.489 73.4362 104.639 73.4362H112.957C113.574 73.4362 114.177 73.6266 114.682 73.9816L118.322 76.5392C119.521 77.3822 121.154 77.2346 122.184 76.1901L124.015 74.3307C124.579 73.7584 125.349 73.4362 126.152 73.4362H133.39H141.151C141.305 73.4362 141.46 73.4481 141.613 73.4719L157.141 75.8898C157.293 75.9136 157.448 75.9255 157.602 75.9255H168.613C168.778 75.9255 168.942 75.912 169.105 75.885L183.418 73.5076C183.703 73.4602 183.994 73.4543 184.281 73.49L202.606 75.7729C203.391 75.8707 204.183 75.6546 204.809 75.1716L210.016 71.1563C210.541 70.7515 211.185 70.5319 211.848 70.5319H226.315C227.258 70.5319 228.145 70.089 228.712 69.3359L234.537 61.5962C235.028 60.9435 235.217 60.1204 235.184 59.3041C234.99 54.5046 237.145 46.673 236.305 38.1702M231.309 22.4043C232.554 27.0173 235.789 32.944 236.305 38.1702M231.309 22.4043L236.305 38.1702" stroke="#4318A8"/>
</svg>
