<svg width="22" height="22" viewBox="0 0 22 22" fill="none" xmlns="http://www.w3.org/2000/svg">
<path d="M22 21.4353C21.9317 20.5769 21.7546 19.7311 21.4733 18.9188C21.0439 17.4289 20.3955 16.0135 19.5501 14.7207C18.532 13.1593 17.4949 12.2167 16.4388 11.8928L16.157 11.627C15.563 11.5064 14.9991 11.2649 14.4993 10.9169C14.6463 10.5349 14.8341 10.3439 15.0668 10.3439C15.1561 10.3385 15.2422 10.3084 15.3159 10.2567C15.3908 10.204 15.4782 10.1725 15.569 10.1653C15.6717 10.1561 15.7716 10.1265 15.863 10.0782C15.9541 10.0289 16.0542 9.99918 16.157 9.99094C16.764 9.99094 17.4813 9.57569 18.3088 8.74519C18.7768 8.29763 19.1882 7.79269 19.5338 7.24198C20.0839 6.24302 20.5497 5.19837 20.9261 4.11928C21.5794 2.28941 21.8925 1.20424 21.8653 0.863729V0C21.6933 0.105982 21.4984 0.167301 21.2977 0.178555L21.0364 0.112125C20.9629 0.112125 20.9343 0.112116 20.9506 0.153641C20.967 0.195166 20.9506 0.191025 20.8608 0.191025C20.7662 0.199095 20.6744 0.227375 20.5913 0.274054C20.507 0.321415 20.4137 0.349749 20.3177 0.357109C20.2434 0.355932 20.17 0.340439 20.1013 0.311438C20.0326 0.282812 19.9592 0.267334 19.8849 0.265766C19.8114 0.265766 19.7829 0.26576 19.7951 0.311438C19.8074 0.357117 19.7951 0.357109 19.6971 0.357109C19.2792 0.464365 18.8698 0.603167 18.4722 0.772362C18.0831 0.938318 17.6834 1.07706 17.2758 1.18761C17.2023 1.18761 17.1737 1.18762 17.1901 1.14194C17.2064 1.09626 17.1901 1.09627 17.1043 1.09627C17.0186 1.09627 16.9859 1.14193 16.9736 1.23328C16.9721 1.25224 16.9669 1.27071 16.9582 1.28755C16.9495 1.30438 16.9375 1.31924 16.923 1.33127C16.9085 1.34329 16.8918 1.35221 16.8738 1.3575C16.8559 1.36278 16.837 1.36434 16.8185 1.36204C16.785 1.36326 16.7518 1.35591 16.7218 1.34067C16.6918 1.32543 16.6661 1.3028 16.647 1.27482C16.647 1.39525 16.5327 1.4866 16.353 1.55304L15.8181 1.7399L15.5568 2.00567C15.5568 2.00567 15.5037 2.03472 15.4466 2.09286C15.419 2.12298 15.3855 2.14674 15.3481 2.1625C15.3108 2.17827 15.2706 2.18568 15.2301 2.18423C14.9852 2.18423 14.5278 2.49981 13.8582 3.13514C13.4381 3.56004 12.9877 3.95284 12.5108 4.31031C12.5069 4.39897 12.4853 4.4859 12.4474 4.56584C12.4095 4.64578 12.356 4.71706 12.2903 4.77539C12.0061 5.13814 11.8127 5.56563 11.7268 6.02114C11.6254 6.45397 11.4718 6.8724 11.2695 7.2669C11.2695 7.32503 11.2205 7.39979 11.1266 7.48699C11.0555 7.56535 10.9576 7.6129 10.853 7.61985C10.4447 7.61985 10.1425 7.31257 9.89754 6.68969C9.76688 6.24952 9.62806 5.81351 9.48923 5.3858C8.7216 3.98225 8.13499 3.28049 7.72939 3.28049C7.67513 3.28694 7.62045 3.27267 7.57594 3.24045C7.53143 3.20823 7.50026 3.16033 7.48849 3.10607L7.22718 2.81541C6.99444 2.69914 6.52487 2.43336 5.81032 2.01811C5.51942 1.82424 5.20514 1.66933 4.87528 1.55719H4.46696L2.94395 0.880331C2.66629 0.776518 2.30698 0.647797 1.85375 0.498306C1.27959 0.363153 0.699026 0.257816 0.114328 0.182711C0.195245 1.80697 0.51029 3.41035 1.04937 4.9415C1.52899 6.40513 2.30046 7.75233 3.31551 8.89883C4.54862 10.2581 5.94915 10.9502 7.51708 10.9751L7.71307 11.1536C7.78658 11.1429 7.86153 11.1492 7.93227 11.1723C8.00301 11.1953 8.06768 11.2344 8.12139 11.2865C7.73419 11.6627 7.25235 11.9228 6.72903 12.0381C6.14609 12.1685 5.57082 12.3321 5.00594 12.5281L4.7487 12.7939C3.79247 13.4502 2.9896 14.3121 2.39681 15.3186C1.89933 16.2099 1.47593 17.1419 1.13103 18.1049C0.886045 18.7278 0.509032 20.0054 0 21.9377H1.19637C1.26166 21.938 1.32607 21.9223 1.38419 21.892C1.44072 21.8618 1.50415 21.8475 1.56793 21.8505C1.70807 21.8376 1.84562 21.8041 1.97625 21.7509C2.10684 21.6983 2.24449 21.6661 2.38456 21.6554C2.58389 21.6281 2.78059 21.5836 2.97253 21.5225C3.16054 21.4632 3.35313 21.4201 3.54826 21.3937C3.65547 21.3874 3.76199 21.3721 3.86674 21.3481C3.97413 21.324 4.08349 21.3101 4.1934 21.3065C4.22188 21.3106 4.25084 21.304 4.27488 21.288C4.29892 21.2719 4.3164 21.2475 4.32405 21.2193C4.32405 21.1612 4.38938 21.1321 4.47513 21.1321C4.96716 20.9749 5.44749 20.782 5.9124 20.5549H6.07573L6.27172 20.4013C7.12762 20.0284 7.91576 19.5119 8.60319 18.8732C9.48515 18.105 10.0282 17.4945 10.2365 17.0378C10.3859 16.7065 10.5128 16.3652 10.6162 16.0162C10.6897 15.6342 10.755 15.1152 10.8122 14.4674C10.9134 14.3171 11.0297 14.1779 11.1592 14.0521C11.3131 14.1239 11.4485 14.231 11.5548 14.365C11.6611 14.499 11.7353 14.6563 11.7717 14.8245C11.8411 15.1608 11.9146 15.5138 11.9881 15.8834C12.2032 16.9713 12.8837 17.9873 14.0297 18.9313C15.0939 19.8085 16.3238 20.4544 17.6433 20.829L17.8393 21.0076C18.6559 21.2706 20.0428 21.6014 22 22V21.4353ZM8.41537 7.73197C7.65863 7.03712 6.48949 5.8924 4.90795 4.29784H4.21381C4.11173 4.29784 3.98515 4.40998 3.84224 4.63006C3.72307 4.78342 3.64815 4.96742 3.62584 5.16157C3.62584 5.44394 4.05866 5.99207 4.93245 6.82257C5.41018 7.23783 5.87974 7.67384 6.34521 8.06833C6.57795 8.30502 6.88828 8.65384 7.28026 9.11061L7.14959 9.19782C6.89386 9.19875 6.64366 9.12212 6.43096 8.97773L6.14922 9.06494L5.77765 8.6912C5.58303 8.60065 5.39477 8.4966 5.21419 8.37977C3.88036 7.16723 2.8201 5.16018 2.03341 2.35862C2.29505 2.45959 2.57057 2.51843 2.85004 2.53302C2.94226 2.54547 3.0311 2.57654 3.11136 2.62439C3.19774 2.67436 3.29398 2.70416 3.39309 2.7116C3.48006 2.71608 3.56381 2.74638 3.634 2.79879C3.69581 2.85009 3.77104 2.88186 3.8504 2.89016L4.03415 3.11438C4.95707 3.41836 5.8247 3.87427 6.60245 4.46395C7.38601 5.02645 7.96684 5.83446 8.25612 6.76443C8.3704 7.06577 8.41781 7.38908 8.39495 7.71122L8.41537 7.73197ZM9.15442 14.9532C9.10183 15.3921 8.96297 15.8157 8.74611 16.199C8.5442 16.613 8.27657 16.9904 7.95398 17.316C7.64701 17.6572 7.29035 17.9485 6.89644 18.1797C6.49042 18.3291 6.10268 18.5255 5.7409 18.7652C5.38915 18.9921 5.01896 19.188 4.63437 19.3507C4.5482 19.3528 4.46284 19.3682 4.38122 19.3964C4.29366 19.4226 4.203 19.4366 4.11173 19.4379C3.86199 19.4948 3.62046 19.5842 3.39309 19.7037C3.16184 19.8241 2.91616 19.9135 2.66222 19.9694H2.29065C2.54109 19.3216 2.7956 18.6794 3.0542 18.0427C3.28003 17.4226 3.57166 16.8295 3.92391 16.2737C5.01275 14.6514 6.15195 13.7725 7.3415 13.6369L7.53749 13.8818C7.48614 13.9071 7.43923 13.9407 7.39866 13.9815C7.32792 14.0431 7.2386 14.0783 7.14551 14.0812C7.05976 14.0812 6.69636 14.4507 6.05939 15.1899C5.25909 16.1034 4.70787 16.7083 4.40572 17.0045C4.26901 17.1718 4.19906 17.3852 4.20972 17.6025C4.20972 17.8793 4.27506 18.0413 4.40572 18.0883C4.43566 18.2683 4.5949 18.3721 4.88344 18.3998L5.451 18.4455L9.04417 14.7082C9.05154 14.7904 9.08282 14.8684 9.134 14.9324L9.15442 14.9532ZM12.8293 10.6761C12.7336 10.9726 12.6163 11.2613 12.4781 11.5398C12.131 12.0257 11.8493 12.2707 11.6288 12.2707C11.049 12.2707 10.7387 12.1793 10.6938 12.0049H10.3467C10.0829 11.641 9.89661 11.2252 9.79955 10.7841C9.85011 10.4272 10.0152 10.0973 10.2691 9.84561C10.3701 9.69038 10.5031 9.55941 10.659 9.46187C10.8148 9.36433 10.9897 9.30255 11.1715 9.28085H11.3838C11.5729 9.30516 11.7532 9.37615 11.909 9.48762C12.0649 9.59908 12.1916 9.74766 12.278 9.92036C12.4495 10.1529 12.6088 10.402 12.7925 10.6553L12.8293 10.6761ZM19.7706 2.10533V2.43752L18.9866 4.63006C18.7094 5.34518 18.3444 6.02184 17.9005 6.64402C17.51 7.27927 16.9623 7.79907 16.3122 8.15138C16.3979 8.23859 16.3122 8.28427 16.0917 8.28427C15.992 8.28837 15.895 8.31838 15.8099 8.37145C15.7316 8.42333 15.6418 8.45473 15.5486 8.46282C15.5187 8.45967 15.4886 8.46646 15.4629 8.48218C15.4371 8.49791 15.417 8.52173 15.4057 8.55003C15.3951 8.57801 15.3758 8.60168 15.3508 8.61742C15.3257 8.63318 15.2962 8.64013 15.2669 8.63722H14.7851C14.9866 8.34754 15.2047 8.07022 15.4384 7.80672C15.7283 7.46621 16.1815 6.9347 16.7899 6.21217L17.6392 5.34844C17.8519 5.16381 17.984 4.90103 18.0067 4.61759C17.876 4.04039 17.68 3.75386 17.4187 3.75386H16.9859C16.6431 3.8952 16.332 4.10569 16.0713 4.37261C15.5772 4.78786 15.3322 5.05361 15.3322 5.16988C15.3322 5.43564 15.2873 5.58513 15.2016 5.58513C15.1158 5.58513 15.0464 5.54361 15.0464 5.45225V5.71802C15.0178 5.74708 14.8953 5.8592 14.6789 6.05021C14.634 6.10835 14.487 6.33257 14.242 6.7146C14.0991 6.93469 13.997 7.0468 13.9358 7.0468C13.8745 7.0468 13.8051 6.99697 13.8051 6.89316C13.8088 6.95801 13.7991 7.02294 13.7765 7.08373C13.754 7.14452 13.7193 7.19985 13.6745 7.24614C13.5221 7.39199 13.3976 7.56512 13.307 7.75689C13.2789 7.69855 13.2417 7.64525 13.1967 7.59909C13.1334 7.53439 13.0944 7.44916 13.0865 7.35824C13.1453 7.02716 13.2483 6.70583 13.3927 6.40317C13.5806 5.963 13.699 5.70555 13.7398 5.6308C14.0572 5.23784 14.4159 4.88137 14.8096 4.56776C15.0857 4.28547 15.3833 4.02582 15.6997 3.79124C17.1642 2.93583 18.151 2.50811 18.66 2.50811C18.6915 2.51124 18.7231 2.50297 18.7493 2.48474C18.7754 2.46651 18.7944 2.4395 18.8029 2.40845C18.8114 2.3774 18.8304 2.35039 18.8565 2.33216C18.8826 2.31394 18.9143 2.30566 18.9458 2.3088C19.2206 2.28823 19.4885 2.212 19.7339 2.08457L19.7706 2.10533ZM20.0564 19.7743C19.9543 19.7743 19.4889 19.6912 18.66 19.5293L18.464 19.3299C18.252 19.2561 18.0331 19.2046 17.8107 19.1763C17.6113 19.1206 17.415 19.0541 17.2227 18.977L16.941 18.7112L16.2836 18.4787C16.1728 18.3916 16.0665 18.2987 15.9651 18.2005C15.7977 18.0468 15.6793 17.9679 15.6058 17.9679C15.5773 17.972 15.5484 17.9654 15.5243 17.9493C15.5003 17.9333 15.4828 17.9089 15.4751 17.8807C15.4751 17.8226 15.418 17.7935 15.3445 17.7935L15.173 17.7022C15.0546 17.7022 14.8259 17.5194 14.487 17.1499C14.2138 16.8765 13.9826 16.563 13.801 16.2197C13.7377 16.0207 13.6641 15.8253 13.5806 15.6342C13.4936 15.442 13.4424 15.235 13.4295 15.0238C13.4295 14.8909 13.4662 14.8162 13.5397 14.8037C13.948 15.1567 14.4339 15.6051 15.0505 16.1408L16.3489 17.2828C16.6797 17.7395 16.8838 17.9679 16.9573 17.9679H17.6759C17.7953 17.9484 17.9084 17.9007 18.0063 17.8286C18.1042 17.7564 18.184 17.6619 18.2394 17.5527V16.8011C17.7631 16.0619 16.4864 14.9324 14.4094 13.4126C14.4996 13.3349 14.6078 13.282 14.7238 13.259C14.8331 13.2157 14.9468 13.185 15.0627 13.1676C15.3703 13.1676 15.9216 13.4555 16.7164 14.0313L16.6511 14.1185C16.6511 14.1518 16.6797 14.1642 16.7817 14.1642C16.8838 14.1642 17.1125 14.3635 17.4677 14.7622C17.7322 15.0408 17.9688 15.3454 18.1741 15.6716C18.2114 15.7971 18.2787 15.9112 18.3701 16.0038C19.0091 17.2111 19.5605 18.4644 20.0197 19.7535L20.0564 19.7743Z" fill="white"/>
</svg>
