<svg width="23" height="22" viewBox="0 0 23 22" fill="none" xmlns="http://www.w3.org/2000/svg">
<path d="M23 10.7545L14.9931 21.8928L11.612 17.7345L8.42587 22L0 11.2455L8.0276 0.140257L11.4129 4.26552C12.0601 3.41571 13.1221 1.99388 14.599 0L23 10.7545ZM9.75343 15.5068L6.56728 11.2413L9.75343 6.70355C9.37175 6.22089 8.82413 5.57322 8.11887 4.7688L3.4807 11.3692L8.42172 17.454L9.75343 15.5068ZM13.0474 10.9402L12.2758 9.9625C11.9218 9.51697 11.6646 9.19933 11.5041 9.00956C11.5041 9.00956 11.1806 9.46334 10.5707 10.3255C10.3583 10.5838 10.1876 10.8732 10.0646 11.1836C10.1847 11.489 10.3621 11.769 10.5873 12.0086C10.8658 12.3783 11.1664 12.7309 11.4876 13.0647L13.0474 10.9402ZM19.5276 10.9691L14.5907 4.75642C14.3086 5.16895 13.8647 5.80836 13.2466 6.68704L16.5655 10.9526L13.3793 15.3955C13.8412 16.0872 14.3632 16.7374 14.9392 17.3385L19.5276 10.9691Z" fill="#4318A8"/>
</svg>
