<svg width="31" height="30" viewBox="0 0 31 30" fill="none" xmlns="http://www.w3.org/2000/svg">
<path d="M7.26167 26.5605H5.83958L5.83958 29.2451L0.0537109 29.2451L0.0537109 14.0525L2.58097 14.0525L2.58097 9.05247L7.26167 9.05247L7.26167 26.5605Z" fill="white"/>
<path d="M16.363 26.5605L7.87114 26.5605L7.85895 2.02196L16.363 2.02196L16.363 26.5605Z" fill="white"/>
<path d="M22.5756 2.02999L22.5756 26.5605L16.9522 26.5565L16.9522 2.02999C16.9522 2.02999 17.6795 0.753906 19.772 0.753906C21.7995 0.753906 22.5756 2.02999 22.5756 2.02999Z" fill="white"/>
<path d="M30.263 14.1167L30.263 29.2451L24.6071 29.2451L24.6071 26.5605L23.2135 26.5605L23.2135 2.02196L27.8535 2.02196L27.8535 14.1167L30.263 14.1167Z" fill="white"/>
</svg>
