<svg width="22" height="21" viewBox="0 0 22 21" fill="none" xmlns="http://www.w3.org/2000/svg">
<path d="M21.9992 10.464C22.0172 11.8622 21.7323 13.2484 21.1631 14.5323C20.5938 15.8161 19.753 16.9687 18.6954 17.915C17.6958 18.8974 16.5052 19.676 15.1931 20.2057C13.881 20.7353 12.4737 21.0052 11.0533 20.9997C9.61919 21.0103 8.19716 20.7442 6.86932 20.2168C5.54149 19.6894 4.33417 18.9112 3.3171 17.927C2.25555 16.9873 1.41104 15.839 0.839385 14.558C0.267734 13.277 -0.0180187 11.8924 0.00101963 10.4959C-0.0167718 9.32185 0.198419 8.15553 0.634791 7.06092C2.59745 2.35629 6.40557 0.00265349 12.0591 0C12.7242 0 13.7342 0.265349 15.089 0.796046C15.9827 1.12457 16.8314 1.55903 17.6159 2.08962C19.0579 3.16597 20.2168 4.56011 20.9974 6.15741C21.6569 7.50234 21.9992 8.97375 21.9992 10.464ZM20.0079 10.4959C19.9764 10.0829 19.9191 9.67216 19.8362 9.26597C19.7494 8.72113 19.6251 8.18258 19.4641 7.65397C18.8148 5.89194 17.5594 4.40274 15.9109 3.43891C14.3407 2.44651 12.8796 1.95164 11.5276 1.95429C9.05293 1.89702 6.65246 2.77916 4.83408 4.41407C3.9287 5.19407 3.20794 6.15601 2.72156 7.23349C2.23517 8.31097 1.99473 9.47835 2.01683 10.6551C2.01683 10.7824 2.13678 11.479 2.37666 12.7447C2.61654 14.0104 3.47657 15.3279 4.95674 16.6971C6.43964 18.0663 7.78488 18.7509 8.99246 18.7509C9.06434 18.7483 9.13542 18.7663 9.19691 18.8026C9.25489 18.8404 9.32343 18.8598 9.39318 18.8583C9.50542 18.8669 9.61432 18.8995 9.71211 18.9538C9.7987 19.0036 9.89461 19.0361 9.99424 19.0494C10.0801 19.0494 10.4031 19.0494 10.9102 19.0056L11.8138 18.9618C11.9353 18.957 12.0559 18.9397 12.1736 18.9101C12.2874 18.8815 12.4038 18.8641 12.5212 18.8583C13.285 18.8019 14.0285 18.5919 14.7046 18.2414C15.3877 17.9613 16.0319 17.599 16.6223 17.1627C17.6344 16.3439 18.4587 15.3275 19.0419 14.179C19.6251 13.0306 19.9542 11.7759 20.0079 10.4959ZM18.0902 10.5277C18.1139 11.46 17.927 12.3859 17.5426 13.2401C17.1582 14.0943 16.5858 14.8559 15.8659 15.4711C14.5265 16.6595 12.7712 17.3045 10.9592 17.2742C10.033 17.2905 9.11304 17.1224 8.25593 16.7801C7.39882 16.4379 6.62259 15.9288 5.97487 15.2841C5.31551 14.6672 4.79372 13.9248 4.44199 13.1031C4.09025 12.2813 3.91611 11.3979 3.93043 10.5078C3.91038 9.60454 4.08155 8.70693 4.43328 7.87084C4.785 7.03475 5.30975 6.27809 5.97487 5.64795C7.33088 4.38156 9.1373 3.67444 11.0165 3.67444C12.8956 3.67444 14.702 4.38156 16.0581 5.64795C16.7217 6.28445 17.2433 7.04742 17.5901 7.88912C17.937 8.73082 18.1017 9.63314 18.0739 10.5396L18.0902 10.5277ZM16.4997 10.5277C16.5017 9.85279 16.3637 9.18442 16.0939 8.5627C15.8241 7.94099 15.428 7.37873 14.9295 6.90967C14.4227 6.4012 13.8126 6.00096 13.1383 5.73441C12.4639 5.46785 11.7399 5.34081 11.0124 5.36137C10.2954 5.34907 9.58307 5.47575 8.91688 5.73405C8.2507 5.99235 7.64397 6.37711 7.13203 6.8659C6.6053 7.35055 6.18927 7.9377 5.911 8.58916C5.63274 9.24062 5.49847 9.94181 5.51692 10.6471C5.5137 11.3229 5.65783 11.9916 5.93977 12.6091C6.22171 13.2266 6.63504 13.7788 7.15247 14.2293C7.64595 14.7103 8.23249 15.0913 8.87819 15.3502C9.52388 15.6091 10.2159 15.7409 10.9142 15.7378C11.0518 15.7321 11.1886 15.7148 11.3231 15.6861C11.4576 15.6566 11.5944 15.638 11.732 15.6304C13.0405 15.6304 14.1894 15.0439 15.1789 13.8711C15.9967 12.941 16.4576 11.7636 16.4833 10.5396L16.4997 10.5277ZM14.582 10.5914C14.5864 11.042 14.4865 11.4878 14.2897 11.8958C14.0929 12.3037 13.8043 12.6632 13.4453 12.9477C12.7642 13.5491 11.8731 13.875 10.9536 13.8587C10.0342 13.8424 9.15585 13.4853 8.49771 12.8601C8.16784 12.5623 7.90462 12.2015 7.72451 11.8001C7.5444 11.3988 7.45128 10.9656 7.45096 10.5277C7.44372 10.0765 7.53223 9.62866 7.71093 9.21226C7.88964 8.79586 8.15469 8.41984 8.48953 8.10773C8.98889 7.61657 9.62766 7.28189 10.3238 7.14664C11.02 7.01139 11.7418 7.08176 12.3966 7.34869C13.0514 7.61562 13.6093 8.06695 13.9987 8.64474C14.3881 9.22253 14.5912 9.90041 14.582 10.5914ZM12.7706 10.4839C12.7031 10.0937 12.5177 9.73196 12.2381 9.44483C11.9584 9.1577 11.5971 8.95825 11.2005 8.87193H10.8325C10.6163 8.89259 10.4081 8.96197 10.2242 9.07458C10.0404 9.18719 9.88608 9.33993 9.77344 9.5207C9.49145 9.81627 9.31258 10.191 9.26233 10.5914C9.29912 10.9964 9.49369 11.3724 9.80615 11.6422C9.92641 11.7959 10.077 11.9247 10.249 12.021C10.421 12.1174 10.611 12.1794 10.8079 12.2034L11.1146 12.0959C11.5357 12.0796 11.9342 11.9056 12.2268 11.6103C12.391 11.4717 12.523 11.3006 12.614 11.1085C12.7049 10.9163 12.7527 10.7074 12.7542 10.4959L12.7706 10.4839Z" fill="white"/>
</svg>
