<svg width="22" height="23" viewBox="0 0 22 23" fill="none" xmlns="http://www.w3.org/2000/svg">
<path d="M21.9984 18.0005C22.0305 19.2855 21.5762 20.534 20.7295 21.4877C20.3202 21.9713 19.8103 22.3563 19.2367 22.6147C18.6632 22.873 18.0404 22.9984 17.4134 22.9815C16.0974 22.9671 14.8225 22.5133 13.7843 21.69C12.549 20.7826 11.6327 19.4953 11.1704 18.0177L11.0096 18.2459C10.5313 19.6719 9.62421 20.9085 8.41682 21.7804C7.40837 22.5528 6.18504 22.9794 4.92309 22.9988C4.3101 23.0135 3.70094 22.8965 3.13537 22.6554C2.5698 22.4144 2.06055 22.0546 1.64084 21.5996C1.21191 21.1542 0.874336 20.6264 0.647772 20.047C0.421208 19.4675 0.310186 18.8479 0.321173 18.2244C0.331225 16.92 0.724533 15.6486 1.4505 14.5736C2.2681 13.3134 3.43782 12.3312 4.80888 11.7538C4.6436 11.6217 4.46147 11.5131 4.26748 11.4309C2.94229 10.8582 1.8072 9.90912 0.997928 8.69716C0.340079 7.68366 -0.00598742 6.49356 0.00394511 5.2789C-0.0214348 4.67582 0.0758524 4.07391 0.289716 3.5109C0.50358 2.94789 0.829408 2.43591 1.24677 2.00707C1.66413 1.57822 2.16402 1.24176 2.71512 1.01876C3.26622 0.795762 3.85665 0.691036 4.44937 0.711156C5.73442 0.719363 6.98616 1.12803 8.03615 1.88215C9.2973 2.76723 10.2461 4.04083 10.7432 5.51567L10.8785 5.28319C11.2933 3.74761 12.1833 2.38894 13.4163 1.40858C14.4909 0.512622 15.834 0.0174337 17.2231 0.00512349C17.848 -0.0255381 18.4721 0.0816938 19.0525 0.319481C19.6329 0.557268 20.1559 0.919979 20.5857 1.38275C21.425 2.34079 21.8689 3.59141 21.825 4.87421C21.8095 6.26851 21.351 7.62023 20.518 8.72729C19.6436 10.0323 18.3523 10.9891 16.8635 11.4352C16.8635 11.4697 16.9101 11.5213 16.9989 11.5988C18.3636 12.0382 19.5684 12.8822 20.4591 14.0226C21.3497 15.1631 21.8857 16.5482 21.9984 18.0005ZM8.98361 6.77707C8.96553 6.01566 8.7358 5.27506 8.32107 4.64112C7.90634 4.00717 7.32358 3.50582 6.64035 3.19521C6.17661 2.96307 5.68222 2.80065 5.17264 2.71303C4.7553 2.70139 4.34002 2.77673 3.95233 2.93443C3.56464 3.09212 3.21272 3.32883 2.9182 3.63003C2.62672 3.91968 2.39646 4.2669 2.24154 4.65038C2.08662 5.03386 2.01031 5.4455 2.01729 5.86008C2.02325 6.37278 2.12913 6.87919 2.3288 7.34993C2.52846 7.82068 2.81795 8.24642 3.18046 8.60245C3.53367 8.99387 3.96426 9.30478 4.44393 9.51476C4.92361 9.72475 5.4415 9.82904 5.9636 9.82079C6.49965 9.8493 7.0301 9.69807 7.4736 9.39028C7.29077 8.91365 7.02258 8.47571 6.68265 8.09874C6.17086 7.45728 5.77326 7.1344 5.48987 7.1344C5.4098 7.1356 5.33021 7.14717 5.25301 7.16884C5.18315 7.19099 5.11046 7.2026 5.03729 7.20329C4.85789 7.20309 4.6808 7.162 4.51905 7.08303C4.35729 7.00406 4.21497 6.88921 4.10253 6.74693C3.85905 6.48586 3.71896 6.14241 3.70917 5.78259C3.71228 5.62116 3.74677 5.46197 3.81065 5.31418C3.87454 5.1664 3.96655 5.03296 4.08137 4.92156C4.19785 4.79548 4.33889 4.69551 4.49548 4.62806C4.65206 4.5606 4.82076 4.52713 4.99077 4.5298C5.87901 4.5298 6.39785 5.0579 6.5473 6.11409C6.56422 6.25185 6.80531 6.52737 7.27057 6.94067C7.76545 7.40131 8.15035 7.62949 8.42105 7.62949H8.91594C8.91941 7.46066 8.93496 7.29231 8.96246 7.12578C8.97092 6.92775 8.98361 6.80721 8.98361 6.78138V6.77707ZM9.14433 16.7391C9.18132 16.2397 9.06294 15.7412 8.80596 15.3141C8.39071 15.5626 8.02022 15.8815 7.71047 16.257C7.41146 16.5868 7.17102 16.967 6.99988 17.3806C6.92905 17.7392 6.83149 18.0918 6.70803 18.4353C6.60575 18.6799 6.43185 18.8863 6.21006 19.0265C5.98828 19.1667 5.72939 19.2339 5.46872 19.2189C5.27976 19.2206 5.09297 19.1779 4.9228 19.0943C4.75263 19.0107 4.60366 18.8883 4.48743 18.7367C4.236 18.443 4.09641 18.0672 4.09406 17.6776C4.10645 17.3729 4.19528 17.0765 4.35208 16.8166C4.41872 16.6788 4.51183 16.556 4.62589 16.4554C4.73994 16.3549 4.87264 16.2786 5.01615 16.2311C5.24032 16.201 5.5364 16.1579 5.89592 16.0934C6.03127 16.0934 6.25968 15.8092 6.58536 15.2797C6.81954 14.9632 6.98399 14.599 7.06754 14.212V13.8461C6.81752 13.781 6.56 13.7506 6.30197 13.7557C5.80055 13.7507 5.30406 13.8566 4.84687 14.0663C4.38968 14.2759 3.98273 14.5841 3.65418 14.9697C2.95501 15.7022 2.56229 16.6822 2.55869 17.7035C2.59057 18.1466 2.68899 18.5822 2.85054 18.995C3.05825 19.4066 3.36535 19.7577 3.743 20.0153C4.0508 20.3176 4.43911 20.5212 4.85965 20.6008C4.91887 20.6008 5.09651 20.6008 5.38836 20.5535C5.68021 20.5061 5.84939 20.5104 5.89592 20.5104C6.78416 20.5104 7.56525 20.0512 8.23918 19.1328C8.79058 18.4591 9.10867 17.6194 9.14433 16.7434V16.7391ZM13.6532 11.7107C13.6448 11.0713 13.4037 10.4576 12.9764 9.9887C12.7644 9.73259 12.4984 9.52837 12.1982 9.39124C11.8979 9.2541 11.5712 9.18756 11.2423 9.19654C10.9041 9.18887 10.5679 9.2509 10.2539 9.37889C9.93987 9.50688 9.65453 9.6982 9.41504 9.94134C9.18133 10.1609 8.99461 10.4271 8.86652 10.7234C8.73844 11.0197 8.67174 11.3397 8.67061 11.6634C8.7056 12.1572 8.8691 12.6327 9.14433 13.041C9.5673 13.7298 10.0453 14.0743 10.6332 14.0743C10.6658 14.0731 10.6982 14.0799 10.7276 14.0941C10.7571 14.1083 10.7827 14.1296 10.8024 14.1561C10.8175 14.181 10.8387 14.2016 10.8638 14.216C10.889 14.2303 10.9174 14.2378 10.9462 14.2379L11.3692 14.169C11.4395 14.1696 11.5091 14.1534 11.5722 14.1216C11.6353 14.0898 11.7048 14.0736 11.7752 14.0743C12.0609 14.0587 12.3377 13.9681 12.5786 13.8111C12.8196 13.6542 13.0164 13.4363 13.1499 13.1788C13.461 12.7549 13.6367 12.2439 13.6532 11.715V11.7107ZM19.5748 5.3779C19.5811 4.64067 19.3154 3.92786 18.8304 3.38034C18.5826 3.06487 18.2668 2.8118 17.9073 2.64081C17.5478 2.46983 17.1545 2.38552 16.7578 2.39446C15.7459 2.45209 14.7911 2.89002 14.0784 3.62338C13.3657 4.35674 12.9459 5.3333 12.9003 6.36378C12.8965 6.74866 12.9897 7.12811 13.171 7.46589C13.6434 7.40602 14.0833 7.1897 14.423 6.85026C14.7769 6.59224 15.0762 6.26425 15.3028 5.88591C15.3626 5.71327 15.3899 5.53069 15.3831 5.34777C15.3791 5.17385 15.3975 5.00015 15.4381 4.83116C15.5462 4.60782 15.7007 4.41101 15.8907 4.25427C16.1163 3.99379 16.4309 3.8306 16.7705 3.79793C16.9596 3.79875 17.1464 3.83976 17.3191 3.91834C17.4917 3.99693 17.6463 4.11135 17.7729 4.25427C17.9101 4.39702 18.0181 4.566 18.0907 4.75148C18.1633 4.93695 18.199 5.13523 18.1959 5.33485C18.2133 5.65651 18.134 5.97594 17.9685 6.25053C17.803 6.52512 17.5592 6.74184 17.2696 6.87178C17.1105 6.94078 16.9392 6.97595 16.7663 6.97511C16.6414 6.97388 16.5167 6.98541 16.3941 7.00955C16.0335 7.20356 15.7387 7.5036 15.5481 7.87057C15.3197 8.20245 15.1825 8.59033 15.1505 8.9942C15.1518 9.04218 15.1626 9.08939 15.1822 9.13303C15.2018 9.17667 15.2299 9.21585 15.2647 9.24822H16.2333C16.8756 9.1796 17.4798 8.90524 17.959 8.46468C18.5073 8.10424 18.9466 7.59604 19.2279 6.99663C19.439 6.48405 19.5593 5.93748 19.5833 5.38221L19.5748 5.3779ZM19.7355 17.5399C19.7456 17.0981 19.6679 16.6588 19.5071 16.2483C19.3076 15.8454 19.0741 15.4608 18.8092 15.0989C18.519 14.7794 18.1806 14.5091 17.8068 14.2981C17.466 14.0227 17.0634 13.8378 16.6351 13.76H15.3958V14.1905C15.4957 14.5523 15.6816 14.8836 15.9372 15.1548C16.1496 15.4719 16.3997 15.7611 16.6817 16.0159C16.7578 16.0632 17.0201 16.2096 17.4684 16.4464C17.7116 16.5862 17.9178 16.7842 18.069 17.0233C18.2041 17.2269 18.2777 17.4664 18.2805 17.7121C18.2807 17.8941 18.2432 18.0741 18.1703 18.2403C18.0974 18.4065 17.9908 18.5551 17.8575 18.6764C17.5767 18.9354 17.2085 19.0742 16.8297 19.0639C16.6161 19.0746 16.4026 19.0421 16.2015 18.9682C16.0004 18.8943 15.8157 18.7805 15.6581 18.6334C15.5139 18.4842 15.4018 18.3061 15.329 18.1104C15.2562 17.9147 15.2242 17.7058 15.2351 17.4968C15.2352 17.2401 15.2722 16.9849 15.3451 16.7391C15.141 16.3426 14.828 16.015 14.4441 15.7963C14.1321 15.5807 13.7791 15.434 13.4079 15.3658C13.238 15.7749 13.1462 16.2132 13.1372 16.6573C13.1355 17.1701 13.2347 17.6781 13.429 18.1512C13.7062 18.7301 14.1064 19.2389 14.6007 19.6408C15.1131 20.1856 15.8036 20.5209 16.5421 20.5836C16.656 20.5777 16.7692 20.5619 16.8805 20.5362C16.9834 20.5127 17.0881 20.4983 17.1935 20.4932C17.5612 20.4949 17.9239 20.4056 18.2502 20.2332C18.5766 20.0607 18.857 19.8101 19.0672 19.503C19.4963 18.9425 19.7339 18.2547 19.744 17.5442L19.7355 17.5399Z" fill="white"/>
</svg>
