<svg width="20" height="23" viewBox="0 0 20 23" fill="none" xmlns="http://www.w3.org/2000/svg">
<path d="M20 18.9139L18.6754 20.214C18.3758 20.57 18.0762 20.9182 17.7766 21.2587C17.272 21.8314 16.9408 22.1178 16.7831 22.1178C16.5624 22.1178 16.1563 21.7308 15.565 20.9569C14.9736 20.183 14.5676 19.7961 14.3468 19.7961C14.2837 19.7961 13.8343 19.9354 12.9986 20.2101L10.9644 20.8795C10.9644 21.8159 10.9171 22.5241 10.8697 23H8.45709V20.6783L8.12594 20.3997L7.33749 20.125C7.13093 20.0438 6.91713 19.9816 6.69884 19.9393C6.43603 19.9393 6.05363 20.4461 5.55165 21.4599C5.04967 22.4737 4.64362 22.9807 4.33349 22.9807C3.83976 22.7301 3.36541 22.4442 2.91428 22.1255L0.832772 20.7519C0.797407 20.7249 0.765622 20.6937 0.738159 20.659C0.702892 20.6078 0.686225 20.5465 0.690851 20.4849C0.836311 20.242 1.01103 20.0173 1.21123 19.8154L2.20468 18.6546C2.63044 18.8868 3.32428 19.2273 4.28619 19.6761C4.46737 19.4741 4.58272 19.2234 4.61734 18.9564C3.50573 18.3247 2.63391 17.3549 2.13372 16.1936C1.64661 15.2311 1.38784 14.1728 1.3768 13.0981C1.33787 12.1517 1.52509 11.2094 1.92348 10.3467C2.32188 9.48401 2.9204 8.72478 3.6712 8.12971C3.72566 8.07045 3.76651 8.0004 3.791 7.92429C3.81548 7.84819 3.82303 7.76781 3.81312 7.68859C3.69509 7.2905 3.5448 6.90232 3.3637 6.52776C2.96947 5.67648 2.72505 5.1038 2.63044 4.80972C2.2301 4.89563 1.86174 5.08846 1.56603 5.36692C1.28692 5.63043 0.945581 5.82188 0.572585 5.92412C0.356752 5.85628 0.161612 5.73656 0.00489977 5.57586C-0.00625502 5.21971 0.00163938 4.86323 0.0285523 4.50789C0.253151 4.0312 0.584689 3.61055 0.998349 3.27741C1.46851 2.88523 1.88228 2.43225 2.22833 1.93085C2.328 1.72415 2.43853 1.52267 2.55948 1.32722C2.64052 1.23515 2.74315 1.1638 2.85853 1.11932C2.9739 1.07483 3.09856 1.05852 3.22178 1.07182C3.42678 1.07182 3.81311 1.39686 4.3808 2.04693C4.88978 2.66178 5.2896 3.35639 5.56347 4.10161C5.8866 4.86665 6.08868 5.67568 6.1627 6.50067C6.18778 6.52426 6.21749 6.54261 6.25002 6.55459C6.28255 6.56656 6.31722 6.5719 6.35192 6.57032C7.12507 6.41255 7.88434 6.19519 8.62266 5.92025C8.48074 5.76547 7.99979 5.28567 7.1798 4.48083C6.82549 4.18399 6.51501 3.84017 6.25731 3.45929C6.25731 3.33547 6.83682 2.72795 7.99584 1.63677C9.15487 0.545585 9.78168 0 9.8763 0C9.97091 0 10.5938 0.56106 11.7449 1.6832C12.8961 2.80534 13.4716 3.41285 13.4716 3.50572C13.2358 3.84066 12.9576 4.14489 12.6438 4.41116C11.9815 5.0767 11.532 5.54879 11.2955 5.82739C11.9105 6.0286 12.5675 6.22207 13.2666 6.4078C13.3346 6.35938 13.3979 6.30499 13.4559 6.24529C13.6293 5.51784 14.2601 4.61497 15.3481 3.53668C16.4362 2.4584 17.2798 1.91279 17.8791 1.89989C17.9847 1.88589 18.0922 1.90537 18.1858 1.95548C18.2794 2.00559 18.3542 2.08373 18.3994 2.1785C18.5591 2.75536 18.7567 3.32148 18.9908 3.87332L19.6058 4.90646C19.8045 5.23295 19.9107 5.60569 19.9133 5.98602C19.9133 6.8373 19.6688 7.26294 19.18 7.26294C18.9592 7.26294 18.6754 7.03078 18.3285 6.56644C18.0988 6.1749 17.7631 5.85347 17.3587 5.63779C17.1379 5.96282 16.791 6.41167 16.3179 6.98435C16.0262 7.21453 15.7497 7.46267 15.4901 7.72728C16.2154 8.34639 16.7752 9.3602 17.1695 10.7687C17.4953 11.8624 17.6625 12.9956 17.6662 14.1351C17.6296 14.9152 17.4617 15.684 17.1695 16.4103C16.9242 17.1212 16.5906 17.7996 16.176 18.4302V18.6391L16.3179 18.8016C16.6806 18.4766 17.2325 17.9891 17.9737 17.339C18.3942 17.7079 19.0696 18.2328 20 18.9139ZM16.0026 13.4966C15.9485 12.4443 15.6317 11.4211 15.0801 10.5172C14.3862 9.29441 13.6214 8.5476 12.7857 8.28448C13.2957 8.94615 13.7096 9.67411 14.0157 10.4475C14.3622 11.2207 14.5626 12.0494 14.607 12.893C14.607 12.893 14.5597 13.1484 14.4651 13.7056C13.9605 16.4065 12.2811 17.7569 9.42688 17.7569C8.38353 17.7331 7.38069 17.3558 6.58846 16.6889C6.12207 16.3592 5.74032 15.9273 5.47345 15.4277C5.20659 14.928 5.06195 14.3741 5.05098 13.8101C5.04869 12.9676 5.26004 12.1378 5.66597 11.3955C6.21789 10.3637 7.02999 9.84775 8.10228 9.84775C8.4695 9.84323 8.83274 9.92268 9.16323 10.0798C9.49373 10.237 9.7824 10.4675 10.0064 10.7532C10.5194 11.3584 10.7924 12.1252 10.7751 12.9123C10.7486 13.1405 10.7011 13.3658 10.6332 13.5856H10.3927L9.56092 12.9588C9.26322 12.7097 8.89957 12.5486 8.51228 12.4944C8.31283 12.4909 8.1157 12.5369 7.93925 12.6283C7.7628 12.7196 7.61275 12.8533 7.50306 13.0168C7.25417 13.3243 7.1156 13.7038 7.10884 14.0964C7.1585 14.4836 7.33894 14.8432 7.62133 15.1179C7.7335 15.2856 7.88223 15.4268 8.05676 15.5312C8.23129 15.6356 8.42728 15.7006 8.63055 15.7216C8.69996 15.725 8.76773 15.7435 8.82905 15.7756C8.89038 15.8077 8.94374 15.8527 8.98535 15.9073L9.17458 15.7216H9.6989C10.088 15.7476 10.4774 15.676 10.8305 15.5135C11.1836 15.351 11.4888 15.1031 11.7173 14.7929C12.1068 14.2224 12.2989 13.5441 12.2653 12.8582C12.2459 11.9928 12.1509 11.1306 11.9815 10.2811C11.8584 9.83849 11.603 9.44223 11.2482 9.14351C10.9289 8.80377 10.5053 8.57554 10.0419 8.49344C9.89995 8.47797 9.65553 8.43925 9.30861 8.37734C9.13763 8.33425 8.96373 8.30322 8.78824 8.28448C8.08016 8.2688 7.37609 8.39295 6.71784 8.64953C6.05959 8.90611 5.46058 9.28987 4.95637 9.77808C4.43992 10.2674 4.03298 10.857 3.76148 11.5092C3.48999 12.1614 3.35988 12.862 3.37947 13.5663C3.39699 14.1643 3.53569 14.7528 3.78748 15.2976C4.03928 15.8423 4.39911 16.3324 4.84598 16.7392C5.8076 17.72 7.05551 18.3838 8.41767 18.6391C8.75617 18.6693 9.08973 18.7395 9.41111 18.8481C9.48986 18.8481 9.56726 18.8681 9.63582 18.9061C9.70438 18.9441 9.78178 18.9641 9.86053 18.9642C9.9236 18.9642 10.1247 18.9487 10.4637 18.9177C10.8027 18.8868 11.0038 18.8713 11.0669 18.8713C11.174 18.8668 11.2807 18.8552 11.3862 18.8365C11.4995 18.8167 11.6141 18.805 11.7292 18.8016C11.8446 18.792 11.9571 18.7605 12.0603 18.7088C12.1599 18.6584 12.2682 18.6269 12.3796 18.6159C12.4076 18.6199 12.4362 18.6139 12.46 18.599C12.4839 18.584 12.5015 18.5612 12.5097 18.5346C12.5255 18.4805 12.5728 18.4534 12.6516 18.4534C12.8882 18.4534 13.3139 18.2212 13.9289 17.753C14.2502 17.5203 14.5509 17.2615 14.8278 16.9791C15.5538 15.9526 15.9618 14.7418 16.0026 13.4928V13.4966Z" fill="white"/>
</svg>
