<svg width="23" height="22" viewBox="0 0 23 22" fill="none" xmlns="http://www.w3.org/2000/svg">
<path d="M23 15.4526C22.9913 16.3135 22.7577 17.1565 22.3231 17.8953C21.9422 18.6773 21.2958 19.2926 20.5034 19.6275C19.8457 19.9213 19.157 20.1374 18.4509 20.2715C17.5527 20.2556 16.6743 20.0004 15.9034 19.5313C15.0829 19.0797 14.3967 18.4125 13.9163 17.5993C13.5553 17.9022 13.2833 18.3005 13.1302 18.7503C12.7226 19.7237 12.5116 20.2308 12.497 20.2308C12.235 20.6453 11.8856 21.2351 11.4489 22L9.17797 17.9583C8.57539 18.6246 7.90159 19.2205 7.16907 19.7348C6.53608 20.0959 5.82031 20.2798 5.09468 20.2678C5.13835 20.2678 4.75258 20.1864 3.93738 20.0235C2.74321 19.8126 1.67745 19.1352 0.967717 18.1359C0.315604 17.1954 -0.0212943 16.0663 0.00693777 14.9159C-0.0101981 14.5895 0.00442839 14.2622 0.0506075 13.9388C0.197526 13.3861 0.458008 12.8714 0.814862 12.4287C1.03007 12.1643 1.27428 11.9259 1.54272 11.718C1.78534 11.5404 1.90665 11.3849 1.90665 11.2517C1.7515 10.9797 1.56048 10.7307 1.33892 10.5114C1.02222 10.158 0.744012 9.77087 0.509162 9.35665C0.233802 8.72839 0.0995391 8.04563 0.116123 7.35799C0.140206 5.96932 0.657235 4.63637 1.57184 3.60498C2.57629 2.37124 3.7263 1.75437 5.02189 1.75437C6.31747 1.75437 7.58396 2.71668 8.82132 4.64131C9.18856 3.93065 9.50949 3.19623 9.78208 2.44279C10.1046 1.57037 10.5456 0.748145 11.0922 0C11.7619 0.769852 12.6207 2.28734 13.6689 4.55249C13.7708 4.55249 13.8363 4.52288 13.8654 4.46366C14.3287 3.69358 15.0152 3.08841 15.8306 2.73147C16.5744 2.31213 17.4046 2.07633 18.2544 2.04305C18.91 2.04097 19.5557 2.20666 20.1319 2.52488C20.708 2.8431 21.1963 3.30364 21.5516 3.86407C22.2315 4.77132 22.6066 5.87684 22.6215 7.01748C22.5822 7.73162 22.3724 8.42527 22.0101 9.03835C21.5779 9.90263 20.9398 10.6432 20.1541 11.1925C20.1541 11.2369 20.2196 11.3035 20.3506 11.3923C22.1169 12.0265 23 13.3799 23 15.4526ZM7.88966 11.4996C7.8886 10.322 7.73441 9.14965 7.43111 8.01311C6.89249 6.08848 6.03361 5.12617 4.85448 5.12617C4.5848 5.12441 4.31819 5.18436 4.07439 5.30161C3.83059 5.41885 3.61585 5.59039 3.44608 5.8035C3.07558 6.21193 2.86911 6.74679 2.86743 7.30248C2.85256 7.76128 2.99974 8.21032 3.2823 8.56829C3.45192 8.76774 3.66391 8.92535 3.90223 9.02923C4.14055 9.1331 4.39897 9.18052 4.65796 9.16788C5.01635 9.20124 5.37419 9.0984 5.66241 8.8792C5.77712 8.75601 5.86954 8.61316 5.93536 8.45726C5.98154 8.33791 6.04401 8.22576 6.12095 8.12414C6.21199 8.27922 6.26447 8.45455 6.27382 8.63491C6.2434 8.92348 6.17736 9.20701 6.07728 9.4788C5.96028 9.84372 5.80278 10.1939 5.60782 10.5225C5.40997 10.8169 5.18711 11.0931 4.94182 11.3479C5.58172 12.0699 5.95259 12.9971 5.98994 13.9684C5.98994 14.7678 5.85165 15.1676 5.57507 15.1676C5.51684 15.1676 5.4586 15.0269 5.40038 14.7456C5.33847 14.4551 5.21419 14.1821 5.03645 13.9462C4.90445 13.7999 4.74156 13.6859 4.56002 13.6128C4.37849 13.5397 4.18302 13.5094 3.98833 13.5242C2.9111 13.5242 2.37248 14.1164 2.37248 15.3008C2.36398 15.5379 2.37127 15.7753 2.39431 16.0114C2.48962 16.2266 2.62283 16.4223 2.78736 16.5888C3.0876 16.8199 3.41839 17.0069 3.76997 17.144C3.99789 17.2652 4.24375 17.3477 4.49783 17.3883C4.52925 17.3912 4.56067 17.3828 4.58661 17.3645C4.61255 17.3462 4.63137 17.3193 4.63976 17.2883C4.64816 17.2574 4.66697 17.2305 4.69291 17.2122C4.71885 17.1939 4.75027 17.1855 4.78169 17.1884C5.21229 17.1614 5.62749 17.0155 5.98265 16.7665C6.32775 16.5322 6.63061 16.2392 6.87793 15.9004C7.55241 14.8394 7.88966 13.3725 7.88966 11.4996ZM12.7372 11.4552C12.7372 9.44177 12.2519 7.13963 11.2815 4.54878C10.4106 6.45726 9.94205 8.52993 9.90582 10.6336C9.92995 13.0261 10.4249 15.3895 11.3615 17.5844C11.8079 16.7222 12.1279 15.7983 12.3114 14.8418C12.5796 13.7331 12.7225 12.5969 12.7372 11.4552ZM20.1395 15.1194C20.1402 14.9159 20.0965 14.7147 20.0115 14.5304C19.9266 14.3461 19.8025 14.1832 19.6482 14.0535C19.3282 13.7602 18.9107 13.6015 18.48 13.6093C18.227 13.5745 17.97 13.6294 17.7521 13.7648C17.5775 13.9277 17.3737 14.4212 17.1407 15.2453C16.9573 14.9641 16.8242 14.652 16.7477 14.3237C16.6293 13.9835 16.5558 13.6287 16.5293 13.2688C16.5293 13.0023 16.7841 12.3583 17.2936 11.3368C16.8678 10.9554 16.5384 10.4756 16.3328 9.93774C16.1552 9.50838 16.0589 9.0488 16.049 8.58311C16.036 8.18409 16.1184 7.78782 16.2891 7.42831L16.7695 8.49426C16.8485 8.69287 16.9845 8.86267 17.1598 8.98151C17.3351 9.10035 17.5415 9.16274 17.7521 9.1605C17.9823 9.1666 18.2111 9.12326 18.4237 9.03334C18.6363 8.94341 18.8279 8.80891 18.9859 8.63861C19.1548 8.4479 19.2852 8.2252 19.3695 7.98324C19.4538 7.74128 19.4904 7.4848 19.4772 7.22845C19.4772 6.01446 18.8294 5.40746 17.5338 5.40746C17.0158 5.38031 16.502 5.5146 16.0611 5.79238C15.6202 6.07017 15.2731 6.47822 15.0663 6.96198C14.6901 7.82024 14.5109 8.75433 14.5423 9.69347C14.5346 10.9115 14.6665 12.1263 14.9353 13.3132C15.3284 14.8974 15.9349 15.9707 16.755 16.5333C16.9397 16.6984 17.155 16.8242 17.3882 16.9034C17.4311 16.9032 17.4736 16.912 17.5131 16.9292C17.5525 16.9463 17.5881 16.9716 17.6175 17.0034C17.6436 17.0334 17.6755 17.0578 17.7111 17.075C17.7468 17.0922 17.7855 17.1018 17.8249 17.1033C17.9209 17.0998 18.0162 17.0849 18.1088 17.0589C18.2014 17.0328 18.2967 17.0179 18.3927 17.0145C18.6544 17.0121 18.9115 16.9431 19.1403 16.8138C19.3691 16.6845 19.5625 16.499 19.7028 16.2742C19.9673 15.9474 20.1205 15.5423 20.1395 15.1194Z" fill="#4318A8"/>
</svg>
