<svg width="1142" height="1147" viewBox="0 0 1142 1147" fill="none" xmlns="http://www.w3.org/2000/svg">
<path d="M783.334 584.981L977.112 785.43C959.429 801.767 946.145 814.53 937.263 823.716C932.792 828.34 929.429 832.066 927.181 834.89C926.057 836.301 925.203 837.497 924.628 838.475C924.068 839.428 923.722 840.253 923.722 840.894C923.722 842.065 924.307 843.596 925.368 845.444C926.44 847.311 928.04 849.571 930.161 852.221C934.404 857.522 940.769 864.427 949.268 872.93L949.269 872.93L994.791 918.309C979.478 935.904 953.975 962.888 917.955 1000.07C892.742 973.861 866.146 949.022 838.28 925.657L837.965 925.392L837.645 925.651C817.562 941.844 798.596 959.376 780.877 978.128L578.366 778.989L578.023 778.651L577.672 778.981L348.383 994.857C328.362 979.868 310.473 962.22 295.211 942.4L294.897 941.992L294.499 942.318C275.203 958.112 247.496 981.448 211.379 1012.32C204.897 1005.94 179.388 978.933 134.682 930.497C157.43 906.18 182.306 883.947 209.016 864.066L209.382 863.794L209.143 863.404C194.425 839.405 176.793 817.322 156.651 797.659L377.801 579.048L378.071 578.781L377.886 578.45C375.473 574.114 373.605 569.497 372.325 564.703L372.291 564.577L372.201 564.484C321.795 512.409 253.02 441.572 165.876 351.974L219.132 298.694L219.416 298.41L219.2 298.072C210.881 285.013 200.811 273.157 189.273 262.834C165.55 237.962 150.474 221.902 143.888 214.812C154.211 201.167 165.873 188.59 178.699 177.268L178.705 177.262L178.711 177.257L225.027 133.704C248.86 158.69 267.224 177.469 280.075 190.018C286.531 196.322 291.601 201.059 295.278 204.223C297.115 205.803 298.613 206.999 299.767 207.802C300.343 208.203 300.844 208.513 301.265 208.726C301.669 208.929 302.062 209.075 302.402 209.075C302.712 209.075 303.065 208.978 303.437 208.83C303.817 208.679 304.257 208.458 304.751 208.172C305.741 207.601 306.987 206.751 308.483 205.631C311.476 203.388 315.503 200.031 320.527 195.562C330.511 186.681 344.459 173.386 362.106 155.659L582.275 381.689L582.618 382.041L582.976 381.705L786.047 190.738C797.734 199.035 808.641 208.381 818.632 218.659L818.637 218.664C825.652 225.682 831.442 230.979 836.002 234.525C838.282 236.298 840.265 237.642 841.949 238.544C843.62 239.441 845.049 239.932 846.205 239.932H846.332L846.443 239.871C859.426 232.847 871.078 223.602 880.871 212.554C907.798 187.333 923.512 172.753 928.027 168.8C940.258 178.689 951.607 189.623 961.945 201.478L961.951 201.484L961.956 201.49C987.342 228.816 1003.03 245.033 1008.26 250.134C981.743 272.908 961.828 291.144 948.521 304.84C941.834 311.722 936.806 317.469 933.446 322.075C931.766 324.378 930.495 326.407 929.643 328.158C928.794 329.902 928.34 331.411 928.34 332.662C928.34 333.364 928.644 334.246 929.168 335.272C929.699 336.313 930.487 337.563 931.525 339.017C933.603 341.926 936.709 345.696 940.837 350.321C949.038 359.51 961.304 372.114 977.63 388.128C953.596 414.894 921.824 447.768 882.309 486.752C829.034 538.236 796.206 570.913 783.333 584.286L782.999 584.634L783.334 584.981ZM845.442 781.472L845.72 781.124L845.405 780.808L647.834 582.163L846.39 387.968L846.715 387.651L846.43 387.297C834.097 371.985 814.124 350.518 786.521 322.903L786.18 322.562L785.826 322.891L582.477 512.821L358.172 292.373L357.824 292.031L357.473 292.371C351.526 298.156 340.96 308.892 327.589 324.416C314.241 339.912 303.695 350.463 297.925 356.236L297.579 356.582L297.918 356.935L513.152 581.323L289.021 802.586L288.658 802.944L289.024 803.3C294.945 809.06 304.496 819.768 318.028 834.956C331.558 850.143 341.956 861.041 348.891 867.979L349.235 868.323L349.588 867.99L578.672 652.152L780.874 845.711L781.192 846.015L781.534 845.738C805.103 826.699 826.532 805.15 845.442 781.472Z" stroke="white"/>
<path d="M800.845 574.048L1024.09 781.243C1005.75 800.115 991.996 814.826 982.843 825.371C978.238 830.677 974.789 834.937 972.504 838.147C971.362 839.751 970.502 841.104 969.934 842.201C969.378 843.273 969.055 844.183 969.092 844.87C969.16 846.133 969.883 847.76 971.149 849.711C972.426 851.681 974.303 854.05 976.773 856.813C981.713 862.342 989.062 869.495 998.835 878.265L998.836 878.266L1051.2 925.095C1035.53 945.19 1009.28 976.142 972.133 1018.85C943.074 991.747 912.584 966.218 880.795 942.373L880.466 942.126L880.16 942.401C859.194 961.252 839.526 981.499 821.292 1003L588.592 797.752L588.232 797.434L587.9 797.781L350.437 1046.72C327.695 1031.55 307.126 1013.35 289.296 992.625L288.961 992.235L288.58 992.582C268.455 1010.95 239.592 1038.03 201.992 1073.85C194.594 1067.32 165.152 1039.35 113.433 989.078C136.827 961.206 162.669 935.484 190.65 912.22L191.002 911.927L190.742 911.551C173.264 886.239 152.718 863.189 129.574 842.93L358 591.479L358.256 591.197L358.053 590.876C355.164 586.287 352.852 581.359 351.171 576.203L351.131 576.08L351.036 575.991C292.971 522.17 213.755 448.968 113.389 356.385L168.383 295.114L168.651 294.816L168.418 294.489C158.574 280.742 146.892 268.409 133.699 257.835C106.319 232.08 88.9159 215.446 81.3276 208.115C91.793 192.614 103.784 178.198 117.122 165.085L117.128 165.079L117.133 165.074L165.13 114.819C192.619 140.676 213.77 160.082 228.535 173.013C235.949 179.506 241.759 184.373 245.955 187.605C248.052 189.22 249.756 190.434 251.06 191.241C251.712 191.644 252.274 191.951 252.743 192.156C253.195 192.354 253.623 192.486 253.983 192.466C254.313 192.449 254.686 192.326 255.081 192.143C255.484 191.957 255.948 191.691 256.47 191.351C257.513 190.671 258.822 189.673 260.387 188.363C263.518 185.743 267.713 181.846 272.931 176.677C283.305 166.399 297.749 151.069 315.972 130.681L569.52 364.216L569.881 364.548L570.22 364.193L780.546 143.958C793.799 152.324 806.261 161.881 817.779 172.51L817.784 172.515C825.85 179.754 832.477 185.188 837.659 188.784C840.249 190.582 842.489 191.929 844.376 192.813C846.25 193.691 847.83 194.138 849.079 194.07L849.206 194.063L849.314 193.997C863.06 185.575 875.224 174.81 885.254 162.189C913.202 133.041 929.497 116.206 934.154 111.668C948.094 121.739 961.132 133.003 973.121 145.332L973.126 145.338L973.132 145.343C1002.5 173.705 1020.59 190.475 1026.55 195.691C998.943 222.103 978.28 243.173 964.565 258.897C957.675 266.795 952.529 273.356 949.137 278.574C947.44 281.184 946.175 283.468 945.35 285.425C944.527 287.373 944.124 289.038 944.197 290.393C944.238 291.146 944.617 292.083 945.248 293.169C945.887 294.271 946.819 295.585 948.037 297.108C950.473 300.156 954.082 304.083 958.858 308.883C968.351 318.424 982.485 331.454 1001.26 347.968C976.607 378.579 943.869 416.313 903.038 461.171C847.95 520.449 814.061 558.015 800.807 573.355L800.491 573.72L800.845 574.048ZM880.106 784.661L880.366 784.298L880.034 783.999L652.754 578.997L857.968 355.502L858.276 355.167L857.972 354.829C843.617 338.86 820.564 316.63 788.824 288.144L788.464 287.822L788.129 288.17L577.435 507.295L319.705 280.094L319.338 279.771L319.007 280.13C312.86 286.787 301.966 299.116 288.294 316.83C274.643 334.517 263.759 346.644 257.803 353.279L257.476 353.644L257.834 353.978L505.899 586.012L274.378 840.53L274.034 840.907L274.419 841.243C281.22 847.176 292.272 858.291 307.929 874.056C323.584 889.819 335.569 901.089 343.543 908.245L343.905 908.569L344.239 908.218L581.484 659.326L813.516 858.507L813.849 858.793L814.176 858.499C838.766 836.35 860.873 811.592 880.106 784.661Z" stroke="#01DB9B"/>
<path d="M815.635 553.561L1069.46 752.35C1051.77 773.884 1038.55 790.62 1029.83 802.554C1025.44 808.556 1022.18 813.353 1020.05 816.939C1018.99 818.731 1018.2 820.232 1017.7 821.438C1017.21 822.617 1016.95 823.599 1017.05 824.311C1017.23 825.63 1018.13 827.276 1019.64 829.221C1021.16 831.184 1023.35 833.515 1026.2 836.211C1031.9 841.604 1040.28 848.496 1051.36 856.881L1051.36 856.882L1110.77 901.654C1096.01 924.235 1071.04 959.212 1035.6 1007.57C1002.55 981.544 968.123 957.311 932.476 934.97L932.128 934.752L931.846 935.051C911.388 956.79 892.425 979.887 875.085 1004.18L611.46 808.283L611.074 807.996L610.772 808.37L382.254 1091.91C356.912 1077.92 333.596 1060.54 312.95 1040.25L312.583 1039.89L312.233 1040.26C292.622 1061.41 264.562 1092.54 228.054 1133.63C219.708 1127.44 186.165 1100.53 127.104 1052.04C149.324 1020.56 174.318 991.145 201.788 964.13L202.114 963.81L201.824 963.456C181.146 938.301 157.43 915.806 131.218 896.484L349.986 611.093L350.217 610.792L349.989 610.488C346.533 605.903 343.658 600.908 341.429 595.617L341.379 595.497L341.276 595.417C275.266 543.787 185.229 473.586 71.166 384.814L123.783 315.315L124.025 314.995L123.765 314.689C112.168 301.063 98.7579 289.092 83.9083 279.108C52.7266 254.348 32.8929 238.339 24.2504 231.287C33.9243 214.005 45.3055 197.734 58.2235 182.718L58.2287 182.712L58.2336 182.706L104.443 125.443C135.736 150.29 159.769 168.891 176.491 181.226C184.885 187.418 191.443 192.036 196.154 195.073C198.509 196.591 200.412 197.721 201.858 198.455C202.58 198.822 203.199 199.096 203.71 199.27C204.203 199.438 204.662 199.538 205.032 199.486C205.373 199.439 205.752 199.279 206.151 199.052C206.558 198.821 207.023 198.5 207.543 198.096C208.582 197.288 209.873 196.121 211.408 194.602C214.479 191.562 218.56 187.082 223.607 181.17C233.646 169.411 247.533 151.96 264.964 128.837L553.079 352.724L553.467 353.025L553.775 352.643L756.204 101.777C770.932 109.431 784.932 118.413 798.028 128.61L798.033 128.615C807.182 135.536 814.651 140.68 820.433 144.013C823.323 145.68 825.804 146.901 827.87 147.666C829.924 148.425 831.624 148.755 832.929 148.574L833.054 148.557L833.156 148.482C846.91 138.387 858.789 125.961 868.253 111.767C895.192 78.5182 910.9 59.3166 915.391 54.1462C930.995 63.538 945.752 74.2692 959.495 86.2185L959.501 86.2237L959.507 86.2287C993.034 113.577 1013.6 129.67 1020.33 134.621C993.53 164.925 973.587 188.979 960.506 206.777C953.937 215.715 949.089 223.087 945.972 228.889C944.413 231.79 943.281 234.309 942.584 236.443C941.889 238.569 941.612 240.355 941.808 241.771C941.917 242.555 942.396 243.504 943.157 244.593C943.927 245.697 945.026 246.999 946.444 248.498C949.282 251.496 953.436 255.317 958.897 259.956C969.757 269.182 985.825 281.678 1007.09 297.442C983.796 331.908 952.589 374.604 913.471 425.531C860.596 492.913 828.166 535.525 815.539 552.873L815.255 553.264L815.635 553.561ZM917.808 768.671L918.036 768.288L917.681 768.017L659.795 571.899L856.547 318.042L856.825 317.683L856.494 317.372C839.942 301.801 813.661 280.396 777.663 253.162L777.277 252.87L776.973 253.245L574.055 502.976L282.088 286.139L281.696 285.848L281.396 286.233C275.5 293.797 265.097 307.761 252.241 327.65C239.403 347.509 228.991 361.261 223.295 368.785L222.999 369.176L223.384 369.479L505.582 592.267L283.821 881.165L283.51 881.57L283.922 881.872C291.621 887.528 304.262 898.274 322.171 913.515C340.077 928.754 353.715 939.58 362.759 946.422L363.146 946.714L363.45 946.337L591.745 662.866L854.129 852.425L854.485 852.682L854.786 852.362C878.767 826.832 899.899 798.77 917.808 768.671Z" stroke="#4318A8"/>
</svg>
