<svg width="22" height="22" viewBox="0 0 22 22" fill="none" xmlns="http://www.w3.org/2000/svg">
<path d="M0.000671387 2.86506C-0.00396919 2.74723 0.0155392 2.62968 0.0580444 2.51933C0.100548 2.40898 0.16519 2.30805 0.248173 2.22247C0.308767 2.15216 0.382973 2.09423 0.466528 2.05203C0.550083 2.00983 0.641344 1.98418 0.735069 1.97655C1.0556 1.97655 1.40048 2.23834 1.77377 2.76986C2.43918 3.67027 2.80435 4.15816 2.87739 4.22956C3.07926 4.46683 3.32983 4.66005 3.61289 4.7967C3.89595 4.93335 4.2052 5.0104 4.52064 5.02287C4.75191 5.02287 4.82495 5.02287 4.73974 5.0665C4.92677 4.99713 5.0909 4.87918 5.21446 4.72538C5.06798 4.19592 4.76782 3.71924 4.35022 3.35295C4.20416 3.2366 3.64829 2.8558 2.68262 2.21058C2.50022 2.12231 2.34336 1.99074 2.22641 1.82789C2.10945 1.66505 2.03613 1.47613 2.01315 1.27843C2.01547 1.17686 2.04333 1.07741 2.09428 0.988859C2.14523 0.900311 2.2177 0.825388 2.30529 0.770708C2.48225 0.637371 2.69861 0.56362 2.92202 0.56048C2.96259 0.56048 3.44136 0.766743 4.35022 1.1753C6.46465 2.14417 8.76307 2.66977 11.0977 2.71829H12.3149C12.6017 2.69185 13.2779 2.55963 14.3436 2.32164C14.9198 2.19735 16.5644 1.59047 19.2775 0.500984C19.3933 0.49534 19.5089 0.514017 19.6167 0.555754C19.7245 0.59749 19.8219 0.661322 19.9023 0.742945C20.0425 0.863419 20.1285 1.03299 20.1417 1.21497C20.1417 1.45693 19.8699 1.77822 19.3302 2.18678C18.4498 2.82936 17.9385 3.22602 17.7925 3.37675C17.5558 3.57497 17.3621 3.81745 17.2228 4.08993C17.0834 4.3624 17.0012 4.65938 16.981 4.96337C16.981 5.20137 17.1352 5.32036 17.4354 5.32036C17.7409 5.30217 18.0392 5.22228 18.3116 5.08574C18.5839 4.9492 18.8244 4.75897 19.0178 4.52705C19.1476 4.40012 19.5412 3.89637 20.2066 3.02372C20.6124 2.47237 20.9613 2.19868 21.221 2.19868C21.329 2.19985 21.4346 2.23009 21.5262 2.28606C21.6178 2.34204 21.6919 2.42159 21.7403 2.516C21.8584 2.69118 21.9192 2.89728 21.9148 3.10702C21.9148 3.10702 21.72 3.53144 21.3305 4.41995C20.9216 5.37745 20.5747 6.35913 20.2918 7.35918C19.9242 8.58242 19.7277 9.84867 19.7076 11.1235C19.751 12.8207 20.1027 14.4968 20.7463 16.0737C20.8315 16.284 21.0871 16.867 21.505 17.8071C21.7093 18.2146 21.875 18.6394 22 19.0764C22 19.6674 21.7687 19.9649 21.3102 19.9649C21.0506 19.9649 20.7179 19.6952 20.3121 19.1716C19.6629 18.3109 19.2694 17.8111 19.1233 17.6683C18.9248 17.43 18.6783 17.2341 18.3991 17.0928C18.1199 16.9516 17.814 16.868 17.5003 16.8472C17.0946 16.8472 16.9161 16.994 16.9161 17.2915C16.9161 17.7278 17.4503 18.3479 18.5187 19.1518C19.5872 19.9557 20.1201 20.5057 20.1174 20.8019C20.1241 20.8506 20.1241 20.8999 20.1174 20.9486C19.9974 21.0819 19.851 21.1899 19.6872 21.2663C19.5233 21.3426 19.3453 21.3857 19.1639 21.3929C19.1341 21.3929 18.6797 21.2025 17.8006 20.8217C17.1151 20.4988 16.4074 20.2232 15.6826 19.9967C14.1316 19.5247 12.5255 19.2475 10.903 19.1716C9.66266 19.1923 8.43223 19.3915 7.25128 19.7626C6.25175 20.0874 5.26992 20.4621 4.30965 20.8852C3.82815 21.1259 3.32907 21.3314 2.81652 21.5C2.61473 21.4859 2.42026 21.4202 2.25254 21.3096C1.98069 21.1509 1.8468 20.9923 1.8468 20.8217C1.8468 20.552 2.12676 20.2148 2.69074 19.8063C3.5996 19.1161 4.11084 18.7194 4.22445 18.6163C4.46376 18.4204 4.6593 18.1784 4.7989 17.9055C4.9385 17.6325 5.01918 17.3344 5.03593 17.0297C5.05026 16.8959 5.03504 16.7606 4.9913 16.633C4.96289 16.6053 4.8574 16.5934 4.6667 16.5934C4.34533 16.6072 4.03068 16.688 3.7438 16.8303C3.45691 16.9725 3.20441 17.1731 3.00316 17.4184C2.90038 17.5136 2.51763 18.0279 1.85491 18.9614C1.44917 19.5088 1.10023 19.7864 0.795927 19.7864C0.688328 19.7813 0.584398 19.7465 0.496109 19.6862C0.40782 19.6258 0.33876 19.5423 0.296867 19.4453C0.181789 19.2676 0.114771 19.0643 0.102106 18.8543C0.102106 18.6824 0.405062 17.9922 1.01097 16.7838C1.4252 15.845 1.73797 14.8666 1.94418 13.8644C2.20583 12.8528 2.35814 11.8171 2.39861 10.7744C2.33718 9.69883 2.14791 8.63392 1.83463 7.60114C1.58535 6.58085 1.24456 5.58403 0.816216 4.62225C0.657976 4.30889 0.499739 4.00743 0.341499 3.70994C0.18 3.4491 0.064764 3.16345 0.000671387 2.86506ZM4.84523 7.62494V13.7136C4.84523 14.0389 5.05622 14.2015 5.47413 14.2015C5.67931 14.1646 5.87945 14.1048 6.07057 14.023C6.26062 13.9412 6.45927 13.88 6.66296 13.8406C6.90009 13.8613 7.1258 13.9496 7.31214 14.0944C7.45288 14.1833 7.56834 14.3056 7.64779 14.4499C7.72724 14.5941 7.7681 14.7556 7.76657 14.9195C7.72968 15.11 7.66834 15.2953 7.58399 15.4708C7.49925 15.6466 7.43658 15.8317 7.39735 16.0222C7.39317 16.1317 7.41921 16.2403 7.47275 16.3366C7.52629 16.4329 7.60536 16.5134 7.70166 16.5696L9.23942 16.6568L10.3187 16.6965L11.8767 16.6568L14.2138 16.5696C14.3377 16.4279 14.4067 16.2482 14.4086 16.0618C14.3881 15.8634 14.3403 15.6686 14.2666 15.4827C14.1879 15.2751 14.1414 15.0572 14.1286 14.8362C14.1275 14.7291 14.1411 14.6223 14.1692 14.5188C14.3153 14.1222 14.5506 13.9278 14.8833 13.9278C15.1686 13.9938 15.447 14.0854 15.7151 14.2015C15.9903 14.3207 16.2771 14.4124 16.5712 14.4752C16.7781 14.4697 16.977 14.3955 17.1352 14.265L17.2406 11.1552C17.2406 11.1155 17.2406 10.6633 17.2001 9.80259C17.1554 8.87441 17.1352 8.21596 17.1352 7.7955C17.0555 7.74732 16.9819 7.69006 16.9161 7.62494C16.8454 7.56005 16.7532 7.52206 16.6564 7.51785C16.5733 7.52344 16.4939 7.55391 16.4292 7.60511C16.3617 7.65643 16.2793 7.68558 16.1938 7.68841C16.051 7.70984 15.9134 7.75691 15.7881 7.82724C15.6612 7.89345 15.5242 7.939 15.3823 7.9621C15.1121 7.94724 14.8574 7.83404 14.6682 7.64477C14.5614 7.56883 14.4729 7.47083 14.4091 7.35773C14.3453 7.24462 14.3077 7.11918 14.299 6.99029C14.3204 6.77283 14.3723 6.55927 14.4532 6.35564C14.5373 6.13119 14.5879 5.89607 14.6033 5.65752C14.6058 5.45491 14.5288 5.25905 14.3883 5.11014H8.37113C7.83961 5.11014 7.55964 5.3283 7.55964 5.76462C7.594 5.96854 7.65537 6.16722 7.74223 6.35564C7.82882 6.53758 7.89154 6.7295 7.92887 6.92682C7.92771 7.10155 7.89044 7.27425 7.81932 7.43454C7.77896 7.55578 7.70105 7.66175 7.59638 7.73779C7.4917 7.81383 7.36543 7.85618 7.23505 7.85897C7.03068 7.81182 6.83403 7.73706 6.65078 7.63684C6.46617 7.53347 6.26637 7.45854 6.0584 7.41471C5.96619 7.41222 5.87474 7.39754 5.78655 7.37108C5.69568 7.34424 5.6015 7.32956 5.50659 7.32745C5.15765 7.32745 4.93449 7.42264 4.84523 7.62494Z" fill="#4318A8"/>
</svg>
