<svg width="23" height="24" viewBox="0 0 23 24" fill="none" xmlns="http://www.w3.org/2000/svg">
<path d="M23 20.4379C21.5953 19.239 20.8929 18.5202 20.8929 18.2816C20.8929 18.1608 21.3265 17.6778 22.1936 16.8325C21.5606 16.1309 20.7224 15.2684 19.679 14.2448C18.2786 12.8992 17.4158 12.0453 17.0777 11.696L22.1806 6.44731C21.2412 5.58476 20.7715 5.10172 20.7715 4.99821C20.7715 4.8904 20.9926 4.61439 21.4392 4.17017L22.6445 2.97552C22.2413 2.51406 21.5649 1.80245 20.6068 0.819139C19.9416 1.50738 19.2396 2.15955 18.504 2.77283C17.9731 2.34716 17.472 1.88608 17.004 1.39275L11.6713 6.60688L5.63619 0.957151C5.10538 1.35104 4.63129 1.81539 4.22714 2.33724C3.71844 1.92322 2.98718 1.3108 2.03337 0.5C1.87729 0.650946 1.20094 1.36255 0 2.65638C0.600718 3.29598 1.25803 3.88057 1.964 4.40306C1.57534 5.03318 1.1093 5.61267 0.576627 6.12817L6.39924 11.8512C6.33529 11.9655 6.28578 12.0871 6.25184 12.2135C4.92516 13.5763 3.11436 15.4308 0.819415 17.777L2.22846 19.1786C2.01033 19.5191 1.74629 19.8281 1.44373 20.0972C0.810745 20.7571 0.411875 21.1797 0.242789 21.3609C0.516304 21.7216 0.825695 22.0539 1.16626 22.3528L2.39322 23.5C3.65486 22.1846 4.33553 21.5248 4.42657 21.5248C4.51762 21.5248 5.05957 21.9905 5.99604 22.9264L11.7926 17.0093L17.1384 22.0078C17.4495 21.7889 17.7398 21.5421 18.0055 21.2703C18.374 20.9037 18.6124 20.7183 18.7208 20.7183C19.0609 20.9012 19.3661 21.1421 19.6226 21.4299C20.3481 22.1055 20.7643 22.4894 20.8713 22.5814C21.1966 22.3206 21.4984 22.032 21.773 21.7188C22.4581 20.9857 22.8743 20.5587 23 20.4379ZM18.6905 6.55945L13.4878 11.7606L18.7165 16.8454C18.3928 17.245 17.8682 17.8057 17.1427 18.5274L11.7883 13.5548L5.88331 19.3252C5.72723 19.1743 5.44976 18.894 5.09858 18.4886C4.74741 18.0832 4.46993 17.8071 4.31819 17.6562L9.98473 11.7822L4.08407 5.99016C4.24015 5.83921 4.49161 5.55888 4.84712 5.1621C5.20264 4.76533 5.47578 4.48068 5.65787 4.29955L11.6886 9.94928L17.0126 4.88177C17.6314 5.37881 18.194 5.94135 18.6905 6.55945Z" fill="#4318A8"/>
</svg>
