<svg width="23" height="20" viewBox="0 0 23 20" fill="none" xmlns="http://www.w3.org/2000/svg">
<path d="M23 3.95445C23 3.80518 22.9438 4.45541 22.8314 5.90512C22.7138 7.34679 22.4909 8.77764 22.1645 10.1859C22.0413 10.3787 21.9347 10.5818 21.8461 10.7932C21.3465 13.0323 19.9815 15.1271 17.7511 17.0778C15.5207 19.0285 13.4164 20.0025 11.4382 20C10.5118 19.9516 9.59408 19.7949 8.70321 19.5332C5.39877 18.6983 3.01721 16.5667 1.55856 13.1385C0.522019 10.6717 0.00249769 7.67361 0 4.1442L0.221044 0C0.595698 0.296015 0.970356 0.963954 1.41994 2.00001C1.88451 3.18407 2.59635 4.9551 3.55546 7.3131C3.77026 7.81911 4.1162 8.54015 4.59326 9.47626C4.93331 9.98125 5.30894 10.4607 5.71722 10.9108C6.42407 11.7204 6.89738 12.124 7.13716 12.1214C7.17404 12.1166 7.21147 12.1239 7.24388 12.1424C7.27629 12.1609 7.30194 12.1895 7.31699 12.2239C7.32548 12.2539 7.34388 12.2801 7.3691 12.298C7.39432 12.316 7.42485 12.3246 7.45561 12.3226L7.65417 12.5275C7.9181 12.7026 8.20949 12.8309 8.51588 12.907C8.65881 12.9247 8.79947 12.9578 8.93549 13.0057C9.08984 13.0624 9.25126 13.0969 9.41505 13.1081L9.59489 13.3093C9.67264 13.3122 9.74958 13.3262 9.82342 13.351C9.90475 13.3763 9.98937 13.3891 10.0744 13.389H11.6705C12.3844 13.1795 13.0851 12.926 13.7685 12.63C16.0739 11.7546 18.0184 9.38773 19.6019 5.52941C19.7068 5.35484 19.8492 5.11955 20.0215 4.81974C20.647 3.17951 21.4579 1.61819 22.438 0.166984C22.5203 0.230145 22.5892 0.309375 22.6406 0.399983C22.6921 0.490591 22.7251 0.590742 22.7377 0.694503C22.9138 3.03226 23 4.11764 23 3.95445ZM15.2109 8.25427C15.2137 8.5374 15.106 8.81019 14.9112 9.01328C14.84 9.10226 14.7519 9.17595 14.6522 9.23004C14.5525 9.28413 14.4431 9.31753 14.3305 9.32828C14.1468 9.27061 13.9788 9.17058 13.8397 9.03605C13.7035 8.89957 13.5363 8.79919 13.3527 8.74382C13.0305 8.74382 12.8731 8.93738 12.8731 9.32828C12.8731 9.61291 12.978 9.77987 13.1916 9.833L13.6299 9.87477C13.873 10.1361 14.0459 10.4562 14.1319 10.8045C14.1281 10.9366 14.0888 11.0651 14.0181 11.1761C13.9475 11.2871 13.8482 11.3765 13.7311 11.4345C13.552 11.5319 13.3534 11.5864 13.1503 11.5939C12.8057 11.5939 12.5846 11.4801 12.491 11.2524C12.3973 11.0247 12.4085 10.7932 12.3636 10.5617C12.3496 10.4592 12.2968 10.3663 12.2164 10.3026C12.136 10.2389 12.0343 10.2093 11.9327 10.2201C11.7315 10.2244 11.5381 10.2995 11.3857 10.4326C11.2059 10.573 11.116 10.6983 11.116 10.8121C11.1323 10.9571 11.1987 11.0915 11.3033 11.1916C11.4014 11.2835 11.4682 11.4044 11.4944 11.537C11.4925 11.6592 11.4628 11.7792 11.4075 11.8879C11.3523 11.9965 11.273 12.0907 11.1759 12.1632C11.0123 12.3191 10.8006 12.4129 10.5765 12.4288C9.89461 12.4288 9.55742 12.1594 9.55742 11.6167C9.59988 11.4452 9.68207 11.2865 9.79719 11.1537C9.91035 11.0181 9.99227 10.8586 10.037 10.6869C10.037 10.5123 9.91709 10.3378 9.66232 10.1594C9.52817 10.0536 9.36952 9.98438 9.2015 9.95825C9.05538 9.95825 8.91676 10.1708 8.78189 10.5958C8.74794 10.7454 8.67322 10.8823 8.56623 10.991C8.45923 11.0997 8.32427 11.1757 8.1767 11.2105C8.02912 11.2453 7.87486 11.2375 7.73149 11.1878C7.58811 11.1382 7.46137 11.0488 7.36569 10.9298C7.196 10.7424 7.10233 10.4971 7.10343 10.2429C7.09492 10.0116 7.16946 9.78512 7.31324 9.60531C7.36754 9.52923 7.43832 9.46676 7.52015 9.42269C7.60198 9.37861 7.69268 9.35411 7.7853 9.35104C7.86991 9.35595 7.95329 9.37385 8.03258 9.40416C8.15446 9.43884 8.28065 9.45546 8.40723 9.4535C8.46074 9.33482 8.48146 9.20366 8.46718 9.07399C8.47281 8.84674 8.40141 8.62441 8.26486 8.44402C8.22085 8.37024 8.16023 8.30805 8.08795 8.26254C8.01567 8.21702 7.93379 8.18949 7.849 8.18216C7.71617 8.20337 7.58882 8.2511 7.47435 8.32257C7.34983 8.39937 7.21064 8.44852 7.06598 8.46679C6.56644 8.46679 6.31667 8.15558 6.31667 7.53319C6.31365 7.27466 6.39534 7.02243 6.54895 6.81594C6.60725 6.72167 6.68774 6.64353 6.78321 6.58855C6.87869 6.53357 6.98615 6.50346 7.09594 6.50095C7.29926 6.57323 7.48373 6.6913 7.63545 6.84629C7.78724 7.00117 7.97169 7.11925 8.17495 7.19165C8.3348 7.19165 8.45968 7.06515 8.5496 6.81215C8.60668 6.6162 8.68065 6.42571 8.77065 6.24289C8.50617 6.03756 8.20817 5.88084 7.89021 5.77988C7.75558 5.71768 7.64427 5.61326 7.57276 5.48204C7.50124 5.35082 7.4733 5.19977 7.49308 5.05123C7.49312 4.91674 7.5204 4.7837 7.57325 4.66033C7.62609 4.53695 7.70337 4.42586 7.80029 4.33396C7.94261 4.15813 8.1468 4.04518 8.36976 4.01896C8.50673 3.99886 8.64629 4.02864 8.7636 4.103C8.88092 4.17736 8.96839 4.29147 9.01043 4.42503C9.0479 4.6793 9.0891 4.94118 9.13031 5.20304C9.13497 5.25866 9.15059 5.31276 9.17625 5.36215C9.20191 5.41154 9.23709 5.45521 9.2797 5.49059C9.32232 5.52597 9.37151 5.55235 9.42436 5.56814C9.47721 5.58393 9.53264 5.58884 9.58739 5.58255C10.0603 5.54948 10.5158 5.38824 10.9062 5.11574C10.7076 4.56546 10.6064 4.27324 10.6064 4.24668C10.6064 4.1701 10.6204 4.09417 10.6477 4.02276C10.7307 3.85422 10.861 3.71427 11.0223 3.62048C11.1701 3.50562 11.3465 3.43467 11.5318 3.41556C11.677 3.42001 11.8183 3.46393 11.9409 3.54272C12.0635 3.62152 12.1629 3.73227 12.2287 3.86337C12.3474 4.01471 12.4238 4.1956 12.4497 4.38709C12.4553 4.47754 12.4378 4.5679 12.3991 4.6496C12.3605 4.73131 12.3018 4.80162 12.2287 4.85388C12.0225 4.99038 11.8348 5.15371 11.6705 5.33966C12.0451 5.82543 12.3711 6.0683 12.6483 6.0683C12.6923 6.07146 12.7365 6.06534 12.778 6.05031C12.8195 6.03527 12.8575 6.01166 12.8896 5.98098C12.9216 5.9503 12.947 5.91322 12.9642 5.87207C12.9813 5.83092 12.9899 5.7866 12.9893 5.74193C13.0417 5.36496 13.0754 5.15622 13.0904 5.11574C13.1953 4.89942 13.4426 4.79317 13.8397 4.79317C14.0645 4.79317 14.2593 4.95634 14.4204 5.27892C14.5437 5.51297 14.6116 5.77278 14.619 6.03794C14.621 6.08675 14.6147 6.13555 14.6003 6.18215C14.5028 6.29775 14.3838 6.39278 14.2501 6.4618C14.1164 6.53082 13.9706 6.57249 13.821 6.58443C13.5924 6.58443 13.3601 6.58443 13.1204 6.56546C13.0709 6.65831 13.05 6.76406 13.0604 6.86906C13.0604 7.46109 13.1991 7.75711 13.48 7.75711C13.6481 7.72336 13.8076 7.65488 13.9484 7.55596C14.091 7.45788 14.2515 7.38951 14.4204 7.35484C14.5336 7.34945 14.6463 7.37388 14.7475 7.42576C14.8486 7.47764 14.9347 7.55519 14.9974 7.65084C15.1289 7.82455 15.2035 8.03551 15.2109 8.25427ZM12.5884 8.16319C12.5847 7.71086 12.4548 7.26881 12.2137 6.88805C12.0785 6.63964 11.8791 6.43316 11.6369 6.29076C11.3946 6.14837 11.1187 6.07542 10.8387 6.0797C10.367 6.07552 9.91051 6.24857 9.55742 6.56546C9.37421 6.72469 9.22884 6.92377 9.13218 7.14785C9.03553 7.37193 8.99006 7.61523 8.99918 7.85959C9.00743 8.3052 9.15428 8.73682 9.4188 9.09298C9.5486 9.32076 9.73458 9.51047 9.95854 9.64353C10.1825 9.77658 10.4368 9.84842 10.6964 9.852C11.1351 9.83406 11.5561 9.67148 11.8953 9.38899C12.0974 9.25514 12.2647 9.07379 12.3828 8.86036C12.5008 8.64692 12.5662 8.40774 12.5734 8.16319H12.5884Z" fill="#4318A8"/>
</svg>
