<?xml version="1.0" encoding="utf-8"?>
<!-- Generator: Adobe Illustrator 26.4.1, SVG Export Plug-In . SVG Version: 6.00 Build 0)  -->
<svg version="1.1" id="Слой_1" xmlns="http://www.w3.org/2000/svg" xmlns:xlink="http://www.w3.org/1999/xlink" x="0px" y="0px"
	 viewBox="0 0 100 100" style="enable-background:new 0 0 100 100;" xml:space="preserve">
<style type="text/css">
	.st0{fill:#FF5500;}
	.st1{fill:#FFFFFF;}
	.st2{fill:#FFFFFF;stroke:#000000;stroke-width:0.3;stroke-miterlimit:10;}
</style>
<g>
	<path d="M77.69,65.78c-0.06,0.13-0.17,0.21-0.26,0.31c0.7-3.7,1.05-7.46,1.05-11.26c0-5.48-0.99-10.93-3.04-15.45
		c-0.17-0.38-0.35-0.75-0.54-1.12c-2.97-5.82-7.84-9.82-14.75-9.82c-1.86,0-3.86,0.29-6.01,0.91c-1.14,0.33-2.32,0.54-3.49,0.65
		l-0.41,0c-1.18-0.11-2.35-0.32-3.49-0.65c-2.15-0.62-4.15-0.91-6.01-0.91c-6.91,0-11.77,4-14.75,9.82
		c-0.19,0.36-0.37,0.74-0.54,1.12c-2.05,4.51-3.04,9.97-3.04,15.45c0,3.79,0.35,7.56,1.05,11.26c-0.09-0.1-0.2-0.18-0.26-0.31
		c-4.03-8.54-3.78-20.11-1.62-25.96c0.03-0.29,0.05-0.58,0.05-0.87c0.04-6.96,0.83-12.84,3.18-17.41c0.07-0.14,0.15-0.28,0.23-0.42
		c3.77-6.64,11.22-10.27,25.2-10.02l0.41,0c13.98-0.25,21.42,3.38,25.2,10.02c0.08,0.14,0.15,0.28,0.23,0.42
		c2.35,4.57,3.14,10.45,3.18,17.41c0,0.29,0.02,0.58,0.05,0.87C81.47,45.67,81.72,57.24,77.69,65.78z"/>
	<g>
		<path d="M77.04,65.4c-0.05,0.05-0.09,0.1-0.14,0.16c0.42,0.24,0.84,0.49,1.25,0.73c1.55-8.39,1.77-17.49-1.34-25.56
			c-2.34-6.08-6.85-11.57-13.57-12.75c-1.77-0.31-3.56-0.35-5.34-0.14c-2.09,0.25-4.06,0.95-6.13,1.28
			c-2.07,0.33-3.96-0.31-5.96-0.79c-1.9-0.45-3.86-0.7-5.82-0.62c-6.66,0.29-11.83,4.57-14.74,10.36
			c-4.33,8.62-4.22,18.94-2.51,28.21c0.42-0.24,0.84-0.49,1.25-0.73c-0.79-0.8-1.13-2.52-1.47-3.58c-0.44-1.37-0.78-2.78-1.05-4.2
			c-0.49-2.59-0.7-5.23-0.68-7.87c0.02-2.37,0.21-4.76,0.71-7.08c0.19-0.88,0.47-1.71,0.71-2.57c0.39-1.4,0.18-3.04,0.24-4.48
			c0.23-5.08,0.89-10.63,3.67-15.02c1.9-3.01,4.75-5.21,8.01-6.57c4.5-1.87,9.5-2.33,14.33-2.36c5.07-0.03,10.2-0.02,15.14,1.31
			c3.59,0.97,6.98,2.66,9.5,5.44c3.1,3.42,4.35,8.07,4.93,12.55c0.22,1.69,0.34,3.39,0.4,5.09c0.05,1.4-0.14,2.95,0.31,4.29
			c0.78,2.32,1.12,4.78,1.27,7.22C80.38,53.69,79.57,59.94,77.04,65.4c-0.4,0.87,0.89,1.63,1.3,0.76c2.34-5.06,3.3-10.69,3.26-16.25
			c-0.02-2.5-0.24-5.03-0.77-7.48c-0.22-1.01-0.66-2.03-0.81-3.05c-0.24-1.66-0.06-3.45-0.18-5.13c-0.34-5.09-1.22-10.58-4.19-14.87
			c-2.17-3.13-5.25-5.36-8.77-6.75c-4.82-1.91-10.19-2.33-15.33-2.3c-5.24,0.03-10.5,0.07-15.56,1.61
			c-3.69,1.12-7.16,3.05-9.67,6.03c-3.1,3.69-4.38,8.45-4.97,13.15c-0.41,3.27-0.05,6.73-0.94,9.89c-0.71,2.52-1.01,5.18-1.09,7.79
			c-0.1,3.13,0.14,6.29,0.71,9.37c0.29,1.55,0.67,3.07,1.17,4.57c0.39,1.19,0.83,2.96,1.74,3.87c0.56,0.56,1.38-0.03,1.25-0.73
			c-1.47-7.94-1.65-16.48,1.12-24.17c2.16-5.97,6.49-11.36,13.09-12.36c1.8-0.27,3.67-0.2,5.46,0.1c1.85,0.31,3.63,0.95,5.5,1.19
			c1.54,0.21,3.05-0.07,4.55-0.45c2-0.52,3.96-0.97,6.04-1c6.61-0.07,11.66,4.08,14.48,9.82c4.03,8.21,3.89,18.08,2.26,26.88
			c-0.13,0.7,0.69,1.3,1.25,0.73c0.14-0.15,0.26-0.29,0.38-0.46C78.9,65.37,77.6,64.62,77.04,65.4z"/>
	</g>
</g>
<g>
	<path class="st0" d="M78.61,54.74c0,3.79-0.35,7.56-1.05,11.26c-0.46,2.44-1.07,4.86-1.83,7.21c-0.96,3.01-2.16,5.93-3.59,8.75
		c-4.94,9.73-8.59,15.09-18.24,15.68c-1.02,0.06-1.96-0.01-2.93-0.29c-0.17-0.05-0.34-0.01-0.52-0.02c0,0-0.36-0.05-0.51-0.01
		c-1,0.3-2.04,0.42-3.08,0.35c-9.65-0.59-13.3-5.95-18.24-15.68c-2.56-5.05-4.38-10.46-5.43-16.04c-0.69-3.67-1.04-7.41-1.04-11.18
		c0-5.49,1-10.95,3.04-15.46c0.18-0.39,0.36-0.77,0.55-1.15c2.98-5.79,7.84-9.78,14.72-9.78c1.86,0,3.86,0.29,6.01,0.91
		c1.21,0.35,2.45,0.57,3.7,0.67c1.38-0.1,2.76-0.32,4.09-0.71c2.15-0.62,4.15-0.91,6.01-0.91c3.47,0,6.43,1.01,8.88,2.76
		c2.43,1.72,4.39,4.17,5.86,7.07c0.19,0.36,0.37,0.74,0.54,1.12C77.62,43.81,78.61,49.26,78.61,54.74z"/>
	<g>
		<path d="M77.94,54.74c-0.03,8.04-1.61,16.05-4.77,23.45c-1.26,2.94-2.75,5.81-4.37,8.56c-1.29,2.19-2.73,4.33-4.58,6.09
			c-1.73,1.63-3.8,2.8-6.08,3.44c-1.16,0.32-2.34,0.52-3.54,0.63c-0.87,0.08-1.75,0.12-2.61-0.02c-0.61-0.1-1.2-0.3-1.83-0.26
			c-0.81,0.05-1.57,0.35-2.39,0.38c-0.75,0.03-1.5-0.04-2.24-0.13c-1.35-0.16-2.69-0.45-3.97-0.91c-2.13-0.76-4-2.05-5.57-3.68
			c-1.82-1.88-3.22-4.13-4.51-6.4c-1.74-3.07-3.34-6.24-4.61-9.54c-2.81-7.28-4.23-15.16-4-22.96c0.2-6.75,1.86-14.24,6.52-19.38
			c1.97-2.17,4.47-3.79,7.32-4.51c3.41-0.86,6.72-0.29,10.07,0.56c2.01,0.51,3.85,0.63,5.9,0.26c2.16-0.4,4.21-1.12,6.42-1.27
			c3.82-0.25,7.57,0.78,10.55,3.23C76.03,37.57,77.9,46.86,77.94,54.74c0,0.87,1.35,0.87,1.35,0c-0.04-7.37-1.61-15.39-6.47-21.17
			c-2.15-2.56-5.02-4.51-8.27-5.36c-3.68-0.96-7.28-0.4-10.89,0.53c-2.35,0.6-4.42,0.6-6.76-0.03c-1.85-0.49-3.7-0.89-5.62-0.98
			c-3.08-0.13-6.18,0.53-8.85,2.07c-5.78,3.34-8.79,9.97-10.08,16.26c-1.65,8.05-0.89,16.65,1.21,24.55
			c1.83,6.86,4.89,13.73,8.96,19.57c2.94,4.21,6.85,7.13,12,7.92c1.57,0.24,3.16,0.38,4.73,0.08c1.63-0.31,3.15,0.23,4.82,0.12
			c2.62-0.17,5.23-0.74,7.57-1.96c4.82-2.52,7.67-7.52,10.11-12.16c3.8-7.23,6.34-14.92,7.19-23.06c0.22-2.12,0.33-4.24,0.33-6.37
			C79.29,53.87,77.94,53.87,77.94,54.74z"/>
	</g>
</g>
<circle cx="50.96" cy="58.98" r="8.95"/>
<g>
	<path d="M61.26,75.82c6.92-7.71,8.13-22.76,2.32-30.22C64.45,55.95,63.27,65.76,61.26,75.82z"/>
</g>
<path d="M35.34,84.24c-4.76-13.4-7.93-27.05-6.77-41.39C25.02,57.57,26.87,71.43,35.34,84.24z"/>
<path d="M66.68,83.41c4.11-13.61,6.62-27.4,4.76-41.67C75.7,56.28,74.52,70.21,66.68,83.41z"/>
<path class="st0" d="M76.7,38.34c0,0,3.71,8.13,2.75,19.62C79.45,57.96,82.21,46.23,76.7,38.34z"/>
<path class="st0" d="M24.43,37.39c0,0-3.71,8.13-2.75,19.62C21.68,57.01,18.92,45.28,24.43,37.39z"/>
<g>
	<path d="M41.09,76.08c-7.06-7.58-8.54-22.61-2.86-30.17C37.55,56.27,38.9,66.05,41.09,76.08z"/>
</g>
<g>
	<path class="st1" d="M51.92,53.03c0.51,0.08,1.02,0.15,1.52,0.25c1.61,0.32,2.93,1.11,3.89,2.47c0.72,1.02,0.44,2.11-0.72,2.59
		c-0.56,0.24-1.19,0.43-1.79,0.45c-2.51,0.08-5.02,0.1-7.53,0.12c-0.16,0-0.33-0.14-0.49-0.22c0.11-0.16,0.19-0.4,0.34-0.45
		c0.33-0.12,0.7-0.2,1.05-0.2c1.58-0.02,3.15,0.01,4.73-0.02c0.78-0.01,1.56-0.06,2.33-0.14c0.61-0.07,0.88-0.5,0.57-1.05
		c-0.31-0.56-0.71-1.12-1.19-1.54c-1.28-1.13-2.87-1.39-4.52-1.29c-0.73,0.04-1.5,0.16-2.16,0.45c-1.66,0.72-2.51,2.58-2.39,4.41
		c0.15,2.23,1.46,3.42,3.35,4.17c1.5,0.59,3.08,0.75,4.68,0.45c0.96-0.18,1.79-0.6,2.48-1.3c0.54-0.55,1.22-0.62,1.78-0.15
		c-0.38,0.34-0.72,0.7-1.11,0.99c-1.21,0.87-2.6,1.26-4.06,1.44c-1.71,0.21-3.4,0.1-5-0.54c-0.9-0.36-1.73-0.93-2.52-1.51
		c-0.7-0.51-1.1-1.27-1.25-2.15c-0.46-2.84,0.16-4.85,3.21-6.36c0.8-0.39,1.75-0.49,2.63-0.72c0.16-0.04,0.33-0.09,0.49-0.13
		C50.82,53.03,51.37,53.03,51.92,53.03z"/>
</g>
<path class="st2" d="M50.43,12.74c-12.37-0.24-19.64,2.6-23.79,7.9c0,0,0.59,1.22,2.87,0.71c0.11-0.02,0.18-0.14,0.16-0.25
	l-0.29-1.51c0-0.01,0.05,0.09,0.05,0.11c0.18,0.34,1.04,1.7,2.7,1.74c0.2,0,0.37,0,0.52-0.02c0.74-0.08,1.1-0.73,0.95-1.56
	l-0.57-1.79c0-0.02,0.03-0.03,0.04-0.01c0.16,0.48,1.88,3.29,3.57,3.29c1.87,0,2.42-0.79,2.42-0.79s0.43-0.26,0.47-0.88
	s0.04-3.06,0.04-3.06l0.59,0.01l0.01,3.61c0,0.7,0.29,1.37,0.82,1.81c0.66,0.55,1.83,1.13,3.8,1.16c2.21,0.04,3.63-0.42,4.44-0.81
	c0.53-0.26,0.87-0.81,0.87-1.42l-0.02-5.76l0.24,0l0.02,0l0.24,0l-0.02,5.76c0,0.61,0.33,1.16,0.87,1.42
	c0.81,0.39,2.23,0.85,4.44,0.81c1.97-0.03,3.13-0.61,3.8-1.16c0.53-0.44,0.82-1.11,0.82-1.81l0.01-3.61l0.59-0.01
	c0,0,0,2.45,0.04,3.06c0.04,0.61,0.47,0.88,0.47,0.88s0.55,0.79,2.42,0.79c1.69,0,3.41-2.81,3.57-3.29
	c0.01-0.02,0.04-0.02,0.04,0.01l-0.57,1.79c-0.15,0.83,0.21,1.48,0.95,1.56c0.15,0.02,0.33,0.02,0.52,0.02
	c1.66-0.04,2.51-1.4,2.7-1.74c0.01-0.01,0.06-0.12,0.05-0.11l-0.29,1.51c-0.02,0.11,0.05,0.23,0.16,0.25
	c2.29,0.5,2.87-0.85,2.87-0.85c-4.16-5.21-11.42-8-23.68-7.76"/>
<g>
	<path class="st0" d="M79.21,36.08c0,0-1.18,0.55-1.53-1.06c-0.24-1.09-1.34-9.8-3.62-14.02c-0.76-1.41-1.97-2.93-3.54-4.05
		c-6.06-4.33-14.69-4.54-18.33-4.41c-1.11,0.04-2.22,0.11-3.33,0.09c-4.59-0.09-13.34,0.68-18.49,4.31
		c-2.08,1.47-2.77,2.46-3.64,3.81c-2.59,4.03-3.06,13.17-3.3,14.25c-0.35,1.61-1.71,0.72-1.71,0.72s-0.31-5.83-0.16-8.34
		c0.26-4.53,1.58-10.75,3.57-14.76c1.57-3.16,5.57-7.91,10.48-9.45c4.09-1.27,8.86-1.87,12.9-0.05c0,0,1.18,0.56,1.97,0.77
		c0.03-0.01,0.07-0.01,0.1-0.02v0.04c0.01,0,0.02,0,0.03,0c0.79-0.21,1.97-0.77,1.97-0.77c4.05-1.82,8.81-1.22,12.9,0.05
		c4.91,1.53,8.91,6.29,10.48,9.45c2,4.01,3.31,10.23,3.57,14.76C79.71,29.91,79.21,36.08,79.21,36.08z"/>
	<g>
		<path d="M79.03,35.43c-0.72,0.3-0.78-1.04-0.86-1.51c-0.18-1.09-0.36-2.18-0.56-3.27c-0.54-2.9-1.17-5.84-2.31-8.57
			c-2.65-6.37-9.49-8.95-15.88-9.84c-2.64-0.37-5.29-0.45-7.95-0.35c-3.16,0.13-6.29,0.05-9.44,0.46
			c-6.03,0.79-12.72,2.71-16.03,8.26c-1.61,2.69-2.16,6.03-2.6,9.08c-0.19,1.28-0.33,2.57-0.47,3.86c-0.06,0.52-0.03,2.09-0.87,1.57
			c0.11,0.19,0.22,0.39,0.33,0.58c-0.32-5.96-0.21-11.69,1.39-17.5c0.95-3.45,2.32-6.6,4.7-9.3c2.65-3,5.83-4.89,9.74-5.75
			c2.5-0.55,5.16-0.76,7.68-0.2c0.93,0.21,1.8,0.54,2.67,0.92c0.65,0.28,1.46,0.77,2.18,0.62c-0.28-0.22-0.57-0.43-0.85-0.65
			c0,0.01,0,0.03,0,0.04c0,0.26,0.21,0.61,0.5,0.65c1.17,0.17,2.85-1.03,3.96-1.35c2.2-0.64,4.56-0.66,6.82-0.33
			c4.18,0.62,7.74,2.24,10.7,5.28c2.49,2.56,4.05,5.54,5.1,8.94c1.1,3.59,1.88,7.44,1.91,11.2c0.02,2.59-0.17,5.2-0.37,7.78
			c-0.07,0.87,1.28,0.86,1.35,0c0.2-2.46,0.37-4.93,0.37-7.39c0.01-3.82-0.73-7.73-1.79-11.38c-2.1-7.24-7.03-13.43-14.6-15.28
			c-2.4-0.59-4.92-0.89-7.38-0.61c-1.19,0.14-2.35,0.39-3.47,0.82c-0.32,0.12-0.63,0.27-0.95,0.4c-0.21,0.09-1.19,0.62-1.29,0.6
			c0.17,0.22,0.33,0.43,0.5,0.65c0-0.01,0-0.03,0-0.04c0-0.46-0.43-0.74-0.85-0.65c-0.28,0.06-1.19-0.52-1.5-0.65
			c-0.46-0.2-0.93-0.4-1.41-0.55c-1.53-0.5-3.17-0.71-4.78-0.71c-2.84,0-5.87,0.56-8.49,1.66c-4.56,1.92-8.34,6.06-10.26,10.58
			c-2.06,4.83-3.13,10.36-3.13,15.61c0,1.99,0.08,3.98,0.17,5.97c0.02,0.46-0.03,0.86,0.36,1.18c0.43,0.35,1.19,0.42,1.69,0.22
			c1.23-0.5,1.14-2.27,1.26-3.37c0.24-2.24,0.54-4.47,1.03-6.67c0.49-2.18,1.15-4.28,2.44-6.13c1.54-2.21,3.94-3.72,6.41-4.7
			c4.8-1.91,10.01-2.34,15.13-2.35c2.4,0,4.76-0.18,7.16-0.02c2.6,0.17,5.2,0.59,7.7,1.37c3.24,1,6.53,2.64,8.54,5.47
			c1.56,2.2,2.27,4.91,2.88,7.5c0.52,2.2,0.9,4.42,1.27,6.65c0.2,1.24,0.84,3.16,2.52,2.46C80.18,36.4,79.83,35.1,79.03,35.43z"/>
	</g>
</g>
</svg>
