<svg width="1920" height="397" viewBox="0 0 1920 397" fill="none" xmlns="http://www.w3.org/2000/svg">
<path d="M-98 117.5C592 398 704 113 849 92.0002C1161.67 46.717 1087.5 295.5 1270 388.5C1449.24 425.73 1685.5 123.5 1727.5 191C1778.89 273.594 1848.23 316.974 2018 145.5C2153.81 8.321 2093.63 9.8645 2074 5" stroke="#FF5500" stroke-width="10"/>
<path d="M-20 162C544 176 913.125 465.876 1034.5 313.5C1265.5 23.5001 1532 0.500121 1686 37.5C1806 66.3311 1896.66 165.594 2035.5 208.5C2207 261.5 2161 156 2224.5 199.5" stroke="white"/>
<path d="M-96.0975 114.305C583.951 388.134 698.909 111.938 844.713 92.7961C1154.1 49.9631 1084.73 293.517 1264.26 382.39C1444.76 411.639 1681.76 116.219 1726.49 182.975C1779.55 264.258 1849.41 309.001 2018.43 142.756C2155.11 10.2155 2095.27 9.14814 2077.67 5.46326" stroke="#FF5906" stroke-width="9.78049"/>
<path d="M-94.1951 111.109C575.902 378.268 693.819 110.876 840.426 93.5921C1146.52 53.2092 1081.95 291.533 1258.51 376.28C1440.28 397.548 1678.01 108.939 1725.48 174.951C1780.21 254.922 1850.6 301.028 2018.85 140.012C2156.41 12.1099 2096.92 8.43178 2081.34 5.92651" stroke="#FF5D0C" stroke-width="9.56098"/>
<path d="M-92.2927 107.914C567.854 368.402 688.728 109.814 836.139 94.388C1138.95 56.4553 1079.18 289.55 1252.77 370.17C1435.8 383.457 1674.27 101.658 1724.46 166.926C1780.88 245.586 1851.78 293.055 2019.28 137.268C2157.71 14.0044 2098.56 7.71542 2085.01 6.38977" stroke="#FF6113" stroke-width="9.34146"/>
<path d="M-90.3903 104.719C559.805 358.536 683.637 108.753 831.852 95.184C1131.38 59.7014 1076.41 287.567 1247.02 364.06C1431.32 369.365 1670.52 94.3774 1723.45 158.902C1781.54 236.25 1852.96 285.082 2019.71 134.524C2159 15.8988 2100.2 6.99905 2088.68 6.85303" stroke="#FF6619" stroke-width="9.12195"/>
<path d="M-88.4878 101.582C551.756 348.729 678.547 107.749 827.565 96.0386C1123.81 63.0061 1073.64 285.642 1241.28 358.009C1426.83 355.333 1666.78 87.1554 1722.44 150.936C1782.2 226.973 1854.14 277.168 2020.13 131.838C2160.3 17.8519 2101.85 6.34136 2092.35 7.37495" stroke="#FF6A1F" stroke-width="8.90244"/>
<path d="M-86.5853 98.5333C543.707 339.009 673.456 106.834 823.278 96.9809C1116.23 66.3985 1070.86 283.805 1235.54 352.046C1422.35 341.388 1663.04 80.0211 1721.43 143.058C1782.86 217.784 1855.32 269.342 2020.56 129.241C2161.6 19.8927 2103.49 5.77129 2096.02 7.9845" stroke="#FF6E25" stroke-width="8.68293"/>
<path d="M-84.683 95.5282C535.659 329.333 668.365 105.962 818.991 97.967C1108.66 69.8348 1068.09 282.012 1229.79 346.126C1417.87 327.487 1659.29 72.9307 1720.41 135.223C1783.52 208.638 1856.5 261.559 2020.99 126.687C2162.89 21.9773 2105.13 5.24512 2099.69 8.63795" stroke="#FF722C" stroke-width="8.46341"/>
<path d="M-82.7805 92.5507C527.61 319.685 663.274 105.118 814.704 98.9808C1101.09 73.2987 1065.32 280.246 1224.05 340.234C1413.39 313.614 1655.55 65.8678 1719.4 127.417C1784.18 199.52 1857.68 253.804 2021.41 124.16C2164.19 24.0896 2106.77 4.74656 2103.37 9.31901" stroke="#FF7632" stroke-width="8.2439"/>
<path d="M-80.8781 89.5926C519.561 310.056 658.184 104.293 810.417 100.014C1093.51 76.7819 1062.54 278.5 1218.3 334.361C1408.91 299.76 1651.8 58.8243 1718.39 119.629C1784.84 190.421 1858.86 246.068 2021.84 121.654C2165.49 26.2212 2108.42 4.26733 2107.04 10.0194" stroke="#FF7A38" stroke-width="8.02439"/>
<path d="M-78.9756 86.6488C511.512 300.442 653.093 103.483 806.13 101.061C1085.94 80.2795 1059.77 276.768 1212.56 328.503C1404.43 285.92 1648.06 51.7952 1717.38 111.856C1785.5 181.337 1860.04 238.347 2022.27 119.161C2166.79 28.3671 2110.06 3.80251 2110.71 10.7342" stroke="#FF7E3E" stroke-width="7.80488"/>
<path d="M-77.0731 83.7163C503.463 290.838 648.002 102.684 801.843 102.12C1078.37 83.7883 1057 275.047 1206.82 322.655C1399.95 272.092 1644.32 44.7773 1716.37 104.094C1786.16 172.264 1861.23 230.637 2022.7 116.68C2168.08 30.5243 2111.7 3.34888 2114.38 11.4602" stroke="#FF8344" stroke-width="7.58537"/>
<path d="M-75.1708 80.7927C495.415 281.244 642.912 101.894 797.556 103.188C1070.8 87.3061 1054.23 273.336 1201.07 316.817C1395.46 258.272 1640.57 37.7684 1715.35 96.3415C1786.83 163.2 1862.41 222.936 2023.12 114.207C2169.38 32.6905 2113.35 2.90424 2118.05 12.1952" stroke="#FF874B" stroke-width="7.36585"/>
<path d="M-73.2683 77.8767C487.366 271.657 637.821 101.111 793.269 104.263C1063.22 90.8314 1051.45 271.632 1195.33 310.987C1390.98 244.461 1636.83 30.7669 1714.34 88.5962C1787.49 154.143 1863.59 215.242 2023.55 111.743C2170.68 34.8642 2114.99 2.46708 2121.72 12.9376" stroke="#FF8B51" stroke-width="7.14634"/>
<path d="M-71.3658 74.9665C479.317 262.076 632.73 100.334 788.982 105.344C1055.65 94.3626 1048.68 269.933 1189.59 305.162C1386.5 230.655 1633.09 23.7714 1713.33 80.8568C1788.15 145.093 1864.77 207.555 2023.98 109.284C2171.98 37.0437 2116.63 2.03585 2125.39 13.686" stroke="#FF8F57" stroke-width="6.92683"/>
<path d="M-69.4634 72.0619C471.268 252.501 627.64 99.5628 784.696 106.431C1048.08 97.8993 1045.91 268.241 1183.84 299.342C1382.02 216.854 1629.34 16.7814 1712.32 73.1228C1788.81 136.047 1865.95 199.872 2024.4 106.83C2173.27 39.2288 2118.28 1.61009 2129.06 14.4399" stroke="#FF935D" stroke-width="6.70732"/>
<path d="M-67.561 69.1614C463.219 242.93 622.549 98.7957 780.408 107.521C1040.51 101.44 1043.13 266.552 1178.1 293.527C1377.54 203.058 1625.6 9.79558 1711.3 65.3931C1789.47 127.006 1867.13 192.194 2024.83 104.381C2174.57 41.4181 2119.92 1.18857 2132.73 15.198" stroke="#FF9764" stroke-width="6.4878"/>
<path d="M-65.6586 66.2651C455.171 233.363 617.458 98.0328 776.122 108.616C1032.93 104.985 1040.36 264.868 1172.35 287.716C1373.06 189.266 1621.85 2.81393 1710.29 57.6676C1790.13 117.969 1868.31 184.521 2025.26 101.936C2175.87 43.6115 2121.56 0.771206 2136.4 15.9602" stroke="#FF9B6A" stroke-width="6.26829"/>
<path d="M-63.7561 63.3722C447.122 223.799 612.367 97.2732 771.835 109.715C1025.36 108.534 1037.59 263.186 1166.61 281.909C1368.58 175.477 1618.11 -4.16442 1709.28 49.9453C1790.79 108.936 1869.49 176.85 2025.68 99.4941C2177.16 45.8083 2123.21 0.357134 2140.07 16.7258" stroke="#FFA070" stroke-width="6.04878"/>
<path d="M-61.8536 60.4822C439.073 214.238 607.277 96.5167 767.548 110.816C1017.79 112.085 1034.82 261.508 1160.87 276.104C1364.09 161.691 1614.37 -11.1398 1708.27 42.2261C1791.45 99.9054 1870.68 169.182 2026.11 97.0553C2178.46 48.008 2124.85 -0.0539193 2143.74 17.4943" stroke="#FFA476" stroke-width="5.82927"/>
<path d="M-59.9512 57.5949C431.024 204.68 602.186 95.7628 763.261 111.92C1010.21 115.639 1032.04 259.833 1155.12 270.302C1359.61 147.908 1610.62 -18.1124 1707.26 34.5095C1792.12 90.8776 1871.86 161.518 2026.54 94.6192C2179.76 50.2105 2126.49 -0.46229 2147.41 18.2656" stroke="#FFA87C" stroke-width="5.60976"/>
<path d="M-58.0488 54.71C422.976 195.125 597.095 95.0113 758.974 113.026C1002.64 119.196 1029.27 258.16 1149.38 264.503C1355.13 134.127 1606.88 -25.0826 1706.24 26.7954C1792.78 81.8521 1873.04 153.855 2026.96 92.1856C2181.06 52.4153 2128.14 -0.868258 2151.09 19.0392" stroke="#FFAC83" stroke-width="5.39024"/>
<path d="M-56.1464 58.0522C414.927 191.796 592.005 100.487 754.687 120.36C995.069 128.979 1026.5 262.714 1143.63 264.93C1350.65 126.573 1603.13 -25.8258 1705.23 25.3083C1793.44 79.0538 1874.22 152.42 2027.39 95.979C2182.35 60.8473 2129.78 4.95288 2154.76 26.04" stroke="#FFB089" stroke-width="5.17073"/>
<path d="M-54.2439 63.4062C406.878 190.479 586.914 107.974 750.4 129.705C987.496 140.775 1023.72 269.28 1137.89 267.37C1346.17 121.032 1599.39 -24.5572 1704.22 25.833C1794.1 78.2672 1875.4 152.996 2027.82 101.784C2183.65 71.291 2131.42 12.7857 2158.43 35.0525" stroke="#FFB48F" stroke-width="4.95122"/>
<path d="M-52.3414 68.7676C398.829 189.17 581.823 115.469 746.113 139.057C979.924 152.577 1020.95 275.853 1132.15 269.816C1341.69 115.497 1595.65 -23.2812 1703.21 26.3651C1794.76 77.488 1876.58 153.58 2028.24 107.597C2184.95 81.7421 2133.07 20.626 2162.1 44.0724" stroke="#FFB995" stroke-width="4.73171"/>
<path d="M-50.439 74.1371C390.781 187.869 576.732 122.972 741.826 148.418C972.351 164.388 1018.18 282.435 1126.4 272.271C1337.2 109.971 1591.9 -21.9971 1702.2 26.9053C1795.42 76.717 1877.76 154.172 2028.67 113.417C2186.24 92.2013 2134.71 28.4745 2165.77 53.1004" stroke="#FFBD9B" stroke-width="4.5122"/>
<path d="M-48.5366 79.5154C382.732 186.576 571.642 130.484 737.539 157.788C964.778 176.208 1015.41 289.025 1120.66 274.735C1332.72 104.453 1588.16 -20.7041 1701.18 27.4544C1796.08 75.9547 1878.94 154.773 2029.1 119.247C2187.54 102.669 2136.35 36.3317 2169.44 62.1373" stroke="#FFC1A2" stroke-width="4.29268"/>
<path d="M-46.6342 84.9033C374.683 185.294 566.551 138.005 733.252 167.167C957.206 188.037 1012.63 295.625 1114.91 277.208C1328.24 98.9452 1584.41 -19.4016 1700.17 28.013C1796.74 75.2021 1880.13 155.383 2029.52 125.086C2188.84 113.147 2138 44.1985 2173.11 71.1837" stroke="#FFC5A8" stroke-width="4.07317"/>
<path d="M-44.7317 90.3016C366.634 184.021 561.46 145.537 728.965 176.556C949.633 199.877 1009.86 302.235 1109.17 279.692C1323.76 93.4477 1580.67 -18.0886 1699.16 28.582C1797.4 74.4598 1881.31 156.004 2029.95 130.936C2190.14 123.635 2139.64 52.0757 2176.78 80.2406" stroke="#FFC9AE" stroke-width="3.85366"/>
<path d="M-42.8292 95.7113C358.585 182.76 556.37 153.08 724.678 185.957C942.06 211.728 1007.09 308.856 1103.43 282.187C1319.28 87.9615 1576.93 -16.7643 1698.15 29.1625C1798.07 73.729 1882.49 156.636 2030.38 136.797C2191.43 134.134 2141.28 59.9644 2180.45 89.3088" stroke="#FFCDB4" stroke-width="3.63415"/>
<path d="M-40.9269 101.134C350.537 181.512 551.279 160.635 720.391 195.371C934.487 223.591 1004.31 315.491 1097.68 284.695C1314.8 82.4879 1573.18 -15.4274 1697.13 29.7554C1798.73 73.0107 1883.67 157.281 2030.8 142.67C2192.73 144.646 2142.92 67.8655 2184.12 98.3895" stroke="#FFD1BB" stroke-width="3.41463"/>
<path d="M-39.0244 106.569C342.488 180.277 546.188 168.204 716.104 204.798C926.915 235.469 1001.54 322.138 1091.94 287.216C1310.32 77.0278 1569.44 -14.077 1696.12 30.3619C1799.39 72.3059 1884.85 157.939 2031.23 148.557C2194.03 155.172 2144.57 75.7801 2187.79 107.484" stroke="#FFD6C1" stroke-width="3.19512"/>
<path d="M-37.1219 112.02C334.439 179.056 541.098 175.788 711.817 214.24C919.342 247.36 998.768 328.801 1086.2 289.752C1305.83 71.5825 1565.7 -12.7118 1695.11 30.9832C1800.05 71.6159 1886.03 158.612 2031.66 154.459C2195.33 165.712 2146.21 83.7096 2191.46 116.593" stroke="#FFDAC7" stroke-width="2.97561"/>
<path d="M-35.2195 117.487C326.39 177.853 536.007 183.388 707.53 223.698C911.769 259.269 995.995 335.479 1080.45 292.304C1301.35 66.1534 1561.95 -11.3304 1694.1 31.6207C1800.71 70.9421 1887.21 159.301 2032.09 160.377C2196.62 176.269 2147.85 91.6553 2195.13 125.718" stroke="#FFDECD" stroke-width="2.7561"/>
<path d="M-33.317 122.971C318.342 176.666 530.916 191.006 703.243 233.173C904.197 271.194 993.223 342.176 1074.71 294.874C1296.87 60.7421 1558.21 -9.9313 1693.09 32.276C1801.37 70.286 1888.39 160.008 2032.51 166.313C2197.92 186.843 2149.5 99.6187 2198.81 134.861" stroke="#FFE2D3" stroke-width="2.53659"/>
<path d="M-31.4147 128.475C310.293 175.499 525.825 198.643 698.956 242.668C896.624 283.139 990.45 348.891 1068.96 297.462C1292.39 55.3497 1554.46 -8.51317 1692.07 32.9502C1802.03 69.649 1889.58 160.734 2032.94 172.267C2199.22 197.436 2151.14 107.601 2202.48 144.023" stroke="#FFE6DA" stroke-width="2.31707"/>
<path d="M-29.5122 133.999C302.244 174.353 520.735 206.301 694.669 252.184C889.051 295.105 987.677 355.628 1063.22 300.072C1287.91 49.9785 1550.72 -7.07391 1691.06 33.6455C1802.69 69.0331 1890.76 161.481 2033.37 178.243C2200.51 208.05 2152.78 115.605 2206.15 153.206" stroke="#FFEAE0" stroke-width="2.09756"/>
<path d="M-27.6097 139.546C294.195 173.229 515.644 213.982 690.382 261.722C881.478 307.094 984.904 362.387 1057.48 302.705C1283.43 44.6297 1546.98 -5.61221 1690.05 34.3633C1803.36 68.4396 1891.94 162.251 2033.79 184.241C2201.81 218.687 2154.43 123.631 2209.82 162.412" stroke="#FFEEE6" stroke-width="1.87805"/>
<path d="M-25.7073 145.118C286.146 172.13 510.553 221.687 686.095 271.285C873.906 319.107 982.131 369.17 1051.73 305.362C1278.94 39.3057 1543.23 -4.12573 1689.04 35.1059C1804.02 67.8709 1893.12 163.045 2034.22 190.264C2203.11 229.349 2156.07 131.681 2213.49 171.642" stroke="#FFF3EC" stroke-width="1.65854"/>
<path d="M-23.8049 150.716C278.098 171.058 505.463 229.419 681.808 280.875C866.333 331.147 979.358 375.98 1045.99 308.046C1274.46 34.008 1539.49 -2.61289 1688.02 35.8748C1804.68 67.3285 1894.3 163.866 2034.65 196.314C2204.41 240.037 2157.71 139.759 2217.16 180.899" stroke="#FFF7F3" stroke-width="1.43902"/>
<path d="M-21.9025 156.343C270.049 170.014 500.372 237.179 677.521 290.493C858.76 343.215 976.585 382.819 1040.24 310.758C1269.98 28.7388 1535.74 -1.07161 1687.01 36.6722C1805.34 66.8146 1895.48 164.715 2035.07 202.392C2205.7 250.753 2159.36 147.864 2220.83 190.184" stroke="#FFFBF9" stroke-width="1.21951"/>
</svg>
