<svg width="1920" height="519" viewBox="0 0 1920 519" fill="none" xmlns="http://www.w3.org/2000/svg">
<path d="M-4.5 237.5C685.5 518 990.5 106 1135.5 85C1448.17 39.7169 1083 418 1265.5 511C1444.74 548.23 1881 190 1858.5 390.5C1847.65 487.17 1993.73 408.974 2163.5 237.5C2299.31 100.321 2093.63 9.8645 2074 5" stroke="#FF5500" stroke-width="10"/>
<path d="M-16.5 5.5C998 5.5 927.869 678.938 1310 291.5C1454 145.5 1741 -0.99992 1895 36C2015 64.8311 1896.66 165.594 2035.5 208.5C2207 261.5 2161 156 2224.5 199.5" stroke="white"/>
<path d="M-4.79272 227.11C680.75 500.768 984.069 102.923 1129.36 85.3607C1438.24 44.1072 1083.88 414.908 1266.59 500.915C1444.97 533.676 1877.59 180.61 1859.39 377.122C1851.73 472.138 1991.36 398.306 2160.38 232.061C2297.06 99.5205 2095.27 8.69709 2077.67 5.01221" stroke="#FF5906" stroke-width="9.78049"/>
<path d="M-5.08533 216.72C676 483.537 977.639 99.8468 1123.23 85.7215C1428.3 48.4975 1084.75 411.816 1267.67 490.829C1445.19 519.121 1874.17 171.22 1860.28 363.744C1855.82 457.105 1989 387.638 2157.26 226.622C2294.81 98.72 2096.92 7.52968 2081.34 5.02441" stroke="#FF5D0C" stroke-width="9.56098"/>
<path d="M-5.37805 206.329C671.25 466.305 971.208 96.7703 1117.09 86.0822C1418.37 52.8878 1085.63 408.724 1268.76 480.744C1445.42 504.567 1870.76 161.829 1861.17 350.366C1859.9 442.072 1986.63 376.97 2154.13 221.183C2292.56 97.9195 2098.56 6.36227 2085.01 5.03662" stroke="#FF6113" stroke-width="9.34146"/>
<path d="M-5.67078 195.939C666.5 449.073 964.777 93.6937 1110.95 86.4429C1408.44 57.2782 1086.51 405.631 1269.84 470.659C1445.65 490.012 1867.34 152.439 1862.06 336.988C1863.98 427.04 1984.26 366.303 2151.01 215.744C2290.31 97.119 2100.2 5.19486 2088.68 5.04883" stroke="#FF6619" stroke-width="9.12195"/>
<path d="M-5.96338 185.557C661.75 431.85 958.347 90.6257 1104.82 86.8123C1398.51 61.6771 1087.38 402.548 1270.93 460.582C1445.87 475.467 1863.93 143.057 1862.95 323.618C1868.06 412.016 1981.89 355.643 2147.89 210.314C2288.06 96.3271 2101.85 4.03604 2092.35 5.06963" stroke="#FF6A1F" stroke-width="8.90244"/>
<path d="M-6.2561 175.197C657 414.649 951.916 87.5794 1098.68 87.2032C1388.57 66.0976 1088.26 399.486 1272.01 450.527C1446.1 460.943 1860.51 133.697 1863.84 310.271C1872.14 397.013 1979.53 345.006 2144.77 204.905C2285.8 95.5568 2103.49 2.89888 2096.02 5.11209" stroke="#FF6E25" stroke-width="8.68293"/>
<path d="M-6.54883 164.858C652.25 397.468 945.485 84.554 1092.54 87.6151C1378.64 70.5391 1089.14 396.445 1273.1 440.493C1446.32 446.439 1857.1 124.358 1864.73 296.944C1876.22 382.032 1977.16 334.389 2141.65 199.517C2283.55 94.8075 2105.13 1.78263 2099.7 5.17546" stroke="#FF722C" stroke-width="8.46341"/>
<path d="M-6.84143 154.539C647.5 380.308 939.055 81.5486 1086.41 88.0471C1368.71 75.0007 1090.01 393.424 1274.18 430.478C1446.55 431.956 1853.68 115.039 1865.62 283.637C1880.31 367.07 1974.79 323.793 2138.52 194.149C2281.3 94.0782 2106.77 0.68645 2103.37 5.2589" stroke="#FF7632" stroke-width="8.2439"/>
<path d="M-7.13416 144.24C642.75 363.167 932.624 78.5626 1080.27 88.4984C1358.78 79.4815 1090.89 390.422 1275.27 420.484C1446.77 417.492 1850.27 105.74 1866.51 270.349C1884.39 352.128 1972.42 313.216 2135.4 188.801C2279.05 93.3683 2108.42 -0.390424 2107.04 5.36164" stroke="#FF7A38" stroke-width="8.02439"/>
<path d="M-7.42688 133.959C638 346.044 926.193 75.5951 1074.13 88.9682C1348.84 83.981 1091.76 387.439 1276.35 410.507C1447 403.047 1846.85 96.4587 1867.4 257.081C1888.47 337.205 1970.06 302.657 2132.28 183.471C2276.8 92.6769 2110.06 -1.4487 2110.71 5.48299" stroke="#FF7E3E" stroke-width="7.80488"/>
<path d="M-7.71948 123.696C633.25 328.94 919.763 72.6456 1067.99 89.4561C1338.91 88.4984 1092.64 384.474 1277.44 400.549C1447.23 388.62 1843.44 87.1955 1868.29 243.83C1892.55 322.299 1967.69 292.116 2129.16 178.159C2274.55 92.0035 2111.7 -2.48902 2114.38 5.62229" stroke="#FF8344" stroke-width="7.58537"/>
<path d="M-8.01221 113.45C628.5 311.852 913.332 69.7135 1061.86 89.9612C1328.98 93.0331 1093.52 381.526 1278.52 390.608C1447.45 374.21 1840.02 77.9497 1869.18 230.596C1896.63 307.411 1965.32 281.593 2126.04 172.864C2272.3 91.3475 2113.35 -3.51199 2118.05 5.77894" stroke="#FF874B" stroke-width="7.36585"/>
<path d="M-8.30493 103.221C623.75 294.782 906.901 66.7982 1055.72 90.4832C1319.05 97.5847 1094.39 378.595 1279.61 380.684C1447.68 359.817 1836.61 68.7208 1870.07 217.379C1900.71 292.54 1962.95 271.086 2122.91 167.587C2270.04 90.7082 2114.99 -4.51816 2121.72 5.95239" stroke="#FF8B51" stroke-width="7.14634"/>
<path d="M-8.59753 93.0078C619 277.727 900.471 63.8989 1049.58 91.0212C1309.11 102.152 1095.27 375.68 1280.7 370.776C1447.9 345.44 1833.2 59.5078 1870.96 204.179C1904.8 277.684 1960.59 260.596 2119.79 162.325C2267.79 90.085 2116.63 -5.50828 2125.39 6.14189" stroke="#FF8F57" stroke-width="6.92683"/>
<path d="M-8.89026 82.8109C614.25 260.689 894.04 61.0157 1043.45 91.5753C1299.18 106.736 1096.15 372.781 1281.78 360.884C1448.13 331.079 1829.78 50.311 1871.85 190.994C1908.88 262.845 1958.22 250.121 2116.67 157.079C2265.54 89.4778 2118.28 -6.48233 2129.06 6.34745" stroke="#FF935D" stroke-width="6.70732"/>
<path d="M-9.18298 72.6294C609.5 243.666 887.609 58.1478 1037.31 92.1448C1289.25 111.335 1097.02 369.898 1282.87 351.008C1448.36 316.733 1826.37 41.1295 1872.74 177.825C1912.96 248.021 1955.85 239.662 2113.55 151.849C2263.29 88.8861 2119.92 -7.441 2132.73 6.5684" stroke="#FF9764" stroke-width="6.4878"/>
<path d="M-9.47559 62.4629C604.75 226.658 881.178 55.295 1031.17 92.7293C1279.32 115.949 1097.9 367.03 1283.95 341.146C1448.58 302.402 1822.95 31.963 1873.63 164.67C1917.04 233.212 1953.48 229.218 2110.43 146.634C2261.04 88.3093 2121.56 -8.38469 2136.4 6.80433" stroke="#FF9B6A" stroke-width="6.26829"/>
<path d="M-9.76831 52.311C600 209.665 874.748 52.4567 1025.04 93.3283C1269.38 120.578 1098.78 364.176 1285.04 331.299C1448.81 288.086 1819.54 22.8111 1874.52 151.531C1921.12 218.418 1951.12 218.789 2107.3 141.433C2258.79 87.7471 2123.21 -9.31377 2140.07 7.05487" stroke="#FFA070" stroke-width="6.04878"/>
<path d="M-10.061 42.1734C595.25 192.686 868.317 49.6327 1018.9 93.9416C1259.45 125.221 1099.65 361.336 1286.12 321.466C1449.03 273.785 1816.12 13.6734 1875.41 138.405C1925.2 203.638 1948.75 208.374 2104.18 136.246C2256.53 87.1992 2124.85 -10.2286 2143.74 7.31966" stroke="#FFA476" stroke-width="5.82927"/>
<path d="M-10.3536 32.0497C590.5 175.72 861.886 46.8226 1012.76 94.5689C1249.52 129.877 1100.53 358.51 1287.21 311.647C1449.26 259.497 1812.71 4.54972 1876.3 125.294C1929.29 188.872 1946.38 197.972 2101.06 131.074C2254.28 86.6652 2126.49 -11.1295 2147.41 7.59838" stroke="#FFA87C" stroke-width="5.60976"/>
<path d="M-10.6464 21.9396C585.75 158.769 855.456 44.0262 1006.63 95.2098C1239.59 134.548 1101.41 355.698 1288.29 301.842C1449.48 245.222 1809.29 -4.56036 1877.2 112.196C1933.37 174.119 1944.01 187.585 2097.94 125.915C2252.03 86.1449 2128.14 -12.0168 2151.09 7.89074" stroke="#FFAC83" stroke-width="5.39024"/>
<path d="M-10.939 11.8429C581 141.831 849.025 41.2431 1000.49 95.864C1229.65 139.232 1102.28 352.9 1289.38 292.05C1449.71 230.962 1805.88 -13.6571 1878.09 99.1112C1937.45 159.38 1941.65 177.21 2094.82 120.77C2249.78 85.6379 2129.78 -12.8907 2154.76 8.19646" stroke="#FFB089" stroke-width="5.17073"/>
<path d="M-11.2317 5.28052C576.25 128.427 842.594 41.9944 994.352 100.053C1219.72 147.45 1103.16 353.635 1290.46 285.793C1449.94 220.235 1802.46 -19.2194 1878.98 89.561C1941.53 148.175 1939.28 170.371 2091.7 119.158C2247.53 88.6653 2131.42 -10.2302 2158.43 12.0365" stroke="#FFB48F" stroke-width="4.95122"/>
<path d="M-11.5244 5.29272C571.5 121.598 836.164 49.3203 988.215 110.816C1209.79 162.243 1104.03 360.945 1291.55 286.11C1450.16 216.083 1799.05 -18.2072 1879.87 86.5854C1945.61 143.545 1936.91 170.105 2088.57 124.122C2245.28 98.2672 2133.07 -0.995192 2162.1 22.4512" stroke="#FFB995" stroke-width="4.73171"/>
<path d="M-11.817 5.30493C566.75 114.768 829.733 56.6461 982.078 121.579C1199.86 177.035 1104.91 368.256 1292.63 286.427C1450.39 211.931 1795.63 -17.195 1880.76 83.6098C1949.69 138.915 1934.54 169.84 2085.45 129.085C2243.03 107.869 2134.71 8.23983 2165.77 32.8658" stroke="#FFBD9B" stroke-width="4.5122"/>
<path d="M-12.1097 5.31714C562 107.939 823.302 63.972 975.941 132.342C1189.92 191.828 1105.79 375.566 1293.72 286.744C1450.61 207.779 1792.22 -16.1828 1881.65 80.6342C1953.78 134.285 1932.18 169.575 2082.33 134.049C2240.77 117.471 2136.35 17.4749 2169.44 43.2804" stroke="#FFC1A2" stroke-width="4.29268"/>
<path d="M-12.4025 5.32935C557.25 101.11 816.872 71.2978 969.805 143.105C1179.99 206.621 1106.66 382.876 1294.8 287.061C1450.84 203.627 1788.8 -15.1706 1882.54 77.6586C1957.86 129.654 1929.81 169.309 2079.21 139.012C2238.52 127.073 2138 26.7099 2173.11 53.6951" stroke="#FFC5A8" stroke-width="4.07317"/>
<path d="M-12.6951 5.34155C552.5 94.2806 810.441 78.6237 963.668 153.868C1170.06 221.414 1107.54 390.186 1295.89 287.378C1451.06 199.475 1785.39 -14.1584 1883.43 74.683C1961.94 125.024 1927.44 169.044 2076.09 143.976C2236.27 136.675 2139.64 35.9449 2176.78 64.1097" stroke="#FFC9AE" stroke-width="3.85366"/>
<path d="M-12.9878 5.35376C547.75 87.4514 804.01 85.9496 957.531 164.632C1160.13 236.206 1108.42 397.497 1296.98 287.695C1451.29 195.323 1781.98 -13.1462 1884.32 71.7074C1966.02 120.394 1925.07 168.778 2072.96 148.939C2234.02 146.277 2141.28 45.1799 2180.45 74.5244" stroke="#FFCDB4" stroke-width="3.63415"/>
<path d="M-13.2805 5.36597C543 80.6221 797.58 93.2754 951.394 175.395C1150.19 250.999 1109.29 404.807 1298.06 288.012C1451.52 191.172 1778.56 -12.134 1885.21 68.7318C1970.1 115.764 1922.71 168.513 2069.84 153.902C2231.77 155.879 2142.92 54.4149 2184.12 84.939" stroke="#FFD1BB" stroke-width="3.41463"/>
<path d="M-13.5731 5.37817C538.25 73.7928 791.149 100.601 945.257 186.158C1140.26 265.792 1110.17 412.117 1299.15 288.329C1451.74 187.02 1775.15 -11.1218 1886.1 65.7562C1974.18 111.133 1920.34 168.248 2066.72 158.866C2229.52 165.481 2144.57 63.65 2187.79 95.3537" stroke="#FFD6C1" stroke-width="3.19512"/>
<path d="M-13.8658 5.39038C533.5 66.9636 784.718 107.927 939.12 196.921C1130.33 280.585 1111.05 419.427 1300.23 288.646C1451.97 182.868 1771.73 -10.1096 1886.99 62.7806C1978.26 106.503 1917.97 167.982 2063.6 163.829C2227.26 175.083 2146.21 72.885 2191.46 105.768" stroke="#FFDAC7" stroke-width="2.97561"/>
<path d="M-14.1586 5.40259C528.75 60.1343 778.288 115.253 932.983 207.684C1120.39 295.377 1111.92 426.738 1301.32 288.964C1452.19 178.716 1768.32 -9.09735 1887.88 59.805C1982.35 101.873 1915.6 167.717 2060.48 168.793C2225.01 184.685 2147.85 82.12 2195.13 116.183" stroke="#FFDECD" stroke-width="2.7561"/>
<path d="M-14.4512 5.41479C524 53.3051 771.857 122.579 926.846 218.447C1110.46 310.17 1112.8 434.048 1302.4 289.281C1452.42 174.564 1764.9 -8.08514 1888.77 56.8294C1986.43 97.2428 1913.24 167.452 2057.35 173.756C2222.76 194.287 2149.5 91.355 2198.8 126.598" stroke="#FFE2D3" stroke-width="2.53659"/>
<path d="M-14.7439 5.427C519.25 46.4758 765.426 129.905 920.71 229.211C1100.53 324.963 1113.68 441.358 1303.49 289.598C1452.65 170.412 1761.49 -7.07293 1889.66 53.8538C1990.51 92.6126 1910.87 167.186 2054.23 178.72C2220.51 203.888 2151.14 100.59 2202.48 137.012" stroke="#FFE6DA" stroke-width="2.31707"/>
<path d="M-15.0366 5.43921C514.5 39.6465 758.996 137.231 914.573 239.974C1090.6 339.756 1114.55 448.668 1304.57 289.915C1452.87 166.26 1758.07 -6.06072 1890.55 50.8782C1994.59 87.9824 1908.5 166.921 2051.11 183.683C2218.26 213.49 2152.78 109.825 2206.15 147.427" stroke="#FFEAE0" stroke-width="2.09756"/>
<path d="M-15.3292 5.45142C509.75 32.8173 752.565 144.556 908.436 250.737C1080.66 354.548 1115.43 455.978 1305.66 290.232C1453.1 162.108 1754.66 -5.04852 1891.44 47.9026C1998.67 83.3522 1906.13 166.656 2047.99 188.646C2216.01 223.092 2154.43 119.06 2209.82 157.842" stroke="#FFEEE6" stroke-width="1.87805"/>
<path d="M-15.6219 5.46362C505 25.988 746.134 151.882 902.299 261.5C1070.73 369.341 1116.31 463.289 1306.74 290.549C1453.32 157.956 1751.24 -4.0363 1892.33 44.927C2002.75 78.722 1903.77 166.39 2044.87 193.61C2213.75 232.694 2156.07 128.295 2213.49 168.256" stroke="#FFF3EC" stroke-width="1.65854"/>
<path d="M-15.9147 5.47583C500.25 19.1588 739.704 159.208 896.162 272.263C1060.8 384.134 1117.18 470.599 1307.83 290.866C1453.55 153.804 1747.83 -3.02409 1893.22 41.9514C2006.84 74.0918 1901.4 166.125 2041.74 198.573C2211.5 242.296 2157.71 137.53 2217.16 178.671" stroke="#FFF7F3" stroke-width="1.43902"/>
<path d="M-16.2073 5.48779C495.5 12.3293 733.273 166.534 890.025 283.026C1050.87 398.926 1118.06 477.909 1308.91 291.183C1453.77 149.652 1744.41 -2.01213 1894.11 38.9756C2010.92 69.4613 1899.03 165.859 2038.62 203.536C2209.25 251.898 2159.36 146.765 2220.83 189.085" stroke="#FFFBF9" stroke-width="1.21951"/>
</svg>
