<svg width="1920" height="488" viewBox="0 0 1920 488" fill="none" xmlns="http://www.w3.org/2000/svg">
<path d="M-94 112.153C397.5 381 341.472 222.847 663.5 177.5C1102.85 115.632 755.243 384.73 1179 434C1358.24 471.23 1567.13 242.38 1624 295.5C1695.09 361.9 1788.23 236.474 1958 64.9999C2093.81 -72.1791 2093.63 69.8644 2074 64.9999" stroke="#FF5500" stroke-width="10"/>
<path d="M-17.5 298C246 425.5 798.92 541.673 1034.5 373.5C1377 129 1455.09 107.22 1532 110.5C1623.77 102.24 1732 186.5 1872.5 303.5C2026.54 431.774 2088 443.5 2151.5 487" stroke="white"/>
<path d="M-92.1342 109.694C390.591 373.539 340.908 220.729 659.975 177.072C1093.5 117.297 759.181 379.515 1175.48 425.532C1358.7 455.891 1564.4 232.091 1621.76 283.996C1693.35 348.575 1786.86 228.263 1955.91 63.8251C2092.17 -66.8794 2093.49 71.9856 2075.89 68.3007" stroke="#FF5906" stroke-width="9.78049"/>
<path d="M-90.2683 107.267C383.683 366.109 340.345 218.643 656.45 176.676C1084.16 118.995 763.119 374.332 1171.95 417.097C1359.16 440.584 1561.66 221.835 1619.51 272.524C1691.61 335.282 1785.49 220.084 1953.83 62.6825C2090.53 -61.5476 2093.35 74.139 2077.78 71.6337" stroke="#FF5D0C" stroke-width="9.56098"/>
<path d="M-88.4025 104.876C376.774 358.716 339.781 216.592 652.925 176.316C1074.81 120.728 767.057 369.185 1168.43 408.697C1359.61 425.313 1558.93 211.614 1617.27 261.088C1689.87 322.025 1784.12 211.941 1951.74 61.5754C2088.89 -56.1802 2093.22 76.3278 2079.67 75.0022" stroke="#FF6113" stroke-width="9.34146"/>
<path d="M-86.5366 102.524C369.866 351.361 339.217 214.581 649.399 175.996C1065.46 122.501 770.995 364.077 1164.9 400.337C1360.07 410.081 1556.2 201.433 1615.02 249.691C1688.13 308.807 1782.75 203.838 1949.66 60.5076C2087.25 -50.7735 2093.08 78.556 2081.56 78.41" stroke="#FF6619" stroke-width="9.12195"/>
<path d="M-84.6708 100.215C362.957 344.05 338.653 212.613 645.874 175.718C1056.11 124.317 774.934 359.013 1161.38 392.02C1360.53 394.892 1553.46 191.295 1612.78 238.337C1686.39 295.632 1781.37 195.777 1947.57 59.4832C2085.61 -45.3235 2092.94 80.8276 2083.45 81.8612" stroke="#FF6A1F" stroke-width="8.90244"/>
<path d="M-82.8049 97.955C356.049 336.788 338.089 210.694 642.349 175.489C1046.76 126.181 778.872 353.997 1157.85 383.751C1360.99 379.752 1550.73 181.205 1610.54 227.032C1684.65 282.506 1780 187.765 1945.49 58.5072C2083.97 -39.825 2092.81 83.1476 2085.34 85.3609" stroke="#FF6E25" stroke-width="8.68293"/>
<path d="M-80.939 95.7488C349.14 329.579 337.525 208.829 638.824 175.314C1037.42 128.1 782.81 349.035 1154.33 375.537C1361.45 364.666 1548 171.169 1608.29 215.78C1682.91 269.434 1778.63 179.807 1943.4 57.5853C2082.33 -34.2724 2092.67 85.5217 2087.23 88.9145" stroke="#FF722C" stroke-width="8.46341"/>
<path d="M-79.0731 93.6034C342.232 322.431 336.962 207.024 635.299 175.2C1028.07 130.079 786.748 344.133 1150.8 367.383C1361.9 349.641 1545.27 161.195 1606.05 204.59C1681.17 256.423 1777.26 171.91 1941.32 56.7241C2080.69 -28.6592 2092.53 87.9565 2089.12 92.5289" stroke="#FF7632" stroke-width="8.2439"/>
<path d="M-77.2073 91.5266C335.323 315.352 336.398 205.288 631.774 175.155C1018.72 132.127 790.687 339.301 1147.28 359.297C1362.36 334.684 1542.53 151.288 1603.8 193.468C1679.43 243.48 1775.89 164.082 1939.23 55.9315C2079.05 -22.9773 2092.39 90.4599 2091.01 96.2119" stroke="#FF7A38" stroke-width="8.02439"/>
<path d="M-75.3414 89.5277C328.415 308.351 335.834 203.63 628.249 175.187C1009.37 134.252 794.625 334.546 1143.76 351.29C1362.82 319.805 1539.8 141.46 1601.56 182.424C1677.69 230.615 1774.52 156.331 1937.15 55.2168C2077.41 -17.2175 2092.26 93.0412 2092.9 99.9729" stroke="#FF7E3E" stroke-width="7.80488"/>
<path d="M-73.4756 87.6177C321.506 301.439 335.27 202.061 624.724 175.308C1000.02 136.467 798.563 329.88 1140.23 343.372C1363.28 305.015 1537.07 131.721 1599.32 171.469C1675.95 217.839 1773.15 148.669 1935.06 54.5911C2075.76 -11.3688 2092.12 95.7114 2094.79 103.823" stroke="#FF8344" stroke-width="7.58537"/>
<path d="M-71.6097 85.8102C314.598 294.629 334.706 200.594 621.199 175.532C990.676 138.784 802.501 325.317 1136.71 335.556C1363.73 290.328 1534.34 122.084 1597.07 160.617C1674.21 205.165 1771.77 141.11 1932.98 54.0678C2074.12 -5.41757 2091.98 98.4842 2096.68 107.775" stroke="#FF874B" stroke-width="7.36585"/>
<path d="M-69.7439 84.1214C307.689 287.938 334.142 199.246 617.673 175.874C981.328 141.22 806.44 320.872 1133.18 327.858C1364.19 275.759 1531.6 112.566 1594.83 149.883C1672.48 192.61 1770.4 133.67 1930.89 53.6632C2072.48 0.652328 2091.84 101.376 2098.57 111.846" stroke="#FF8B51" stroke-width="7.14634"/>
<path d="M-67.8781 82.5715C300.78 281.385 333.579 198.037 614.148 176.356C971.98 143.795 810.378 316.566 1129.66 320.3C1364.65 261.33 1528.87 103.186 1592.59 139.288C1670.74 180.194 1769.03 126.368 1928.8 53.3976C2070.84 6.86112 2091.71 104.406 2100.46 116.056" stroke="#FF8F57" stroke-width="6.92683"/>
<path d="M-66.0122 81.1857C293.872 274.997 333.015 196.992 610.623 177.001C962.632 146.533 814.316 312.425 1126.13 312.906C1365.11 247.064 1526.14 93.971 1590.34 128.857C1669 167.943 1767.66 119.231 1926.72 53.296C2069.2 13.234 2091.57 107.6 2102.35 120.43" stroke="#FF935D" stroke-width="6.70732"/>
<path d="M-64.1464 79.9957C286.963 268.805 332.451 196.143 607.098 177.842C953.284 149.468 818.254 308.479 1122.61 305.707C1365.56 232.994 1523.4 84.9515 1588.1 118.622C1667.26 155.887 1766.29 112.289 1924.63 53.3902C2067.56 19.8027 2091.43 110.99 2104.24 125" stroke="#FF9764" stroke-width="6.4878"/>
<path d="M-62.2805 79.0424C280.055 262.849 331.887 195.531 603.573 178.92C943.936 152.639 822.192 304.77 1119.09 298.746C1366.02 219.161 1520.67 76.1688 1585.85 108.624C1665.52 144.067 1764.92 105.584 1922.55 53.7211C2065.92 26.6081 2091.3 114.617 2106.13 129.806" stroke="#FF9B6A" stroke-width="6.26829"/>
<path d="M-60.4147 78.3796C273.146 257.184 331.323 195.209 600.048 180.289C934.588 156.101 826.131 301.351 1115.56 292.074C1366.48 205.618 1517.94 67.6765 1583.61 98.9157C1663.78 132.538 1763.55 99.1692 1920.46 54.3425C2064.28 33.7039 2091.16 118.535 2108.02 134.903" stroke="#FFA070" stroke-width="6.04878"/>
<path d="M-58.5488 78.0787C266.238 251.881 330.759 195.249 596.523 182.019C925.24 159.925 830.069 298.294 1112.04 285.765C1366.93 192.437 1515.21 59.5463 1581.37 89.5698C1662.04 121.371 1762.17 93.1167 1918.38 55.3259C2062.64 41.1618 2091.02 122.814 2109.91 140.362" stroke="#FFA476" stroke-width="5.82927"/>
<path d="M-56.683 78.2383C259.329 247.038 330.195 195.749 592.997 184.21C915.892 164.209 834.007 295.698 1108.51 279.916C1367.39 179.717 1512.47 51.8764 1579.12 80.6843C1660.3 110.665 1760.8 87.5245 1916.29 56.7697C2061 49.08 2090.88 127.554 2111.8 146.282" stroke="#FFA87C" stroke-width="5.60976"/>
<path d="M-54.817 78.9974C252.421 242.795 329.632 196.849 589.472 187C906.544 169.092 837.945 293.701 1104.99 274.667C1367.85 167.596 1509.74 44.8061 1576.88 72.3983C1658.56 100.558 1759.43 82.5319 1914.21 58.8129C2059.36 57.5978 2090.75 132.893 2113.7 152.801" stroke="#FFAC83" stroke-width="5.39024"/>
<path d="M-52.9512 80.7425C245.512 239.537 329.068 198.935 585.947 190.777C897.196 174.962 841.884 292.69 1101.46 270.403C1368.31 156.461 1507.01 38.7217 1574.63 65.0984C1656.82 91.4371 1758.06 78.5252 1912.12 61.8423C2057.72 67.1016 2090.61 139.218 2115.59 160.306" stroke="#FFB089" stroke-width="5.17073"/>
<path d="M-51.0853 92.1518C238.604 245.944 328.504 210.685 582.422 204.217C887.848 190.496 845.822 301.344 1097.94 275.804C1368.77 154.991 1504.28 42.3017 1572.39 67.4627C1655.08 91.9804 1756.69 84.1829 1910.04 74.5358C2056.07 86.2696 2090.47 155.208 2117.48 177.475" stroke="#FFB48F" stroke-width="4.95122"/>
<path d="M-49.2195 103.561C231.695 252.352 327.94 222.435 578.897 217.658C878.5 206.03 849.76 309.998 1094.41 281.205C1369.22 153.52 1501.54 45.8819 1570.15 69.8273C1653.34 92.5241 1755.32 89.8408 1907.95 87.2297C2054.43 105.438 2090.33 171.198 2119.37 194.644" stroke="#FFB995" stroke-width="4.73171"/>
<path d="M-47.3536 114.972C224.787 258.759 327.376 234.186 575.372 231.099C869.152 221.565 853.698 318.652 1090.89 286.607C1369.68 152.051 1498.81 49.4626 1567.9 72.1924C1651.6 93.0682 1753.94 95.4992 1905.87 99.9241C2052.79 124.607 2090.2 187.188 2121.26 211.814" stroke="#FFBD9B" stroke-width="4.5122"/>
<path d="M-45.4878 126.382C217.878 265.168 326.812 245.938 571.847 244.541C859.804 237.1 857.636 327.307 1087.37 292.009C1370.14 150.581 1496.08 53.0439 1565.66 74.558C1649.86 93.6128 1752.57 101.158 1903.78 112.619C2051.15 143.776 2090.06 203.179 2123.15 228.985" stroke="#FFC1A2" stroke-width="4.29268"/>
<path d="M-43.6219 137.794C210.97 271.577 326.249 257.69 568.322 257.984C850.456 252.636 861.575 335.962 1083.84 297.412C1370.59 149.113 1493.34 56.6257 1563.41 76.9242C1648.12 94.158 1751.2 106.818 1901.7 125.314C2049.51 162.946 2089.92 219.171 2125.04 246.156" stroke="#FFC5A8" stroke-width="4.07317"/>
<path d="M-41.7561 149.205C204.061 277.986 325.685 269.443 564.797 271.427C841.108 268.173 865.513 344.618 1080.32 302.816C1371.05 147.645 1490.61 60.2082 1561.17 79.2911C1646.38 94.7039 1749.83 112.478 1899.61 138.011C2047.87 182.117 2089.78 235.163 2126.93 263.328" stroke="#FFC9AE" stroke-width="3.85366"/>
<path d="M-39.8903 160.618C197.152 284.396 325.121 281.196 561.271 284.871C831.76 283.71 869.451 353.275 1076.79 308.22C1371.51 146.177 1487.88 63.7914 1558.93 81.6586C1644.64 95.2505 1748.46 118.139 1897.52 150.707C2046.23 201.288 2089.65 251.156 2128.82 280.5" stroke="#FFCDB4" stroke-width="3.63415"/>
<path d="M-38.0244 172.032C190.244 290.808 324.557 292.951 557.746 298.315C822.412 299.248 873.389 361.933 1073.27 313.625C1371.97 144.711 1485.15 67.3754 1556.68 84.027C1642.9 95.7979 1747.09 123.801 1895.44 163.405C2044.59 220.46 2089.51 267.149 2130.71 297.673" stroke="#FFD1BB" stroke-width="3.41463"/>
<path d="M-36.1586 183.446C183.335 297.22 323.993 304.706 554.221 311.761C813.064 314.787 877.328 370.591 1069.74 319.031C1372.43 143.245 1482.41 70.9604 1554.44 86.3964C1641.16 96.3463 1745.72 129.463 1893.35 176.104C2042.95 239.633 2089.37 283.144 2132.6 314.848" stroke="#FFD6C1" stroke-width="3.19512"/>
<path d="M-34.2927 194.862C176.427 303.633 323.429 316.462 550.696 325.208C803.716 330.327 881.266 379.251 1066.22 324.438C1372.88 141.781 1479.68 74.5466 1552.2 88.767C1639.42 96.8959 1744.34 135.127 1891.27 188.804C2041.31 258.808 2089.24 299.14 2134.49 332.023" stroke="#FFDAC7" stroke-width="2.97561"/>
<path d="M-32.4269 206.278C169.518 310.047 322.866 328.22 547.171 338.656C794.369 345.869 885.204 387.912 1062.7 329.846C1373.34 140.318 1476.95 78.1341 1549.95 91.1389C1637.68 97.4468 1742.97 140.792 1889.18 201.505C2039.67 277.983 2089.1 315.137 2136.38 349.2" stroke="#FFDECD" stroke-width="2.7561"/>
<path d="M-30.561 217.697C162.61 316.464 322.302 339.979 543.646 352.106C785.021 361.412 889.142 396.575 1059.17 335.256C1373.8 138.857 1474.22 81.7233 1547.71 93.5124C1635.94 97.9993 1741.6 146.459 1887.1 214.208C2038.02 297.16 2088.96 331.136 2138.27 366.378" stroke="#FFE2D3" stroke-width="2.53659"/>
<path d="M-28.6951 229.118C155.701 322.882 321.738 351.741 540.121 365.558C775.673 376.957 893.081 405.239 1055.65 340.668C1374.26 137.397 1471.48 85.3143 1545.46 95.8878C1634.2 98.5537 1740.23 152.128 1885.01 226.912C2036.38 316.34 2088.82 347.136 2140.16 383.558" stroke="#FFE6DA" stroke-width="2.31707"/>
<path d="M-26.8292 240.54C148.793 329.302 321.174 363.504 536.596 379.012C766.325 392.504 897.019 413.906 1052.12 346.083C1374.71 135.94 1468.75 88.9077 1543.22 98.2656C1632.46 99.1105 1738.86 157.799 1882.93 239.619C2034.74 335.521 2088.69 363.139 2142.05 400.741" stroke="#FFEAE0" stroke-width="2.09756"/>
<path d="M-24.9634 251.966C141.884 335.726 320.61 375.271 533.07 392.469C756.977 408.054 900.957 422.576 1048.6 351.5C1375.17 134.486 1466.02 92.5041 1540.98 100.646C1630.72 99.6702 1737.49 163.473 1880.84 252.329C2033.1 354.706 2088.55 379.145 2143.94 417.927" stroke="#FFEEE6" stroke-width="1.87805"/>
<path d="M-23.0975 263.396C134.976 342.153 320.047 387.041 529.545 405.929C747.629 423.609 904.895 431.25 1045.07 356.921C1375.63 133.036 1463.28 96.1042 1538.73 103.031C1628.98 100.234 1736.11 169.151 1878.76 265.043C2031.46 373.894 2088.41 395.155 2145.83 435.116" stroke="#FFF3EC" stroke-width="1.65854"/>
<path d="M-21.2317 274.83C128.067 348.585 319.483 398.817 526.02 419.395C738.281 439.168 908.834 439.929 1041.55 362.347C1376.09 131.59 1460.55 99.7094 1536.49 105.42C1627.25 100.802 1734.74 174.834 1876.67 277.762C2029.82 393.087 2088.27 411.17 2147.72 452.31" stroke="#FFF7F3" stroke-width="1.43902"/>
<path d="M-19.3658 286.271C121.159 355.024 318.919 410.599 522.495 432.868C728.933 454.734 912.772 448.614 1038.02 367.78C1376.54 130.152 1457.82 103.321 1534.24 107.817C1625.51 101.377 1733.37 180.523 1874.59 290.487C2028.18 412.287 2088.14 427.191 2149.61 469.512" stroke="#FFFBF9" stroke-width="1.21951"/>
</svg>
