<svg width="1688" height="1650" viewBox="0 0 1688 1650" fill="none" xmlns="http://www.w3.org/2000/svg">
<path d="M972.109 135.347C707.644 45.833 570.573 197.365 535.096 284.321C512.599 339.46 450.919 595.167 242.249 657.401C-79.5269 753.368 178.39 1083.36 284.821 1307.15C391.253 1530.93 913.411 1467.09 929.537 1152.69C945.663 838.298 1339.78 1008.88 1409.12 960.831C1744.86 838.298 1603.6 611.612 1339.78 465.54C1110.79 332.366 1302.69 247.238 972.109 135.347Z" stroke="url(#paint0_linear_3101_1795)"/>
<path d="M1263.1 477.218C1156.05 287.529 997.534 304.196 931.655 336.241C889.88 356.561 720.927 472.997 567.297 400.512C330.394 288.737 308.446 614.721 253.781 800.135C199.116 985.549 535.715 1220.31 708.753 1046.06C881.791 871.816 1021.96 1176.1 1087.26 1184.29C1346.11 1287.9 1382.05 1082.67 1304.82 860.457C1241.11 663.875 1396.91 714.329 1263.1 477.218Z" stroke="url(#paint1_linear_3101_1795)" stroke-width="4"/>
<path d="M989.072 155.712C729.498 59.6268 589.448 205.996 551.87 291.191C528.042 345.214 459.796 596.933 251.284 652.801C-70.2476 738.953 176.137 1073.2 275.369 1297.97C374.6 1522.73 893.803 1473.99 918.542 1162.84C943.281 851.686 1329.07 1031.73 1399.12 986.041C1735.24 873.948 1601.57 645.34 1344.21 493.216C1121.01 354.846 1313.54 275.819 989.072 155.712Z" stroke="url(#paint2_linear_3101_1795)" stroke-width="1.11538"/>
<path d="M1005.84 175.536C751.257 73.0758 608.378 214.237 568.761 297.625C543.64 350.503 468.99 598.074 260.78 647.635C-60.2857 724.06 174.591 1062.19 266.676 1287.71C358.762 1513.23 874.694 1479.4 907.881 1171.71C941.068 864.024 1318.41 1053.21 1389.11 1009.88C1725.34 908.151 1599.24 677.859 1348.41 519.922C1131.05 376.568 1324.07 303.611 1005.84 175.536Z" stroke="url(#paint3_linear_3101_1795)" stroke-width="1.23077"/>
<path d="M1021.96 194.878C772.518 86.2477 626.99 222.159 585.407 303.693C559.038 355.395 478.163 598.66 270.444 641.975C-49.8656 708.768 173.481 1050.4 258.456 1276.46C343.432 1502.52 855.67 1483.36 897.13 1179.36C938.59 875.369 1307.27 1073.36 1378.54 1032.39C1714.59 940.947 1596.03 709.213 1351.86 545.71C1140.45 397.59 1333.76 330.666 1021.96 194.878Z" stroke="url(#paint4_linear_3101_1795)" stroke-width="1.34615"/>
<path d="M1037.45 213.724C793.294 99.1303 645.3 229.755 601.822 309.391C574.252 359.89 487.334 598.695 280.29 635.831C-38.9771 693.096 172.829 1037.85 250.738 1264.23C328.647 1490.6 836.778 1485.89 886.329 1185.8C935.881 885.72 1295.7 1092.19 1367.47 1053.58C1703.02 972.32 1591.99 739.386 1354.59 570.563C1149.22 417.898 1342.64 356.966 1037.45 213.724Z" stroke="url(#paint5_linear_3101_1795)" stroke-width="1.46154"/>
<path d="M1052.33 232.058C813.597 111.712 663.317 237.02 618.018 314.717C589.294 363.986 496.518 598.186 290.333 629.215C-27.6124 677.064 172.657 1024.57 243.549 1251.04C314.441 1477.52 818.059 1487 875.516 1191.04C932.973 895.08 1283.76 1109.68 1355.94 1073.42C1690.69 1002.26 1587.16 768.359 1356.63 594.468C1157.39 437.479 1350.75 382.491 1052.33 232.058Z" stroke="url(#paint6_linear_3101_1795)" stroke-width="1.57692"/>
<path d="M1066.62 249.864C833.441 123.979 681.055 243.945 634.01 319.664C604.178 367.678 505.735 597.134 300.585 622.135C-15.7627 660.686 172.983 1010.56 236.915 1236.92C300.846 1463.28 799.56 1486.7 864.73 1195.07C929.9 903.446 1271.47 1125.84 1344 1091.92C1677.65 1030.74 1581.59 796.114 1358.02 617.406C1164.99 456.316 1358.1 407.221 1066.62 249.864Z" stroke="url(#paint7_linear_3101_1795)" stroke-width="1.69231"/>
<path d="M1080.35 267.125C852.837 135.917 698.527 250.523 649.811 324.227C618.92 370.964 515.002 595.544 311.062 614.599C-3.41978 643.981 173.829 995.86 230.863 1221.89C287.897 1447.93 781.324 1485.02 854.009 1197.92C926.694 910.82 1258.9 1140.66 1331.7 1109.08C1663.95 1057.75 1575.32 822.637 1358.81 639.365C1172.05 474.397 1364.73 431.136 1080.35 267.125Z" stroke="url(#paint8_linear_3101_1795)" stroke-width="1.80769"/>
<path d="M1093.52 283.826C871.801 147.513 715.746 256.747 665.434 328.403C633.53 373.841 524.333 593.42 321.775 606.616C9.42246 626.965 175.212 980.479 225.417 1205.98C275.623 1431.48 763.392 1481.97 843.39 1199.59C923.388 917.203 1246.08 1154.14 1319.08 1124.88C1649.64 1083.29 1568.39 847.91 1359.01 660.328C1178.6 491.707 1370.68 454.218 1093.52 283.826Z" stroke="url(#paint9_linear_3101_1795)" stroke-width="1.92308"/>
<path d="M1106.18 299.955C890.345 158.757 732.724 262.612 680.893 332.189C648.026 376.308 533.747 590.769 332.736 598.2C22.7709 609.659 177.15 964.444 220.603 1189.21C264.055 1413.98 745.807 1477.57 832.911 1200.08C920.015 922.6 1233.06 1166.28 1306.18 1139.33C1634.78 1107.34 1560.85 871.924 1358.67 680.286C1184.66 508.237 1375.96 476.452 1106.18 299.955Z" stroke="url(#paint10_linear_3101_1795)" stroke-width="2.03846"/>
<path d="M1118.32 315.5C908.483 169.641 749.475 268.115 696.201 335.585C662.419 378.368 543.26 587.599 343.96 589.362C36.6314 592.081 179.661 947.778 216.442 1171.61C253.223 1395.44 728.61 1471.84 822.608 1199.43C916.605 927.019 1219.88 1177.09 1293.06 1152.43C1619.41 1129.89 1552.74 894.67 1357.82 699.232C1190.26 523.979 1380.63 497.824 1118.32 315.5Z" stroke="url(#paint11_linear_3101_1795)" stroke-width="2.15385"/>
<path d="M1129.99 330.448C926.231 180.151 766.011 273.25 711.372 338.586C676.724 380.017 552.888 583.916 355.456 580.113C51.0092 574.249 182.761 930.503 212.957 1153.2C243.153 1375.9 711.839 1464.8 812.516 1197.63C913.192 930.461 1206.59 1186.56 1279.75 1164.19C1603.59 1150.95 1544.1 916.135 1356.5 717.152C1195.43 538.923 1384.7 518.32 1129.99 330.448Z" stroke="url(#paint12_linear_3101_1795)" stroke-width="2.26923"/>
<path d="M1141.2 344.788C943.604 190.278 782.348 278.012 726.421 341.192C690.956 381.256 562.646 579.726 367.237 570.464C65.9094 556.18 186.466 912.641 210.171 1134.02C233.875 1355.39 695.536 1456.48 802.672 1194.71C909.807 932.935 1193.23 1194.72 1266.3 1174.59C1587.36 1170.5 1534.99 936.313 1354.75 734.041C1200.21 553.059 1388.2 537.925 1141.2 344.788Z" stroke="url(#paint13_linear_3101_1795)" stroke-width="2.38462"/>
<path d="M1151.98 358.506C960.615 200.011 798.497 282.395 741.359 343.4C705.127 382.083 572.551 575.036 379.313 560.424C81.3348 537.893 190.79 894.214 208.101 1114.08C225.412 1333.95 679.738 1446.89 793.109 1190.67C906.48 934.446 1179.84 1201.55 1252.75 1183.66C1570.79 1188.55 1525.45 955.194 1352.6 749.888C1204.61 566.378 1391.19 556.626 1151.98 358.506Z" stroke="url(#paint14_linear_3101_1795)" stroke-width="2.5"/>
<path d="M1162.34 371.596C977.28 209.342 814.472 286.399 756.201 345.209C719.251 382.501 582.616 569.855 391.695 550.009C97.2894 519.406 195.747 875.249 206.768 1093.42C217.789 1311.59 664.481 1436.07 783.862 1185.54C903.242 935.004 1166.46 1207.08 1239.16 1191.39C1553.91 1205.08 1515.51 972.777 1350.09 764.69C1208.67 578.876 1393.67 574.414 1162.34 371.596Z" stroke="url(#paint15_linear_3101_1795)" stroke-width="2.61538"/>
<path d="M1172.32 384.05C993.615 218.265 830.288 290.021 770.962 346.622C733.342 382.514 592.857 564.194 404.393 539.232C113.776 500.74 201.35 855.771 206.191 1072.07C211.031 1288.37 649.802 1424.04 774.963 1179.33C900.124 934.622 1153.15 1211.3 1225.55 1197.8C1536.79 1220.11 1505.23 989.058 1347.25 778.445C1212.41 590.55 1395.69 591.282 1172.32 384.05Z" stroke="url(#paint16_linear_3101_1795)" stroke-width="2.73077"/>
<path d="M1181.92 395.859C1009.64 226.771 845.956 293.258 785.652 347.638C747.413 382.121 603.288 558.06 417.416 528.105C130.797 481.913 207.611 835.803 206.384 1050.06C205.158 1264.32 635.736 1410.82 766.446 1172.06C897.155 933.307 1139.93 1214.24 1211.98 1202.89C1519.46 1233.64 1494.66 1004.04 1344.13 791.148C1215.87 601.394 1397.29 607.219 1181.92 395.859Z" stroke="url(#paint17_linear_3101_1795)" stroke-width="2.84615"/>
<path d="M1191.19 407.014C1025.36 234.851 861.491 296.107 800.287 348.256C761.478 381.324 613.922 551.463 430.774 516.64C148.353 462.941 214.541 815.37 207.366 1027.41C200.191 1239.46 622.318 1396.45 758.34 1163.76C894.363 931.071 1126.86 1215.91 1198.49 1206.67C1501.99 1245.67 1483.82 1017.71 1340.75 802.797C1219.07 611.403 1398.48 622.218 1191.19 407.014Z" stroke="url(#paint18_linear_3101_1795)" stroke-width="2.96154"/>
<path d="M1200.14 417.51C1040.79 242.5 876.907 298.568 814.881 348.478C775.549 380.127 624.775 544.413 444.475 504.851C166.445 443.845 222.151 794.497 209.151 1004.16C196.152 1213.83 609.579 1380.96 750.679 1154.44C891.779 927.927 1113.97 1216.31 1185.12 1209.16C1484.42 1256.2 1472.78 1030.08 1337.15 813.391C1222.05 620.577 1399.32 636.272 1200.14 417.51Z" stroke="url(#paint19_linear_3101_1795)" stroke-width="3.07692"/>
<path d="M1208.79 427.337C1055.97 249.708 892.216 300.634 829.444 348.301C789.64 378.527 635.859 536.915 458.526 492.747C185.074 424.638 230.449 773.205 211.753 980.336C193.057 1187.47 597.553 1364.37 743.491 1144.13C889.429 923.883 1101.29 1215.46 1171.91 1210.36C1466.8 1265.25 1461.57 1041.14 1333.37 822.926C1224.83 628.908 1399.82 649.374 1208.79 427.337Z" stroke="url(#paint20_linear_3101_1795)" stroke-width="3.19231"/>
<path d="M1217.17 436.498C1070.89 256.476 907.432 302.313 843.992 347.735C803.763 376.538 647.186 528.99 472.937 480.35C204.239 405.346 239.445 751.527 215.184 955.97C190.923 1160.41 586.268 1346.72 736.805 1132.84C887.342 918.962 1088.88 1213.38 1158.9 1210.3C1449.18 1272.82 1450.24 1050.91 1329.45 831.413C1227.43 636.405 1400.03 661.525 1217.17 436.498Z" stroke="url(#paint21_linear_3101_1795)" stroke-width="3.30769"/>
<path d="M1225.31 444.984C1085.57 262.795 922.57 303.602 858.537 346.779C817.932 374.158 658.769 520.643 487.713 467.67C223.94 385.983 249.148 729.486 219.458 931.094C189.768 1132.7 575.756 1328.04 730.65 1120.61C885.544 913.175 1076.77 1210.09 1146.13 1208.99C1431.61 1278.92 1438.83 1059.39 1325.41 838.849C1229.9 643.065 1399.97 672.721 1225.31 444.984Z" stroke="url(#paint22_linear_3101_1795)" stroke-width="3.42308"/>
<path d="M1233.22 452.794C1100.04 268.662 937.641 304.499 873.091 345.434C832.158 371.392 670.62 511.886 502.862 454.72C244.173 366.569 259.562 707.107 224.583 905.737C189.604 1104.37 566.043 1308.35 725.052 1107.45C884.062 906.537 1064.99 1205.6 1133.65 1206.44C1414.13 1283.57 1427.38 1066.58 1321.31 845.24C1232.25 648.888 1399.69 682.958 1233.22 452.794Z" stroke="url(#paint23_linear_3101_1795)" stroke-width="3.53846"/>
<path d="M1240.93 459.923C1114.3 274.073 952.66 305.006 887.667 343.705C846.454 368.244 682.75 502.731 518.389 441.516C264.939 347.119 270.694 684.415 230.57 879.931C190.446 1075.45 557.158 1287.71 720.039 1093.39C882.921 899.065 1053.58 1199.93 1121.48 1202.68C1396.8 1286.77 1415.93 1072.49 1317.16 850.59C1234.52 653.877 1399.21 692.237 1240.93 459.923Z" stroke="url(#paint24_linear_3101_1795)" stroke-width="3.65385"/>
<path d="M1248.46 466.368C1128.38 279.019 967.64 305.121 902.278 341.59C860.831 364.716 695.171 493.187 534.301 428.067C286.233 327.649 282.549 661.433 237.427 853.704C192.305 1045.98 549.125 1266.12 715.635 1078.45C882.145 890.772 1042.59 1193.11 1109.67 1197.72C1379.65 1288.55 1404.53 1077.13 1313 854.901C1236.74 658.032 1398.56 700.554 1248.46 466.368Z" stroke="url(#paint25_linear_3101_1795)" stroke-width="3.76923"/>
<path d="M1255.85 472.134C1142.29 283.506 982.593 304.851 916.936 339.102C875.303 360.821 707.893 483.272 550.602 414.395C308.053 308.184 295.132 638.194 245.162 827.096C195.192 1016 541.97 1243.64 711.865 1062.66C881.761 881.684 1032.04 1185.16 1098.25 1191.58C1362.74 1288.92 1393.22 1080.52 1308.88 858.188C1238.92 661.364 1397.79 707.918 1255.85 472.134Z" stroke="url(#paint26_linear_3101_1795)" stroke-width="3.88462"/>
<defs>
<linearGradient id="paint0_linear_3101_1795" x1="846" y1="108" x2="846" y2="1440" gradientUnits="userSpaceOnUse">
<stop stop-color="#B17AA1"/>
<stop offset="1" stop-color="#422DC4"/>
</linearGradient>
<linearGradient id="paint1_linear_3101_1795" x1="1204.07" y1="395.675" x2="510.651" y2="1169.48" gradientUnits="userSpaceOnUse">
<stop stop-color="#B17AA1"/>
<stop offset="1" stop-color="#422DC4"/>
</linearGradient>
<linearGradient id="paint2_linear_3101_1795" x1="864.868" y1="125.096" x2="827.758" y2="1445.27" gradientUnits="userSpaceOnUse">
<stop stop-color="#B17AA1"/>
<stop offset="1" stop-color="#422DC4"/>
</linearGradient>
<linearGradient id="paint3_linear_3101_1795" x1="883.596" y1="141.732" x2="810.038" y2="1449.09" gradientUnits="userSpaceOnUse">
<stop stop-color="#B17AA1"/>
<stop offset="1" stop-color="#422DC4"/>
</linearGradient>
<linearGradient id="paint4_linear_3101_1795" x1="901.755" y1="157.973" x2="792.44" y2="1451.52" gradientUnits="userSpaceOnUse">
<stop stop-color="#B17AA1"/>
<stop offset="1" stop-color="#422DC4"/>
</linearGradient>
<linearGradient id="paint5_linear_3101_1795" x1="919.363" y1="173.805" x2="775.006" y2="1452.58" gradientUnits="userSpaceOnUse">
<stop stop-color="#B17AA1"/>
<stop offset="1" stop-color="#422DC4"/>
</linearGradient>
<linearGradient id="paint6_linear_3101_1795" x1="936.434" y1="189.216" x2="757.78" y2="1452.27" gradientUnits="userSpaceOnUse">
<stop stop-color="#B17AA1"/>
<stop offset="1" stop-color="#422DC4"/>
</linearGradient>
<linearGradient id="paint7_linear_3101_1795" x1="952.987" y1="204.188" x2="740.804" y2="1450.62" gradientUnits="userSpaceOnUse">
<stop stop-color="#B17AA1"/>
<stop offset="1" stop-color="#422DC4"/>
</linearGradient>
<linearGradient id="paint8_linear_3101_1795" x1="969.039" y1="218.71" x2="724.118" y2="1447.64" gradientUnits="userSpaceOnUse">
<stop stop-color="#B17AA1"/>
<stop offset="1" stop-color="#422DC4"/>
</linearGradient>
<linearGradient id="paint9_linear_3101_1795" x1="984.608" y1="232.765" x2="707.764" y2="1443.34" gradientUnits="userSpaceOnUse">
<stop stop-color="#B17AA1"/>
<stop offset="1" stop-color="#422DC4"/>
</linearGradient>
<linearGradient id="paint10_linear_3101_1795" x1="999.711" y1="246.344" x2="691.78" y2="1437.76" gradientUnits="userSpaceOnUse">
<stop stop-color="#B17AA1"/>
<stop offset="1" stop-color="#422DC4"/>
</linearGradient>
<linearGradient id="paint11_linear_3101_1795" x1="1014.37" y1="259.437" x2="676.206" y2="1430.9" gradientUnits="userSpaceOnUse">
<stop stop-color="#B17AA1"/>
<stop offset="1" stop-color="#422DC4"/>
</linearGradient>
<linearGradient id="paint12_linear_3101_1795" x1="1028.6" y1="272.03" x2="661.079" y2="1422.8" gradientUnits="userSpaceOnUse">
<stop stop-color="#B17AA1"/>
<stop offset="1" stop-color="#422DC4"/>
</linearGradient>
<linearGradient id="paint13_linear_3101_1795" x1="1042.42" y1="284.115" x2="646.438" y2="1413.47" gradientUnits="userSpaceOnUse">
<stop stop-color="#B17AA1"/>
<stop offset="1" stop-color="#422DC4"/>
</linearGradient>
<linearGradient id="paint14_linear_3101_1795" x1="1055.85" y1="295.678" x2="632.317" y2="1402.94" gradientUnits="userSpaceOnUse">
<stop stop-color="#B17AA1"/>
<stop offset="1" stop-color="#422DC4"/>
</linearGradient>
<linearGradient id="paint15_linear_3101_1795" x1="1068.91" y1="306.714" x2="618.752" y2="1391.23" gradientUnits="userSpaceOnUse">
<stop stop-color="#B17AA1"/>
<stop offset="1" stop-color="#422DC4"/>
</linearGradient>
<linearGradient id="paint16_linear_3101_1795" x1="1081.62" y1="317.215" x2="605.777" y2="1378.38" gradientUnits="userSpaceOnUse">
<stop stop-color="#B17AA1"/>
<stop offset="1" stop-color="#422DC4"/>
</linearGradient>
<linearGradient id="paint17_linear_3101_1795" x1="1094" y1="327.173" x2="593.425" y2="1364.4" gradientUnits="userSpaceOnUse">
<stop stop-color="#B17AA1"/>
<stop offset="1" stop-color="#422DC4"/>
</linearGradient>
<linearGradient id="paint18_linear_3101_1795" x1="1106.07" y1="336.58" x2="581.728" y2="1349.33" gradientUnits="userSpaceOnUse">
<stop stop-color="#B17AA1"/>
<stop offset="1" stop-color="#422DC4"/>
</linearGradient>
<linearGradient id="paint19_linear_3101_1795" x1="1117.86" y1="345.431" x2="570.717" y2="1333.19" gradientUnits="userSpaceOnUse">
<stop stop-color="#B17AA1"/>
<stop offset="1" stop-color="#422DC4"/>
</linearGradient>
<linearGradient id="paint20_linear_3101_1795" x1="1129.36" y1="353.716" x2="560.422" y2="1316.01" gradientUnits="userSpaceOnUse">
<stop stop-color="#B17AA1"/>
<stop offset="1" stop-color="#422DC4"/>
</linearGradient>
<linearGradient id="paint21_linear_3101_1795" x1="1140.62" y1="361.437" x2="550.871" y2="1297.83" gradientUnits="userSpaceOnUse">
<stop stop-color="#B17AA1"/>
<stop offset="1" stop-color="#422DC4"/>
</linearGradient>
<linearGradient id="paint22_linear_3101_1795" x1="1151.65" y1="368.588" x2="542.092" y2="1278.68" gradientUnits="userSpaceOnUse">
<stop stop-color="#B17AA1"/>
<stop offset="1" stop-color="#422DC4"/>
</linearGradient>
<linearGradient id="paint23_linear_3101_1795" x1="1162.48" y1="375.164" x2="534.111" y2="1258.59" gradientUnits="userSpaceOnUse">
<stop stop-color="#B17AA1"/>
<stop offset="1" stop-color="#422DC4"/>
</linearGradient>
<linearGradient id="paint24_linear_3101_1795" x1="1173.11" y1="381.163" x2="526.953" y2="1237.59" gradientUnits="userSpaceOnUse">
<stop stop-color="#B17AA1"/>
<stop offset="1" stop-color="#422DC4"/>
</linearGradient>
<linearGradient id="paint25_linear_3101_1795" x1="1183.57" y1="386.578" x2="520.642" y2="1215.71" gradientUnits="userSpaceOnUse">
<stop stop-color="#B17AA1"/>
<stop offset="1" stop-color="#422DC4"/>
</linearGradient>
<linearGradient id="paint26_linear_3101_1795" x1="1193.89" y1="391.417" x2="515.201" y2="1193" gradientUnits="userSpaceOnUse">
<stop stop-color="#B17AA1"/>
<stop offset="1" stop-color="#422DC4"/>
</linearGradient>
</defs>
</svg>
