<svg width="1688" height="1650" viewBox="0 0 1688 1650" fill="none" xmlns="http://www.w3.org/2000/svg">
<path d="M972.109 135.347C707.644 45.833 570.573 197.365 535.096 284.321C512.599 339.46 450.919 595.167 242.249 657.401C-79.5269 753.368 178.39 1083.36 284.821 1307.15C391.253 1530.93 913.411 1467.09 929.537 1152.69C945.663 838.298 1339.78 1008.88 1409.12 960.831C1744.86 838.298 1603.6 611.612 1339.78 465.54C1110.79 332.366 1302.69 247.238 972.109 135.347Z" stroke="#767676"/>
<path d="M1263.1 477.218C1156.05 287.529 997.534 304.196 931.655 336.241C889.88 356.561 720.927 472.997 567.297 400.512C330.394 288.737 308.446 614.721 253.781 800.135C199.116 985.549 535.715 1220.31 708.753 1046.06C881.791 871.816 1021.96 1176.1 1087.26 1184.29C1346.11 1287.9 1382.05 1082.67 1304.82 860.457C1241.11 663.875 1396.91 714.329 1263.1 477.218Z" stroke="#361CD7" stroke-width="4"/>
<path d="M989.072 155.711C729.498 59.6258 589.448 205.995 551.87 291.19C528.042 345.213 459.796 596.932 251.284 652.8C-70.2476 738.952 176.137 1073.2 275.369 1297.96C374.6 1522.73 893.803 1473.99 918.542 1162.84C943.281 851.685 1329.07 1031.73 1399.12 986.04C1735.24 873.947 1601.57 645.339 1344.21 493.215C1121.01 354.845 1313.54 275.818 989.072 155.711Z" stroke="#73727A" stroke-width="1.11538"/>
<path d="M1005.84 175.535C751.257 73.0749 608.378 214.236 568.761 297.624C543.64 350.502 468.99 598.073 260.78 647.634C-60.2857 724.059 174.591 1062.19 266.676 1287.71C358.762 1513.23 874.694 1479.4 907.881 1171.71C941.068 864.023 1318.41 1053.21 1389.11 1009.88C1725.34 908.15 1599.24 677.858 1348.41 519.921C1131.05 376.567 1324.07 303.61 1005.84 175.535Z" stroke="#716F7D" stroke-width="1.23077"/>
<path d="M1021.96 194.878C772.518 86.2477 626.99 222.159 585.407 303.693C559.038 355.395 478.163 598.66 270.444 641.975C-49.8656 708.768 173.481 1050.4 258.456 1276.46C343.432 1502.52 855.67 1483.36 897.13 1179.36C938.59 875.369 1307.27 1073.36 1378.54 1032.39C1714.59 940.947 1596.03 709.213 1351.86 545.71C1140.45 397.59 1333.76 330.666 1021.96 194.878Z" stroke="#6F6C81" stroke-width="1.34615"/>
<path d="M1037.45 213.724C793.294 99.1303 645.3 229.755 601.822 309.391C574.252 359.89 487.334 598.695 280.29 635.831C-38.9771 693.096 172.829 1037.85 250.738 1264.23C328.647 1490.6 836.778 1485.89 886.329 1185.8C935.881 885.72 1295.7 1092.19 1367.47 1053.58C1703.02 972.32 1591.99 739.386 1354.59 570.563C1149.22 417.898 1342.64 356.966 1037.45 213.724Z" stroke="#6C6885" stroke-width="1.46154"/>
<path d="M1052.33 232.058C813.597 111.711 663.317 237.019 618.018 314.716C589.294 363.985 496.518 598.185 290.333 629.214C-27.6124 677.063 172.657 1024.57 243.549 1251.04C314.441 1477.51 818.059 1487 875.516 1191.04C932.973 895.079 1283.76 1109.68 1355.94 1073.42C1690.69 1002.25 1587.16 768.358 1356.63 594.467C1157.39 437.478 1350.75 382.49 1052.33 232.058Z" stroke="#6A6589" stroke-width="1.57692"/>
<path d="M1066.62 249.863C833.441 123.978 681.055 243.944 634.01 319.663C604.178 367.677 505.735 597.133 300.585 622.134C-15.7627 660.685 172.983 1010.56 236.915 1236.92C300.846 1463.28 799.56 1486.7 864.73 1195.07C929.9 903.445 1271.47 1125.84 1344 1091.92C1677.65 1030.74 1581.59 796.114 1358.02 617.405C1164.99 456.315 1358.1 407.22 1066.62 249.863Z" stroke="#67618C" stroke-width="1.69231"/>
<path d="M1080.35 267.124C852.837 135.916 698.527 250.522 649.811 324.226C618.92 370.963 515.002 595.543 311.062 614.598C-3.41978 643.98 173.829 995.859 230.863 1221.89C287.897 1447.93 781.324 1485.02 854.009 1197.92C926.694 910.819 1258.9 1140.66 1331.7 1109.08C1663.95 1057.75 1575.32 822.636 1358.81 639.364C1172.05 474.396 1364.73 431.135 1080.35 267.124Z" stroke="#655E90" stroke-width="1.80769"/>
<path d="M1093.52 283.826C871.801 147.513 715.746 256.747 665.434 328.403C633.53 373.841 524.333 593.42 321.775 606.616C9.42246 626.965 175.212 980.479 225.417 1205.98C275.623 1431.48 763.392 1481.97 843.39 1199.59C923.388 917.203 1246.08 1154.14 1319.08 1124.88C1649.64 1083.29 1568.39 847.91 1359.01 660.328C1178.6 491.707 1370.68 454.218 1093.52 283.826Z" stroke="#625A94" stroke-width="1.92308"/>
<path d="M1106.18 299.955C890.345 158.757 732.724 262.612 680.893 332.189C648.026 376.308 533.747 590.769 332.736 598.2C22.7709 609.659 177.15 964.444 220.603 1189.21C264.055 1413.98 745.807 1477.57 832.911 1200.08C920.015 922.6 1233.06 1166.28 1306.18 1139.33C1634.78 1107.34 1560.85 871.924 1358.67 680.286C1184.66 508.237 1375.96 476.452 1106.18 299.955Z" stroke="#605797" stroke-width="2.03846"/>
<path d="M1118.32 315.5C908.483 169.641 749.475 268.115 696.201 335.585C662.419 378.368 543.26 587.599 343.96 589.362C36.6314 592.081 179.661 947.778 216.442 1171.61C253.223 1395.44 728.61 1471.84 822.608 1199.43C916.605 927.019 1219.88 1177.09 1293.06 1152.43C1619.41 1129.89 1552.74 894.67 1357.82 699.232C1190.26 523.979 1380.63 497.824 1118.32 315.5Z" stroke="#5D539B" stroke-width="2.15385"/>
<path d="M1129.99 330.447C926.231 180.15 766.011 273.249 711.372 338.585C676.724 380.016 552.888 583.915 355.456 580.112C51.0092 574.248 182.761 930.502 212.957 1153.2C243.153 1375.9 711.839 1464.8 812.516 1197.63C913.192 930.46 1206.59 1186.56 1279.75 1164.18C1603.59 1150.95 1544.1 916.134 1356.5 717.151C1195.43 538.922 1384.7 518.319 1129.99 330.447Z" stroke="#5B509F" stroke-width="2.26923"/>
<path d="M1141.2 344.787C943.604 190.277 782.348 278.011 726.421 341.192C690.956 381.255 562.646 579.725 367.237 570.463C65.9094 556.179 186.466 912.64 210.171 1134.02C233.875 1355.39 695.536 1456.47 802.672 1194.7C909.807 932.934 1193.23 1194.72 1266.3 1174.59C1587.36 1170.5 1534.99 936.312 1354.75 734.04C1200.21 553.058 1388.2 537.924 1141.2 344.787Z" stroke="#594CA3" stroke-width="2.38462"/>
<path d="M1151.98 358.506C960.615 200.011 798.497 282.395 741.359 343.4C705.127 382.083 572.551 575.036 379.313 560.424C81.3348 537.893 190.79 894.214 208.101 1114.08C225.412 1333.95 679.738 1446.89 793.109 1190.67C906.48 934.446 1179.84 1201.55 1252.75 1183.66C1570.79 1188.55 1525.45 955.194 1352.6 749.888C1204.61 566.378 1391.19 556.626 1151.98 358.506Z" stroke="#5649A6" stroke-width="2.5"/>
<path d="M1162.34 371.597C977.28 209.343 814.472 286.4 756.201 345.21C719.251 382.502 582.616 569.856 391.695 550.01C97.2894 519.407 195.747 875.25 206.768 1093.42C217.789 1311.59 664.481 1436.07 783.862 1185.54C903.242 935.005 1166.46 1207.08 1239.16 1191.39C1553.91 1205.08 1515.51 972.778 1350.09 764.691C1208.67 578.877 1393.67 574.415 1162.34 371.597Z" stroke="#5446AA" stroke-width="2.61538"/>
<path d="M1172.32 384.05C993.615 218.265 830.288 290.021 770.962 346.622C733.342 382.514 592.857 564.194 404.393 539.232C113.776 500.74 201.35 855.771 206.191 1072.07C211.031 1288.37 649.802 1424.04 774.963 1179.33C900.124 934.622 1153.15 1211.3 1225.55 1197.8C1536.79 1220.11 1505.23 989.058 1347.25 778.445C1212.41 590.55 1395.69 591.282 1172.32 384.05Z" stroke="#5142AE" stroke-width="2.73077"/>
<path d="M1181.92 395.858C1009.64 226.77 845.956 293.257 785.652 347.637C747.413 382.12 603.288 558.059 417.416 528.104C130.797 481.912 207.611 835.802 206.384 1050.06C205.158 1264.31 635.736 1410.82 766.446 1172.06C897.155 933.306 1139.93 1214.24 1211.98 1202.89C1519.46 1233.64 1494.66 1004.04 1344.13 791.147C1215.87 601.393 1397.29 607.218 1181.92 395.858Z" stroke="#4F3FB2" stroke-width="2.84615"/>
<path d="M1191.19 407.013C1025.36 234.85 861.491 296.107 800.287 348.255C761.478 381.323 613.922 551.462 430.774 516.639C148.353 462.94 214.541 815.369 207.366 1027.41C200.191 1239.45 622.318 1396.45 758.34 1163.76C894.363 931.07 1126.86 1215.91 1198.49 1206.67C1501.99 1245.67 1483.82 1017.71 1340.75 802.796C1219.07 611.402 1398.48 622.217 1191.19 407.013Z" stroke="#4C3BB5" stroke-width="2.96154"/>
<path d="M1200.14 417.509C1040.79 242.499 876.907 298.567 814.881 348.477C775.549 380.126 624.775 544.412 444.475 504.85C166.445 443.844 222.151 794.496 209.151 1004.16C196.152 1213.83 609.579 1380.96 750.679 1154.44C891.779 927.926 1113.97 1216.31 1185.12 1209.16C1484.42 1256.2 1472.78 1030.08 1337.15 813.39C1222.05 620.576 1399.32 636.271 1200.14 417.509Z" stroke="#4A38B9" stroke-width="3.07692"/>
<path d="M1208.79 427.338C1055.97 249.709 892.216 300.635 829.444 348.302C789.64 378.528 635.859 536.916 458.526 492.748C185.074 424.639 230.449 773.206 211.753 980.337C193.057 1187.47 597.553 1364.37 743.491 1144.13C889.429 923.884 1101.29 1215.46 1171.91 1210.36C1466.8 1265.25 1461.57 1041.14 1333.37 822.927C1224.83 628.909 1399.82 649.375 1208.79 427.338Z" stroke="#4734BD" stroke-width="3.19231"/>
<path d="M1217.17 436.498C1070.89 256.476 907.432 302.313 843.992 347.735C803.763 376.538 647.186 528.99 472.937 480.35C204.239 405.346 239.445 751.527 215.184 955.97C190.923 1160.41 586.268 1346.72 736.805 1132.84C887.342 918.962 1088.88 1213.38 1158.9 1210.3C1449.18 1272.82 1450.24 1050.91 1329.45 831.413C1227.43 636.405 1400.03 661.525 1217.17 436.498Z" stroke="#4531C0" stroke-width="3.30769"/>
<path d="M1225.31 444.984C1085.57 262.795 922.57 303.602 858.537 346.779C817.932 374.158 658.769 520.643 487.713 467.67C223.94 385.983 249.148 729.486 219.458 931.094C189.768 1132.7 575.756 1328.04 730.65 1120.61C885.544 913.175 1076.77 1210.09 1146.13 1208.99C1431.61 1278.92 1438.83 1059.39 1325.41 838.849C1229.9 643.065 1399.97 672.721 1225.31 444.984Z" stroke="#422DC4" stroke-width="3.42308"/>
<path d="M1233.22 452.793C1100.04 268.661 937.641 304.498 873.091 345.433C832.158 371.391 670.62 511.885 502.862 454.719C244.173 366.568 259.562 707.106 224.583 905.736C189.604 1104.37 566.043 1308.35 725.052 1107.44C884.062 906.536 1064.99 1205.6 1133.65 1206.44C1414.13 1283.56 1427.38 1066.58 1321.31 845.239C1232.25 648.887 1399.69 682.957 1233.22 452.793Z" stroke="#402AC8" stroke-width="3.53846"/>
<path d="M1240.93 459.922C1114.3 274.072 952.66 305.005 887.667 343.704C846.454 368.243 682.75 502.73 518.389 441.515C264.939 347.118 270.694 684.414 230.57 879.93C190.446 1075.45 557.158 1287.7 720.039 1093.38C882.921 899.064 1053.58 1199.93 1121.48 1202.68C1396.8 1286.77 1415.93 1072.49 1317.16 850.589C1234.52 653.876 1399.21 692.236 1240.93 459.922Z" stroke="#3E26CC" stroke-width="3.65385"/>
<path d="M1248.46 466.369C1128.38 279.02 967.64 305.122 902.278 341.591C860.831 364.717 695.171 493.188 534.301 428.068C286.233 327.65 282.549 661.434 237.427 853.705C192.305 1045.98 549.125 1266.12 715.635 1078.45C882.145 890.773 1042.59 1193.11 1109.67 1197.72C1379.65 1288.55 1404.53 1077.14 1313 854.902C1236.74 658.033 1398.56 700.555 1248.46 466.369Z" stroke="#3B23CF" stroke-width="3.76923"/>
<path d="M1255.85 472.135C1142.29 283.507 982.593 304.852 916.936 339.103C875.303 360.822 707.893 483.273 550.602 414.396C308.053 308.185 295.132 638.195 245.162 827.097C195.192 1016 541.97 1243.65 711.865 1062.67C881.761 881.685 1032.04 1185.16 1098.25 1191.58C1362.74 1288.92 1393.22 1080.52 1308.88 858.189C1238.92 661.365 1397.79 707.919 1255.85 472.135Z" stroke="#3920D3" stroke-width="3.88462"/>
</svg>
