<svg width="1920" height="1401" viewBox="0 0 1920 1401" fill="none" xmlns="http://www.w3.org/2000/svg">
<path d="M-77.5 820.499C-47.3566 744.813 108 671 318.501 704.499C508.5 734.735 541.001 905.788 848.001 762.499C973.965 703.706 1165.64 560.499 1351 560.499C1518.47 560.499 1582.43 619.416 1678.5 631C1848.5 651.499 1906.26 576.113 1930 534.499C2080 271.569 2029 405.499 2187 260.999C2379.95 84.5348 2471.68 242.029 2571.49 297.568" stroke="#2200F5"/>
<path d="M-28.977 1142.97C39.1409 1198.03 341.5 1157.5 489.5 1101C821.759 974.156 691.212 684.476 982 590.5C1359.5 468.5 1481 707 1810 352C2206.17 -75.4748 2242.03 185.263 2332.78 339.168" stroke="#767676" stroke-width="4"/>
<path d="M-77.6193 830.709C-47.2894 759.937 105.08 689.812 310.443 721.225C496.28 749.53 532.595 911.282 828.499 773.471C956.376 714.458 1141.33 573.112 1320.01 568.349C1481.66 563.586 1544.49 615.13 1642.9 623.925C1813.8 640.543 1874.75 570.134 1903.01 530.502C2051.52 280.092 2008.31 406.258 2166.62 260.186C2369.25 71.7688 2458.31 234.179 2557.69 294.403" stroke="#2606EF" stroke-width="1.14286"/>
<path d="M-77.7047 840.989C-47.1884 775.132 102.193 708.695 302.418 738.021C484.094 764.395 524.222 916.848 809.032 784.515C938.821 725.281 1117.05 585.795 1289.06 576.27C1444.89 566.744 1506.58 610.915 1607.34 616.921C1779.13 629.658 1843.27 564.225 1876.05 526.575C2023.07 288.685 1987.65 407.087 2146.27 259.444C2358.57 59.0735 2444.98 226.401 2543.93 291.308" stroke="#2A0BE9" stroke-width="1.28571"/>
<path d="M-77.7502 851.355C-47.0474 790.413 99.3466 727.664 294.434 754.903C471.948 779.347 515.89 922.498 789.604 795.644C921.306 736.19 1092.81 598.565 1258.15 584.276C1408.15 569.987 1468.71 606.786 1571.82 610.002C1744.5 618.859 1811.83 558.402 1849.13 522.734C1994.66 297.364 1967.03 408.001 2125.96 258.787C2347.94 46.464 2431.69 218.707 2530.2 288.299" stroke="#2E11E3" stroke-width="1.42857"/>
<path d="M-77.7478 861.821C-46.8586 805.794 96.5479 746.732 286.497 771.886C459.85 794.399 507.606 928.25 770.224 806.873C903.839 747.199 1068.61 611.434 1227.28 592.383C1371.47 573.331 1430.88 602.756 1536.34 603.184C1668.29 606.966 1740.69 575.81 1786.2 545.851C1811.12 529.443 1830.6 506.274 1847.91 481.967C1964.49 318.236 1956.62 399.398 2105.7 258.231C2337.36 33.9547 2418.44 211.114 2516.53 285.39" stroke="#3216DD" stroke-width="1.57143"/>
<path d="M-77.6878 872.41C-46.6121 821.298 93.8069 765.924 278.618 788.992C447.809 809.573 499.379 934.124 750.902 818.225C886.43 758.331 1044.48 624.427 1196.47 600.613C1334.84 576.798 1393.12 598.85 1500.93 596.489C1628.15 597.287 1701.8 570.646 1750.33 543.865C1781.26 526.794 1805.73 500.242 1827.23 472.205C1937.17 328.836 1938.88 397.808 2085.5 257.798C2326.83 21.5686 2405.26 203.645 2502.91 282.605" stroke="#361CD7" stroke-width="1.71429"/>
<path d="M-77.5573 883.148C-46.2952 836.951 91.1364 785.265 270.81 806.246C435.839 824.897 491.222 940.147 731.651 829.726C869.091 769.611 1020.41 637.568 1165.74 608.991C1298.28 580.413 1355.42 595.093 1465.58 589.942C1589.61 587.971 1664.39 564.618 1715.53 540.598C1751.66 523.632 1780.6 495.001 1806.12 464.316C1910.49 338.844 1921.1 396.424 2065.36 257.513C2316.38 9.3308 2392.14 196.323 2489.36 279.967" stroke="#3A22D1" stroke-width="1.85714"/>
<path d="M-77.3389 894.071C-45.8904 852.789 88.5537 804.791 263.089 823.686C423.957 840.406 483.154 946.356 712.487 841.413C851.84 781.077 996.434 650.896 1135.09 617.555C1261.81 584.214 1317.81 591.521 1430.32 583.581C1552.52 578.958 1628.5 558.048 1682.06 536.411C1722.47 520.091 1755.51 490.227 1784.82 457.983C1884.44 348.396 1903.37 395.228 2045.32 257.414C2306.01 -2.72104 2379.11 189.188 2475.9 277.516" stroke="#3E27CB" stroke-width="2"/>
<path d="M-77.0111 905.227C-45.3761 868.86 86.0805 824.549 255.478 841.358C412.184 856.147 475.195 952.796 693.433 853.331C834.698 792.776 972.567 664.455 1104.55 626.351C1225.45 588.247 1280.31 588.181 1395.17 577.452C1516.77 570.211 1594.14 551.178 1650.08 531.622C1693.82 516.334 1730.25 486.279 1762.99 453.506C1858.94 357.469 1885.51 394.456 2025.38 257.547C2295.75 -14.5409 2366.19 182.284 2462.55 275.296" stroke="#422DC5" stroke-width="2.14286"/>
<path d="M-76.5425 916.682C-44.721 885.229 83.748 844.607 248.008 859.329C400.552 872.187 467.377 959.536 674.519 865.549C817.697 804.773 948.84 678.313 1074.15 635.446C1189.23 592.579 1242.96 585.14 1360.16 571.622C1482.29 561.724 1561.33 544.219 1619.73 526.525C1665.83 512.555 1705.07 483.009 1740.77 450.659C1833.93 366.242 1867.56 394.167 2005.59 257.979C2285.63 -26.0616 2353.42 175.68 2449.35 273.376" stroke="#4633BF" stroke-width="2.28571"/>
<path d="M-75.8897 928.526C-43.8817 901.988 81.5998 865.054 240.722 877.69C389.104 888.617 459.743 966.665 655.79 878.157C800.88 817.16 925.297 692.56 1043.93 644.931C1153.2 597.301 1205.78 582.489 1325.34 566.182C1449.02 553.525 1530.05 537.377 1591.07 521.412C1638.6 508.975 1679.82 480.772 1717.84 449.654C1809.25 374.839 1849.37 394.659 1985.98 258.8C2275.7 -37.1929 2340.82 169.465 2436.32 271.845" stroke="#4A38B8" stroke-width="2.42857"/>
<path d="M-74.9901 940.892C-42.7957 919.27 79.6984 886.023 233.682 896.573C377.903 905.569 452.355 974.317 637.308 891.286C784.311 830.069 902.001 707.331 1013.97 654.938C1117.41 602.545 1168.86 580.36 1290.76 561.264C1416.94 545.692 1500.3 530.883 1564.19 516.587C1612.21 505.843 1654.65 479.591 1694.24 450.377C1784.81 383.541 1830.97 396.107 1966.62 260.145C2266.01 -47.8016 2328.48 163.773 2423.54 270.837" stroke="#4E3EB2" stroke-width="2.57143"/>
<path d="M-73.751 953.979C-41.3701 937.272 78.1365 907.713 226.982 916.176C367.042 923.242 445.308 982.689 619.165 905.136C768.08 843.699 879.044 722.821 984.337 665.665C1081.96 608.51 1132.27 578.952 1256.52 557.066C1386.07 538.377 1472.1 525.034 1539.17 512.408C1586.71 503.457 1629.6 479.68 1669.89 452.903C1760.5 392.685 1812.37 398.81 1947.59 262.209C2256.67 -57.6903 2316.47 158.8 2411.1 270.549" stroke="#5243AC" stroke-width="2.71429"/>
<path d="M-72.1787 967.771C-39.6114 955.978 76.9077 930.107 220.616 936.484C356.513 941.619 438.593 991.765 601.355 919.691C752.183 858.033 856.421 739.016 955.041 677.097C1046.85 615.179 1096.01 578.248 1222.62 553.573C1356.37 531.512 1445.45 519.902 1516.06 508.981C1562.17 501.852 1604.53 481.027 1644.58 457.096C1736.08 402.413 1793.44 402.87 1928.9 264.978C2247.65 -66.8741 2304.79 154.533 2399 270.965" stroke="#5649A6" stroke-width="2.85714"/>
<path d="M-70.5859 981.606C-37.8322 974.729 75.6994 952.546 214.269 956.837C346.005 960.04 431.899 1000.89 583.565 934.29C736.306 872.412 833.818 755.256 925.766 688.574C1011.75 621.892 1059.78 577.589 1188.73 550.125C1327.46 524.406 1419.92 514.937 1494.52 505.781C1538.19 500.421 1579.04 482.876 1617.84 462.11C1711.03 412.232 1773.83 407.698 1910.23 267.791C2238.66 -76.0136 2293.14 150.31 2386.91 271.426" stroke="#5A4FA0" stroke-width="3"/>
<path d="M-68.9932 995.441C-36.0529 993.479 74.4912 974.983 207.923 977.188C335.497 978.461 425.205 1010.01 565.776 948.888C720.43 886.79 811.215 771.494 896.492 700.049C976.656 628.605 1023.55 576.928 1154.85 546.675C1299.26 516.976 1395.45 510.208 1474.52 502.867C1514.77 499.13 1553.05 485.026 1589.56 467.678C1685.15 422.256 1753.48 413.293 1891.56 270.604C2229.67 -85.154 2281.49 146.086 2374.83 271.886" stroke="#5E549A" stroke-width="3.14286"/>
<path d="M-67.4004 1009.28C-34.2737 1012.23 73.2829 997.422 201.577 997.541C324.99 996.882 418.511 1019.13 547.987 963.487C704.553 901.168 788.612 787.734 867.217 711.526C941.561 635.318 987.314 576.269 1120.96 543.227C1271.72 509.198 1371.96 505.847 1456.05 500.329C1491.86 497.979 1526.44 487.331 1559.59 473.575C1658.23 432.636 1732.36 419.719 1872.89 273.417C2220.67 -94.2934 2269.83 141.862 2362.74 272.347" stroke="#625A94" stroke-width="3.28571"/>
<path d="M-65.8071 1023.11C-32.494 1030.98 72.0751 1019.86 195.231 1017.89C314.482 1015.3 411.817 1028.25 530.198 978.086C688.677 915.546 766.01 803.972 837.942 723.002C906.467 642.031 951.081 575.609 1087.08 539.777C1244.76 501.054 1349.37 501.987 1439.07 498.225C1469.45 496.951 1499.14 489.606 1527.82 479.512C1630.09 443.509 1710.43 427.025 1854.22 276.229C2211.68 -103.434 2258.18 137.638 2350.66 272.807" stroke="#665F8E" stroke-width="3.42857"/>
<path d="M-64.2144 1036.95C-30.7148 1049.73 70.8669 1042.3 188.885 1038.24C303.974 1033.72 405.123 1037.37 512.409 992.685C672.8 929.925 743.407 820.212 808.667 734.478C871.372 648.745 914.847 574.949 1053.19 536.329C1218.27 492.542 1327.55 498.772 1423.51 496.585C1447.48 496.039 1471.15 491.628 1494.23 485.097C1600.57 454.998 1687.7 435.227 1835.55 279.043C2202.69 -112.573 2246.53 133.415 2338.58 273.268" stroke="#6A6588" stroke-width="3.57143"/>
<path d="M-57.6572 1061.3C-23.9712 1079 74.623 1075.25 187.503 1069.11C298.431 1062.66 403.393 1057 499.584 1017.8C661.888 954.818 725.768 846.966 784.357 756.469C841.241 665.973 883.578 584.804 1024.27 543.395C1197.09 494.186 1311.3 506.841 1414.18 505.909C1430.88 505.758 1447.48 503.69 1463.84 500.345C1574.47 477.721 1669.14 454.834 1821.85 292.371C2198.66 -111.198 2239.84 139.707 2331.46 284.244" stroke="#6E6B82" stroke-width="3.71429"/>
<path d="M-43.3553 1102.06C-9.48276 1124.67 86.1239 1124.61 193.866 1116.38C300.632 1108 409.408 1093.05 494.503 1059.32C658.72 996.117 715.875 890.126 767.791 794.866C818.855 699.607 860.054 611.066 1003.1 566.867C1190.96 509.748 1312.52 533.896 1426.68 531.915C1546.86 519.394 1651.69 498.034 1815.88 322.105C2202.37 -93.4168 2240.89 162.404 2332.08 311.626" stroke="#72707C" stroke-width="3.85714"/>
</svg>
