<svg width="1920" height="1426" viewBox="0 0 1920 1426" fill="none" xmlns="http://www.w3.org/2000/svg">
<path d="M-58.5601 905.788C-28.4166 830.101 87.4534 689.361 309.786 731.893C587.701 785.058 608.326 857.03 714.797 767.657C821.268 678.284 912.505 584.929 1089.53 529.988C1231.16 486.035 1424.71 583.125 1507.11 633.847C1559.76 666.256 1650.25 749.241 1756.17 682.473C1888.58 599.013 1683.65 415.717 1977.85 273.333C2213.22 159.426 2471.68 242.028 2571.49 297.568" stroke="#2200F5"/>
<path d="M-28.9769 1142.97C39.141 1198.03 243.288 1278.17 514.933 1158.3C854.49 1008.46 628.863 779.384 881.318 607.176C1133.77 434.968 1067.84 904.247 1564.18 390.85C1961.25 -19.868 2242.03 185.263 2332.78 339.169" stroke="#767676" stroke-width="4"/>
<path d="M-60.2928 908.034C-30.031 836.459 83.84 702.691 300.981 744.113C571.473 795.771 596.056 864.509 703.635 776.321C812.572 687.533 901.235 594.117 1071.82 537.517C1208.42 491.457 1394.48 580.769 1478.64 626.073C1534.23 653.777 1622.98 736.492 1727.7 673.679C1857.83 594.845 1665.37 418.277 1957.59 271.376C2199.31 145.636 2458.64 233.301 2558.09 292.851" stroke="#2605F0" stroke-width="1.16"/>
<path d="M-62.6641 911.886C-32.1838 844.502 79.8968 717.789 291.874 757.758C554.976 807.479 583.439 872.835 692.277 785.845C803.832 697.656 890.071 604.229 1054.34 545.857C1186.03 497.599 1364.57 578.751 1450.45 618.456C1508.97 641.339 1595.91 723.53 1699.54 664.644C1827.53 590.404 1647.71 421.104 1938.24 269.573C2186.55 131.917 2446.73 224.16 2545.78 287.489" stroke="#2909EB" stroke-width="1.32"/>
<path d="M-65.4873 914.778C-34.8311 851.501 75.3976 731.722 282.313 770.46C538.15 818.525 570.556 880.621 680.626 794.771C794.774 707.123 878.55 613.604 1036.52 553.497C1163.31 503.071 1334.45 576.334 1422.12 610.569C1483.61 628.711 1568.82 710.571 1671.35 655.594C1797.2 585.924 1629.81 423.478 1918.65 267.3C2173.57 117.704 2434.75 214.853 2533.47 282.127" stroke="#2C0EE6" stroke-width="1.48"/>
<path d="M-67.0886 917.302C-36.3157 858.069 71.9456 745.155 273.827 782.92C522.434 829.646 558.844 888.608 670.063 803.874C786.719 716.74 867.936 623.062 1019.53 561.271C1141.37 508.71 1305.16 574.348 1394.65 603.242C1459.13 616.725 1542.7 698.464 1644.07 647.417C1767.7 582.337 1612.62 426.347 1899.6 265.546C2160.96 103.999 2423.24 206.475 2521.71 277.907" stroke="#3013E1" stroke-width="1.64"/>
<path d="M-68.2006 920.864C-37.2546 865.852 69.0862 760.064 265.628 796.392C506.629 841.206 546.903 896.752 659.266 813.282C778.423 726.814 857.13 633.206 1002.27 569.726C1119.09 515.04 1275.23 572.541 1366.39 595.844C1433.75 604.515 1515.44 685.69 1615.61 638.606C1736.98 578.17 1594.63 429.479 1879.65 264.217C2147.39 90.9276 2410.28 197.925 2508.26 273.084" stroke="#3318DC" stroke-width="1.8"/>
<path d="M-69.7191 923.565C-38.6664 872.632 65.6648 773.77 257.085 809.114C490.747 852.573 535.005 904.967 648.462 822.654C770.068 736.746 846.173 643.01 984.874 577.858C1096.68 521.048 1245.39 570.875 1338.31 588.823C1408.62 592.827 1488.63 673.858 1587.61 630.737C1706.71 574.932 1576.72 432.78 1859.74 262.952C2133.77 77.7622 2397.66 190.091 2495.35 269.404" stroke="#361CD7" stroke-width="1.96"/>
<path d="M-71.8496 927.924C-40.5569 881.183 62.0358 789.36 248.3 823.114C474.581 864.476 522.708 913.409 637.496 832.283C761.798 746.958 835.556 653.262 968.016 586.347C1074.97 527.356 1216.18 568.96 1310.86 581.256C1384.13 580.404 1462.28 660.784 1560.2 621.542C1677.2 570.281 1559.9 435.523 1841.41 261.075C2122.27 64.0144 2386.95 180.585 2484.18 263.503" stroke="#3A21D1" stroke-width="2.12"/>
<path d="M-73.2366 930.902C-41.8256 888.262 58.7742 803.397 239.888 836.103C458.796 876.03 510.888 921.776 626.776 841.823C753.534 757.074 824.702 663.274 950.718 594.68C1052.66 533.559 1186.4 567.416 1282.83 574.321C1359.04 568.782 1435.49 648.961 1532.21 613.685C1646.95 567.058 1542.06 438.955 1821.57 259.95C2108.73 51.0032 2374.36 172.804 2471.27 259.822" stroke="#3D26CC" stroke-width="2.28"/>
<path d="M-74.5359 934.066C-42.9775 895.534 55.6987 817.622 231.709 849.206C443.301 887.606 499.356 930.136 616.412 851.339C745.695 767.146 814.329 673.235 933.962 602.923C1030.93 539.643 1157.24 565.678 1255.45 567.151C1334.61 556.894 1409.35 636.827 1504.93 605.498C1617.46 563.485 1525.01 442.126 1802.66 258.497C2096.26 37.5992 2362.89 164.526 2459.51 255.602" stroke="#402AC7" stroke-width="2.44"/>
<path d="M-76.3414 939.117C-44.6081 904.75 52.1806 833.87 222.947 864.033C427.054 900.547 486.988 939.683 605.239 862.101C737.076 778.523 803.252 684.664 916.522 612.676C1008.55 547.286 1127.32 565.283 1227.24 561.203C1309.33 546.16 1382.22 625.546 1476.64 598.126C1586.95 560.693 1507.13 446.501 1782.99 258.391C2083.14 25.7649 2350.46 157.151 2446.6 251.922" stroke="#442FC2" stroke-width="2.6"/>
<path d="M-77.3562 942.881C-45.5005 912.617 49.3063 848.698 214.964 877.885C411.747 913.045 475.661 949.047 595.006 872.629C729.29 789.62 792.853 695.598 899.67 621.889C986.665 554.329 1097.98 564.585 1199.66 555.132C1284.67 535.409 1355.91 614.681 1449.15 591.255C1557.22 558.482 1489.77 450.885 1763.59 258.146C2069.95 13.5285 2338.33 150.379 2434.23 249.382" stroke="#4734BD" stroke-width="2.76"/>
<path d="M-79.3251 947.585C-47.2679 921.45 45.7364 864.487 206.308 892.274C395.792 925.577 463.646 958.21 584.304 882.931C721.274 800.454 782.447 706.405 883.012 630.966C965.155 561.246 1069.05 563.496 1172.55 548.485C1260.58 523.961 1330.03 602.748 1422.19 583.195C1528.13 554.959 1473.25 454.41 1745.57 257.025C2058.8 0.477701 2328.1 141.863 2423.6 244.624" stroke="#4A39B8" stroke-width="2.92"/>
<path d="M-79.319 953.515C-47.1226 931.517 43.9223 881.558 199.281 908.144C381.318 939.825 453.084 969.188 574.856 895.116C714.292 813.249 772.915 719.168 867.049 642.052C944.187 570.212 1040.57 564.584 1145.78 544.118C1236.71 514.87 1304.39 593.31 1395.36 577.71C1499.04 554.098 1456.67 460.442 1727.01 258.555C2046.54 -9.78207 2316.66 136.529 2411.77 243.227" stroke="#4E3DB3" stroke-width="3.08"/>
<path d="M-79.4215 959.214C-47.0689 941.343 42.0642 898.364 192.292 923.77C366.979 953.853 442.694 979.968 565.64 907.065C707.608 825.768 763.707 731.6 851.457 652.764C923.626 578.763 1012.54 565.252 1119.51 539.324C1213.39 505.339 1279.34 583.48 1369.17 571.829C1470.65 552.832 1440.76 466.019 1709.24 259.52C2035.23 -20.7515 2306.3 130.588 2401.08 241.291" stroke="#5142AE" stroke-width="2"/>
<path d="M-78.7534 966.545C-46.2577 952.814 40.9272 916.848 186.034 941.237C353.383 969.909 433.061 992.878 557.108 921.156C701.526 840.447 755.012 746.107 836.297 665.505C903.423 589.292 984.842 567.932 1093.54 536.591C1190.32 497.899 1254.61 575.909 1343.28 568.278C1442.53 553.97 1425.06 473.88 1691.47 262.707C2023.62 -29.6199 2295.77 127.218 2390.33 242.178" stroke="#5447A9" stroke-width="2.1"/>
<path d="M-78.4053 976.155C-45.7228 966.536 39.6289 937.503 179.604 960.431C339.598 987.181 423.213 1006.72 548.577 936.145C695.693 855.967 746.813 761.671 821.856 679.404C884.145 601.096 958.147 571.768 1068.68 534.864C1168.5 491.371 1230.95 568.806 1318.51 565.009C1415.61 555.199 1410.74 482.168 1675.7 266.447C2014.85 -37.6734 2287.78 123.423 2381.86 241.986" stroke="#584BA4" stroke-width="2.3"/>
<path d="M-78.5967 984.625C-45.7547 979.141 37.6889 957.103 172.536 978.861C325.181 1004.02 412.751 1020.33 539.29 950.916C688.94 871.309 737.529 776.912 806.177 692.908C863.487 612.423 930.012 575.194 1042.31 532.821C1145.07 484.584 1205.8 561.738 1292.22 561.903C1387.12 556.723 1394.74 490.541 1657.84 270.182C2003.42 -45.9171 2277.34 120.269 2371.11 242.874" stroke="#5B509F" stroke-width="2.4"/>
<path d="M-77.1069 993.696C-44.1358 992.32 37.336 977.235 166.895 997.613C312.012 1020.95 403.427 1033.87 531.086 965.683C683.204 886.705 729.319 792.427 791.602 706.859C843.971 624.371 903.003 579.291 1016.99 531.452C1122.66 478.502 1181.52 555.084 1266.7 559.107C1359.31 558.458 1379.47 499.29 1640.69 274.642C1992.71 -52.8957 2267.14 117.581 2360.35 243.761" stroke="#5F559A" stroke-width="2.5"/>
<path d="M-76.1562 1001.63C-43.0258 1004.38 36.5384 996.29 160.971 1015.5C298.742 1037.25 394.11 1046.92 522.943 979.909C677.594 901.501 721.179 807.124 777.07 719.821C824.463 635.158 876.022 582.18 991.77 528.875C1100.38 471.183 1157.52 547.484 1241.57 555.467C1331.97 559.444 1364.62 507.123 1623.97 277.84C1982.43 -61.6685 2257.84 113.891 2350.74 244.109" stroke="#625A94" stroke-width="2.6"/>
<path d="M-75.2051 1009.56C-41.925 1016.46 35.7037 1015.38 154.964 1033.44C285.337 1053.62 384.619 1060.08 514.56 994.264C671.666 916.465 712.683 822 762.141 732.972C804.521 646.142 848.568 585.266 966.015 526.516C1077.51 464.106 1132.92 540.131 1215.8 552.095C1303.97 560.722 1349.09 515.275 1606.42 281.418C1971.08 -69.9769 2247.41 110.722 2339.99 244.996" stroke="#655E8F" stroke-width="2.6"/>
<path d="M-67.703 1031.36C-34.2516 1042.39 41.5008 1048.29 155.663 1065.12C278.719 1083.65 381.982 1086.82 513.166 1022.15C672.887 944.89 711.422 850.335 754.534 759.571C791.98 670.567 828.58 601.771 947.843 537.518C1062.35 470.337 1116.02 546.034 1197.78 561.93C1283.78 575.154 1341.43 536.576 1597.06 298.047C1968.4 -65.3701 2245.74 120.264 2337.99 258.508" stroke="#69638A" stroke-width="2.8"/>
<path d="M-58.7755 1059.15C-25.1528 1074.34 48.71 1087.26 157.752 1102.94C273.468 1119.89 380.691 1119.84 513.052 1056.34C675.308 979.658 711.297 884.968 747.996 792.425C780.444 701.201 809.542 624.447 930.555 554.707C1048 482.767 1099.96 558.217 1180.6 578.107C1264.42 595.993 1334.57 564.303 1588.31 321.073C1966.04 -54.4224 2244.43 136.44 2336.4 278.808" stroke="#6C6885" stroke-width="3"/>
<path d="M-49.7835 1087.07C-15.9909 1106.41 55.9798 1126.36 159.89 1140.85C268.249 1156.2 379.424 1152.9 512.963 1090.59C677.757 1014.48 711.209 919.679 741.502 825.373C768.962 731.945 790.557 647.233 913.32 572.002C1033.7 495.304 1083.94 570.474 1163.45 594.344C1245.08 616.879 1327.74 592.098 1579.6 344.198C1963.74 -43.3274 2243.14 152.669 2334.82 299.107" stroke="#6F6D80" stroke-width="3"/>
<path d="M-39.175 1115.46C-5.26687 1138.84 64.7289 1165.64 163.417 1178.76C264.328 1192.31 379.386 1185.62 514.1 1124.47C681.428 1048.94 712.459 954.271 736.466 858.454C759.056 763.077 773.265 670.654 897.806 589.994C1021.16 508.603 1069.54 583.192 1147.83 610.851C1227.17 637.841 1322.32 619.904 1572.49 367.737C1963.34 -31.1733 2243.26 168.946 2334.37 318.869" stroke="#73717B" stroke-width="3.4"/>
</svg>
