<svg width="1920" height="1401" viewBox="0 0 1920 1401" fill="none" xmlns="http://www.w3.org/2000/svg">
<path d="M-58.5599 905.79C-28.4165 830.104 84.1677 665.469 306.5 708.001C584.416 761.166 624.029 797.374 730.5 708.001C836.971 618.628 904.176 529.99 1089.53 529.99C1257 529.99 1433.66 653.555 1526 682.475C1607.5 708.001 1683.57 739.648 1778.5 658.001C1950 510.501 1910.5 436.501 2068.5 292.001C2261.45 115.536 2471.68 242.031 2571.49 297.57" stroke="#2200F5"/>
<path d="M-28.9766 1142.97C39.1412 1198.03 232.355 1241.37 504 1121.5C843.557 971.662 646.545 809.208 899 637C1151.46 464.792 1150.45 794.198 1564.18 390.85C1981.5 -16 2242.03 185.264 2332.78 339.169" stroke="#767676" stroke-width="4"/>
<path d="M-60.187 910.653C-29.8571 839.881 80.477 684.258 296.545 724.895C565.549 775.658 608.81 809.231 716.679 721.26C826.164 632.575 891.866 544.44 1069.58 540.589C1230.25 536.738 1399.16 650.434 1493.11 673.878C1576.74 694.088 1652.18 726.099 1746.54 648.836C1913.83 508.855 1881.12 437.499 2041.45 290.276C2245.08 102.841 2457.7 232.895 2557.08 293.119" stroke="#2606EF" stroke-width="1.14286"/>
<path d="M-61.7882 915.573C-31.2718 849.716 76.8122 703.104 286.615 741.846C546.708 790.207 593.617 821.145 702.883 734.576C815.383 646.58 879.581 558.948 1049.64 551.246C1203.52 543.544 1364.67 647.372 1460.24 665.338C1546 680.233 1620.81 712.608 1714.61 639.728C1877.68 507.267 1851.77 438.554 2014.42 288.609C2228.74 90.2029 2443.76 223.818 2542.71 288.726" stroke="#2A0BE9" stroke-width="1.28571"/>
<path d="M-63.3573 920.558C-32.6545 859.616 73.1794 722.016 276.718 758.862C527.899 804.822 578.455 833.124 689.119 747.957C804.634 660.649 867.329 573.52 1029.74 561.967C1176.82 550.415 1330.23 644.375 1427.4 656.863C1515.29 666.442 1589.48 699.182 1682.71 630.686C1841.57 505.744 1822.45 439.675 1987.43 287.007C2212.43 77.63 2429.84 214.806 2528.36 284.397" stroke="#2E11E3" stroke-width="1.42857"/>
<path d="M-64.8884 925.626C-33.9991 869.599 69.5848 741.01 266.858 775.961C509.128 819.519 563.332 845.187 675.394 761.421C793.923 674.801 855.115 588.175 1009.88 572.772C1150.16 557.368 1295.81 641.46 1394.61 648.471C1484.63 652.735 1558.18 685.839 1650.84 621.726C1805.49 504.304 1793.17 440.878 1960.48 285.488C2196.16 65.1398 2415.97 205.876 2514.05 280.152" stroke="#3216DD" stroke-width="1.57143"/>
<path d="M-66.3733 930.793C-35.2976 879.681 66.0363 760.102 257.045 793.158C490.403 834.316 548.255 857.347 661.715 774.984C783.259 689.052 842.947 602.929 990.064 583.675C1123.55 564.42 1261.45 638.644 1361.86 640.178C1454.01 639.126 1526.93 672.594 1619.03 612.865C1769.46 502.962 1763.93 442.18 1933.57 284.067C2179.94 52.7484 2402.14 197.045 2499.79 276.005" stroke="#361CD7" stroke-width="1.71429"/>
<path d="M-67.7996 936.08C-36.5375 889.884 62.5463 779.316 247.291 810.477C471.737 849.233 533.237 869.629 648.094 788.667C772.652 703.424 830.838 617.804 970.307 594.699C1097 571.594 1227.14 635.949 1329.17 632.006C1423.44 625.638 1495.74 659.471 1587.27 604.125C1733.49 501.741 1734.76 443.603 1906.72 282.767C2163.77 40.478 2388.37 188.335 2485.59 271.979" stroke="#3A22D1" stroke-width="1.85714"/>
<path d="M-69.1524 941.526C-37.7038 900.244 59.1299 798.688 237.609 827.953C453.144 864.307 518.292 882.069 634.546 802.509C762.12 717.954 818.802 632.837 950.623 605.881C1070.52 578.925 1192.91 633.412 1296.55 623.991C1392.96 612.307 1464.62 646.505 1555.58 595.543C1697.59 500.678 1705.65 445.183 1879.94 281.625C2147.68 28.3654 2374.67 179.783 2471.46 268.111" stroke="#3E27CB" stroke-width="2"/>
<path d="M-70.4102 947.172C-38.7752 910.805 55.8085 818.259 228.023 845.63C434.647 879.583 503.442 894.709 621.094 816.55C751.682 732.684 806.861 648.07 931.034 617.263C1044.13 586.456 1158.77 631.076 1264.02 616.177C1362.56 599.178 1433.6 633.74 1523.99 587.161C1661.79 499.816 1676.64 446.964 1853.26 280.684C2131.68 16.4531 2361.07 171.431 2457.43 264.443" stroke="#422DC5" stroke-width="2.14286"/>
<path d="M-71.5399 953.09C-39.7184 921.638 52.6152 838.104 218.565 863.579C416.277 895.13 488.72 907.621 607.77 830.864C741.373 747.686 795.048 663.576 911.573 628.918C1017.88 594.259 1124.76 629.011 1231.63 608.635C1332.3 586.32 1402.71 621.246 1492.53 579.051C1626.11 499.226 1647.76 449.018 1826.7 280.014C2115.81 4.81304 2347.6 163.352 2443.52 261.048" stroke="#4633BF" stroke-width="2.28571"/>
<path d="M-72.4926 959.384C-40.4846 932.847 49.5989 858.324 209.284 881.904C398.085 911.054 474.175 920.909 594.623 845.554C731.24 763.064 783.412 679.457 892.289 640.948C991.795 602.439 1090.93 627.323 1199.41 601.469C1302.21 573.838 1371.99 609.129 1461.25 571.317C1590.62 499.011 1619.06 451.447 1800.33 279.721C2100.12 -6.45105 2334.3 155.648 2429.8 258.028" stroke="#4A38B8" stroke-width="2.42857"/>
<path d="M-73.1829 966.231C-40.9885 944.608 46.845 879.096 200.266 900.781C380.155 927.53 459.893 934.75 581.738 860.797C721.37 778.995 772.039 695.891 873.268 653.531C965.978 611.171 1057.36 626.187 1167.45 594.856C1272.38 561.91 1341.53 597.565 1430.23 564.137C1555.38 499.35 1590.62 454.429 1774.21 279.981C2084.69 -17.1623 2321.26 148.497 2416.33 255.562" stroke="#4E3EB2" stroke-width="2.57143"/>
<path d="M-73.441 973.995C-41.0601 957.288 44.5233 900.787 191.679 920.577C362.657 944.924 446.042 949.509 569.286 876.957C711.932 795.844 761.098 713.243 854.679 667.032C940.592 620.821 1024.23 625.969 1135.93 589.161C1242.99 550.898 1311.51 586.918 1399.64 557.873C1520.58 500.606 1562.61 458.328 1748.53 281.158C2069.69 -26.956 2308.66 142.264 2403.3 254.012" stroke="#5243AC" stroke-width="2.71429"/>
<path d="M-72.355 984.605C-39.7877 972.813 43.5457 925.323 184.437 943.218C346.503 965.163 433.536 967.113 558.177 895.964C703.838 815.539 751.501 733.441 837.434 683.379C916.551 633.317 992.431 628.596 1105.75 586.311C1214.94 542.733 1282.83 579.117 1370.39 554.456C1487.12 504.708 1535.94 465.074 1724.19 285.181C2056.04 -33.9037 2297.4 138.877 2391.61 255.309" stroke="#5649A6" stroke-width="2.85714"/>
<path d="M-70.4917 996.863C-37.7379 989.986 43.3454 951.507 177.972 967.507C331.126 987.051 421.807 986.365 547.846 916.618C696.522 836.881 742.681 755.286 820.966 701.373C893.287 647.46 961.415 632.872 1076.35 585.109C1187.66 536.215 1254.93 572.964 1341.92 552.686C1454.44 510.457 1510.06 473.467 1700.63 290.851C2043.16 -39.204 2286.92 137.137 2380.7 258.253" stroke="#5A4FA0" stroke-width="3"/>
<path d="M-68.6284 1009.12C-35.6882 1007.16 43.145 977.691 171.507 991.795C315.75 1008.94 410.078 1005.62 537.515 937.271C689.205 858.223 733.861 777.131 804.498 719.367C870.023 661.604 930.399 637.147 1046.94 583.907C1160.39 529.697 1227.03 566.81 1313.45 550.916C1421.75 516.207 1484.17 481.86 1677.07 296.522C2030.29 -44.5043 2276.44 135.397 2369.78 261.198" stroke="#5E549A" stroke-width="3.14286"/>
<path d="M-66.7656 1021.38C-33.6389 1024.33 42.9442 1003.87 165.041 1016.08C300.373 1030.82 398.349 1024.87 527.183 957.923C681.888 879.563 725.041 798.974 788.03 737.36C846.759 675.745 899.382 641.42 1017.54 582.703C1133.12 523.177 1199.13 560.655 1284.98 549.144C1389.07 521.954 1458.28 490.251 1653.51 302.19C2017.41 -49.8066 2265.96 133.655 2358.87 264.14" stroke="#625A94" stroke-width="3.28571"/>
<path d="M-64.9023 1033.63C-31.5892 1041.5 42.7439 1030.06 158.576 1040.37C284.996 1052.71 386.62 1044.12 516.852 978.577C674.572 900.905 716.221 820.819 771.562 755.354C823.495 689.888 868.365 645.695 988.138 581.501C1105.85 516.66 1171.22 554.501 1256.52 547.374C1356.39 527.704 1432.39 498.644 1629.95 307.86C2004.53 -55.1069 2255.48 131.915 2347.96 267.084" stroke="#665F8E" stroke-width="3.42857"/>
<path d="M-61.1995 1049.79C-27.6999 1062.57 44.3831 1060.14 153.951 1068.55C271.459 1078.49 376.731 1067.27 508.361 1003.13C669.095 926.141 709.241 846.559 756.934 777.243C802.07 707.926 839.189 653.865 960.575 584.193C1080.41 514.036 1145.16 552.243 1229.89 549.499C1325.55 537.348 1408.35 510.932 1608.23 317.426C1993.5 -56.5125 2246.84 134.07 2338.89 273.923" stroke="#6A6588" stroke-width="3.57143"/>
<path d="M-51.1939 1079.29C-17.5078 1096.99 52.3251 1103.57 155.628 1110.09C264.225 1117.63 373.144 1103.77 506.172 1041.03C669.921 964.732 708.563 885.653 748.608 812.485C786.949 739.318 816.315 675.389 939.315 600.239C1061.28 524.767 1125.4 563.337 1209.56 564.977C1301.01 560.345 1390.6 536.573 1592.81 340.344C1988.76 -44.5646 2244.5 149.579 2336.11 294.116" stroke="#6E6B82" stroke-width="3.71429"/>
<path d="M-41.1832 1108.81C-7.31074 1131.42 60.2721 1147.01 157.311 1151.64C256.996 1156.77 369.563 1140.27 503.988 1078.94C670.752 1003.33 707.891 924.754 740.288 847.735C771.832 770.717 793.446 696.92 918.059 616.293C1042.16 535.505 1105.65 574.44 1189.24 580.463C1276.47 583.351 1372.86 562.222 1577.4 363.271C1984.03 -32.609 2242.16 165.095 2333.35 314.316" stroke="#72707C" stroke-width="3.85714"/>
</svg>
