<svg width="1549" height="978" viewBox="0 0 1549 978" fill="none" xmlns="http://www.w3.org/2000/svg">
<path d="M24.897 945.255C48.7674 885.319 140.524 773.868 316.587 807.549C536.666 849.65 552.998 906.644 637.312 835.87C721.625 765.097 793.875 691.17 934.062 647.662C1046.21 612.856 1199.48 689.741 1264.74 729.907C1306.43 755.571 1378.09 821.287 1461.97 768.414C1566.82 702.323 1404.54 557.172 1637.52 444.419C1823.9 354.217 2028.57 419.629 2107.61 463.61" stroke="#2200F5"/>
<path d="M48.3236 1133.08C102.266 1176.68 263.928 1240.14 479.042 1145.21C747.934 1026.56 569.262 845.156 769.179 708.786C969.096 572.416 916.887 944.034 1309.93 537.479C1624.37 212.235 1846.71 374.677 1918.58 496.553" stroke="#767676" stroke-width="4"/>
<path d="M23.525 947.033C47.489 890.353 137.663 784.424 309.615 817.226C523.815 858.133 543.282 912.566 628.473 842.73C714.739 772.42 784.951 698.444 920.032 653.624C1028.21 617.149 1175.55 687.874 1242.19 723.75C1286.21 745.689 1356.49 811.19 1439.42 761.449C1542.47 699.021 1390.07 559.198 1621.47 442.869C1812.88 343.296 2018.24 412.718 2097 459.875" stroke="#2605F0" stroke-width="1.16"/>
<path d="M21.6473 950.083C45.7843 896.723 134.54 796.38 302.403 828.031C510.751 867.405 533.291 919.16 619.479 850.273C707.818 780.437 776.11 706.453 906.192 660.229C1010.48 622.014 1151.86 686.277 1219.87 717.719C1266.21 735.84 1335.06 800.926 1417.12 754.295C1518.48 695.505 1376.08 561.437 1606.15 441.441C1802.78 332.433 2008.82 405.48 2087.25 455.629" stroke="#2909EB" stroke-width="1.32"/>
<path d="M19.4114 952.374C43.6878 902.265 130.977 807.414 294.831 838.09C497.427 876.152 523.088 925.325 610.252 857.341C700.645 787.933 766.987 713.877 892.08 666.279C992.489 626.346 1128.01 684.363 1197.44 711.473C1246.13 725.84 1313.61 790.664 1394.8 747.128C1494.46 691.957 1361.91 563.317 1590.64 439.642C1792.5 321.177 1999.33 398.109 2077.51 451.382" stroke="#2C0EE6" stroke-width="1.48"/>
<path d="M18.1434 954.373C42.5122 907.466 128.243 818.051 288.112 847.957C484.982 884.958 513.814 931.65 601.888 864.549C694.266 795.549 758.581 721.366 878.631 672.434C975.115 630.812 1104.82 682.79 1175.69 705.671C1226.74 716.348 1292.92 781.077 1373.2 740.652C1471.1 689.117 1348.29 565.589 1575.55 438.252C1782.52 310.324 1990.21 391.475 2068.19 448.041" stroke="#3013E1" stroke-width="1.64"/>
<path d="M17.2628 957.193C41.7687 913.63 125.979 829.857 281.619 858.625C472.465 894.113 504.358 938.099 593.338 872C687.697 803.527 750.024 729.399 864.962 679.13C957.47 635.825 1081.12 681.359 1153.3 699.813C1206.64 706.679 1271.33 770.961 1350.66 733.676C1446.77 685.817 1334.04 568.07 1559.75 437.2C1771.77 299.974 1979.95 384.704 2057.54 444.222" stroke="#3318DC" stroke-width="1.8"/>
<path d="M16.0602 959.332C40.6506 918.999 123.27 840.71 274.853 868.7C459.889 903.114 494.936 944.605 584.782 879.422C681.08 811.392 741.347 737.163 851.183 685.57C939.718 640.583 1057.48 680.04 1131.07 694.253C1186.74 697.424 1250.1 761.591 1328.49 727.444C1422.8 683.252 1319.86 570.684 1543.98 436.198C1760.98 289.548 1969.95 378.5 2047.31 441.307" stroke="#361CD7" stroke-width="1.96"/>
<path d="M14.373 962.784C39.1534 925.77 120.396 853.056 267.896 879.786C447.087 912.54 485.198 951.29 576.098 887.047C674.532 819.478 732.94 745.281 837.833 692.292C922.532 645.578 1034.35 678.523 1109.33 688.26C1167.35 687.586 1229.24 751.238 1306.78 720.163C1399.43 679.569 1306.54 572.856 1529.47 434.712C1751.88 278.661 1961.48 370.972 2038.47 436.634" stroke="#3A21D1" stroke-width="2.12"/>
<path d="M13.2748 965.142C38.1488 931.375 117.813 864.172 261.235 890.071C434.587 921.689 475.838 957.915 567.609 894.601C667.987 827.489 724.345 753.209 824.136 698.89C904.86 650.49 1010.77 677.3 1087.13 682.769C1147.48 678.382 1208.02 741.875 1284.62 713.94C1375.47 677.017 1292.42 575.573 1513.76 433.82C1741.15 268.357 1951.5 364.81 2028.25 433.719" stroke="#3D26CC" stroke-width="2.28"/>
<path d="M12.2459 967.648C37.2368 937.134 115.378 875.437 254.759 900.448C422.317 930.856 466.706 964.536 559.402 902.137C661.78 835.465 716.131 761.098 810.867 705.418C887.658 655.308 987.68 675.924 1065.45 677.091C1128.13 668.968 1187.32 732.266 1263.01 707.458C1352.13 674.187 1278.91 578.085 1498.78 432.67C1731.28 257.743 1942.42 358.256 2018.93 430.378" stroke="#402AC7" stroke-width="2.44"/>
<path d="M10.8163 971.647C35.9456 944.432 112.592 888.303 247.82 912.189C409.451 941.104 456.912 972.095 550.554 910.659C654.955 844.474 707.358 770.148 797.056 713.141C869.932 661.359 963.984 675.611 1043.11 672.38C1108.11 660.468 1165.84 723.333 1240.61 701.619C1327.96 671.976 1264.76 581.548 1483.21 432.586C1720.89 248.371 1932.58 352.415 2008.71 427.463" stroke="#442FC2" stroke-width="2.6"/>
<path d="M10.0123 974.628C35.2386 950.663 110.315 900.046 241.498 923.159C397.329 951.002 447.942 979.511 542.45 918.997C648.788 853.263 699.123 778.807 783.711 720.438C852.602 666.937 940.754 675.059 1021.27 667.574C1088.59 651.955 1145 714.73 1218.84 696.179C1304.42 670.226 1251.01 585.021 1467.84 432.392C1710.45 238.682 1922.98 347.053 1998.91 425.452" stroke="#4734BD" stroke-width="2.76"/>
<path d="M8.45341 978.354C33.8392 957.658 107.489 912.549 234.644 934.553C384.695 960.925 438.428 986.767 533.976 927.155C642.441 861.842 690.884 787.365 770.52 727.625C835.569 672.415 917.844 674.197 999.803 662.31C1069.51 642.889 1124.51 705.28 1197.49 689.796C1281.39 667.436 1237.93 587.812 1453.57 431.505C1701.62 228.347 1914.88 340.309 1990.5 421.684" stroke="#4A39B8" stroke-width="2.92"/>
<path d="M8.45818 983.049C33.9542 965.629 106.052 926.067 229.079 947.12C373.233 972.208 430.064 995.46 526.494 936.803C636.912 871.974 683.335 797.471 757.879 736.404C818.964 679.515 895.287 675.057 978.602 658.851C1050.61 635.69 1104.21 697.805 1176.25 685.452C1258.35 666.754 1224.8 592.589 1438.87 432.716C1691.91 220.222 1905.81 336.085 1981.13 420.578" stroke="#4E3DB3" stroke-width="3.08"/>
<path d="M8.37715 987.562C33.9969 973.41 104.581 939.375 223.545 959.494C361.878 983.317 421.836 1004 519.196 946.266C631.619 881.887 676.043 807.317 745.532 744.887C802.682 686.286 873.093 675.587 957.802 655.054C1032.14 628.142 1084.37 690.021 1155.5 680.795C1235.86 665.752 1212.19 597.005 1424.8 433.48C1682.95 211.536 1897.61 331.38 1972.67 419.045" stroke="#5142AE" stroke-width="2"/>
<path d="M8.90625 993.367C34.6393 982.494 103.68 954.013 218.59 973.326C351.111 996.031 414.208 1014.22 512.439 957.424C626.803 893.511 669.158 818.804 733.527 754.976C786.683 694.624 851.159 677.709 937.233 652.89C1013.88 622.251 1064.78 684.026 1135 677.983C1213.6 666.653 1199.76 603.23 1410.73 436.004C1673.76 204.513 1889.27 328.711 1964.15 419.747" stroke="#5447A9" stroke-width="2.1"/>
<path d="M9.18164 1000.98C35.0626 993.36 102.652 970.369 213.497 988.526C340.195 1009.71 406.409 1025.19 505.684 969.294C622.183 905.801 662.665 831.129 722.091 765.982C771.417 703.971 830.019 680.747 917.549 651.523C996.595 617.081 1046.05 678.401 1115.39 675.394C1192.28 667.626 1188.43 609.793 1398.24 438.965C1666.81 198.135 1882.95 325.706 1957.45 419.595" stroke="#584BA4" stroke-width="2.3"/>
<path d="M9.03027 1007.68C35.0375 1003.34 101.116 985.89 207.9 1003.12C328.778 1023.05 398.124 1035.96 498.329 980.991C616.836 917.95 655.313 843.198 709.675 776.676C755.058 712.941 807.739 683.46 896.664 649.905C978.045 611.706 1026.14 672.804 1094.57 672.935C1169.72 668.833 1175.76 616.424 1384.1 441.923C1657.76 191.607 1874.68 323.208 1948.93 420.298" stroke="#5B509F" stroke-width="2.4"/>
<path d="M10.21 1014.87C36.3196 1013.78 100.836 1001.83 203.433 1017.97C318.35 1036.45 390.741 1046.68 491.833 992.685C612.294 930.142 648.812 855.485 698.134 787.724C739.604 722.403 786.351 686.704 876.617 648.821C960.293 606.89 1006.9 667.535 1074.36 670.721C1147.7 670.207 1163.66 623.352 1370.52 445.455C1649.28 186.081 1866.6 321.079 1940.41 421.001" stroke="#5F559A" stroke-width="2.5"/>
<path d="M10.9629 1021.15C37.1986 1023.33 100.205 1016.92 198.742 1032.13C307.842 1049.36 383.362 1057.02 485.385 1003.95C607.851 941.86 642.366 867.123 686.626 797.989C724.156 730.945 764.984 688.992 856.645 646.78C942.654 601.094 987.899 661.516 1054.46 667.838C1126.05 670.988 1151.9 629.555 1357.28 447.988C1641.14 179.134 1859.24 318.158 1932.8 421.277" stroke="#625A94" stroke-width="2.6"/>
<path d="M11.7158 1027.43C38.07 1032.89 99.5435 1032.04 193.985 1046.34C297.226 1062.32 375.846 1067.43 478.746 1015.32C603.156 953.71 635.638 878.903 674.803 808.403C708.363 739.643 743.244 691.435 836.249 644.912C924.544 595.49 968.42 655.694 1034.05 665.168C1103.88 672 1139.6 636.01 1343.38 450.821C1632.15 172.554 1850.97 315.648 1924.29 421.979" stroke="#655E8F" stroke-width="2.6"/>
<path d="M17.6566 1044.7C44.1465 1053.43 104.134 1058.1 194.538 1071.43C291.985 1086.1 373.758 1088.61 477.642 1037.4C604.124 976.219 634.639 901.342 668.779 829.467C698.432 758.985 727.415 704.506 821.859 653.625C912.532 600.425 955.034 660.368 1019.78 672.956C1087.89 683.428 1133.53 652.879 1335.97 463.989C1630.03 176.202 1849.65 323.204 1922.71 432.679" stroke="#69638A" stroke-width="2.8"/>
<path d="M24.7264 1066.7C51.352 1078.73 109.843 1088.96 196.193 1101.37C287.827 1114.8 372.736 1114.76 477.552 1064.48C606.041 1003.75 634.54 928.768 663.602 855.484C689.298 783.244 712.339 722.463 808.169 667.236C901.17 610.268 942.321 670.016 1006.18 685.767C1072.55 699.93 1128.1 674.835 1329.04 482.224C1628.16 184.872 1848.61 336.014 1921.45 448.754" stroke="#6C6885" stroke-width="3"/>
<path d="M31.8471 1088.81C58.6072 1104.13 115.6 1119.92 197.885 1131.4C283.694 1143.55 371.733 1140.94 477.481 1091.59C607.98 1031.33 634.471 956.255 658.46 881.574C680.205 807.59 697.306 740.507 794.52 680.933C889.849 620.196 929.636 679.722 992.599 698.625C1057.24 716.47 1122.7 696.846 1322.14 500.536C1626.34 193.658 1847.59 348.866 1920.19 464.83" stroke="#6F6D80" stroke-width="3"/>
<path d="M40.2477 1111.29C67.0993 1129.81 122.528 1151.03 200.679 1161.42C280.59 1172.15 371.702 1166.85 478.382 1118.43C610.887 1058.62 635.46 983.648 654.471 907.771C672.36 832.243 683.612 759.054 782.235 695.18C879.916 630.727 918.227 689.794 980.223 711.696C1043.06 733.07 1118.4 718.865 1316.51 519.176C1626.02 203.283 1847.69 361.755 1919.84 480.478" stroke="#73717B" stroke-width="3.4"/>
</svg>
