<svg width="1920" height="1502" viewBox="0 0 1920 1502" fill="none" xmlns="http://www.w3.org/2000/svg">
<path d="M-32.0458 833.608C-4.75581 754.062 100.408 619.517 302.743 717.699C555.661 840.426 574.55 927.085 671.253 848.998C767.955 770.91 850.793 684.878 1011.74 661.814C1140.5 643.362 1316.75 797.308 1391.8 873.549C1439.76 922.264 1522.22 1037.09 1618.47 984.655C1738.78 919.106 1552.03 664.341 1819.42 567.782C2033.33 490.535 2268.61 642.473 2359.5 728.097" stroke="#2200F5"/>
<path d="M-4.71848 1110.61C57.3459 1188.6 243.203 1325.59 490.115 1249.66C798.756 1154.74 593.098 843.16 822.462 703.27C1051.82 563.38 992.667 1083.62 1443.3 609.288C1803.8 229.819 2059.59 526.43 2142.42 722.168" stroke="#767676" stroke-width="5"/>
<path d="M-33.6166 835.785C-6.21169 760.952 97.1458 633.909 294.756 729.666C540.919 849.016 563.402 932.873 661.115 856.383C760.063 779.514 840.558 692.836 995.64 666.441C1119.83 644.465 1289.25 787.87 1365.89 858.327C1416.51 902.335 1497.39 1016.47 1592.55 968.268C1710.79 907.483 1535.41 663.177 1800.99 561.026C2020.66 471.708 2256.73 629.612 2347.31 719.729" stroke="#2605F0" stroke-width="1.16"/>
<path d="M-35.7677 839.644C-8.15673 769.64 93.5842 650.238 286.495 743.183C525.931 858.675 551.938 939.543 650.798 864.701C752.128 789.099 830.419 701.867 979.755 672.04C1099.48 646.462 1262.04 778.883 1340.23 843.342C1393.51 882.509 1472.74 995.639 1566.91 951.672C1683.22 895.648 1519.34 662.449 1783.38 554.642C2009.03 453.217 2245.88 616.529 2336.1 710.864" stroke="#2909EB" stroke-width="1.32"/>
<path d="M-38.3311 842.311C-10.553 777.026 89.5153 665.116 277.818 755.527C510.643 867.505 540.231 945.538 640.215 872.272C743.905 797.866 819.954 709.98 963.556 676.766C1078.82 647.621 1234.63 769.394 1314.45 828.018C1370.42 862.445 1448.08 974.812 1541.26 935.055C1655.62 883.76 1503.06 661.156 1765.55 547.674C1997.19 434.111 2234.97 603.24 2324.9 702" stroke="#2C0EE6" stroke-width="1.48"/>
<path d="M-39.7829 844.832C-11.8915 784.184 86.399 679.659 270.121 767.836C496.366 876.672 529.592 952.027 630.622 880.289C736.594 807.032 810.315 718.391 948.12 681.833C1058.87 649.148 1207.99 760.585 1289.45 813.528C1348.13 843.31 1424.29 955.173 1516.43 919.637C1628.78 873.08 1487.42 660.585 1748.22 541.416C1985.7 415.671 2224.48 591.118 2314.18 694.56" stroke="#3013E1" stroke-width="1.64"/>
<path d="M-40.789 848.64C-12.7328 792.844 83.8231 696.013 262.685 781.359C482.007 886.315 518.742 958.64 620.816 888.599C729.064 816.659 800.502 727.537 932.432 687.611C1038.61 651.38 1180.75 751.832 1263.72 798.772C1325.01 823.714 1399.47 934.513 1490.52 903.229C1600.82 861.459 1471.06 660.131 1730.07 535.44C1973.33 397.733 2212.68 578.471 2301.94 686.054" stroke="#3318DC" stroke-width="1.8"/>
<path d="M-42.1654 851.379C-14.0049 800.256 80.7348 710.872 254.935 793.951C467.579 895.723 507.933 965.345 611.004 896.867C721.481 826.113 790.552 736.263 916.617 692.992C1018.23 653.218 1153.6 743.262 1238.17 784.492C1302.13 804.772 1375.06 915.032 1465.03 887.998C1573.28 851 1454.78 659.892 1711.95 529.546C1960.92 379.679 2201.18 566.718 2290.19 678.971" stroke="#361CD7" stroke-width="1.96"/>
<path d="M-44.0956 855.876C-15.7096 809.585 77.4608 727.838 246.968 807.951C452.894 905.682 496.761 972.223 601.044 905.396C713.976 835.909 780.911 745.581 901.296 698.905C998.494 655.562 1127.02 734.552 1213.18 769.732C1279.83 785.138 1351.07 894.241 1440.08 871.392C1546.43 839.105 1439.48 659.261 1695.27 523.313C1950.44 361.44 2191.43 553.492 2280.02 669.752" stroke="#3A21D1" stroke-width="2.12"/>
<path d="M-45.3527 858.959C-16.8519 817.37 74.5179 743.109 239.338 820.877C438.553 915.324 486.022 979.118 591.309 913.875C706.475 845.593 771.055 754.567 885.574 704.536C978.203 657.644 1099.93 726.135 1187.67 755.561C1256.98 766.279 1326.67 874.772 1414.6 856.177C1518.9 828.668 1423.26 659.186 1677.23 517.594C1938.09 343.578 2179.95 541.804 2268.27 662.669" stroke="#3D26CC" stroke-width="2.28"/>
<path d="M-46.5287 862.278C-17.8866 825.404 71.7453 758.641 231.921 833.988C424.478 925.059 475.547 986.074 581.897 922.408C699.362 855.325 761.636 763.606 870.346 710.191C958.452 659.726 1073.4 717.638 1162.75 741.268C1234.74 747.269 1302.88 855.1 1389.77 840.749C1492.07 818.006 1407.76 658.992 1660.02 511.714C1926.73 325.513 2169.51 529.808 2257.56 655.231" stroke="#402AC7" stroke-width="2.44"/>
<path d="M-48.163 867.628C-19.3545 835.543 68.5725 776.373 223.975 848.929C409.719 936.177 464.311 994.189 571.751 932.176C691.54 866.365 751.578 774.156 854.496 717.407C938.101 663.432 1046.18 710.496 1137.08 728.18C1211.72 729.378 1278.18 836.173 1364.02 826.018C1464.31 808 1391.5 659.979 1642.13 507.193C1914.77 309.085 2158.18 518.617 2245.81 648.146" stroke="#442FC2" stroke-width="2.6"/>
<path d="M-49.0796 871.696C-20.1525 844.316 65.9837 792.639 216.737 862.94C395.816 947.008 454.023 1002.34 562.46 941.895C684.476 877.279 742.137 784.3 839.182 724.147C918.206 666.573 1019.49 703.147 1111.97 715.097C1189.28 711.615 1254.22 817.908 1339 812.043C1437.26 798.836 1375.71 661.1 1624.48 502.58C1902.75 292.192 2147.14 508.191 2234.55 642.489" stroke="#4734BD" stroke-width="2.76"/>
<path d="M-50.862 876.617C-21.7445 853.988 62.7641 809.838 208.888 877.406C381.324 957.725 443.109 1010.09 552.743 951.245C677.204 887.835 732.69 794.293 824.044 730.769C898.65 669.649 993.171 695.437 1087.3 701.458C1167.34 693.176 1230.66 798.517 1314.46 796.827C1410.79 788.317 1360.69 661.424 1608.08 497.271C1892.58 274.819 2137.82 496.193 2224.88 634.687" stroke="#4A39B8" stroke-width="2.92"/>
<path d="M-50.8458 883.379C-21.5944 865.497 61.1439 828.894 202.523 893.928C368.182 970.733 433.52 1020.25 544.17 963.024C670.874 900.862 724.041 806.712 809.542 739.84C879.59 675.184 967.261 690.31 1062.94 690.496C1145.61 677.478 1207.32 782.027 1290.05 784.577C1384.33 780.834 1345.62 664.596 1591.19 494.867C1881.42 260.384 2127.4 487.555 2214.11 630.451" stroke="#4E3DB3" stroke-width="3.08"/>
<path d="M-50.9296 889.851C-21.5289 876.709 59.4823 847.636 196.192 910.178C355.161 983.519 424.087 1030.21 535.806 974.584C664.815 913.638 715.685 818.825 795.376 748.564C860.9 680.334 941.765 684.806 1039.03 679.157C1124.38 661.398 1184.51 765.221 1266.21 772.017C1358.49 773.043 1331.15 667.394 1575.03 491.994C1871.1 245.347 2117.96 478.464 2204.39 625.853" stroke="#5142AE" stroke-width="3.24"/>
<path d="M-50.3085 898.36C-20.7704 889.97 58.4808 868.456 190.531 928.694C342.821 998.786 415.346 1042.78 528.069 988.744C659.308 929.015 707.801 833.422 781.607 759.704C842.54 687.824 916.572 681.672 1015.4 670.238C1103.38 647.763 1162 751.064 1242.65 762.184C1332.92 768.058 1316.88 672.849 1558.88 491.659C1860.53 232.646 2108.38 472.273 2194.6 624.464" stroke="#5447A9" stroke-width="3.4"/>
<path d="M-49.9761 909.393C-20.2609 905.731 57.3347 891.712 184.713 949.137C330.31 1015.39 406.41 1056.36 520.334 1003.92C654.028 945.403 700.369 849.331 768.493 772.319C825.022 696.971 892.292 680.078 992.782 662.713C1083.51 635.441 1140.46 737.678 1220.11 752.92C1308.43 763.44 1303.87 679.096 1544.53 492.395C1852.53 221.501 2101.11 466.16 2186.9 622.351" stroke="#584BA4" stroke-width="3.56"/>
<path d="M-50.1349 919.006C-20.2674 920.095 55.6046 913.622 178.316 968.568C317.224 1031.37 396.917 1069.53 511.911 1018.69C647.912 961.383 691.949 864.631 754.253 784.21C806.249 705.267 866.704 677.695 968.786 654.489C1062.19 622.469 1117.57 724 1196.19 743.504C1282.51 758.81 1289.33 685.066 1528.29 492.662C1842.12 209.55 2091.61 460.231 2177.12 620.96" stroke="#5B509F" stroke-width="3.72"/>
<path d="M-48.7633 929.681C-18.7711 935.481 55.3192 936.494 173.218 988.685C305.274 1047.73 388.459 1082.88 504.474 1033.69C642.721 977.653 684.509 880.484 741.02 796.857C788.517 714.526 842.14 676.329 945.755 647.271C1041.79 610.525 1095.47 710.986 1172.97 734.613C1257.22 754.572 1275.46 691.627 1512.69 493.912C1832.36 199.201 2082.32 454.886 2167.34 619.567" stroke="#5F559A" stroke-width="3.88"/>
<path d="M-47.884 938.936C-17.7398 949.484 54.6275 958.04 167.86 1007.75C293.231 1063.34 380.006 1095.69 497.092 1048.09C637.644 993.269 677.129 895.42 727.823 808.387C770.79 722.464 817.601 673.593 922.807 638.696C1021.51 597.204 1073.62 696.958 1150.1 724.845C1232.35 749.587 1261.96 697.238 1497.49 493.824C1823 186.903 2073.86 448.603 2158.6 617.818" stroke="#625A94" stroke-width="4.04"/>
<path d="M-47.0059 948.187C-16.7182 963.494 53.9004 979.615 162.426 1026.86C281.064 1079.01 371.394 1108.56 489.49 1062.58C632.276 1009 669.426 910.479 714.263 820.041C752.665 730.527 792.63 670.972 899.371 630.249C1000.69 584.023 1051.23 683.077 1126.65 715.241C1206.88 744.784 1247.84 703.057 1481.53 493.977C1812.66 174.894 2064.36 442.657 2148.82 616.424" stroke="#655E8F" stroke-width="4.2"/>
<path d="M-40.1426 974.725C-9.69191 994.776 59.232 1018.43 163.117 1063.13C275.096 1111.76 369.042 1138.46 488.271 1094.06C633.437 1041.68 668.328 942.5 707.39 848.665C741.3 755.569 774.475 685.323 882.859 638.731C986.907 587.738 1035.87 686.029 1110.28 722.426C1188.54 756.726 1240.91 725.63 1473.05 510.844C1810.23 179.549 2062.86 453.163 2147.02 631.382" stroke="#69638A" stroke-width="4.36"/>
<path d="M-31.973 1008.39C-1.35919 1033.23 65.858 1064.47 165.084 1106.71C270.382 1151.9 367.925 1175.81 488.226 1133.01C635.7 1081.86 668.274 981.953 701.498 884.656C730.859 787.913 757.195 706.916 867.162 654.461C973.876 598.699 1021.28 696.328 1094.68 737.027C1170.96 776.153 1234.72 755.705 1465.13 535.136C1808.1 191.499 2061.69 471.308 2145.61 654.167" stroke="#6C6885" stroke-width="4.52"/>
<path d="M-23.7451 1042.23C7.0305 1071.84 72.5386 1110.66 167.093 1150.41C265.696 1192.13 366.829 1213.22 488.203 1172.03C637.987 1122.1 668.254 1021.5 695.648 920.764C720.465 820.394 739.963 728.648 851.512 670.325C960.891 609.795 1006.73 706.72 1079.1 751.705C1153.4 795.64 1228.56 785.866 1457.25 559.553C1806.03 203.634 2060.54 489.521 2144.2 676.954" stroke="#6F6D80" stroke-width="4.68"/>
<path d="M-14.0435 1076.97C16.8443 1111.21 80.5677 1157.4 170.369 1194.42C262.194 1232.42 366.853 1250.51 489.299 1210.91C641.388 1162.21 669.453 1061.22 691.125 957.352C711.509 853.671 724.274 751.485 837.431 687.369C949.504 622.153 993.646 718 1064.92 767.029C1137.15 815.535 1223.67 816.352 1450.82 584.798C1805.69 217.401 2060.69 508.106 2143.83 699.383" stroke="#73717B" stroke-width="4.84"/>
</svg>
