<svg width="595" height="71" viewBox="0 0 595 71" fill="none" xmlns="http://www.w3.org/2000/svg">
<path d="M38.0381 43.2812C37.7695 45.6494 36.5366 48.0542 34.3394 50.4956C30.9214 54.3774 26.1362 56.3184 19.9839 56.3184C14.9058 56.3184 10.4258 54.6826 6.54395 51.4111C2.66211 48.1396 0.721191 42.8174 0.721191 35.4443C0.721191 28.5352 2.4668 23.2373 5.95801 19.5508C9.47363 15.8643 14.0269 14.021 19.6177 14.021C22.938 14.021 25.9287 14.6436 28.5898 15.8887C31.251 17.1338 33.4482 19.0991 35.1816 21.7847C36.7441 24.1528 37.7573 26.8994 38.2212 30.0244C38.4897 31.8555 38.5996 34.4922 38.5508 37.9346H11.2314C11.3779 41.9385 12.6353 44.7461 15.0034 46.3574C16.4438 47.3584 18.1772 47.8589 20.2036 47.8589C22.3521 47.8589 24.0977 47.2485 25.4404 46.0278C26.1729 45.3687 26.8198 44.4531 27.3813 43.2812H38.0381ZM27.7109 31.0498C27.54 28.291 26.6978 26.2036 25.1841 24.7876C23.6948 23.3472 21.8394 22.627 19.6177 22.627C17.2007 22.627 15.3208 23.3838 13.978 24.8975C12.6597 26.4111 11.8296 28.4619 11.4878 31.0498H27.7109ZM45.8384 1.02051H56.2754V55H45.8384V1.02051ZM100.66 43.2812C100.392 45.6494 99.1587 48.0542 96.9614 50.4956C93.5435 54.3774 88.7583 56.3184 82.606 56.3184C77.5278 56.3184 73.0479 54.6826 69.166 51.4111C65.2842 48.1396 63.3433 42.8174 63.3433 35.4443C63.3433 28.5352 65.0889 23.2373 68.5801 19.5508C72.0957 15.8643 76.6489 14.021 82.2397 14.021C85.5601 14.021 88.5508 14.6436 91.2119 15.8887C93.873 17.1338 96.0703 19.0991 97.8037 21.7847C99.3662 24.1528 100.379 26.8994 100.843 30.0244C101.112 31.8555 101.222 34.4922 101.173 37.9346H73.8535C74 41.9385 75.2573 44.7461 77.6255 46.3574C79.0659 47.3584 80.7993 47.8589 82.8257 47.8589C84.9741 47.8589 86.7197 47.2485 88.0625 46.0278C88.7949 45.3687 89.4419 44.4531 90.0034 43.2812H100.66ZM90.333 31.0498C90.1621 28.291 89.3198 26.2036 87.8062 24.7876C86.3169 23.3472 84.4614 22.627 82.2397 22.627C79.8228 22.627 77.9429 23.3838 76.6001 24.8975C75.2817 26.4111 74.4517 28.4619 74.1099 31.0498H90.333ZM142.774 29.4019H132.081C131.886 27.9126 131.385 26.5698 130.58 25.3735C129.408 23.7622 127.589 22.9565 125.123 22.9565C121.607 22.9565 119.203 24.7021 117.909 28.1934C117.225 30.0488 116.883 32.5146 116.883 35.5908C116.883 38.5205 117.225 40.8765 117.909 42.6587C119.154 45.979 121.498 47.6392 124.94 47.6392C127.381 47.6392 129.115 46.98 130.14 45.6616C131.166 44.3433 131.788 42.6343 132.008 40.5347H142.665C142.42 43.7085 141.273 46.7114 139.222 49.5435C135.951 54.1089 131.104 56.3916 124.684 56.3916C118.263 56.3916 113.539 54.4873 110.511 50.6787C107.484 46.8701 105.97 41.9263 105.97 35.8472C105.97 28.9868 107.643 23.6523 110.987 19.8438C114.332 16.0352 118.946 14.1309 124.83 14.1309C129.835 14.1309 133.924 15.2539 137.098 17.5C140.296 19.7461 142.188 23.7134 142.774 29.4019ZM168.263 47.5659V55.3662L163.319 55.5493C158.387 55.7202 155.018 54.8657 153.211 52.9858C152.04 51.7896 151.454 49.9463 151.454 47.4561V22.8833H145.887V15.4492H151.454V4.31641H161.781V15.4492H168.263V22.8833H161.781V43.9771C161.781 45.6128 161.988 46.6382 162.403 47.0532C162.818 47.4438 164.088 47.6392 166.212 47.6392C166.529 47.6392 166.859 47.6392 167.201 47.6392C167.567 47.6147 167.921 47.5903 168.263 47.5659ZM195.033 24.7144C190.833 24.7144 188.014 26.0815 186.573 28.8159C185.768 30.354 185.365 32.7222 185.365 35.9204V55H174.854V15.083H184.815V22.041C186.427 19.3799 187.831 17.561 189.027 16.5845C190.98 14.9487 193.519 14.1309 196.644 14.1309C196.839 14.1309 196.998 14.1431 197.12 14.1675C197.267 14.1675 197.572 14.1797 198.036 14.2041V24.8975C197.376 24.8242 196.791 24.7754 196.278 24.751C195.765 24.7266 195.35 24.7144 195.033 24.7144ZM237.477 20.1367C240.846 24.3604 242.53 29.353 242.53 35.1147C242.53 40.9741 240.846 45.9912 237.477 50.166C234.107 54.3164 228.993 56.3916 222.132 56.3916C215.272 56.3916 210.157 54.3164 206.788 50.166C203.419 45.9912 201.734 40.9741 201.734 35.1147C201.734 29.353 203.419 24.3604 206.788 20.1367C210.157 15.9131 215.272 13.8013 222.132 13.8013C228.993 13.8013 234.107 15.9131 237.477 20.1367ZM222.096 22.627C219.044 22.627 216.688 23.7134 215.028 25.8862C213.392 28.0347 212.574 31.1108 212.574 35.1147C212.574 39.1187 213.392 42.207 215.028 44.3799C216.688 46.5527 219.044 47.6392 222.096 47.6392C225.147 47.6392 227.491 46.5527 229.127 44.3799C230.763 42.207 231.581 39.1187 231.581 35.1147C231.581 31.1108 230.763 28.0347 229.127 25.8862C227.491 23.7134 225.147 22.627 222.096 22.627ZM283.473 19.3677C286.695 22.8101 288.307 27.8638 288.307 34.5288C288.307 41.5601 286.72 46.9189 283.546 50.6055C280.396 54.292 276.332 56.1353 271.351 56.1353C268.177 56.1353 265.541 55.3418 263.441 53.7549C262.293 52.876 261.17 51.5942 260.072 49.9097V70.7104H249.745V15.083H259.742V20.979C260.865 19.2456 262.062 17.8784 263.331 16.8774C265.65 15.0952 268.409 14.2041 271.607 14.2041C276.271 14.2041 280.226 15.9253 283.473 19.3677ZM277.54 35.0415C277.54 31.9653 276.832 29.2432 275.416 26.875C274.024 24.5068 271.754 23.3228 268.604 23.3228C264.82 23.3228 262.22 25.1172 260.804 28.7061C260.072 30.6104 259.706 33.0273 259.706 35.957C259.706 40.5957 260.938 43.855 263.404 45.7349C264.869 46.8335 266.603 47.3828 268.604 47.3828C271.51 47.3828 273.719 46.2598 275.233 44.0137C276.771 41.7676 277.54 38.7769 277.54 35.0415ZM330.055 43.2812C329.786 45.6494 328.553 48.0542 326.356 50.4956C322.938 54.3774 318.153 56.3184 312 56.3184C306.922 56.3184 302.442 54.6826 298.561 51.4111C294.679 48.1396 292.738 42.8174 292.738 35.4443C292.738 28.5352 294.483 23.2373 297.975 19.5508C301.49 15.8643 306.043 14.021 311.634 14.021C314.955 14.021 317.945 14.6436 320.606 15.8887C323.268 17.1338 325.465 19.0991 327.198 21.7847C328.761 24.1528 329.774 26.8994 330.238 30.0244C330.506 31.8555 330.616 34.4922 330.567 37.9346H303.248C303.395 41.9385 304.652 44.7461 307.02 46.3574C308.46 47.3584 310.194 47.8589 312.22 47.8589C314.369 47.8589 316.114 47.2485 317.457 46.0278C318.189 45.3687 318.836 44.4531 319.398 43.2812H330.055ZM319.728 31.0498C319.557 28.291 318.714 26.2036 317.201 24.7876C315.711 23.3472 313.856 22.627 311.634 22.627C309.217 22.627 307.337 23.3838 305.995 24.8975C304.676 26.4111 303.846 28.4619 303.504 31.0498H319.728ZM357.704 24.7144C353.504 24.7144 350.685 26.0815 349.244 28.8159C348.438 30.354 348.036 32.7222 348.036 35.9204V55H337.525V15.083H347.486V22.041C349.098 19.3799 350.501 17.561 351.698 16.5845C353.651 14.9487 356.19 14.1309 359.315 14.1309C359.51 14.1309 359.669 14.1431 359.791 14.1675C359.938 14.1675 360.243 14.1797 360.707 14.2041V24.8975C360.047 24.8242 359.461 24.7754 358.949 24.751C358.436 24.7266 358.021 24.7144 357.704 24.7144ZM401.026 43.2812C400.758 45.6494 399.525 48.0542 397.328 50.4956C393.91 54.3774 389.125 56.3184 382.972 56.3184C377.894 56.3184 373.414 54.6826 369.532 51.4111C365.65 48.1396 363.709 42.8174 363.709 35.4443C363.709 28.5352 365.455 23.2373 368.946 19.5508C372.462 15.8643 377.015 14.021 382.606 14.021C385.926 14.021 388.917 14.6436 391.578 15.8887C394.239 17.1338 396.437 19.0991 398.17 21.7847C399.732 24.1528 400.746 26.8994 401.209 30.0244C401.478 31.8555 401.588 34.4922 401.539 37.9346H374.22C374.366 41.9385 375.624 44.7461 377.992 46.3574C379.432 47.3584 381.166 47.8589 383.192 47.8589C385.34 47.8589 387.086 47.2485 388.429 46.0278C389.161 45.3687 389.808 44.4531 390.37 43.2812H401.026ZM390.699 31.0498C390.528 28.291 389.686 26.2036 388.172 24.7876C386.683 23.3472 384.828 22.627 382.606 22.627C380.189 22.627 378.309 23.3838 376.966 24.8975C375.648 26.4111 374.818 28.4619 374.476 31.0498H390.699ZM444.935 1.09375V55H434.791V49.4702C433.302 51.8384 431.605 53.5596 429.701 54.6338C427.796 55.708 425.428 56.2451 422.596 56.2451C417.933 56.2451 414.002 54.3652 410.804 50.6055C407.63 46.8213 406.043 41.9751 406.043 36.0669C406.043 29.2554 407.606 23.8965 410.731 19.9902C413.88 16.084 418.08 14.1309 423.329 14.1309C425.746 14.1309 427.894 14.668 429.774 15.7422C431.654 16.792 433.18 18.2568 434.352 20.1367V1.09375H444.935ZM416.81 35.2979C416.81 38.9844 417.542 41.9263 419.007 44.1235C420.448 46.3452 422.645 47.4561 425.599 47.4561C428.553 47.4561 430.799 46.3574 432.337 44.1602C433.875 41.9629 434.645 39.1187 434.645 35.6274C434.645 30.7446 433.412 27.2534 430.946 25.1538C429.432 23.8843 427.674 23.2495 425.672 23.2495C422.621 23.2495 420.375 24.4092 418.934 26.7285C417.518 29.0234 416.81 31.8799 416.81 35.2979ZM455.958 19.4043C458.717 15.8887 463.453 14.1309 470.167 14.1309C474.537 14.1309 478.419 14.9976 481.812 16.731C485.206 18.4644 486.903 21.7358 486.903 26.5454V44.856C486.903 46.1255 486.927 47.6636 486.976 49.4702C487.049 50.8374 487.257 51.7651 487.599 52.2534C487.94 52.7417 488.453 53.1445 489.137 53.4619V55H477.784C477.467 54.1943 477.247 53.4375 477.125 52.7295C477.003 52.0215 476.905 51.2158 476.832 50.3125C475.392 51.875 473.731 53.2056 471.852 54.3042C469.605 55.5981 467.066 56.2451 464.234 56.2451C460.621 56.2451 457.63 55.2197 455.262 53.1689C452.918 51.0938 451.747 48.1641 451.747 44.3799C451.747 39.4727 453.639 35.9204 457.423 33.7231C459.498 32.5269 462.55 31.6724 466.578 31.1597L470.13 30.7202C472.059 30.4761 473.438 30.1709 474.269 29.8047C475.758 29.1699 476.502 28.1812 476.502 26.8384C476.502 25.2026 475.929 24.0796 474.781 23.4692C473.658 22.8345 471.998 22.5171 469.801 22.5171C467.335 22.5171 465.589 23.1274 464.564 24.3481C463.832 25.2515 463.343 26.4722 463.099 28.0103H453.028C453.248 24.519 454.225 21.6504 455.958 19.4043ZM463.722 47.4561C464.698 48.2617 465.895 48.6646 467.311 48.6646C469.557 48.6646 471.62 48.0054 473.5 46.687C475.404 45.3687 476.393 42.9639 476.466 39.4727V35.5908C475.807 36.0059 475.135 36.3477 474.452 36.6162C473.792 36.8604 472.877 37.0923 471.705 37.312L469.361 37.7515C467.164 38.1421 465.589 38.6182 464.637 39.1797C463.026 40.1318 462.22 41.6089 462.22 43.6108C462.22 45.3931 462.721 46.6748 463.722 47.4561ZM530.738 29.4019H520.045C519.85 27.9126 519.349 26.5698 518.543 25.3735C517.372 23.7622 515.553 22.9565 513.087 22.9565C509.571 22.9565 507.167 24.7021 505.873 28.1934C505.189 30.0488 504.847 32.5146 504.847 35.5908C504.847 38.5205 505.189 40.8765 505.873 42.6587C507.118 45.979 509.461 47.6392 512.904 47.6392C515.345 47.6392 517.079 46.98 518.104 45.6616C519.129 44.3433 519.752 42.6343 519.972 40.5347H530.628C530.384 43.7085 529.237 46.7114 527.186 49.5435C523.915 54.1089 519.068 56.3916 512.647 56.3916C506.227 56.3916 501.502 54.4873 498.475 50.6787C495.448 46.8701 493.934 41.9263 493.934 35.8472C493.934 28.9868 495.606 23.6523 498.951 19.8438C502.296 16.0352 506.91 14.1309 512.794 14.1309C517.799 14.1309 521.888 15.2539 525.062 17.5C528.26 19.7461 530.152 23.7134 530.738 29.4019ZM574.024 31.5625V55H563.368V30.7202C563.368 28.5718 563.001 26.8384 562.269 25.52C561.317 23.6646 559.51 22.7368 556.849 22.7368C554.09 22.7368 551.991 23.6646 550.55 25.52C549.134 27.3511 548.426 29.9756 548.426 33.3936V55H538.026V1.20361H548.426V20.2832C549.94 17.9639 551.686 16.3525 553.663 15.4492C555.665 14.5215 557.765 14.0576 559.962 14.0576C562.428 14.0576 564.662 14.4849 566.664 15.3394C568.69 16.1938 570.35 17.5 571.644 19.2578C572.743 20.7471 573.414 22.2852 573.658 23.8721C573.902 25.4346 574.024 27.998 574.024 31.5625ZM594.532 15.083V55H583.949V15.083H594.532ZM594.532 0.690918V10.3223H583.949V0.690918H594.532Z" fill="white"/>
</svg>
