<svg width="549" height="1023" viewBox="0 0 549 1023" fill="none" xmlns="http://www.w3.org/2000/svg">
<path d="M810.439 793.329C745.282 807.869 609.692 808.536 588.591 694.879C567.49 581.221 486.2 552.741 448.193 552.708C405.561 535.446 349.851 467.443 468.067 333.528C520.788 297.936 621.239 208.161 601.276 133.795C581.313 59.429 693.81 14.5302 752.554 1.37656" stroke="black"/>
<path d="M780.623 865.688C731.619 911.194 606.207 971.905 496.589 850.703C359.567 699.201 347.36 707.654 264.415 713.788C198.06 718.695 152.821 671.615 138.497 647.461C121.558 591.104 119.696 456.432 247.75 368.602C407.818 258.814 277.508 218.261 318.273 120.719C350.885 42.6848 486.07 11.0779 549.587 5.02876" stroke="#FF5500" stroke-width="8"/>
<path d="M807.854 796.883C774.493 805.975 720.724 812.486 672.952 795.074C623.875 776.219 585.987 749.719 571.989 695.888C548.733 587.876 469.16 558.51 432.28 557.329C390.872 538.205 337.726 467.027 456.41 335.307C514.243 296.182 603.705 208.751 586.634 133.281C569.175 58.7407 682.752 14.4748 741.724 1.65944" stroke="#0C0400" stroke-width="1.33333"/>
<path d="M805.356 800.429C771.213 811.341 713.862 820.562 662.998 797.961C609.524 772.473 572.919 747.721 555.474 696.888C530.063 594.522 452.207 564.271 416.455 561.941C376.27 540.955 325.688 466.603 444.841 337.077C507.785 294.419 586.259 209.332 572.08 132.759C557.124 58.0431 671.782 14.4101 730.981 1.93311" stroke="#180800" stroke-width="1.66667"/>
<path d="M802.949 803.968C768.024 816.7 707.091 828.632 653.135 800.841C595.263 768.721 559.943 745.716 539.05 697.882C511.484 601.162 435.345 570.024 400.721 566.546C361.759 543.699 313.741 466.171 433.363 338.84C501.419 292.649 568.904 209.906 557.617 132.229C545.164 57.3387 660.903 14.3388 720.329 2.20004" stroke="#240C00" stroke-width="2"/>
<path d="M800.64 807.499C764.933 822.052 700.418 836.694 643.369 803.713C581.1 764.961 547.064 743.704 522.724 698.868C493.003 607.794 418.58 575.771 385.084 571.144C347.346 546.435 301.892 465.733 421.983 340.596C495.15 290.872 551.647 210.473 543.251 131.692C533.302 56.6272 650.121 14.2602 709.774 2.45978" stroke="#311000" stroke-width="2.33333"/>
<path d="M798.433 811.022C761.943 827.396 693.846 844.748 633.705 806.577C567.039 761.193 534.287 741.683 506.499 699.845C474.623 614.418 401.917 581.509 369.549 575.733C333.034 549.162 290.145 465.286 410.704 342.343C488.983 289.086 534.491 211.031 528.987 131.146C521.542 55.9069 639.441 14.1728 699.321 2.71073" stroke="#3D1400" stroke-width="2.66667"/>
<path d="M796.332 814.534C759.06 832.729 687.381 852.791 624.147 809.431C553.084 757.414 521.616 739.652 490.381 700.813C456.35 621.031 385.361 587.236 354.12 580.312C318.829 551.879 278.504 464.828 399.531 344.08C482.923 287.29 517.442 211.578 514.83 130.59C509.888 55.1763 628.868 14.0752 688.975 2.95137" stroke="#491800" stroke-width="3"/>
<path d="M794.343 818.037C756.289 838.052 681.027 860.824 614.702 812.275C539.241 753.625 509.057 737.611 474.375 701.77C438.189 627.634 368.917 592.954 338.804 584.88C304.736 554.586 266.975 464.36 388.471 345.807C476.974 285.484 500.505 212.116 500.784 130.024C498.346 54.4357 618.406 13.9675 678.741 3.182" stroke="#551C00" stroke-width="3.33333"/>
<path d="M792.471 821.528C753.635 843.365 674.791 868.846 605.373 815.107C525.515 749.826 496.615 735.559 458.486 702.716C420.145 634.226 352.589 598.66 323.604 589.438C290.76 557.283 255.563 463.882 377.527 347.523C471.142 283.667 483.684 212.643 486.856 129.448C486.921 53.6843 608.062 13.8491 668.624 3.4019" stroke="#612000" stroke-width="3.66667"/>
<path d="M790.72 825.009C751.102 848.666 668.676 876.857 596.166 817.929C511.911 746.015 484.295 733.496 442.718 703.651C402.222 640.807 336.383 604.355 308.526 593.985C276.905 559.968 244.272 463.392 366.705 349.228C465.432 281.838 466.985 213.158 473.048 128.86C475.618 52.9215 597.838 13.7192 658.627 3.61036" stroke="#6D2400" stroke-width="4"/>
<path d="M789.098 828.479C748.697 853.956 662.689 884.858 587.087 820.74C498.434 742.194 472.103 731.422 427.079 704.576C384.428 647.378 320.305 610.04 293.576 598.521C263.179 562.642 233.11 462.892 356.011 350.923C459.849 280 450.414 213.664 459.37 128.261C464.442 52.1484 587.743 13.5791 648.76 3.80852" stroke="#792800" stroke-width="4.33333"/>
<path d="M787.608 831.934C746.425 859.232 656.835 892.843 578.14 823.536C485.09 738.358 460.043 729.334 411.572 705.486C366.766 653.933 304.36 615.71 278.758 603.043C249.585 565.302 222.08 462.377 345.45 352.602C454.4 278.146 433.976 214.154 445.823 127.648C453.399 51.3604 577.781 13.424 639.025 3.99178" stroke="#862D00" stroke-width="4.66667"/>
<path d="M786.256 835.375C744.291 864.494 651.119 900.815 569.331 826.319C471.885 734.508 448.121 727.232 396.203 706.382C349.242 660.475 288.553 621.367 264.078 607.55C236.129 567.948 211.188 461.848 335.026 354.268C449.088 276.279 417.676 214.63 432.415 127.021C442.495 50.5587 567.956 13.2553 629.427 4.16133" stroke="#923100" stroke-width="5"/>
<path d="M785.044 838.803C742.298 869.743 645.543 908.774 560.663 829.088C458.819 730.645 436.34 725.116 380.974 707.264C331.858 667.004 272.886 627.009 249.539 612.045C222.813 570.581 200.437 461.306 324.743 355.92C443.917 274.398 401.516 215.094 419.147 126.38C431.73 49.7436 558.272 13.0731 619.971 4.31747" stroke="#9E3500" stroke-width="5.33333"/>
<path d="M783.976 842.214C740.448 874.975 640.111 916.716 552.139 831.84C445.898 726.765 424.702 722.984 365.889 708.13C314.618 673.516 257.363 632.636 235.144 616.522C209.641 573.197 189.829 460.747 314.604 357.556C438.889 272.5 385.5 215.54 406.023 125.723C421.11 48.9117 548.732 12.8742 610.658 4.45682" stroke="#AA3900" stroke-width="5.66667"/>
<path d="M783.057 845.612C738.746 880.193 634.827 924.644 543.763 834.579C433.125 722.871 413.214 720.838 350.953 708.983C297.527 680.014 241.988 638.248 220.897 620.986C196.618 575.799 179.37 460.175 304.614 359.178C434.011 270.589 369.633 215.973 393.047 125.052C410.638 48.0664 539.34 12.6619 601.493 4.58284" stroke="#B63D00" stroke-width="6"/>
<path d="M782.287 848.993C737.194 885.395 629.693 932.556 535.537 837.302C420.501 718.962 401.874 718.676 336.166 709.819C280.585 686.497 226.763 643.845 206.799 625.434C183.744 578.385 169.06 459.587 294.772 360.784C429.281 268.662 353.914 216.39 380.22 124.366C400.315 47.2048 530.098 12.4332 592.478 4.69251" stroke="#C24100" stroke-width="6.33333"/>
<path d="M781.666 852.36C735.791 890.583 624.708 940.454 527.459 840.011C408.026 715.038 390.683 716.5 321.528 710.641C263.792 692.964 211.687 649.427 192.851 629.868C171.019 580.957 158.899 458.984 285.08 362.376C424.7 266.721 338.345 216.792 367.543 123.664C390.141 46.329 521.004 12.1903 583.612 4.7879" stroke="#CE4500" stroke-width="6.66667"/>
<path d="M781.193 855.712C734.535 895.755 619.87 948.336 519.529 842.703C395.698 711.098 379.64 714.308 307.037 711.447C247.146 699.417 196.757 654.993 179.05 634.286C158.441 583.513 148.886 458.365 275.534 363.952C420.267 264.764 322.923 217.179 355.013 122.947C380.114 45.4373 512.058 11.9316 574.893 4.86748" stroke="#DB4900" stroke-width="7"/>
<path d="M780.865 859.049C733.425 900.913 615.177 956.204 511.744 845.382C383.517 707.144 368.742 712.102 292.692 712.239C230.646 705.855 181.974 660.546 165.394 638.689C146.009 586.055 139.018 457.732 266.135 365.513C415.979 262.792 307.647 217.551 342.628 122.216C370.233 44.5317 503.258 11.6589 566.319 4.93311" stroke="#E74D00" stroke-width="7.33333"/>
<path d="M780.677 862.375C732.455 906.06 610.625 964.061 504.1 848.049C371.475 703.179 357.984 709.884 278.487 713.02C214.286 712.281 167.331 666.086 151.878 643.081C133.717 588.586 129.29 457.088 256.876 367.064C411.832 260.809 292.511 217.912 330.384 121.474C360.493 43.6143 494.597 11.3745 557.886 4.98699" stroke="#F35100" stroke-width="7.66667"/>
</svg>
