<svg width="961" height="160" viewBox="0 0 961 160" fill="none" xmlns="http://www.w3.org/2000/svg">
<path d="M9 115V9.24999H84.45V30.25H33V51.55H76.95V72.55H33V94H84.45V115H9ZM93.3809 9.24999H117.681L145.581 109H151.581L179.631 9.24999H203.931L173.331 115H123.831L93.3809 9.24999ZM213.053 115V9.24999H288.503V30.25H237.053V51.55H281.003V72.55H237.053V94H288.503V115H213.053ZM301.969 115V9.24999H349.219L381.169 109H387.169L382.669 94V9.24999H406.669V115H359.419L327.469 15.25H321.469L325.969 30.25V115H301.969ZM510.443 9.24999V30.25H475.943V115H451.943V30.25H417.293V9.24999H510.443Z" fill="white"/>
<line x1="9" y1="42.5" x2="512" y2="42.5" stroke="#191919" stroke-width="5"/>
<line x1="9" y1="33.5" x2="512" y2="33.5" stroke="#191919" stroke-width="3"/>
<line x1="9" y1="18.5" x2="512" y2="18.5" stroke="#191919"/>
<line x1="9" y1="58.5" x2="512" y2="58.5" stroke="#191919"/>
<line x1="12" y1="100.5" x2="515" y2="100.5" stroke="#191919" stroke-width="5"/>
<line x1="9" y1="75.5" x2="512" y2="75.5" stroke="#191919" stroke-width="3"/>
<line x1="12" y1="91.5" x2="515" y2="91.5" stroke="#191919"/>
<path d="M687.25 76.15V97.15H675.7V115H651.7V97.15H596.5V53.5C609.2 51.5 619.2 46.75 626.5 39.25C633.9 31.65 638.05 21.65 638.95 9.24999H662.95C662.15 26.65 656.55 40.95 646.15 52.15C635.85 63.25 621.3 70.75 602.5 74.65V80.65L617.5 76.15H651.7V52.75H675.7V76.15H687.25ZM711.482 22.6C720.582 12.7 733.032 7.74999 748.832 7.74999C764.632 7.74999 777.032 12.7 786.032 22.6C795.132 32.5 799.682 45.65 799.682 62.05C799.682 78.45 795.132 91.65 786.032 101.65C777.032 111.55 764.632 116.5 748.832 116.5C733.032 116.5 720.582 111.55 711.482 101.65C702.382 91.65 697.832 78.45 697.832 62.05C697.832 45.65 702.382 32.5 711.482 22.6ZM748.832 28.75C740.232 28.75 733.582 31.6 728.882 37.3C724.182 43 721.832 51.25 721.832 62.05C721.832 67.05 722.382 71.65 723.482 75.85L763.832 32.8C759.832 30.1 754.832 28.75 748.832 28.75ZM748.832 95.5C757.432 95.5 764.032 92.65 768.632 86.95C773.332 81.25 775.682 72.95 775.682 62.05C775.682 57.05 775.132 52.45 774.032 48.25L733.682 91.3C737.782 94.1 742.832 95.5 748.832 95.5ZM903.9 76.15V97.15H892.35V115H868.35V97.15H813.15V53.5C825.85 51.5 835.85 46.75 843.15 39.25C850.55 31.65 854.7 21.65 855.6 9.24999H879.6C878.8 26.65 873.2 40.95 862.8 52.15C852.5 63.25 837.95 70.75 819.15 74.65V80.65L834.15 76.15H868.35V52.75H892.35V76.15H903.9Z" fill="#FF5500"/>
<path d="M698.25 79.15V100.15H686.7V118H662.7V100.15H607.5V56.5C620.2 54.5 630.2 49.75 637.5 42.25C644.9 34.65 649.05 24.65 649.95 12.25H673.95C673.15 29.65 667.55 43.95 657.15 55.15C646.85 66.25 632.3 73.75 613.5 77.65V83.65L628.5 79.15H662.7V55.75H686.7V79.15H698.25ZM722.482 25.6C731.582 15.7 744.032 10.75 759.832 10.75C775.632 10.75 788.032 15.7 797.032 25.6C806.132 35.5 810.682 48.65 810.682 65.05C810.682 81.45 806.132 94.65 797.032 104.65C788.032 114.55 775.632 119.5 759.832 119.5C744.032 119.5 731.582 114.55 722.482 104.65C713.382 94.65 708.832 81.45 708.832 65.05C708.832 48.65 713.382 35.5 722.482 25.6ZM759.832 31.75C751.232 31.75 744.582 34.6 739.882 40.3C735.182 46 732.832 54.25 732.832 65.05C732.832 70.05 733.382 74.65 734.482 78.85L774.832 35.8C770.832 33.1 765.832 31.75 759.832 31.75ZM759.832 98.5C768.432 98.5 775.032 95.65 779.632 89.95C784.332 84.25 786.682 75.95 786.682 65.05C786.682 60.05 786.132 55.45 785.032 51.25L744.682 94.3C748.782 97.1 753.832 98.5 759.832 98.5ZM914.9 79.15V100.15H903.35V118H879.35V100.15H824.15V56.5C836.85 54.5 846.85 49.75 854.15 42.25C861.55 34.65 865.7 24.65 866.6 12.25H890.6C889.8 29.65 884.2 43.95 873.8 55.15C863.5 66.25 848.95 73.75 830.15 77.65V83.65L845.15 79.15H879.35V55.75H903.35V79.15H914.9Z" fill="#FF5500"/>
<path d="M708.25 83.15V104.15H696.7V122H672.7V104.15H617.5V60.5C630.2 58.5 640.2 53.75 647.5 46.25C654.9 38.65 659.05 28.65 659.95 16.25H683.95C683.15 33.65 677.55 47.95 667.15 59.15C656.85 70.25 642.3 77.75 623.5 81.65V87.65L638.5 83.15H672.7V59.75H696.7V83.15H708.25ZM732.482 29.6C741.582 19.7 754.032 14.75 769.832 14.75C785.632 14.75 798.032 19.7 807.032 29.6C816.132 39.5 820.682 52.65 820.682 69.05C820.682 85.45 816.132 98.65 807.032 108.65C798.032 118.55 785.632 123.5 769.832 123.5C754.032 123.5 741.582 118.55 732.482 108.65C723.382 98.65 718.832 85.45 718.832 69.05C718.832 52.65 723.382 39.5 732.482 29.6ZM769.832 35.75C761.232 35.75 754.582 38.6 749.882 44.3C745.182 50 742.832 58.25 742.832 69.05C742.832 74.05 743.382 78.65 744.482 82.85L784.832 39.8C780.832 37.1 775.832 35.75 769.832 35.75ZM769.832 102.5C778.432 102.5 785.032 99.65 789.632 93.95C794.332 88.25 796.682 79.95 796.682 69.05C796.682 64.05 796.132 59.45 795.032 55.25L754.682 98.3C758.782 101.1 763.832 102.5 769.832 102.5ZM924.9 83.15V104.15H913.35V122H889.35V104.15H834.15V60.5C846.85 58.5 856.85 53.75 864.15 46.25C871.55 38.65 875.7 28.65 876.6 16.25H900.6C899.8 33.65 894.2 47.95 883.8 59.15C873.5 70.25 858.95 77.75 840.15 81.65V87.65L855.15 83.15H889.35V59.75H913.35V83.15H924.9Z" fill="#FF5500"/>
<path d="M717.25 86.15V107.15H705.7V125H681.7V107.15H626.5V63.5C639.2 61.5 649.2 56.75 656.5 49.25C663.9 41.65 668.05 31.65 668.95 19.25H692.95C692.15 36.65 686.55 50.95 676.15 62.15C665.85 73.25 651.3 80.75 632.5 84.65V90.65L647.5 86.15H681.7V62.75H705.7V86.15H717.25ZM741.482 32.6C750.582 22.7 763.032 17.75 778.832 17.75C794.632 17.75 807.032 22.7 816.032 32.6C825.132 42.5 829.682 55.65 829.682 72.05C829.682 88.45 825.132 101.65 816.032 111.65C807.032 121.55 794.632 126.5 778.832 126.5C763.032 126.5 750.582 121.55 741.482 111.65C732.382 101.65 727.832 88.45 727.832 72.05C727.832 55.65 732.382 42.5 741.482 32.6ZM778.832 38.75C770.232 38.75 763.582 41.6 758.882 47.3C754.182 53 751.832 61.25 751.832 72.05C751.832 77.05 752.382 81.65 753.482 85.85L793.832 42.8C789.832 40.1 784.832 38.75 778.832 38.75ZM778.832 105.5C787.432 105.5 794.032 102.65 798.632 96.95C803.332 91.25 805.682 82.95 805.682 72.05C805.682 67.05 805.132 62.45 804.032 58.25L763.682 101.3C767.782 104.1 772.832 105.5 778.832 105.5ZM933.9 86.15V107.15H922.35V125H898.35V107.15H843.15V63.5C855.85 61.5 865.85 56.75 873.15 49.25C880.55 41.65 884.7 31.65 885.6 19.25H909.6C908.8 36.65 903.2 50.95 892.8 62.15C882.5 73.25 867.95 80.75 849.15 84.65V90.65L864.15 86.15H898.35V62.75H922.35V86.15H933.9Z" fill="#FF5500"/>
<path d="M679.25 71.15V92.15H667.7V110H643.7V92.15H588.5V48.5C601.2 46.5 611.2 41.75 618.5 34.25C625.9 26.65 630.05 16.65 630.95 4.24999H654.95C654.15 21.65 648.55 35.95 638.15 47.15C627.85 58.25 613.3 65.75 594.5 69.65V75.65L609.5 71.15H643.7V47.75H667.7V71.15H679.25ZM703.482 17.6C712.582 7.69999 725.032 2.74999 740.832 2.74999C756.632 2.74999 769.032 7.69999 778.032 17.6C787.132 27.5 791.682 40.65 791.682 57.05C791.682 73.45 787.132 86.65 778.032 96.65C769.032 106.55 756.632 111.5 740.832 111.5C725.032 111.5 712.582 106.55 703.482 96.65C694.382 86.65 689.832 73.45 689.832 57.05C689.832 40.65 694.382 27.5 703.482 17.6ZM740.832 23.75C732.232 23.75 725.582 26.6 720.882 32.3C716.182 38 713.832 46.25 713.832 57.05C713.832 62.05 714.382 66.65 715.482 70.85L755.832 27.8C751.832 25.1 746.832 23.75 740.832 23.75ZM740.832 90.5C749.432 90.5 756.032 87.65 760.632 81.95C765.332 76.25 767.682 67.95 767.682 57.05C767.682 52.05 767.132 47.45 766.032 43.25L725.682 86.3C729.782 89.1 734.832 90.5 740.832 90.5ZM895.9 71.15V92.15H884.35V110H860.35V92.15H805.15V48.5C817.85 46.5 827.85 41.75 835.15 34.25C842.55 26.65 846.7 16.65 847.6 4.24999H871.6C870.8 21.65 865.2 35.95 854.8 47.15C844.5 58.25 829.95 65.75 811.15 69.65V75.65L826.15 71.15H860.35V47.75H884.35V71.15H895.9Z" fill="white"/>
<line x1="551" y1="42.5" x2="959" y2="42.5" stroke="#191919" stroke-width="5"/>
<line x1="551" y1="33.5" x2="959" y2="33.5" stroke="#191919" stroke-width="3"/>
<line x1="551" y1="18.5" x2="959" y2="18.5" stroke="#191919"/>
<line x1="551" y1="58.5" x2="959" y2="58.5" stroke="#191919"/>
<line x1="553" y1="100.5" x2="961" y2="100.5" stroke="#191919" stroke-width="5"/>
<line x1="551" y1="75.5" x2="959" y2="75.5" stroke="#191919" stroke-width="3"/>
<line x1="553" y1="91.5" x2="961" y2="91.5" stroke="#191919"/>
</svg>
