<svg width="1920" height="522" viewBox="0 0 1920 522" fill="none" xmlns="http://www.w3.org/2000/svg">
<path d="M-71 36.1531C-1.14775 86.8655 234.051 157.863 616.028 36.1531C1093.5 -115.984 364.56 341.887 950.257 278.77C1059.01 249.097 1290.75 203.03 1347.62 256.15C1418.71 322.551 1657.98 442.217 1827.74 270.744C1963.56 133.565 1958.25 89.5409 1938.62 84.6764" stroke="#FF5500" stroke-width="10"/>
<path d="M9 408.032C179.978 474.355 571.796 551.684 771.242 330.411C970.687 109.139 1174.38 60.3802 1251.29 63.66C1343.06 55.4 1549.61 73.8637 1641.69 213.799C1733.78 353.734 1886.93 476.906 1952 521" stroke="white"/>
<path d="M-69 35.9222C1.16707 86.076 234.228 156.063 610.901 37.4195C1080.96 -110.885 371.336 334.669 946.262 270.743C1056.95 237.018 1287.99 191.054 1345.28 242.907C1416.79 307.456 1655.26 424.508 1823.28 260.389C1958.09 129.702 1956.24 89.4586 1938.45 85.6729" stroke="#FF5906" stroke-width="9.80435"/>
<path d="M-68 33.8626C2.54607 83.7502 233.681 153.136 605.394 36.8639C1068.47 -108.476 377.516 327.368 942.193 262.262C1054.92 224.295 1285.47 178.168 1343.23 229.056C1415.23 292.13 1653.12 407.251 1819.54 249.525C1953.48 124.56 1955.07 87.8586 1939.12 85.1284" stroke="#FF5C0B" stroke-width="9.6087"/>
<path d="M-66 33.6362C4.88446 82.9408 233.959 151.284 600.493 38.1197C1056.31 -103.336 384.441 320.043 938.536 254.174C1053.23 212.214 1283.17 166.216 1341.36 215.819C1413.81 277.02 1650.99 389.481 1815.71 239.138C1948.7 120.68 1953.73 87.7476 1939.62 86.0883" stroke="#FF6011" stroke-width="9.41304"/>
<path d="M-64 32.5713C7.21658 81.6086 234.211 149.349 595.536 38.563C1044.06 -99.9182 391.326 313.721 934.793 246.669C1051.44 200.456 1280.75 154.293 1339.37 202.929C1412.26 262.651 1648.7 373.176 1811.72 229.243C1943.74 116.525 1952.22 87.1433 1939.95 86.5424" stroke="#FF6416" stroke-width="9.21739"/>
<path d="M-62 31.5005C9.54208 80.2771 234.436 147.421 590.52 39.0084C1031.7 -96.5064 398.168 307.413 930.96 239.162C1049.56 188.668 1278.21 142.333 1337.25 190.005C1410.58 248.25 1646.26 356.847 1807.56 219.331C1938.6 112.362 1950.52 86.5439 1940.1 87.0062" stroke="#FF671C" stroke-width="9.02174"/>
<path d="M-61 30.4231C10.8965 78.9462 233.781 145.503 584.768 39.4562C1018.8 -93.1011 404.195 301.12 926.528 231.652C1047.12 176.847 1275.21 130.33 1334.7 177.041C1408.49 233.813 1643.51 340.491 1803.15 209.401C1933.27 108.19 1948.63 85.95 1940.05 87.481" stroke="#FF6B21" stroke-width="8.82609"/>
<path d="M-59 30.2049C13.2441 78.0886 234.097 143.53 579.952 40.6871C1006.78 -87.8646 411.18 293.543 923 223.415C1045.58 164.747 1273.08 118.421 1333.01 163.802C1407.26 218.652 1641.59 322.566 1799.56 198.928C1928.74 104.267 1947.56 85.7714 1940.82 88.3561" stroke="#FF6F27" stroke-width="8.63043"/>
<path d="M-57 30.0593C15.5485 77.4743 234.239 142.034 574.758 42.0164C994.135 -83.0044 417.882 287.006 918.889 215.979C1043.38 153.273 1270.16 106.974 1330.5 151.192C1405.16 204.324 1638.66 305.855 1794.87 189.187C1923.03 100.7 1945.28 85.8579 1940.39 89.4975" stroke="#FF732C" stroke-width="8.43478"/>
<path d="M-56 27.9731C16.9186 75.1215 233.646 139.076 569.136 41.4569C981.442 -80.5651 424.014 279.622 914.662 207.393C1041.18 140.379 1267.44 93.9097 1328.24 137.153C1403.38 188.793 1636.27 288.373 1790.85 178.181C1918.12 95.4929 1943.82 84.2422 1940.77 88.9528" stroke="#FF7632" stroke-width="8.23913"/>
<path d="M-54 26.8787C19.2456 73.766 233.88 137.121 564.143 41.8986C969.132 -77.1272 430.863 273.239 910.859 199.792C1039.32 128.439 1264.94 81.7924 1326.16 124.062C1401.74 174.211 1633.87 271.844 1786.74 168.143C1913.03 91.2714 1942.18 83.6286 1940.96 89.4162" stroke="#FF7A37" stroke-width="8.04348"/>
<path d="M-52 26.7755C21.6034 73.4088 234.235 136.172 559.41 43.3424C957.252 -72.693 437.915 267.864 907.461 193.18C1037.93 117.451 1262.99 70.6184 1324.66 111.917C1400.71 160.575 1632.19 256.269 1783.4 159.075C1908.78 88.0363 1941.37 84.019 1942 90.8902" stroke="#FF7E3D" stroke-width="7.84783"/>
<path d="M-51 24.6622C22.9601 71.0469 233.584 133.225 553.662 42.7872C944.346 -70.2583 443.962 260.486 903.044 184.545C1035.51 104.406 1260.01 57.3786 1322.14 97.7073C1398.65 144.873 1629.47 238.631 1779.03 147.967C1903.48 82.7826 1939.53 82.4105 1942 90.3725" stroke="#FF8143" stroke-width="7.65217"/>
<path d="M-49 24.5165C25.2796 70.3804 233.791 131.609 548.611 44.0929C931.942 -65.2993 450.76 253.691 899.148 176.94C1033.55 92.8624 1257.38 45.9159 1319.92 85.0377C1396.87 130.435 1626.91 221.707 1774.74 138.103C1898.2 79.1557 1937.69 82.4305 1942 91.4364" stroke="#FF8548" stroke-width="7.45652"/>
<path d="M-47 24.3747C27.6364 69.4087 234.139 129.278 543.861 45.2492C920.032 -59.7836 457.808 245.408 895.729 168.386C1032.13 80.998 1255.4 34.455 1318.4 72.1161C1395.81 115.455 1625.19 203.645 1771.36 127.586C1893.91 75.2013 1936.85 82.0537 1943 92.028" stroke="#FF894E" stroke-width="7.26087"/>
<path d="M-44 24C30.918 68.8248 235.206 128.161 539.52 46.4499C908.157 -55.6857 465.346 239.963 892.365 161.619C1030.64 69.7464 1253.12 22.9682 1316.5 59.6923C1394.3 101.578 1622.79 187.91 1767.16 118.311C1888.66 71.732 1935.01 82.2337 1943 93.3069" stroke="#FF8C53" stroke-width="7.06522"/>
<path d="M-43 25C32.2748 69.4972 234.555 128.142 533.771 48.9744C895.248 -49.9825 471.394 235.303 887.946 155.834C1028.22 59.6961 1250.15 12.804 1313.98 48.4903C1392.24 88.8063 1620.08 173.045 1762.79 110.119C1883.36 69.4973 1933.17 83.6389 1943 95.7874" stroke="#FF9059" stroke-width="6.86957"/>
<path d="M-41 26.0514C34.5936 70.1917 234.764 128.107 528.732 51.5373C882.868 -44.1715 478.183 230.548 884.059 150.005C1026.26 49.6562 1247.52 2.68026 1311.77 37.3041C1390.46 76.0212 1617.52 158.108 1758.5 101.908C1878.1 67.2797 1931.33 85.0581 1943 98.2759" stroke="#FF945E" stroke-width="6.67391"/>
<path d="M-39 38.7226C36.9505 82.6139 235.113 139.94 523.98 65.7884C870.954 -26.8977 485.233 237.899 880.638 156.078C1024.85 51.2556 1245.54 4.07939 1310.24 37.7225C1389.4 74.9309 1615.8 155.062 1755.13 105.472C1873.8 76.7723 1930.49 98.2443 1944 112.568" stroke="#FF9864" stroke-width="6.47826"/>
<path d="M-38 51.4613C38.3076 95.0689 234.46 151.759 518.225 80.0946C858.034 -9.48228 491.285 245.137 876.216 162.095C1022.43 52.855 1242.56 5.51346 1307.71 38.1452C1387.34 73.8087 1613.08 151.913 1750.75 109.006C1868.49 86.287 1928.64 111.455 1944 126.88" stroke="#FF9B69" stroke-width="6.28261"/>
<path d="M-36 65.0182C40.6262 108.034 234.67 163.689 513.19 95.0121C845.663 9.17057 498.07 251.837 872.332 168.164C1020.47 55.2921 1239.94 8.12087 1305.5 39.5127C1385.56 73.3829 1610.53 148.913 1746.47 112.974C1863.23 96.3816 1926.81 125.059 1944 141.471" stroke="#FF9F6F" stroke-width="6.08696"/>
<path d="M-34 78.466C42.9835 120.884 235.017 175.498 508.433 109.799C833.738 27.6787 505.125 258.445 868.907 174.171C1019.05 57.7331 1237.96 10.7433 1303.98 40.8992C1384.5 72.9845 1608.8 145.945 1743.09 116.915C1858.93 106.393 1925.96 138.536 1945 155.923" stroke="#FFA374" stroke-width="5.8913"/>
<path d="M-32 90.4918C45.3018 132.81 235.229 187.024 503.401 123.534C821.375 44.1757 511.906 265.735 865.027 179.869C1017.1 58.4923 1235.34 11.1322 1301.77 40.4045C1382.72 71.0794 1606.25 142.323 1738.81 119.872C1853.67 115.306 1924.13 151.297 1945 169.864" stroke="#FFA67A" stroke-width="5.69565"/>
<path d="M-31 103.61C46.6592 145.778 234.575 199.523 497.642 138.344C808.444 61.8738 517.963 273.857 860.6 186.479C1014.68 60.2452 1232.36 12.5654 1299.24 40.9093C1380.66 70.1209 1603.53 139.544 1734.43 123.777C1848.36 125.244 1922.28 165.089 1945 184.828" stroke="#FFAA80" stroke-width="5.5"/>
<path d="M-29 116.877C49.0168 158.385 234.921 211.013 492.879 152.88C796.508 80.2186 525.021 280.076 857.171 192.243C1013.26 62.6833 1230.37 15.2602 1297.71 42.3344C1379.59 69.7316 1601.8 136.499 1731.05 127.598C1844.05 135.073 1921.43 178.286 1946 198.958" stroke="#FFAE85" stroke-width="5.30435"/>
<path d="M-27 129.479C51.3348 170.541 235.133 222.326 487.852 166.922C784.154 97.672 531.799 286.509 853.294 197.784C1011.31 64.2724 1227.75 16.8652 1295.5 42.8164C1377.82 68.5521 1599.26 133.02 1726.77 130.886C1838.8 144.357 1919.6 191.127 1946 212.828" stroke="#FFB18B" stroke-width="5.1087"/>
<path d="M-26 142.534C52.6926 183.336 234.478 234.511 482.087 181.589C771.212 115.442 537.86 294.098 848.863 204.077C1008.89 66.0057 1224.77 18.3999 1292.97 43.344C1375.75 67.5322 1596.53 129.99 1722.39 134.621C1833.49 154.158 1917.75 204.701 1946 227.531" stroke="#FFB590" stroke-width="4.91304"/>
<path d="M-24 155.91C55.0104 196.186 234.691 246.418 477.065 196.321C758.867 133.705 544.635 301.025 844.989 210.296C1006.94 68.5651 1222.15 21.0706 1290.77 44.8461C1373.98 67.3306 1593.98 127.374 1718.12 138.734C1828.23 164.205 1915.92 218.191 1946 242" stroke="#FFB996" stroke-width="4.71739"/>
<path d="M-22 169.175C57.3683 209.225 235.036 258.889 472.297 211.244C746.92 151.694 551.698 308.921 841.556 216.807C1005.51 70.3606 1220.17 22.6237 1289.24 45.4072C1372.91 66.355 1592.26 124.429 1714.73 142.607C1823.92 174.203 1915.07 232.034 1947 257" stroke="#FFBC9B" stroke-width="4.52174"/>
<path d="M-21 181.475C58.7263 221.276 234.38 270.341 466.526 225.191C733.967 168.76 557.763 315.738 837.121 222.279C1003.09 71.1613 1217.18 23.2059 1286.7 44.9782C1370.84 64.367 1589.53 120.428 1710.34 145.461C1818.61 183.209 1913.22 244.882 1947 271" stroke="#FFC0A1" stroke-width="4.32609"/>
<path d="M-19 194.548C61.0439 233.759 234.594 281.803 461.508 239.533C721.631 186.701 564.534 322.184 833.251 228.187C1001.14 73.7083 1214.56 25.9474 1284.5 46.5231C1369.07 64.1893 1586.98 117.758 1706.07 149.417C1813.36 192.981 1911.39 257.957 1947 285" stroke="#FFC4A6" stroke-width="4.13043"/>
<path d="M-17 207.592C63.4021 246.235 234.937 293.29 456.735 253.851C709.673 204.558 571.602 328.723 829.814 234.152C999.714 76.2795 1212.58 28.6906 1282.97 48.0907C1368 64.0593 1585.25 115.184 1702.68 153.417C1809.04 202.756 1910.54 271.03 1948 299" stroke="#FFC8AC" stroke-width="3.93478"/>
<path d="M-15 220.573C65.7194 259.095 235.152 305.706 451.721 268.646C697.346 222.327 578.369 336.593 825.946 240.349C997.77 77.2432 1209.96 29.2739 1280.77 47.7215C1366.23 62.1747 1582.71 111.445 1698.42 156.707C1803.79 212.405 1908.71 284.777 1948 314" stroke="#FFCBB1" stroke-width="3.73913"/>
<path d="M-14 234.269C67.0777 272.371 234.495 318.171 445.945 283.792C684.382 240.824 584.439 344.247 821.508 247.07C995.342 79.9702 1206.97 31.9918 1278.23 49.3379C1364.16 62.1547 1579.98 109.176 1694.02 161.155C1798.47 222.815 1906.86 298.743 1948 329" stroke="#FFCFB7" stroke-width="3.54348"/>
<path d="M-12 247.289C69.3948 284.845 234.711 329.687 440.935 298.089C672.063 258.598 591.203 350.89 817.643 253.11C993.4 82.5967 1204.36 34.7697 1276.03 50.9623C1362.39 62.1086 1577.44 106.736 1689.76 165.222C1793.23 232.605 1905.03 311.817 1948 343" stroke="#FFD3BC" stroke-width="3.34783"/>
<path d="M-10 260.346C71.7533 297.732 235.053 342.066 436.157 312.934C660.094 276.527 598.275 358.603 814.202 259.235C991.97 83.5895 1202.37 35.4329 1274.5 50.6335C1361.32 60.2195 1575.7 102.899 1686.37 168.489C1788.91 242.279 1904.18 325.575 1949 358" stroke="#FFD6C2" stroke-width="3.15217"/>
<path d="M-9 273.05C73.112 310.016 234.395 353.539 430.376 327.082C647.119 294.017 604.349 365.279 809.759 264.985C989.54 85.3652 1199.38 37.2015 1271.96 51.3033C1359.25 59.2574 1572.97 99.6931 1681.97 171.977C1783.59 251.707 1902.33 338.547 1949 372" stroke="#FFDAC8" stroke-width="2.95652"/>
<path d="M-7 286.754C75.4288 323.301 234.612 366.018 425.37 342.228C634.81 312.498 611.109 372.97 805.898 271.749C987.6 88.1586 1196.77 39.9864 1269.76 52.9922C1357.48 59.3181 1570.43 97.5161 1677.71 176.481C1778.35 262.142 1900.5 352.519 1949 387" stroke="#FFDECD" stroke-width="2.76087"/>
<path d="M-5 299.459C77.7876 335.588 234.953 377.502 420.587 356.373C622.83 329.969 618.185 379.677 802.453 277.528C986.168 89.97 1194.78 41.7882 1268.22 53.7005C1356.41 58.4019 1568.7 94.3678 1674.31 180.003C1774.02 271.583 1899.65 365.493 1950 401" stroke="#FFE1D3" stroke-width="2.56522"/>
<path d="M-3 312.88C80.1041 348.692 235.171 389.918 415.585 371.394C610.529 348.246 624.942 387.319 798.596 283.957C984.229 91.9072 1192.17 43.5815 1266.03 54.4329C1354.64 57.5216 1566.16 91.354 1670.06 183.902C1768.79 281.661 1897.82 379.367 1950 416" stroke="#FFE5D8" stroke-width="2.36957"/>
<path d="M-2 326.592C81.4632 361.985 234.511 402.407 409.799 386.541C597.543 366.716 631.021 395.037 794.149 290.755C981.797 94.7547 1189.18 46.4222 1263.49 56.1811C1352.57 57.6473 1563.42 89.2488 1665.66 188.452C1763.46 292.116 1895.97 393.344 1950 431" stroke="#FFE9DE" stroke-width="2.17391"/>
<path d="M0 340.033C83.8224 375.099 234.85 414.821 405.01 401.573C585.551 385.021 638.101 402.659 790.699 297.187C980.362 96.7263 1187.18 48.2618 1261.94 56.953C1351.5 56.7999 1561.69 86.2515 1662.25 192.369C1759.13 302.21 1895.12 407.223 1951 446" stroke="#FFEDE3" stroke-width="1.97826"/>
<path d="M2 353.221C86.1386 388.039 235.07 427.148 400.013 416.502C573.26 403.203 644.855 410.142 786.845 303.228C978.426 97.8193 1184.57 49.1097 1259.75 56.7478C1349.73 54.9664 1559.15 82.3249 1658 195.64C1753.9 311.945 1893.29 421.007 1951 461" stroke="#FFF0E9" stroke-width="1.78261"/>
<path d="M4 366.213C88.4546 400.523 235.29 438.728 395.02 430.764C560.976 420.817 651.605 417.004 782.994 309.446C976.491 100.623 1181.97 52.0319 1257.57 58.5596C1347.97 55.163 1556.62 80.2237 1653.75 199.89C1748.67 321.792 1891.47 434.089 1951 475" stroke="#FFF4EE" stroke-width="1.58696"/>
<path d="M6 380C90.7704 413.871 235.511 451.251 390.031 445.938C548.701 439.306 658.352 424.791 779.145 316.385C974.558 103.761 1179.37 55.1934 1255.38 60.6294C1346.2 55.6196 1554.08 78.4435 1649.5 204.66C1743.44 332.364 1889.64 448.097 1951 490" stroke="#FFF8F4" stroke-width="1.3913"/>
<path d="M8 393.375C93.1297 426.934 235.85 463.628 385.24 460.948C536.705 457.607 665.434 432.332 775.695 322.672C973.123 105.451 1177.37 56.726 1253.83 61.0902C1345.13 54.448 1552.35 75.1198 1646.1 208.36C1739.11 342.346 1888.79 461.947 1952 505" stroke="#FFFBF9" stroke-width="1.19565"/>
</svg>
