<svg width="1920" height="1502" viewBox="0 0 1920 1502" fill="none" xmlns="http://www.w3.org/2000/svg">
<path d="M-56.0458 833.608C-28.7558 754.062 76.408 619.517 278.743 717.699C531.661 840.426 550.55 927.085 647.253 848.998C743.955 770.91 826.793 684.878 987.743 661.814C1116.5 643.362 1292.75 797.308 1367.8 873.549C1415.76 922.264 1498.22 1037.09 1594.47 984.655C1714.78 919.106 1528.03 664.341 1795.42 567.782C2009.33 490.535 2244.61 642.473 2335.5 728.097" stroke="#2200F5"/>
<path d="M-28.7185 1110.61C33.3459 1188.6 219.203 1325.59 466.115 1249.66C774.756 1154.74 569.098 843.16 798.462 703.27C1027.82 563.38 968.667 1083.62 1419.3 609.288C1779.8 229.819 2035.59 526.43 2118.42 722.168" stroke="#767676" stroke-width="5"/>
<path d="M-57.6166 835.785C-30.2117 760.952 73.1458 633.909 270.756 729.666C516.919 849.016 539.402 932.873 637.115 856.383C736.063 779.514 816.558 692.836 971.64 666.441C1095.83 644.465 1265.25 787.87 1341.89 858.327C1392.51 902.335 1473.39 1016.47 1568.55 968.268C1686.79 907.483 1511.41 663.177 1776.99 561.026C1996.66 471.708 2232.73 629.612 2323.31 719.729" stroke="#2605F0" stroke-width="1.16"/>
<path d="M-59.7677 839.644C-32.1567 769.64 69.5842 650.238 262.495 743.183C501.931 858.675 527.938 939.543 626.798 864.701C728.128 789.099 806.419 701.867 955.755 672.04C1075.48 646.462 1238.04 778.883 1316.23 843.342C1369.51 882.509 1448.74 995.639 1542.91 951.672C1659.22 895.648 1495.34 662.449 1759.38 554.642C1985.03 453.217 2221.88 616.529 2312.1 710.864" stroke="#2909EB" stroke-width="1.32"/>
<path d="M-62.3311 842.311C-34.553 777.026 65.5153 665.116 253.818 755.527C486.643 867.505 516.231 945.538 616.215 872.272C719.905 797.866 795.954 709.98 939.556 676.766C1054.82 647.621 1210.63 769.394 1290.45 828.018C1346.42 862.445 1424.08 974.812 1517.26 935.055C1631.62 883.76 1479.06 661.156 1741.55 547.674C1973.19 434.111 2210.97 603.24 2300.9 702" stroke="#2C0EE6" stroke-width="1.48"/>
<path d="M-63.7829 844.832C-35.8915 784.184 62.399 679.659 246.121 767.836C472.366 876.672 505.592 952.027 606.622 880.289C712.594 807.032 786.315 718.391 924.12 681.833C1034.87 649.148 1183.99 760.585 1265.45 813.528C1324.13 843.31 1400.29 955.173 1492.43 919.637C1604.78 873.08 1463.42 660.585 1724.22 541.416C1961.7 415.671 2200.48 591.118 2290.18 694.56" stroke="#3013E1" stroke-width="1.64"/>
<path d="M-64.789 848.64C-36.7328 792.844 59.8231 696.013 238.685 781.359C458.007 886.315 494.742 958.64 596.816 888.599C705.064 816.659 776.502 727.537 908.432 687.611C1014.61 651.38 1156.75 751.832 1239.72 798.772C1301.01 823.714 1375.47 934.513 1466.52 903.229C1576.82 861.459 1447.06 660.131 1706.07 535.44C1949.33 397.733 2188.68 578.471 2277.94 686.054" stroke="#3318DC" stroke-width="1.8"/>
<path d="M-66.1654 851.379C-38.0049 800.256 56.7348 710.872 230.935 793.951C443.579 895.723 483.933 965.345 587.004 896.867C697.481 826.113 766.552 736.263 892.617 692.992C994.226 653.218 1129.6 743.262 1214.17 784.492C1278.13 804.772 1351.06 915.032 1441.03 887.998C1549.28 851 1430.78 659.892 1687.95 529.546C1936.92 379.679 2177.18 566.718 2266.19 678.971" stroke="#361CD7" stroke-width="1.96"/>
<path d="M-68.0956 855.876C-39.7096 809.585 53.4608 727.838 222.968 807.951C428.894 905.682 472.761 972.223 577.044 905.396C689.976 835.909 756.911 745.581 877.296 698.905C974.494 655.562 1103.02 734.552 1189.18 769.732C1255.83 785.138 1327.07 894.241 1416.08 871.392C1522.43 839.105 1415.48 659.261 1671.27 523.313C1926.44 361.44 2167.43 553.492 2256.02 669.752" stroke="#3A21D1" stroke-width="2.12"/>
<path d="M-69.3527 858.959C-40.8519 817.37 50.5179 743.109 215.338 820.877C414.553 915.324 462.022 979.118 567.309 913.875C682.475 845.593 747.055 754.567 861.574 704.536C954.203 657.644 1075.93 726.135 1163.67 755.561C1232.98 766.279 1302.67 874.772 1390.6 856.177C1494.9 828.668 1399.26 659.186 1653.23 517.594C1914.09 343.578 2155.95 541.804 2244.27 662.669" stroke="#3D26CC" stroke-width="2.28"/>
<path d="M-70.5287 862.278C-41.8866 825.404 47.7453 758.641 207.921 833.988C400.478 925.059 451.547 986.074 557.897 922.408C675.362 855.325 737.636 763.606 846.346 710.191C934.452 659.726 1049.4 717.638 1138.75 741.268C1210.74 747.269 1278.88 855.1 1365.77 840.749C1468.07 818.006 1383.76 658.992 1636.02 511.714C1902.73 325.513 2145.51 529.808 2233.56 655.231" stroke="#402AC7" stroke-width="2.44"/>
<path d="M-72.163 867.628C-43.3545 835.543 44.5725 776.373 199.975 848.929C385.719 936.177 440.311 994.189 547.751 932.176C667.54 866.365 727.578 774.156 830.496 717.407C914.101 663.432 1022.18 710.496 1113.08 728.18C1187.72 729.378 1254.18 836.173 1340.02 826.018C1440.31 808 1367.5 659.979 1618.13 507.193C1890.77 309.085 2134.18 518.617 2221.81 648.146" stroke="#442FC2" stroke-width="2.6"/>
<path d="M-73.0796 871.696C-44.1525 844.316 41.9837 792.639 192.737 862.94C371.816 947.008 430.023 1002.34 538.46 941.895C660.476 877.279 718.137 784.3 815.182 724.147C894.206 666.573 995.492 703.147 1087.97 715.097C1165.28 711.615 1230.22 817.908 1315 812.043C1413.26 798.836 1351.71 661.1 1600.48 502.58C1878.75 292.192 2123.14 508.191 2210.55 642.489" stroke="#4734BD" stroke-width="2.76"/>
<path d="M-74.862 876.617C-45.7445 853.988 38.7641 809.838 184.888 877.406C357.324 957.725 419.109 1010.09 528.743 951.245C653.204 887.835 708.69 794.293 800.044 730.769C874.65 669.649 969.171 695.437 1063.3 701.458C1143.34 693.176 1206.66 798.517 1290.46 796.827C1386.79 788.317 1336.69 661.424 1584.08 497.271C1868.58 274.819 2113.82 496.193 2200.88 634.687" stroke="#4A39B8" stroke-width="2.92"/>
<path d="M-74.8458 883.379C-45.5944 865.497 37.1439 828.894 178.523 893.928C344.182 970.733 409.52 1020.25 520.17 963.024C646.874 900.862 700.041 806.712 785.542 739.84C855.59 675.184 943.261 690.31 1038.94 690.496C1121.61 677.478 1183.32 782.027 1266.05 784.577C1360.33 780.834 1321.62 664.596 1567.19 494.867C1857.42 260.384 2103.4 487.555 2190.11 630.451" stroke="#4E3DB3" stroke-width="3.08"/>
<path d="M-74.9296 889.851C-45.5289 876.709 35.4823 847.636 172.192 910.178C331.161 983.519 400.087 1030.21 511.806 974.584C640.815 913.638 691.685 818.825 771.376 748.564C836.9 680.334 917.765 684.806 1015.03 679.157C1100.38 661.398 1160.51 765.221 1242.21 772.017C1334.49 773.043 1307.15 667.394 1551.03 491.994C1847.1 245.347 2093.96 478.464 2180.39 625.853" stroke="#5142AE" stroke-width="3.24"/>
<path d="M-74.3085 898.36C-44.7704 889.97 34.4808 868.456 166.531 928.694C318.821 998.786 391.346 1042.78 504.069 988.744C635.308 929.015 683.801 833.422 757.607 759.704C818.54 687.824 892.572 681.672 991.398 670.238C1079.38 647.763 1138 751.064 1218.65 762.184C1308.92 768.058 1292.88 672.849 1534.88 491.659C1836.53 232.646 2084.38 472.273 2170.6 624.464" stroke="#5447A9" stroke-width="3.4"/>
<path d="M-73.9761 909.393C-44.2609 905.731 33.3347 891.712 160.713 949.137C306.31 1015.39 382.41 1056.36 496.334 1003.92C630.028 945.403 676.369 849.331 744.493 772.319C801.022 696.971 868.292 680.078 968.782 662.713C1059.51 635.441 1116.46 737.678 1196.11 752.92C1284.43 763.44 1279.87 679.096 1520.53 492.395C1828.53 221.501 2077.11 466.16 2162.9 622.351" stroke="#584BA4" stroke-width="3.56"/>
<path d="M-74.1349 919.006C-44.2674 920.095 31.6046 913.622 154.316 968.568C293.224 1031.37 372.917 1069.53 487.911 1018.69C623.912 961.383 667.949 864.631 730.253 784.21C782.249 705.267 842.704 677.695 944.786 654.489C1038.19 622.469 1093.57 724 1172.19 743.504C1258.51 758.81 1265.33 685.066 1504.29 492.662C1818.12 209.55 2067.61 460.231 2153.12 620.96" stroke="#5B509F" stroke-width="3.72"/>
<path d="M-72.7633 929.681C-42.7711 935.481 31.3192 936.494 149.218 988.685C281.274 1047.73 364.459 1082.88 480.474 1033.69C618.721 977.653 660.509 880.484 717.02 796.857C764.517 714.526 818.14 676.329 921.755 647.271C1017.79 610.525 1071.47 710.986 1148.97 734.613C1233.22 754.572 1251.46 691.627 1488.69 493.912C1808.36 199.201 2058.32 454.886 2143.34 619.567" stroke="#5F559A" stroke-width="3.88"/>
<path d="M-71.884 938.936C-41.7398 949.484 30.6275 958.04 143.86 1007.75C269.231 1063.34 356.006 1095.69 473.092 1048.09C613.644 993.269 653.129 895.42 703.823 808.387C746.79 722.464 793.601 673.593 898.807 638.696C997.513 597.204 1049.62 696.958 1126.1 724.845C1208.35 749.587 1237.96 697.238 1473.49 493.824C1799 186.903 2049.86 448.603 2134.6 617.818" stroke="#625A94" stroke-width="4.04"/>
<path d="M-71.0059 948.187C-40.7182 963.494 29.9004 979.615 138.426 1026.86C257.064 1079.01 347.394 1108.56 465.49 1062.58C608.276 1009 645.426 910.479 690.263 820.041C728.665 730.527 768.63 670.972 875.371 630.249C976.695 584.023 1027.23 683.077 1102.65 715.241C1182.88 744.784 1223.84 703.057 1457.53 493.977C1788.66 174.894 2040.36 442.657 2124.82 616.424" stroke="#655E8F" stroke-width="4.2"/>
<path d="M-64.1426 974.725C-33.6919 994.776 35.232 1018.43 139.117 1063.13C251.096 1111.76 345.042 1138.46 464.271 1094.06C609.437 1041.68 644.328 942.5 683.39 848.665C717.3 755.569 750.475 685.323 858.859 638.731C962.907 587.738 1011.87 686.029 1086.28 722.426C1164.54 756.726 1216.91 725.63 1449.05 510.844C1786.23 179.549 2038.86 453.163 2123.02 631.382" stroke="#69638A" stroke-width="4.36"/>
<path d="M-55.973 1008.39C-25.3592 1033.23 41.858 1064.47 141.084 1106.71C246.382 1151.9 343.925 1175.81 464.226 1133.01C611.7 1081.86 644.274 981.953 677.498 884.656C706.859 787.913 733.195 706.916 843.162 654.461C949.876 598.699 997.281 696.328 1070.68 737.027C1146.96 776.153 1210.72 755.705 1441.13 535.136C1784.1 191.499 2037.69 471.308 2121.61 654.167" stroke="#6C6885" stroke-width="4.52"/>
<path d="M-47.7451 1042.23C-16.9695 1071.84 48.5386 1110.66 143.093 1150.41C241.696 1192.13 342.829 1213.22 464.203 1172.03C613.987 1122.1 644.254 1021.5 671.648 920.764C696.465 820.394 715.963 728.648 827.512 670.325C936.891 609.795 982.729 706.72 1055.1 751.705C1129.4 795.64 1204.56 785.866 1433.25 559.553C1782.03 203.634 2036.54 489.521 2120.2 676.954" stroke="#6F6D80" stroke-width="4.68"/>
<path d="M-38.0435 1076.97C-7.15573 1111.21 56.5677 1157.4 146.369 1194.42C238.194 1232.42 342.853 1250.51 465.299 1210.91C617.388 1162.21 645.453 1061.22 667.125 957.352C687.509 853.671 700.274 751.485 813.431 687.369C925.504 622.153 969.646 718 1040.92 767.029C1113.15 815.535 1199.67 816.352 1426.82 584.798C1781.69 217.401 2036.69 508.106 2119.83 699.383" stroke="#73717B" stroke-width="4.84"/>
</svg>
