<svg id="visual" viewBox="0 0 1920 300" width="1920" height="300" xmlns="http://www.w3.org/2000/svg" xmlns:xlink="http://www.w3.org/1999/xlink" version="1.1"><path d="M0 2L175 110L349 36L524 12L698 94L873 117L1047 46L1222 56L1396 34L1571 112L1745 25L1920 69L1920 301L1745 301L1571 301L1396 301L1222 301L1047 301L873 301L698 301L524 301L349 301L175 301L0 301Z" fill="#3920d3"></path><path d="M0 140L175 78L349 72L524 92L698 147L873 106L1047 135L1222 71L1396 91L1571 118L1745 73L1920 124L1920 301L1745 301L1571 301L1396 301L1222 301L1047 301L873 301L698 301L524 301L349 301L175 301L0 301Z" fill="#4330c7"></path><path d="M0 181L175 169L349 203L524 133L698 203L873 237L1047 125L1222 139L1396 176L1571 125L1745 206L1920 174L1920 301L1745 301L1571 301L1396 301L1222 301L1047 301L873 301L698 301L524 301L349 301L175 301L0 301Z" fill="#4c3bba"></path><path d="M0 203L175 266L349 243L524 268L698 273L873 261L1047 261L1222 234L1396 258L1571 229L1745 221L1920 250L1920 301L1745 301L1571 301L1396 301L1222 301L1047 301L873 301L698 301L524 301L349 301L175 301L0 301Z" fill="#5445ad"></path></svg>