<svg id="visual" viewBox="0 0 1920 300" width="1920" height="300" xmlns="http://www.w3.org/2000/svg" xmlns:xlink="http://www.w3.org/1999/xlink" version="1.1"><path d="M0 119L175 4L349 102L524 12L698 107L873 64L1047 35L1222 84L1396 59L1571 26L1745 71L1920 39L1920 301L1745 301L1571 301L1396 301L1222 301L1047 301L873 301L698 301L524 301L349 301L175 301L0 301Z" fill="#3920d3"></path><path d="M0 153L175 155L349 141L524 177L698 167L873 173L1047 73L1222 133L1396 144L1571 59L1745 151L1920 73L1920 301L1745 301L1571 301L1396 301L1222 301L1047 301L873 301L698 301L524 301L349 301L175 301L0 301Z" fill="#4330c7"></path><path d="M0 164L175 202L349 162L524 131L698 211L873 217L1047 238L1222 196L1396 239L1571 128L1745 175L1920 178L1920 301L1745 301L1571 301L1396 301L1222 301L1047 301L873 301L698 301L524 301L349 301L175 301L0 301Z" fill="#4c3bba"></path><path d="M0 264L175 223L349 229L524 245L698 215L873 244L1047 286L1222 185L1396 284L1571 200L1745 264L1920 277L1920 301L1745 301L1571 301L1396 301L1222 301L1047 301L873 301L698 301L524 301L349 301L175 301L0 301Z" fill="#5445ad"></path></svg>