<svg width="931" height="1323" viewBox="0 0 931 1323" fill="none" xmlns="http://www.w3.org/2000/svg">
<path d="M1048.65 1025.22C964.341 1044.03 788.898 1044.89 761.594 897.83C734.291 750.765 629.108 713.914 579.929 713.871C524.767 691.535 452.682 603.544 605.645 430.268C673.862 384.215 803.838 268.052 778.007 171.828C752.177 75.6036 897.74 17.5077 973.751 0.487812" stroke="black"/>
<path d="M1010.07 1118.84C946.662 1177.73 784.388 1256.28 642.55 1099.45C465.254 903.422 449.459 914.359 342.135 922.296C256.275 928.646 197.74 867.727 179.205 836.474C157.288 763.552 154.878 589.295 320.571 475.65C527.687 333.593 359.076 281.12 411.823 154.907C454.02 53.9365 628.94 13.0395 711.126 5.21234" stroke="#FF5500" stroke-width="8"/>
<path d="M1045.3 1029.82C1002.14 1041.58 932.565 1050 870.752 1027.47C807.25 1003.08 758.225 968.788 740.112 899.135C710.021 759.376 607.059 721.378 559.34 719.849C505.76 695.105 436.993 603.006 590.562 432.569C665.393 381.944 781.151 268.815 759.062 171.162C736.471 74.7119 883.433 17.4351 959.737 0.852932" stroke="#0C0400" stroke-width="1.33333"/>
<path d="M1042.07 1034.4C997.894 1048.52 923.686 1060.46 857.871 1031.21C788.68 998.231 741.316 966.203 718.743 900.43C685.863 767.976 585.123 728.832 538.862 725.817C486.866 698.664 421.417 602.457 575.592 434.86C657.038 379.664 758.577 269.567 740.23 170.486C720.878 73.81 869.237 17.3521 945.836 1.20771" stroke="#180800" stroke-width="1.66667"/>
<path d="M1038.96 1038.98C993.769 1055.46 914.926 1070.9 845.11 1034.94C770.228 993.376 724.526 963.61 697.493 901.716C661.824 776.567 563.305 736.278 518.504 731.776C468.091 702.214 405.959 601.899 560.741 437.142C648.801 377.374 736.122 270.31 721.517 169.801C705.404 72.899 855.162 17.2601 932.054 1.55345" stroke="#240C00" stroke-width="2"/>
<path d="M1035.97 1043.55C989.769 1062.38 906.291 1081.33 832.474 1038.65C751.902 988.511 707.862 961.005 676.368 902.991C637.911 785.148 541.613 743.712 498.271 737.725C449.441 705.753 390.627 601.331 546.015 439.413C640.689 375.073 713.792 271.042 702.928 169.106C690.055 71.9774 841.211 17.1575 918.397 1.88864" stroke="#311000" stroke-width="2.33333"/>
<path d="M1033.11 1048.11C985.9 1069.3 897.787 1091.75 819.969 1042.36C733.708 983.635 691.329 958.391 655.374 904.256C614.129 793.718 520.052 751.137 478.17 743.663C430.923 709.283 375.427 600.752 531.421 441.674C632.709 372.763 691.593 271.764 684.472 168.4C674.838 71.0455 827.391 17.0446 904.872 2.21344" stroke="#3D1400" stroke-width="2.66667"/>
<path d="M1030.4 1052.66C982.17 1076.2 889.421 1102.16 807.602 1046.05C715.651 978.746 674.934 955.763 634.518 905.508C590.484 802.276 498.629 758.548 458.206 749.588C412.542 712.799 360.364 600.16 516.965 443.922C624.867 370.439 669.533 272.474 666.153 167.681C659.759 70.1005 813.71 16.9186 891.484 2.52517" stroke="#491800" stroke-width="3"/>
<path d="M1027.82 1057.19C978.584 1083.09 881.2 1112.55 795.379 1049.73C697.739 973.844 658.683 953.122 613.807 906.747C566.985 810.82 477.351 765.946 438.387 755.5C394.306 716.302 345.446 599.556 502.653 446.156C617.169 368.102 647.616 273.17 647.978 166.949C644.824 69.1425 800.173 16.7796 878.242 2.82395" stroke="#551C00" stroke-width="3.33333"/>
<path d="M1025.4 1061.7C975.149 1089.96 873.131 1122.93 783.309 1053.4C679.979 968.927 642.584 950.467 593.248 907.97C543.637 819.349 456.225 773.329 418.72 761.397C376.222 719.79 330.68 598.936 488.493 448.376C609.624 365.75 625.852 273.851 629.956 166.202C630.041 68.1697 786.788 16.6258 865.151 3.10788" stroke="#612000" stroke-width="3.66667"/>
<path d="M1023.14 1066.21C971.873 1096.82 865.219 1133.3 771.396 1057.05C662.376 963.996 626.644 947.798 572.846 909.181C520.447 827.865 435.256 780.699 399.211 767.281C358.296 723.265 316.072 598.303 474.491 450.583C602.236 363.385 604.246 274.518 612.091 165.441C615.416 67.183 773.561 16.4581 852.217 3.37797" stroke="#6D2400" stroke-width="4"/>
<path d="M1021.04 1070.7C968.761 1103.66 857.473 1143.65 759.648 1060.68C644.939 959.051 610.867 945.113 552.61 910.376C497.422 836.366 414.453 788.054 379.866 773.149C340.535 726.724 301.628 597.654 460.653 452.774C595.013 361.005 582.804 275.171 594.392 164.666C600.956 66.1816 760.498 16.2756 839.449 3.6332" stroke="#792800" stroke-width="4.33333"/>
<path d="M1019.11 1075.17C965.822 1110.49 849.898 1153.98 748.072 1064.3C627.673 954.087 595.263 942.411 532.545 911.554C474.569 844.849 393.821 795.391 360.693 779C322.945 730.166 287.356 596.988 446.988 454.947C587.961 358.606 561.535 275.805 576.864 163.873C586.667 65.1623 747.608 16.0754 826.853 3.87068" stroke="#862D00" stroke-width="4.66667"/>
<path d="M1017.36 1079.62C963.059 1117.3 842.5 1164.3 736.673 1067.9C610.584 949.106 579.836 939.692 512.657 912.713C451.893 853.314 373.366 802.71 341.698 784.833C305.532 733.59 273.262 596.305 433.499 457.103C581.087 356.191 540.442 276.422 559.513 163.062C572.555 64.1253 734.894 15.8574 814.433 4.09043" stroke="#923100" stroke-width="5"/>
<path d="M1015.79 1084.06C960.479 1124.09 835.285 1174.59 725.457 1071.49C593.679 944.108 564.592 936.954 492.952 913.855C429.4 861.762 353.094 810.011 322.885 790.648C288.303 736.997 259.35 595.603 420.194 459.241C574.396 353.757 519.532 277.022 542.345 162.233C558.627 63.0707 722.364 15.6218 802.197 4.29258" stroke="#9E3500" stroke-width="5.33333"/>
<path d="M1014.41 1088.47C958.087 1130.86 828.258 1184.87 714.429 1075.05C576.96 939.087 549.535 934.195 473.435 914.976C407.094 870.187 333.009 817.291 304.26 796.441C271.261 740.381 245.626 594.88 407.075 461.357C567.892 351.302 498.81 277.599 525.364 161.382C544.886 61.9939 710.02 15.364 790.147 4.47253" stroke="#AA3900" stroke-width="5.66667"/>
<path d="M1013.22 1092.87C955.884 1137.61 821.42 1195.13 703.59 1078.59C560.432 934.05 534.668 931.419 454.107 916.079C384.978 878.596 313.115 824.554 285.824 802.218C254.409 743.749 232.092 594.139 394.148 463.457C561.578 348.829 478.278 278.16 508.574 160.515C531.335 60.9003 697.867 15.0894 778.288 4.6357" stroke="#B63D00" stroke-width="6"/>
<path d="M1012.22 1097.24C953.876 1144.34 814.777 1205.37 692.946 1082.12C544.097 928.991 519.995 928.622 434.974 917.161C363.056 886.984 293.414 831.795 267.583 807.973C237.751 747.095 218.751 593.378 381.413 465.535C555.458 346.336 457.939 278.699 491.978 159.626C517.978 59.7859 685.908 14.7939 766.623 4.77796" stroke="#C24100" stroke-width="6.33333"/>
<path d="M1011.42 1101.6C952.061 1151.06 808.326 1215.59 682.494 1085.62C527.956 923.914 505.515 925.806 416.033 918.225C341.327 895.353 273.907 839.018 249.535 813.71C221.285 750.423 205.604 592.598 368.872 467.594C549.531 343.824 437.794 279.22 475.574 158.719C504.814 58.6526 674.142 14.4796 755.151 4.90144" stroke="#CE4500" stroke-width="6.66667"/>
<path d="M1010.81 1105.94C950.436 1157.75 802.067 1225.79 672.233 1089.1C512.006 918.816 491.227 922.969 397.284 919.267C319.79 903.701 254.59 846.22 231.678 819.426C205.012 753.73 192.648 591.797 356.522 469.633C543.796 341.291 417.84 279.72 459.362 157.791C491.841 57.4983 662.567 14.1443 743.87 5.00382" stroke="#DB4900" stroke-width="7"/>
<path d="M1010.38 1110.25C949 1164.42 795.996 1235.97 662.16 1092.57C496.243 913.7 477.126 920.114 378.722 920.293C298.439 912.031 235.462 853.405 214.008 825.124C188.925 757.02 179.879 590.979 344.36 471.654C538.247 338.74 398.073 280.202 443.337 156.845C479.055 56.3268 651.18 13.7918 732.777 5.08911" stroke="#E74D00" stroke-width="7.33333"/>
<path d="M1010.14 1114.56C947.744 1171.08 790.105 1246.13 652.269 1096.02C480.662 908.569 463.206 917.245 360.342 921.302C277.271 920.347 216.514 860.574 196.52 830.807C173.02 760.294 167.292 590.145 332.379 473.66C532.88 336.175 378.488 280.669 427.493 155.884C466.451 55.1399 639.973 13.4239 721.865 5.15891" stroke="#F35100" stroke-width="7.66667"/>
<path d="M906.583 1045.02L915.436 921.59L938.66 923.256L929.807 1046.69L906.583 1045.02Z" fill="#4F4F4F"/>
<path d="M869.135 911.197C875.725 912.737 881.391 915.164 886.132 918.478C890.861 921.845 894.616 925.839 897.397 930.46C900.126 935.069 901.878 940.084 902.652 945.505C903.414 950.978 903.135 956.539 901.815 962.188L901.082 965.326C899.578 971.759 897.288 977.429 894.211 982.336C891.134 987.243 887.437 991.261 883.121 994.389C878.752 997.505 873.865 999.535 868.46 1000.48C863.043 1001.47 857.248 1001.25 851.077 999.808C845.062 998.402 839.959 996.162 835.769 993.087C831.578 990.012 828.342 986.277 826.059 981.883C823.724 977.476 822.345 972.52 821.921 967.016C821.485 961.564 821.995 955.726 823.449 949.502L825.649 940.087L893.118 955.853L889.599 970.916L844.331 960.338L843.928 962.064C843.195 965.202 843.116 968.135 843.692 970.862C844.204 973.629 845.413 976.008 847.32 977.998C849.227 979.988 851.932 981.392 855.437 982.211C858.418 982.908 861.133 982.853 863.583 982.046C866.033 981.24 868.213 979.819 870.123 977.783C871.98 975.735 873.622 973.195 875.047 970.163C876.408 967.172 877.529 963.793 878.409 960.028L879.142 956.89C879.936 953.49 880.199 950.242 879.93 947.145C879.608 944.036 878.803 941.228 877.513 938.721C876.172 936.201 874.354 934.066 872.06 932.317C869.714 930.555 866.893 929.289 863.598 928.519C859.518 927.566 855.543 927.464 851.672 928.214C847.737 929.005 844.109 930.722 840.788 933.366L832.591 918.874C834.969 916.727 837.975 914.837 841.611 913.205C845.194 911.56 849.308 910.48 853.951 909.966C858.582 909.503 863.643 909.914 869.135 911.197Z" fill="#4F4F4F"/>
<path d="M800.046 904.774C797.47 903.563 794.957 902.974 792.508 903.009C790.035 903.092 787.816 903.77 785.853 905.043C783.818 906.341 782.193 908.218 780.978 910.674L761.221 901.381C763.876 895.863 767.679 891.628 772.629 888.673C777.557 885.768 783.059 884.23 789.133 884.061C795.185 883.939 801.249 885.307 807.324 888.165C813.448 891.045 818.315 894.581 821.923 898.771C825.483 902.938 827.924 907.529 829.246 912.543C830.545 917.606 830.816 922.897 830.059 928.417C829.28 933.986 827.587 939.541 824.981 945.082L823.987 947.196C821.358 952.786 818.158 957.632 814.388 961.735C810.596 965.887 806.347 969.052 801.642 971.231C796.914 973.459 791.81 974.531 786.329 974.446C780.849 974.361 775.071 972.89 768.996 970.033C762.532 966.992 757.452 963.09 753.758 958.325C750.015 953.537 747.844 948.183 747.245 942.263C746.575 936.368 747.691 930.274 750.591 923.982L770.348 933.275C769.162 935.922 768.601 938.566 768.664 941.208C768.679 943.827 769.386 946.236 770.784 948.437C772.111 950.664 774.208 952.452 777.076 953.801C780.138 955.241 782.95 955.762 785.511 955.364C788.049 955.015 790.379 953.974 792.5 952.241C794.598 950.557 796.529 948.408 798.292 945.795C799.984 943.207 801.55 940.383 802.99 937.321L803.984 935.206C805.425 932.144 806.613 929.112 807.55 926.111C808.488 923.109 808.936 920.263 808.895 917.573C808.806 914.86 808.087 912.414 806.737 910.236C805.387 908.058 803.157 906.237 800.046 904.774Z" fill="#4F4F4F"/>
<path d="M690.359 919.644L699.734 906.145L741.422 935.099L732.047 948.598L690.359 919.644ZM709.453 959.096L690.395 945.86L737.412 878.166C738.852 876.093 739.69 874.321 739.927 872.85C740.119 871.349 739.817 869.995 739.021 868.788C738.194 867.625 736.942 866.461 735.265 865.297C734.074 864.47 732.985 863.778 731.997 863.223C730.935 862.681 730.027 862.247 729.273 861.92L738.95 847.845C740.95 848.45 743.006 849.256 745.117 850.265C747.229 851.274 749.431 852.575 751.725 854.168C755.916 857.079 759.103 860.305 761.285 863.848C763.393 867.405 764.212 871.309 763.744 875.561C763.275 879.814 761.295 884.454 757.802 889.483L709.453 959.096Z" fill="#4F4F4F"/>
<path d="M677.58 882.265L723.808 832.178L740.859 847.916L681.735 911.974L665.691 897.166L677.58 882.265ZM645.001 878.838L659.887 863.304C660.607 864.187 661.522 865.215 662.633 866.387C663.668 867.561 664.66 868.586 665.607 869.46C668.015 871.682 670.398 873.297 672.757 874.305C675.04 875.316 677.32 875.776 679.597 875.684C681.834 875.557 684.032 874.918 686.191 873.767C688.31 872.58 690.411 870.937 692.493 868.839L694.943 873.074C691.118 877.218 687.189 880.645 683.154 883.353C679.083 886.101 675.056 888.049 671.073 889.196C667.05 890.308 663.219 890.499 659.579 889.771C655.939 889.043 652.619 887.294 649.619 884.525C648.672 883.651 647.778 882.68 646.937 881.611C646.059 880.582 645.414 879.658 645.001 878.838Z" fill="#4F4F4F"/>
<path d="M674.016 845.277L672.657 846.284C667.522 850.09 662.253 852.859 656.85 854.59C651.405 856.352 646.046 857.015 640.774 856.577C635.502 856.138 630.462 854.525 625.655 851.737C620.804 848.981 616.412 844.949 612.478 839.641C608.545 834.333 605.949 828.937 604.691 823.451C603.39 817.997 603.297 812.685 604.411 807.513C605.494 802.298 607.67 797.342 610.941 792.645C614.169 787.98 618.351 783.744 623.486 779.939L624.845 778.931C629.937 775.158 635.206 772.389 640.651 770.626C646.054 768.895 651.429 768.254 656.776 768.704C662.048 769.142 667.088 770.755 671.895 773.544C676.702 776.332 681.073 780.38 685.007 785.687C688.94 790.995 691.558 796.376 692.859 801.83C694.128 807.24 694.221 812.553 693.138 817.767C691.981 822.971 689.788 827.905 686.56 832.571C683.289 837.268 679.108 841.503 674.016 845.277ZM658.841 827.643L660.2 826.636C663.134 824.461 665.683 822.171 667.845 819.766C670.007 817.362 671.643 814.879 672.754 812.318C673.789 809.745 674.158 807.132 673.862 804.477C673.565 801.822 672.426 799.156 670.443 796.481C668.524 793.892 666.338 792.069 663.884 791.013C661.43 789.957 658.838 789.572 656.107 789.857C653.334 790.174 650.483 791.018 647.553 792.387C644.591 793.713 641.643 795.463 638.709 797.638L637.349 798.645C634.501 800.756 632.034 803.019 629.947 805.435C627.785 807.84 626.164 810.344 625.086 812.948C623.933 815.541 623.483 818.181 623.736 820.869C623.989 823.556 625.091 826.215 627.042 828.847C628.993 831.48 631.217 833.308 633.714 834.332C636.179 835.313 638.836 835.65 641.684 835.344C644.458 835.027 647.309 834.184 650.239 832.815C653.125 831.478 655.993 829.754 658.841 827.643Z" fill="#4F4F4F"/>
<path d="M586.698 760.313L682.244 719.416L691.374 740.747L580.423 788.238L571.958 768.462L586.698 760.313ZM588.757 699.4L590.312 698.735C596.139 696.241 601.841 694.618 607.42 693.865C612.978 693.064 618.169 693.179 622.992 694.211C627.766 695.264 632.025 697.297 635.769 700.31C639.442 703.295 642.356 707.306 644.512 712.342C646.604 717.231 647.435 721.9 647.002 726.35C646.57 730.8 645.105 735.02 642.606 739.011C640.037 742.973 636.7 746.71 632.594 750.22C628.488 753.73 623.888 757.043 618.794 760.158L614.721 761.902C608.556 763.606 602.737 764.752 597.264 765.342C591.742 765.954 586.685 765.81 582.094 764.912C577.433 763.986 573.354 762.169 569.857 759.459C566.339 756.7 563.544 752.901 561.473 748.062C559.296 742.976 558.346 738.095 558.623 733.419C558.879 728.694 560.249 724.251 562.734 720.092C565.197 715.882 568.637 712.044 573.053 708.576C577.449 705.059 582.683 702 588.757 699.4ZM599.474 720.14L597.919 720.806C594.512 722.264 591.503 723.902 588.893 725.721C586.212 727.511 584.05 729.488 582.405 731.653C580.74 733.768 579.737 736.066 579.398 738.549C578.988 741.003 579.374 743.612 580.558 746.378C581.805 749.291 583.341 751.584 585.167 753.256C586.972 754.879 589.038 755.952 591.365 756.475C593.692 756.998 596.227 757.052 598.971 756.637C601.715 756.222 604.674 755.423 607.848 754.239L618.143 749.833C621.691 748.022 624.679 745.925 627.106 743.542C629.484 741.181 631.005 738.456 631.669 735.367C632.334 732.278 631.842 728.808 630.193 724.957C628.988 722.142 627.357 720.036 625.298 718.639C623.19 717.263 620.771 716.457 618.042 716.223C615.292 715.94 612.354 716.175 609.229 716.928C606.084 717.632 602.832 718.703 599.474 720.14Z" fill="#4F4F4F"/>
<path d="M625.204 640.507C626.4 647.168 626.415 653.332 625.25 658.998C624.031 664.674 621.851 669.704 618.709 674.088C615.558 678.419 611.647 682.014 606.976 684.871C602.252 687.739 597.035 689.685 591.326 690.71L588.154 691.28C581.652 692.447 575.538 692.59 569.814 691.708C564.089 690.826 558.936 689.023 554.354 686.298C549.762 683.521 545.963 679.838 542.956 675.248C539.897 670.668 537.807 665.259 536.687 659.02C535.595 652.941 535.631 647.368 536.795 642.303C537.959 637.237 540.107 632.786 543.238 628.949C546.359 625.06 550.364 621.831 555.25 619.262C560.084 616.702 565.646 614.858 571.937 613.728L581.453 612.019L593.698 680.216L578.473 682.95L570.257 637.195L568.513 637.508C565.341 638.077 562.617 639.167 560.341 640.776C558.003 642.342 556.298 644.394 555.226 646.933C554.153 649.472 553.935 652.513 554.571 656.055C555.112 659.068 556.238 661.54 557.949 663.47C559.66 665.4 561.828 666.839 564.454 667.786C567.07 668.681 570.053 669.182 573.401 669.29C576.687 669.355 580.233 669.046 584.039 668.362L587.211 667.793C590.647 667.176 593.734 666.131 596.47 664.657C599.198 663.13 601.457 661.279 603.249 659.101C605.032 656.871 606.272 654.357 606.97 651.558C607.658 648.705 607.703 645.614 607.105 642.284C606.365 638.16 604.884 634.47 602.662 631.213C600.377 627.912 597.364 625.261 593.621 623.259L603.681 609.993C606.594 611.325 609.52 613.337 612.459 616.029C615.389 618.668 618.009 622.018 620.321 626.077C622.579 630.146 624.207 634.956 625.204 640.507Z" fill="#4F4F4F"/>
<path d="M551.688 586.169L619.847 586.117L619.865 609.32L532.692 609.387L532.675 587.554L551.688 586.169ZM532.09 559.92L553.602 560.306C553.441 561.434 553.308 562.804 553.202 564.415C553.042 565.973 552.963 567.396 552.964 568.685C552.966 571.962 553.398 574.808 554.259 577.224C555.067 579.587 556.277 581.573 557.889 583.183C559.502 584.74 561.463 585.92 563.773 586.724C566.084 587.474 568.716 587.902 571.67 588.007L570.223 592.681C564.584 592.685 559.4 592.125 554.673 591.001C549.892 589.877 545.728 588.242 542.181 586.096C538.635 583.897 535.893 581.213 533.957 578.046C532.021 574.878 531.052 571.253 531.048 567.171C531.047 565.882 531.154 564.566 531.368 563.223C531.528 561.881 531.769 560.779 532.09 559.92Z" fill="#4F4F4F"/>
<path d="M628.245 523.079C627.051 529.741 624.924 535.526 621.862 540.434C618.748 545.333 614.956 549.292 610.486 552.311C606.026 555.277 601.11 557.288 595.737 558.345C590.311 559.392 584.743 559.404 579.033 558.382L575.861 557.814C569.358 556.649 563.576 554.658 558.515 551.842C553.453 549.026 549.248 545.544 545.898 541.398C542.558 537.198 540.275 532.424 539.051 527.075C537.773 521.717 537.693 515.919 538.81 509.681C539.899 503.601 541.87 498.388 544.722 494.042C547.573 489.697 551.134 486.269 555.403 483.76C559.681 481.198 564.558 479.561 570.033 478.85C575.455 478.13 581.311 478.333 587.603 479.46L597.119 481.164L584.904 549.366L569.678 546.639L577.873 500.88L576.128 500.568C572.956 499.999 570.024 500.074 567.33 500.792C564.594 501.448 562.282 502.78 560.394 504.788C558.507 506.797 557.246 509.572 556.611 513.114C556.072 516.128 556.268 518.837 557.202 521.241C558.135 523.646 559.669 525.748 561.802 527.549C563.944 529.297 566.566 530.803 569.668 532.068C572.727 533.271 576.159 534.213 579.966 534.895L583.138 535.463C586.575 536.078 589.832 536.171 592.91 535.74C595.998 535.256 598.76 534.305 601.197 532.886C603.643 531.414 605.68 529.487 607.307 527.105C608.944 524.67 610.06 521.787 610.657 518.456C611.395 514.332 611.289 510.357 610.337 506.531C609.342 502.642 607.438 499.109 604.624 495.931L618.666 486.988C620.935 489.249 622.98 492.153 624.8 495.698C626.63 499.191 627.923 503.242 628.68 507.852C629.384 512.452 629.239 517.528 628.245 523.079Z" fill="#4F4F4F"/>
<path d="M634.697 439.213L538.205 398.484L547.291 376.958L661.3 425.082L653.123 444.455L634.697 439.213ZM591.593 480.835L590.035 480.177C583.899 477.587 578.624 474.544 574.211 471.049C569.749 467.533 566.275 463.677 563.791 459.48C561.307 455.283 559.9 450.812 559.571 446.068C559.241 441.323 560.132 436.452 562.241 431.454C564.225 426.753 566.949 423.064 570.411 420.386C573.894 417.658 577.989 415.83 582.695 414.902C587.373 413.903 592.509 413.681 598.105 414.236C603.651 414.77 609.49 415.922 615.622 417.694L619.036 419.136C624.335 422.189 629.061 425.495 633.213 429.055C637.366 432.615 640.715 436.419 643.263 440.468C645.781 444.446 647.278 448.634 647.753 453.032C648.229 457.431 647.464 462.005 645.459 466.755C643.349 471.753 640.455 475.778 636.776 478.831C633.118 481.834 628.894 483.899 624.105 485.026C619.336 486.103 614.185 486.29 608.652 485.587C603.119 484.883 597.432 483.299 591.593 480.835ZM599.058 458.8L600.617 459.458C603.932 460.857 607.129 461.915 610.208 462.632C613.308 463.299 616.222 463.509 618.95 463.261C621.649 462.943 624.025 462.08 626.076 460.673C628.1 459.195 629.706 457.045 630.897 454.225C632.443 450.563 632.9 447.2 632.27 444.135C631.59 441.05 630.051 438.273 627.654 435.803C625.278 433.284 622.226 431.122 618.499 429.316L608.776 425.211C605.596 424.044 602.612 423.309 599.825 423.007C597.008 422.634 594.417 422.765 592.051 423.399C589.706 423.983 587.61 425.08 585.764 426.691C583.939 428.253 582.452 430.395 581.303 433.116C580.133 435.887 579.774 438.534 580.225 441.056C580.627 443.558 581.655 445.887 583.31 448.043C584.986 450.149 587.183 452.126 589.902 453.973C592.591 455.75 595.644 457.359 599.058 458.8Z" fill="#4F4F4F"/>
<path d="M675.201 372.747L643.632 350.134C641.361 348.507 639.152 347.487 637.005 347.072C634.814 346.626 632.697 346.86 630.654 347.775C628.643 348.646 626.761 350.305 625.009 352.75C623.508 354.846 622.581 356.924 622.229 358.984C621.833 361.013 622.014 362.926 622.774 364.726C623.489 366.494 624.742 368.019 626.533 369.301L613.021 388.164C610.008 386.006 607.648 383.259 605.942 379.922C604.236 376.586 603.31 372.851 603.166 368.717C602.978 364.552 603.608 360.214 605.057 355.702C606.536 351.146 608.918 346.575 612.202 341.99C616.143 336.489 620.563 332.255 625.462 329.29C630.361 326.324 635.521 324.932 640.94 325.115C646.391 325.253 651.867 327.293 657.368 331.234L687.693 352.956C691.58 355.739 694.939 357.782 697.772 359.085C700.561 360.356 703.201 361.19 705.692 361.587L706.806 362.384L693.153 381.444C690.575 380.985 687.673 379.963 684.447 378.379C681.209 376.72 678.127 374.843 675.201 372.747ZM649.803 350.788L660.573 358.305L653.019 368.85C651.236 371.338 649.972 373.703 649.226 375.944C648.48 378.184 648.209 380.269 648.412 382.199C648.572 384.097 649.125 385.815 650.072 387.352C651.051 388.846 652.348 390.171 653.963 391.328C655.579 392.486 657.307 393.162 659.149 393.358C660.947 393.523 662.718 393.173 664.461 392.307C666.16 391.41 667.683 390.023 669.027 388.146C671.06 385.307 672.26 382.434 672.626 379.525C672.992 376.616 672.752 373.999 671.906 371.675C671.091 369.308 669.957 367.57 668.504 366.463L680.06 367.209C681.35 369.19 682.518 371.48 683.563 374.079C684.64 376.634 685.373 379.439 685.762 382.492C686.108 385.515 685.904 388.705 685.15 392.063C684.352 395.39 682.687 398.822 680.154 402.359C676.932 406.856 673.112 410.298 668.695 412.683C664.265 414.994 659.69 416.077 654.97 415.933C650.237 415.715 645.819 414.135 641.714 411.195C638.003 408.537 635.207 405.477 633.326 402.015C631.445 398.554 630.491 394.765 630.466 390.651C630.428 386.461 631.376 381.954 633.312 377.131C635.204 372.275 638.09 367.141 641.968 361.726L649.803 350.788Z" fill="#4F4F4F"/>
<path d="M720.493 329.523C722.593 327.601 724.093 325.501 724.992 323.221C725.854 320.902 726.071 318.593 725.64 316.293C725.213 313.917 724.094 311.701 722.284 309.644L738.39 294.902C742.484 299.455 744.957 304.583 745.807 310.285C746.621 315.947 745.952 321.62 743.8 327.303C741.612 332.947 738.042 338.035 733.089 342.569C728.097 347.138 722.977 350.295 717.73 352.04C712.522 353.749 707.348 354.261 702.208 353.578C697.032 352.855 692.035 351.094 687.216 348.296C682.361 345.458 677.867 341.781 673.733 337.264L672.155 335.541C667.985 330.985 664.719 326.183 662.357 321.137C659.958 316.05 658.646 310.917 658.418 305.737C658.155 300.517 659.104 295.389 661.266 290.352C663.427 285.315 666.984 280.53 671.937 275.997C677.206 271.174 682.746 267.96 688.558 266.354C694.409 264.712 700.186 264.739 705.89 266.436C711.597 268.057 716.809 271.404 721.527 276.479L705.421 291.221C703.423 289.117 701.191 287.593 698.723 286.648C696.296 285.666 693.798 285.403 691.231 285.86C688.667 286.241 686.216 287.501 683.879 289.641C681.383 291.926 679.832 294.328 679.226 296.848C678.584 299.329 678.662 301.88 679.458 304.5C680.219 307.081 681.472 309.683 683.219 312.308C684.969 314.856 686.986 317.378 689.271 319.874L690.849 321.598C693.133 324.094 695.486 326.346 697.906 328.354C700.326 330.361 702.788 331.858 705.292 332.843C707.835 333.792 710.37 334.056 712.898 333.635C715.426 333.215 717.958 331.844 720.493 329.523Z" fill="#4F4F4F"/>
<path d="M714.871 200.539L776.159 308.046L756.002 319.538L694.713 212.031L714.871 200.539ZM750.187 269.157L744.657 272.309C741.698 267.01 739.632 261.758 738.458 256.554C737.257 251.303 736.986 246.326 737.643 241.624C738.274 236.874 739.821 232.592 742.283 228.777C744.792 224.936 748.193 221.791 752.485 219.344C756.218 217.216 759.907 215.824 763.552 215.168C767.217 214.439 770.811 214.616 774.334 215.699C777.877 216.708 781.319 218.734 784.661 221.775C788.002 224.816 791.189 228.997 794.221 234.316L821.514 282.19L801.216 293.762L773.844 245.747C771.929 242.388 769.936 240.031 767.865 238.676C765.815 237.249 763.653 236.657 761.381 236.901C759.13 237.072 756.697 237.902 754.084 239.392C751.191 241.041 749.024 242.988 747.583 245.231C746.188 247.448 745.429 249.859 745.307 252.464C745.158 255.022 745.521 257.72 746.398 260.559C747.275 263.398 748.537 266.264 750.187 269.157Z" fill="#4F4F4F"/>
<path d="M821.684 191.332L851.337 273.307L829.442 281.227L799.789 199.253L821.684 191.332ZM790.696 178.381C789.545 175.199 789.706 172.171 791.18 169.296C792.653 166.421 795.258 164.308 798.996 162.956C802.683 161.622 806.012 161.589 808.984 162.856C812.006 164.104 814.092 166.32 815.243 169.502C816.394 172.684 816.208 175.721 814.684 178.614C813.211 181.489 810.631 183.593 806.944 184.927C803.206 186.279 799.852 186.322 796.88 185.055C793.909 183.788 791.848 181.563 790.696 178.381Z" fill="#4F4F4F"/>
<path d="M898.517 263.78C891.871 265.054 885.708 265.14 880.028 264.041C874.339 262.888 869.284 260.766 864.864 257.676C860.496 254.575 856.857 250.705 853.945 246.068C851.023 241.377 849.017 236.184 847.926 230.486L847.319 227.321C846.077 220.833 845.863 214.721 846.679 208.987C847.495 203.253 849.238 198.079 851.909 193.466C854.633 188.842 858.272 185.001 862.827 181.941C867.371 178.828 872.756 176.676 878.98 175.484C885.047 174.322 890.62 174.293 895.698 175.399C900.777 176.504 905.253 178.6 909.125 181.686C913.051 184.763 916.326 188.729 918.951 193.586C921.567 198.389 923.476 203.93 924.678 210.207L926.497 219.703L858.447 232.737L855.537 217.544L901.193 208.799L900.86 207.058C900.254 203.893 899.133 201.182 897.498 198.925C895.905 196.605 893.833 194.924 891.282 193.881C888.73 192.839 885.687 192.656 882.153 193.333C879.146 193.909 876.688 195.063 874.777 196.796C872.867 198.53 871.454 200.714 870.537 203.351C869.673 205.977 869.206 208.965 869.136 212.314C869.11 215.601 869.46 219.143 870.187 222.941L870.794 226.106C871.45 229.535 872.531 232.609 874.037 235.329C875.595 238.038 877.473 240.276 879.67 242.043C881.921 243.799 884.45 245.01 887.257 245.676C890.117 246.331 893.208 246.34 896.532 245.704C900.646 244.916 904.319 243.392 907.551 241.132C910.824 238.81 913.441 235.766 915.399 232L928.781 241.906C927.482 244.834 925.504 247.783 922.846 250.753C920.241 253.713 916.923 256.372 912.89 258.731C908.847 261.036 904.056 262.72 898.517 263.78Z" fill="#4F4F4F"/>
<path d="M951.815 133.812L955.699 257.501L932.427 258.232L928.543 134.543L951.815 133.812Z" fill="#4F4F4F"/>
</svg>
