<svg width="76" height="13" viewBox="0 0 76 13" fill="none" xmlns="http://www.w3.org/2000/svg">
<path d="M14.4376 8.15729L14.4364 8.15479V5.37695L9.75 10.2324L14.4376 8.15729Z" fill="white"/>
<path d="M2.21875 4.8156L2.22971 4.83949H2.2343V7.36426L6.77561 2.88251L2.21875 4.8156Z" fill="white"/>
<path d="M0 0.000602722L1.95393 4.24512L7.83173 1.75164L4.12997 0.000602722H0Z" fill="white"/>
<path d="M8.91406 11.2916L12.5256 13H16.6556L14.7039 8.72842L8.91406 11.2916Z" fill="white"/>
<path d="M12.5224 5.24521e-05L8.87755 1.72429L2.09904 8.41397L0 13H4.12997L7.88207 11.2251L14.7767 4.08179L16.6524 5.24521e-05H12.5224Z" fill="white"/>
<mask id="mask0_14618_5511" style="mask-type:luminance" maskUnits="userSpaceOnUse" x="0" y="0" width="76" height="13">
<path d="M0 5.24521e-05H76V13H0V5.24521e-05Z" fill="white"/>
</mask>
<g mask="url(#mask0_14618_5511)">
<path d="M20.4141 8.48195V4.51902C20.4141 4.38067 20.5056 4.29882 20.661 4.29882H21.4723C21.6204 4.29882 21.7193 4.38067 21.7193 4.51902V8.48195C21.7193 8.6203 21.6204 8.70215 21.4723 8.70215H20.661C20.5056 8.70215 20.4141 8.6203 20.4141 8.48195Z" fill="white"/>
<path d="M30.5734 8.70215H29.3739C29.2543 8.70215 29.1624 8.66439 29.0708 8.61396L26.2554 6.68286L25.2113 7.19877V8.48195C25.2113 8.6203 25.1126 8.70215 24.9645 8.70215H24.1531C23.9976 8.70215 23.9062 8.6203 23.9062 8.48195V4.51902C23.9062 4.38067 23.9976 4.29895 24.1531 4.29895H24.9645C25.1126 4.29895 25.2113 4.38067 25.2113 4.51902V6.0224L28.6192 4.36192C28.7249 4.31136 28.8377 4.29895 28.9507 4.29895H30.4816C30.7286 4.29895 30.7709 4.45618 30.5522 4.55678L27.328 6.14834L30.6723 8.44433C30.8626 8.57013 30.8063 8.70215 30.5734 8.70215Z" fill="white"/>
<path d="M32.0547 6.50023C32.0547 4.83329 33.3319 4.22312 36.0058 4.22312C37.9109 4.22312 38.849 4.53138 39.1455 4.72016C39.2938 4.81441 39.2938 4.88372 39.2091 5.01574L38.8773 5.54419C38.8068 5.65125 38.6727 5.62604 38.5319 5.58194C38.066 5.43726 37.4521 5.31765 36.0974 5.31765C33.9598 5.31765 33.4094 5.7203 33.4094 6.50023C33.4094 7.28044 33.9598 7.73324 36.0974 7.68308C37.4665 7.6514 38.0589 7.55714 38.5459 7.41879C38.6659 7.38103 38.8351 7.36229 38.8917 7.45654C39.2303 7.97853 39.2866 8.06038 39.2866 8.12942C39.2866 8.17351 39.2371 8.22394 39.1597 8.28057C38.8634 8.46935 37.9248 8.77734 36.0058 8.77734C33.3319 8.77734 32.0547 8.16744 32.0547 6.50023Z" fill="white"/>
<path d="M48.4228 4.51902V8.48195C48.4228 8.6203 48.3238 8.70215 48.1758 8.70215H47.3645C47.2093 8.70215 47.1175 8.6203 47.1175 8.48195V5.4121H42.6021V8.48195C42.6021 8.6203 42.5032 8.70215 42.3551 8.70215H41.5437C41.3882 8.70215 41.2969 8.6203 41.2969 8.48195V4.51902C41.2969 4.38067 41.3882 4.29882 41.5437 4.29882H48.1758C48.3238 4.29882 48.4228 4.38067 48.4228 4.51902Z" fill="white"/>
<path d="M55.4487 6.87798L54.3057 5.39969L53.1558 6.87798H55.4487ZM58.1017 8.70215H57.0502C56.9233 8.70215 56.8176 8.66439 56.7539 8.5638L56.1827 7.82148H52.4218L51.8506 8.5638C51.78 8.66439 51.6811 8.70215 51.5542 8.70215H50.5029C50.2982 8.70215 50.2276 8.58254 50.3477 8.43786L53.5507 4.4245C53.6356 4.32417 53.7271 4.28615 53.8614 4.28615H54.7431C54.8771 4.28615 54.9688 4.32417 55.0538 4.4245L58.2497 8.43786C58.3769 8.58254 58.3063 8.70215 58.1017 8.70215Z" fill="white"/>
<path d="M64.9216 6.17258C65.5989 6.17258 65.8108 6.10961 65.8108 5.79502C65.8108 5.48056 65.5989 5.41125 64.9216 5.41125H61.5632C61.521 5.41125 61.4927 5.43647 61.4927 5.47422V6.10961C61.4927 6.14736 61.521 6.17258 61.5632 6.17258H64.9216ZM60.1875 8.4811V4.51818C60.1875 4.37983 60.2789 4.29798 60.4343 4.29798H64.999C66.5304 4.29798 67.1511 5.07158 67.1511 5.79502C67.1511 6.51832 66.5304 7.29219 64.999 7.29219H61.5632C61.521 7.29219 61.4927 7.3174 61.4927 7.35516V8.4811C61.4927 8.61946 61.3938 8.70117 61.2458 8.70117H60.4343C60.2789 8.70117 60.1875 8.61946 60.1875 8.4811Z" fill="white"/>
<path d="M75.7922 8.70215H74.5926C74.473 8.70215 74.3812 8.66439 74.2895 8.61396L71.4741 6.68286L70.4301 7.19877V8.48195C70.4301 8.6203 70.3313 8.70215 70.1833 8.70215H69.3718C69.2164 8.70215 69.125 8.6203 69.125 8.48195V4.51902C69.125 4.38067 69.2164 4.29895 69.3718 4.29895H70.1833C70.3313 4.29895 70.4301 4.38067 70.4301 4.51902V6.0224L73.8379 4.36192C73.9436 4.31136 74.0565 4.29895 74.1695 4.29895H75.7004C75.9473 4.29895 75.9897 4.45618 75.771 4.55678L72.5468 6.14834L75.8911 8.44433C76.0813 8.57013 76.0251 8.70215 75.7922 8.70215Z" fill="white"/>
</g>
</svg>
