<svg width="31" height="30" viewBox="0 0 31 30" fill="none" xmlns="http://www.w3.org/2000/svg">
<path d="M1.71582 6.59375H28.1375V27.5252H1.71582V6.59375Z" fill="url(#paint0_linear_8119_1211)"/>
<path fill-rule="evenodd" clip-rule="evenodd" d="M19.902 3.84863H10.9804V6.59374H19.902V3.84863ZM24.3628 6.59374H26.7648C27.3333 6.59374 27.7942 7.05462 27.7942 7.62315V25.4663C27.7942 26.0349 27.3333 26.4958 26.7648 26.4958H3.77452C3.20599 26.4958 2.74511 26.0349 2.74511 25.4663V7.62315C2.74511 7.05462 3.20599 6.59374 3.77452 6.59374H6.51963V3.84863H3.77452C1.68991 3.84863 0 5.53854 0 7.62315V25.4663C0 27.551 1.68991 29.2409 3.77452 29.2409H26.7648C28.8494 29.2409 30.5393 27.551 30.5393 25.4663V7.62315C30.5393 5.53854 28.8494 3.84863 26.7648 3.84863H24.3628V6.59374Z" fill="#B4F57F"/>
<path d="M7.20605 2.30389C7.20605 1.45109 7.89738 0.759766 8.75018 0.759766C9.60297 0.759766 10.2943 1.45109 10.2943 2.30389V7.7941C10.2943 8.6469 9.60297 9.33822 8.75018 9.33822C7.89738 9.33822 7.20605 8.6469 7.20605 7.7941V2.30389Z" fill="#B4F57F"/>
<path d="M20.5879 2.30389C20.5879 1.45109 21.2792 0.759766 22.132 0.759766C22.9848 0.759766 23.6761 1.45109 23.6761 2.30389V7.7941C23.6761 8.6469 22.9848 9.33822 22.132 9.33822C21.2792 9.33822 20.5879 8.6469 20.5879 7.7941V2.30389Z" fill="#B4F57F"/>
<defs>
<linearGradient id="paint0_linear_8119_1211" x1="14.9266" y1="6.59375" x2="14.9266" y2="27.5252" gradientUnits="userSpaceOnUse">
<stop stop-color="#B4F57F" stop-opacity="0.5"/>
<stop offset="1" stop-color="#B4F57F" stop-opacity="0"/>
</linearGradient>
</defs>
</svg>
