<svg width="910" height="44" viewBox="0 0 910 44" fill="none" xmlns="http://www.w3.org/2000/svg">
<path d="M38.4392 36.3739C33.2669 41.2628 26.3328 44 19.1092 44H0L35.8972 9.17798C41.9529 3.3037 50.1678 0 58.736 0H76.9128L38.4392 36.3739ZM126.467 0H108.29C99.7222 0 91.5072 3.29894 85.4516 9.17798L49.5544 44H68.6636C75.8872 44 82.8213 41.2628 87.9936 36.3739L126.467 0ZM176.022 0H157.845C149.277 0 141.062 3.29894 135.006 9.17798L99.1087 44H118.218C125.442 44 132.376 41.2628 137.548 36.3739L176.022 0ZM225.576 0H207.399C198.831 0 190.616 3.29894 184.56 9.17798L148.663 44H167.772C174.996 44 181.93 41.2628 187.102 36.3739L225.576 0ZM275.13 0H256.953C248.39 0 240.17 3.29894 234.115 9.17798L198.217 44H217.327C224.55 44 231.484 41.2628 236.657 36.3739L275.13 0ZM324.685 0H306.508C297.944 0 289.73 3.29894 283.669 9.17798L247.772 44H266.881C274.105 44 281.039 41.2628 286.211 36.3739L324.685 0ZM374.239 0H356.062C347.494 0 339.279 3.29894 333.223 9.17798L297.326 44H316.435C323.659 44 330.593 41.2628 335.765 36.3739L374.239 0ZM423.793 0H405.616C397.048 0 388.833 3.29894 382.778 9.17798L346.881 44H365.99C373.213 44 380.147 41.2628 385.32 36.3739L423.793 0ZM473.348 0H455.171C446.603 0 438.388 3.29894 432.332 9.17798L396.435 44H415.544C422.768 44 429.702 41.2628 434.874 36.3739L473.348 0ZM522.902 0H504.725C496.162 0 487.942 3.29894 481.887 9.17798L445.989 44H465.099C472.322 44 479.256 41.2628 484.428 36.3739L522.902 0ZM572.456 0H554.28C545.716 0 537.501 3.29894 531.441 9.17798L495.544 44H514.653C521.876 44 528.81 41.2628 533.983 36.3739L572.456 0ZM622.011 0H603.834C595.266 0 587.051 3.29894 580.995 9.17798L545.098 44H564.207C571.431 44 578.365 41.2628 583.537 36.3739L622.011 0ZM671.565 0H653.388C644.82 0 636.605 3.29894 630.55 9.17798L594.652 44H613.762C620.985 44 627.919 41.2628 633.092 36.3739L671.565 0ZM721.12 0H702.943C694.374 0 686.16 3.29894 680.104 9.17798L644.207 44H663.316C670.539 44 677.474 41.2628 682.646 36.3739L721.12 0ZM770.674 0H752.497C743.934 0 735.714 3.29894 729.658 9.17798L693.761 44H712.87C720.094 44 727.028 41.2628 732.2 36.3739L770.674 0ZM820.228 0H802.051C793.488 0 785.273 3.29894 779.213 9.17798L743.315 44H762.425C769.648 44 776.582 41.2628 781.755 36.3739L820.228 0ZM869.783 0H851.606C843.038 0 834.823 3.29894 828.767 9.17798L792.87 44H811.979C819.203 44 826.137 41.2628 831.309 36.3739L869.783 0ZM919.337 0H901.16C892.592 0 884.377 3.29894 878.321 9.17798L842.424 44H861.533C868.757 44 875.691 41.2628 880.863 36.3739L919.337 0ZM968.891 0H950.714C942.146 0 933.931 3.29894 927.876 9.17798L891.978 44H911.088C918.311 44 925.245 41.2628 930.418 36.3739L968.891 0ZM1018.45 0H1000.27C991.701 0 983.486 3.29894 977.43 9.17798L941.533 44H960.642C967.866 44 974.8 41.2628 979.972 36.3739L1018.45 0ZM1068 0H1049.82C1041.26 0 1033.04 3.29894 1026.98 9.17798L991.087 44H1010.2C1017.42 44 1024.35 41.2628 1029.53 36.3739L1068 0Z" fill="#FF0004"/>
</svg>
