<svg width="899" height="44" viewBox="0 0 899 44" fill="none" xmlns="http://www.w3.org/2000/svg">
<path d="M-130.561 36.3739C-135.733 41.2628 -142.667 44 -149.891 44H-169L-133.103 9.17798C-127.047 3.3037 -118.832 0 -110.264 0H-92.0872L-130.561 36.3739ZM-42.5329 0H-60.7096C-69.2778 0 -77.4928 3.29894 -83.5484 9.17798L-119.446 44H-100.336C-93.1128 44 -86.1787 41.2628 -81.0064 36.3739L-42.5329 0ZM7.02155 0H-11.1553C-19.7235 0 -27.9384 3.29894 -33.9941 9.17798L-69.8913 44H-50.7821C-43.5585 44 -36.6244 41.2628 -31.452 36.3739L7.02155 0ZM56.5759 0H38.3991C29.8309 0 21.616 3.29894 15.5603 9.17798L-20.3369 44H-1.22772C5.9959 44 12.93 41.2628 18.1023 36.3739L56.5759 0ZM106.13 0H87.9534C79.3901 0 71.1703 3.29894 65.1147 9.17798L29.2175 44H48.3266C55.5502 44 62.4843 41.2628 67.6567 36.3739L106.13 0ZM155.685 0H137.508C128.944 0 120.73 3.29894 114.669 9.17798L78.7718 44H97.881C105.105 44 112.039 41.2628 117.211 36.3739L155.685 0ZM205.239 0H187.062C178.494 0 170.279 3.29894 164.223 9.17798L128.326 44H147.435C154.659 44 161.593 41.2628 166.765 36.3739L205.239 0ZM254.793 0H236.616C228.048 0 219.833 3.29894 213.778 9.17798L177.881 44H196.99C204.213 44 211.147 41.2628 216.32 36.3739L254.793 0ZM304.348 0H286.171C277.603 0 269.388 3.29894 263.332 9.17798L227.435 44H246.544C253.768 44 260.702 41.2628 265.874 36.3739L304.348 0ZM353.902 0H335.725C327.162 0 318.942 3.29894 312.887 9.17798L276.989 44H296.099C303.322 44 310.256 41.2628 315.428 36.3739L353.902 0ZM403.456 0H385.28C376.716 0 368.501 3.29894 362.441 9.17798L326.544 44H345.653C352.876 44 359.81 41.2628 364.983 36.3739L403.456 0ZM453.011 0H434.834C426.266 0 418.051 3.29894 411.995 9.17798L376.098 44H395.207C402.431 44 409.365 41.2628 414.537 36.3739L453.011 0ZM502.565 0H484.388C475.82 0 467.605 3.29894 461.55 9.17798L425.652 44H444.762C451.985 44 458.919 41.2628 464.092 36.3739L502.565 0ZM552.12 0H533.943C525.374 0 517.16 3.29894 511.104 9.17798L475.207 44H494.316C501.539 44 508.474 41.2628 513.646 36.3739L552.12 0ZM601.674 0H583.497C574.934 0 566.714 3.29894 560.658 9.17798L524.761 44H543.87C551.094 44 558.028 41.2628 563.2 36.3739L601.674 0ZM651.228 0H633.051C624.488 0 616.273 3.29894 610.213 9.17798L574.315 44H593.425C600.648 44 607.582 41.2628 612.755 36.3739L651.228 0ZM700.783 0H682.606C674.038 0 665.823 3.29894 659.767 9.17798L623.87 44H642.979C650.203 44 657.137 41.2628 662.309 36.3739L700.783 0ZM750.337 0H732.16C723.592 0 715.377 3.29894 709.321 9.17798L673.424 44H692.533C699.757 44 706.691 41.2628 711.863 36.3739L750.337 0ZM799.891 0H781.714C773.146 0 764.931 3.29894 758.876 9.17798L722.978 44H742.088C749.311 44 756.245 41.2628 761.418 36.3739L799.891 0ZM849.446 0H831.269C822.701 0 814.486 3.29894 808.43 9.17798L772.533 44H791.642C798.866 44 805.8 41.2628 810.972 36.3739L849.446 0ZM899 0H880.823C872.26 0 864.04 3.29894 857.984 9.17798L822.087 44H841.196C848.42 44 855.354 41.2628 860.526 36.3739L899 0Z" fill="#B4F57F"/>
</svg>
