<svg width="1440" height="461" viewBox="0 0 1440 461" fill="none" xmlns="http://www.w3.org/2000/svg">
<g clip-path="url(#clip0_8128_686)">
<rect width="1440" height="461" fill="#B4F57F"/>
<path opacity="0.5" d="M62.1182 -111.617C61.842 -111.617 61.6182 -111.841 61.6182 -112.117C61.6182 -112.393 61.842 -112.617 62.1182 -112.617L62.1182 -111.617ZM251.551 -112.117L251.551 -112.617L251.741 -112.617L251.883 -112.491L251.551 -112.117ZM441.316 56.4954L441.316 56.9954L441.126 56.9954L440.984 56.8691L441.316 56.4954ZM781.367 55.9954L781.867 55.9954L781.867 56.9954L781.367 56.9954L781.367 55.9954ZM62.1182 -112.617L251.551 -112.617L251.551 -111.617L62.1182 -111.617L62.1182 -112.617ZM251.883 -112.491L441.648 56.1216L440.984 56.8691L251.219 -111.743L251.883 -112.491ZM441.316 55.9954L781.367 55.9954L781.367 56.9954L441.316 56.9954L441.316 55.9954Z" fill="#DF0252"/>
<path opacity="0.5" d="M781.367 405.618C781.643 405.618 781.867 405.394 781.867 405.118C781.867 404.842 781.643 404.618 781.367 404.618L781.367 405.618ZM591.934 405.118L591.934 404.618L591.744 404.618L591.602 404.744L591.934 405.118ZM402.169 573.731L402.169 574.231L402.359 574.231L402.501 574.104L402.169 573.731ZM62.1185 573.231L61.6185 573.231L61.6185 574.231L62.1185 574.231L62.1185 573.231ZM781.367 404.618L591.934 404.618L591.934 405.618L781.367 405.618L781.367 404.618ZM591.602 404.744L401.837 573.357L402.501 574.104L592.266 405.492L591.602 404.744ZM402.169 573.231L62.1185 573.231L62.1185 574.231L402.169 574.231L402.169 573.231Z" fill="#DF0252"/>
<path opacity="0.5" d="M1377 -138.374C1377.28 -138.374 1377.5 -138.598 1377.5 -138.874C1377.5 -139.15 1377.28 -139.374 1377 -139.374V-138.374ZM965.064 -138.874V-139.374H964.564V-138.874H965.064ZM965.064 33.5083H964.564V33.733L964.732 33.8822L965.064 33.5083ZM1026.41 87.999H1026.91V87.7744L1026.74 87.6252L1026.41 87.999ZM1025.91 275.118V275.618H1026.91V275.118H1025.91ZM1377 -139.374H965.064V-138.374H1377V-139.374ZM964.564 -138.874V33.5083H965.564V-138.874H964.564ZM964.732 33.8822L1026.08 88.3728L1026.74 87.6252L965.397 33.1345L964.732 33.8822ZM1025.91 87.999V275.118H1026.91V87.999H1025.91Z" fill="#DF0252"/>
</g>
<defs>
<clipPath id="clip0_8128_686">
<rect width="1440" height="461" fill="white"/>
</clipPath>
</defs>
</svg>
