<svg width="34" height="34" viewBox="0 0 34 34" fill="none" xmlns="http://www.w3.org/2000/svg">
<path d="M30.5 16.5C30.5 23.9558 24.4558 30 17 30C9.54416 30 3.5 23.9558 3.5 16.5C3.5 9.04416 9.54416 3 17 3C24.4558 3 30.5 9.04416 30.5 16.5Z" fill="url(#paint0_linear_8119_1217)"/>
<path fill-rule="evenodd" clip-rule="evenodd" d="M16.9099 30.0435C24.1138 30.0435 29.9537 24.2036 29.9537 16.9998C29.9537 9.79588 24.1138 3.95598 16.9099 3.95598C9.70603 3.95598 3.86614 9.79588 3.86614 16.9998C3.86614 24.2036 9.70603 30.0435 16.9099 30.0435ZM16.9099 33.4097C25.9729 33.4097 33.3198 26.0627 33.3198 16.9998C33.3198 7.93681 25.9729 0.589844 16.9099 0.589844C7.84697 0.589844 0.5 7.93681 0.5 16.9998C0.5 26.0627 7.84697 33.4097 16.9099 33.4097Z" fill="#B4F57F"/>
<path fill-rule="evenodd" clip-rule="evenodd" d="M16.9103 17.4208C19.0017 17.4208 20.6972 15.7253 20.6972 13.6339C20.6972 11.5425 19.0017 9.847 16.9103 9.847C14.8188 9.847 13.1234 11.5425 13.1234 13.6339C13.1234 15.7253 14.8188 17.4208 16.9103 17.4208ZM16.9103 19.5246C20.1636 19.5246 22.801 16.8873 22.801 13.6339C22.801 10.3805 20.1636 7.74316 16.9103 7.74316C13.6569 7.74316 11.0195 10.3805 11.0195 13.6339C11.0195 16.8873 13.6569 19.5246 16.9103 19.5246Z" fill="#B4F57F"/>
<path fill-rule="evenodd" clip-rule="evenodd" d="M16.9105 23.4763C13.2836 23.4763 10.3435 26.4164 10.3435 30.0433H7.48828C7.48828 24.8395 11.7067 20.6211 16.9105 20.6211C22.1142 20.6211 26.3326 24.8395 26.3326 30.0433H23.4774C23.4774 26.4164 20.5373 23.4763 16.9105 23.4763Z" fill="#B4F57F"/>
<defs>
<linearGradient id="paint0_linear_8119_1217" x1="17" y1="3" x2="17" y2="30" gradientUnits="userSpaceOnUse">
<stop stop-color="#B4F57F" stop-opacity="0.5"/>
<stop offset="1" stop-color="#B4F57F" stop-opacity="0"/>
</linearGradient>
</defs>
</svg>
