<svg width="28" height="34" viewBox="0 0 28 34" fill="none" xmlns="http://www.w3.org/2000/svg">
<path d="M24.7476 13.7116C24.7476 18.7599 18.6486 29.7638 13.6002 29.7638C8.55187 29.7638 2.67578 18.314 2.67578 13.2657C2.67578 8.2173 8.55187 2.78711 13.6002 2.78711C18.6486 2.78711 24.7476 8.6632 24.7476 13.7116Z" fill="url(#paint0_linear_8119_1195)" fill-opacity="0.5"/>
<path d="M13.5998 16.9998C14.5348 16.9998 15.3355 16.6666 16.0019 16.0002C16.6672 15.3349 16.9998 14.5348 16.9998 13.5998C16.9998 12.6648 16.6672 11.8642 16.0019 11.1978C15.3355 10.5325 14.5348 10.1999 13.5998 10.1999C12.6648 10.1999 11.8647 10.5325 11.1995 11.1978C10.5331 11.8642 10.1999 12.6648 10.1999 13.5998C10.1999 14.5348 10.5331 15.3349 11.1995 16.0002C11.8647 16.6666 12.6648 16.9998 13.5998 16.9998ZM13.5998 29.4946C17.0565 26.3213 19.6206 23.4382 21.2922 20.8451C22.9639 18.2532 23.7997 15.9515 23.7997 13.9398C23.7997 10.8515 22.8148 8.32253 20.8451 6.35282C18.8766 4.38424 16.4615 3.39996 13.5998 3.39996C10.7382 3.39996 8.32253 4.38424 6.35282 6.35282C4.38424 8.32253 3.39996 10.8515 3.39996 13.9398C3.39996 15.9515 4.23578 18.2532 5.90743 20.8451C7.57907 23.4382 10.1432 26.3213 13.5998 29.4946ZM13.5998 33.9996C9.03822 30.118 5.63146 26.5123 3.37956 23.1826C1.12652 19.854 0 16.7731 0 13.9398C0 9.68988 1.36735 6.30409 4.10205 3.78245C6.83561 1.26082 10.0015 0 13.5998 0C17.1981 0 20.364 1.26082 23.0976 3.78245C25.8323 6.30409 27.1997 9.68988 27.1997 13.9398C27.1997 16.7731 26.0737 19.854 23.8218 23.1826C21.5688 26.5123 18.1614 30.118 13.5998 33.9996Z" fill="#B4F57F"/>
<defs>
<linearGradient id="paint0_linear_8119_1195" x1="14.715" y1="-15.4946" x2="13.7117" y2="29.7638" gradientUnits="userSpaceOnUse">
<stop stop-color="#B4F57F"/>
<stop offset="1" stop-color="#B4F57F" stop-opacity="0"/>
</linearGradient>
</defs>
</svg>
