<svg width="62" height="70" viewBox="0 0 62 70" fill="none" xmlns="http://www.w3.org/2000/svg">
<path d="M48.2951 9.76332L31.0015 0L13.7081 9.76027L0 17.4977V52.4992L17.2935 62.2626L31.0015 70L44.7065 62.2626L45.4024 61.869L62 52.4992V17.4977L48.2919 9.76027L48.2951 9.76332ZM45.5116 43.1936L30.9984 51.3856L16.4852 43.1936V26.8095L30.9984 18.6174L45.5116 26.8095V43.1936ZM48.2951 28.3808L59.2197 34.5469V35.4561L48.2951 41.6223V28.3777V28.3808ZM45.5116 58.6715L44.7065 59.1261L33.7819 52.96L45.5116 46.3392V58.6745V58.6715ZM16.4852 58.6715V46.3361L28.215 52.96L17.2903 59.1261L16.4852 58.6715ZM13.7018 41.6253L2.77716 35.4592V34.55L13.7018 28.3838V41.6284V41.6253ZM17.2903 10.88L28.215 17.0462L16.4852 23.6669V11.3316L17.2903 10.877V10.88ZM33.7788 17.0462L44.7034 10.88L45.5084 11.3346V23.67L33.7788 17.0492V17.0462ZM41.9231 9.30872L30.9984 15.4749L20.0737 9.30872L30.9984 3.14258L41.9231 9.30872ZM2.77716 19.072L13.7018 12.9059V25.2412L2.77716 31.4074V19.072ZM2.77716 38.5987L13.7018 44.7679V57.1032L2.77716 50.9341V38.5987ZM30.9984 66.8635L20.0737 60.6974L30.9984 54.5312L41.9231 60.6974L30.9984 66.8635ZM59.2197 50.9341L48.2951 57.1032V44.7679L59.2197 38.6017V50.9371V50.9341ZM48.2951 25.2412V12.9059L59.2197 19.072V31.4074L48.2951 25.2412Z" fill="#B4F57F"/>
</svg>
