<svg width="1440" height="27" viewBox="0 0 1440 27" fill="none" xmlns="http://www.w3.org/2000/svg">
<path fill-rule="evenodd" clip-rule="evenodd" d="M1470.62 -0.0878906H-387.054V10.6499H-284.144L-275.272 1.03383L-275.254 1.05865L-275.231 1.03383L-259.782 19.0299H-247.28L-239.875 10.7741H28.9863V10.7708L116.97 10.7298L118.964 8.51553L115.751 4.9377H122.191L118.964 8.51553L120.995 10.7741H124.713L133.471 1.03383L133.483 1.0457L133.489 1.03383L156.76 26.9121L169.106 13.1967L328.906 13.1557L331.703 16.2628L340.072 6.95226L345.654 13.1557L417.506 13.1967L424.509 5.40949H457.049L469.297 19.0299H474.143L504.376 18.882L510.341 25.5162L519.288 15.5632L523.83 10.4955H602.89L606.088 6.94794L600.77 1.03383H611.417L606.088 6.94794L609.279 10.4955H750.156L759.028 1.03383L759.046 1.05865L759.068 1.03383L774.518 19.0299H787.02L794.423 10.7741H1063.29V10.7482L1102.89 10.7298L1104.89 8.51553L1101.67 4.9377H1108.11L1104.89 8.51553L1106.92 10.7741H1110.64L1119.39 1.03383L1119.41 1.0457L1119.41 1.03383L1142.68 26.9121L1155.03 13.1967L1266.45 13.1557L1269.25 16.2628L1277.62 6.95226L1283.2 13.1557L1355.05 13.1967L1362.05 5.40949H1394.59L1406.84 19.0299H1411.69L1441.92 18.882L1447.89 25.5162L1456.83 15.5632L1461.38 10.6305H1470.62V-0.0878906ZM-336.716 6.62405H-341.743V1.03383H-336.716V6.62405ZM-319.945 6.62405H-321.62V1.03383H-319.945V6.62405ZM-308.217 6.62405H-309.891V1.03383H-308.217V6.62405ZM-305.674 6.62405H-307.352V1.03383H-305.674V6.62405ZM474.04 13.6512H472.362V11.7889H474.04V13.6512ZM474.04 9.92334H472.362V8.06102H474.04V9.92334ZM487.039 13.6512H485.36V8.06102H487.039V13.6512ZM493.464 13.6512H491.786V11.7889H493.464V13.6512ZM697.584 6.62405H692.557V1.03383H697.584V6.62405ZM714.355 6.62405H712.68V1.03383H714.355V6.62405ZM726.083 6.62405H724.409V1.03383H726.083V6.62405ZM728.626 6.62405H726.948V1.03383H728.626V6.62405ZM1411.59 13.6512H1409.91V11.7889H1411.59V13.6512ZM1411.59 9.92334H1409.91V8.06102H1411.59V9.92334ZM1424.58 13.6512H1422.91V8.06102H1424.58V13.6512ZM1431.01 13.6512H1429.33V11.7889H1431.01V13.6512ZM335.674 20.6666L331.703 16.2628L327.743 20.6666H335.674ZM602.864 10.5247H609.305L609.279 10.4955H602.89L602.864 10.5247ZM1273.22 20.6666L1269.25 16.2628L1265.29 20.6666H1273.22Z" fill="black"/>
</svg>
