<svg width="485" height="6" viewBox="0 0 485 6" fill="none" xmlns="http://www.w3.org/2000/svg">
<g opacity="0.5">
<mask id="path-1-inside-1_8068_63304" fill="white">
<path fill-rule="evenodd" clip-rule="evenodd" d="M478 0H485V5V6L-743 5.99989V4.99989L478 5V0Z"/>
</mask>
<path fill-rule="evenodd" clip-rule="evenodd" d="M478 0H485V5V6L-743 5.99989V4.99989L478 5V0Z" fill="#572522"/>
<path d="M485 0V-1H486V0H485ZM478 0H477V-1H478V0ZM485 6H486V7H485L485 6ZM-743 5.99989V6.99989H-744V5.99989H-743ZM-743 4.99989H-744V3.99989H-743V4.99989ZM478 5H479V6H478V5ZM485 1H478V-1H485V1ZM484 5V0H486V5H484ZM486 5V6H484V5H486ZM485 7L-743 6.99989V4.99989L485 5L485 7ZM-744 5.99989V4.99989H-742V5.99989H-744ZM-743 3.99989L478 4V6L-743 5.99989V3.99989ZM479 0V5H477V0H479Z" fill="#DF0252" mask="url(#path-1-inside-1_8068_63304)"/>
</g>
</svg>
