<svg width="52" height="52" viewBox="0 0 52 52" fill="none" xmlns="http://www.w3.org/2000/svg">
<path d="M26 0C11.6404 0 0.00221258 11.6403 0 26C0 40.3596 11.6404 51.9978 26 52C40.3596 52 51.9978 40.3596 52 26C52 11.6403 40.3596 0 26 0ZM20.1853 28.7192C16.0545 26.5044 13.4082 22.2098 13.4082 17.4196C13.3817 4.43179 30.8632 -0.238961 37.3217 11.0319C27.2125 8.82818 17.6696 18.7604 20.1853 28.7215V28.7192ZM23.4467 31.8788C25.0729 32.1908 26.8585 32.2262 28.5002 31.9607C24.6304 39.0564 13.968 40.468 8.38792 34.5472C2.19049 28.8122 4.10214 17.3245 11.9103 13.9348C9.82607 21.9244 15.3818 30.4827 23.4467 31.8788ZM31.9673 23.0727C36.2487 25.2366 39.0277 29.622 39.0255 34.5228C39.1228 41.4747 33.1201 47.4996 26.0819 47.3292C21.0372 47.2695 16.6828 44.3445 14.6074 39.9414C24.4114 42.112 33.8546 32.8612 31.9673 23.075V23.0727ZM36.9345 24.4313C33.4763 20.6655 27.8785 18.9728 22.8935 20.1765C26.2235 12.2245 37.6714 10.1225 43.6077 16.435C49.5994 22.0196 48.0395 32.9873 40.78 36.6845C41.4637 32.2107 39.9547 27.5886 36.9345 24.4313Z" fill="white"/>
</svg>
