<svg width="52" height="52" viewBox="0 0 52 52" fill="none" xmlns="http://www.w3.org/2000/svg">
<path d="M33.767 23.8745C33.4133 22.5503 32.7213 21.2924 31.6845 20.2556C30.6476 19.2187 29.3919 18.529 28.0655 18.1731C28.5828 16.2409 30.5703 8.82377 31.0478 7.0397C16.616 3.06919 3.09065 16.6056 7.05895 31.0285C8.80323 30.5621 16.3043 28.5503 18.1923 28.0462C18.8334 30.7124 21.2254 33.1045 23.8916 33.7456C23.3743 35.6778 21.3868 43.0948 20.9093 44.8789C35.3411 48.8494 48.8664 35.313 44.8981 20.89L42.2674 21.5953L33.7648 23.8724L33.767 23.8745ZM22.2733 29.669C17.5246 24.6174 24.641 17.5076 29.6859 22.2541C34.4368 27.3057 27.3204 34.4154 22.2733 29.669Z" fill="white"/>
<path d="M51.0723 19.2386C49.9338 14.9718 47.6965 10.9372 44.3517 7.59235C34.3944 -2.46435 17.6944 -2.597 7.60901 7.59235C-8.73728 24.0713 3.03936 51.9024 25.9803 51.9422C42.8174 52.139 55.6243 35.4655 51.0723 19.2386ZM42.3531 42.3343C27.6561 56.8987 2.88903 46.4043 2.82491 25.9615C2.89566 5.42362 27.6583 -4.9227 42.3531 9.58867C51.2956 18.4759 51.4393 33.3431 42.3531 42.3343Z" fill="white"/>
</svg>
