<svg width="34" height="34" viewBox="0 0 34 34" fill="none" xmlns="http://www.w3.org/2000/svg">
<path fill-rule="evenodd" clip-rule="evenodd" d="M17 30.557C24.4873 30.557 30.557 24.4873 30.557 17C30.557 9.5127 24.4873 3.44304 17 3.44304C9.5127 3.44304 3.44304 9.5127 3.44304 17C3.44304 24.4873 9.5127 30.557 17 30.557ZM17 34C26.3888 34 34 26.3888 34 17C34 7.61116 26.3888 0 17 0C7.61116 0 0 7.61116 0 17C0 26.3888 7.61116 34 17 34Z" fill="#B4F57F"/>
<path d="M30.5566 16.7851C30.5566 24.1536 24.5833 30.1269 17.2148 30.1269C9.84636 30.1269 3.87305 24.1536 3.87305 16.7851C3.87305 9.41667 9.84636 3.44336 17.2148 3.44336C24.5833 3.44336 30.5566 9.41667 30.5566 16.7851Z" fill="url(#paint0_linear_8119_1199)"/>
<path fill-rule="evenodd" clip-rule="evenodd" d="M17.4305 7.96191C18.3813 7.96191 19.152 8.73266 19.152 9.68343V16.9294L23.9675 20.078C24.7633 20.5983 24.9866 21.6652 24.4663 22.461C23.946 23.2567 22.8791 23.48 22.0833 22.9597L15.709 18.7919V9.68343C15.709 8.73266 16.4797 7.96191 17.4305 7.96191Z" fill="#B4F57F"/>
<defs>
<linearGradient id="paint0_linear_8119_1199" x1="17.2148" y1="3.44336" x2="17.2148" y2="30.1269" gradientUnits="userSpaceOnUse">
<stop stop-color="#B4F57F" stop-opacity="0.5"/>
<stop offset="1" stop-color="#B4F57F" stop-opacity="0"/>
</linearGradient>
</defs>
</svg>
