<svg width="319" height="655" viewBox="0 0 319 655" fill="none" xmlns="http://www.w3.org/2000/svg">
<path d="M306.279 34H12.7175C5.69217 34 0 28.872 0 22.5499V22H319V22.5499C319 28.8751 313.304 34 306.282 34H306.279Z" fill="white"/>
<path d="M306.279 621H12.7175C5.69217 621 0 626.128 0 632.45V633H319V632.45C319 626.125 313.304 621 306.282 621H306.279Z" fill="white"/>
<path d="M306.279 2.80284C310.711 2.80284 314.452 5.52083 315.555 9.20032H3.44114C4.54398 5.52083 8.28524 2.80284 12.7175 2.80284H306.279ZM306.279 0H12.7175C5.69217 0 0 5.12804 0 11.4501V12H319V11.4501C319 5.1249 313.304 0 306.282 0H306.279Z" fill="white"/>
<path d="M306.279 652.197C310.711 652.197 314.452 649.479 315.555 645.8H3.44114C4.54398 649.479 8.28524 652.197 12.7175 652.197H306.279ZM306.279 655H12.7175C5.69217 655 0 649.872 0 643.55V643H319V643.55C319 649.875 313.304 655 306.282 655H306.279Z" fill="white"/>
</svg>
