<svg width="465" height="960" viewBox="0 0 465 960" fill="none" xmlns="http://www.w3.org/2000/svg">
<path d="M223.251 959.347L220.576 959.347L220.576 897L223.251 897L223.251 959.347ZM219.241 897L217.901 897L217.901 959.347L219.241 959.347L219.241 897ZM215.231 897L211.221 897L211.221 959.347L215.231 959.347L215.231 897ZM208.546 897L205.872 897L205.872 959.347L208.546 959.347L208.546 897ZM203.197 897L200.522 897L200.522 959.347L203.197 959.347L203.197 897ZM199.187 897L196.512 897L196.512 959.347L199.187 959.347L199.187 897ZM193.842 897L192.502 897L192.502 959.347L193.842 959.347L193.842 897ZM191.167 897L189.832 897L189.832 959.347L191.167 959.347L191.167 897ZM187.157 897L184.482 897L184.482 959.347L187.157 959.347L187.157 897ZM179.138 897L177.798 897L177.798 959.347L179.138 959.347L179.138 897ZM176.463 897L171.118 897L171.118 959.347L176.463 959.347L176.463 897ZM169.778 897L165.768 897L165.768 959.347L169.778 959.347L169.778 897ZM164.433 897L161.758 897L161.758 959.347L164.433 959.347L164.433 897ZM160.423 897L156.413 897L156.413 959.347L160.423 959.347L160.423 897ZM153.739 897L152.399 897L152.399 959.347L153.739 959.347L153.739 897ZM149.729 897L147.054 897L147.054 959.347L149.729 959.347L149.729 897ZM145.719 897L143.044 897L143.044 959.347L145.719 959.347L145.719 897ZM140.369 897L137.694 897L137.694 959.347L140.369 959.347L140.369 897ZM135.024 897L132.349 897L132.349 959.347L135.024 959.347L135.024 897ZM131.014 897L127.005 897L127.005 959.347L131.014 959.347L131.014 897ZM124.33 897L122.99 897L122.99 959.347L124.33 959.347L124.33 897ZM120.32 897L116.31 897L116.31 959.347L120.32 959.347L120.32 897ZM114.97 897L113.635 897L113.635 959.347L114.97 959.347L114.97 897ZM110.96 897L108.285 897L108.285 959.347L110.96 959.347L110.96 897ZM105.611 897L104.271 897L104.271 959.347L105.611 959.347L105.611 897ZM101.601 897L97.591 897L97.591 959.347L101.601 959.347L101.601 897ZM94.916 897L92.2412 897L92.2412 959.347L94.916 959.347L94.916 897ZM90.9062 897L88.2314 897L88.2314 959.347L90.9062 959.347L90.9062 897ZM86.8964 897L84.2216 897L84.2216 959.347L86.8964 959.347L86.8964 897ZM81.5515 897L78.8767 897L78.8767 959.347L81.5515 959.347L81.5515 897ZM76.2018 897L74.8669 897L74.8669 959.347L76.2018 959.347L76.2018 897ZM72.192 897L68.1821 897L68.1821 959.347L72.192 959.347L72.192 897ZM65.5072 897L62.8324 897L62.8324 959.347L65.5072 959.347L65.5072 897ZM61.4974 897L57.4875 897L57.4875 959.347L61.4974 959.347L61.4974 897ZM56.1525 897L53.4777 897L53.4777 959.347L56.1525 959.347L56.1525 897ZM52.1427 897L48.1329 897L48.1329 959.347L52.1427 959.347L52.1427 897ZM46.793 897L42.7831 897L42.7831 959.347L46.793 959.347L46.793 897ZM41.4481 897L38.7733 897L38.7733 959.347L41.4482 959.347L41.4481 897ZM37.4383 897L33.4284 897L33.4284 959.347L37.4383 959.347L37.4383 897ZM32.0885 897L26.7438 897L26.7438 959.347L32.0885 959.347L32.0885 897ZM25.4039 897L24.064 897L24.064 959.347L25.4039 959.347L25.4039 897ZM22.729 897L21.3892 897L21.3892 959.347L22.729 959.347L22.729 897ZM17.3792 897L14.7044 897L14.7044 959.347L17.3792 959.347L17.3792 897ZM10.6946 897L6.68465 897L6.68465 959.347L10.6946 959.347L10.6946 897ZM5.34968 897L4.00981 897L4.00981 959.347L5.34969 959.347L5.34968 897ZM2.67484 897L-2.72525e-06 897L0 959.347L2.67484 959.347L2.67484 897Z" fill="white"/>
<path d="M464.651 24.6691H461.741H446.928L464.911 6.68614L458.884 0.664062L440.906 18.6421V0.924142H432.386V33.1846H464.651V24.6691Z" fill="white"/>
<path d="M464.651 925.515H461.741H446.928L464.911 943.498L458.884 949.521L440.906 931.542V949.26H432.386V917H464.651V925.515Z" fill="white"/>
</svg>
