<svg width="67" height="67" viewBox="0 0 67 67" fill="none" xmlns="http://www.w3.org/2000/svg">
<path d="M57.1889 9.81109C51.1252 3.74737 42.751 0 33.5 0C24.249 0 15.8747 3.7503 9.81102 9.81109C3.7473 15.8748 0 24.249 0 33.5C0 42.751 3.75023 51.1282 9.81102 57.189C15.8747 63.2527 24.249 67 33.5 67C42.751 67 51.1252 63.2498 57.1889 57.189C63.2527 51.1253 67 42.751 67 33.5C67 24.249 63.2497 15.8748 57.1889 9.81109ZM2.11115 34.5468H9.6468C9.77288 40.288 10.9252 45.6656 12.8517 50.3277H6.9756C4.05809 45.7389 2.2988 40.3408 2.10821 34.5468H2.11115ZM44.6833 32.4533C44.6275 26.7033 44.1056 21.3227 43.2377 16.6723H51.8759C53.9049 21.2641 55.1276 26.6564 55.2596 32.4533H44.6833ZM24.4103 32.4533C24.4689 26.6681 25.0026 21.2758 25.891 16.6723H41.109C41.9974 21.2788 42.5311 26.6681 42.5897 32.4533H24.4103ZM42.5897 34.5468C42.5311 40.332 41.9974 45.7242 41.109 50.3277H25.891C25.0026 45.7213 24.4689 40.332 24.4103 34.5468H42.5897ZM42.8126 14.5788C42.4724 13.0306 42.0883 11.5792 41.6719 10.2421C40.6955 7.11642 39.4992 4.58007 38.1387 2.81491C42.232 4.10213 45.9031 7.0548 48.7854 11.154C49.536 12.2213 50.2339 13.3678 50.8701 14.5788H42.8155H42.8126ZM39.6751 10.8637C40.0358 12.016 40.3671 13.2593 40.6691 14.5788H26.3338C26.6358 13.2593 26.9671 12.016 27.3278 10.8637C29.0196 5.44505 31.2129 2.09361 33.5029 2.09361C35.793 2.09361 37.9833 5.44505 39.6751 10.8637ZM25.331 10.2421C24.9117 11.5792 24.5305 13.0306 24.1904 14.5788H16.1357C16.772 13.3649 17.4698 12.2213 18.2204 11.154C21.1028 7.0548 24.7739 4.10213 28.8672 2.81491C27.5066 4.58007 26.3103 7.11642 25.3339 10.2421H25.331ZM23.7652 16.6723C22.8943 21.3227 22.3754 26.7062 22.3196 32.4533H11.7433C11.8753 26.6564 13.098 21.2641 15.127 16.6723H23.7652ZM9.6468 32.4533H2.11115C2.30174 26.6593 4.06103 21.2612 6.97853 16.6723H12.8546C10.9252 21.3345 9.77288 26.715 9.64973 32.4533H9.6468ZM11.7404 34.5468H22.3167C22.3724 40.2968 22.8943 45.6773 23.7623 50.3277H15.1241C13.095 45.736 11.8723 40.3437 11.7404 34.5468ZM24.1874 52.4213C24.5305 53.9695 24.9117 55.4209 25.3281 56.758C26.3045 59.8836 27.5008 62.42 28.8613 64.1852C24.768 62.8979 21.0969 59.9453 18.2146 55.8461C17.464 54.7788 16.7661 53.6323 16.1298 52.4213H24.1845H24.1874ZM27.3248 56.1364C26.9642 54.984 26.6328 53.7407 26.3308 52.4213H40.6662C40.3642 53.7407 40.0328 54.984 39.6722 56.1364C37.9803 61.555 35.7871 64.9065 33.5 64.9065C31.2129 64.9065 29.0196 61.555 27.3248 56.1364ZM41.669 56.758C42.0883 55.4209 42.4695 53.9695 42.8096 52.4213H50.8643C50.228 53.6352 49.5301 54.7788 48.7795 55.8461C45.8972 59.9453 42.2261 62.8979 38.1328 64.1852C39.4933 62.42 40.6897 59.8836 41.6661 56.758H41.669ZM43.2348 50.3277C44.1056 45.6773 44.6246 40.2938 44.6804 34.5468H55.2567C55.1247 40.3437 53.902 45.736 51.8729 50.3277H43.2348ZM57.3532 34.5468H64.8888C64.6982 40.3408 62.9389 45.7389 60.0214 50.3277H54.1454C56.0747 45.6656 57.2271 40.285 57.3502 34.5468H57.3532ZM57.3532 32.4533C57.2271 26.7121 56.0747 21.3345 54.1483 16.6723H60.0244C62.9419 21.2612 64.7012 26.6593 64.8918 32.4533H57.3561H57.3532ZM55.7082 11.2918C56.7345 12.318 57.6904 13.4177 58.5671 14.5788H53.2041C52.3978 12.9221 51.4888 11.3739 50.489 9.95183C48.976 7.79962 47.2519 5.93472 45.3694 4.41586C49.2663 6.01096 52.7761 8.36254 55.7053 11.2918H55.7082ZM11.2918 11.2918C14.221 8.36254 17.7308 6.00803 21.6277 4.41586C19.7452 5.93179 18.024 7.79668 16.5081 9.95183C15.5082 11.3739 14.5992 12.9221 13.7929 14.5788H8.42998C9.30669 13.4177 10.2626 12.321 11.2888 11.2918H11.2918ZM11.2918 55.7083C10.2655 54.682 9.30963 53.5824 8.43291 52.4213H13.7958C14.6022 54.0779 15.5111 55.6261 16.511 57.0482C18.024 59.2005 19.7481 61.0653 21.6306 62.5813C17.7308 60.9891 14.2239 58.6375 11.2947 55.7054L11.2918 55.7083ZM55.7082 55.7083C52.779 58.6375 49.2692 60.9891 45.3723 62.5842C47.2548 61.0683 48.976 59.2034 50.4919 57.0512C51.4918 55.6291 52.4007 54.0809 53.2071 52.4242H58.57C57.6933 53.5853 56.7374 54.682 55.7112 55.7112L55.7082 55.7083Z" fill="#B4F57F"/>
</svg>
