<svg width="54" height="13" viewBox="0 0 54 13" fill="none" xmlns="http://www.w3.org/2000/svg">
<g clip-path="url(#clip0_14618_5488)">
<path d="M3.19872 8.26358C2.80065 8.27567 2.40493 8.20522 2.0436 8.05787C1.68226 7.91051 1.36546 7.69042 1.11883 7.41544C0.602108 6.85 0.34375 6.08435 0.34375 5.11854C0.34375 4.15269 0.60304 3.39279 1.12162 2.83879C1.36781 2.56224 1.68471 2.34065 2.04658 2.192C2.40845 2.04336 2.80509 1.97184 3.2043 1.98326C3.66922 1.97389 4.12758 2.08101 4.52583 2.29213C4.8947 2.48193 5.18707 2.76813 5.36225 3.11089H5.4013V0.332031H7.24977V8.19004H5.4013V7.14578H5.36225C5.18868 7.48818 4.89576 7.77319 4.52583 7.95963C4.12121 8.16758 3.65893 8.27279 3.19036 8.26358M3.80374 3.30453C3.58137 3.29803 3.36055 3.33929 3.1604 3.42469C2.96025 3.51013 2.78679 3.63716 2.65505 3.7948C2.34964 4.18401 2.19962 4.65125 2.22848 5.12343C2.19963 5.59634 2.34962 6.06437 2.65505 6.45451C2.78679 6.61215 2.96025 6.73919 3.1604 6.82459C3.36055 6.91002 3.58137 6.95128 3.80374 6.94478C4.02562 6.95086 4.24589 6.90943 4.44553 6.82403C4.64514 6.73862 4.81816 6.61179 4.94963 6.45451C5.2556 6.06728 5.40664 5.60166 5.37899 5.13077C5.4066 4.65837 5.25563 4.19121 4.94963 3.80215C4.81971 3.64471 4.64842 3.51722 4.45035 3.43057C4.25226 3.34393 4.0333 3.30069 3.81209 3.30453H3.80374Z" fill="white"/>
<path d="M7.73438 8.1897V2.06134H9.51872V3.15955H9.55498C9.64797 2.82169 9.86085 2.51863 10.1628 2.29422C10.4635 2.08441 10.7936 1.97421 11.1774 1.9829C11.3526 1.9792 11.5724 2.02751 11.7408 2.0702V3.48556C11.5305 3.41389 11.3052 3.38295 11.08 3.39487C10.8789 3.38456 10.6776 3.41129 10.4889 3.47335C10.3002 3.53539 10.1284 3.63142 9.98434 3.75523C9.70714 4.03224 9.56581 4.39443 9.5912 4.76273V8.19459H7.73438" fill="white"/>
<path d="M18.717 2.06371V8.19205H16.9327V7.08405H16.8936C16.7325 7.45221 16.4387 7.76387 16.0572 7.97144C15.6467 8.18476 15.1761 8.29184 14.6994 8.28031C14.3612 8.29356 14.0234 8.2458 13.707 8.13996C13.3905 8.03416 13.102 7.87253 12.8593 7.66501C12.6218 7.44172 12.4382 7.17853 12.3193 6.89123C12.2005 6.60393 12.149 6.29846 12.1679 5.99321V2.07107H14.0135V5.65982C14.0007 5.83074 14.0266 6.00217 14.0898 6.16422C14.153 6.32624 14.2521 6.4756 14.3816 6.60359C14.5166 6.71748 14.677 6.80566 14.8525 6.8626C15.0281 6.91955 15.2152 6.94402 15.402 6.93453C15.5984 6.94066 15.7942 6.91019 15.9763 6.84514C16.1584 6.78008 16.3228 6.68187 16.4587 6.55702C16.7372 6.28136 16.8805 5.9201 16.8574 5.55198V2.06371H18.7059M22.4329 10.4326C21.6422 10.4627 20.8584 10.2925 20.1746 9.9423C19.9052 9.80849 19.6776 9.61835 19.5118 9.38876C19.3459 9.15914 19.247 8.89716 19.2238 8.62594H21.0472C21.082 8.73404 21.1435 8.83402 21.2274 8.91878C21.3113 9.00353 21.4154 9.07096 21.5323 9.11621C21.826 9.24304 22.1504 9.30527 22.4775 9.29759C22.8824 9.31644 23.282 9.20975 23.6066 8.99607C23.7457 8.89798 23.856 8.77199 23.9283 8.62868C24.0006 8.48537 24.0328 8.32892 24.0221 8.17244V7.07668H23.9858C23.812 7.41148 23.5182 7.68703 23.1494 7.86111C22.743 8.05917 22.2841 8.15898 21.8195 8.15036C21.4279 8.16286 21.0384 8.09545 20.6814 7.95339C20.3244 7.81135 20.0097 7.59851 19.7619 7.33162C19.2545 6.78497 19.0036 6.04222 19.0036 5.10825C19.0036 4.17429 19.2629 3.39231 19.7759 2.8285C20.0246 2.55397 20.3431 2.33448 20.7058 2.18762C21.0684 2.04077 21.4651 1.97062 21.8641 1.9828C22.3286 1.9762 22.7862 2.08313 23.1856 2.29167C23.5512 2.48501 23.8425 2.77018 24.0221 3.11041H24.0527V2.06369H25.8761V8.05233C25.8888 8.38606 25.8106 8.71767 25.6481 9.01953C25.4857 9.32138 25.2437 9.5848 24.9421 9.78786C24.3195 10.2177 23.4831 10.4326 22.4329 10.4326ZM21.3177 6.41727C21.4506 6.56928 21.6229 6.69109 21.8203 6.77256C22.0178 6.85401 22.2345 6.89273 22.4524 6.88546C22.6749 6.89052 22.8956 6.84864 23.0959 6.76335C23.2962 6.67806 23.4704 6.55182 23.6039 6.39522C23.9023 6.02283 24.0496 5.57297 24.0221 5.11806C24.0534 4.64901 23.9063 4.18415 23.6039 3.79678C23.4704 3.64018 23.2962 3.51394 23.0959 3.42865C22.8956 3.34336 22.6749 3.30148 22.4524 3.30654C22.2314 3.3008 22.012 3.34246 21.8134 3.42786C21.6147 3.51326 21.4427 3.63987 21.3121 3.79678C21.0096 4.18344 20.8607 4.64698 20.8883 5.1156C20.858 5.57879 21.0064 6.03738 21.3093 6.41727H21.3177Z" fill="white"/>
<path d="M26.2867 3.86821C26.2788 3.59597 26.3475 3.32625 26.4865 3.08292C26.6257 2.83959 26.8309 2.63024 27.0841 2.47339C27.7098 2.1033 28.4556 1.92258 29.2086 1.95861C29.9509 1.92655 30.684 2.1138 31.2913 2.49055C31.5445 2.65144 31.7502 2.86342 31.8909 3.10869C32.0315 3.354 32.1032 3.62539 32.0998 3.90008H30.3907C30.3853 3.78752 30.3514 3.67744 30.2916 3.57782C30.2318 3.47818 30.1476 3.3915 30.045 3.32401C29.7946 3.17316 29.4951 3.09827 29.1919 3.11073C28.9085 3.0977 28.6274 3.16101 28.3861 3.29214C28.2929 3.34145 28.2159 3.4112 28.1626 3.49457C28.1093 3.57794 28.0816 3.67207 28.0822 3.76771C28.0822 4.06677 28.3945 4.28002 29.0134 4.40751L30.3238 4.65264C30.8758 4.73087 31.3944 4.93641 31.8266 5.2483C31.9822 5.39002 32.1024 5.55869 32.1798 5.74354C32.257 5.92842 32.2897 6.12543 32.2756 6.32198C32.283 6.60304 32.2103 6.88127 32.0644 7.13132C31.9182 7.38137 31.7033 7.59531 31.4391 7.75357C30.7816 8.14133 29.9993 8.33221 29.2086 8.29779C28.4331 8.33116 27.6659 8.14467 27.02 7.76583C26.7572 7.60356 26.54 7.3907 26.3849 7.14347C26.2298 6.89624 26.1409 6.62115 26.125 6.33917H27.9289C27.9461 6.4584 27.9917 6.57311 28.0628 6.67575C28.1339 6.77843 28.2289 6.86671 28.3415 6.93482C28.6152 7.08655 28.9356 7.16017 29.2588 7.14565C29.5609 7.15927 29.8613 7.09814 30.1259 6.96916C30.2221 6.92205 30.3022 6.85303 30.3576 6.76935C30.413 6.68567 30.4418 6.59043 30.4409 6.49358C30.4443 6.42138 30.4281 6.34948 30.3937 6.28383C30.3593 6.21821 30.3076 6.1607 30.243 6.11608C30.0394 5.99478 29.8098 5.91138 29.5683 5.87094L28.283 5.62581C26.9596 5.36106 26.2886 4.77193 26.2867 3.86821Z" fill="white"/>
<path d="M34.72 2.06358H36.0109V3.28922H34.72V6.27015C34.72 6.73829 34.9987 6.9711 35.5564 6.97116C35.7113 6.97246 35.8663 6.96336 36.0193 6.94411V8.14545C35.7251 8.19279 35.4262 8.21472 35.1273 8.21141C34.3205 8.21141 33.7445 8.08156 33.3986 7.82172C33.0528 7.56189 32.8802 7.1338 32.8802 6.5373V3.29419H32.4016C32.3624 3.14348 32.3023 2.99694 32.2225 2.85787C32.1444 2.72186 32.0487 2.59489 31.9375 2.47949V2.06855H32.8802V0.333984H34.72V2.06358Z" fill="white"/>
<path d="M51.9728 6.32182H53.6734C53.6281 6.61002 53.5143 6.88656 53.3388 7.13327C53.1633 7.37999 52.9306 7.5913 52.6558 7.7534C52.0264 8.12899 51.2775 8.31873 50.5173 8.29513C49.4579 8.29513 48.6215 8.01569 48.0082 7.45677C47.395 6.89789 47.0899 6.12979 47.0938 5.15252C47.0938 4.17199 47.3966 3.39572 48.0025 2.82375C48.6501 2.27559 49.5116 1.96591 50.4103 1.95816C51.3093 1.95041 52.1775 2.24518 52.8371 2.78208C53.4301 3.33117 53.7265 4.07149 53.7265 5.003V5.49327H48.9227V5.59376C48.9134 5.78952 48.9484 5.98495 49.0252 6.16881C49.1024 6.35265 49.22 6.52128 49.3714 6.66499C49.5222 6.80217 49.7035 6.91029 49.904 6.98247C50.1046 7.05462 50.3203 7.08927 50.5369 7.08418C50.8587 7.09436 51.1772 7.0256 51.4569 6.88562C51.7002 6.76029 51.8834 6.56172 51.9728 6.32671M50.4672 3.17675C50.2724 3.17149 50.0782 3.20142 49.897 3.26464C49.7157 3.32789 49.5511 3.4231 49.4132 3.54445C49.1262 3.80033 48.9581 4.14129 48.9423 4.50046H51.9477C51.9499 4.14291 51.7963 3.79821 51.5183 3.53708C51.381 3.41604 51.2168 3.32114 51.0361 3.25828C50.8551 3.19546 50.6616 3.16601 50.4672 3.17183V3.17675Z" fill="white"/>
<path d="M46.9563 1.98286C47.1315 1.97916 47.3064 1.99896 47.4748 2.04164V2.77714C47.3125 2.96551 47.1756 3.17071 47.0631 3.39258C46.9798 3.38413 46.8956 3.38173 46.8111 3.38515C46.6102 3.37484 46.409 3.40149 46.2203 3.46352C46.0316 3.52558 45.8593 3.62175 45.7153 3.74556C45.4389 4.02283 45.2987 4.38499 45.3251 4.75292V8.18481H43.4766V2.06151H45.2611V3.15966H45.3029C45.3958 2.82181 45.6086 2.51858 45.9107 2.29417C46.2077 2.08709 46.5774 1.97704 46.9563 1.98286Z" fill="white"/>
<path d="M39.4772 1.85059C40.4335 1.85062 41.3508 2.18441 42.0275 2.77872C42.7037 3.37307 43.0843 4.17944 43.085 5.02028C43.085 5.64702 42.8735 6.25964 42.4775 6.78079C42.0815 7.30195 41.5186 7.70823 40.86 7.94819C40.2014 8.18816 39.4769 8.25107 38.7775 8.12898C38.0784 8.00686 37.4362 7.70535 36.9318 7.26239C36.4275 6.81937 36.0842 6.2548 35.9447 5.64013C35.8052 5.02548 35.876 4.38817 36.1485 3.80897C36.4208 3.22979 36.8827 2.73457 37.4751 2.386C38.0675 2.03742 38.7643 1.85107 39.4772 1.85059ZM38.3812 3.31056C38.2028 3.29877 38.0244 3.33398 37.8688 3.41156C37.7132 3.48917 37.5872 3.60566 37.5072 3.74634C37.4272 3.88699 37.3966 4.04542 37.4191 4.20142C37.4416 4.35745 37.5168 4.5041 37.6345 4.62257C37.7521 4.74107 37.9074 4.82636 38.0803 4.86711C38.1173 4.87593 38.133 4.91464 38.1125 4.94327C38.0073 5.08865 37.9386 5.25242 37.9109 5.42348C37.8797 5.6178 37.9022 5.81597 37.9771 6.00085C38.052 6.18571 38.1771 6.35185 38.341 6.48493C38.5049 6.61801 38.7036 6.71399 38.9192 6.76477C39.1349 6.81556 39.3612 6.81974 39.5791 6.77664C39.7967 6.73351 39.9996 6.64438 40.1696 6.5172C40.3396 6.39006 40.4717 6.22846 40.5553 6.04638C40.6299 5.88309 40.6633 5.70756 40.653 5.53223C40.6514 5.50304 40.6826 5.47995 40.7147 5.48752C40.8311 5.52112 40.9542 5.53359 41.0763 5.52395C41.1985 5.51431 41.3171 5.4828 41.4251 5.43151C41.5328 5.38021 41.6276 5.31015 41.7035 5.2256C41.7793 5.14099 41.8349 5.04354 41.8667 4.9394C41.8986 4.83529 41.9056 4.72648 41.888 4.61983C41.8703 4.5132 41.8282 4.41081 41.7639 4.31899C41.6999 4.22717 41.6147 4.14781 41.5145 4.08578C41.4142 4.02378 41.3004 3.9804 41.1805 3.9583C41.0657 3.9306 40.9397 3.93283 40.8215 3.94586C40.7032 3.95892 40.6003 3.99371 40.4968 4.04551C40.3933 4.09731 40.3023 4.16672 40.2291 4.24944C40.1561 4.33213 40.1021 4.42666 40.0706 4.52764C40.0587 4.55935 40.0153 4.57452 39.9828 4.55717C39.8713 4.49726 39.7501 4.45179 39.6232 4.42223C39.4985 4.3925 39.3692 4.37893 39.24 4.38193C39.2011 4.38275 39.1709 4.35112 39.1809 4.31817C39.2301 4.16686 39.2265 4.00608 39.1712 3.85644C39.116 3.70683 39.0115 3.57499 38.8707 3.4778C38.7302 3.38059 38.5596 3.32234 38.3812 3.31056Z" fill="white"/>
<path d="M45.4609 10.299V9.87012H48.1526V10.299H47.0957V12.683H46.52V10.299H45.4609Z" fill="white"/>
<path d="M42.2344 11.3388V11.2171C42.2344 10.7508 42.3816 10.4012 42.676 10.168C42.9704 9.93493 43.3417 9.81836 43.7901 9.81836C44.225 9.81836 44.5589 9.89822 44.792 10.0579C45.0263 10.2163 45.1626 10.4681 45.2005 10.8133L45.205 10.879H44.6248L44.6207 10.8114C44.5943 10.6233 44.513 10.4816 44.3767 10.3863C44.2404 10.2898 44.0456 10.2415 43.792 10.2415C43.4918 10.2415 43.2559 10.3174 43.0846 10.4694C42.9148 10.6201 42.8297 10.8603 42.8297 11.19V11.3658C42.8297 11.7123 42.9168 11.957 43.0913 12.0999C43.2655 12.2429 43.5008 12.3144 43.7965 12.3144C44.0662 12.3144 44.2674 12.2609 44.4008 12.154C44.5355 12.0471 44.6094 11.9106 44.6226 11.7445L44.6248 11.6769H45.205L45.2028 11.7483C45.1851 12.0703 45.0549 12.3157 44.8116 12.4844C44.5699 12.6518 44.2295 12.7355 43.7901 12.7355C43.3372 12.7355 42.9647 12.619 42.6715 12.3859C42.38 12.1515 42.2344 11.8024 42.2344 11.3388Z" fill="white"/>
<path d="M39.5703 12.683V9.87012H41.7718V10.299H40.137V11.0293H41.5609V11.4446H40.137V12.2579H41.7981V12.683H39.5703Z" fill="white"/>
<path d="M36.6094 11.8136V11.7383H37.1674V11.804C37.1674 11.992 37.2076 12.1247 37.2882 12.2019C37.3702 12.2792 37.502 12.3178 37.6836 12.3178C37.8697 12.3178 38.0047 12.267 38.0879 12.1652C38.1731 12.0635 38.2156 11.9089 38.2156 11.7016V9.87012H38.789V11.6977C38.789 12.0222 38.6974 12.2766 38.5142 12.4608C38.3313 12.6437 38.0587 12.7351 37.6971 12.7351C37.3438 12.7351 37.0745 12.6604 36.8884 12.511C36.7023 12.3603 36.6094 12.1279 36.6094 11.8136Z" fill="white"/>
<path d="M33.1094 11.3291V11.2132C33.1094 10.7521 33.2556 10.4044 33.5488 10.17C33.8432 9.93558 34.2161 9.81836 34.667 9.81836C35.1183 9.81836 35.4924 9.93558 35.7901 10.17C36.0887 10.4044 36.2382 10.7521 36.2382 11.2132V11.3291C36.2382 11.7953 36.0887 12.1463 35.7901 12.382C35.4924 12.6177 35.1183 12.7355 34.667 12.7355C34.2161 12.7355 33.8432 12.6177 33.5488 12.382C33.2556 12.1463 33.1094 11.7953 33.1094 11.3291ZM33.7005 11.3581C33.7005 11.6788 33.7898 11.9183 33.9686 12.0768C34.1486 12.2339 34.3816 12.3124 34.667 12.3124C34.9544 12.3137 35.1893 12.2352 35.3726 12.0768C35.5554 11.9183 35.6471 11.6794 35.6471 11.36V11.19C35.6471 10.8719 35.5554 10.6349 35.3726 10.4791C35.1909 10.3232 34.9557 10.2453 34.667 10.2453C34.3816 10.244 34.1486 10.3219 33.9686 10.4791C33.7898 10.6349 33.7005 10.8712 33.7005 11.1881V11.3581Z" fill="white"/>
<path d="M30.2031 12.683V9.87012H31.5105C31.862 9.87012 32.136 9.94933 32.3323 10.1077C32.5284 10.2649 32.6268 10.48 32.6268 10.753C32.6268 11.0273 32.5271 11.2456 32.3278 11.4079C32.1301 11.5702 31.8569 11.6513 31.5083 11.6513H30.7788V12.683H30.2031ZM30.7766 11.2456H31.4753C31.6775 11.2456 31.824 11.2006 31.9148 11.1104C32.0056 11.0203 32.051 10.9037 32.051 10.7607C32.051 10.6165 32.0049 10.5019 31.9126 10.4169C31.8218 10.3305 31.676 10.2874 31.4753 10.2874H30.7766V11.2456ZM32.1565 12.683L31.3501 11.4002L31.9543 11.3905L32.8135 12.683H32.1565Z" fill="white"/>
<path d="M27.2188 12.683V9.87012H28.5679C28.9282 9.87012 29.1999 9.94998 29.3831 10.1097C29.5662 10.2681 29.6577 10.4922 29.6577 10.782C29.6577 11.064 29.5662 11.2875 29.3831 11.4523C29.2014 11.6159 28.9289 11.6977 28.5657 11.6977H27.7944V12.683H27.2188ZM27.7944 11.2823H28.5239C28.7173 11.2823 28.8586 11.2373 28.948 11.1471C29.0388 11.057 29.0842 10.9359 29.0842 10.7839C29.0842 10.6306 29.0388 10.5102 28.948 10.4226C28.8586 10.3351 28.7173 10.2913 28.5239 10.2913H27.7944V11.2823Z" fill="white"/>
</g>
<defs>
<clipPath id="clip0_14618_5488">
<rect width="54" height="13" fill="white"/>
</clipPath>
</defs>
</svg>
