<svg width="109" height="26" viewBox="0 0 109 26" fill="none" xmlns="http://www.w3.org/2000/svg">
<path d="M3.14062 13.4688L2.71875 13.4375C2.67708 13.4583 2.60417 13.5312 2.5 13.6562C2.39583 13.7812 2.23438 13.901 2.01562 14.0156C1.80729 14.1198 1.68229 14.224 1.64062 14.3281C1.59896 14.4323 1.55729 14.5156 1.51562 14.5781C1.47396 14.6302 1.42188 14.7031 1.35938 14.7969C1.30729 14.8906 1.23958 14.9688 1.15625 15.0312C1.07292 15.0938 1.00521 15.1927 0.953125 15.3281C0.901042 15.4531 0.807292 15.5156 0.671875 15.5156C0.223958 15.5156 0 15.2292 0 14.6562C0 14.4896 0.104167 14.1823 0.3125 13.7344C0.520833 13.2865 0.75 13.026 1 12.9531C1.25 12.8698 1.4375 12.7969 1.5625 12.7344C1.69792 12.6719 1.81771 12.6198 1.92188 12.5781C2.03646 12.526 2.32812 12.3333 2.79688 12C2.81771 11.9792 3.08333 11.901 3.59375 11.7656L4.17188 11.4219C4.25521 11.3177 4.32812 11.2604 4.39062 11.25C4.45312 11.2396 4.53646 11.2083 4.64062 11.1562L4.90625 11.125C5.02083 10.9896 5.20312 10.8854 5.45312 10.8125L5.89062 10.625C6.18229 10.4583 6.55729 10.3073 7.01562 10.1719L7.10938 10.1094C7.13021 10.0885 7.16146 10.0677 7.20312 10.0469L7.625 10.0781C7.75 10.0781 7.83333 9.97917 7.875 9.78125C7.91667 9.76042 7.94792 9.75 7.96875 9.75L8.35938 9.78125C8.38021 9.78125 8.43229 9.75521 8.51562 9.70312C8.59896 9.65104 8.69271 9.61458 8.79688 9.59375C8.91146 9.57292 9.00521 9.51562 9.07812 9.42188C9.15104 9.32812 9.22917 9.28125 9.3125 9.28125H9.57812C9.66146 9.28125 9.76042 9.20312 9.875 9.04688C9.98958 8.88021 10.1458 8.71354 10.3438 8.54688C10.3854 8.56771 10.4271 8.57812 10.4688 8.57812C10.5312 8.57812 10.5885 8.51042 10.6406 8.375C10.6927 8.22917 10.7656 8.11458 10.8594 8.03125C10.9635 7.94792 11.0781 7.80208 11.2031 7.59375C11.3281 7.375 11.4427 7.23958 11.5469 7.1875C11.6615 7.125 11.7656 7.04167 11.8594 6.9375C11.9635 6.82292 12.0677 6.76042 12.1719 6.75L12.2031 6.71875V6.51562C12.2031 6.34896 12.349 6.19271 12.6406 6.04688C12.6823 6.02604 12.7396 5.98438 12.8125 5.92188V5.6875C12.8125 5.66667 12.8646 5.59896 12.9688 5.48438C13.0729 5.35938 13.125 5.27083 13.125 5.21875C13.125 5.13542 13.2865 4.91667 13.6094 4.5625C13.9427 4.19792 14.1771 3.97396 14.3125 3.89062C14.4583 3.80729 14.6302 3.59896 14.8281 3.26562L15.0469 3.1875C15.2656 2.89583 15.4479 2.6875 15.5938 2.5625C15.7396 2.42708 15.875 2.25521 16 2.04688L16.2344 1.78125C16.2969 1.76042 16.3281 1.71875 16.3281 1.65625C16.3281 1.59375 16.2656 1.5625 16.1406 1.5625C16.0052 1.5625 15.8125 1.52083 15.5625 1.4375L15.2969 1.53125L15.0156 1.5L14.625 1.6875L14.25 1.65625C13.9896 1.8125 13.8073 1.90104 13.7031 1.92188C13.599 1.94271 13.5156 1.96354 13.4531 1.98438C13.401 2.00521 13.3385 2.02604 13.2656 2.04688C13.1927 2.06771 13.0938 2.11458 12.9688 2.1875C12.8438 2.26042 12.6719 2.29688 12.4531 2.29688C12.3698 2.29688 12.2656 2.34896 12.1406 2.45312C12.026 2.54688 11.8438 2.66667 11.5938 2.8125C11.5938 2.83333 11.5833 2.84375 11.5625 2.84375L11.1094 2.8125C10.6406 3.28125 10.3438 3.51562 10.2188 3.51562L9.85938 3.45312C9.49479 3.58854 9.20833 3.74479 9 3.92188C8.80208 4.09896 8.60938 4.23958 8.42188 4.34375L8.14062 4.3125C7.89062 4.5625 7.72917 4.71354 7.65625 4.76562C7.59375 4.80729 7.53125 4.88542 7.46875 5C7.41667 5.11458 7.31771 5.17188 7.17188 5.17188L6.82812 5.4375C6.82812 5.59375 6.70833 5.76562 6.46875 5.95312L6.4375 6.01562V6.35938C6.4375 6.44271 6.35417 6.55729 6.1875 6.70312C6.03125 6.83854 5.91146 6.90625 5.82812 6.90625C5.64062 6.90625 5.44792 6.78646 5.25 6.54688C5.0625 6.29688 4.96875 6.04167 4.96875 5.78125C4.96875 5.73958 5 5.63542 5.0625 5.46875L5.21875 4.79688C5.30208 4.47396 5.83854 4.15104 6.82812 3.82812L7.07812 3.64062C7.28646 3.51562 7.4375 3.45312 7.53125 3.45312L7.71875 3.39062L7.8125 3.15625C7.875 3.11458 7.97917 3.0625 8.125 3C8.28125 2.9375 8.42188 2.85417 8.54688 2.75C8.67188 2.64583 8.85417 2.54688 9.09375 2.45312L9.34375 2.29688H9.67188C10.1615 1.80729 11.2865 1.30208 13.0469 0.78125C14.8073 0.260417 16.2396 0 17.3438 0C17.6458 0 17.9427 0.192708 18.2344 0.578125C18.5365 0.953125 18.6875 1.30208 18.6875 1.625C18.6875 1.82292 18.5729 2.02604 18.3438 2.23438C18.1771 2.31771 18.0521 2.51042 17.9688 2.8125C17.8854 3.10417 17.7448 3.31771 17.5469 3.45312C17.1302 3.81771 16.9062 4.04167 16.875 4.125L16.7344 4.4375C16.6927 4.53125 16.625 4.59896 16.5312 4.64062C16.4375 4.68229 16.349 4.79688 16.2656 4.98438C16.1823 5.17188 15.9688 5.3125 15.625 5.40625C15.6042 5.41667 15.5885 5.48438 15.5781 5.60938C15.5677 5.72396 15.4427 5.84896 15.2031 5.98438L15.0156 6.14062C14.9115 6.47396 14.8125 6.66667 14.7188 6.71875L14.5625 6.875C14.4167 7.38542 14.1771 7.64062 13.8438 7.64062C13.7708 7.64062 13.7031 7.73438 13.6406 7.92188C13.5885 8.09896 13.4375 8.26042 13.1875 8.40625V8.5C13.6354 8.35417 13.9583 8.28125 14.1562 8.28125L14.375 8.25L14.4688 8.15625C14.5312 8.19792 14.5938 8.21875 14.6562 8.21875C14.7917 8.21875 14.9427 8.14583 15.1094 8L15.3594 8.03125C15.3802 8.01042 15.4167 8 15.4688 8L16.2656 7.76562C16.4948 7.72396 16.75 7.67188 17.0312 7.60938H17.1875C17.5417 7.60938 17.8177 7.71875 18.0156 7.9375C18.2135 8.15625 18.3125 8.42188 18.3125 8.73438L18.25 9.17188L18.2812 9.40625C18.2812 9.46875 18.1823 9.5625 17.9844 9.6875L17.8281 9.8125C17.5781 10.0312 17.3125 10.1406 17.0312 10.1406C16.5521 10.1406 16.2656 10.0208 16.1719 9.78125C16.1719 9.73958 16.099 9.71354 15.9531 9.70312C15.8177 9.69271 15.7135 9.66667 15.6406 9.625C15.5677 9.58333 15.5104 9.5625 15.4688 9.5625C15.3333 9.5625 15.1927 9.54167 15.0469 9.5C14.8594 9.625 14.6562 9.6875 14.4375 9.6875H14.3438L14.1562 9.625L13.8594 9.84375C13.8385 9.84375 13.8073 9.83333 13.7656 9.8125C13.724 9.79167 13.6823 9.78125 13.6406 9.78125C13.5781 9.78125 13.5052 9.80729 13.4219 9.85938C13.349 9.90104 13.2708 9.92188 13.1875 9.92188L12.9688 9.84375C12.9062 9.875 12.8333 9.89583 12.75 9.90625C12.6771 9.91667 12.5938 9.98438 12.5 10.1094C12.4062 10.2344 12.3073 10.2969 12.2031 10.2969C12.026 10.2969 11.8542 10.4688 11.6875 10.8125L11.5938 10.9062H11.5C11.4271 10.9062 11.375 10.9948 11.3438 11.1719C11.3125 11.3385 11.276 11.4427 11.2344 11.4844C11.0677 11.5052 10.9635 11.5625 10.9219 11.6562C10.8906 11.7396 10.8385 11.9167 10.7656 12.1875L10.625 12.4688L10.4375 12.5781C10.3333 12.974 10.1406 13.349 9.85938 13.7031C9.58854 14.0573 9.38542 14.3542 9.25 14.5938C9.125 14.8229 9.00521 14.9792 8.89062 15.0625C8.78646 15.1458 8.71354 15.2865 8.67188 15.4844C8.63021 15.6719 8.57812 15.8021 8.51562 15.875C8.45312 15.9375 8.32812 16.1615 8.14062 16.5469L7.65625 17.375L7.45312 17.8281C7.38021 17.974 7.28646 18.0469 7.17188 18.0469C7.10938 18.0469 7.07812 18.099 7.07812 18.2031V18.5156C7.07812 18.5573 6.97396 18.8073 6.76562 19.2656L6.65625 19.5781C6.63542 19.6198 6.57292 19.6667 6.46875 19.7188C6.36458 19.7708 6.29167 19.9062 6.25 20.125C6.20833 20.3438 6.14583 20.4844 6.0625 20.5469C5.98958 20.6094 5.94271 20.7448 5.92188 20.9531C5.90104 21.151 5.79688 21.2812 5.60938 21.3438C5.58854 21.5312 5.56771 21.6562 5.54688 21.7188C5.53646 21.7812 5.44792 21.849 5.28125 21.9219H5.25L5.34375 22.4531C5.34375 22.526 5.32292 22.5625 5.28125 22.5625C5.17708 22.625 5.125 22.6771 5.125 22.7188L5.1875 22.9062V22.9688C5.1875 23.0104 5.14583 23.1094 5.0625 23.2656V23.2969C5.0625 23.3385 5.10417 23.5312 5.1875 23.875L5.09375 24.0625C5.09375 24.25 5.17708 24.3438 5.34375 24.3438L5.82812 24.0312C5.97396 24.0312 6.04688 24.2031 6.04688 24.5469L6.09375 24.7031C6 24.7656 5.95312 24.8177 5.95312 24.8594C5.95312 24.901 5.96354 24.9479 5.98438 25C6.00521 25.0521 6.01562 25.099 6.01562 25.1406C6.01562 25.4844 5.70833 25.6562 5.09375 25.6562H5.03125C4.98958 25.6562 4.92708 25.6354 4.84375 25.5938L4.51562 25.625C4.39062 25.625 4.16146 25.5052 3.82812 25.2656C3.50521 25.026 3.25521 24.6615 3.07812 24.1719C2.91146 23.6927 2.82812 23.2708 2.82812 22.9062L3.26562 21.1094C3.30729 21.0677 3.32812 21 3.32812 20.9062C3.32812 20.8125 3.36458 20.7031 3.4375 20.5781L3.625 20.0625C3.90625 19.5625 4.07812 19.2917 4.14062 19.25C4.20312 19.2083 4.29167 19.1562 4.40625 19.0938C4.52083 19.0312 4.59896 18.9688 4.64062 18.9062C4.45312 18.8438 4.35938 18.7865 4.35938 18.7344C4.35938 18.7031 4.4375 18.5469 4.59375 18.2656C4.76042 17.9844 4.89583 17.8333 5 17.8125C5.02083 17.8125 5.03125 17.8021 5.03125 17.7812C5.03125 17.7604 5.02083 17.7188 5 17.6562V17.625C5 17.6042 5.0625 17.4896 5.1875 17.2812L5.125 17.0469C5.16667 16.9844 5.22396 16.9219 5.29688 16.8594C5.38021 16.7969 5.48958 16.625 5.625 16.3438C5.76042 16.0521 5.86458 15.8906 5.9375 15.8594C6.01042 15.8177 6.0625 15.776 6.09375 15.7344L6.04688 15.2969C6.04688 15.2552 6.08333 15.1979 6.15625 15.125L6.25 14.9375C6.29167 14.8542 6.34375 14.776 6.40625 14.7031C6.46875 14.6302 6.55208 14.5052 6.65625 14.3281L6.76562 14.2031C6.80729 14.1406 6.86979 14.0104 6.95312 13.8125C6.95312 13.6042 7.06771 13.3802 7.29688 13.1406L7.89062 12.2188C8.30729 11.5833 8.51562 11.2188 8.51562 11.125V11.0938C8.28646 11.0938 7.98958 11.1979 7.625 11.4062C7.26042 11.6042 7.05729 11.7031 7.01562 11.7031L6.65625 11.6094C6.61458 11.6302 6.44792 11.7917 6.15625 12.0938C5.66667 12.0938 5.19271 12.2552 4.73438 12.5781L4.67188 12.6094H4.35938L4.29688 12.6406L4.20312 12.7969C4.08854 12.8385 3.94792 12.9115 3.78125 13.0156C3.61458 13.1094 3.47396 13.1771 3.35938 13.2188L3.14062 13.4688ZM16.2969 13.9531L16.5156 14.0469C16.5365 13.8698 16.6354 13.7188 16.8125 13.5938H16.9375C17.0417 13.5938 17.1771 13.4531 17.3438 13.1719L17.6094 13.0156C17.651 13.0365 17.7135 13.0469 17.7969 13.0469C17.8594 13.0469 17.9167 13.0052 17.9688 12.9219C18.0312 12.8385 18.1771 12.6771 18.4062 12.4375H18.4688C18.5312 12.4375 18.6042 12.3906 18.6875 12.2969C18.7812 12.2031 18.901 12.1562 19.0469 12.1562L19.5781 12.0156C19.7448 11.974 19.8385 11.9531 19.8594 11.9531C19.9531 11.9219 20.1823 12.1146 20.5469 12.5312C20.9115 12.9375 21.0938 13.3333 21.0938 13.7188C21.0938 13.9375 20.9792 14.0677 20.75 14.1094L20.6719 14.1719V14.4844L20.4062 15.0625C20.3333 15.2188 20.2448 15.3177 20.1406 15.3594C20.0469 15.526 19.9792 15.6406 19.9375 15.7031L19.7188 15.7344L19.625 15.8281V16.2188C19.5312 16.3438 19.3958 16.6198 19.2188 17.0469C19.0417 17.4635 18.9531 17.7292 18.9531 17.8438C18.9531 18.0417 18.9948 18.1406 19.0781 18.1406C19.1406 18.1406 19.2031 18.1146 19.2656 18.0625C19.3281 18.0104 19.4115 17.9531 19.5156 17.8906C19.6302 17.8177 19.7135 17.7448 19.7656 17.6719C19.8177 17.599 19.9271 17.5365 20.0938 17.4844C20.2604 17.4219 20.4167 17.3125 20.5625 17.1562C20.7083 17 20.8125 16.8958 20.875 16.8438C20.9375 16.7917 21.0052 16.724 21.0781 16.6406C21.151 16.5469 21.1979 16.5 21.2188 16.5C21.2812 16.5 21.3802 16.4792 21.5156 16.4375C21.5365 16.3229 21.5573 16.2396 21.5781 16.1875L21.9531 16L22.8594 15.1875L22.9844 15.0312C23.151 14.9896 23.2552 14.9583 23.2969 14.9375C23.3802 14.6562 23.5208 14.4531 23.7188 14.3281C23.7188 14.2865 23.7708 14.2552 23.875 14.2344C23.9583 14.0677 24.0625 13.9375 24.1875 13.8438C24.3229 13.7396 24.4323 13.6146 24.5156 13.4688L24.875 13.1719C24.9792 13.1302 25.0521 13.0677 25.0938 12.9844C25.6354 12.5052 25.9688 12.2344 26.0938 12.1719C26.2292 12.099 26.4427 12.0625 26.7344 12.0625C27.026 12.0625 27.2604 12.1771 27.4375 12.4062C27.625 12.625 27.8229 12.7917 28.0312 12.9062C28.25 13.0208 28.3594 13.2396 28.3594 13.5625C28.3594 13.8646 28.125 14.4427 27.6562 15.2969C27.3542 16.1927 27.1979 16.7448 27.1875 16.9531C27.1771 17.151 27.1302 17.2656 27.0469 17.2969C26.9635 17.3281 26.9219 17.3646 26.9219 17.4062V17.4688C26.9219 17.7188 26.9635 17.8438 27.0469 17.8438C27.1094 17.8438 27.1927 17.7917 27.2969 17.6875C27.4115 17.5833 27.6354 17.4688 27.9688 17.3438L28.1094 17.375C28.4115 16.9167 28.6146 16.6719 28.7188 16.6406C28.8229 16.599 28.9271 16.5052 29.0312 16.3594C29.1354 16.2031 29.2604 16.1198 29.4062 16.1094C29.5625 16.099 29.6615 16.0729 29.7031 16.0312C29.7135 15.7812 29.9167 15.5 30.3125 15.1875C30.7188 14.875 30.9531 14.7188 31.0156 14.7188C31.1198 14.7188 31.2031 14.7969 31.2656 14.9531C31.3281 15.1094 31.3906 15.2188 31.4531 15.2812C31.526 15.3333 31.5625 15.3802 31.5625 15.4219V15.7031C31.5625 15.8385 31.4948 15.9271 31.3594 15.9688C31.2552 16.1979 31.1615 16.3333 31.0781 16.375L30.7969 16.3438C30.7448 16.4062 30.6979 16.4635 30.6562 16.5156C30.625 16.5677 30.6042 16.5885 30.5938 16.5781C30.5104 16.599 30.3594 16.7396 30.1406 17C29.9323 17.25 29.7448 17.4583 29.5781 17.625L29.5156 17.7188C29.4323 17.7812 29.3542 17.8229 29.2812 17.8438L29 18.0781C28.8958 18.0156 28.8333 17.9844 28.8125 17.9844C28.7917 17.9844 28.7448 18.026 28.6719 18.1094C28.6094 18.1927 28.474 18.3021 28.2656 18.4375C28.0677 18.5625 27.9167 18.7083 27.8125 18.875L27.5625 19.125L27.2344 19.1719C27.2031 19.1719 27.151 19.2188 27.0781 19.3125L26.7969 19.6719C26.6615 19.849 26.4479 19.9375 26.1562 19.9375C26.0938 19.9375 26.0104 19.8854 25.9062 19.7812C25.8125 19.6667 25.7188 19.5729 25.625 19.5C25.5417 19.4167 25.3438 19.1823 25.0312 18.7969C24.7292 18.401 24.5781 18.1927 24.5781 18.1719L24.6719 17.625L24.6406 17.25C24.6406 17.1771 24.6875 17.0677 24.7812 16.9219C24.8854 16.7656 24.9375 16.6823 24.9375 16.6719L24.9062 16.0625C24.9271 16.0417 24.9479 16.0104 24.9688 15.9688L25.1875 15.6094C25.1667 15.5052 25.1562 15.3906 25.1562 15.2656L25.2188 14.75C25.0312 14.8333 24.8646 15.0052 24.7188 15.2656C24.5833 15.5156 24.401 15.6406 24.1719 15.6406C23.974 15.9948 23.8229 16.1667 23.7188 16.1562C23.6771 16.1979 23.6458 16.2396 23.625 16.2812L23.4062 16.4062L23.1406 16.375L23.0469 16.7656C22.8177 16.8906 22.6667 17.0052 22.5938 17.1094C22.5312 17.2031 22.4271 17.3021 22.2812 17.4062L22.0156 17.6562H21.7656C21.724 17.9375 21.5625 18.1719 21.2812 18.3594L21.1562 18.5156L20.875 18.4844C20.7708 18.8177 20.6406 19.0208 20.4844 19.0938C20.3073 19.0938 20.0625 19.2552 19.75 19.5781C19.4479 19.901 19.2344 20.0625 19.1094 20.0625C18.2031 20.0625 17.4688 19.4948 16.9062 18.3594C16.8854 18.3177 16.8333 18.2396 16.75 18.125C16.6771 18.0104 16.6406 17.8333 16.6406 17.5938C16.6406 17.1875 16.6927 16.9115 16.7969 16.7656C16.9115 16.6198 17.0521 16.349 17.2188 15.9531C17.3958 15.5469 17.526 15.3698 17.6094 15.4219C17.6302 15.3802 17.6406 15.3177 17.6406 15.2344C17.8073 15.0365 17.8906 14.8854 17.8906 14.7812C17.8906 14.7396 17.8698 14.7188 17.8281 14.7188C17.8073 14.7188 17.7448 14.75 17.6406 14.8125L17.4219 14.9062C17.3281 14.9271 17.2604 14.9688 17.2188 15.0312C17.1771 15.0938 17.1042 15.1562 17 15.2188C16.8958 15.2708 16.8125 15.3177 16.75 15.3594H16.7031C16.6406 15.2969 16.599 15.2656 16.5781 15.2656C16.5156 15.4323 16.4635 15.5365 16.4219 15.5781L16.2344 15.6094C16.0052 15.849 15.8594 15.9688 15.7969 15.9688C15.7552 15.9688 15.6615 15.9323 15.5156 15.8594C15.3698 15.7865 15.2969 15.7135 15.2969 15.6406L15.4062 15.0312V14.75C15.4062 14.7292 15.4479 14.6875 15.5312 14.625C15.5521 14.625 15.6354 14.5156 15.7812 14.2969C15.9271 14.0677 16.099 13.9531 16.2969 13.9531ZM32.2969 16.5781V16.4688C32.2969 16.3229 32.3073 16.2083 32.3281 16.125C32.2656 15.9583 32.2344 15.8073 32.2344 15.6719C32.2344 15.651 32.2865 15.5052 32.3906 15.2344L32.5312 14.75C32.6042 14.5625 32.6458 14.4635 32.6562 14.4531C32.5938 14.2865 32.5625 14.1927 32.5625 14.1719C32.5625 13.9323 32.6302 13.7344 32.7656 13.5781C32.901 13.4219 33.0156 13.2031 33.1094 12.9219L33.4219 11.9688L33.9375 10.7188C33.9479 10.6875 33.9948 10.6042 34.0781 10.4688C34.1719 10.3333 34.2448 10.2188 34.2969 10.125C34.3594 10.0208 34.4427 9.875 34.5469 9.6875L34.7031 9.65625C34.7448 9.61458 34.7656 9.57292 34.7656 9.53125C34.7656 9.51042 34.7448 9.42708 34.7031 9.28125L35.25 8.375L35.5781 7.70312C35.6823 7.52604 35.7969 7.41146 35.9219 7.35938C36.1302 6.97396 36.3125 6.73958 36.4688 6.65625C36.5312 6.45833 36.6458 6.24479 36.8125 6.01562L37.1094 5.98438C37.1615 5.83854 37.2135 5.72917 37.2656 5.65625L37.2969 5.34375C37.2969 5.40625 37.3229 5.39062 37.375 5.29688C37.4271 5.19271 37.5052 5.00521 37.6094 4.73438L38.0312 4.25L38.1562 4.03125C38.2083 3.95833 38.2917 3.81771 38.4062 3.60938C38.5625 3.54688 38.6927 3.43229 38.7969 3.26562L39.125 3C39.1042 2.88542 39.2292 2.63021 39.5 2.23438C39.6771 2.16146 39.8385 2.06771 39.9844 1.95312L40.2031 1.89062C40.2031 1.52604 40.3333 1.27604 40.5938 1.14062L40.7812 1.01562C40.9479 0.932292 41.0417 0.890625 41.0625 0.890625L41.1719 0.859375C41.2969 0.817708 41.4427 0.796875 41.6094 0.796875C41.9948 0.796875 42.3438 0.942708 42.6562 1.23438C42.9688 1.51562 43.125 1.83854 43.125 2.20312C43.125 2.34896 43.0469 2.5 42.8906 2.65625L42.8281 2.78125C42.6823 3.35417 42.5781 3.64062 42.5156 3.64062C42.474 3.64062 42.4167 3.67188 42.3438 3.73438C42.3229 4.07812 42.3021 4.27083 42.2812 4.3125C42.0938 4.34375 42 4.57812 42 5.01562C41.9792 5.07812 41.901 5.1875 41.7656 5.34375C41.6406 5.48958 41.5417 5.69792 41.4688 5.96875C41.3958 6.22917 41.3177 6.35938 41.2344 6.35938H41.0625L41.1094 6.59375C41.1094 6.73958 41.0365 6.88542 40.8906 7.03125C40.7552 7.16667 40.6719 7.3125 40.6406 7.46875C40.6094 7.625 40.4844 7.8125 40.2656 8.03125L40.1094 8.28125C40.0469 8.38542 39.9635 8.49479 39.8594 8.60938C39.7552 8.72396 39.6667 8.90104 39.5938 9.14062L39.1875 9.89062C38.9062 10.401 38.6927 10.6458 38.5469 10.625C38.4531 11.0312 38.3906 11.2656 38.3594 11.3281C38.3281 11.3906 38.2552 11.4479 38.1406 11.5C38.026 11.5521 37.9375 11.6458 37.875 11.7812C37.8125 11.9062 37.7448 12 37.6719 12.0625L37.3906 12.6406C37.224 12.7135 37.1042 12.849 37.0312 13.0469C36.8646 13.0885 36.7604 13.2292 36.7188 13.4688C36.6771 13.5104 36.625 13.6042 36.5625 13.75L36.0156 14.2969C35.7344 14.4948 35.5833 14.724 35.5625 14.9844C35.5417 15.2344 35.4062 15.3594 35.1562 15.3594C34.9792 15.3594 34.7188 15.2812 34.375 15.125H34.3438C34.3125 15.2708 34.2396 15.4323 34.125 15.6094L34.1875 16.0312C34.1875 16.0833 34.1042 16.4115 33.9375 17.0156C34.0208 17.1719 34.0625 17.2812 34.0625 17.3438L34.0312 17.6875L34.1094 18.1094C34.1615 18.4531 34.2865 18.625 34.4844 18.625L34.8594 18.6875C34.8802 18.6875 35.0104 18.6094 35.25 18.4531L35.8281 18.1406C35.849 18.1406 35.8594 18.151 35.8594 18.1719C35.9635 18.2135 36.0469 18.2344 36.1094 18.2344C36.2135 18.2344 36.2656 18.151 36.2656 17.9844V17.7812C36.3281 17.6771 36.401 17.6146 36.4844 17.5938C36.5781 17.5729 36.6615 17.526 36.7344 17.4531C36.8073 17.3802 36.8646 17.3438 36.9062 17.3438H37.0625C37.2188 17.3438 37.2969 17.1615 37.2969 16.7969C37.3385 16.776 37.3906 16.7344 37.4531 16.6719H37.6406C37.724 16.6719 37.8125 16.5729 37.9062 16.375C38.0104 16.1667 38.0833 16.0417 38.125 16C38.3125 15.9792 38.4427 15.9479 38.5156 15.9062C38.849 15.3021 39.1042 15 39.2812 15H39.375C39.5521 14.8333 39.6458 14.6875 39.6562 14.5625C39.6771 14.4271 39.7292 14.3385 39.8125 14.2969C39.9062 14.2552 39.9896 14.2031 40.0625 14.1406C40.1354 14.0781 40.1823 14.0469 40.2031 14.0469C40.3594 14.0469 40.4375 14.1042 40.4375 14.2188L40.3906 14.6562L40.5 15.125C40.5 15.1667 40.4531 15.25 40.3594 15.375C40.276 15.4896 40.2344 15.6198 40.2344 15.7656C40.2344 16.0677 40.1823 16.2292 40.0781 16.25C39.974 16.2708 39.8854 16.3438 39.8125 16.4688C39.75 16.5833 39.6406 16.6927 39.4844 16.7969C39.3281 16.8906 39.2083 17.0312 39.125 17.2188L38.8594 17.2812L38.7031 17.375C38.5781 17.6979 38.4427 17.8958 38.2969 17.9688C38.1615 18.0417 37.9896 18.2604 37.7812 18.625C37.75 18.625 37.7344 18.6354 37.7344 18.6562L37.4844 18.625C37.3906 18.7917 37.2969 18.8906 37.2031 18.9219C37.1094 18.9531 37.0312 19.0156 36.9688 19.1094C36.9062 19.1927 36.7917 19.2656 36.625 19.3281C36.4688 19.3906 36.3698 19.4635 36.3281 19.5469C36.2865 19.6302 36.224 19.6771 36.1406 19.6875C36.0573 19.6979 35.9792 19.7396 35.9062 19.8125C35.8333 19.875 35.7708 19.9062 35.7188 19.9062C35.6979 19.9062 35.625 19.8958 35.5 19.875H35.4375C35.2604 20 35.1146 20.0625 35 20.0625C34.8646 20.0625 34.7656 20.0833 34.7031 20.125C34.6406 20.0833 34.5417 20.0521 34.4062 20.0312C34.2812 20.0104 34.1354 19.9583 33.9688 19.875C33.7917 19.9167 33.6823 19.9375 33.6406 19.9375C33.4635 19.9375 33.2396 19.7656 32.9688 19.4219C32.6979 19.0677 32.5625 18.724 32.5625 18.3906C32.5625 18.3802 32.5 18.3021 32.375 18.1562C32.2604 18 32.2031 17.8333 32.2031 17.6562V17.5L32.2344 17.3125V17.0156L32.2656 16.9219C32.4219 16.901 32.5 16.8802 32.5 16.8594L32.2969 16.5781ZM35.4688 12.4375L35.7969 12.25C35.8385 12.0833 35.974 11.8854 36.2031 11.6562C36.4323 11.4167 36.5938 11.2969 36.6875 11.2969H36.8125C36.8125 11.224 36.8281 11.151 36.8594 11.0781C36.8906 11.0052 36.9062 10.9062 36.9062 10.7812C36.9062 10.7188 37.0469 10.5469 37.3281 10.2656L37.4531 9.98438C37.5469 9.71354 37.7812 9.48958 38.1562 9.3125C38.3021 9.01042 38.4115 8.85938 38.4844 8.85938L38.6094 8.82812C38.651 8.67188 38.7344 8.53125 38.8594 8.40625L38.9219 8.3125V8.0625C38.9219 8.04167 38.9896 7.95833 39.125 7.8125C39.2708 7.65625 39.375 7.51562 39.4375 7.39062C39.5 7.25521 39.5833 7.15104 39.6875 7.07812C39.8021 7.00521 39.8802 6.875 39.9219 6.6875L40.1719 6.65625C40.1719 6.52083 40.1823 6.43229 40.2031 6.39062L40.2344 6.23438C40.2865 6.10938 40.4688 5.78125 40.7812 5.25L41.0312 4.67188C41.0312 4.60938 41.0729 4.53646 41.1562 4.45312C41.25 4.35938 41.2969 4.22917 41.2969 4.0625L41.4219 3.54688C41.4219 3.30729 41.3802 3.1875 41.2969 3.1875C41.1927 3.26042 41.0938 3.3125 41 3.34375C40.9167 3.375 40.8333 3.5625 40.75 3.90625C40.4375 3.97917 40.2552 4.13021 40.2031 4.35938C40.1615 4.57812 40.0365 4.76562 39.8281 4.92188L39.7188 5.10938C39.6979 5.22396 39.599 5.34375 39.4219 5.46875C39.2448 5.59375 39.0781 5.80729 38.9219 6.10938C38.401 6.82812 38.1146 7.21354 38.0625 7.26562L37.9062 7.45312L37.6719 7.42188C37.7135 7.58854 37.7344 7.68229 37.7344 7.70312C37.7344 7.76562 37.7031 7.82812 37.6406 7.89062C37.5781 7.94271 37.5312 8.01042 37.5 8.09375C37.4688 8.17708 37.4062 8.27604 37.3125 8.39062C37.2188 8.49479 37.1302 8.67188 37.0469 8.92188C36.974 9.16146 36.9062 9.30208 36.8438 9.34375L36.625 9.3125C36.4896 9.39583 36.4219 9.47917 36.4219 9.5625L36.4688 9.78125C36.4688 9.82292 36.4375 9.875 36.375 9.9375C36.3229 9.98958 36.2708 10.099 36.2188 10.2656C36.1667 10.4323 36.0365 10.6875 35.8281 11.0312C35.6198 11.3646 35.4531 11.724 35.3281 12.1094C35.2135 12.4844 35.099 12.724 34.9844 12.8281C35.0052 12.849 35.0365 12.8594 35.0781 12.8594C35.2135 12.8594 35.3438 12.7188 35.4688 12.4375ZM40.7969 16.5781V16.4688C40.7969 16.3229 40.8073 16.2083 40.8281 16.125C40.7656 15.9583 40.7344 15.8073 40.7344 15.6719C40.7344 15.651 40.7865 15.5052 40.8906 15.2344L41.0312 14.75C41.1042 14.5625 41.1458 14.4635 41.1562 14.4531C41.0938 14.2865 41.0625 14.1927 41.0625 14.1719C41.0625 13.9323 41.1302 13.7344 41.2656 13.5781C41.401 13.4219 41.5156 13.2031 41.6094 12.9219L41.9219 11.9688L42.4375 10.7188C42.4479 10.6875 42.4948 10.6042 42.5781 10.4688C42.6719 10.3333 42.7448 10.2188 42.7969 10.125C42.8594 10.0208 42.9427 9.875 43.0469 9.6875L43.2031 9.65625C43.2448 9.61458 43.2656 9.57292 43.2656 9.53125C43.2656 9.51042 43.2448 9.42708 43.2031 9.28125L43.75 8.375L44.0781 7.70312C44.1823 7.52604 44.2969 7.41146 44.4219 7.35938C44.6302 6.97396 44.8125 6.73958 44.9688 6.65625C45.0312 6.45833 45.1458 6.24479 45.3125 6.01562L45.6094 5.98438C45.6615 5.83854 45.7135 5.72917 45.7656 5.65625L45.7969 5.34375C45.7969 5.40625 45.8229 5.39062 45.875 5.29688C45.9271 5.19271 46.0052 5.00521 46.1094 4.73438L46.5312 4.25L46.6562 4.03125C46.7083 3.95833 46.7917 3.81771 46.9062 3.60938C47.0625 3.54688 47.1927 3.43229 47.2969 3.26562L47.625 3C47.6042 2.88542 47.7292 2.63021 48 2.23438C48.1771 2.16146 48.3385 2.06771 48.4844 1.95312L48.7031 1.89062C48.7031 1.52604 48.8333 1.27604 49.0938 1.14062L49.2812 1.01562C49.4479 0.932292 49.5417 0.890625 49.5625 0.890625L49.6719 0.859375C49.7969 0.817708 49.9427 0.796875 50.1094 0.796875C50.4948 0.796875 50.8438 0.942708 51.1562 1.23438C51.4688 1.51562 51.625 1.83854 51.625 2.20312C51.625 2.34896 51.5469 2.5 51.3906 2.65625L51.3281 2.78125C51.1823 3.35417 51.0781 3.64062 51.0156 3.64062C50.974 3.64062 50.9167 3.67188 50.8438 3.73438C50.8229 4.07812 50.8021 4.27083 50.7812 4.3125C50.5938 4.34375 50.5 4.57812 50.5 5.01562C50.4792 5.07812 50.401 5.1875 50.2656 5.34375C50.1406 5.48958 50.0417 5.69792 49.9688 5.96875C49.8958 6.22917 49.8177 6.35938 49.7344 6.35938H49.5625L49.6094 6.59375C49.6094 6.73958 49.5365 6.88542 49.3906 7.03125C49.2552 7.16667 49.1719 7.3125 49.1406 7.46875C49.1094 7.625 48.9844 7.8125 48.7656 8.03125L48.6094 8.28125C48.5469 8.38542 48.4635 8.49479 48.3594 8.60938C48.2552 8.72396 48.1667 8.90104 48.0938 9.14062L47.6875 9.89062C47.4062 10.401 47.1927 10.6458 47.0469 10.625C46.9531 11.0312 46.8906 11.2656 46.8594 11.3281C46.8281 11.3906 46.7552 11.4479 46.6406 11.5C46.526 11.5521 46.4375 11.6458 46.375 11.7812C46.3125 11.9062 46.2448 12 46.1719 12.0625L45.8906 12.6406C45.724 12.7135 45.6042 12.849 45.5312 13.0469C45.3646 13.0885 45.2604 13.2292 45.2188 13.4688C45.1771 13.5104 45.125 13.6042 45.0625 13.75L44.5156 14.2969C44.2344 14.4948 44.0833 14.724 44.0625 14.9844C44.0417 15.2344 43.9062 15.3594 43.6562 15.3594C43.4792 15.3594 43.2188 15.2812 42.875 15.125H42.8438C42.8125 15.2708 42.7396 15.4323 42.625 15.6094L42.6875 16.0312C42.6875 16.0833 42.6042 16.4115 42.4375 17.0156C42.5208 17.1719 42.5625 17.2812 42.5625 17.3438L42.5312 17.6875L42.6094 18.1094C42.6615 18.4531 42.7865 18.625 42.9844 18.625L43.3594 18.6875C43.3802 18.6875 43.5104 18.6094 43.75 18.4531L44.3281 18.1406C44.349 18.1406 44.3594 18.151 44.3594 18.1719C44.4635 18.2135 44.5469 18.2344 44.6094 18.2344C44.7135 18.2344 44.7656 18.151 44.7656 17.9844V17.7812C44.8281 17.6771 44.901 17.6146 44.9844 17.5938C45.0781 17.5729 45.1615 17.526 45.2344 17.4531C45.3073 17.3802 45.3646 17.3438 45.4062 17.3438H45.5625C45.7188 17.3438 45.7969 17.1615 45.7969 16.7969C45.8385 16.776 45.8906 16.7344 45.9531 16.6719H46.1406C46.224 16.6719 46.3125 16.5729 46.4062 16.375C46.5104 16.1667 46.5833 16.0417 46.625 16C46.8125 15.9792 46.9427 15.9479 47.0156 15.9062C47.349 15.3021 47.6042 15 47.7812 15H47.875C48.0521 14.8333 48.1458 14.6875 48.1562 14.5625C48.1771 14.4271 48.2292 14.3385 48.3125 14.2969C48.4062 14.2552 48.4896 14.2031 48.5625 14.1406C48.6354 14.0781 48.6823 14.0469 48.7031 14.0469C48.8594 14.0469 48.9375 14.1042 48.9375 14.2188L48.8906 14.6562L49 15.125C49 15.1667 48.9531 15.25 48.8594 15.375C48.776 15.4896 48.7344 15.6198 48.7344 15.7656C48.7344 16.0677 48.6823 16.2292 48.5781 16.25C48.474 16.2708 48.3854 16.3438 48.3125 16.4688C48.25 16.5833 48.1406 16.6927 47.9844 16.7969C47.8281 16.8906 47.7083 17.0312 47.625 17.2188L47.3594 17.2812L47.2031 17.375C47.0781 17.6979 46.9427 17.8958 46.7969 17.9688C46.6615 18.0417 46.4896 18.2604 46.2812 18.625C46.25 18.625 46.2344 18.6354 46.2344 18.6562L45.9844 18.625C45.8906 18.7917 45.7969 18.8906 45.7031 18.9219C45.6094 18.9531 45.5312 19.0156 45.4688 19.1094C45.4062 19.1927 45.2917 19.2656 45.125 19.3281C44.9688 19.3906 44.8698 19.4635 44.8281 19.5469C44.7865 19.6302 44.724 19.6771 44.6406 19.6875C44.5573 19.6979 44.4792 19.7396 44.4062 19.8125C44.3333 19.875 44.2708 19.9062 44.2188 19.9062C44.1979 19.9062 44.125 19.8958 44 19.875H43.9375C43.7604 20 43.6146 20.0625 43.5 20.0625C43.3646 20.0625 43.2656 20.0833 43.2031 20.125C43.1406 20.0833 43.0417 20.0521 42.9062 20.0312C42.7812 20.0104 42.6354 19.9583 42.4688 19.875C42.2917 19.9167 42.1823 19.9375 42.1406 19.9375C41.9635 19.9375 41.7396 19.7656 41.4688 19.4219C41.1979 19.0677 41.0625 18.724 41.0625 18.3906C41.0625 18.3802 41 18.3021 40.875 18.1562C40.7604 18 40.7031 17.8333 40.7031 17.6562V17.5L40.7344 17.3125V17.0156L40.7656 16.9219C40.9219 16.901 41 16.8802 41 16.8594L40.7969 16.5781ZM43.9688 12.4375L44.2969 12.25C44.3385 12.0833 44.474 11.8854 44.7031 11.6562C44.9323 11.4167 45.0938 11.2969 45.1875 11.2969H45.3125C45.3125 11.224 45.3281 11.151 45.3594 11.0781C45.3906 11.0052 45.4062 10.9062 45.4062 10.7812C45.4062 10.7188 45.5469 10.5469 45.8281 10.2656L45.9531 9.98438C46.0469 9.71354 46.2812 9.48958 46.6562 9.3125C46.8021 9.01042 46.9115 8.85938 46.9844 8.85938L47.1094 8.82812C47.151 8.67188 47.2344 8.53125 47.3594 8.40625L47.4219 8.3125V8.0625C47.4219 8.04167 47.4896 7.95833 47.625 7.8125C47.7708 7.65625 47.875 7.51562 47.9375 7.39062C48 7.25521 48.0833 7.15104 48.1875 7.07812C48.3021 7.00521 48.3802 6.875 48.4219 6.6875L48.6719 6.65625C48.6719 6.52083 48.6823 6.43229 48.7031 6.39062L48.7344 6.23438C48.7865 6.10938 48.9688 5.78125 49.2812 5.25L49.5312 4.67188C49.5312 4.60938 49.5729 4.53646 49.6562 4.45312C49.75 4.35938 49.7969 4.22917 49.7969 4.0625L49.9219 3.54688C49.9219 3.30729 49.8802 3.1875 49.7969 3.1875C49.6927 3.26042 49.5938 3.3125 49.5 3.34375C49.4167 3.375 49.3333 3.5625 49.25 3.90625C48.9375 3.97917 48.7552 4.13021 48.7031 4.35938C48.6615 4.57812 48.5365 4.76562 48.3281 4.92188L48.2188 5.10938C48.1979 5.22396 48.099 5.34375 47.9219 5.46875C47.7448 5.59375 47.5781 5.80729 47.4219 6.10938C46.901 6.82812 46.6146 7.21354 46.5625 7.26562L46.4062 7.45312L46.1719 7.42188C46.2135 7.58854 46.2344 7.68229 46.2344 7.70312C46.2344 7.76562 46.2031 7.82812 46.1406 7.89062C46.0781 7.94271 46.0312 8.01042 46 8.09375C45.9688 8.17708 45.9062 8.27604 45.8125 8.39062C45.7188 8.49479 45.6302 8.67188 45.5469 8.92188C45.474 9.16146 45.4062 9.30208 45.3438 9.34375L45.125 9.3125C44.9896 9.39583 44.9219 9.47917 44.9219 9.5625L44.9688 9.78125C44.9688 9.82292 44.9375 9.875 44.875 9.9375C44.8229 9.98958 44.7708 10.099 44.7188 10.2656C44.6667 10.4323 44.5365 10.6875 44.3281 11.0312C44.1198 11.3646 43.9531 11.724 43.8281 12.1094C43.7135 12.4844 43.599 12.724 43.4844 12.8281C43.5052 12.849 43.5365 12.8594 43.5781 12.8594C43.7135 12.8594 43.8438 12.7188 43.9688 12.4375ZM64.2188 2.04688L64.3438 1.89062C64.4167 1.78646 64.5208 1.72917 64.6562 1.71875C64.7917 1.69792 64.9219 1.65625 65.0469 1.59375L67.3438 0.953125C67.5625 0.901042 67.8333 0.859375 68.1562 0.828125L68.6562 0.671875C68.7917 0.609375 68.9844 0.578125 69.2344 0.578125L69.75 0.46875C69.7917 0.46875 69.8281 0.510417 69.8594 0.59375C69.8906 0.666667 69.9167 0.703125 69.9375 0.703125C70.4271 0.380208 70.7396 0.21875 70.875 0.21875H70.9062L71.2812 0.3125C71.3438 0.3125 71.4115 0.270833 71.4844 0.1875L71.5469 0.125C71.776 0.229167 71.901 0.28125 71.9219 0.28125C72.0781 0.28125 72.2552 0.25 72.4531 0.1875C72.651 0.125 72.8385 0.09375 73.0156 0.09375L73.5 0.125L74.5781 0.0625C74.6406 0.0625 74.7083 0.09375 74.7812 0.15625L75.0938 0.09375C75.3958 0.09375 75.6927 0.135417 75.9844 0.21875C76.2865 0.302083 76.6458 0.364583 77.0625 0.40625C77.4792 0.447917 77.7812 0.588542 77.9688 0.828125L78.2344 0.921875H78.4219C78.6927 0.921875 78.8542 1.03125 78.9062 1.25C78.9688 1.375 79.0938 1.5 79.2812 1.625L79.4844 1.95312C79.4635 2.01562 79.4531 2.07812 79.4531 2.14062C79.4531 2.20312 79.5677 2.27604 79.7969 2.35938L79.8594 2.39062C79.8698 2.54688 79.9688 2.72917 80.1562 2.9375C80.3438 3.13542 80.4375 3.51042 80.4375 4.0625V4.4375L80.5 5.25C80.5 5.80208 80.3333 6.46875 80 7.25C79.6771 8.03125 79.3333 8.57812 78.9688 8.89062C78.8854 9.17188 78.7865 9.3125 78.6719 9.3125C78.3073 9.64583 78.0729 9.8125 77.9688 9.8125C77.9479 9.8125 77.9167 9.80208 77.875 9.78125C77.7396 10.0312 77.5104 10.25 77.1875 10.4375C76.875 10.625 76.6719 10.7344 76.5781 10.7656C76.4844 10.7969 76.2448 10.8854 75.8594 11.0312L75.4844 10.9375C75.3281 11.0833 75.2188 11.1615 75.1562 11.1719L74.3281 11.5156C73.6302 11.7031 73.1719 11.7969 72.9531 11.7969L72.5625 11.6719C72.5 11.6719 72.4062 11.75 72.2812 11.9062L71.9844 11.9688C71.9219 11.9062 71.7188 11.8594 71.375 11.8281C71.2292 11.9219 71.1094 11.9688 71.0156 11.9688L70.3281 12.0625C70.2448 12.0625 70.1927 11.9844 70.1719 11.8281L70.0312 11.875L69.9688 12.0938C69.9271 12.1146 69.875 12.125 69.8125 12.125L68.9844 12.0312L68.5938 12.125L67.9531 12L67.6406 12.0312L67.375 11.9062L67.125 11.9375L66.875 11.875L66.5781 11.9375L66.5156 11.9062C66.474 11.9896 66.4219 12.0573 66.3594 12.1094C66.2969 12.1615 66.2135 12.2708 66.1094 12.4375C65.8698 12.6354 65.7188 12.875 65.6562 13.1562C65.5938 13.4375 65.4115 13.5938 65.1094 13.625C65.0885 13.6667 65.0573 13.7188 65.0156 13.7812C65.0365 13.8021 65.0677 13.8906 65.1094 14.0469V14.1094C65.1094 14.3594 64.9062 14.6146 64.5 14.875C64.4375 15.25 64.3594 15.5208 64.2656 15.6875C64.1823 15.8542 64.125 15.9948 64.0938 16.1094C64.0625 16.2135 63.974 16.3021 63.8281 16.375L63.7656 16.4688V16.9219C63.7656 16.9427 63.7344 17.0104 63.6719 17.125C63.6094 17.2292 63.5208 17.3854 63.4062 17.5938L63.3125 17.75L63.1875 18.2656C62.9792 18.4115 62.875 18.6146 62.875 18.875L62.9062 19.7656C62.9062 19.9219 62.8021 20.0833 62.5938 20.25C62.3958 20.4167 62.1979 20.5 62 20.5C61.4896 20.5 61.1406 20.1927 60.9531 19.5781L60.8594 19.4531C60.6406 19.276 60.5312 19.0104 60.5312 18.6562C60.5312 18.25 60.7448 17.6406 61.1719 16.8281L62.2031 14.9688C62.2135 14.9479 62.349 14.8542 62.6094 14.6875L62.7812 14.75C62.8229 14.7292 62.8438 14.6875 62.8438 14.625C62.8438 14.6042 62.7865 14.4531 62.6719 14.1719V14.1094C62.6719 14.026 62.7083 13.974 62.7812 13.9531L62.9062 13.8125L62.875 13.5C63.0625 13.2188 63.1615 13.0365 63.1719 12.9531L63.3281 12.5938C63.4323 12.3542 63.5156 12.2292 63.5781 12.2188C63.5781 11.8021 63.7031 11.4948 63.9531 11.2969L64.0781 11.0312C64.1094 10.9688 64.1771 10.9323 64.2812 10.9219C64.3854 10.9115 64.4375 10.8958 64.4375 10.875C64.4375 10.8333 64.4219 10.7812 64.3906 10.7188C64.3594 10.6562 64.3438 10.6042 64.3438 10.5625C64.3438 10.4583 64.401 10.3229 64.5156 10.1562C64.6406 9.98958 64.7292 9.90625 64.7812 9.90625L65.0156 10.0469V9.95312C64.9115 9.85938 64.8594 9.78125 64.8594 9.71875C64.8594 9.63542 64.9062 9.52604 65 9.39062C65.0938 9.24479 65.151 9.14062 65.1719 9.07812L65.2969 8.92188C65.3177 8.92188 65.3698 8.77604 65.4531 8.48438C65.5365 8.19271 65.6562 8.05208 65.8125 8.0625V7.90625C65.8125 7.80208 65.9323 7.55208 66.1719 7.15625L67 5.6875C67.0208 5.58333 67.1042 5.40104 67.25 5.14062L67.2188 4.76562C67.2188 4.59896 67.3125 4.33854 67.5 3.98438C67.6979 3.63021 67.8594 3.45312 67.9844 3.45312C68.0469 3.45312 68.0885 3.46354 68.1094 3.48438C68.1406 3.50521 68.1667 3.51562 68.1875 3.51562L68.4375 3.48438L68.9375 3.9375C69.0729 4.05208 69.151 4.25521 69.1719 4.54688L69.2344 4.64062C69.4948 5.11979 69.625 5.45833 69.625 5.65625C69.625 5.90625 69.599 6.09896 69.5469 6.23438C69.5052 6.35938 69.349 6.51042 69.0781 6.6875C68.8177 6.98958 68.6562 7.25521 68.5938 7.48438C68.5312 7.70312 68.4219 7.91146 68.2656 8.10938C68.1198 8.30729 67.9896 8.59896 67.875 8.98438C67.7604 9.36979 67.5625 9.65625 67.2812 9.84375C67.25 10.125 67.2083 10.3646 67.1562 10.5625V10.5938C67.1562 10.6562 67.1979 10.6875 67.2812 10.6875L67.7969 10.625C67.8594 10.625 67.9323 10.6406 68.0156 10.6719C68.1094 10.7031 68.1979 10.7188 68.2812 10.7188C68.3646 10.7188 68.4688 10.6771 68.5938 10.5938H68.6875C68.7292 10.5938 68.8594 10.6458 69.0781 10.75L69.1406 10.7188C69.2031 10.6146 69.2656 10.5625 69.3281 10.5625L69.9375 10.625L70.2344 10.5938C70.3802 10.5 70.6042 10.4479 70.9062 10.4375C71.2188 10.4271 71.4323 10.3958 71.5469 10.3438C71.6719 10.2917 71.7812 10.2604 71.875 10.25C71.9688 10.2396 72.0885 10.1979 72.2344 10.125C72.3906 10.0521 72.5208 10.0156 72.625 10.0156C72.8646 10.0156 73.1979 9.90625 73.625 9.6875C73.7708 9.72917 73.8542 9.75 73.875 9.75C74.0729 9.75 74.2344 9.66667 74.3594 9.5C74.4844 9.33333 74.625 9.23958 74.7812 9.21875L75.7344 8.79688C75.8177 8.76562 76 8.59375 76.2812 8.28125L76.5625 8.09375L76.75 7.82812C76.75 7.80729 76.849 7.74479 77.0469 7.64062C77.0052 7.61979 76.974 7.58854 76.9531 7.54688L77.2969 7.15625C77.276 7.05208 77.2656 6.98958 77.2656 6.96875V6.90625C77.3698 6.75 77.474 6.63542 77.5781 6.5625C77.6927 6.48958 77.75 6.44271 77.75 6.42188L77.5938 6.23438C77.7396 6.08854 77.8125 5.99479 77.8125 5.95312L77.75 5.5L77.8125 4.70312C77.8125 4.29688 77.7865 4.03646 77.7344 3.92188C77.6823 3.79688 77.6458 3.67188 77.625 3.54688C77.4271 3.16146 77.151 2.84375 76.7969 2.59375C76.7656 2.57292 76.75 2.53646 76.75 2.48438L76.7188 2.32812V2.26562L76.2188 2.32812C76.1979 2.32812 76.1615 2.27604 76.1094 2.17188C76.0677 2.06771 75.9948 2.01562 75.8906 2.01562L75.6719 2.10938H75.6406C75.5677 2.10938 75.3854 2.01042 75.0938 1.8125C75.0312 1.79167 74.901 1.78125 74.7031 1.78125L74.4844 1.6875C74.4219 1.64583 74.3698 1.625 74.3281 1.625H74.2344L73.875 1.6875L73.0781 1.625L72.5938 1.53125C72.4167 1.65625 72.3021 1.71875 72.25 1.71875C72.2083 1.71875 72.1094 1.6875 71.9531 1.625H71.9219L71.4531 1.6875C71.3073 1.70833 71.1875 1.72917 71.0938 1.75H71C70.6562 1.75 70.3906 1.71875 70.2031 1.65625H70.1094C69.9948 1.65625 69.901 1.69792 69.8281 1.78125C69.7552 1.85417 69.6875 1.89062 69.625 1.89062C69.5833 1.89062 69.5312 1.82292 69.4688 1.6875C69.3333 1.79167 69.2344 1.85938 69.1719 1.89062L68.8906 1.78125C68.849 1.86458 68.5312 1.95312 67.9375 2.04688L67.1875 2.20312L67.0625 2.17188C66.8229 2.25521 66.625 2.3125 66.4688 2.34375C66.3125 2.375 66.1719 2.42188 66.0469 2.48438C65.9323 2.53646 65.8073 2.57292 65.6719 2.59375C65.5365 2.61458 65.3385 2.66667 65.0781 2.75L64.8281 2.6875C64.6302 2.80208 64.3438 2.9375 63.9688 3.09375C63.5938 3.25 63.3594 3.375 63.2656 3.46875C63.1719 3.5625 63.0833 3.60938 63 3.60938C62.9792 3.60938 62.9167 3.59896 62.8125 3.57812H62.7812C62.6875 3.57812 62.5312 3.6875 62.3125 3.90625C62.1042 4.11458 61.9219 4.26562 61.7656 4.35938C61.6094 4.45312 61.4688 4.60417 61.3438 4.8125C61.2292 5.01042 60.9583 5.15625 60.5312 5.25C60.5104 5.27083 60.4896 5.30208 60.4688 5.34375V5.59375C60.3021 5.6875 60.151 5.86979 60.0156 6.14062L59.9219 6.29688L59.8906 6.59375C59.8906 6.90625 59.849 7.07292 59.7656 7.09375C59.6823 7.11458 59.5938 7.16146 59.5 7.23438C59.4167 7.29688 59.3333 7.32812 59.25 7.32812C59.0729 7.32812 58.9062 7.17188 58.75 6.85938C58.5938 6.54688 58.5156 6.35938 58.5156 6.29688C58.5156 5.68229 58.7188 5.22917 59.125 4.9375L60.2812 4.09375C60.6667 3.8125 60.9948 3.67188 61.2656 3.67188C61.349 3.63021 61.4375 3.53125 61.5312 3.375C61.625 3.21875 61.8385 3.10417 62.1719 3.03125L62.4219 3.125C62.4427 3.125 62.474 3.08333 62.5156 3C62.5573 2.91667 62.6198 2.84896 62.7031 2.79688C62.7969 2.74479 62.875 2.67708 62.9375 2.59375L63.3438 2.32812C63.3646 2.32812 63.3854 2.31771 63.4062 2.29688L63.6406 2.35938C63.6615 2.35938 63.6927 2.34896 63.7344 2.32812C63.776 2.30729 63.849 2.29688 63.9531 2.29688C63.9948 2.29688 64.026 2.24479 64.0469 2.14062C64.0885 2.08854 64.1458 2.05729 64.2188 2.04688ZM87.3281 16.25L87.5781 16.0312C87.7344 16.0312 87.8281 15.9635 87.8594 15.8281C87.8906 15.6823 88 15.5677 88.1875 15.4844C88.3854 15.401 88.5677 15.2344 88.7344 14.9844C88.901 14.724 89.0729 14.5938 89.25 14.5938C89.3125 14.5938 89.3854 14.6458 89.4688 14.75C89.5521 14.8542 89.5938 14.9375 89.5938 15C89.5938 15.3438 89.4896 15.6979 89.2812 16.0625L89.2188 16.5L89.1094 16.7031C88.9531 16.7865 88.849 16.875 88.7969 16.9688C88.7552 17.0625 88.6354 17.1771 88.4375 17.3125L88.2812 17.5312C88.0521 17.6042 87.8958 17.724 87.8125 17.8906C87.7396 18.0573 87.6302 18.151 87.4844 18.1719C87.349 18.1927 87.1979 18.2969 87.0312 18.4844C86.9271 18.5365 86.8021 18.5833 86.6562 18.625L86.625 18.7812C86.5208 18.8854 86.3542 18.9688 86.125 19.0312C85.9062 19.0938 85.7396 19.1562 85.625 19.2188C85.5208 19.2708 85.4479 19.2969 85.4062 19.2969C85.2083 19.2969 85.026 19.2604 84.8594 19.1875C84.6927 19.1042 84.5208 19.0521 84.3438 19.0312C84.2812 18.9688 84.2448 18.901 84.2344 18.8281C84.224 18.7552 84.1719 18.6615 84.0781 18.5469C83.9844 18.4219 83.9375 18.2552 83.9375 18.0469L84 17.75C84 17.7083 83.974 17.6562 83.9219 17.5938C83.8698 17.5312 83.8438 17.4792 83.8438 17.4375C83.8438 17.3958 83.8542 17.3646 83.875 17.3438C83.8958 17.3229 83.9062 17.2917 83.9062 17.25C83.9062 17.1979 83.8958 17.1406 83.875 17.0781C83.8542 17.0156 83.8438 16.9635 83.8438 16.9219L83.9375 16.1562C83.9375 16.0938 83.9167 16.0625 83.875 16.0625C83.8333 16.0625 83.7552 16.1146 83.6406 16.2188C83.5365 16.3229 83.4115 16.375 83.2656 16.375C83.1823 16.4375 83.1146 16.5677 83.0625 16.7656C82.9792 16.8698 82.875 16.9635 82.75 17.0469L82.6875 17.1406C82.6667 17.2135 82.5885 17.276 82.4531 17.3281C82.3177 17.3698 82.224 17.4271 82.1719 17.5L82.0156 17.6562L81.7188 17.625C81.6979 17.6458 81.6406 17.7396 81.5469 17.9062C81.4531 18.0625 81.3333 18.1927 81.1875 18.2969L80 19.2656C79.875 19.349 79.6927 19.4531 79.4531 19.5781L79.3594 19.6719C78.526 20.224 77.9375 20.5 77.5938 20.5C77.3125 20.5 76.9844 20.4219 76.6094 20.2656C76.2344 20.1094 76.0312 19.9219 76 19.7031L75.8438 19.0625C75.75 18.9167 75.7031 18.7135 75.7031 18.4531C75.7031 18.3281 75.7135 18.2448 75.7344 18.2031V18.1094L75.7031 17.5938C75.7031 17.4688 75.8021 17.4062 76 17.4062L75.9688 16.9844C75.9688 16.9427 76.0573 16.7812 76.2344 16.5C76.4219 16.2083 76.5469 16.0417 76.6094 16L76.7656 15.7969C76.7552 15.6719 76.8281 15.5417 76.9844 15.4062C77.1406 15.2604 77.2656 15.1146 77.3594 14.9688C77.4531 14.8229 77.6302 14.6615 77.8906 14.4844L78.3594 14.0156C78.724 13.651 79.1198 13.3594 79.5469 13.1406C79.6094 13.1198 79.7344 13.0156 79.9219 12.8281C80.1198 12.6406 80.3385 12.5052 80.5781 12.4219C80.8281 12.3281 81.0677 12.2135 81.2969 12.0781C81.5365 11.9427 81.724 11.875 81.8594 11.875H81.9844C82.026 11.875 82.3021 11.7448 82.8125 11.4844H82.9062C82.9479 11.4844 83.0469 11.526 83.2031 11.6094H83.2344L83.4844 11.4844C83.526 11.4635 83.5781 11.4531 83.6406 11.4531C84.2865 11.4531 84.6406 11.901 84.7031 12.7969C84.724 12.9844 84.776 13.0781 84.8594 13.0781C84.9635 13.0781 85.1094 12.8906 85.2969 12.5156C85.4948 12.1302 85.9062 11.9375 86.5312 11.9375C86.9792 11.9375 87.2031 12.224 87.2031 12.7969C87.2031 13.474 86.901 14.1146 86.2969 14.7188C86.2552 14.8021 86.224 14.8958 86.2031 15L85.9844 15.6406V15.6719C85.9844 15.7344 85.9375 15.8229 85.8438 15.9375C85.7604 16.0417 85.7188 16.1354 85.7188 16.2188L85.75 16.6094L85.6875 17.0469C85.6875 17.2448 85.724 17.375 85.7969 17.4375C86.1302 17.3542 86.3698 17.2188 86.5156 17.0312C86.6719 16.8333 86.7812 16.724 86.8438 16.7031L87 16.6406C87.0938 16.4844 87.2031 16.3542 87.3281 16.25ZM82.1406 16.25C82.1823 16.0208 82.3073 15.849 82.5156 15.7344C82.7344 15.6094 82.8646 15.4844 82.9062 15.3594C83.1042 15.2135 83.3854 14.9531 83.75 14.5781C84.125 14.2031 84.3125 13.974 84.3125 13.8906C84.3125 13.8594 84.2917 13.8438 84.25 13.8438H84.2188L84.0938 13.9219L83.8125 13.8906L83.5156 13.9219L83.2969 13.8125L83.0938 13.8438L82.7812 13.7812C82.6146 13.7812 82.4688 13.8177 82.3438 13.8906C82.2292 13.9531 82 14.026 81.6562 14.1094C81.3229 14.1927 81.0208 14.3385 80.75 14.5469C80.4792 14.7448 80.2812 14.8438 80.1562 14.8438C80.0833 15 79.8385 15.224 79.4219 15.5156C79.1719 15.599 79.0104 15.7812 78.9375 16.0625C78.6667 16.2812 78.5312 16.4062 78.5312 16.4375L78.4219 16.7031C78.3385 16.776 78.2344 16.8385 78.1094 16.8906C77.9844 16.9323 77.9115 17.0417 77.8906 17.2188C77.8698 17.3854 77.7969 17.5417 77.6719 17.6875C77.5573 17.8229 77.5 17.9323 77.5 18.0156C77.5 18.526 77.599 18.7812 77.7969 18.7812C77.8802 18.7812 78.0521 18.7292 78.3125 18.625C78.5833 18.5104 78.7396 18.4323 78.7812 18.3906C78.8229 18.349 78.9062 18.3073 79.0312 18.2656L79.3281 18.1094C79.3698 18.0677 79.4167 18.0417 79.4688 18.0312C79.5208 18.0208 79.5729 17.9896 79.625 17.9375C79.6771 17.875 79.7708 17.8125 79.9062 17.75C80.0417 17.6771 80.1458 17.5833 80.2188 17.4688C80.3958 17.3646 80.6823 17.2031 81.0781 16.9844L81.4062 16.7344C81.6354 16.6302 81.776 16.5417 81.8281 16.4688C81.8802 16.3958 81.9844 16.3229 82.1406 16.25ZM91.6719 12.8281L91.8906 12.4375C91.9531 12.3438 92.0312 12.25 92.125 12.1562C92.2292 12.0521 92.3385 11.7969 92.4531 11.3906C92.5677 10.974 92.6927 10.6875 92.8281 10.5312C92.974 10.375 93.1823 10.2969 93.4531 10.2969C93.6094 10.2969 93.8125 10.375 94.0625 10.5312C94.3229 10.6771 94.5729 11.1302 94.8125 11.8906C95.0625 12.651 95.1875 13.1875 95.1875 13.5C95.1875 13.625 95.224 13.7865 95.2969 13.9844C95.3698 14.1719 95.4167 14.3177 95.4375 14.4219C95.3542 14.599 95.3125 14.6979 95.3125 14.7188L95.3438 15.3594L95.1562 15.875V16.25C95.0312 16.4583 94.9688 16.5885 94.9688 16.6406C94.9688 16.7031 94.9896 16.7656 95.0312 16.8281C95.5208 16.6198 95.8177 16.4531 95.9219 16.3281C96.026 16.1927 96.125 16.1094 96.2188 16.0781C96.3229 16.0469 96.4896 15.9115 96.7188 15.6719L97.0156 15.5156C97.1198 15.3906 97.2083 15.2812 97.2812 15.1875C97.3542 15.0833 97.4375 15.0104 97.5312 14.9688C97.6354 14.9271 97.7552 14.8542 97.8906 14.75C98.026 14.6458 98.224 14.526 98.4844 14.3906L98.6406 14.2031C98.7969 14.026 98.9792 13.8854 99.1875 13.7812C99.4062 13.6771 99.526 13.625 99.5469 13.625C99.6198 13.625 99.6927 13.724 99.7656 13.9219C99.849 14.1094 99.8906 14.2969 99.8906 14.4844C99.8906 14.6615 99.7865 14.8385 99.5781 15.0156C99.3802 15.1823 99.2448 15.3073 99.1719 15.3906C99.099 15.474 98.9323 15.5469 98.6719 15.6094C98.651 15.6198 98.4792 15.8333 98.1562 16.25L97.8438 16.4375L97.6875 16.6406C97.6667 16.6823 97.526 16.724 97.2656 16.7656C97.2552 16.7656 97.2292 16.8177 97.1875 16.9219C97.1562 17.026 97.0469 17.099 96.8594 17.1406C96.4844 17.4844 96.2917 17.6771 96.2812 17.7188L95.9531 17.7812C95.8906 17.9792 95.8385 18.099 95.7969 18.1406C95.5469 18.2031 95.4062 18.3073 95.375 18.4531C95.3438 18.474 95.2917 18.4948 95.2188 18.5156L95.1562 18.5625C94.9167 18.75 94.6823 18.8646 94.4531 18.9062L94.0938 19L93.9688 19.1875C93.9688 19.2396 93.8385 19.3073 93.5781 19.3906C93.3281 19.474 93.1406 19.5781 93.0156 19.7031L92.75 19.9062C92.4271 20.0312 92.224 20.1458 92.1406 20.25H91.9219C91.776 20.25 91.5469 20.3594 91.2344 20.5781C90.9219 20.7865 90.6719 20.8906 90.4844 20.8906C89.8802 20.8906 89.4635 20.8177 89.2344 20.6719C89.0156 20.5156 88.8333 20.3281 88.6875 20.1094C88.5417 19.8802 88.4115 19.6979 88.2969 19.5625C88.1719 19.4271 88.1094 19.3177 88.1094 19.2344C88.1094 19.1615 88.1615 19.0885 88.2656 19.0156C88.3594 18.9427 88.4635 18.7969 88.5781 18.5781C88.6927 18.349 88.9844 18.2031 89.4531 18.1406C89.474 18.1406 89.5469 18.1094 89.6719 18.0469C89.8073 17.9844 89.9167 17.9531 90 17.9531C90.1042 17.9531 90.2344 18.0469 90.3906 18.2344C90.3906 18.2552 90.4115 18.2656 90.4531 18.2656L90.7031 18.2344C90.8177 18.3177 90.8958 18.3594 90.9375 18.3594C91.1875 18.3594 91.4531 18.2344 91.7344 17.9844L91.7969 17.9531H91.9219C91.9531 17.9531 92.0052 17.8646 92.0781 17.6875L92.3438 17.1406L92.8906 16.4375V16.2812C92.8906 16.25 92.9219 16.1562 92.9844 16V15.7656C92.9844 15.6719 93.0469 15.6146 93.1719 15.5938C93.2969 15.5625 93.3594 15.4948 93.3594 15.3906L93.3281 15.2656C93.2448 15.151 93.2031 15.0625 93.2031 15L93.3594 14.6875L93.3281 14.3594L93.3906 14.2344C93.349 14.0885 93.3281 14.0052 93.3281 13.9844L93.3906 13.5938C93.3906 13.5833 93.3594 13.4844 93.2969 13.2969C93.2448 13.1094 93.2031 13.0156 93.1719 13.0156C93.1094 13.0156 92.9115 13.1771 92.5781 13.5C92.2448 13.8229 92.0469 14.0521 91.9844 14.1875C91.9219 14.3229 91.7865 14.4479 91.5781 14.5625C91.3802 14.6667 91.2448 14.7865 91.1719 14.9219C91.099 15.0573 91.0104 15.1354 90.9062 15.1562L89.8594 16L88.7188 16.8438C88.6354 16.9375 88.5833 16.9844 88.5625 16.9844C88.1771 16.9844 87.9844 16.7708 87.9844 16.3438C87.9844 16.2083 88.0625 15.9635 88.2188 15.6094C88.2917 15.5677 88.349 15.5365 88.3906 15.5156C88.4219 15.4948 88.4375 15.4792 88.4375 15.4688C88.4375 15.4583 88.4271 15.4531 88.4062 15.4531L88.5 15.5156H88.5312C88.9167 15.2552 89.1667 15.1042 89.2812 15.0625C89.3958 15.0208 89.5 14.9062 89.5938 14.7188L90.25 14.25C90.4167 14.125 90.6719 13.8958 91.0156 13.5625C91.3594 13.2292 91.5781 12.9844 91.6719 12.8281ZM100.266 12.8281L100.484 12.4375C100.547 12.3438 100.625 12.25 100.719 12.1562C100.823 12.0521 100.932 11.7969 101.047 11.3906C101.161 10.974 101.286 10.6875 101.422 10.5312C101.568 10.375 101.776 10.2969 102.047 10.2969C102.203 10.2969 102.406 10.375 102.656 10.5312C102.917 10.6771 103.167 11.1302 103.406 11.8906C103.656 12.651 103.781 13.1875 103.781 13.5C103.781 13.625 103.818 13.7865 103.891 13.9844C103.964 14.1719 104.01 14.3177 104.031 14.4219C103.948 14.599 103.906 14.6979 103.906 14.7188L103.938 15.3594L103.75 15.875V16.25C103.625 16.4583 103.562 16.5885 103.562 16.6406C103.562 16.7031 103.583 16.7656 103.625 16.8281C104.115 16.6198 104.411 16.4531 104.516 16.3281C104.62 16.1927 104.719 16.1094 104.812 16.0781C104.917 16.0469 105.083 15.9115 105.312 15.6719L105.609 15.5156C105.714 15.3906 105.802 15.2812 105.875 15.1875C105.948 15.0833 106.031 15.0104 106.125 14.9688C106.229 14.9271 106.349 14.8542 106.484 14.75C106.62 14.6458 106.818 14.526 107.078 14.3906L107.234 14.2031C107.391 14.026 107.573 13.8854 107.781 13.7812C108 13.6771 108.12 13.625 108.141 13.625C108.214 13.625 108.286 13.724 108.359 13.9219C108.443 14.1094 108.484 14.2969 108.484 14.4844C108.484 14.6615 108.38 14.8385 108.172 15.0156C107.974 15.1823 107.839 15.3073 107.766 15.3906C107.693 15.474 107.526 15.5469 107.266 15.6094C107.245 15.6198 107.073 15.8333 106.75 16.25L106.438 16.4375L106.281 16.6406C106.26 16.6823 106.12 16.724 105.859 16.7656C105.849 16.7656 105.823 16.8177 105.781 16.9219C105.75 17.026 105.641 17.099 105.453 17.1406C105.078 17.4844 104.885 17.6771 104.875 17.7188L104.547 17.7812C104.484 17.9792 104.432 18.099 104.391 18.1406C104.141 18.2031 104 18.3073 103.969 18.4531C103.938 18.474 103.885 18.4948 103.812 18.5156L103.75 18.5625C103.51 18.75 103.276 18.8646 103.047 18.9062L102.688 19L102.562 19.1875C102.562 19.2396 102.432 19.3073 102.172 19.3906C101.922 19.474 101.734 19.5781 101.609 19.7031L101.344 19.9062C101.021 20.0312 100.818 20.1458 100.734 20.25H100.516C100.37 20.25 100.141 20.3594 99.8281 20.5781C99.5156 20.7865 99.2656 20.8906 99.0781 20.8906C98.474 20.8906 98.0573 20.8177 97.8281 20.6719C97.6094 20.5156 97.4271 20.3281 97.2812 20.1094C97.1354 19.8802 97.0052 19.6979 96.8906 19.5625C96.7656 19.4271 96.7031 19.3177 96.7031 19.2344C96.7031 19.1615 96.7552 19.0885 96.8594 19.0156C96.9531 18.9427 97.0573 18.7969 97.1719 18.5781C97.2865 18.349 97.5781 18.2031 98.0469 18.1406C98.0677 18.1406 98.1406 18.1094 98.2656 18.0469C98.401 17.9844 98.5104 17.9531 98.5938 17.9531C98.6979 17.9531 98.8281 18.0469 98.9844 18.2344C98.9844 18.2552 99.0052 18.2656 99.0469 18.2656L99.2969 18.2344C99.4115 18.3177 99.4896 18.3594 99.5312 18.3594C99.7812 18.3594 100.047 18.2344 100.328 17.9844L100.391 17.9531H100.516C100.547 17.9531 100.599 17.8646 100.672 17.6875L100.938 17.1406L101.484 16.4375V16.2812C101.484 16.25 101.516 16.1562 101.578 16V15.7656C101.578 15.6719 101.641 15.6146 101.766 15.5938C101.891 15.5625 101.953 15.4948 101.953 15.3906L101.922 15.2656C101.839 15.151 101.797 15.0625 101.797 15L101.953 14.6875L101.922 14.3594L101.984 14.2344C101.943 14.0885 101.922 14.0052 101.922 13.9844L101.984 13.5938C101.984 13.5833 101.953 13.4844 101.891 13.2969C101.839 13.1094 101.797 13.0156 101.766 13.0156C101.703 13.0156 101.505 13.1771 101.172 13.5C100.839 13.8229 100.641 14.0521 100.578 14.1875C100.516 14.3229 100.38 14.4479 100.172 14.5625C99.974 14.6667 99.8385 14.7865 99.7656 14.9219C99.6927 15.0573 99.6042 15.1354 99.5 15.1562L98.4531 16L97.3125 16.8438C97.2292 16.9375 97.1771 16.9844 97.1562 16.9844C96.7708 16.9844 96.5781 16.7708 96.5781 16.3438C96.5781 16.2083 96.6562 15.9635 96.8125 15.6094C96.8854 15.5677 96.9427 15.5365 96.9844 15.5156C97.0156 15.4948 97.0312 15.4792 97.0312 15.4688C97.0312 15.4583 97.0208 15.4531 97 15.4531L97.0938 15.5156H97.125C97.5104 15.2552 97.7604 15.1042 97.875 15.0625C97.9896 15.0208 98.0938 14.9062 98.1875 14.7188L98.8438 14.25C99.0104 14.125 99.2656 13.8958 99.6094 13.5625C99.9531 13.2292 100.172 12.9844 100.266 12.8281Z" fill="white"/>
</svg>
