<svg width="31" height="35" viewBox="0 0 31 35" fill="none" xmlns="http://www.w3.org/2000/svg">
<mask id="path-1-outside-1_10990_321" maskUnits="userSpaceOnUse" x="0.499999" y="-1.22392e-06" width="31" height="35" fill="black">
<rect fill="white" x="0.499999" y="-1.22392e-06" width="31" height="35"/>
<path d="M28.5 17.3699L1.60272 32.7397L1.60272 2L28.5 17.3699Z"/>
</mask>
<path d="M28.5 17.3699L1.60272 32.7397L1.60272 2L28.5 17.3699Z" fill="#B6E5ED"/>
<path d="M1.60272 32.7397L0.602719 32.7397L0.602719 34.4629L2.09886 33.608L1.60272 32.7397ZM28.5 17.3699L28.9961 18.2381L30.5156 17.3699L28.9961 16.5016L28.5 17.3699ZM1.60272 2L2.09886 1.13176L0.60272 0.276819L0.60272 2L1.60272 2ZM1.60272 32.7397L2.09886 33.608L28.9961 18.2381L28.5 17.3699L28.0039 16.5016L1.10658 31.8715L1.60272 32.7397ZM28.5 17.3699L28.9961 16.5016L2.09886 1.13176L1.60272 2L1.10658 2.86824L28.0039 18.2381L28.5 17.3699ZM1.60272 32.7397L2.60272 32.7397L2.60272 2L1.60272 2L0.60272 2L0.602719 32.7397L1.60272 32.7397Z" fill="black" mask="url(#path-1-outside-1_10990_321)"/>
</svg>
