<svg width="368" height="829" viewBox="0 0 368 829" fill="none" xmlns="http://www.w3.org/2000/svg">
<path d="M275.58 714.025L269.577 722.69C250.266 747.318 238.158 760.317 211.409 777.188C162.974 807.754 72.7126 835.801 -5.00665 827.403L-94.0197 765.747L-85.582 730.335C-86.7294 730.792 -87.8769 731.25 -89.0297 731.683C-91.5976 733.054 -94.3468 734.341 -97.2639 735.491L-94.025 765.723L-290.991 629.29L40.7323 150.385L134.37 37.8632L55.6976 151.442L129.004 72.8173L240.639 0.972527L140.813 73.4443L181.657 63.3679L186.676 52.5875L182.121 63.2655L194.993 60.0853L181.215 65.3636L174.587 80.8656L179.919 80.4594L174.136 81.9266L170.27 90.9808L188.323 89.1888L169.391 93.038L154.324 128.3L167.656 128.084L152.697 132.1L114.396 221.765L190.967 103.52L118.279 219.79L240.346 53.9796L143.409 204.341L257.192 47.3332L150.342 201.591C152.323 202.802 154.827 202.376 156.056 200.602L237.583 82.9021L174.789 178.986L263.311 57.9731L180.962 176.86L262.508 75.45L188.285 176.703L279.31 70.2261L194.219 176.753L300.996 64.3265L231.718 153.011L320.771 59.3855L244.474 146.399L329.295 67.0267L268.302 134.693L362.001 71.9509L310.072 112.455L353.284 99.939L307.861 121.99L343.277 122.087L290.044 133.194L330.602 135.399L271.413 145.572L323.276 150.962L249.848 157.673L310.486 169.426L230.983 164.961L267.675 177.292L287.971 175.639L277.223 179.826L289.729 187.62L279.467 185.298L263.621 181.693L259.689 183.392L183.716 195.609L291.485 191.461L170.595 207.765L279.428 204.354L162.782 219.518L260.042 217.38L140.451 228.181L253.101 231.473L127.457 240.122L239.502 252.021L150.697 265.529L206.434 280.287L106.209 273.101L185.682 288.025L132.568 286.715L182.816 307.566L125.038 295.756L173.654 314.891L118.506 305.185L163.022 322.066L110.099 311.862L153.749 330.465L101.159 319.34L136.779 342.277L102.786 328.323L151.217 357.225L89.1399 331.673L154.612 374.985L73.2026 338.364L145.066 383.78L53.6788 347.518L133.14 392.381L36.3558 370.697L120.352 407.655L23.1556 382.494L107.767 418.122L30.4022 393.653C29.3953 393.339 28.4784 394.158 28.7261 395.157L28.9366 395.99C29.4001 397.845 30.7186 399.445 32.4991 400.315L100.018 433.412L22.5915 408.275L94.9348 442.109L27.3606 424.967L88.6248 451.692L7.69865 430.249L76.5116 461.92L3.32497 439.719L65.1289 476.996L-5.68406 450.926L38.5755 487.682L-11.7409 462.038C-12.0352 461.894 -12.3691 461.966 -12.5487 462.225L-15.8741 467.373C-16.1901 467.861 -16.0801 468.523 -15.6156 468.925L23.199 503.505L-26.2149 479.556C-26.7349 479.297 -27.3393 479.444 -27.6418 479.88L-30.2885 483.701C-30.5815 484.124 -30.5023 484.704 -30.1063 485.08L9.09396 522.511L-37.3011 497.139C-37.9837 496.768 -38.821 496.935 -39.2221 497.546L-44.2017 505.082C-44.6082 505.668 -44.5053 506.467 -44.0129 507.05L-17.018 537.926L-15.6276 533.961L-16.5806 538.43L-14.5388 540.753L-16.8027 539.508L-30.9771 606.305L-4.19663 530.147L-24.0605 610.713L8.5513 529.102L-3.1168 589.598L18.2694 521.637L7.61709 582.655L23.4638 524.932L15.937 574.747L34.8475 520.681L21.3547 573.269L50.1994 519.38L26.5728 572.522L63.8721 518.673L33.0198 570.001L76.6915 513.296L42.5722 565.268L83.0604 514.517L52.4534 558.704L88.4423 514.449L62.3355 553.938L97.8982 508.499L69.1817 549.956L103.777 504.998L73.5577 548.625L116.248 499.682L78.9535 546.264L125.43 494.128L85.7544 543.705L131.138 489.075L94.5189 541.941L136.149 488.185L99.2656 541.433L142.972 486.509L109.127 538.085L149.727 485.373L114.47 536.274L156.637 484.929L120.251 534.745L161.584 483.69L126.6 534.195L165.05 482.315L132.492 531.592L176.934 471.06L140.596 527.593L186.1 468.685L145.672 527.051L189.863 467.798L148.593 525.58L195.163 466.522L154.735 524.887L201.855 461.848L160.066 522.178L208.879 456.253L165.322 519.135L213.594 454.874L169.905 517.948L218.563 451.329L175.281 513.816L222.379 449.893L184.398 507.914L227 446.41L189.586 505.409L232.737 443.114L195.42 503.331L245.618 433.135L213.471 485.888L262.148 424.23L232.541 470.603L279.312 407.625L247.395 461.405L290.905 403.135L252.406 460.514L304.332 393.251L262.365 455.195L315.353 391.859L269.669 453.268L334.22 381.381L293.002 438.614L367.462 381.427L292.482 444.352L336.353 417.754L287.117 452.571L322.313 437.108L251.587 481.171L295.122 462.76L214.842 514.745L279.969 477.85L192.593 531.906L244.881 507.644L176.625 549.056L233.225 519.926L177.509 552.294L230.007 524.098L176.767 557.878L226.953 528.95L174.066 562.692L224.178 533.429L167.78 569.969L218.505 540.262L165.967 573.943L212.699 547.287L164.922 578.167L206.071 555.499C201.131 559.569 191.092 567.781 178.113 577.712C103.937 637.014 28.4734 681.067 -45.5202 713.719L-46.0586 734.065L-37.3678 712.46L-43.8193 764.857L-31.7758 710.194L-31.5929 741.177L-18.4608 704.07L-19.3696 736.881L-6.74327 699.747L-7.61928 735.004L6.32179 701.527L-1.65389 736.713L22.4503 704.944L13.0703 737.865L46.2542 702.047L30.9797 728.138L62.269 703.608L40.7785 731.856L75.8689 710.928L54.2745 735.066L94.0398 715.437L65.4967 742.031L106.604 719.455L78.0609 746.049L116.337 721.027L90.0204 748.194L132.536 722.07L107.869 744.079L143.422 725.734L114.671 749.598L158.633 725.931L128.832 751.815L177.758 723.507L120.401 766.512L181.834 726.492L134.48 764.935L190.02 728.972L146.785 762.13L196.292 730.994L160.458 761.423L203.09 732.512L169.098 760.723L208.152 734.262L176.39 761.211L213.819 735.582L186.507 762.322L220.048 736.12L196.485 761.964L231.203 734.881L208.858 758.62L240.876 735.12C233.844 741.295 226.812 747.47 219.771 753.659C237.499 745.866 256.376 730.892 275.537 714.055L275.58 714.025ZM177.785 759.229L246.557 180.131L257.585 180.339L221.604 172.157L211.223 181.242L246.542 180.121L177.785 759.229ZM180.626 65.582L132.559 84.0032L173.481 80.9476L180.626 65.582ZM172.884 82.2508L117.836 96.2L168.742 91.1344L172.884 82.2508ZM167.692 93.3758L110.108 105.084L159.979 104.733L103.125 116.523L156.15 117.489L86.0294 129.399L151.434 128.337L167.702 93.3622L167.692 93.3758ZM100.175 223.264L121.821 192.014L149.256 133.028L66.5955 155.214L138.077 141.339L55.0306 164.651L140.843 148.203L45.384 176.305L134.486 160.095L33.6613 189.126L127.68 169.921L107.86 178.587L124.615 177.975L13.8631 213.195L104.661 190.022C70.5454 203.326 36.4294 216.629 2.31341 229.932C-1.34169 231.358 -4.27868 233.989 -6.04439 237.39C-6.72846 238.693 -5.3089 240.242 -3.88963 239.771C34.2056 227.225 72.3009 214.679 110.401 202.157L-14.5681 258.344L99.5217 217.864L54.6244 241.429L87.2189 232.342C91.3624 229.296 95.6472 226.266 100.185 223.25L100.175 223.264ZM74.1939 242.404L12.1728 276.866L-44.8072 300.2L-47.3066 301.094C-48.3849 301.357 -50.1044 301.882 -51.835 303.087C-53.3351 304.148 -55.8084 305.888 -56.046 308.914C-56.2478 311.541 -54.671 313.683 -54.0392 314.444C-34.4888 305.409 -14.929 296.361 4.62141 287.326L49.8905 264.644C56.9926 257.326 65.0639 249.872 74.1939 242.404ZM46.6718 268.029C-27.3973 314.077 -60.2094 334.241 -61.9413 334.879C-62.0234 334.903 -63.1088 335.302 -64.1446 336.26C-64.808 336.871 -65.9206 337.878 -65.7053 338.956C-65.4197 340.405 -62.803 341.552 -62.803 341.552C-62.803 341.552 -61.711 341.743 -59.995 342.043L20.5723 300.879C27.3036 290.719 35.8186 279.594 46.6475 268.032L46.6718 268.029ZM13.7667 311.714C15.7895 308.289 18.0373 304.696 20.4967 300.988L-80.5003 358.958L7.66718 322.13C11.5059 315.641 13.7667 311.714 13.7667 311.714ZM-73.488 363.795L-3.58737 340.808C0.735821 333.746 4.46349 327.544 7.34285 322.692L-73.488 363.795ZM-4.15215 341.749L-77.1699 376.37L-17.2192 362.666C-12.5091 355.266 -8.09431 348.167 -4.15215 341.749ZM-17.9459 363.778L-79.6705 389.48L-25.0735 374.794C-22.6531 371.079 -20.2611 367.404 -17.9553 363.792L-17.9459 363.778ZM-25.526 375.51L-75.8906 396.743L-32.9284 386.639L-71.5195 402.678L-39.7318 396.587C-34.9341 389.692 -30.1506 382.566 -25.526 375.51ZM-39.7465 396.577L-71.6935 409.242L-48.639 409.036C-45.685 405.024 -42.7199 400.838 -39.7465 396.577ZM-93.1681 449.335C-93.1681 449.335 -89.3683 450.856 -83.7063 447.448C-74.6001 442.002 -61.8831 427.083 -48.639 409.036L-77.0708 416.563L-60.813 419.384C-80.1148 426.955 -89.3051 431.07 -92.9838 432.277C-93.2208 432.335 -94.2317 432.564 -95.2763 433.315C-98.1135 435.327 -99.531 439.899 -97.951 443.962C-97.6288 444.791 -96.4218 447.909 -93.1734 449.311L-93.1681 449.335ZM-164.153 683.746C-164.977 682.126 -165.785 680.516 -166.618 678.909C-168.951 680.383 -171.215 681.884 -173.409 683.474C-168.321 687.079 -163.192 689.965 -164.163 683.76L-164.153 683.746ZM-160.87 681.941C-160.81 682.044 -160.664 682.023 -160.652 681.911L-160.496 675.152C-161.467 675.733 -162.422 676.323 -163.368 676.899L-160.87 681.941ZM-112.144 638.613L-124.796 678.153C-122.433 678.497 -120.079 677.907 -118.279 676.508C-117.01 675.529 -116.099 674.181 -115.658 672.629L-105.463 637.142C-105.381 636.835 -105.659 636.542 -105.974 636.586L-110.681 637.385C-111.369 637.494 -111.923 637.979 -112.129 638.623L-112.144 638.613ZM-131.356 670.358L-130.813 669.259C-129.139 665.895 -127.858 662.341 -126.962 658.68C-129.852 659.728 -132.742 660.997 -135.683 662.433L-136.191 677.812L-133.365 673.732C-132.618 672.654 -131.955 671.538 -131.38 670.361L-131.356 670.358ZM-75.0421 726.166L-71.3987 742.179C-71.3987 742.179 -67.0984 727.67 -65.3773 722.218C-68.6017 723.559 -71.8219 724.862 -75.0327 726.152L-75.0421 726.166ZM-141.716 679.76C-139.585 678.955 -138.194 677.01 -138.126 674.735L-137.026 663.078C-139.466 664.296 -141.977 665.586 -144.555 666.91L-143.068 678.966C-142.959 679.566 -142.286 679.951 -141.722 679.736L-141.716 679.76ZM-127.928 640.664L-127.887 640.289L-128.09 640.33C-128.039 640.446 -127.988 640.562 -127.923 640.688L-127.928 640.664ZM-113.279 615.129L-103.523 632.165L-97.6941 620.088L-111.421 613.266C-112.701 612.621 -113.964 613.908 -113.264 615.139L-113.279 615.129ZM-72.5768 623.532C-72.4447 621.827 -72.3102 620.244 -72.2153 618.876L-75.0776 618.589L-72.5822 623.508L-72.5768 623.532ZM-69.2834 630.014L-66.879 634.749L-66.6224 619.418L-71.3195 618.971C-70.8132 622.028 -70.0391 626.118 -69.2834 630.014ZM-80.5625 597.06L-55.0411 604.56L-52.9563 596.816L-77.9032 594.641C-78.6673 594.576 -79.3651 594.921 -79.7124 595.549L-80.5436 597.033L-80.5625 597.06ZM-43.068 582.098L-39.1267 586.161L-30.5522 556.802L-36.7807 550.044L-43.068 582.098ZM-42.4262 570.346L-44.836 569.343L-46.8603 578.199L-45.0259 580.096L-42.4356 570.36L-42.4262 570.346ZM-43.6283 585.022L-47.8726 606.678L-45.3168 607.439L-39.3712 587.082L-43.623 585.046L-43.6283 585.022ZM-48.5363 610.035L-49.6239 615.582L-48.2563 617.458L-45.9464 609.547L-48.5363 610.035ZM-46.0364 583.859L-47.954 582.935L-53.0379 605.14L-51.8211 605.498L-46.0512 583.849L-46.0364 583.859ZM-61.9495 582.529L-52.5435 595.305L-49.0667 582.426L-60.6113 576.873L-62.1514 579.381C-62.7404 580.326 -62.6629 581.571 -61.9495 582.529ZM-55.2098 569.548L-47.6789 577.33L-45.4582 569.074L-52.7764 566.004L-55.2246 569.538L-55.2098 569.548ZM-54.8709 538.665L-44.0568 563.926L-41.0147 552.685L-43.7465 564.646L-41.9956 568.746L-36.9497 549.846L-51.5856 533.953L-54.8561 538.675L-54.8709 538.665ZM-49.3585 521.522C-49.3585 521.522 -49.5281 521.546 -49.6345 521.573L-51.4966 524.261C-51.6195 524.439 -51.6147 524.684 -51.4941 524.889L-36.3355 547.445L-36.1128 546.65L-36.2859 547.499L-30.3975 556.263L-25.6271 539.939L-29.9122 556.983L-28.6563 558.862L-30.0209 557.392L-37.6587 587.703L-37.2869 588.082L-37.7089 587.87L-42.8202 608.159L-41.8966 608.435L-17.4515 539.12L-49.3585 521.522ZM-42.0011 608.807L-43.008 608.998L-45.9407 620.617L-45.359 618.294L-42.0159 608.796L-42.0011 608.807ZM-49.3082 621.092L-50.6761 620.952L-53.5452 635.604L-49.2987 621.078L-49.3082 621.092ZM-55.7969 620.454L-56.5125 620.383L-61.0047 640.029L-55.7821 620.464L-55.7969 620.454ZM-59.2431 620.127L-66.126 619.459L-65.1088 641.851L-59.2431 620.127ZM-66.8954 635.404L-68.3574 634.674C-67.5828 638.542 -66.9926 641.415 -66.9926 641.415L-66.8954 635.404ZM-73.2729 632.238L-75.2401 631.259L-74.1116 642.602C-74.1116 642.602 -73.7229 637.843 -73.2729 632.238ZM-76.4763 630.645L-79.6651 629.063L-77.4239 644.67L-76.4763 630.645ZM-95.3859 662.458L-84.5054 627.245L-89.4836 656.652L-82.3559 629.602L-83.6572 653.7L-80.8529 628.442L-90.2376 623.779L-100.633 665.488L-87.304 626.74L-95.3912 662.434L-95.3859 662.458ZM-105.093 666.498C-104.374 665.461 -103.794 664.308 -103.4 663.107L-90.3009 623.775L-93.3767 622.251L-98.2782 630.81L-111.013 667.344C-109.019 668.726 -106.369 668.34 -105.093 666.498ZM-45.9781 713.907C-52.2023 716.643 -58.4182 719.304 -64.611 721.901C-64.5322 727.468 -64.8329 744.788 -64.8329 744.788L-54.8095 719.744L-58.9134 756.158L-45.9634 713.917L-45.9781 713.907ZM-84.9622 771.071L-75.8906 726.507C-76.9559 726.94 -78.0402 727.401 -79.1203 727.824C-81.0488 728.588 -82.9585 729.325 -84.8777 730.076L-84.9622 771.071ZM-149.502 669.38C-151.417 670.315 -153.377 671.219 -155.43 672.099C-156.15 680.587 -155.955 688.859 -154.987 696.962C-153.605 708.601 -151.539 688.324 -149.502 669.38ZM-100.472 736.681C-103.537 737.729 -106.73 738.647 -110.099 739.281C-111.179 739.483 -111.825 740.51 -111.527 741.564L-107.681 755.011L-100.472 736.681Z" fill="#65ACB6"/>
</svg>
