<svg width="346" height="725" viewBox="0 0 346 725" fill="none" xmlns="http://www.w3.org/2000/svg">
<path d="M461.486 1009C461.476 1008.66 461.593 1006.85 461.747 1004.98C462.703 993.413 464.33 968.518 465.2 952.158C470.533 851.849 468.385 774.03 458.014 691.786C456.082 676.474 454.425 664.517 454.234 664.525C454.151 664.528 453.873 666.503 453.618 668.912C453.362 671.321 453.063 673.358 452.953 673.437C452.843 673.517 452.547 667.149 452.295 659.285C452.043 651.421 451.79 645.041 451.734 645.107C451.677 645.172 451.103 648.975 450.457 653.557C449.812 658.14 449.207 661.989 449.113 662.111C448.85 662.452 448.161 648.371 447.63 631.791C447.366 623.547 447.058 616.746 446.946 616.678C446.835 616.61 445.97 625.221 445.025 635.813C443.384 654.196 443.248 655.485 442.967 655.205C442.868 655.106 442.241 622.615 441.922 601.048C441.88 598.178 441.81 595.869 441.768 595.918C441.715 595.98 438.075 645.756 438.033 646.985C438.032 647.031 437.915 646.999 437.773 646.912C437.614 646.815 437.537 645.753 437.571 644.121C437.648 640.485 437.494 590.504 437.405 590.416C437.366 590.377 436.034 602.095 434.445 616.456C431.159 646.166 431.414 644.066 431.089 644.08C430.937 644.087 430.879 643.387 430.937 642.254C431.067 639.744 432.317 587.636 432.341 583.743C432.355 581.417 432.305 580.864 432.143 581.579C431.932 582.517 423.775 626.448 422.827 631.759C422.564 633.234 422.24 634.409 422.107 634.37C421.974 634.331 421.885 634.115 421.91 633.89C421.934 633.665 422.72 623.611 423.657 611.547C424.593 599.484 425.72 585.043 426.161 579.458C426.987 568.992 427.012 568.6 426.841 568.798C426.786 568.863 424.082 580.396 420.832 594.427C417.582 608.458 414.877 619.991 414.822 620.056C414.404 620.54 414.631 618.556 416.104 608.851C419.177 588.59 422.13 568.6 422.06 568.53C422.021 568.492 419.664 578.487 416.822 590.74C412.168 610.8 411.252 614.467 411.22 613.161C411.214 612.945 413.018 600.531 415.228 585.574C417.437 570.618 419.218 558.351 419.185 558.315C419.139 558.264 404.989 604.434 404.55 606.066C404.38 606.701 403.873 606.464 404.02 605.817C404.553 603.465 415.228 549.373 415.169 549.32C415.098 549.257 396.137 598.123 394.95 601.428C394.411 602.931 394.007 603.482 393.984 602.749C393.978 602.577 397.463 587.353 401.727 568.919C405.992 550.485 409.473 535.292 409.464 535.157C409.455 535.021 409.1 535.904 408.674 537.117C406.741 542.635 389.658 592.035 389.535 592.463C389.46 592.728 389.267 592.95 389.108 592.957C388.752 592.972 387.781 596.63 396.541 564.964C400.657 550.09 403.983 537.879 403.934 537.83C403.847 537.743 386.487 587.96 385.979 589.767C385.758 590.551 385.276 591.035 385.272 590.476C385.271 590.364 388.566 578.161 392.593 563.358C396.62 548.554 399.886 536.413 399.85 536.377C399.784 536.311 394.782 550.881 386.824 574.32C382.318 587.592 382.469 587.179 382.227 586.938C382.141 586.852 382.599 584.948 383.245 582.708C384.669 577.766 395.633 539.264 395.836 538.491C395.947 538.068 395.927 538.038 395.748 538.359C395.534 538.744 382.171 577.96 380.931 581.84C380.429 583.411 380.016 584.042 379.991 583.274C379.986 583.106 380.999 579.427 382.242 575.097C388.022 554.968 395.832 527.378 395.768 527.314C395.703 527.249 390.855 540.042 379.638 569.881C377.297 576.106 375.253 581.252 375.095 581.317C374.935 581.382 374.861 581.265 374.928 581.052C374.995 580.843 379.127 565.585 384.111 547.148C389.095 528.71 394.638 508.253 396.429 501.688C398.219 495.123 399.653 489.719 399.613 489.68C399.548 489.616 376.24 555.812 375.59 557.905C375.328 558.753 374.93 559.129 374.911 558.549C374.906 558.401 377.448 547.69 380.559 534.746C394.163 478.146 396.733 467.38 396.656 467.303C396.586 467.233 373.693 537.918 370.14 549.175C368.911 553.072 368.258 554.432 368.474 552.648C368.524 552.235 371.21 537.974 374.444 520.957C387.086 454.423 391.064 433.37 391.007 433.314C390.949 433.257 386.317 446.568 370.944 490.968C362.766 514.588 363.42 512.772 363.179 512.532C363.084 512.437 363.485 510.414 364.071 508.036C370.097 483.572 381.348 437.318 381.288 437.258C381.215 437.184 376.898 450.561 364.7 488.66C361.572 498.429 358.981 506.475 358.942 506.539C358.338 507.523 359.859 500.659 367.119 469.656C371.84 449.491 375.663 432.953 375.614 432.904C375.529 432.819 353.188 494.874 351.894 498.79C351.555 499.812 351.184 500.653 351.069 500.658C350.736 500.673 350.799 500.305 351.548 497.873C352.289 495.464 363.909 456.637 364.173 455.69C364.257 455.388 363.19 457.144 361.802 459.594C359.649 463.391 358.324 465.313 358.83 463.902C359.813 461.163 363.372 450.319 363.368 450.076C363.359 449.573 360.529 443.222 360.317 443.231C360.214 443.236 358.834 444.537 357.252 446.123C355.669 447.708 354.181 449.198 353.945 449.433C353.018 450.355 353.279 449.383 355.035 445.371L356.864 441.192L356.492 440.838C356.208 440.569 344.26 430.481 341.364 428.065L340.866 427.65L341.097 428.047C341.224 428.265 343.937 432.468 347.126 437.386C350.315 442.305 352.893 446.445 352.854 446.586C352.815 446.727 349.427 443.865 345.324 440.225C341.221 436.585 337.866 433.666 337.869 433.738C337.872 433.846 349.959 450.669 352.113 453.564C353.351 455.228 352.369 454.785 350.261 452.729C349.084 451.58 344.024 446.745 339.016 441.985C334.008 437.224 328.811 432.267 327.468 430.97C326.124 429.672 325.123 428.79 325.243 429.009C325.398 429.291 345.026 457.57 348.757 462.885C349.36 463.745 348.617 463.528 347.827 462.614C346.667 461.273 315.761 429.15 315.636 429.155C315.582 429.158 316.348 430.316 317.338 431.729C318.328 433.142 324.707 442.304 331.513 452.089C338.32 461.873 344.227 470.31 344.641 470.836C345.372 471.764 345.611 472.4 345.224 472.385C345.12 472.381 344.598 471.806 344.066 471.107C343.252 470.041 310.51 432.228 309.725 431.449C309.214 430.941 310.044 432.164 324.581 453.341C332.644 465.087 339.308 474.864 339.39 475.068C339.717 475.885 338.91 475.128 336.934 472.762C325.756 459.38 304.973 434.586 304.762 434.381C304.325 433.957 307.911 439.397 330.426 473.316C337.004 483.227 337.51 484.035 337.032 483.86C336.891 483.808 331.948 478.05 326.049 471.063C308.51 450.294 305.463 446.706 305.362 446.71C305.284 446.714 333.289 486.354 335.184 488.924C336.182 490.277 335.373 490.048 334.134 488.626C331.973 486.146 290.827 439.616 290.555 439.344C290.087 438.876 290.525 439.545 309.149 467.726C319.271 483.041 327.619 495.739 327.7 495.943C328.074 496.88 326.683 495.42 317.415 485.147C298.768 464.477 293.459 458.633 293.331 458.639C293.261 458.642 293.322 458.792 293.465 458.972C293.608 459.153 300.345 468.482 308.436 479.705C316.527 490.927 323.49 500.545 323.909 501.078C324.733 502.125 324.822 502.344 324.427 502.362C324.286 502.368 317.931 496.203 310.304 488.661C289.495 468.086 280.786 459.532 281.24 460.116C292.6 474.694 320.425 511.04 320.319 511.162C320.238 511.256 319.031 510.225 317.637 508.872C315.306 506.611 294.587 486.596 286.342 478.641C284.411 476.778 283.136 475.606 283.51 476.038C285.741 478.616 312.664 509.078 315.33 512.042C317.101 514.01 318.552 515.689 318.554 515.772C318.566 516.139 317.837 515.902 317.383 515.391C316.769 514.699 304.509 503.153 284.768 484.675C276.545 476.978 266.957 467.99 263.462 464.701C259.967 461.413 257.22 458.917 257.357 459.154C257.494 459.391 267.92 473.273 280.525 490.003C293.13 506.733 303.49 520.548 303.547 520.703C303.831 521.475 302.714 520.376 298.474 515.711C282.411 498.042 262.49 476.275 262.385 476.279C262.317 476.282 262.607 476.728 263.031 477.269C263.455 477.811 269.175 485.352 275.744 494.027C282.312 502.702 290.425 513.407 293.772 517.817C300.713 526.961 300.381 526.49 299.907 526.511C299.711 526.519 289.273 515.334 276.712 501.656C264.15 487.977 253.416 476.317 252.858 475.744L251.843 474.701L252.499 475.623C255.518 479.868 294.93 534.428 295.525 535.187C295.95 535.728 296.259 536.314 296.211 536.487C296.135 536.765 283.55 522.564 253.779 488.606C243.439 476.812 243.546 476.922 246.365 481.05C261.92 503.832 274.819 522.719 279.955 530.231C285.932 538.971 286.552 539.94 286.094 539.814C285.989 539.785 276.946 529.029 265.997 515.911C245.408 491.24 245.218 491.017 246.048 492.333C246.944 493.756 278.727 542.02 280.387 544.48C281.275 545.796 281.964 547.012 281.917 547.182C281.87 547.353 272.884 536.77 261.947 523.665C244.846 503.174 239.699 497.096 241.006 498.934C241.246 499.27 262.702 532.347 271.071 545.281C272.575 547.605 273.984 549.713 274.201 549.966C274.757 550.611 274.369 550.925 273.779 550.307C273.514 550.028 264.87 539.231 254.571 526.312C244.272 513.394 235.61 502.59 235.32 502.304L234.795 501.784L235.342 502.71C235.642 503.22 241.748 513.891 248.911 526.423C256.073 538.955 263.119 551.261 264.568 553.769C266.017 556.278 267.207 558.456 267.212 558.61C267.233 559.273 266.707 558.679 264.48 555.529C260.681 550.155 235.804 515.886 235.495 515.602C235.34 515.459 235.417 515.669 235.665 516.067C235.914 516.466 240.169 523.429 245.12 531.541C250.072 539.653 256.165 549.623 258.66 553.696C261.155 557.769 263.089 561.15 262.958 561.21C262.826 561.269 262.55 561.077 262.343 560.783C261.266 559.25 231.565 520.328 231.219 519.997L230.813 519.608L231.257 520.323C231.501 520.716 237.202 529.618 243.925 540.105C250.649 550.592 256.081 559.251 255.998 559.347C255.914 559.443 255.355 558.937 254.755 558.223C249.864 552.405 221.134 518.582 220.824 518.278C220.263 517.727 220.443 518.04 236.769 545.958C244.859 559.793 251.358 571.162 251.21 571.223C250.885 571.355 253.423 574.541 235.458 551.448C221.27 533.209 219.34 530.759 219.744 531.495C219.824 531.64 225.623 541.945 232.631 554.394C239.638 566.843 245.336 577.16 245.292 577.321C245.247 577.481 244.476 576.611 243.576 575.387C227.123 552.986 215.171 536.8 215.118 536.851C215.082 536.885 215.941 538.512 217.028 540.466C230.216 564.178 240.786 583.472 240.721 583.711C240.676 583.875 234.177 574.836 226.28 563.624C212.45 543.992 211.075 542.074 211.674 543.251C212.277 544.437 233.066 583.961 233.7 585.129C234.353 586.331 234.365 587.309 233.715 586.358C231.477 583.082 204.058 544.347 204.01 544.394C203.95 544.452 224.584 586.282 227.973 592.97C228.765 594.535 229.328 595.914 229.224 596.036C229.119 596.157 228.932 596.079 228.807 595.861C227.963 594.388 192.044 538.576 191.985 538.645C191.952 538.683 194.054 543.624 196.657 549.624C212.854 586.973 225.692 616.728 225.699 616.937C225.721 617.646 225.078 616.745 222.611 612.614C217.571 604.175 191.842 562.033 191.991 562.461C192.24 563.177 212.956 611.054 215.263 616.245C215.366 616.477 215.301 616.575 215.088 616.509C214.776 616.411 210.879 609.995 189.471 574.324C185.179 567.173 181.64 561.35 181.605 561.385C181.57 561.42 187.911 575.64 195.695 592.985C208.931 622.481 210.586 626.283 209.89 625.607C209.743 625.464 205.936 619.031 201.43 611.312C185.165 583.45 183.282 580.243 183.227 580.307C183.175 580.366 188.837 595.857 198.12 621.052C202.956 634.176 203.024 634.765 198.685 625.959C192.725 613.863 176.566 581.432 176.438 581.308C176.232 581.11 176.078 580.62 184.624 607.341C189.038 621.14 192.651 632.5 192.654 632.584C192.682 633.458 190.556 629.043 179.548 605.366C172.546 590.303 166.792 578.005 166.763 578.036C166.72 578.083 182.202 631.359 182.726 632.967C183.108 634.141 182.266 633.289 181.568 631.796C180.029 628.503 161.072 589.685 160.37 588.389C159.975 587.659 159.716 587.304 159.794 587.599C160.282 589.444 170.37 639.003 170.279 639.109C170.217 639.181 170.113 639.185 170.047 639.12C169.945 639.017 165.336 625.559 158.036 604.042C157.001 600.992 156.123 598.532 156.085 598.576C156.034 598.636 161.26 640.085 161.811 643.993C161.853 644.29 161.785 644.573 161.66 644.622C161.536 644.672 160.581 641.781 159.538 638.198C154.957 622.464 152.078 612.788 152.003 612.875C151.935 612.954 152.38 620.249 154.062 646.639C154.143 647.905 154.115 649.006 154 649.085C153.637 649.336 149.786 638.858 148.404 633.858C146.293 626.221 142.817 606.931 141.387 594.918C138.162 567.815 140.672 545.525 149.82 520.011C156.377 501.725 162.099 490.912 176.219 470.121C179.974 464.592 189.768 448.606 189.772 448.001C189.774 447.53 180.684 420.571 180.642 420.926C180.616 421.144 181.283 427.524 182.124 435.105C183.436 446.933 183.713 450.729 183.14 449.022C183.07 448.814 181.008 442.047 178.559 433.985C176.109 425.922 174.079 419.356 174.047 419.393C174.016 419.429 174.796 426.729 175.782 435.615C177.353 449.779 177.586 452.482 177.197 451.996C177.148 451.936 175.281 445.644 173.046 438.014C170.812 430.384 168.96 424.172 168.93 424.209C168.9 424.246 169.875 431.626 171.097 440.608C172.318 449.591 173.231 457.056 173.125 457.198C173.014 457.346 172.879 457.295 172.806 457.076C172.736 456.867 170.992 451.242 168.929 444.575C166.866 437.909 165.159 432.667 165.136 432.928C165.112 433.189 166.076 439.958 167.278 447.97C168.48 455.983 169.376 462.655 169.27 462.796C169.158 462.945 169.022 462.894 168.948 462.675C168.877 462.466 166.884 456.19 164.52 448.728C162.155 441.265 160.183 435.201 160.137 435.252C160.092 435.304 161.064 442.949 162.298 452.242C164.213 466.661 164.583 470.084 164.153 469.4C164.114 469.34 162.215 462.325 159.933 453.812C157.65 445.299 155.744 438.379 155.697 438.432C155.591 438.555 157.065 468.392 157.454 473.991C157.647 476.77 157.655 478.124 157.479 478.131C157.131 478.147 157.423 479.407 153.292 460.038C151.278 450.597 149.601 442.981 149.564 443.114C149.528 443.246 150.059 450.155 150.743 458.467C151.868 472.122 151.986 474.11 151.649 473.746C151.594 473.687 149.856 466.168 147.788 457.038C145.72 447.909 144.003 440.469 143.974 440.504C143.945 440.54 143.807 448.395 143.668 457.959C143.529 467.524 143.366 475.535 143.305 475.762C143.037 476.765 142.656 474.26 140.78 459.171C139.353 447.692 138.763 443.58 138.667 444.464C138.595 445.139 138.233 452.853 137.863 461.607C137.493 470.36 137.148 477.816 137.095 478.176C136.82 480.063 136.471 476.992 135.37 463.005C134.705 454.558 134.096 447.65 134.018 447.654C133.94 447.657 133.501 454.794 133.042 463.514C132.582 472.233 132.161 479.828 132.104 480.39C131.948 481.949 131.569 481.627 131.513 479.888C131.429 477.278 129.433 446.932 129.339 446.838C129.29 446.79 129.191 447.339 129.119 448.058C129.047 448.778 128.207 456.426 127.252 465.056C126.297 473.685 125.492 481.103 125.464 481.541C125.435 481.979 125.257 482.399 125.068 482.475L124.725 482.613L124.814 480.606C124.863 479.502 124.759 472.251 124.583 464.493L124.262 450.387L121.186 469.393C119.494 479.846 118.067 488.452 118.015 488.517C117.682 488.93 117.675 486.533 117.961 470.344C118.137 460.438 118.248 452.3 118.209 452.261C118.17 452.222 116.628 461.196 114.784 472.205C110.952 495.074 111.297 493.176 110.972 493.191C110.821 493.197 110.768 492.739 110.837 492.042C111.032 490.094 113.266 454.413 113.198 454.345C113.163 454.31 111.345 463.428 109.157 474.609C106.97 485.789 105.142 494.989 105.097 495.053C104.738 495.561 104.822 492.556 105.644 475.631C106.158 465.052 106.541 456.358 106.494 456.312C106.408 456.225 100.445 491.087 100.235 492.911C100.091 494.158 99.6892 494.283 99.651 493.093C99.6359 492.619 99.8906 484.513 100.217 475.078C100.544 465.644 100.771 457.682 100.722 457.386C100.673 457.089 99.3055 464.602 97.6828 474.082C96.0601 483.562 94.693 491.371 94.6448 491.435C94.2886 491.91 94.4261 489.144 95.5779 472.666C96.2933 462.432 96.8464 454.027 96.8071 453.988C96.7677 453.949 94.3176 461.985 91.3622 471.846C88.4069 481.707 85.8508 489.831 85.682 489.9C85.4714 489.985 85.4224 489.842 85.5261 489.443C85.7988 488.391 91.884 455.372 91.8173 455.305C91.7815 455.269 90.3861 458.558 88.7165 462.614C79.2549 485.597 76.8578 491.292 76.6005 491.398C76.4208 491.472 76.3718 491.338 76.4682 491.036C77.0093 489.342 86.9978 452.855 86.937 452.794C86.8956 452.753 81.2638 461.847 74.4219 473.003C67.5801 484.159 61.7872 493.533 61.5489 493.834C60.7444 494.849 60.8048 494.087 61.6513 492.542C62.1137 491.698 66.1129 484.026 70.5384 475.493C74.9639 466.96 79.0116 459.166 79.5333 458.172C80.0549 457.179 80.6091 456.086 80.7648 455.743C81.0046 455.215 68.8842 469.297 51.8169 489.377C49.4481 492.164 47.4266 494.361 47.3248 494.259C47.223 494.157 47.6823 493.347 48.3456 492.458C50.9669 488.944 74.6989 456.267 74.8852 455.915C74.9944 455.708 74.1552 456.439 73.0202 457.537C71.8852 458.636 62.422 467.706 51.9909 477.693C41.5599 487.679 32.5923 496.3 32.0629 496.849C31.5335 497.398 31.0583 497.726 31.0069 497.578C30.9114 497.302 41.3226 485.268 68.273 454.503C69.5123 453.089 68.9538 453.566 44.1334 475.117C30.8492 486.652 19.9136 496.022 19.8319 495.941C19.6256 495.735 18.5272 496.848 40.5525 474.941C58.4878 457.103 62.2609 453.302 61.077 454.269C60.8742 454.435 51.2512 462.288 39.6926 471.721C28.134 481.153 17.7587 489.64 16.6364 490.579C14.5275 492.344 13.483 492.636 15.2133 490.977C15.7516 490.461 25.7726 480.862 37.4822 469.647C59.5862 448.476 60.6364 447.444 58.3893 449.109C57.3631 449.87 15.194 482.218 12.4391 484.358C12.1471 484.585 11.8494 484.675 11.7775 484.558C11.7056 484.441 16.8474 479.639 23.2037 473.887C57.6251 442.739 58.6098 441.841 57.7942 442.346C57.1744 442.729 13.2368 472.914 11.847 473.912C10.167 475.117 10.0407 475.179 10.0286 474.802C10.0243 474.667 20.3329 466.074 32.9367 455.706C55.3027 437.308 57.7578 435.243 55.4711 436.757C54.8598 437.161 46.0182 442.834 35.8231 449.362C25.628 455.891 16.5264 461.737 15.5974 462.353C14.6683 462.969 13.805 463.478 13.6789 463.484C13.0646 463.51 13.6906 462.909 16.3398 460.929C20.868 457.543 55.3962 431.236 55.5364 431.064C55.7006 430.864 42.8342 438.493 33.3195 444.237C29.1993 446.725 25.7712 448.669 25.7015 448.556C25.6317 448.444 32.1253 442.908 40.1317 436.254C48.1382 429.6 54.7985 424.037 54.9326 423.892C55.2459 423.552 51.9787 425.398 35.6304 434.797C23.8891 441.547 21.322 442.921 22.2348 441.964C22.36 441.833 29.0853 436.757 37.1799 430.683C45.2745 424.61 51.8582 419.602 51.8105 419.554C51.7628 419.507 45.3199 422.679 37.493 426.604C29.6661 430.528 23.2234 433.741 23.1759 433.743C22.6757 433.765 23.5363 432.967 25.8475 431.265C27.3722 430.142 33.6097 425.555 39.7086 421.071C45.8075 416.587 50.9068 412.79 51.0405 412.632C51.2025 412.441 51.2012 412.398 51.0364 412.505C50.5121 412.842 24.2185 426.436 23.8058 426.583C23.0816 426.84 23.2997 426.287 24.1556 425.695C25.7656 424.581 49.1026 407.022 49.3385 406.747C49.4722 406.591 49.2474 406.66 48.839 406.902C48.4306 407.143 45.6996 408.697 42.7701 410.354C39.8406 412.012 35.794 414.341 33.7775 415.53C31.761 416.719 30.0613 417.694 30.0005 417.696C29.4897 417.719 30.1844 416.989 31.7843 415.822C37.6919 411.515 55.025 398.413 54.8025 398.423C54.6581 398.429 50.7038 399.713 46.0152 401.276C41.3265 402.838 37.4104 404.031 37.3127 403.926C37.215 403.82 37.2503 403.684 37.3911 403.622C38.2216 403.257 69.3522 383.77 78.6771 377.777C104.758 361.017 119.747 352.201 149.397 336.182C153.443 333.996 156.724 332.179 156.689 332.145C156.534 331.989 151.309 334.006 140.519 338.387C130.437 342.479 127.679 343.462 128.764 342.576C139.098 334.137 141.174 333.023 163.59 323.89C182.185 316.313 192.658 312.421 201.103 309.948C214.203 306.113 233.94 302.572 253.559 300.54L256.617 300.223L259.011 294.521C262.682 285.779 266.711 275.961 266.627 275.965C266.586 275.967 262.748 280.787 258.099 286.677C253.45 292.567 249.604 297.265 249.553 297.118C249.503 296.971 251.719 292.633 254.479 287.477C257.239 282.321 259.465 278.079 259.425 278.051C259.385 278.022 255.42 282.682 250.613 288.407C245.807 294.131 241.83 298.687 241.776 298.531C241.722 298.375 243.865 293.169 246.538 286.962C249.211 280.756 251.174 275.932 250.9 276.243C250.626 276.553 246.486 282.268 241.702 288.941C234.278 299.295 232.358 301.8 232.643 300.758C232.67 300.661 234.862 295.128 237.515 288.463C243.053 274.546 243.569 273.203 243.231 273.59C242.918 273.947 226.417 299.706 226.143 300.264C226.032 300.492 225.847 300.585 225.733 300.471C225.62 300.357 228.25 293.829 231.579 285.963C234.908 278.097 237.525 271.788 237.395 271.943C237.265 272.098 231.965 279.233 225.617 287.798C212.254 305.829 213.693 303.934 213.507 303.749C213.426 303.668 217.186 296.87 221.862 288.643C226.538 280.415 230.328 273.657 230.284 273.625C230.22 273.578 214.416 292.534 205.968 302.791C204.926 304.056 204.004 305.021 203.919 304.936C203.834 304.851 207.763 297.823 212.651 289.318C217.539 280.814 221.492 273.857 221.436 273.86C221.338 273.864 197.169 303.634 195.612 305.669C194.7 306.86 194.234 306.615 195.03 305.363C196.301 303.364 214.189 273.615 214.186 273.506C214.182 273.387 204.299 285.324 192.439 299.772C188.844 304.151 185.861 307.615 185.811 307.47C185.761 307.325 189.737 300.581 194.646 292.483C199.556 284.386 203.939 277.133 204.386 276.367L205.2 274.974L204.389 275.984C203.943 276.539 197.47 284.623 190.005 293.948C182.54 303.273 176.392 310.787 176.343 310.645C176.294 310.504 181.092 302.676 187.004 293.25C199.203 273.804 199.353 273.556 197.688 275.606C184.026 292.427 167.378 312.565 167.306 312.358C167.254 312.209 169.366 308.903 171.998 305.011C175.634 299.636 191.054 276.714 193.695 272.759C194.23 271.958 183.939 283.707 169.225 300.695C162.241 308.76 156.444 315.275 156.344 315.175C156.243 315.075 156.593 314.393 157.122 313.66C158.382 311.91 184.446 274.641 184.79 274.098C185.035 273.71 179.787 279.636 157.56 304.847C152.876 310.159 149.005 314.392 148.957 314.254C148.91 314.116 154.74 305.273 161.915 294.603C169.089 283.934 175.121 274.953 175.318 274.646C175.773 273.937 170.585 280.072 154.113 299.723C146.898 308.331 140.954 315.256 140.904 315.113C140.854 314.97 142.065 312.933 143.595 310.586C145.125 308.239 149.705 301.225 153.774 294.999C168.805 272.001 168.914 271.831 167.495 273.382C166.771 274.174 159.524 282.219 151.391 291.259C143.258 300.299 136.531 307.698 136.442 307.702C136.063 307.718 136.753 306.607 140.715 300.822C144.191 295.745 155.552 279.056 158.688 274.419L159.539 273.16L158.212 274.602C157.483 275.395 150.48 283.093 142.652 291.708C127.077 308.849 126.347 309.632 126.147 309.433C126.072 309.358 126.49 308.561 127.076 307.662C128.743 305.102 146.669 276.596 147.591 275.038L148.415 273.645L147.618 274.63C147.18 275.172 140.826 283.208 133.497 292.488C118.268 311.771 118.606 311.352 118.417 311.162C118.338 311.084 123.134 302.145 129.073 291.297C135.012 280.449 139.959 271.386 140.066 271.157C140.324 270.606 139.514 271.553 124.279 289.631C106.661 310.536 106.702 310.489 106.525 310.312C106.44 310.227 111.737 301.775 118.296 291.53C124.855 281.286 130.182 272.871 130.133 272.832C130.062 272.774 115.345 289.008 99.9728 306.099C97.8166 308.497 96.7917 309.4 97.0604 308.666C97.1346 308.463 120.269 273.787 121.062 272.688L121.449 272.153L121.061 272.417C120.848 272.562 113.175 280.522 104.01 290.106C94.8458 299.69 87.198 307.656 87.0151 307.808C86.2461 308.447 86.4101 307.645 87.304 306.395C88.6907 304.456 107.678 276.04 107.919 275.544L108.121 275.128L107.756 275.551C107.556 275.784 101.455 283.198 94.1994 292.027C86.9438 300.855 80.9182 308.124 80.8093 308.178C80.4136 308.376 80.6081 307.691 81.28 306.519C81.8403 305.543 100.256 271.409 101.504 269.034L101.869 268.34L101.488 268.764C101.201 269.082 78.8637 297.877 73.5273 304.807C73.0811 305.386 72.659 305.863 72.5894 305.866C72.2177 305.882 72.652 305.006 74.6823 301.643C77.0393 297.739 92.5182 271.771 93.3414 270.34C93.9499 269.283 93.008 270.323 79.2629 285.887C73.1051 292.86 67.2212 299.519 66.1876 300.684C65.154 301.85 64.2431 302.738 64.1635 302.659C64.0838 302.579 67.0152 297.57 70.6776 291.528C79.7831 276.505 80.2365 275.737 79.6955 276.259C79.4346 276.511 73.0261 282.695 65.4543 290.002C57.8825 297.309 51.5851 303.252 51.4601 303.209C51.335 303.165 55.582 297.217 60.8978 289.99C66.2136 282.763 70.5244 276.814 70.4775 276.768C70.4306 276.723 68.8351 278.117 66.932 279.866C56.3981 289.546 41.5527 303.022 41.3144 303.121C40.6765 303.384 41.691 302.099 51.4178 290.324C57.0318 283.528 61.7237 277.779 61.8442 277.55C61.9647 277.321 61.3509 277.786 60.4802 278.583C59.6095 279.381 53.1589 285.147 46.1456 291.398C39.1322 297.648 33.1137 303.063 32.7711 303.43C32.074 304.176 31.7931 304.276 31.8076 303.772C31.8129 303.585 32.4405 302.803 33.2022 302.034C34.465 300.76 56.5442 277.408 57.3949 276.447L57.76 276.035L57.2655 276.345C56.9935 276.515 49.9057 282.015 41.5148 288.568C33.1238 295.12 26.2106 300.357 26.152 300.205C26.0934 300.054 26.3271 299.69 26.6713 299.398C27.4275 298.756 52.3249 275.036 52.6704 274.629C53.0182 274.219 20.9 294.923 16.1451 298.174C14.7147 299.152 14.2295 299.355 14.2431 298.97C14.2471 298.858 20.5188 293.569 28.1802 287.217C41.1217 276.487 43.7272 274.289 43.0863 274.645C42.79 274.809 18.1097 290.708 12.3673 294.433C10.1514 295.871 8.26476 296.974 8.17483 296.884C7.94916 296.659 6.92313 297.481 23.0503 284.955C31.0706 278.725 37.5976 273.593 37.5549 273.55C37.5121 273.507 29.947 277.41 20.7436 282.222C11.5401 287.034 3.81373 291.045 3.57389 291.137C1.93205 291.762 4.73823 289.761 16.5897 281.855C23.9914 276.918 30.0072 272.838 29.9582 272.789C29.9092 272.74 23.3518 275.976 15.3862 279.98C2.30798 286.554 0.122086 287.572 0.864442 286.74C1.88646 285.595 19.6438 274.199 27.0241 269.952C48.6658 257.498 62.4189 253.589 112.653 245.614C143.955 240.645 162.442 239.039 208.233 237.309L235.063 236.295L249.808 223.115C257.918 215.865 264.526 209.903 264.492 209.865C264.437 209.802 233.184 229.521 231.262 230.832C230.803 231.145 230.355 231.327 230.266 231.238C230.06 231.031 229.59 231.481 241.249 220.724C246.685 215.708 251.306 211.434 251.518 211.225C252.029 210.721 252.122 210.659 237.14 220.901C225.417 228.916 222.754 230.582 224.249 228.969C230.774 221.922 244.341 207.063 244.338 206.965C244.336 206.892 243.973 207.09 243.532 207.404C243.092 207.718 236.733 212.054 229.401 217.04C222.07 222.026 215.819 226.3 215.51 226.536C214.78 227.096 214.417 226.735 215.089 226.117C215.372 225.856 220.623 221.025 226.757 215.381C232.892 209.738 237.883 205.087 237.849 205.047C237.815 205.007 231.601 208.854 224.041 213.595C209.59 222.658 209.406 222.768 209.547 222.322C209.596 222.167 214.977 216.95 221.506 210.728C228.035 204.506 233.486 199.283 233.619 199.122C233.917 198.761 234.963 198.032 218.2 209.878C210.535 215.294 204.22 219.602 204.165 219.451C204.11 219.3 205.965 216.935 208.287 214.195C215.439 205.756 226.293 192.727 226.168 192.733C226.102 192.736 220.051 198.251 212.721 204.99C205.39 211.728 199.298 217.248 199.183 217.256C198.764 217.284 199.298 216.571 210.027 202.784C222.356 186.942 222.472 186.785 220.299 188.892C204.516 204.198 196.831 211.717 196.353 212.321C196.03 212.73 195.672 213.069 195.558 213.074C195.043 213.096 195.429 212.3 196.63 210.863C197.346 210.006 201.987 203.813 206.944 197.1C211.901 190.388 216.24 184.521 216.588 184.064C216.998 183.524 217.048 183.379 216.732 183.65C216.247 184.066 201.433 198.444 194.524 205.203C190.962 208.689 189.884 209.407 191.298 207.353C192.136 206.135 210.093 179.376 210.491 178.753C210.637 178.524 209.875 179.229 208.798 180.321C196.038 193.246 186.855 202.472 186.669 202.554C186.047 202.826 187.144 201.236 196.186 188.743C201.544 181.341 205.895 175.247 205.855 175.2C205.815 175.154 200.894 179.635 194.92 185.159C179.567 199.353 179.761 199.178 179.593 199.011C179.509 198.927 184.033 192.209 189.646 184.082C195.259 175.954 199.691 169.445 199.494 169.618C198.744 170.277 174.336 192.407 173.463 193.218C172.374 194.231 171.929 194.048 172.806 192.949C173.144 192.525 177.7 186.493 182.929 179.545C188.158 172.596 192.719 166.544 193.064 166.096C193.624 165.369 187.183 170.956 170.891 185.333C167.974 187.907 165.518 189.943 165.434 189.859C165.31 189.735 171.488 180.994 183.189 164.742C184.636 162.732 185.05 162.356 171.077 175.716C164.531 181.975 159.056 187.147 158.91 187.21C158.276 187.481 158.003 187.902 172.608 166.054C174.904 162.618 176.739 159.763 176.685 159.708C176.63 159.654 170.251 164.545 162.509 170.577C149.583 180.647 146.096 183.122 149.264 179.979C151.096 178.162 167.516 161.357 168.071 160.731L168.558 160.182L167.812 160.517C167.401 160.701 160.602 163.83 152.703 167.471C144.804 171.112 138.266 174.017 138.176 173.926C137.969 173.72 136.476 174.882 149.49 165.125C155.691 160.476 160.726 156.634 160.679 156.587C160.633 156.541 154.322 158.927 146.656 161.891C131.748 167.653 131.59 167.71 131.594 167.352C131.595 167.222 137.314 163.276 144.303 158.581C151.291 153.887 157.007 150.013 157.006 149.972C157.005 149.931 156.639 150.02 156.193 150.171C154.296 150.813 123.284 160.282 123.045 160.293C122.512 160.316 122.791 159.871 123.517 159.54C124.753 158.976 150.531 145.666 150.48 145.617C150.455 145.592 141.692 147.285 131.008 149.378C120.324 151.471 111.384 153.194 111.141 153.206C109.792 153.271 111.277 152.63 116.119 151.055C125.379 148.043 144.634 141.614 144.566 141.558C144.531 141.528 135.971 142.711 125.545 144.186C115.118 145.661 106.219 146.889 105.769 146.914C104.647 146.977 104.722 146.535 105.875 146.285C107.314 145.971 140.939 136.613 140.87 136.544C140.824 136.499 118.796 138.422 105.286 139.65C103.502 139.812 103.573 139.33 105.381 139.006C106.179 138.863 115.126 137.253 125.264 135.427L143.696 132.107L141.927 132.005C140.954 131.95 131.756 131.815 121.487 131.705C102.304 131.501 101.938 131.489 102.319 131.073C102.661 130.699 139.645 128.507 149.627 128.269C165.432 127.892 168.325 128.36 183.728 133.791C222.941 147.616 253.556 159.81 267.603 167.199C278.394 172.874 295.647 184.042 311.624 195.694L315.938 198.84L325.108 200.23C330.152 200.995 334.321 201.573 334.371 201.514C334.422 201.456 329.516 199.381 323.47 196.903C313.619 192.866 311.003 191.628 313.158 192.022C313.542 192.093 317.617 192.845 322.213 193.694C326.809 194.543 330.601 195.201 330.639 195.157C330.677 195.112 325.014 192.586 318.053 189.543C306.788 184.618 303.801 183.157 306.081 183.684C309.631 184.506 329.64 188.722 329.694 188.659C329.769 188.573 303.099 177.655 301.712 177.204C300.95 176.957 300.554 176.46 301.099 176.436C301.296 176.428 315.996 180.563 328.328 184.096C330.344 184.674 332.034 185.101 332.082 185.045C332.156 184.959 298.108 168.944 293.837 167.055C293.088 166.724 292.472 166.326 292.467 166.17C292.455 165.814 290.169 165.121 313.326 172.49C324.313 175.986 333.342 178.802 333.389 178.747C333.466 178.657 318.481 171.548 295.638 160.838C290.955 158.642 287.12 156.733 287.115 156.595C287.105 156.28 284.616 155.586 309.121 162.733C320.74 166.122 330.27 168.866 330.3 168.831C330.352 168.771 321.898 165.339 297.421 155.484C291.589 153.136 286.768 151.166 286.708 151.107C286.214 150.616 289.406 151.367 307.77 156.063C319.278 159.005 328.731 161.369 328.777 161.317C328.822 161.264 320.032 157.578 309.242 153.125C298.452 148.672 289.625 144.908 289.626 144.759C289.627 144.611 289.742 144.512 289.882 144.54C295.309 145.629 328.433 151.872 328.481 151.816C328.519 151.772 319.733 148.22 308.955 143.923C298.177 139.626 289.249 136.017 289.113 135.902C288.527 135.406 290.717 135.877 307.709 139.898C317.572 142.232 325.678 144.099 325.723 144.047C325.797 143.962 288.8 128.444 286.245 127.489C285.298 127.135 284.781 126.638 285.335 126.615C285.439 126.611 294.431 128.476 305.319 130.759C316.206 133.042 325.147 134.871 325.188 134.824C325.229 134.776 322.47 133.509 319.056 132.009C281.671 115.575 282.902 116.131 283.787 116.092C283.974 116.084 293.238 118.861 304.374 122.264C315.509 125.667 324.649 128.416 324.683 128.372C324.747 128.292 286.799 108.676 285.498 108.117C284.652 107.753 284.548 107.252 285.35 107.405C285.664 107.465 294.345 110.212 304.641 113.51C314.936 116.808 323.397 119.465 323.441 119.413C323.485 119.362 314.349 114.797 303.138 109.269C285.433 100.539 282.065 98.7881 282.903 98.7516C283.048 98.7453 294.124 101.919 320.006 109.384C324.473 110.672 328.167 111.68 328.216 111.623C328.265 111.567 324.698 109.714 320.29 107.507C297.415 96.0505 281.791 88.1877 281.679 88.075C281.015 87.4126 284.951 88.6451 305.204 95.4424C318.049 99.7535 328.639 103.276 328.737 103.271C328.835 103.266 326.491 101.984 323.527 100.424C320.564 98.8631 310.732 93.6753 301.679 88.8953C292.625 84.1154 284.573 79.8974 283.785 79.522C282.035 78.6881 281.767 77.9711 283.415 78.5319C284.011 78.7347 293.734 81.9605 305.021 85.7003C316.308 89.4401 325.875 92.6224 326.281 92.7722C326.686 92.9219 327.054 93.0026 327.098 92.9516C327.181 92.8557 325.885 92.1606 300.765 78.8258C292.509 74.4431 285.645 70.7582 285.512 70.6371C285.081 70.246 285.514 70.1019 286.272 70.3839C288.648 71.2681 321.662 82.3831 321.718 82.3178C321.756 82.2743 312.651 77.707 301.486 72.1681C290.321 66.6292 281.077 61.9978 280.943 61.8761C280.516 61.4861 280.942 61.339 281.703 61.6141C283.074 62.1101 316.026 72.0474 316.079 71.981C316.108 71.9449 308.659 68.2693 299.525 63.8131C290.391 59.3569 282.905 55.6199 282.889 55.5086C282.832 55.115 283.636 55.3272 298.508 59.6316C306.768 62.0224 313.554 63.946 313.588 63.9063C313.622 63.8667 306.645 60.3779 298.082 56.1534C282.91 48.668 281.293 47.8203 282.627 48.0562C283.094 48.1387 303.757 55.6232 314.01 59.424C315.136 59.8412 314.522 59.4559 299.175 50.1092C290.849 45.0389 283.864 40.784 283.651 40.6538C283.439 40.5237 283.335 40.3318 283.421 40.2274C283.506 40.123 290.074 43.1943 298.016 47.0525C305.959 50.9106 312.281 53.8944 312.066 53.6832C311.732 53.355 282.143 31.8188 280.688 30.8453C280.405 30.6556 280.244 30.4148 280.33 30.3103C280.417 30.2058 288.204 34.4367 297.634 39.7123C307.065 44.9879 314.802 49.2719 314.829 49.2322C314.872 49.1679 284.666 23.9917 283.265 22.9252C282.954 22.6877 282.775 22.4043 282.869 22.2954C282.963 22.1866 290.203 26.7917 298.957 32.529C307.712 38.2664 315.223 43.1747 315.647 43.4364L316.419 43.9122L315.996 43.3982C315.763 43.1155 310.221 36.2743 303.68 28.1955C297.139 20.1167 291.43 13.1269 290.995 12.6628C290.24 11.8591 290.173 11.1321 290.902 11.6541C291.091 11.7899 298.046 17.8369 306.356 25.0919C314.666 32.347 321.746 38.4968 322.089 38.7584L322.713 39.2338L321.24 36.4872C320.43 34.9766 315.859 26.4568 311.084 17.5543C306.309 8.65189 302.454 1.25432 302.518 1.11527C302.662 0.803181 301.368 -0.889156 315.038 17.4975C321.399 26.0544 326.642 33.011 326.689 32.9565C326.736 32.9021 324.262 25.6049 321.192 16.7406C316.476 3.12534 315.357 -0.390528 315.992 0.391641C316.041 0.451747 320.572 8.61466 326.062 18.5315C331.551 28.4482 336.13 36.657 336.236 36.7732C336.343 36.8894 336.369 36.3994 336.295 35.6845C336.22 34.9695 335.768 29.1472 335.289 22.7459C334.811 16.3447 334.333 10.3474 334.228 9.41853C334.103 8.31712 334.129 7.72568 334.303 7.7181C334.641 7.70338 334.144 5.89947 338.885 24.3545C341.142 33.1425 343.063 40.4185 343.154 40.5233C343.245 40.6281 343.472 35.486 343.659 29.0964C343.846 22.7067 344.083 17.3744 344.186 17.2468C344.443 16.9295 344.516 17.3785 346.131 29.147C347.061 35.921 347.597 39.1763 347.686 38.5834C347.761 38.0857 347.894 33.8872 347.983 29.2534C348.15 20.5418 348.191 19.8851 348.542 20.2906C348.657 20.4226 349.57 27.2767 350.573 35.522C351.576 43.7673 352.472 50.6009 352.565 50.7077C352.657 50.8146 352.892 45.3952 353.087 38.6646C353.297 31.4048 353.542 26.3969 353.69 26.3529C353.999 26.2612 353.886 25.0836 355.074 40.863C355.621 48.141 356.141 53.8005 356.228 53.4396C356.315 53.0788 356.529 47.7062 356.704 41.5006C356.878 35.295 357.06 30.0555 357.107 29.8573C357.455 28.3923 357.718 31.5832 358.275 44.0716C358.627 51.939 358.996 58.6779 359.097 59.0469C359.2 59.4242 359.588 55.3341 359.984 49.7011C360.663 40.0452 361.046 37.5834 361.292 41.3008C361.782 48.7103 363.344 70.143 363.398 70.1966C363.435 70.2334 363.869 64.2274 364.363 56.8499C364.857 49.4723 365.3 43.274 365.348 43.0757C365.689 41.6656 365.909 45.1909 366.52 61.8892C366.901 72.3036 367.241 80.854 367.276 80.8902C367.347 80.9653 371.003 53.911 371.19 51.9255C371.313 50.6126 371.917 50.1737 371.836 51.4557C371.813 51.817 371.616 58.8412 371.398 67.065C371.181 75.2887 370.957 82.7516 370.901 83.6492C370.845 84.5469 370.857 85.2146 370.928 85.1332C371.098 84.9358 379.186 54.5309 379.173 54.1362C379.168 53.9669 379.277 53.8235 379.415 53.8175C379.816 53.8 379.798 53.9531 377.336 71.0154C376.046 79.9579 375.013 87.2998 375.041 87.3307C375.107 87.4027 384.348 58.7571 384.511 57.9769C384.634 57.3894 385.07 57.1365 385.087 57.6437C385.091 57.7928 383.312 66.1935 381.132 76.3119C378.952 86.4303 377.203 94.7441 377.247 94.7871C377.29 94.8301 380.032 87.3345 383.339 78.1303C386.646 68.9261 389.382 61.3432 389.419 61.2793C389.935 60.3985 389.285 64.2843 386.424 79.1911C384.557 88.9235 383.066 96.9236 383.113 96.9691C383.199 97.0536 392.812 65.8126 393.043 64.6969C393.245 63.7248 393.697 63.9399 393.567 64.9456C393.503 65.4338 391.775 75.3763 389.726 87.0402C387.677 98.704 386.03 108.277 386.065 108.314C386.138 108.392 399.17 71.5239 399.322 70.8048C399.432 70.2888 399.864 70.1214 399.879 70.589C399.884 70.7447 397.918 80.4951 395.51 92.2565C393.102 104.018 391.17 113.679 391.217 113.725C391.263 113.772 394.401 104.28 398.189 92.6317C401.977 80.9837 405.162 71.4461 405.266 71.4369C405.591 71.4083 405.578 71.4738 400.576 96.0055C397.883 109.213 395.716 120.055 395.76 120.1C395.859 120.198 408.446 78.1964 408.434 77.8096C408.429 77.6594 408.538 77.5316 408.677 77.5256C409.075 77.5082 409.182 76.9728 404.116 100.315C401.459 112.555 399.32 122.605 399.363 122.648C399.442 122.727 411.172 84.1197 411.649 82.2139C411.887 81.2596 412.313 80.7922 412.334 81.4609C412.342 81.7088 407.289 106.417 402.174 131.137C401.398 134.888 400.801 137.995 400.848 138.042C400.926 138.12 413.443 94.7123 414 92.4325C414.229 91.4901 414.658 91.003 414.679 91.6599C414.684 91.8111 412.718 101.031 410.312 112.148C403.339 144.356 403.227 144.881 403.323 144.976C403.404 145.057 415.216 103.687 416.142 100.078C416.481 98.7576 416.914 98.1368 416.924 98.9581C416.926 99.1447 414.216 111.696 410.903 126.85C407.589 142.004 404.909 154.433 404.946 154.471C405.006 154.531 415.927 120.303 418.06 113.368C419.006 110.293 418.996 110.317 419.234 110.554C419.328 110.648 419.199 111.56 418.947 112.581C413.531 134.512 407.948 157.47 408.014 157.536C408.093 157.614 418.029 126.194 420.249 118.848C420.774 117.113 421.343 115.636 421.513 115.566C421.715 115.484 421.782 115.621 421.704 115.957C421.639 116.241 420.774 119.686 419.782 123.612C415.846 139.194 407.239 174.085 407.312 174.159C407.379 174.225 424.06 126.502 425.181 123.038C425.512 122.015 425.975 121.455 425.994 122.053C425.998 122.166 422.446 135.235 418.102 151.096C413.758 166.956 410.233 179.963 410.27 179.999C410.306 180.036 413.609 170.918 417.609 159.738C425.596 137.416 424.964 139.113 425.199 139.347C425.292 139.44 424.786 141.835 424.076 144.669C419.5 162.925 411.911 193.713 411.973 193.774C412.04 193.841 426.007 154.691 426.869 152.02C427.198 150.999 427.661 150.435 427.68 151.034C427.683 151.146 424.723 161.557 421.102 174.171C417.482 186.784 414.557 197.142 414.603 197.188C414.649 197.234 417.712 189.414 421.411 179.811C425.109 170.208 428.53 161.326 429.013 160.073C429.988 157.544 430.674 156.925 429.962 159.217C428.3 164.569 415.197 209.069 415.264 209.135C415.31 209.181 418.761 202.768 422.933 194.885C431.584 178.536 431.026 179.552 431.24 179.766C431.364 179.89 419.847 209.355 418.162 213.225C417.08 215.709 418.765 212.594 424.407 201.684C431.679 187.622 430.873 189.112 431.088 189.326C431.18 189.418 429.548 194.917 427.461 201.545C425.374 208.173 423.602 213.843 423.525 214.146C423.363 214.775 423.688 214.162 426.588 208.359C428.969 203.593 428.818 203.859 429.027 204.067C429.113 204.153 428.752 205.481 428.225 207.019C424.007 219.309 421.689 231.541 421.428 242.885L421.362 245.739L423.413 239.947C440.796 190.85 459.338 159.756 493.478 122.45C517.587 96.1043 534.638 81.0279 549.523 72.8943C562.95 65.5574 594.27 53.8607 647.468 36.3164C659.826 32.2407 663.494 31.1728 661.47 32.2398C661.129 32.4196 647.38 37.8352 630.918 44.2744C614.455 50.7137 601.02 56.0177 601.063 56.0612C601.146 56.1461 610.055 53.2198 640.63 43.0648C651.268 39.5316 660.297 36.5656 660.696 36.4735C661.949 36.1839 661.214 36.8612 659.676 37.4135C658.89 37.6958 646.588 42.4667 632.339 48.0156C618.089 53.5645 604.274 58.9417 601.638 59.965C599.001 60.9883 596.888 61.8687 596.941 61.9216C597.036 62.0169 653.531 44.3928 655.887 43.5324C657.284 43.0226 658.255 42.9071 657.902 43.2926C657.775 43.4318 645.665 47.8822 630.991 53.1822C616.317 58.4823 599.854 64.4286 594.407 66.3963C588.959 68.364 584.544 70.0162 584.596 70.0679C584.677 70.1489 627.763 57.4831 644.581 52.4343C650.544 50.6445 650.959 50.5444 650.97 50.8941C650.974 51.01 649.321 51.6886 647.298 52.4021C645.275 53.1157 633.241 57.4584 620.556 62.0527C607.871 66.6469 593.756 71.7542 589.188 73.4023C584.62 75.0503 580.981 76.4289 581.099 76.4659C581.314 76.5329 638.134 62.3434 642.781 61.0623C645.214 60.3916 646.43 60.3224 645.238 60.9224C644.897 61.0943 630.318 65.4999 612.841 70.7126C595.363 75.9254 581.093 80.2192 581.128 80.2543C581.163 80.2895 594.32 77.9781 610.365 75.1178C642.311 69.4233 640.174 69.7823 639.842 70.1668C639.713 70.3169 637.525 70.9471 634.981 71.5673C617.58 75.8093 582.948 84.4696 583.143 84.5303C583.403 84.6115 635.79 77.238 637.139 76.9303C637.749 76.791 637.953 76.8331 637.884 77.0845C637.825 77.2992 636.466 77.7101 634.298 78.1683C622.01 80.7659 585.064 89.0034 585.49 89.0503C585.924 89.0979 636.182 82.9509 637.385 82.7031C637.605 82.6578 637.811 82.7417 637.843 82.8896C637.875 83.0376 637.474 83.252 636.951 83.3662C636.429 83.4803 623.917 86.1596 609.147 89.3202C594.377 92.4807 582.327 95.1007 582.368 95.1424C582.454 95.2277 627.423 89.9015 632.238 89.2358C633.945 88.9997 635.407 88.8717 635.487 88.9512C635.803 89.2674 635.229 89.462 632.996 89.7946C626.711 90.7306 583.452 97.6418 583.235 97.7444C583.099 97.8091 583.724 97.84 584.625 97.8128C590.479 97.6361 633.894 97.0732 633.994 97.1726C634.281 97.4593 632.222 97.721 607.915 100.486C593.886 102.082 582.013 103.481 581.531 103.596C580.636 103.81 621.499 103.503 628.266 103.245C631.136 103.136 631.981 103.182 631.91 103.446C631.853 103.657 631.244 103.842 630.328 103.927C624.034 104.508 580.459 108.901 580.065 108.995C579.783 109.061 579.907 109.115 580.347 109.116C580.778 109.118 589.127 109.321 598.901 109.567C608.674 109.814 618.147 110.043 619.951 110.076C621.756 110.11 623.179 110.246 623.114 110.378C622.989 110.633 609.268 111.245 589.364 111.883C582.781 112.094 577.51 112.319 577.651 112.384C577.886 112.491 609.118 116.178 610.799 116.297C611.205 116.325 611.591 116.504 611.655 116.694C611.747 116.961 611.414 117.018 610.17 116.95C608.07 116.833 572.291 116.55 572.206 116.649C572.144 116.721 599.434 122.69 606.645 124.181C608.523 124.57 610.111 125.033 610.172 125.212C610.252 125.442 610.039 125.5 609.434 125.412C608.038 125.209 571.678 122.043 571.612 122.119C571.563 122.176 579.936 124.424 602.379 130.38C603.564 130.695 604.167 131.406 603.034 131.153C601.897 130.9 563.864 125.078 563.526 125.106C563.335 125.122 571.259 127.715 581.135 130.869C591.011 134.022 599.144 136.656 599.209 136.721C599.633 137.144 596.834 136.773 576.814 133.756C564.562 131.909 554.515 130.423 554.489 130.454C554.446 130.505 566.217 134.951 585.027 141.99C588.325 143.223 591.071 144.372 591.13 144.542C591.197 144.737 591.06 144.8 590.761 144.712C589.231 144.261 554.989 136.06 554.929 136.13C554.856 136.215 586.912 148.782 588.482 149.283C589.496 149.608 589.616 150.162 588.63 149.967C588.246 149.891 579.06 147.475 568.216 144.599C557.373 141.722 548.482 139.392 548.458 139.42C548.433 139.448 555.875 142.993 564.994 147.299C574.113 151.604 581.588 155.249 581.605 155.397C581.644 155.729 584.292 156.543 563.481 149.827C553.678 146.663 545.625 144.113 545.585 144.159C545.545 144.205 551.141 147.281 558.021 150.993C564.9 154.706 572.81 158.975 575.599 160.48C578.387 161.985 580.672 163.342 580.677 163.497C580.682 163.655 580.491 163.704 580.239 163.608C577.001 162.378 541.031 149.723 540.972 149.792C540.927 149.844 543.063 151.264 545.719 152.946C552.1 156.989 572.549 169.985 573.206 170.415C574.459 171.235 573.224 171.009 571.024 170.015C569.701 169.417 561.2 165.569 552.134 161.462C543.068 157.356 535.62 154.032 535.582 154.076C535.527 154.14 557.186 173.789 561.323 177.43C561.969 177.998 562.214 178.354 561.972 178.372C561.757 178.387 561.47 178.292 561.334 178.159C561.001 177.834 532.366 161.178 532.304 161.273C532.264 161.335 540.152 168.794 551.361 179.289C553.949 181.713 554.417 182.571 552.5 181.378C548.701 179.013 538.026 173.651 531.512 170.836C525.591 168.277 515.231 164.468 514.982 164.757C514.936 164.81 516.715 165.794 518.934 166.943C530.628 173 542.101 179.42 549.042 183.789C550.403 184.646 548.883 184.386 546.623 183.375C543.084 181.792 532.932 177.797 526.172 175.326C520.232 173.156 506.693 168.749 506.533 168.934C506.489 168.985 514.512 172.633 524.363 177.041C539.671 183.891 544.06 185.999 541.843 185.436C541.599 185.374 534.428 183.533 525.908 181.344C517.388 179.156 510.379 177.41 510.332 177.465C510.284 177.52 511.653 178.062 513.374 178.67C521.953 181.703 538.951 187.842 539.056 187.947C539.504 188.394 536.843 187.939 519.427 184.585C508.697 182.518 499.883 180.868 499.841 180.917C499.799 180.966 507.249 183.856 516.397 187.339L533.03 193.672L537.993 191.734C564.962 181.201 586.547 175.849 626.031 169.904C665.742 163.925 706.107 161.247 727.337 163.181C745.891 164.872 755.331 167.845 767.34 175.78C771.839 178.753 780.648 185.705 780.667 186.298C780.68 186.695 780.293 186.532 766.726 180.435C759.27 177.084 752.772 174.178 752.286 173.977L751.402 173.611L752.307 174.617C755.045 177.661 773.247 197.971 774.104 198.938C775.328 200.32 775.183 200.726 773.844 199.667C773.31 199.244 766.706 194.177 759.169 188.406C751.632 182.636 744.716 177.326 743.802 176.608C742.887 175.891 742.25 175.488 742.386 175.714C742.522 175.94 747.793 183.076 754.1 191.573C760.407 200.07 765.732 207.256 765.934 207.541C766.546 208.406 765.997 208.525 765.279 207.683C763.654 205.777 746.008 186.417 745.954 186.48C745.92 186.518 748.559 191.745 751.817 198.095C763.565 220.995 764.485 222.823 764.34 222.992C764.157 223.204 766.528 226.444 748.082 200.765C739.32 188.567 732.111 178.633 732.062 178.69C732.013 178.747 735.163 189.119 739.063 201.74C745.042 221.089 746.408 225.821 745.76 224.939C745.688 224.84 740.77 213.769 729.3 187.885C727.113 182.95 725.29 178.952 725.249 179C725.207 179.048 726.91 188.253 729.033 199.454C732.327 216.835 732.99 220.792 732.492 220.086C732.449 220.025 729.265 211.559 725.415 201.272C721.565 190.985 718.337 182.477 718.241 182.364C718.145 182.252 718.117 182.497 718.177 182.91C718.395 184.392 723.61 231.836 723.632 232.538C723.645 232.933 723.542 233.261 723.404 233.267C723.265 233.273 723.146 233.09 723.138 232.861C723.125 232.458 712.086 188.568 711.588 186.939C711.443 186.465 711.64 195.65 712.069 209.319C712.557 224.854 712.713 232.537 712.542 232.606C712.402 232.663 712.281 232.495 712.272 232.232C712.254 231.66 702.277 188.209 702.128 188.053C702.071 187.993 702.26 195.5 702.546 204.735C703.111 222.916 703.242 231.258 702.965 231.367C702.868 231.406 702.32 229.658 701.748 227.483C701.175 225.308 698.727 216.222 696.308 207.292L691.909 191.055L692.09 202.044C692.189 208.089 692.41 218.527 692.581 225.24C692.77 232.679 692.799 237.45 692.653 237.457C692.522 237.462 690.251 227.541 687.606 215.41C684.961 203.278 682.743 193.171 682.677 192.95C682.611 192.729 682.805 200.908 683.108 211.125C683.743 232.555 683.85 240.246 683.515 240.389C683.385 240.444 683.279 240.327 683.28 240.128C683.281 239.479 674.041 200.098 673.977 200.481C673.943 200.685 675.038 209.174 676.41 219.345C677.783 229.516 678.914 238.1 678.925 238.421C678.968 239.772 678.507 238.811 677.635 235.733C674.873 225.975 665.991 196.064 665.995 196.528C665.998 196.826 666.989 206.737 668.2 218.552C670.599 241.967 670.562 241.541 670.197 241.557C670.059 241.563 669.942 241.416 669.939 241.229C669.931 240.849 656.993 194.061 656.92 194.152C656.895 194.183 657.697 204.377 658.703 216.804C659.709 229.231 660.553 239.978 660.579 240.686C660.632 242.156 660.269 242.424 659.993 241.119C659.598 239.248 647.663 198.715 647.659 199.227C647.656 199.526 648.629 210.023 649.821 222.555C651.69 242.215 651.998 246.219 651.593 245.603C651.553 245.543 649.007 236.03 645.934 224.463C642.861 212.897 640.322 203.599 640.292 203.8C640.261 204.002 641.326 213.322 642.658 224.512C645.275 246.494 645.242 246.174 644.871 246.19C644.732 246.196 644.614 246.057 644.609 245.881C644.601 245.644 631.68 206.951 631.084 205.38C630.835 204.724 631.107 207.427 633.111 225.564C635.421 246.458 635.409 246.33 635.039 246.347C634.9 246.353 634.782 246.205 634.776 246.019C634.76 245.511 623.605 206.924 623.507 207.038C623.46 207.092 624.325 215.681 625.428 226.125C626.53 236.57 627.444 245.466 627.458 245.895C627.484 246.719 626.996 247.037 626.954 246.223C626.941 245.963 624.49 236.63 621.509 225.484C618.527 214.337 616.152 205.704 616.23 206.298C616.883 211.252 620.775 248.645 620.652 248.788C620.424 249.052 621.025 250.644 611.922 225.678C607.294 212.987 603.478 202.713 603.441 202.848C603.404 202.983 604.815 212.56 606.576 224.132C610.023 246.775 609.929 246.082 609.556 246.098C609.417 246.104 609.3 245.957 609.295 245.77C609.284 245.311 598.708 209.089 598.617 209.195C598.577 209.242 599.905 218.132 601.568 228.951C604.818 250.097 604.745 249.566 604.371 249.583C604.232 249.589 604.114 249.441 604.108 249.255C604.083 248.481 592.883 210.078 592.832 210.591C592.801 210.899 593.555 219.297 594.507 229.254C596.845 253.705 596.778 252.9 596.473 252.914C596.329 252.92 596.121 252.41 596.01 251.78C595.445 248.582 586.548 211.819 586.564 212.749C586.574 213.346 587.059 221.756 587.642 231.439C588.225 241.121 588.751 249.889 588.811 250.924C588.882 252.158 588.82 252.846 588.63 252.923C588.47 252.988 588.338 252.879 588.336 252.68C588.33 251.989 580.915 221.975 580.854 222.395C580.793 222.815 585.18 253.137 585.506 254.545C585.611 255.002 585.57 255.289 585.397 255.297C585.048 255.312 585.622 257.237 580.548 239.016C578.155 230.424 576.162 223.434 576.119 223.485C576.075 223.535 577.067 230.73 578.322 239.473C579.578 248.216 580.639 255.613 580.68 255.909C580.722 256.206 580.644 256.454 580.507 256.46C580.371 256.466 579.051 252.735 577.574 248.17C576.097 243.604 573.957 236.996 572.819 233.484C571.681 229.973 570.719 227.212 570.682 227.35C570.627 227.549 573.962 247.82 574.853 252.701C574.968 253.331 574.96 253.85 574.836 253.856C574.713 253.861 571.849 246.99 568.474 238.587C565.098 230.183 562.193 223.024 562.017 222.677L561.698 222.047L561.836 223.5C562.013 225.357 564.182 254.801 564.213 255.766C564.247 256.848 563.824 256.657 563.62 255.498C563.026 252.139 557.552 224.494 557.493 224.562C557.454 224.608 557.016 231.925 556.52 240.823C556.024 249.721 555.576 257.053 555.525 257.118C555.248 257.467 555.014 255.843 553.602 243.745C552.755 236.485 552.026 230.374 551.983 230.166C551.903 229.783 547.416 259.767 547.454 260.434C547.465 260.632 547.355 260.757 547.208 260.712C547.029 260.656 546.829 257.167 546.598 250.058C546.408 244.243 546.212 239.61 546.161 239.762C546.111 239.913 545.486 245.065 544.774 251.211C544.061 257.356 543.426 262.445 543.362 262.519C543.115 262.806 543 262.222 541.982 255.497C541.404 251.68 540.904 248.59 540.869 248.63C540.835 248.67 540.893 251.965 540.997 255.952C541.102 259.94 541.098 263.268 540.988 263.348C540.878 263.427 539.144 260.747 537.136 257.392C535.128 254.036 533.444 251.338 533.394 251.396C533.345 251.453 534.267 254.792 535.445 258.814C536.622 262.836 537.527 266.195 537.456 266.278C537.288 266.472 537.443 266.599 530.316 260.435C526.961 257.533 523.993 254.973 523.721 254.748L523.226 254.338L523.469 254.752C523.689 255.127 533.08 268.991 533.256 269.2C533.297 269.249 538.007 268.83 543.722 268.27C556.263 267.04 573.505 265.469 586.81 264.343C623.55 261.235 658.157 259.727 684.411 260.092C728.81 260.708 764.7 266.047 808.595 278.565C824.573 283.122 851.744 292.068 851.247 292.608C851.137 292.727 848.193 292.292 844.704 291.643C841.215 290.993 838.191 290.465 837.984 290.47C837.777 290.474 839.054 291.249 840.82 292.191C846.806 295.382 851.966 298.81 856.579 302.66C859.174 304.826 861.651 307.427 861.267 307.583C861.147 307.632 851.619 303.254 840.096 297.855C828.572 292.455 819.113 288.071 819.077 288.113C819.041 288.155 821.487 290.298 824.512 292.876C833.204 300.282 838.896 305.656 838.049 305.656C837.933 305.656 830.2 301.064 820.865 295.451C811.529 289.839 803.852 285.281 803.805 285.323C803.704 285.413 820.387 304.412 820.775 304.648C821.104 304.849 821.135 305.315 820.82 305.329C820.691 305.335 816.551 302.752 811.619 299.589C806.688 296.427 802.511 293.786 802.337 293.72C802.163 293.655 804.966 298.318 808.564 304.083C812.162 309.847 815.042 314.639 814.963 314.73C814.805 314.914 814.263 314.462 801.966 303.894C797.258 299.848 793.366 296.581 793.317 296.633C793.267 296.686 794.885 300.163 796.911 304.361C798.938 308.558 800.537 312.061 800.465 312.144C800.393 312.228 799.898 311.885 799.364 311.384C798.83 310.882 793.888 306.227 788.38 301.04C782.873 295.852 777.858 291.131 777.236 290.549L776.104 289.49L777.156 291.209C777.735 292.155 781.292 297.863 785.06 303.894C788.828 309.925 791.971 315.012 792.044 315.199C792.453 316.235 790.938 314.788 783.891 307.412C779.609 302.932 775.366 298.503 774.462 297.572L772.817 295.879L773.355 297.135C780.253 313.244 784.573 323.55 784.475 323.664C784.2 323.983 783.475 322.882 773.413 306.871C767.661 297.716 762.927 290.257 762.893 290.296C762.86 290.335 765.476 296.477 768.707 303.946C774.424 317.158 775.157 318.972 774.661 318.669C774.53 318.59 770.917 313.231 766.631 306.761C762.346 300.292 758.802 295.042 758.756 295.096C758.709 295.15 760.58 300.932 762.913 307.945C765.245 314.958 767.065 320.793 766.957 320.911C766.848 321.028 766.712 321 766.655 320.847C766.353 320.037 752.251 295.29 752.199 295.478C752.166 295.601 753.579 301.681 755.34 308.989C758.711 322.978 758.709 322.969 758.313 322.986C758.174 322.992 754.365 315.704 749.848 306.79C745.331 297.877 741.589 290.585 741.533 290.588C741.477 290.59 741.484 290.804 741.55 291.062C741.616 291.321 742.968 298.319 744.555 306.613C746.142 314.908 747.505 321.895 747.584 322.14C747.883 323.076 747.208 322.899 746.804 321.937C745.292 318.332 734.576 294.462 734.506 294.542C734.434 294.626 740.299 321.169 740.815 323.095C741.127 324.26 740.522 323.791 739.704 322.235C730.353 304.436 723.418 291.375 723.356 291.447C723.286 291.528 733.079 323.055 733.502 324.107C733.599 324.349 733.581 324.617 733.463 324.703C733.344 324.789 729.734 317.633 725.44 308.801C721.147 299.969 717.609 292.771 717.578 292.807C717.547 292.842 719.8 300.345 722.584 309.479C725.368 318.613 727.726 326.419 727.824 326.825C728.046 327.743 727.571 327.844 727.247 326.947C726.925 326.054 708.198 288.502 708.12 288.593C708.048 288.676 717.357 322.784 718.446 326.431C719.226 329.04 719.271 329.302 718.939 329.317C718.814 329.322 718.53 328.815 718.309 328.19C717.766 326.658 702.834 291.431 702.515 290.929C702.318 290.62 702.295 290.651 702.411 291.069C702.492 291.365 704.211 298.683 706.23 307.332C708.249 315.981 710.222 324.306 710.614 325.831C711.404 328.907 711.449 329.201 711.106 328.992C710.975 328.912 710.591 328.036 710.252 327.044C709.913 326.053 706.437 316.643 702.528 306.135C698.619 295.627 695.078 286.094 694.66 284.95C694.242 283.807 693.862 282.915 693.816 282.968C693.77 283.022 695.942 293.2 698.643 305.587C702.841 324.841 703.68 329.055 703.171 328.351C703.127 328.291 701.861 323.957 700.358 318.721C694.349 297.795 690.676 285.205 690.605 285.287C690.528 285.377 696.262 326.766 696.567 328.322C696.731 329.159 696.324 329.645 696.095 328.886C696.039 328.701 693.767 320.557 691.046 310.787C688.324 301.017 686.066 293.135 686.027 293.27C685.962 293.496 687.257 302.195 690.482 323.199C691.175 327.71 691.749 331.626 691.758 331.901C691.798 333.161 691.318 332.145 690.449 329.13C689.614 326.235 679.221 291.342 677.734 286.441L677.165 284.565L677.206 286.464C677.229 287.509 677.873 299.15 678.639 312.335C679.404 325.519 680.079 337.189 680.139 338.269C680.199 339.348 680.153 340.267 680.036 340.31C679.92 340.353 678.137 331.175 676.075 319.914C674.012 308.653 672.263 299.198 672.188 298.902C672.113 298.607 672.388 306.965 672.798 317.477C673.209 327.988 673.564 336.667 673.589 336.763C673.613 336.859 673.521 336.96 673.384 336.988C673.248 337.015 671.457 328.954 669.405 319.074C667.353 309.194 665.65 301.431 665.619 301.825C665.574 302.421 668.051 335.973 668.322 338.422C668.371 338.865 668.272 339.266 668.098 339.337C667.927 339.407 667.784 339.301 667.782 339.102C667.77 338.266 658.654 302.637 658.604 303.233C658.574 303.593 659.443 312.1 660.534 322.138C661.626 332.177 662.53 340.711 662.542 341.104C662.571 341.997 662.167 342.061 661.984 341.192C661.783 340.243 651.211 305.961 651.143 306.039C651.111 306.076 652.18 315.518 653.518 327.023C654.856 338.527 655.96 348.216 655.971 348.553C656.014 349.898 655.567 349.021 654.684 346.028C652.833 339.754 645.359 315.556 645.354 315.82C645.351 315.97 646.108 322.108 647.035 329.46C648.88 344.087 648.876 344.044 648.512 344.06C648.374 344.066 648.258 343.918 648.256 343.731C648.248 343.152 639.456 309.124 639.383 309.39C639.346 309.528 638.957 315.628 638.519 322.944L637.724 336.247L639.197 337.812C640.007 338.673 644.954 343.815 650.192 349.238C659.55 358.93 660.264 359.715 659.569 359.557C659.328 359.503 628.955 343.411 622.873 340.116C622.643 339.991 623.704 343.807 623.966 344.046C624.588 344.613 634.918 351.659 641.196 355.797C655.66 365.333 665.637 371.293 682.423 380.424C697.956 388.874 698.148 389.012 706.211 397.512C711.648 403.243 714.137 405.616 717.668 408.436C722.781 412.519 730.171 417.395 734.353 419.444C735.375 419.944 736.214 420.474 736.219 420.622C736.232 421.025 735.812 420.966 734.689 420.408C734.131 420.131 731.805 419.117 729.519 418.156C724.153 415.899 723.549 415.655 723.706 415.808C723.777 415.878 727.382 418.561 731.716 421.77C740.88 428.555 739.85 427.749 739.655 427.975C739.569 428.075 737.404 427.254 734.845 426.15C732.286 425.046 730.16 424.179 730.121 424.224C730.065 424.289 752.071 442.032 753.566 443.126C753.791 443.29 753.904 443.507 753.818 443.607C753.732 443.706 749.987 441.944 745.496 439.691C741.004 437.438 737.298 435.621 737.258 435.654C737.219 435.687 738.976 438.287 741.164 441.432C744.762 446.605 745.409 447.644 745.04 447.66C744.975 447.663 743.728 446.827 742.269 445.802C740.809 444.778 738.455 443.154 737.037 442.193L734.458 440.446L741.483 447.498C745.347 451.376 748.436 454.632 748.348 454.734C748.261 454.836 741.168 451.162 732.586 446.57C714.433 436.856 716.404 437.892 716.732 438.242C717.057 438.589 754.936 463.246 755.41 463.419C755.6 463.488 755.761 463.723 755.768 463.94C755.777 464.21 754.536 463.702 751.87 462.345C749.72 461.251 740.809 456.791 732.068 452.436C723.328 448.08 714.503 443.669 712.459 442.633C710.414 441.597 708.858 440.871 709.002 441.019C709.145 441.166 718.44 447.867 729.657 455.909C753.849 473.253 751.383 471.442 751.168 471.704C751.071 471.821 750.843 471.798 750.661 471.652C749.886 471.026 708.019 445.822 708.412 446.217C708.555 446.361 719.224 455.206 732.121 465.872C760.496 489.34 757.937 487.185 757.731 487.434C757.637 487.548 757.118 487.296 756.578 486.874C755.314 485.888 713.641 456.005 713.13 455.719C712.552 455.396 711.603 454.533 736.642 477.099C749.499 488.685 761.698 499.682 763.751 501.536C765.804 503.39 767.374 504.952 767.239 505.007C767.104 505.062 759.458 499.795 750.249 493.303C741.039 486.811 733.156 481.268 732.731 480.985C732.306 480.703 739.961 488.474 749.743 498.255C759.524 508.035 767.528 516.073 767.529 516.117C767.541 516.491 766.671 515.949 764.876 514.464C760.131 510.538 730.741 487.069 730.682 487.158C730.647 487.212 738.502 496.565 748.139 507.944C766.662 529.818 766.602 529.745 766.385 529.996C766.308 530.085 764.853 528.709 763.15 526.938C735.851 498.541 726.032 488.385 726.037 488.551C726.041 488.65 737.954 510.355 745.611 524.211C748.069 528.659 750.02 532.417 749.947 532.56C749.875 532.704 749.709 532.65 749.58 532.441C744.983 524.993 725.165 493.228 725.04 493.107C724.943 493.013 725.045 493.356 725.268 493.869C726.665 497.096 742.333 532.026 742.685 532.699C743.619 534.485 743.044 534.624 742.055 532.852C741.669 532.159 736.261 522.466 730.037 511.312C723.814 500.158 718.621 490.918 718.499 490.78C718.376 490.642 718.461 491.066 718.687 491.722C718.913 492.379 722.112 502.133 725.796 513.398C729.481 524.662 732.624 534.205 732.781 534.604C732.964 535.067 732.98 535.391 732.828 535.502C732.696 535.597 732.528 535.516 732.455 535.324C728.518 525.029 715.706 492.417 715.632 492.502C715.556 492.591 725.533 534.86 726.072 536.73C726.53 538.318 725.946 538.319 725.458 536.731C721.509 523.863 710.83 490.763 710.79 491.266C710.75 491.783 713.942 528.654 714.412 533.095C714.462 533.573 714.39 533.955 714.25 533.944C714.111 533.933 713.699 532.031 713.335 529.717C711.562 518.466 707.399 493.335 707.323 493.424C707.275 493.48 707.536 499.051 707.903 505.805C709.294 531.427 709.376 533.261 709.12 532.996C708.981 532.853 707.997 525.931 706.933 517.613C705.868 509.296 704.673 500 704.276 496.956L703.555 491.42L703.705 502.004C704.043 525.804 704.063 529.043 703.873 528.834C703.764 528.715 702.684 519.62 701.473 508.623C700.262 497.627 699.22 488.579 699.157 488.516C699.095 488.454 699.066 489.064 699.093 489.872C699.18 492.48 698.961 526.374 698.857 526.496C698.608 526.786 698.377 525.225 695.682 505.066C694.114 493.337 692.789 483.498 692.737 483.202C692.443 481.514 692.391 485.367 692.462 503.444C692.505 514.419 692.452 523.511 692.343 523.647C692.086 523.97 692.27 525.073 688.746 502.112C687.06 491.134 685.634 482.102 685.575 482.043C685.517 481.983 685.57 483.203 685.695 484.753C686.155 490.489 688.087 524.085 687.965 524.227C687.705 524.528 687.582 523.792 685.177 507.427C683.825 498.226 682.37 488.453 681.945 485.708L681.171 480.719L681.78 496.17C682.115 504.669 682.56 514.761 682.769 518.597C683.037 523.522 683.068 525.577 682.876 525.585C682.726 525.592 682.528 525.203 682.436 524.722C682.345 524.24 680.541 514.207 678.428 502.426C676.315 490.645 674.536 480.885 674.475 480.739C674.414 480.592 674.65 489.679 675 500.932C675.35 512.186 675.536 521.281 675.414 521.144C675.292 521.008 674.347 514.762 673.315 507.265C672.282 499.768 671.392 493.513 671.337 493.366C671.282 493.219 671.419 499.048 671.641 506.319C672.015 518.566 671.936 522.135 671.383 518.007C668.774 498.563 667.542 489.213 667.527 488.737C667.516 488.413 667.453 488.21 667.387 488.288C667.32 488.365 667.082 495.012 666.857 503.059C666.483 516.429 666.392 518.208 666.098 517.875C666.045 517.815 665.246 510.777 664.323 502.235C663.4 493.692 662.591 486.65 662.527 486.586C662.462 486.521 662.416 486.641 662.423 486.853C662.46 487.857 660.3 510.167 660.146 510.368C659.894 510.699 659.525 505.633 658.971 494.236C658.705 488.754 658.445 484.318 658.393 484.379C658.341 484.439 657.312 489.956 656.106 496.638C654.901 503.321 653.818 508.823 653.699 508.865C653.47 508.947 653.31 504.153 653.04 489.139C652.94 483.533 652.789 480 652.664 480.331C652.438 480.929 646.353 499.58 646.126 500.37C646.049 500.635 645.87 500.856 645.727 500.863C645.415 500.876 645.411 500.777 645.664 499.372C646.097 496.966 648.756 477.273 648.678 477.048C648.632 476.915 645.846 482.708 642.486 489.92C639.127 497.133 636.341 503.087 636.295 503.152C635.7 503.986 636.514 500.718 639.86 488.844C642.045 481.088 643.798 474.708 643.755 474.665C643.712 474.622 641.419 479.393 638.658 485.266C635.898 491.14 633.557 495.895 633.457 495.834C633.357 495.773 634.597 489.656 636.214 482.24C637.83 474.824 639.121 468.727 639.082 468.69C639.043 468.653 636.984 474.29 634.507 481.216C632.031 488.142 629.972 493.861 629.933 493.925C629.542 494.567 629.674 491.587 630.607 478.685C631.204 470.426 631.657 463.634 631.612 463.59C631.543 463.521 625.385 504.492 623.795 515.597C623.282 519.178 622.892 520.5 622.838 518.834C622.826 518.463 623.499 504.055 624.333 486.816C625.168 469.577 625.821 455.444 625.786 455.409C625.715 455.339 615.335 518.536 615.146 520.184C615.016 521.327 614.603 521.595 614.57 520.56C614.558 520.193 615.276 505.296 616.165 487.455C617.054 469.614 617.747 454.918 617.704 454.798C617.619 454.56 609.04 514.324 609.079 514.882C609.092 515.068 608.973 515.226 608.815 515.233C608.448 515.249 608.304 517.477 610.942 482.445C612.171 466.126 613.137 452.603 613.09 452.394C613.014 452.06 604.023 507.45 603.724 510.091C603.611 511.086 603.184 511.556 603.157 510.714C603.149 510.484 604.716 495.551 606.638 477.53C608.56 459.51 610.097 444.729 610.053 444.685C609.975 444.608 597.702 503.197 597.173 506.168C596.894 507.73 596.392 508.176 596.529 506.739C596.576 506.251 598.705 492.518 601.262 476.219C603.819 459.921 605.874 446.549 605.829 446.504C605.758 446.434 593.732 499.573 592.03 507.478C591.511 509.886 591.06 511.029 591.027 510.015C591.022 509.856 593.901 495.17 597.424 477.38C600.948 459.59 603.8 445.003 603.763 444.966C603.725 444.929 599.478 460.279 594.323 479.078C589.169 497.877 584.854 513.268 584.735 513.28C584.399 513.316 584.439 513.106 588.974 490.978C595.603 458.639 596.798 452.71 596.706 452.619C596.66 452.572 593.496 464.706 589.677 479.582C583.655 503.037 582.15 508.464 582.1 506.905C582.091 506.626 585.095 491.718 592.669 454.451C593.678 449.49 594.468 445.397 594.426 445.355C594.384 445.313 593.631 447.719 592.752 450.702C586.784 470.972 577.089 503.735 577.031 503.831C576.465 504.763 577.581 499.208 582.814 475.057C586.217 459.35 588.964 446.462 588.918 446.416C588.872 446.371 584.73 459.552 579.713 475.709C574.696 491.866 570.559 505.137 570.519 505.201C569.95 506.11 571.092 500.754 576.452 477.366C579.934 462.172 582.748 449.704 582.704 449.661C582.619 449.576 565.109 502.632 564.915 503.564C564.799 504.12 564.362 504.357 564.347 503.872C564.342 503.728 567.095 492.047 570.464 477.914C573.833 463.781 576.547 452.175 576.495 452.123C576.415 452.043 561.002 498.657 559.839 502.498C559.437 503.827 558.906 504.332 559.091 503.209C559.147 502.871 562.022 491.357 565.479 477.622C568.937 463.888 571.734 452.618 571.695 452.579C571.632 452.516 560.033 487.512 556.337 498.917C554.754 503.802 554.823 503.628 554.57 503.375C554.47 503.275 554.825 501.681 555.359 499.833C558.875 487.657 569.425 450.312 569.365 450.252C569.298 450.185 551.502 500.178 550.869 502.21C550.554 503.222 550.081 503.449 550.248 502.508C550.308 502.17 553.843 489.838 558.103 475.104C562.362 460.37 565.807 448.274 565.757 448.225C565.678 448.146 549.132 494.052 548.408 496.359C548.141 497.213 547.749 497.557 547.73 496.956C547.725 496.792 549.742 489.159 552.213 479.993C560.628 448.776 563.479 438.075 563.4 437.996C563.33 437.926 549.074 476.631 547.522 481.105C546.918 482.845 546.361 483.544 546.567 482.303C546.623 481.964 549.009 472.62 551.87 461.538C554.731 450.456 557.026 441.343 556.97 441.287C556.914 441.231 556.493 442.394 556.036 443.871C547.561 471.269 545.357 478.217 545.109 478.317C544.903 478.401 544.865 478.241 544.985 477.787C545.395 476.229 554.93 431.376 554.865 431.311C554.793 431.239 542.311 473.525 541.593 476.274C541.385 477.067 541.124 477.72 541.012 477.724C540.69 477.738 540.748 477.195 541.329 474.712C542.938 467.842 552.489 425.001 552.425 424.937C552.384 424.896 548.591 436.503 543.997 450.731C539.402 464.959 535.536 476.605 535.406 476.611C535.275 476.617 535.224 476.344 535.291 476.005C535.825 473.321 541.363 440.139 541.29 440.066C541.238 440.014 540.773 441.609 540.256 443.611C536.639 457.625 532.334 473.354 532.088 473.454C531.902 473.53 531.841 473.385 531.92 473.061C532.103 472.315 536.771 438.25 536.739 437.89C536.712 437.581 534.06 448.333 530.533 463.055C529.455 467.552 528.47 471.222 528.344 471.211C528.217 471.2 528.134 471.045 528.159 470.867C529.053 464.484 532.669 436.707 532.613 436.651C532.568 436.607 530.164 443.542 527.27 452.063C524.376 460.583 521.967 467.607 521.917 467.671C521.488 468.218 521.926 465.59 524.47 452.363C526.073 444.026 527.35 437.171 527.308 437.128C527.265 437.086 525.152 442.968 522.613 450.2C520.073 457.433 517.844 463.412 517.659 463.487C517.424 463.582 517.37 463.475 517.48 463.133C517.686 462.486 522.884 429.298 522.793 429.207C522.754 429.169 520.656 435.439 518.13 443.143C515.605 450.846 513.424 457.134 513.285 457.116C513.146 457.098 513.061 456.976 513.097 456.845C513.362 455.878 518.523 428.093 518.451 428.022C518.401 427.971 516.684 433.349 514.636 439.973C512.588 446.597 510.817 452.137 510.701 452.283C510.288 452.808 510.488 451.47 513.021 436.816C514.428 428.67 515.538 421.963 515.487 421.911C515.41 421.835 508.7 445.734 508.201 447.858C508.012 448.662 507.497 448.685 507.626 447.883C507.681 447.544 509.03 439.467 510.625 429.934C512.219 420.401 513.486 412.564 513.439 412.517C513.392 412.47 511.378 419.262 508.962 427.61C506.546 435.958 504.474 442.909 504.356 443.056C503.952 443.559 504.109 442.348 506.609 425.63C507.983 416.439 509.162 408.55 509.229 408.099C509.558 405.877 509.344 406.666 501.269 437.433C500.905 438.823 500.297 439.315 500.561 438.007C500.96 436.027 507.221 399.221 507.168 399.168C507.135 399.135 504.475 406.765 501.257 416.124C495.651 432.428 495.149 433.807 494.904 433.551C494.845 433.489 496.435 424.998 498.439 414.682C500.442 404.365 502.053 395.897 502.019 395.863C501.985 395.829 499.567 402.436 496.647 410.544C493.727 418.653 491.266 425.203 491.179 425.1C491.091 424.997 491.762 418.832 492.669 411.4C493.577 403.968 494.286 397.853 494.245 397.812C494.173 397.741 490.288 408.809 488.818 413.272C487.961 415.876 487.965 416.284 488.865 418.479C489.798 420.749 489.671 420.98 488.189 419.717L486.958 418.668L485.768 420.166C484.323 421.986 484.156 421.897 484.722 419.607C484.963 418.633 485.157 417.7 485.152 417.533C485.146 417.286 471.854 406.097 470.039 404.809L469.534 404.451L469.769 404.842C469.981 405.194 476.693 414.685 512.49 465.253C518.439 473.657 523.365 480.682 523.438 480.866C523.771 481.71 522.979 481.029 521.18 478.926C514.563 471.19 473.551 423.9 472.902 423.258L472.114 422.478L472.907 423.53C473.343 424.108 481.923 435.587 491.975 449.039C502.026 462.491 513.435 477.74 517.326 482.926C521.218 488.111 524.367 492.482 524.324 492.639C524.252 492.901 516.379 483.929 476.637 438.302C468.741 429.237 462.04 421.586 461.745 421.3L461.209 420.78L461.701 421.574C461.972 422.01 476.676 444.006 494.378 470.455C512.079 496.903 526.48 518.638 526.38 518.754C526.28 518.87 525.981 518.669 525.716 518.307C525.451 517.946 519.105 510.035 511.614 500.728C504.123 491.421 492.222 476.634 485.168 467.869C478.113 459.103 472.291 451.933 472.229 451.936C472.074 451.942 475.043 456.454 512.073 512.482C518.392 522.042 523.566 529.974 523.57 530.107C523.584 530.539 523.284 530.377 522.709 529.643C522.398 529.248 516.011 521.492 508.515 512.407C501.018 503.323 490.757 490.876 485.712 484.749C480.667 478.621 476.421 473.49 476.277 473.347C475.795 472.869 476.405 473.809 479.276 477.969C480.827 480.216 491.897 496.353 503.876 513.828C515.855 531.303 526.719 547.123 528.017 548.984C529.315 550.845 530.311 552.444 530.23 552.537C530.027 552.773 531.065 553.989 513.178 532.567C504.274 521.903 496.804 513.002 496.578 512.788L496.168 512.398L496.449 512.793C496.944 513.488 529.277 557.76 532.52 562.183C535.455 566.186 535.798 566.724 535.45 566.778C535.372 566.79 531.182 562.42 526.139 557.068C506.958 536.713 500.831 530.253 500.707 530.259C500.637 530.262 500.989 530.827 501.489 531.514C501.99 532.202 508.62 541.719 516.222 552.664C523.825 563.609 530.406 573.068 530.845 573.683C531.876 575.124 531.54 575.552 530.447 574.192C528.739 572.066 491.152 528.068 490.511 527.444C490.144 527.087 490.855 528.277 492.092 530.091C509.651 555.834 524.769 577.947 526.215 580.004C527.211 581.422 528.028 582.639 528.03 582.708C528.043 583.103 527.404 582.746 526.794 582.017C522.87 577.334 486.056 535.664 486.876 536.835C488.56 539.239 507.561 566.149 514.377 575.784C519.229 582.644 523.134 588.333 523.054 588.425C522.859 588.652 524.139 590.098 504.59 567.563C495.039 556.553 487.106 547.429 486.961 547.286C486.404 546.735 488.257 549.607 503.326 572.641C511.875 585.711 518.753 596.453 518.609 596.513C518.465 596.573 518.192 596.401 518.003 596.132C517.474 595.38 489.024 561.391 488.428 560.799C488.14 560.513 489.098 562.068 490.558 564.255C510.591 594.282 517.389 604.591 517.321 604.84C517.276 605.005 516.719 604.434 516.084 603.573C511.413 597.236 483.786 560.374 483.476 560.064C483.26 559.85 483.934 561.287 484.972 563.258C486.01 565.229 491.725 576.161 497.672 587.551C503.618 598.941 509.676 610.517 511.134 613.275C513.738 618.2 513.99 618.758 513.611 618.753C513.507 618.752 508.163 610.503 501.736 600.422C495.309 590.341 490.027 582.12 489.997 582.153C489.968 582.187 494.904 593.334 500.967 606.925C507.03 620.516 511.926 631.712 511.846 631.804C511.654 632.027 512.398 633.271 504.365 619.302C500.426 612.454 497.103 606.739 496.979 606.602C496.783 606.385 501.375 619.583 503.285 624.728C504.426 627.8 504.083 627.968 502.536 625.095C501.951 624.009 501.44 623.158 501.4 623.205C501.346 623.267 505.565 633.33 506.695 635.833C507.081 636.689 506.042 636.023 504.996 634.745C504.355 633.962 503.8 633.358 503.761 633.402C503.723 633.446 504.245 634.899 504.921 636.631C505.597 638.362 506.154 639.889 506.158 640.024C506.179 640.664 505.689 640.108 504.623 638.282C503.982 637.184 503.41 636.341 503.351 636.409C503.293 636.477 504.048 640.225 505.029 644.738C527.409 747.664 539.469 835.187 544.535 931.46C545.277 945.56 546.885 1000.19 546.672 1004.07L546.571 1005.91L504.039 1007.76L461.506 1009.61L461.486 1009ZM613.275 451.174C613.188 450.961 613.13 451.028 613.128 451.345C613.126 451.631 613.191 451.789 613.272 451.695C613.353 451.601 613.354 451.367 613.275 451.174ZM369.657 442.01L370.148 440.495L369.311 441.482L368.474 442.469L368.387 444.102L368.301 445.735L368.734 444.63C368.972 444.022 369.388 442.843 369.657 442.01ZM195.628 441.481C195.354 440.799 193.367 435.763 191.211 430.29C189.056 424.817 187.264 420.373 187.229 420.416C187.168 420.49 192.836 444.307 193.087 445.033C193.17 445.272 193.679 444.956 194.667 444.053L196.125 442.721L195.628 441.481ZM355.815 428.576L353.138 425.893L352.595 427.153L352.052 428.413L352.525 429.033C352.785 429.375 354.234 431.063 355.746 432.786L358.495 435.919L358.494 433.589L358.493 431.259L355.815 428.576ZM196.942 427.819C194.506 423.004 192.475 419.106 192.431 419.158C192.358 419.243 194.772 426.908 197.743 436.026L198.869 439.48L200.121 438.027L201.372 436.575L196.942 427.819ZM207.087 429.737C207.077 429.418 196.596 412.075 196.489 412.2C196.44 412.257 198.048 417.148 200.064 423.068L203.729 433.833L205.411 431.896C206.337 430.83 207.091 429.859 207.087 429.737ZM488.03 404.641C489.121 400.293 489.978 396.701 489.935 396.659C489.893 396.616 488.571 399.751 486.998 403.626L484.138 410.671L485.008 411.706C485.487 412.276 485.916 412.698 485.963 412.644C486.009 412.59 486.94 408.989 488.03 404.641ZM216.088 418.079L216.719 416.762L215.621 414.23C215.017 412.838 214.485 411.658 214.44 411.608C214.394 411.557 214.199 412.17 214.006 412.969L213.656 414.422L214.402 416.916C214.812 418.288 215.218 419.407 215.303 419.403C215.388 419.4 215.741 418.804 216.088 418.079ZM479.288 400.959C478.924 399.047 478.549 397.393 478.455 397.281C478.315 397.118 476.513 397.67 474.496 398.493C474.288 398.578 475.211 399.749 476.97 401.632C478.513 403.283 479.815 404.589 479.862 404.534C479.91 404.479 479.651 402.87 479.288 400.959ZM220.385 412.038C220.385 411.917 219.97 411.276 219.463 410.614L218.542 409.409L218.577 410.495C218.596 411.092 218.705 412.161 218.818 412.871L219.025 414.162L219.705 413.21C220.079 412.686 220.385 412.159 220.385 412.038ZM226.57 408.043C226.565 407.889 226.214 406.469 225.791 404.886L225.021 402.009L224.414 405.022C224.081 406.68 223.808 408.127 223.808 408.239C223.807 408.351 224.431 408.416 225.193 408.383C225.976 408.349 226.575 408.201 226.57 408.043ZM234.895 401.82C234.917 401.228 234.834 400.478 234.71 400.154L234.485 399.564L233.467 401.08C232.233 402.916 232.235 402.86 233.405 402.937C234.801 403.03 234.851 402.993 234.895 401.82ZM485.677 390.085C485.573 389.699 485.412 389.033 485.318 388.607C485.225 388.18 485.064 387.835 484.962 387.839C484.755 387.848 482.524 390.552 482.531 390.785C482.534 390.866 483.285 390.899 484.2 390.86L485.865 390.787L485.677 390.085ZM631.162 317.908C631.23 310.914 631.182 309.086 630.927 308.942C630.751 308.842 630.209 308.465 629.722 308.105C629.235 307.744 628.815 307.479 628.789 307.516C628.704 307.636 630.905 326.893 630.992 326.792C631.039 326.738 631.115 322.74 631.162 317.908ZM623.255 314.475C623.943 310.093 624.226 307.647 624.045 307.66C623.89 307.671 622.863 307.941 621.764 308.259L619.764 308.837L619.817 309.354C619.957 310.717 621.938 321.321 622.053 321.316C622.124 321.312 622.666 318.234 623.255 314.475ZM600.449 306.953C601.218 305.149 601.811 303.647 601.767 303.615C601.122 303.154 597.197 301.27 597.193 301.42C597.16 302.75 597.54 310.344 597.688 311.327L597.885 312.624L598.468 311.429C598.789 310.771 599.681 308.757 600.449 306.953ZM610.344 310.76C610.672 309.196 611.196 306.182 611.146 306.147C611.121 306.131 610.242 306.272 609.191 306.462L607.281 306.807L606.934 308.839C606.412 311.898 606.283 311.738 609.318 311.777L610.129 311.788L610.344 310.76ZM549.491 298.498C550.465 297.789 550.509 297.637 550.695 294.349L550.791 292.648L550.045 292.68L549.299 292.713L547.514 296.726C546.532 298.934 545.731 300.811 545.733 300.897C545.738 301.052 547.725 299.784 549.491 298.498ZM554.934 296.788C556.703 295.977 556.92 295.746 556.876 294.725C556.843 293.956 555.207 291.548 554.976 291.929C554.877 292.092 553.47 297.419 553.526 297.416C553.549 297.415 554.182 297.132 554.934 296.788ZM355.942 303.1C355.828 301.798 355.701 300.694 355.661 300.647C355.62 300.599 354.967 301.516 354.21 302.685C353.453 303.855 352.88 304.851 352.936 304.899C353.109 305.051 355.042 305.458 355.61 305.463L356.149 305.467L355.942 303.1ZM334.161 300.664L334.216 298.566L333.091 299.665C332.473 300.269 331.709 301.084 331.395 301.475L330.823 302.187L332.324 302.928L333.825 303.668L333.966 303.215C334.043 302.965 334.13 301.817 334.161 300.664ZM326.29 298.825C326.458 297.436 326.573 296.274 326.546 296.242C326.518 296.21 325.688 297.127 324.701 298.28L322.906 300.377L324.041 300.862C325.931 301.669 325.947 301.654 326.29 298.825ZM316.554 296.426C317.868 293.733 318.912 291.501 318.874 291.466C318.835 291.431 317.178 293.442 315.191 295.936L311.58 300.469L312.576 300.901C313.124 301.139 313.705 301.33 313.868 301.327C314.03 301.324 315.239 299.118 316.554 296.426ZM302.457 300.785L304.205 300.231L307.321 294.594C309.035 291.494 310.63 288.56 310.865 288.074L311.293 287.19L310.571 288.036C310.174 288.502 308.01 291.162 305.762 293.948C303.514 296.734 301.177 299.624 300.568 300.37L299.46 301.726L300.085 301.533C300.428 301.426 301.496 301.09 302.457 300.785ZM294.651 297.487L296.088 294.098L293.884 296.774C292.672 298.245 291.46 299.795 291.19 300.217L290.7 300.985L291.957 300.931L293.213 300.876L294.651 297.487ZM288.591 293.243C288.442 293.094 282.885 298.709 282.875 299.018C282.87 299.167 283.409 299.662 284.073 300.116L285.279 300.942L286.984 297.141C287.921 295.05 288.644 293.296 288.591 293.243ZM267.553 299.579C269.314 299.23 270.808 298.884 270.873 298.808C271.098 298.547 276.581 284.4 276.492 284.311C276.443 284.262 273.953 287.354 270.959 291.183C264.151 299.889 263.875 300.255 264.138 300.231C264.256 300.22 265.793 299.927 267.553 299.579ZM278.358 293.716C280.28 289.145 280.24 289.148 277.155 293.817L274.951 297.153L275.666 297.458C276.059 297.626 276.439 297.77 276.511 297.779C276.583 297.788 277.414 295.96 278.358 293.716ZM264.461 291.884C265.458 290.138 266.731 286.638 266.466 286.374C266.14 286.048 261.997 294.511 262.062 295.37C262.087 295.705 263.22 294.06 264.461 291.884ZM489.53 280.15L490.348 279.635L487.583 277.755C486.062 276.721 484.919 276.044 485.043 276.251C485.596 277.173 488.375 280.701 488.535 280.683C488.632 280.673 489.08 280.433 489.53 280.15ZM499.281 276.9C499.217 276.866 497.135 274.849 494.654 272.418C492.174 269.987 490.284 268.27 490.454 268.602C490.735 269.147 492.524 272.02 494.895 275.734L495.781 277.121L497.589 277.042C498.584 276.999 499.345 276.935 499.281 276.9ZM507.037 275.612C506.819 275.36 504.891 272.909 502.752 270.164C498.136 264.24 498.067 264.165 499.279 266.378C499.798 267.326 501.213 269.923 502.423 272.147L504.622 276.193L506.028 276.131L507.434 276.07L507.037 275.612ZM514.683 274.261C515.453 273.63 516.082 273.026 516.08 272.919C516.077 272.73 504.365 260.454 504.195 260.462C504.093 260.466 512.322 274.773 512.695 275.239C513.021 275.646 512.951 275.68 514.683 274.261ZM526.515 270.79C526.568 270.736 515.734 260.959 514.857 260.269L514.039 259.626L515.084 261.081C515.658 261.881 517.554 264.516 519.296 266.936L522.464 271.336L524.473 271.079C525.579 270.937 526.497 270.807 526.515 270.79ZM350.726 268.57C350.692 268.12 349.912 264.97 349.809 264.867C349.749 264.807 349.167 265.384 348.518 266.149L347.336 267.541L347.954 267.766C348.294 267.89 348.975 268.161 349.467 268.368C350.514 268.809 350.747 268.846 350.726 268.57ZM324.206 255.362C326.482 252.787 327.956 250.996 327.483 251.382C327.01 251.769 324.706 253.735 322.364 255.752L318.104 259.419L318.708 259.747C319.76 260.318 319.984 260.14 324.206 255.362ZM340.814 250.203C340.807 249.994 339.245 248.818 339.156 248.955C339.123 249.007 338.034 250.806 336.738 252.954C335.441 255.101 334.102 257.298 333.762 257.835C333.422 258.373 334.871 256.915 336.982 254.595C339.092 252.276 340.817 250.299 340.814 250.203ZM318.701 248.987C318.87 248.656 318.841 248.634 318.56 248.877C318.091 249.284 314.35 252.737 314.058 253.033C313.922 253.171 314.074 253.525 314.432 253.906L315.034 254.546L316.761 251.975C317.711 250.561 318.584 249.216 318.701 248.987ZM307.834 244.267C311.38 240.219 313.949 237.137 313.542 237.42C313.134 237.702 309.453 240.542 305.361 243.729L297.921 249.525L299.401 250.569C300.215 251.143 300.994 251.616 301.133 251.621C301.272 251.625 304.287 248.316 307.834 244.267ZM299.671 240.274C303.775 236.938 307.297 234.028 307.498 233.808C307.83 233.445 297.244 239.483 290.557 243.471L287.861 245.079L289.62 245.694C290.587 246.033 291.565 246.316 291.794 246.324C292.022 246.332 295.567 243.61 299.671 240.274ZM286.694 235.831C289.714 231.53 292.294 227.761 292.429 227.457C292.564 227.152 289.61 230.519 285.866 234.939C282.121 239.358 279.055 243.048 279.053 243.139C279.048 243.341 280.609 243.821 280.954 243.723C281.092 243.684 283.675 240.133 286.694 235.831ZM278.296 237.373C284.53 229.89 287.01 226.848 286.361 227.48C286.025 227.808 282.855 230.985 279.317 234.541L272.884 241.006L273.612 241.48C274.012 241.741 274.371 241.953 274.41 241.953C274.449 241.952 276.198 239.891 278.296 237.373ZM473.915 232.191C473.91 232.062 469.842 229.929 469.18 229.708C469.035 229.66 469.728 230.449 470.722 231.461L472.528 233.302L473.224 232.819C473.608 232.553 473.919 232.271 473.915 232.191ZM274.184 232.664C277.433 228.751 280.588 224.926 281.196 224.163L282.3 222.776L280.582 224.461C274.362 230.563 266.045 238.926 266.05 239.075C266.055 239.248 267.424 239.731 267.994 239.762C268.15 239.771 270.935 236.577 274.184 232.664ZM295.748 232.513C296.47 231.587 297.009 230.778 296.946 230.715C296.77 230.539 293.424 233.818 291.919 235.641L290.584 237.258L292.509 235.728C293.568 234.886 295.025 233.439 295.748 232.513ZM267.816 231.224C273.556 225.073 276.443 221.858 275.244 222.951C274.974 223.197 271.444 226.388 267.4 230.042C263.355 233.696 259.889 236.854 259.697 237.059L259.349 237.432L259.969 237.669C261.274 238.167 261.548 237.941 267.816 231.224ZM460.812 229.004C460.677 228.89 459.593 227.938 458.403 226.888C456.699 225.383 456.195 225.063 456.026 225.377C455.607 226.149 455.847 226.416 458.201 227.796C460.33 229.044 461.507 229.588 460.812 229.004ZM258.94 231.576C267.987 221.975 270.798 218.98 271.192 218.524L271.557 218.102L271.049 218.504C268.744 220.327 250.386 237.172 250.54 237.322C250.65 237.428 251.138 237.548 251.625 237.589C252.112 237.629 252.655 237.675 252.831 237.691C253.007 237.708 255.756 234.956 258.94 231.576ZM483.785 225.996C484.193 225.351 484.523 224.728 484.519 224.61C484.515 224.493 481.693 222.294 478.246 219.723C474.142 216.661 472.296 215.414 472.896 216.107C474.003 217.384 482.945 227.172 483.003 227.17C483.026 227.169 483.378 226.64 483.785 225.996ZM257.384 225.092C263.644 218.797 268.764 213.593 268.762 213.529C268.759 213.415 251.444 226.938 243.909 232.939L240.097 235.976L242.63 236.314C244.024 236.499 245.352 236.626 245.583 236.595C245.814 236.564 251.124 231.388 257.384 225.092ZM471.949 226.176C471.739 225.971 469.476 224.295 466.92 222.453L462.273 219.103L462.229 220.257C462.206 220.891 462.28 221.445 462.395 221.488C462.51 221.53 464.739 222.675 467.349 224.031C472.557 226.738 472.494 226.708 471.949 226.176ZM580.682 221.236C580.595 221.023 580.537 221.09 580.535 221.407C580.533 221.693 580.598 221.851 580.679 221.757C580.759 221.663 580.761 221.429 580.682 221.236ZM491.7 220.722C487.426 216.796 480.771 210.744 480.28 210.337L479.634 209.802L480.057 210.326C480.289 210.615 482.332 213.184 484.597 216.035L488.714 221.218L490.397 221.145L492.081 221.072L491.7 220.722ZM498.8 213.728C500.234 213.041 501.485 212.392 501.578 212.288C501.672 212.183 497.759 210.377 492.884 208.274C482.618 203.847 482.443 203.773 482.63 203.96C484 205.328 495.764 215.156 495.942 215.082C496.079 215.025 497.365 214.416 498.8 213.728ZM508.612 206.011L510.204 205.452L503.84 202.703C494.943 198.86 494.38 198.626 494.623 198.873C495.177 199.437 506.308 206.562 506.641 206.566C506.849 206.568 507.736 206.319 508.612 206.011ZM518.311 203.452C519.042 203.169 519.638 202.859 519.635 202.764C519.632 202.668 516.147 201.051 511.89 199.168C507.633 197.286 503.92 195.638 503.638 195.505C503.357 195.372 503.197 195.341 503.284 195.435C503.712 195.9 516.316 203.953 516.625 203.959C516.821 203.963 517.579 203.735 518.311 203.452ZM334.675 207.486L335.94 206.824L330.516 205.585C327.533 204.903 324.865 204.307 324.586 204.26C324.307 204.214 325.925 205.142 328.183 206.323C332.604 208.636 332.51 208.619 334.675 207.486ZM527.286 196.679C528.635 195.959 528.94 195.699 528.577 195.578C527.883 195.346 521.405 194.712 521.274 194.863C521.162 194.994 524.987 197.579 525.332 197.606C525.435 197.614 526.314 197.197 527.286 196.679ZM514.446 190.383C514.44 190.184 508.078 187.898 505.086 187.019C501.687 186.021 494.469 184.509 493.877 184.671C493.306 184.827 500.709 187.556 504.169 188.465C508.69 189.652 514.457 190.729 514.446 190.383ZM584.534 89.2557C584.448 89.1692 584.23 89.1691 584.051 89.2553C583.853 89.3506 583.914 89.4123 584.208 89.4125C584.474 89.4127 584.621 89.3422 584.534 89.2557ZM584.178 70.263C584.091 70.1765 583.874 70.1764 583.694 70.2626C583.496 70.3579 583.558 70.4196 583.852 70.4198C584.118 70.42 584.264 70.3495 584.178 70.263Z" fill="#45B3BF"/>
</svg>
