<svg width="727" height="791" viewBox="0 0 727 791" fill="none" xmlns="http://www.w3.org/2000/svg">
<path d="M300 785.403C300 785.992 300.399 781.589 300.399 781.589C301.759 770.617 302.234 773.894 303.663 758.354C300.411 664.256 308.34 742.989 300.411 664.256C298.935 649.597 297.628 638.144 297.433 638.144C297.347 638.144 296.998 640.012 296.657 642.296C296.316 644.579 295.942 646.505 295.827 646.577C295.711 646.648 295.617 640.572 295.617 633.075C295.617 625.578 295.568 619.493 295.508 619.553C295.448 619.613 294.734 623.21 293.922 627.546C293.11 631.882 292.363 635.521 292.263 635.633C291.982 635.948 291.739 622.512 291.739 606.706C291.739 598.845 291.647 592.357 291.535 592.288C291.423 592.219 290.253 600.381 288.936 610.426C286.651 627.86 286.468 629.082 286.19 628.804C286.092 628.706 286.517 597.745 286.898 577.199C286.949 574.464 286.954 572.263 286.909 572.308C286.852 572.365 281.486 619.605 281.403 620.773C281.4 620.817 281.281 620.781 281.139 620.693C280.978 620.594 280.934 619.58 281.023 618.028C281.221 614.568 282.705 566.976 282.618 566.889C282.579 566.85 280.829 577.951 278.728 591.558C274.383 619.709 274.714 617.72 274.381 617.72C274.224 617.72 274.188 617.051 274.285 615.975C274.5 613.59 277.494 564.031 277.646 560.325C277.737 558.112 277.704 557.583 277.515 558.257C277.267 559.141 267.463 600.629 266.317 605.646C265.998 607.04 265.628 608.145 265.493 608.102C265.358 608.06 265.274 607.851 265.307 607.637C265.339 607.424 266.475 597.884 267.831 586.437C269.187 574.991 270.817 561.289 271.452 555.989C272.642 546.06 272.681 545.687 272.5 545.869C272.441 545.928 269.29 556.796 265.498 570.02C261.706 583.245 258.555 594.113 258.496 594.172C258.052 594.616 258.35 592.736 260.178 583.557C263.994 564.394 267.677 545.485 267.608 545.415C267.57 545.377 264.825 554.795 261.509 566.344C256.08 585.249 255.02 588.703 255.03 587.459C255.032 587.252 257.288 575.508 260.045 561.359C262.801 547.211 265.029 535.606 264.996 535.57C264.951 535.521 248.93 578.891 248.427 580.426C248.231 581.025 247.72 580.778 247.891 580.168C248.515 577.95 261.235 526.893 261.176 526.841C261.105 526.777 240.065 572.515 238.739 575.613C238.137 577.022 237.705 577.53 237.705 576.831C237.705 576.667 241.777 562.317 246.754 544.943C251.731 527.568 255.798 513.248 255.794 513.119C255.789 512.99 255.395 513.815 254.92 514.953C252.757 520.126 233.624 566.451 233.484 566.853C233.397 567.102 233.193 567.306 233.03 567.306C232.664 567.306 231.548 570.748 241.568 540.963C246.275 526.971 250.086 515.484 250.037 515.435C249.951 515.349 230.507 562.439 229.927 564.139C229.675 564.876 229.164 565.317 229.179 564.785C229.182 564.678 232.959 553.196 237.574 539.269C242.188 525.342 245.935 513.918 245.899 513.882C245.833 513.816 240.228 527.481 231.301 549.467C226.246 561.916 226.414 561.53 226.174 561.29C226.089 561.205 226.621 559.411 227.356 557.305C228.979 552.659 241.482 516.456 241.715 515.728C241.843 515.33 241.823 515.301 241.629 515.599C241.397 515.957 226.411 552.74 225.013 556.383C224.447 557.858 224.003 558.441 224.003 557.709C224.003 557.549 225.162 554.088 226.579 550.017C233.164 531.093 242.076 505.147 242.013 505.084C241.948 505.019 236.559 516.999 224.08 544.943C221.477 550.773 219.213 555.587 219.048 555.642C218.882 555.698 218.81 555.583 218.886 555.384C218.961 555.187 223.698 540.832 229.412 523.484C235.127 506.137 241.48 486.89 243.532 480.714C245.583 474.537 247.229 469.452 247.191 469.413C247.126 469.349 221.06 531.408 220.325 533.373C220.028 534.169 219.608 534.511 219.608 533.958C219.608 533.817 222.565 523.725 226.179 511.53C241.983 458.206 244.971 448.062 244.895 447.986C244.825 447.916 219.037 514.265 215.026 524.835C213.637 528.495 212.924 529.762 213.203 528.073C213.268 527.682 216.49 514.216 220.364 498.148C235.508 435.326 240.278 415.447 240.221 415.391C240.163 415.334 234.978 427.815 217.762 469.451C208.603 491.6 209.333 489.898 209.095 489.66C209 489.565 209.478 487.655 210.156 485.416C217.136 462.374 230.189 418.803 230.13 418.743C230.057 418.67 225.192 431.227 211.438 466.994C207.911 476.166 204.991 483.718 204.948 483.778C204.297 484.689 206.082 478.218 214.541 449.001C220.043 429.999 224.505 414.411 224.457 414.362C224.373 414.278 199.434 472.434 197.978 476.108C197.598 477.068 197.19 477.853 197.072 477.853C196.73 477.853 196.807 477.506 197.654 475.221C198.493 472.958 211.679 436.473 211.98 435.583C212.076 435.298 210.925 436.926 209.422 439.201C207.091 442.727 205.67 444.502 206.235 443.18C207.332 440.613 211.336 430.436 211.34 430.204C211.348 429.724 208.655 423.561 208.438 423.561C208.332 423.561 206.875 424.742 205.201 426.186C203.527 427.631 201.952 428.987 201.703 429.201C200.722 430.041 201.022 429.126 202.953 425.379L204.966 421.476L204.595 421.124C204.313 420.856 192.398 410.756 189.509 408.336L189.012 407.919L189.236 408.307C189.359 408.521 192.002 412.634 195.109 417.449C198.216 422.264 200.722 426.312 200.678 426.445C200.634 426.578 197.254 423.713 193.169 420.077C189.083 416.442 185.74 413.524 185.74 413.592C185.74 413.695 197.576 430.213 199.689 433.059C200.903 434.694 199.912 434.232 197.818 432.186C196.65 431.044 191.621 426.231 186.645 421.491C181.668 416.75 176.504 411.816 175.17 410.525C173.835 409.234 172.838 408.352 172.954 408.566C173.104 408.841 192.293 436.578 195.943 441.794C196.533 442.637 195.778 442.4 194.998 441.497C193.854 440.173 163.23 408.307 163.102 408.307C163.047 408.307 163.794 409.442 164.762 410.828C165.73 412.214 171.968 421.202 178.623 430.8C185.278 440.398 191.056 448.675 191.463 449.193C192.181 450.107 192.405 450.722 192.009 450.692C191.903 450.684 191.387 450.115 190.864 449.427C190.065 448.378 157.747 411.02 156.968 410.246C156.46 409.741 157.271 410.94 171.476 431.705C179.355 443.222 185.864 452.807 185.941 453.004C186.249 453.796 185.448 453.042 183.499 450.707C172.482 437.504 151.994 413.035 151.784 412.832C151.35 412.409 154.847 417.738 176.81 450.965C183.227 460.673 183.72 461.463 183.235 461.277C183.092 461.222 178.216 455.535 172.398 448.639C155.104 428.137 152.097 424.595 151.994 424.595C151.914 424.595 179.317 463.497 181.175 466.022C182.153 467.351 181.331 467.1 180.109 465.695C177.975 463.245 137.329 417.238 137.059 416.968C136.594 416.503 137.021 417.158 155.186 444.76C165.058 459.762 173.197 472.197 173.274 472.394C173.626 473.302 172.248 471.855 163.085 461.689C144.651 441.237 139.401 435.453 139.271 435.453C139.199 435.453 139.256 435.599 139.397 435.776C139.538 435.954 146.137 445.116 154.061 456.136C161.985 467.156 168.806 476.602 169.219 477.127C170.029 478.157 170.113 478.37 169.707 478.37C169.563 478.37 163.251 472.237 155.682 464.741C135.028 444.289 126.382 435.784 126.829 436.358C137.993 450.709 165.32 486.466 165.208 486.578C165.122 486.664 163.919 485.633 162.534 484.287C160.219 482.038 139.639 462.123 131.45 454.208C129.531 452.353 128.263 451.185 128.632 451.612C130.834 454.158 157.429 484.277 160.065 487.21C161.815 489.157 163.247 490.815 163.247 490.894C163.247 491.245 162.508 490.989 162.059 490.483C161.453 489.798 149.265 478.297 129.638 459.887C121.462 452.218 111.929 443.263 108.455 439.987C104.981 436.711 102.247 434.221 102.38 434.452C102.512 434.683 112.743 448.332 125.113 464.784C137.484 481.235 147.65 494.817 147.703 494.967C147.969 495.714 146.86 494.621 142.666 490.004C126.783 472.515 107.078 450.965 106.971 450.965C106.901 450.965 107.184 451.402 107.6 451.935C108.017 452.468 113.633 459.885 120.081 468.416C126.528 476.948 134.492 487.477 137.778 491.814C144.593 500.808 144.267 500.345 143.78 500.345C143.579 500.345 133.248 489.264 120.822 475.72C108.396 462.176 97.7765 450.629 97.2232 450.061L96.2172 449.026L96.859 449.931C99.8141 454.098 138.419 507.677 139.005 508.424C139.422 508.958 139.719 509.528 139.665 509.691C139.578 509.952 127.145 495.909 97.7447 462.345C87.5332 450.687 87.64 450.796 90.3934 454.843C105.589 477.179 118.19 495.695 123.208 503.06C129.047 511.629 129.651 512.577 129.185 512.439C129.079 512.407 120.162 501.791 109.371 488.848C89.0774 464.506 88.8908 464.285 89.6976 465.573C90.5699 466.965 121.561 514.234 123.182 516.644C124.049 517.934 124.715 519.121 124.662 519.281C124.608 519.441 115.745 508.993 104.965 496.063C88.1095 475.845 83.0337 469.844 84.3129 471.648C84.5474 471.979 105.453 504.359 113.607 517.021C115.072 519.296 116.447 521.362 116.662 521.611C117.21 522.249 116.802 522.532 116.218 521.919C115.955 521.642 107.45 511.004 97.3178 498.277C87.1859 485.551 78.6614 474.906 78.3745 474.621L77.8529 474.104L78.3828 475.009C78.6742 475.507 84.5825 485.919 91.5124 498.148C98.4422 510.377 105.26 522.385 106.663 524.833C108.066 527.281 109.214 529.404 109.214 529.551C109.214 530.183 108.693 529.596 106.515 526.505C102.797 521.231 78.4239 487.573 78.1164 487.289C77.9622 487.147 78.0339 487.35 78.2756 487.739C78.5173 488.129 82.6498 494.935 87.459 502.864C92.2681 510.792 98.1857 520.537 100.609 524.518C103.033 528.5 104.904 531.799 104.767 531.85C104.631 531.901 104.354 531.707 104.151 531.418C103.098 529.914 73.9327 491.626 73.5894 491.297L73.1855 490.909L73.6175 491.608C73.8551 491.993 79.4059 500.705 85.9527 510.968C92.4995 521.231 97.7833 529.7 97.6946 529.788C97.6059 529.876 97.0492 529.371 96.4576 528.667C91.6353 522.924 63.2982 489.532 62.9903 489.228C62.4337 488.681 62.6084 488.986 78.4251 516.244C86.2631 529.751 92.5505 540.845 92.397 540.896C92.0592 541.009 94.5559 544.147 76.9006 521.416C62.957 503.463 61.0596 501.051 61.4495 501.767C61.5268 501.91 67.1323 511.961 73.906 524.104C80.6797 536.247 86.1806 546.306 86.1302 546.457C86.0798 546.608 85.3173 545.747 84.4357 544.544C68.3072 522.535 56.5874 506.629 56.5322 506.675C56.4939 506.707 57.3212 508.291 58.3707 510.196C71.1095 533.319 81.3103 552.126 81.2352 552.352C81.1839 552.505 74.8199 543.63 67.0929 532.629C53.5624 513.364 52.2157 511.48 52.791 512.626C53.3707 513.78 73.3805 552.272 73.9927 553.411C74.6224 554.582 74.602 555.514 73.9672 554.581C71.7814 551.369 44.9489 513.353 44.898 513.396C44.8344 513.45 64.6107 554.13 67.8641 560.638C68.6253 562.161 69.1571 563.498 69.0458 563.609C68.9345 563.72 68.7449 563.638 68.6244 563.426C67.808 561.988 32.8246 507.361 32.7612 507.424C32.7264 507.459 34.719 512.25 37.1893 518.071C52.5643 554.301 64.7457 583.164 64.7457 583.363C64.7457 584.039 64.1158 583.154 61.7225 579.118C56.8345 570.875 31.8461 529.685 31.9846 530.099C32.2163 530.792 51.8776 577.233 54.0721 582.271C54.17 582.496 54.1 582.587 53.8843 582.515C53.5669 582.409 49.7836 576.139 29.0121 541.289C24.8481 534.303 21.4113 528.613 21.3747 528.644C21.3381 528.676 27.37 542.477 34.7787 559.315C47.3772 587.946 48.9482 591.634 48.2574 590.962C48.1114 590.819 44.4203 584.537 40.0549 577.001C24.2986 549.8 22.4744 546.669 22.4156 546.727C22.3602 546.781 27.6549 561.764 36.3424 586.137C40.8681 598.833 40.9182 599.396 36.7603 590.832C31.0486 579.069 15.5511 547.522 15.4235 547.399C15.2192 547.202 15.0772 546.729 22.9596 572.524C27.0302 585.845 30.3606 596.81 30.3606 596.89C30.3606 597.723 28.3269 593.431 17.8217 570.433C11.1386 555.802 5.64525 543.854 5.61424 543.883C5.56859 543.925 19.6875 595.291 20.1716 596.843C20.5249 597.977 19.69 597.131 19.0235 595.68C17.5538 592.481 -0.602097 554.737 -1.27872 553.474C-1.65961 552.763 -1.91367 552.414 -1.84328 552.699C-1.40352 554.475 7.30885 602.078 7.21202 602.175C7.14633 602.24 7.03903 602.241 6.9736 602.175C6.87201 602.074 2.5909 589.069 -4.18474 568.281C-5.14542 565.333 -5.9648 562.955 -6.00558 562.996C-6.05972 563.05 -2.06506 602.73 -1.62863 606.474C-1.5955 606.758 -1.67412 607.025 -1.80336 607.067C-1.93262 607.108 -2.81677 604.316 -3.76816 600.862C-7.9462 585.692 -10.5795 576.36 -10.6598 576.44C-10.7318 576.512 -10.5153 583.477 -9.65771 608.671C-9.61659 609.88 -9.68164 610.927 -9.8022 610.998C-10.1824 611.222 -13.7853 601.086 -15.0378 596.269C-16.9509 588.91 -19.8799 570.4 -20.9504 558.903C-23.3655 532.965 -20.0611 511.847 -9.84575 487.936C-2.52414 470.798 3.69617 460.739 18.8521 441.53C22.8826 436.422 33.4471 421.608 33.4707 421.032C33.4891 420.583 25.0567 394.539 25.002 394.876C24.9684 395.082 25.4425 401.185 26.0555 408.436C27.0119 419.752 27.1714 423.378 26.64 421.73C26.5751 421.528 24.6841 415 22.4379 407.222C20.1917 399.445 18.3265 393.109 18.293 393.143C18.2596 393.176 18.8198 400.159 19.538 408.659C20.6829 422.21 20.8334 424.793 20.45 424.315C20.4025 424.256 18.695 418.188 16.6555 410.831C14.616 403.474 12.9212 397.482 12.8894 397.516C12.8576 397.55 13.6147 404.617 14.5718 413.219C15.5289 421.822 16.2192 428.967 16.1058 429.098C15.9866 429.235 15.8503 429.18 15.7827 428.969C15.7184 428.767 14.1149 423.339 12.2194 416.906C10.3239 410.474 8.7464 405.413 8.71384 405.66C8.68127 405.907 9.44714 412.392 10.4158 420.07C11.3844 427.749 12.0839 434.138 11.9701 434.268C11.8502 434.406 11.7129 434.351 11.6438 434.139C11.5782 433.938 9.74202 427.88 7.56343 420.677C5.38483 413.474 3.56273 407.619 3.51431 407.666C3.46591 407.713 4.2115 415.032 5.1712 423.931C6.66022 437.738 6.92694 441.013 6.508 440.344C6.47083 440.285 4.75485 433.527 2.69461 425.328C0.634369 417.128 -1.09192 410.46 -1.1416 410.509C-1.25461 410.622 -0.723694 439.09 -0.508881 444.437C-0.402267 447.091 -0.438202 448.38 -0.618835 448.38C-0.976654 448.38 -0.719116 449.592 -4.31705 430.98C-6.07086 421.908 -7.53978 414.587 -7.58133 414.712C-7.62286 414.837 -7.30617 421.437 -6.8775 429.378C-6.17325 442.426 -6.11772 444.324 -6.45074 443.963C-6.50545 443.904 -8.03946 436.674 -9.85959 427.896C-11.6797 419.118 -13.1944 411.963 -13.2256 411.996C-13.2567 412.029 -13.6559 419.502 -14.1126 428.602C-14.5693 437.703 -14.9999 445.323 -15.0695 445.536C-15.3776 446.48 -15.6862 444.079 -17.1127 429.636C-18.1981 418.648 -18.6685 414.708 -18.7952 415.546C-18.8919 416.186 -19.5164 423.515 -20.183 431.834C-20.8496 440.152 -21.4487 447.237 -21.5142 447.577C-21.858 449.363 -22.1151 446.424 -22.7845 433.062C-23.1887 424.992 -23.5851 418.39 -23.6653 418.39C-23.7455 418.39 -24.4305 425.167 -25.1875 433.45C-25.9446 441.732 -26.6265 448.946 -26.7028 449.479C-26.9143 450.957 -27.2925 450.634 -27.2925 448.976C-27.2925 446.487 -28.3416 417.513 -28.435 417.42C-28.4834 417.372 -28.6026 417.89 -28.7001 418.572C-28.7975 419.254 -29.9102 426.502 -31.1726 434.678C-32.4351 442.854 -33.5037 449.883 -33.5473 450.299C-33.5909 450.715 -33.7871 451.108 -33.9832 451.172L-34.3398 451.289L-34.1822 449.382C-34.0955 448.333 -33.9641 441.425 -33.8901 434.031L-33.7557 420.588L-37.533 438.556C-39.6104 448.438 -41.3556 456.572 -41.411 456.632C-41.7666 457.011 -41.6952 454.729 -40.8693 439.328C-40.3639 429.903 -39.9823 422.16 -40.0214 422.121C-40.0604 422.082 -41.9352 430.563 -44.1875 440.968C-48.8666 462.582 -48.451 460.79 -48.7841 460.79C-48.9386 460.79 -48.9787 460.352 -48.8845 459.691C-48.6213 457.844 -45.1582 423.965 -45.2257 423.897C-45.2605 423.863 -47.4241 432.469 -50.0338 443.023C-52.6434 453.577 -54.8185 462.26 -54.8672 462.319C-55.2521 462.788 -55.0665 459.93 -53.6681 443.851C-52.7939 433.8 -52.1162 425.538 -52.1621 425.493C-52.2481 425.406 -59.5051 458.35 -59.7808 460.079C-59.9692 461.26 -60.3849 461.362 -60.3849 460.227C-60.3849 459.776 -59.8575 452.068 -59.2128 443.099C-58.5682 434.131 -58.0737 426.56 -58.114 426.275C-58.1544 425.991 -59.8031 433.088 -61.7778 442.046C-63.7525 451.004 -65.4103 458.382 -65.4619 458.441C-65.8426 458.879 -65.6108 456.251 -63.8887 440.61C-62.8193 430.897 -61.9762 422.917 -62.0152 422.878C-62.0542 422.839 -64.8297 430.389 -68.1829 439.655C-71.5361 448.921 -74.4231 456.55 -74.5984 456.608C-74.817 456.681 -74.8625 456.542 -74.7432 456.166C-74.4291 455.177 -67.1068 423.992 -67.173 423.925C-67.2085 423.89 -68.7469 426.964 -70.5915 430.756C-81.0448 452.245 -83.689 457.568 -83.9562 457.658C-84.1428 457.721 -84.1886 457.591 -84.0799 457.308C-83.4696 455.718 -72.0325 421.393 -72.0928 421.332C-72.1339 421.291 -78.2054 429.716 -85.5849 440.054C-92.9644 450.392 -99.2101 459.077 -99.4642 459.353C-100.322 460.287 -100.235 459.563 -99.3168 458.128C-98.8151 457.343 -94.4639 450.205 -89.6473 442.264C-84.8308 434.323 -80.4258 427.07 -79.8585 426.146C-79.2911 425.222 -78.6871 424.204 -78.5163 423.884C-78.2531 423.391 -91.1393 436.296 -109.293 454.706C-111.813 457.261 -113.957 459.269 -114.058 459.168C-114.159 459.067 -113.662 458.315 -112.952 457.496C-110.15 454.259 -84.7511 424.132 -84.5486 423.804C-84.4298 423.612 -85.3141 424.272 -86.5135 425.272C-87.713 426.271 -97.7108 434.514 -108.731 443.589C-119.751 452.665 -129.226 460.5 -129.787 461.001C-130.347 461.503 -130.845 461.795 -130.893 461.652C-130.982 461.385 -119.915 450.359 -91.2798 422.186C-89.9629 420.891 -90.551 421.321 -116.7 440.811C-130.696 451.243 -142.213 459.711 -142.294 459.63C-142.498 459.425 -143.661 460.44 -120.365 440.496C-101.395 424.255 -97.4027 420.793 -98.648 421.665C-98.8613 421.814 -108.983 428.892 -121.14 437.394C-133.298 445.895 -144.212 453.545 -145.393 454.393C-147.612 455.986 -148.693 456.22 -146.865 454.712C-146.296 454.243 -135.709 445.52 -123.338 435.327C-99.9857 416.087 -98.8754 415.148 -101.233 416.641C-102.31 417.322 -146.597 446.373 -149.491 448.296C-149.797 448.5 -150.106 448.573 -150.175 448.459C-150.245 448.344 -144.817 443.986 -138.113 438.773C-101.807 410.544 -100.769 409.73 -101.621 410.176C-102.269 410.516 -148.297 437.433 -149.754 438.325C-151.516 439.404 -151.648 439.457 -151.648 439.098C-151.648 438.969 -140.799 431.215 -127.539 421.866C-104.009 405.277 -101.425 403.413 -103.819 404.759C-104.459 405.119 -113.708 410.153 -124.372 415.946C-135.037 421.739 -144.558 426.928 -145.531 427.476C-146.503 428.024 -147.405 428.473 -147.534 428.473C-148.165 428.473 -147.503 427.926 -144.723 426.151C-139.97 423.115 -103.714 399.499 -103.565 399.342C-103.39 399.158 -116.829 405.888 -126.77 410.963C-131.075 413.161 -134.653 414.869 -134.72 414.759C-134.788 414.65 -127.95 409.648 -119.525 403.645C-111.1 397.641 -104.09 392.621 -103.948 392.488C-103.616 392.178 -107.025 393.8 -124.091 402.071C-136.348 408.011 -139.024 409.212 -138.057 408.339C-137.925 408.219 -130.864 403.665 -122.368 398.218C-113.871 392.772 -106.958 388.277 -107.006 388.229C-107.053 388.182 -113.761 390.935 -121.913 394.347C-130.064 397.759 -136.774 400.551 -136.822 400.551C-137.336 400.551 -136.428 399.827 -134.003 398.302C-132.403 397.297 -125.859 393.188 -119.46 389.172C-113.061 385.155 -107.71 381.751 -107.567 381.607C-107.395 381.431 -107.395 381.391 -107.567 381.485C-108.116 381.785 -135.514 393.637 -135.942 393.76C-136.692 393.975 -136.451 393.457 -135.554 392.929C-133.867 391.935 -109.37 376.185 -109.119 375.933C-108.976 375.79 -109.209 375.847 -109.636 376.06C-110.062 376.273 -112.913 377.638 -115.97 379.095C-119.027 380.552 -123.251 382.602 -125.357 383.65C-127.463 384.698 -129.238 385.556 -129.3 385.556C-129.824 385.556 -129.088 384.89 -127.41 383.846C-121.213 379.99 -103.016 368.234 -103.245 368.234C-103.393 368.234 -107.488 369.293 -112.345 370.586C-117.203 371.88 -121.256 372.853 -121.353 372.748C-121.449 372.644 -121.409 372.515 -121.262 372.462C-120.399 372.15 -87.8495 354.887 -78.0946 349.568C-50.8109 334.691 -35.1578 326.919 -4.23965 312.897C-0.0211029 310.984 3.4023 309.39 3.36789 309.356C3.21365 309.202 -2.20825 310.905 -13.4125 314.628C-23.8805 318.106 -26.7401 318.928 -25.5986 318.129C-14.7287 310.523 -12.565 309.549 10.712 301.782C30.0209 295.34 40.8835 292.068 49.6214 290.064C63.1753 286.955 83.522 284.403 103.698 283.281L106.843 283.106L109.485 277.777C113.534 269.606 117.987 260.426 117.9 260.426C117.858 260.426 113.766 264.856 108.807 270.271C103.848 275.685 99.7521 279.999 99.7048 279.857C99.6575 279.715 102.072 275.677 105.071 270.882C108.069 266.088 110.49 262.141 110.45 262.113C110.41 262.084 106.192 266.356 101.077 271.607C95.9627 276.858 91.7368 281.031 91.6864 280.88C91.6361 280.729 94.0035 275.861 96.9475 270.063C99.8915 264.265 102.062 259.753 101.771 260.038C101.48 260.322 97.0491 265.591 91.9253 271.747C83.9761 281.297 81.9258 283.602 82.2523 282.622C82.2829 282.53 84.7116 277.353 87.6495 271.117C93.7836 258.097 94.3568 256.84 93.9973 257.194C93.6646 257.521 75.9046 281.362 75.6058 281.882C75.484 282.094 75.292 282.175 75.179 282.062C75.0661 281.949 77.977 275.842 81.6477 268.491C85.3183 261.14 88.2082 255.242 88.0696 255.384C87.931 255.526 82.2639 262.1 75.4761 269.991C61.1869 286.604 62.7236 284.86 62.5396 284.676C62.459 284.596 66.5358 278.279 71.599 270.64C76.6622 263 80.769 256.723 80.7252 256.691C80.6611 256.643 63.8397 274.036 54.8432 283.451C53.7338 284.613 52.7569 285.493 52.6723 285.409C52.5878 285.324 56.8464 278.796 62.136 270.901C67.4256 263.007 71.7061 256.548 71.6483 256.548C71.5477 256.548 45.7962 283.89 44.1335 285.762C43.16 286.858 42.6903 286.605 43.5472 285.446C44.9151 283.596 64.2286 256.014 64.2286 255.911C64.2286 255.797 53.7063 266.752 41.0748 280.016C37.2461 284.036 34.0753 287.211 34.0285 287.071C33.9818 286.93 38.2786 280.674 43.5771 273.168C48.8755 265.662 53.6064 258.939 54.0901 258.228L54.9696 256.935L54.1053 257.863C53.6299 258.373 46.7297 265.802 38.7715 274.37C30.8134 282.939 24.2649 289.838 24.2193 289.701C24.1737 289.564 29.3484 282.311 35.7187 273.582C48.861 255.573 49.0233 255.343 47.2497 257.225C32.6928 272.674 14.9667 291.158 14.8999 290.957C14.8519 290.814 17.1249 287.753 19.9509 284.157C23.854 279.19 40.4128 258.006 43.2498 254.35C43.8246 253.609 32.8902 264.369 17.2503 279.933C9.82634 287.321 3.67064 293.285 3.57095 293.185C3.47127 293.085 3.85252 292.45 4.41818 291.774C5.76805 290.161 33.7083 255.759 34.078 255.255C34.3416 254.896 28.7678 260.32 5.15674 283.402C0.181717 288.265 -3.92522 292.135 -3.96977 292.002C-4.01428 291.868 2.25282 283.691 9.95723 273.83C17.6616 263.969 24.1389 255.669 24.3513 255.384C24.8411 254.728 19.3221 260.354 1.79257 278.381C-5.88589 286.277 -12.2064 292.624 -12.2529 292.486C-12.2994 292.348 -10.9914 290.458 -9.34612 288.287C-7.70085 286.116 -2.7749 279.628 1.60043 273.869C17.7627 252.596 17.8794 252.438 16.3746 253.857C15.6064 254.581 7.91403 261.94 -0.719498 270.209C-9.35301 278.479 -16.4913 285.245 -16.5824 285.245C-16.9715 285.245 -16.2279 284.216 -11.9772 278.871C-8.24736 274.182 3.94591 258.763 7.31265 254.479L8.22691 253.316L6.81947 254.633C6.04539 255.358 -1.38487 262.397 -9.69221 270.275C-26.2197 285.948 -26.9935 286.664 -27.1919 286.466C-27.2664 286.391 -26.8118 285.65 -26.1818 284.818C-24.3885 282.451 -5.07791 256.053 -4.08232 254.609L-3.19154 253.316L-4.0403 254.221C-4.50711 254.718 -11.2849 262.106 -19.102 270.638C-35.3455 288.366 -34.9844 287.981 -35.1727 287.792C-35.2504 287.715 -30.0416 279.402 -23.5975 269.32C-17.1534 259.238 -11.785 250.815 -11.6677 250.601C-11.3851 250.087 -12.2463 250.956 -28.4561 267.535C-47.2014 286.708 -47.1584 286.665 -47.3336 286.49C-47.4182 286.405 -41.7112 278.578 -34.6513 269.096C-27.5915 259.614 -21.8552 251.823 -21.9039 251.784C-21.975 251.726 -37.5935 266.572 -53.9113 282.207C-56.2002 284.4 -57.2804 285.218 -56.9809 284.53C-56.8982 284.34 -32.0463 252.284 -31.1967 251.271L-30.7828 250.778L-31.1891 251.013C-31.4127 251.142 -39.5389 258.402 -49.2474 267.147C-58.956 275.892 -67.0568 283.16 -67.2492 283.297C-68.0584 283.873 -67.864 283.117 -66.9067 281.964C-65.4216 280.174 -45.0258 253.908 -44.7623 253.445L-44.5415 253.057L-44.9294 253.445C-45.1428 253.658 -51.6396 260.464 -59.3667 268.569C-67.0939 276.674 -73.509 283.345 -73.6224 283.392C-74.0344 283.564 -73.8126 282.92 -73.0854 281.832C-72.479 280.925 -52.4816 249.191 -51.1245 246.982L-50.7274 246.335L-51.1318 246.723C-51.4359 247.015 -75.2782 273.504 -80.9757 279.88C-81.4521 280.413 -81.9004 280.85 -81.9719 280.85C-82.3534 280.85 -81.8794 280.033 -79.6879 276.916C-77.1437 273.296 -60.4245 249.215 -59.5337 247.887C-58.8752 246.905 -59.8749 247.856 -74.4751 262.105C-81.016 268.488 -87.2658 274.584 -88.3635 275.651C-89.4613 276.718 -90.4241 277.526 -90.5031 277.447C-90.5822 277.368 -87.4129 272.72 -83.4603 267.119C-73.6336 253.194 -73.1436 252.482 -73.7153 252.956C-73.991 253.185 -80.763 258.807 -88.7642 265.45C-96.7654 272.093 -103.416 277.491 -103.542 277.444C-103.669 277.398 -99.1204 271.91 -93.4342 265.25C-87.7481 258.59 -83.1339 253.104 -83.1805 253.059C-83.2271 253.014 -84.9083 254.275 -86.9165 255.861C-98.0318 264.641 -113.691 276.856 -113.939 276.939C-114.601 277.164 -113.519 275.983 -103.162 265.175C-97.1846 258.937 -92.1865 253.658 -92.0554 253.445C-91.9243 253.232 -92.5688 253.649 -93.4875 254.372C-94.4062 255.095 -101.208 260.318 -108.602 265.979C-115.996 271.639 -122.343 276.544 -122.706 276.879C-123.445 277.561 -123.736 277.645 -123.705 277.166C-123.693 276.988 -123.024 276.269 -122.218 275.569C-120.882 274.408 -97.4833 253.09 -96.5798 252.211L-96.192 251.834L-96.709 252.108C-96.9934 252.259 -104.439 257.202 -113.255 263.092C-122.071 268.983 -129.329 273.682 -129.385 273.535C-129.44 273.388 -129.188 273.052 -128.826 272.788C-128.03 272.208 -101.73 250.657 -101.363 250.284C-100.993 249.908 -134.594 268.288 -139.575 271.186C-141.073 272.058 -141.577 272.232 -141.551 271.866C-141.543 271.759 -134.941 266.983 -126.879 261.253C-113.261 251.574 -110.518 249.589 -111.187 249.901C-111.496 250.046 -137.316 264.159 -143.324 267.468C-145.643 268.745 -147.613 269.717 -147.702 269.628C-147.926 269.404 -149.005 270.145 -132.063 258.887C-123.637 253.288 -116.778 248.672 -116.821 248.63C-116.863 248.588 -124.746 251.989 -134.337 256.189C-143.929 260.389 -151.98 263.888 -152.229 263.965C-153.933 264.493 -150.991 262.704 -138.583 255.668C-130.834 251.274 -124.534 247.639 -124.582 247.59C-124.631 247.542 -131.459 250.351 -139.755 253.833C-153.376 259.55 -155.65 260.428 -154.862 259.667C-153.777 258.619 -135.201 248.505 -127.497 244.767C-104.905 233.808 -90.6791 230.656 -38.9266 225.146C-6.67897 221.713 12.3231 220.95 59.3164 221.201L86.8504 221.348L102.397 209.41C110.948 202.844 117.917 197.442 117.884 197.404C117.829 197.342 85.147 214.821 83.1337 215.989C82.6536 216.268 82.1882 216.423 82.0995 216.334C81.895 216.129 81.3983 216.538 93.7023 206.78C99.4396 202.229 104.317 198.351 104.541 198.161C105.081 197.702 105.178 197.647 89.4854 206.778C77.2057 213.922 74.4218 215.398 76.0063 213.924C82.9268 207.486 97.321 193.901 97.321 193.808C97.321 193.738 96.9429 193.911 96.4808 194.192C96.0186 194.473 89.3582 198.338 81.6797 202.781C74.0013 207.224 67.4534 211.034 67.1291 211.246C66.362 211.749 66.0024 211.39 66.711 210.829C67.0098 210.593 72.5508 206.211 79.0243 201.092C85.4978 195.973 90.7666 191.752 90.7327 191.713C90.6988 191.673 84.2037 195.078 76.2991 199.278C61.188 207.308 60.9966 207.406 61.1556 206.986C61.2105 206.841 66.898 202.097 73.7944 196.444C80.6908 190.791 86.4496 186.044 86.5918 185.896C86.9094 185.565 88.0053 184.914 70.4334 195.497C62.3995 200.336 55.7843 204.176 55.7331 204.03C55.6819 203.884 57.6609 201.709 60.131 199.197C67.7388 191.458 79.2923 179.504 79.1638 179.504C79.0967 179.504 72.7131 184.505 64.978 190.617C57.2428 196.728 50.8171 201.731 50.6987 201.733C50.2685 201.743 50.8393 201.087 62.2896 188.405C75.4475 173.832 75.5717 173.688 73.2747 175.604C56.5942 189.522 48.47 196.363 47.9605 196.918C47.6158 197.294 47.2377 197.602 47.1203 197.602C46.5922 197.602 47.0141 196.86 48.292 195.541C49.0539 194.755 54.0146 189.051 59.3158 182.865C64.617 176.68 69.2581 171.274 69.6293 170.853C70.0671 170.356 70.1238 170.22 69.7906 170.465C69.2801 170.841 53.6228 183.916 46.3193 190.065C42.5532 193.236 41.4254 193.875 42.9418 191.978C43.8414 190.853 63.1265 166.121 63.5542 165.545C63.7118 165.332 62.9077 165.972 61.7672 166.967C48.2644 178.743 38.5484 187.147 38.355 187.217C37.7088 187.451 38.8846 185.982 48.5635 174.463C54.2984 167.638 58.9585 162.016 58.9191 161.97C58.8797 161.923 53.6886 165.986 47.3833 170.997C31.1803 183.875 31.3845 183.717 31.2182 183.55C31.1354 183.468 35.9932 177.259 42.0134 169.753C48.0336 162.248 52.7898 156.235 52.5829 156.391C51.7925 156.988 26.0466 177.045 25.1254 177.781C23.9761 178.7 23.5261 178.508 24.461 177.498C24.8215 177.108 29.6888 171.554 35.2773 165.156C40.8657 158.757 45.7395 153.184 46.1078 152.771C46.7056 152.102 39.92 157.155 22.7484 170.167C19.6739 172.497 17.0897 174.334 17.0056 174.25C16.8824 174.127 23.503 166.061 36.0298 151.073C37.579 149.219 38.0165 148.879 23.2551 161.019C16.3393 166.707 10.557 171.404 10.4056 171.457C9.74667 171.689 9.45369 172.079 25.141 151.883C27.6081 148.707 29.5825 146.065 29.5287 146.011C29.4748 145.957 22.7755 150.349 14.6415 155.771C1.0611 164.823 -2.59436 167.035 0.756409 164.174C2.69377 162.52 20.0761 147.2 20.6656 146.627L21.1826 146.125L20.407 146.413C19.9805 146.571 12.9088 149.268 4.69215 152.407C-3.52444 155.546 -10.3207 158.041 -10.4106 157.951C-10.6154 157.746 -12.1845 158.79 1.47556 150.04C7.98431 145.871 13.2718 142.422 13.2256 142.376C13.1793 142.33 6.63239 144.34 -1.32315 146.844C-16.7926 151.712 -16.9566 151.76 -16.9407 151.419C-16.9351 151.296 -10.9434 147.775 -3.62619 143.595C3.69104 139.416 9.67786 135.964 9.67786 135.925C9.67786 135.886 9.29976 135.956 8.83763 136.081C6.87227 136.614 -25.226 144.344 -25.4715 144.344C-26.0187 144.344 -25.7181 143.931 -24.9632 143.646C-23.6774 143.161 3.18228 131.557 3.13188 131.508C3.10628 131.484 -5.93114 132.732 -16.9512 134.282C-27.9712 135.832 -37.1912 137.101 -37.44 137.102C-38.8254 137.109 -37.2826 136.56 -32.2675 135.261C-22.6772 132.777 -2.72885 127.455 -2.79663 127.398C-2.83202 127.369 -11.6447 128.14 -22.3804 129.112C-33.116 130.084 -42.2778 130.884 -42.74 130.89C-43.8919 130.904 -43.8011 130.486 -42.6107 130.295C-41.1255 130.056 -6.3519 122.54 -6.42039 122.472C-6.46588 122.427 -29.1088 123.344 -42.9963 123.954C-44.8303 124.034 -44.7416 123.578 -42.8781 123.345C-42.0556 123.242 -32.8316 122.079 -22.3804 120.761L-3.37813 118.364L-5.18787 118.194C-6.18323 118.101 -15.6068 117.591 -26.1291 117.061C-45.7854 116.072 -46.1603 116.045 -45.7563 115.665C-45.3936 115.323 -7.41234 114.769 2.82671 114.956C19.04 115.252 21.9902 115.818 37.5996 121.627C77.339 136.416 108.319 149.294 122.474 156.911C133.349 162.762 150.666 174.11 166.66 185.866L170.978 189.04L180.333 190.744C185.478 191.681 189.731 192.404 189.785 192.35C189.838 192.297 184.878 190.118 178.762 187.508C168.798 183.256 166.157 181.969 168.353 182.434C168.744 182.517 172.896 183.402 177.579 184.401C182.262 185.399 186.127 186.183 186.168 186.143C186.209 186.102 180.486 183.462 173.452 180.277C162.067 175.121 159.053 173.605 161.373 174.202C164.985 175.131 185.356 179.975 185.413 179.918C185.492 179.838 158.515 168.338 157.107 167.852C156.335 167.585 155.945 167.095 156.504 167.095C156.707 167.095 171.638 171.641 184.163 175.517C186.211 176.15 187.928 176.627 187.98 176.575C188.058 176.497 153.685 159.838 149.369 157.862C148.613 157.516 147.994 157.111 147.994 156.963C147.994 156.623 145.673 155.868 169.167 163.844C180.314 167.629 189.476 170.684 189.526 170.634C189.608 170.551 174.482 163.161 151.419 152.017C146.691 149.733 142.823 147.756 142.823 147.625C142.823 147.324 140.294 146.56 165.178 154.381C176.975 158.089 186.654 161.096 186.686 161.064C186.741 161.009 178.188 157.392 153.423 146.994C147.522 144.517 142.645 142.441 142.586 142.382C142.096 141.895 145.342 142.742 164.012 147.974C175.711 151.253 185.323 153.895 185.371 153.847C185.42 153.799 176.53 149.925 165.617 145.238C154.704 140.551 145.78 136.601 145.786 136.46C145.791 136.319 145.913 136.23 146.055 136.262C151.582 137.523 185.329 144.84 185.38 144.789C185.421 144.749 176.531 141.003 165.625 136.465C154.719 131.927 145.686 128.121 145.551 128.006C144.966 127.509 147.196 128.048 164.48 132.581C174.513 135.212 182.761 137.326 182.808 137.279C182.887 137.2 145.475 120.892 142.888 119.877C141.929 119.501 141.414 119.007 141.983 119.008C142.089 119.008 151.246 121.156 162.33 123.781C173.415 126.406 182.52 128.518 182.563 128.475C182.607 128.431 179.82 127.111 176.37 125.541C138.59 108.345 139.833 108.924 140.742 108.924C140.934 108.924 150.339 111.953 161.641 115.654C172.943 119.356 182.221 122.352 182.258 122.312C182.326 122.238 144.073 101.989 142.758 101.402C141.903 101.021 141.812 100.539 142.629 100.718C142.949 100.788 151.757 103.764 162.202 107.331C172.647 110.898 181.232 113.777 181.279 113.73C181.326 113.683 172.111 108.958 160.801 103.23C142.94 94.1846 139.546 92.3782 140.406 92.3782C140.555 92.3782 151.804 95.8591 178.087 104.039C182.624 105.451 186.377 106.563 186.429 106.511C186.481 106.46 182.886 104.548 178.44 102.264C155.37 90.4081 139.613 82.2743 139.501 82.1624C138.843 81.5042 142.837 82.8408 163.373 90.1521C176.398 94.7891 187.137 98.5822 187.238 98.5812C187.338 98.5804 184.977 97.2631 181.991 95.6543C179.005 94.0456 169.098 88.6988 159.975 83.7725C150.852 78.8463 142.737 74.4966 141.942 74.1066C140.175 73.2401 139.924 72.5463 141.595 73.1485C142.199 73.3664 152.059 76.8406 163.506 80.8692C174.952 84.8977 184.654 88.3241 185.065 88.4835C185.475 88.6428 185.85 88.7349 185.896 88.6882C185.984 88.6003 184.679 87.8848 159.369 74.1476C151.051 69.6327 144.136 65.8398 144.004 65.719C143.575 65.3287 144.023 65.2095 144.791 65.5094C147.197 66.4497 180.672 78.4007 180.732 78.3409C180.772 78.3011 171.589 73.5751 160.327 67.8388C149.065 62.1025 139.741 57.3098 139.609 57.1884C139.183 56.7993 139.625 56.677 140.396 56.9704C141.785 57.4995 175.234 68.3266 175.291 68.2657C175.322 68.2324 167.807 64.4242 158.592 59.8029C149.376 55.1816 141.825 51.3132 141.812 51.2066C141.767 50.8295 142.584 51.0649 157.686 55.7796C166.074 58.3982 172.967 60.5109 173.003 60.4746C173.039 60.4383 166.002 56.8274 157.364 52.4504C142.059 44.6947 140.428 43.8206 141.789 44.1004C142.265 44.1984 163.198 52.1809 173.583 56.2246C174.723 56.6685 174.107 56.2762 158.682 46.7411C150.315 41.5686 143.295 37.228 143.082 37.0953C142.868 36.9625 142.768 36.7755 142.859 36.6797C142.95 36.5839 149.582 39.7803 157.596 43.7828C165.61 47.7853 171.992 50.8883 171.779 50.6782C171.448 50.3519 141.826 28.621 140.367 27.6339C140.083 27.4415 139.925 27.2056 140.018 27.1097C140.11 27.0138 147.952 31.3648 157.445 36.7785C166.938 42.1923 174.728 46.5917 174.757 46.555C174.804 46.4956 144.669 21.2736 143.269 20.2002C142.957 19.961 142.783 19.6838 142.883 19.5841C142.983 19.4843 150.252 24.1689 159.037 29.9943C167.823 35.8197 175.36 40.8041 175.786 41.0709L176.562 41.5559L176.145 41.049C175.916 40.7702 170.46 34.027 164.02 26.0641C157.581 18.1013 151.96 11.2098 151.528 10.7498C150.781 9.95342 150.736 9.25851 151.466 9.78561C151.656 9.92278 158.586 15.9684 166.865 23.2203C175.145 30.4721 182.2 36.6209 182.543 36.8841L183.167 37.3626L181.747 34.6865C180.966 33.2147 176.562 24.9137 171.959 16.2398C167.357 7.566 163.649 0.363092 163.719 0.233364C163.877 -0.05782 162.607 -1.72268 176.014 16.3497C182.253 24.7603 187.399 31.6008 187.449 31.5509C187.499 31.5011 185.203 24.451 182.347 15.8841C177.96 2.72574 176.929 -0.668021 177.554 0.102976C177.602 0.162223 181.978 8.12185 187.279 17.791C192.581 27.4602 197.004 35.4655 197.109 35.5805C197.215 35.6955 197.258 35.2301 197.205 34.5464C197.152 33.8626 196.88 28.3005 196.599 22.1861C196.319 16.0718 196.027 10.342 195.949 9.4533C195.857 8.39949 195.903 7.83746 196.082 7.83746C196.429 7.83746 195.979 6.09939 200.232 23.8666C202.257 32.3271 203.987 39.3341 204.076 39.4376C204.166 39.5412 204.568 34.6549 204.97 28.5792C205.371 22.5035 205.79 17.4366 205.899 17.3193C206.172 17.0278 206.233 17.4583 207.502 28.73C208.232 35.2179 208.675 38.3394 208.786 37.7787C208.879 37.3078 209.154 33.316 209.397 28.908C209.854 20.6207 209.917 19.9972 210.264 20.3978C210.377 20.5282 211.089 27.0918 211.845 34.9836C212.602 42.8753 213.296 49.4186 213.388 49.5242C213.479 49.6298 213.898 44.4799 214.319 38.0798C214.772 31.1766 215.189 26.4188 215.342 26.383C215.661 26.3086 215.584 25.1827 216.283 40.2552C216.605 47.2072 216.952 52.617 217.053 52.2771C217.154 51.9372 217.55 46.8309 217.933 40.9299C218.316 35.0288 218.674 30.0479 218.729 29.8611C219.134 28.4808 219.298 31.5297 219.459 43.4428C219.561 50.9478 219.718 57.3791 219.81 57.7346C219.903 58.0981 220.435 54.22 221.026 48.8734C222.039 39.7084 222.512 37.3804 222.642 40.9299C222.902 48.0047 223.799 68.4751 223.852 68.5284C223.889 68.565 224.531 62.8647 225.28 55.8611C226.028 48.8576 226.686 42.9746 226.742 42.7878C227.138 41.4594 227.247 44.825 227.325 60.7484C227.374 70.6796 227.441 78.8345 227.475 78.8703C227.546 78.9448 232.182 53.3383 232.439 51.4557C232.608 50.2109 233.242 49.8181 233.117 51.0353C233.081 51.3783 232.649 58.0578 232.155 65.8784C231.662 73.6991 231.187 80.7952 231.101 81.6475C231.014 82.4998 231.004 83.136 231.079 83.0614C231.26 82.8805 240.549 54.2678 240.549 53.8915C240.549 53.7301 240.665 53.598 240.808 53.598C241.22 53.598 241.196 53.743 238.112 69.8857C236.495 78.3463 235.196 85.2935 235.223 85.3241C235.288 85.3954 245.702 58.5055 245.894 57.7694C246.039 57.2151 246.495 56.9925 246.495 57.476C246.495 57.6182 244.395 65.5426 241.828 75.0858C239.261 84.629 237.196 92.472 237.239 92.5147C237.282 92.5574 240.338 85.5347 244.03 76.9086C247.723 68.2825 250.777 61.1763 250.817 61.1171C251.374 60.2998 250.581 63.9725 247.159 78.0464C244.924 87.2351 243.134 94.7901 243.18 94.8353C243.266 94.9193 254.146 65.5738 254.419 64.5211C254.657 63.6039 255.114 63.8275 254.947 64.7797C254.866 65.2418 252.768 74.6363 250.285 85.6563C247.802 96.6763 245.798 105.723 245.833 105.759C245.906 105.836 260.474 71.2749 260.655 70.5967C260.784 70.11 261.232 69.9685 261.232 70.4142C261.232 70.5627 258.896 79.7644 256.042 90.8625C253.188 101.961 250.89 111.079 250.936 111.125C250.982 111.171 254.51 102.263 258.776 91.3307C263.042 80.3979 266.619 71.4493 266.726 71.4449C267.06 71.4311 267.045 71.493 261.111 94.6418C257.917 107.104 255.339 117.338 255.384 117.382C255.482 117.48 269.763 78.0123 269.763 77.6435C269.763 77.5003 269.88 77.3832 270.022 77.3832C270.431 77.3832 270.558 76.8779 264.598 98.8919C261.473 110.435 258.951 119.915 258.993 119.957C259.072 120.036 272.363 83.7648 272.914 81.97C273.19 81.0714 273.641 80.6441 273.641 81.2816C273.641 81.518 267.65 104.833 261.595 128.157C260.677 131.696 259.963 134.629 260.009 134.675C260.087 134.753 274.343 93.944 274.988 91.7965C275.255 90.9088 275.71 90.4628 275.71 91.0891C275.71 91.2333 273.393 99.9297 270.56 110.415C262.355 140.79 262.223 141.285 262.318 141.38C262.399 141.46 275.865 102.562 276.933 99.1647C277.324 97.9214 277.788 97.3483 277.771 98.1306C277.767 98.3083 274.578 110.146 270.683 124.436C266.789 138.727 263.633 150.45 263.67 150.487C263.73 150.547 276.048 118.412 278.462 111.898C279.533 109.008 279.522 109.031 279.758 109.267C279.851 109.36 279.689 110.223 279.397 111.184C273.126 131.84 266.649 153.466 266.714 153.532C266.792 153.61 278.01 124.107 280.526 117.206C281.121 115.575 281.752 114.192 281.93 114.133C282.139 114.063 282.203 114.196 282.113 114.513C282.037 114.781 281.037 118.025 279.891 121.722C275.344 136.394 265.375 169.256 265.449 169.329C265.514 169.395 284.181 124.65 285.444 121.399C285.817 120.439 286.31 119.925 286.31 120.495C286.31 120.603 282.24 132.898 277.266 147.819C272.292 162.739 268.252 174.977 268.288 175.013C268.325 175.049 272.009 166.506 276.477 156.027C285.396 135.105 284.693 136.695 284.926 136.928C285.018 137.02 284.422 139.279 283.6 141.947C278.31 159.139 269.52 188.137 269.581 188.198C269.648 188.265 285.25 151.57 286.221 149.062C286.592 148.104 287.086 147.586 287.085 148.157C287.085 148.264 283.709 158.054 279.583 169.913C275.457 181.772 272.119 191.512 272.165 191.558C272.21 191.603 275.607 184.285 279.714 175.296C283.82 166.306 287.618 157.991 288.155 156.818C289.237 154.451 289.961 153.89 289.156 156.042C287.276 161.069 272.384 202.893 272.45 202.96C272.496 203.005 276.243 197.043 280.779 189.71C290.183 174.503 289.578 175.447 289.79 175.66C289.914 175.783 277.141 203.359 275.286 206.974C274.095 209.294 275.925 206.398 282.067 196.244C289.982 183.157 289.108 184.543 289.32 184.756C289.412 184.847 287.558 190.015 285.201 196.239C282.844 202.463 280.842 207.788 280.753 208.072C280.566 208.665 280.919 208.095 284.082 202.69C286.68 198.251 286.516 198.498 286.724 198.705C286.809 198.791 286.395 200.04 285.804 201.482C281.078 213.009 278.3 224.558 277.659 235.348L277.498 238.062L279.79 232.633C299.222 186.609 319.248 157.774 355.468 123.671C381.046 99.5866 399.018 85.9395 414.543 78.8127C428.547 72.3839 461.034 62.5461 516.139 48.0478C528.94 44.6797 532.735 43.815 530.625 44.747C530.269 44.904 515.999 49.4902 498.913 54.9384C481.827 60.3866 467.882 64.8796 467.924 64.9228C468.006 65.007 477.234 62.5902 508.908 54.1894C519.928 51.2665 529.281 48.8168 529.692 48.7457C530.986 48.5219 530.211 49.1363 528.616 49.5984C527.801 49.8346 515.035 53.8669 500.247 58.5592C485.459 63.2515 471.121 67.7983 468.385 68.6633C465.65 69.5283 463.454 70.2789 463.507 70.3314C463.601 70.4262 522.087 55.9885 524.531 55.2671C525.98 54.8396 526.978 54.7698 526.604 55.1222C526.469 55.2495 513.91 58.9846 498.696 63.4224C483.481 67.8602 466.411 72.8391 460.762 74.4867C455.114 76.1343 450.534 77.5243 450.585 77.5757C450.666 77.6561 495.246 67.3833 512.65 63.2737C518.82 61.8169 519.249 61.7388 519.249 62.0721C519.249 62.1826 517.533 62.7603 515.436 63.3557C513.338 63.9511 500.861 67.5869 487.708 71.4352C474.555 75.2835 459.919 79.5609 455.183 80.9406C450.447 82.3203 446.671 83.482 446.791 83.5222C447.009 83.5948 505.716 72.4407 510.522 71.4137C513.037 70.876 514.286 70.8605 513.044 71.3823C512.689 71.5318 497.601 75.1219 479.515 79.3604C461.43 83.5989 446.661 87.0953 446.696 87.1302C446.731 87.1652 460.293 85.5099 476.833 83.4519C509.765 79.3545 507.562 79.6077 507.21 79.9601C507.072 80.0976 504.81 80.6069 502.181 81.0919C484.206 84.4093 448.423 91.219 448.621 91.2848C448.885 91.3729 502.824 86.5244 504.217 86.2874C504.847 86.1801 505.054 86.2287 504.976 86.4651C504.908 86.6671 503.501 87.0019 501.264 87.3483C488.584 89.312 450.443 95.6232 450.878 95.6855C451.321 95.7489 503.038 91.9798 504.279 91.7938C504.506 91.7598 504.715 91.8482 504.743 91.9904C504.771 92.1326 504.353 92.3201 503.813 92.4071C503.274 92.4941 490.361 94.5263 475.118 96.9232C459.875 99.32 447.437 101.315 447.478 101.356C447.563 101.441 493.831 98.2343 498.789 97.8001C500.547 97.6461 502.049 97.5848 502.128 97.6638C502.443 97.9781 501.847 98.1395 499.547 98.3636C493.075 98.9942 448.507 103.781 448.281 103.87C448.139 103.926 448.779 103.981 449.703 103.992C455.709 104.067 500.23 105.331 500.328 105.429C500.613 105.714 498.494 105.878 473.489 107.503C459.056 108.44 446.84 109.281 446.342 109.37C445.418 109.537 487.313 110.938 494.258 110.973C497.203 110.988 498.068 111.068 497.986 111.316C497.92 111.515 497.291 111.666 496.348 111.708C489.878 112 445.069 114.377 444.662 114.449C444.371 114.501 444.497 114.557 444.948 114.577C445.389 114.596 453.94 115.136 463.95 115.776C473.96 116.415 483.662 117.026 485.51 117.133C487.359 117.239 488.813 117.428 488.742 117.551C488.605 117.789 474.521 117.802 454.099 117.585C447.344 117.513 441.934 117.509 442.077 117.576C442.314 117.688 474.205 122.493 475.925 122.676C476.34 122.72 476.73 122.906 476.79 123.089C476.875 123.347 476.531 123.388 475.258 123.271C473.11 123.074 436.446 121.32 436.355 121.411C436.289 121.477 464.066 128.291 471.408 130.01C473.32 130.458 474.932 130.965 474.99 131.137C475.064 131.36 474.843 131.406 474.227 131.298C472.802 131.046 435.636 126.525 435.567 126.594C435.515 126.646 444.023 129.134 466.831 135.735C468.036 136.084 468.631 136.786 467.478 136.499C466.321 136.21 427.527 129.09 427.18 129.103C426.984 129.11 435.021 131.907 445.04 135.319C455.059 138.732 463.31 141.576 463.374 141.641C463.795 142.061 460.938 141.592 440.517 137.889C428.019 135.623 417.77 133.792 417.741 133.821C417.696 133.867 429.616 138.588 448.665 146.069C452.004 147.38 454.781 148.588 454.836 148.752C454.898 148.94 454.755 148.994 454.452 148.898C452.898 148.406 418.07 139.179 418.006 139.243C417.929 139.32 450.374 152.614 451.966 153.156C452.995 153.507 453.1 154.04 452.095 153.814C451.704 153.725 442.368 151.044 431.348 147.856C420.328 144.668 411.29 142.081 411.265 142.106C411.239 142.132 418.75 145.816 427.956 150.293C437.161 154.771 444.703 158.55 444.716 158.692C444.745 159.009 447.433 159.894 426.322 152.638C416.378 149.219 408.207 146.457 408.164 146.499C408.122 146.542 413.757 149.702 420.687 153.522C427.617 157.342 435.584 161.734 438.393 163.282C441.201 164.831 443.499 166.218 443.499 166.365C443.499 166.516 443.302 166.555 443.046 166.453C439.767 165.148 403.314 151.608 403.251 151.671C403.203 151.719 405.346 153.159 408.013 154.871C414.421 158.985 434.955 172.206 435.613 172.642C436.871 173.475 435.613 173.209 433.391 172.171C432.054 171.547 423.467 167.53 414.309 163.245C405.152 158.96 397.626 155.486 397.586 155.527C397.528 155.585 419.082 175.191 423.204 178.829C423.846 179.396 424.086 179.745 423.837 179.752C423.617 179.758 423.326 179.655 423.191 179.523C422.86 179.2 394.056 162.154 393.99 162.242C393.946 162.301 401.787 169.729 412.93 180.186C415.504 182.601 415.956 183.437 414.03 182.222C410.214 179.813 399.448 174.265 392.864 171.315C386.878 168.633 376.385 164.576 376.119 164.842C376.071 164.89 377.862 165.9 380.098 167.087C391.886 173.339 403.435 179.926 410.406 184.374C411.773 185.246 410.224 184.935 407.94 183.879C404.365 182.226 394.09 178.001 387.242 175.369C381.225 173.055 367.492 168.299 367.322 168.469C367.275 168.515 375.379 172.321 385.331 176.926C400.798 184.082 405.227 186.271 402.973 185.644C402.724 185.574 395.435 183.524 386.774 181.087C378.113 178.65 370.986 176.697 370.935 176.748C370.885 176.798 372.271 177.371 374.014 178.022C382.708 181.264 399.93 187.815 400.033 187.918C400.478 188.363 397.766 187.819 380.024 183.904C369.094 181.491 360.114 179.555 360.069 179.6C360.024 179.645 367.565 182.705 376.828 186.4L393.669 193.119L398.819 191.48C426.809 182.57 449.11 178.369 489.776 174.346C530.677 170.3 572.139 169.423 593.836 172.144C612.799 174.523 622.378 177.746 634.426 185.799C638.94 188.816 647.741 195.799 647.741 196.364C647.741 196.743 647.349 196.572 633.644 190.205C626.111 186.706 619.546 183.669 619.055 183.457L618.161 183.072L619.055 184.068C621.762 187.079 639.752 207.171 640.598 208.127C641.807 209.493 641.645 209.874 640.308 208.81C639.775 208.386 633.172 203.288 625.636 197.481C618.1 191.674 611.186 186.333 610.272 185.611C609.358 184.89 608.719 184.48 608.85 184.701C608.982 184.921 614.151 191.935 620.336 200.286C626.521 208.637 631.744 215.699 631.942 215.979C632.54 216.828 631.973 216.918 631.265 216.087C629.662 214.205 612.211 195.041 612.153 195.098C612.118 195.134 614.651 200.22 617.781 206.4C629.072 228.69 629.955 230.469 629.8 230.624C629.606 230.818 631.929 234.001 613.866 208.788C605.286 196.811 598.222 187.054 598.17 187.106C598.118 187.158 601.006 197.164 604.589 209.342C610.081 228.012 611.326 232.574 610.691 231.707C610.62 231.61 605.943 220.866 595.037 195.746C592.958 190.957 591.221 187.075 591.177 187.119C591.133 187.163 592.576 195.997 594.383 206.75C597.188 223.434 597.738 227.23 597.251 226.536C597.209 226.477 594.223 218.285 590.615 208.331C587.007 198.377 583.977 190.143 583.883 190.032C583.789 189.92 583.751 190.153 583.8 190.549C583.974 191.969 587.761 237.356 587.761 238.025C587.761 238.401 587.644 238.709 587.502 238.709C587.36 238.709 587.244 238.53 587.244 238.311C587.244 237.927 577.37 195.683 576.913 194.112C576.78 193.654 576.681 202.407 576.671 215.439C576.661 230.25 576.568 237.571 576.391 237.63C576.246 237.678 576.127 237.513 576.127 237.262C576.127 236.717 567.328 194.935 567.18 194.779C567.124 194.72 567.07 201.875 567.061 210.679C567.043 228.013 566.903 235.96 566.615 236.053C566.514 236.086 566.01 234.399 565.495 232.305C564.979 230.21 562.769 221.458 560.583 212.855L556.607 197.214L556.431 207.685C556.334 213.443 556.218 223.391 556.173 229.789C556.122 236.879 555.995 241.423 555.845 241.423C555.711 241.423 553.708 231.883 551.396 220.223C549.083 208.564 547.142 198.849 547.082 198.636C547.022 198.423 546.952 206.217 546.927 215.958C546.874 236.388 546.731 243.714 546.383 243.836C546.247 243.884 546.142 243.767 546.15 243.578C546.173 242.96 537.995 205.084 537.917 205.445C537.875 205.638 538.718 213.766 539.791 223.506C540.864 233.247 541.742 241.467 541.742 241.772C541.742 243.06 541.301 242.126 540.509 239.159C537.997 229.755 529.877 200.908 529.865 201.35C529.858 201.635 530.549 211.112 531.401 222.411C533.091 244.804 533.067 244.396 532.693 244.396C532.551 244.396 532.436 244.251 532.439 244.073C532.444 243.711 520.719 198.629 520.641 198.712C520.614 198.741 521.102 208.48 521.725 220.353C522.347 232.226 522.86 242.493 522.863 243.168C522.869 244.57 522.488 244.811 522.248 243.556C521.904 241.759 511.003 202.673 510.982 203.16C510.969 203.445 511.622 213.479 512.431 225.46C513.702 244.255 513.886 248.08 513.491 247.477C513.452 247.418 511.154 238.255 508.385 227.116C505.615 215.976 503.318 207.018 503.28 207.209C503.242 207.399 504.027 216.317 505.025 227.026C506.985 248.063 506.962 247.757 506.581 247.757C506.439 247.757 506.322 247.62 506.322 247.452C506.322 247.226 494.35 209.852 493.79 208.331C493.557 207.696 493.746 210.281 495.205 227.632C496.886 247.621 496.878 247.499 496.498 247.499C496.356 247.499 496.24 247.354 496.24 247.176C496.24 246.692 486.073 209.492 485.969 209.596C485.92 209.645 486.524 217.859 487.311 227.848C488.098 237.838 488.742 246.346 488.742 246.755C488.742 247.54 488.232 247.823 488.216 247.046C488.211 246.798 486.005 237.81 483.315 227.075C480.625 216.339 478.474 208.021 478.535 208.589C479.042 213.334 481.802 249.096 481.671 249.226C481.429 249.469 481.993 251.01 473.482 226.862C469.155 214.587 465.581 204.648 465.539 204.775C465.497 204.901 466.628 214.078 468.053 225.168C470.842 246.87 470.769 246.206 470.386 246.206C470.244 246.206 470.129 246.061 470.13 245.883C470.133 245.445 460.483 210.521 460.386 210.618C460.344 210.66 461.413 219.179 462.762 229.549C465.398 249.817 465.341 249.309 464.957 249.309C464.815 249.309 464.698 249.163 464.698 248.986C464.698 248.247 454.48 211.22 454.41 211.707C454.368 211.999 454.865 220.026 455.514 229.545C457.108 252.921 457.065 252.152 456.752 252.152C456.605 252.152 456.408 251.658 456.314 251.054C455.841 247.986 447.929 212.615 447.915 213.502C447.906 214.07 448.127 222.098 448.406 231.34C448.685 240.583 448.937 248.953 448.964 249.941C448.997 251.118 448.91 251.771 448.712 251.836C448.546 251.892 448.415 251.782 448.419 251.592C448.436 250.934 441.822 222.051 441.745 222.449C441.669 222.846 445.169 251.897 445.457 253.251C445.55 253.691 445.498 253.962 445.321 253.962C444.963 253.962 445.487 255.819 440.886 238.261C438.715 229.981 436.902 223.244 436.856 223.29C436.809 223.336 437.589 230.227 438.589 238.604C439.589 246.98 440.433 254.066 440.466 254.35C440.499 254.634 440.411 254.867 440.271 254.867C440.131 254.867 438.9 251.261 437.536 246.853C436.172 242.445 434.196 236.064 433.145 232.673C432.094 229.283 431.199 226.615 431.156 226.745C431.093 226.931 433.846 246.369 434.598 251.054C434.695 251.658 434.671 252.152 434.543 252.152C434.416 252.152 431.707 245.492 428.523 237.351C425.34 229.211 422.597 222.274 422.428 221.937L422.122 221.323L422.216 222.712C422.336 224.488 423.591 252.611 423.591 253.53C423.591 254.562 423.164 254.363 422.992 253.251C422.494 250.028 417.791 223.481 417.729 223.544C417.687 223.585 416.998 230.534 416.197 238.985C415.397 247.436 414.697 254.398 414.642 254.458C414.346 254.778 414.16 253.223 413.111 241.646C412.481 234.698 411.935 228.85 411.897 228.65C411.827 228.282 406.244 256.644 406.26 257.28C406.265 257.47 406.148 257.584 405.999 257.535C405.817 257.474 405.727 254.144 405.723 247.366C405.72 241.822 405.671 237.403 405.614 237.545C405.557 237.687 404.748 242.567 403.816 248.388C402.884 254.209 402.066 259.028 401.998 259.096C401.734 259.359 401.636 258.798 400.813 252.353C400.347 248.695 399.935 245.733 399.899 245.769C399.862 245.805 399.813 248.945 399.789 252.746C399.766 256.547 399.652 259.715 399.536 259.786C399.421 259.857 397.733 257.234 395.784 253.956C393.836 250.678 392.199 248.04 392.146 248.092C392.093 248.145 392.929 251.362 394.004 255.24C395.079 259.118 395.896 262.354 395.82 262.43C395.642 262.608 395.796 262.735 388.694 256.571C385.35 253.668 382.392 251.109 382.12 250.883L381.627 250.472L381.862 250.876C382.075 251.243 391.246 264.832 391.419 265.038C391.46 265.086 396.301 264.883 402.178 264.586C415.073 263.935 432.797 263.154 446.472 262.634C484.232 261.197 519.754 261.197 546.654 262.632C592.143 265.059 628.754 271.63 673.336 285.368C689.563 290.369 717.12 300.013 716.593 300.506C716.477 300.615 713.473 300.079 709.918 299.316C706.363 298.553 703.281 297.925 703.069 297.921C702.857 297.917 704.139 298.707 705.919 299.677C711.95 302.963 717.126 306.441 721.728 310.298C724.317 312.467 726.77 315.047 726.372 315.18C726.247 315.221 716.625 310.658 704.99 305.04C693.356 299.421 683.805 294.855 683.766 294.894C683.728 294.932 686.164 297.074 689.181 299.654C697.846 307.065 703.505 312.418 702.636 312.382C702.518 312.377 694.742 307.685 685.357 301.954C675.973 296.223 668.254 291.566 668.204 291.604C668.097 291.686 684.574 310.466 684.963 310.706C685.294 310.911 685.311 311.357 684.987 311.357C684.855 311.357 680.695 308.726 675.745 305.51C670.794 302.295 666.599 299.607 666.423 299.538C666.248 299.468 668.967 304.024 672.466 309.662C675.965 315.299 678.759 319.981 678.675 320.064C678.507 320.233 677.966 319.781 665.709 309.208C661.016 305.161 657.134 301.889 657.082 301.937C657.029 301.986 658.573 305.363 660.512 309.444C662.451 313.524 663.976 316.925 663.899 317.001C663.822 317.078 663.326 316.731 662.796 316.232C662.265 315.732 657.352 311.095 651.877 305.928C646.403 300.761 641.417 296.058 640.798 295.478L639.673 294.423L640.696 296.103C641.258 297.028 644.716 302.61 648.38 308.508C652.044 314.406 655.098 319.38 655.168 319.56C655.553 320.564 654.047 319.124 647.066 311.809C642.825 307.366 638.621 302.974 637.724 302.05L636.094 300.369L636.604 301.588C643.145 317.211 647.235 327.202 647.131 327.306C646.838 327.599 646.131 326.521 636.344 310.859C630.749 301.904 626.141 294.607 626.106 294.643C626.07 294.678 628.55 300.635 631.617 307.88C637.042 320.695 637.734 322.453 637.235 322.144C637.104 322.063 633.576 316.811 629.396 310.474C625.217 304.137 621.756 298.992 621.707 299.041C621.657 299.091 623.385 304.673 625.546 311.447C627.706 318.221 629.38 323.851 629.265 323.959C629.15 324.066 629.012 324.033 628.958 323.886C628.674 323.102 615.033 298.956 614.974 299.133C614.936 299.249 616.184 305.096 617.749 312.126C620.745 325.585 620.743 325.576 620.336 325.576C620.194 325.576 616.53 318.479 612.192 309.806C607.855 301.132 604.259 294.035 604.201 294.035C604.144 294.035 604.145 294.239 604.204 294.487C604.263 294.736 605.419 301.455 606.773 309.418C608.127 317.381 609.295 324.09 609.367 324.326C609.643 325.229 608.957 325.033 608.575 324.1C607.143 320.606 596.943 297.435 596.869 297.509C596.793 297.585 601.932 323.1 602.397 324.955C602.679 326.077 602.074 325.605 601.287 324.09C592.287 306.756 585.608 294.034 585.542 294.099C585.468 294.174 594.47 324.596 594.868 325.615C594.96 325.849 594.933 326.104 594.809 326.181C594.684 326.258 591.219 319.295 587.108 310.708C582.997 302.121 579.607 295.122 579.575 295.154C579.542 295.187 581.605 302.423 584.158 311.235C586.712 320.047 588.873 327.577 588.96 327.968C589.156 328.851 588.666 328.927 588.364 328.06C588.063 327.196 570.101 290.667 570.018 290.75C569.942 290.827 578.363 323.686 579.36 327.204C580.074 329.72 580.111 329.971 579.771 329.971C579.642 329.971 579.367 329.477 579.161 328.873C578.655 327.392 564.508 293.233 564.197 292.742C564.005 292.44 563.981 292.468 564.085 292.872C564.159 293.156 565.68 300.195 567.466 308.513C569.251 316.831 571 324.839 571.351 326.308C572.06 329.269 572.097 329.551 571.752 329.337C571.621 329.256 571.256 328.406 570.941 327.448C570.626 326.49 567.372 317.387 563.711 307.22C560.049 297.053 556.733 287.83 556.342 286.724C555.951 285.618 555.591 284.754 555.542 284.802C555.493 284.851 557.385 294.632 559.747 306.537C563.417 325.043 564.138 329.089 563.639 328.399C563.597 328.339 562.441 324.161 561.072 319.113C555.601 298.941 552.25 286.802 552.175 286.877C552.092 286.959 556.61 326.603 556.872 328.097C557.012 328.901 556.579 329.346 556.369 328.614C556.318 328.436 554.257 320.588 551.788 311.174C549.32 301.759 547.264 294.16 547.22 294.287C547.146 294.5 548.187 302.835 550.803 322.967C551.365 327.291 551.825 331.043 551.825 331.305C551.825 332.506 551.366 331.519 550.574 328.613C549.814 325.822 540.307 292.17 538.944 287.442L538.422 285.633L538.401 287.442C538.39 288.438 538.669 299.548 539.02 312.132C539.372 324.717 539.68 335.856 539.706 336.886C539.732 337.916 539.654 338.789 539.534 338.825C539.413 338.861 537.887 330.049 536.143 319.242C534.398 308.435 532.916 299.361 532.849 299.076C532.782 298.792 532.789 306.761 532.865 316.786C532.94 326.811 533.019 335.088 533.041 335.181C533.063 335.273 532.965 335.366 532.825 335.386C532.684 335.407 531.113 327.658 529.334 318.166C527.556 308.674 526.064 301.213 526.021 301.586C525.954 302.152 527.391 334.199 527.588 336.542C527.624 336.965 527.51 337.343 527.328 337.404C527.151 337.463 527.008 337.357 527.012 337.167C527.028 336.371 518.855 302.071 518.784 302.637C518.741 302.978 519.352 311.113 520.141 320.716C520.93 330.318 521.576 338.482 521.576 338.856C521.576 339.708 521.16 339.751 521.001 338.917C520.826 338.005 511.116 304.927 511.044 304.999C511.01 305.032 511.795 314.067 512.789 325.075C513.783 336.084 514.596 345.354 514.596 345.675C514.596 346.958 514.166 346.105 513.359 343.218C511.668 337.168 504.803 313.819 504.789 314.071C504.781 314.214 505.355 320.089 506.064 327.127C507.474 341.13 507.471 341.088 507.098 341.088C506.956 341.088 506.842 340.943 506.846 340.765C506.857 340.213 498.963 307.451 498.88 307.702C498.837 307.832 498.238 313.623 497.549 320.571L496.297 333.203L497.755 334.754C498.557 335.607 503.459 340.708 508.649 346.089C517.923 355.704 518.629 356.481 517.922 356.302C517.677 356.24 487.073 339.66 480.947 336.271C480.715 336.142 481.678 339.819 481.939 340.058C482.557 340.623 492.914 347.76 499.213 351.96C513.726 361.639 523.756 367.726 540.662 377.116C556.306 385.805 556.498 385.944 564.484 394.371C569.868 400.053 572.341 402.416 575.868 405.247C580.974 409.347 588.389 414.295 592.608 416.419C593.639 416.938 594.483 417.477 594.483 417.618C594.483 418.002 594.054 417.929 592.921 417.351C592.359 417.064 590.007 416.002 587.696 414.992C582.27 412.621 581.659 412.364 581.815 412.516C581.886 412.586 585.492 415.29 589.829 418.524C599 425.364 597.97 424.554 597.763 424.762C597.671 424.853 595.48 423.981 592.892 422.824C590.305 421.667 588.155 420.754 588.114 420.795C588.054 420.855 610.028 438.659 611.524 439.763C611.749 439.929 611.858 440.139 611.767 440.231C611.675 440.322 607.894 438.49 603.365 436.158C598.835 433.826 595.095 431.943 595.054 431.973C595.013 432.003 596.729 434.551 598.867 437.636C602.385 442.71 603.014 443.726 602.635 443.726C602.569 443.726 601.318 442.879 599.856 441.843C598.394 440.807 596.034 439.163 594.612 438.189L592.027 436.42L598.995 443.424C602.828 447.277 605.888 450.505 605.794 450.598C605.701 450.692 598.551 446.9 589.906 442.172C571.619 432.171 573.605 433.239 573.929 433.585C574.251 433.93 612.267 458.975 612.748 459.16C612.94 459.233 613.097 459.464 613.097 459.671C613.097 459.928 611.842 459.393 609.154 457.991C606.986 456.86 597.999 452.244 589.183 447.735C580.367 443.226 571.467 438.66 569.405 437.589C567.343 436.519 565.772 435.762 565.915 435.909C566.057 436.056 575.364 442.821 586.597 450.942C610.824 468.458 608.356 466.632 608.127 466.872C608.023 466.98 607.791 466.948 607.609 466.801C606.835 466.173 564.75 440.442 565.139 440.834C565.281 440.977 575.926 449.841 588.795 460.53C617.109 484.05 614.556 481.892 614.337 482.121C614.237 482.225 613.714 481.964 613.174 481.54C611.911 480.548 570.178 450.37 569.663 450.077C569.081 449.745 568.137 448.883 593.061 471.406C605.858 482.971 618.001 493.946 620.045 495.797C622.088 497.647 623.646 499.199 623.505 499.246C623.365 499.293 615.702 493.961 606.475 487.398C597.249 480.835 589.351 475.231 588.924 474.945C588.498 474.658 596.089 482.374 605.794 492.092C615.498 501.809 623.438 509.793 623.438 509.835C623.438 510.192 622.564 509.64 620.773 508.152C616.038 504.217 586.685 480.654 586.621 480.737C586.583 480.786 594.328 490.017 603.831 501.25C622.1 522.844 622.04 522.771 621.809 523.002C621.728 523.083 620.281 521.713 618.594 519.956C591.545 491.788 581.815 481.712 581.815 481.87C581.815 481.965 593.313 503.123 600.706 516.633C603.079 520.97 604.956 524.628 604.876 524.762C604.797 524.896 604.629 524.838 604.503 524.633C600.036 517.351 580.767 486.287 580.643 486.167C580.546 486.073 580.64 486.404 580.851 486.902C582.177 490.031 597.089 523.938 597.428 524.593C598.327 526.332 597.733 526.441 596.777 524.712C596.404 524.037 591.179 514.584 585.166 503.706C579.154 492.829 574.135 483.817 574.014 483.68C573.893 483.543 573.966 483.95 574.176 484.585C574.386 485.219 577.345 494.638 580.751 505.516C584.158 516.394 587.066 525.61 587.214 525.996C587.386 526.445 587.392 526.753 587.232 526.852C587.094 526.938 586.925 526.854 586.856 526.668C583.158 516.703 571.098 485.122 571.019 485.201C570.938 485.282 579.776 525.939 580.267 527.742C580.684 529.273 580.085 529.249 579.638 527.718C576.012 515.302 566.154 483.345 566.097 483.823C566.038 484.313 568.099 519.55 568.434 523.798C568.47 524.255 568.384 524.616 568.241 524.6C568.099 524.584 567.739 522.755 567.442 520.537C565.995 509.751 562.553 485.652 562.472 485.734C562.421 485.785 562.506 491.1 562.66 497.546C563.244 521.998 563.268 523.747 563.014 523.484C562.876 523.342 562.095 516.711 561.277 508.748C560.459 500.785 559.54 491.885 559.233 488.97L558.676 483.67L558.482 493.753C558.046 516.427 557.96 519.511 557.773 519.305C557.665 519.186 556.857 510.482 555.976 499.962C555.096 489.442 554.325 480.785 554.264 480.723C554.202 480.661 554.152 481.241 554.153 482.011C554.156 484.497 552.819 516.759 552.708 516.87C552.443 517.135 552.257 515.641 550.157 496.335C548.936 485.103 547.901 475.681 547.858 475.397C547.611 473.778 547.431 477.443 546.91 494.658C546.594 505.109 546.24 513.762 546.125 513.888C545.85 514.185 546.003 515.242 543.145 493.236C541.778 482.713 540.612 474.056 540.554 473.996C540.496 473.937 540.511 475.1 540.588 476.582C540.871 482.062 541.748 514.128 541.618 514.258C541.341 514.534 541.24 513.828 539.312 498.148C538.229 489.332 537.059 479.966 536.713 477.336L536.083 472.553L536.2 487.289C536.264 495.394 536.389 505.022 536.477 508.683C536.59 513.383 536.554 515.34 536.357 515.34C536.203 515.34 536.013 514.962 535.935 514.5C535.856 514.038 534.337 504.411 532.559 493.106C530.78 481.802 529.277 472.437 529.22 472.294C529.162 472.152 529.105 480.814 529.094 491.542C529.083 502.271 528.975 510.938 528.854 510.803C528.734 510.668 527.971 504.682 527.158 497.502C526.346 490.321 525.639 484.329 525.588 484.187C525.537 484.045 525.486 489.6 525.474 496.532C525.455 508.207 525.257 511.602 524.825 507.649C522.79 489.028 521.834 480.076 521.834 479.622C521.834 479.312 521.777 479.117 521.706 479.188C521.635 479.259 521.173 485.577 520.677 493.229C519.855 505.943 519.703 507.633 519.413 507.304C519.36 507.245 518.773 500.511 518.107 492.34C517.441 484.168 516.844 477.43 516.78 477.366C516.716 477.302 516.665 477.415 516.666 477.616C516.67 478.574 513.723 499.726 513.559 499.91C513.289 500.214 513.077 495.377 512.884 484.502C512.791 479.272 512.67 475.038 512.615 475.093C512.56 475.149 511.324 480.358 509.869 486.671C508.414 492.983 507.123 498.177 507 498.212C506.762 498.281 506.756 493.71 506.973 479.404C507.054 474.062 507.015 470.692 506.876 471.002C506.625 471.563 499.775 489.068 499.516 489.81C499.429 490.059 499.238 490.263 499.092 490.263C498.771 490.263 498.77 490.167 499.076 488.841C499.599 486.568 502.971 467.929 502.899 467.711C502.856 467.583 499.81 472.982 496.129 479.71C492.449 486.438 489.397 491.992 489.348 492.051C488.711 492.821 489.653 489.743 493.473 478.576C495.967 471.283 497.973 465.281 497.931 465.238C497.888 465.196 495.381 469.643 492.358 475.12C489.336 480.598 486.78 485.029 486.68 484.966C486.579 484.904 488.052 479.131 489.952 472.138C491.853 465.145 493.376 459.393 493.337 459.356C493.298 459.319 491.003 464.6 488.237 471.092C485.47 477.583 483.173 482.943 483.131 483.002C482.709 483.597 482.942 480.766 484.322 468.52C485.205 460.683 485.892 454.234 485.848 454.19C485.78 454.122 478.121 492.874 476.127 503.382C475.484 506.77 475.04 508.012 475.04 506.424C475.04 506.07 476.203 492.38 477.624 476.002C479.046 459.624 480.18 446.195 480.145 446.16C480.075 446.091 467.359 505.829 467.111 507.39C466.94 508.473 466.508 508.712 466.508 507.724C466.508 507.375 467.733 493.221 469.231 476.272C470.728 459.323 471.921 445.36 471.881 445.243C471.802 445.013 461.045 501.558 461.066 502.091C461.073 502.268 460.946 502.414 460.784 502.414C460.408 502.414 460.186 504.529 464.041 471.285C465.837 455.799 467.272 442.965 467.23 442.763C467.164 442.442 456.128 494.805 455.734 497.308C455.586 498.25 455.133 498.68 455.133 497.877C455.133 497.657 457.229 483.505 459.792 466.428C462.354 449.35 464.414 435.342 464.371 435.298C464.294 435.221 449.788 490.494 449.148 493.3C448.812 494.777 448.282 495.181 448.47 493.817C448.534 493.355 451.168 480.368 454.324 464.957C457.48 449.545 460.026 436.9 459.981 436.855C459.911 436.785 445.839 486.879 443.834 494.335C443.223 496.606 442.723 497.675 442.723 496.709C442.723 496.557 446.156 482.694 450.352 465.902C454.548 449.111 457.951 435.342 457.914 435.305C457.877 435.268 453.019 449.706 447.118 467.391C441.217 485.075 436.288 499.55 436.166 499.557C435.821 499.577 435.869 499.378 441.244 478.499C449.101 447.984 450.521 442.389 450.43 442.298C450.383 442.252 446.742 453.673 442.339 467.678C435.395 489.759 433.674 494.864 433.674 493.378C433.674 493.112 437.243 479.043 446.232 443.875C447.428 439.194 448.373 435.329 448.331 435.288C448.289 435.246 447.438 437.505 446.44 440.309C439.657 459.36 428.643 490.152 428.58 490.241C427.969 491.105 429.296 485.862 435.453 463.085C439.457 448.272 442.696 436.115 442.65 436.07C442.605 436.025 437.926 448.403 432.253 463.577C426.58 478.752 421.903 491.216 421.86 491.275C421.247 492.117 422.593 487.065 428.856 465.02C432.924 450.698 436.218 438.945 436.174 438.901C436.09 438.817 416.399 488.605 416.17 489.484C416.032 490.009 415.577 490.217 415.577 489.754C415.577 489.617 418.782 478.609 422.7 465.293C426.618 451.977 429.781 441.04 429.73 440.988C429.65 440.909 412.321 484.651 411.002 488.259C410.546 489.507 409.985 489.966 410.212 488.905C410.28 488.585 413.605 477.742 417.601 464.809C421.596 451.876 424.833 441.263 424.794 441.224C424.732 441.161 411.693 473.999 407.53 484.704C405.747 489.289 405.823 489.127 405.572 488.876C405.473 488.776 405.889 487.274 406.497 485.536C410.501 474.089 422.542 438.971 422.482 438.912C422.416 438.845 402.532 485.704 401.817 487.613C401.461 488.563 400.969 488.76 401.171 487.871C401.244 487.551 405.272 475.957 410.122 462.105C414.972 448.254 418.9 436.881 418.851 436.831C418.772 436.753 400.305 479.774 399.487 481.941C399.184 482.742 398.772 483.054 398.772 482.481C398.772 482.325 401.091 475.141 403.924 466.516C413.576 437.144 416.849 427.074 416.771 426.995C416.701 426.926 400.817 463.185 399.079 467.381C398.404 469.012 397.809 469.654 398.061 468.481C398.13 468.161 400.883 459.364 404.18 448.932C407.476 438.499 410.128 429.918 410.072 429.862C410.016 429.806 409.547 430.896 409.03 432.284C399.443 458.017 396.956 464.541 396.698 464.626C396.484 464.698 396.451 464.543 396.588 464.117C397.06 462.65 408.307 420.341 408.242 420.277C408.171 420.205 393.987 459.947 393.161 462.535C392.922 463.281 392.633 463.892 392.518 463.892C392.188 463.892 392.264 463.377 392.942 461.037C394.817 454.563 406.014 414.17 405.951 414.107C405.91 414.066 401.641 424.96 396.464 438.316C391.287 451.672 386.942 462.599 386.808 462.599C386.674 462.599 386.63 462.338 386.711 462.018C387.346 459.485 394.112 428.122 394.04 428.05C393.988 427.998 393.459 429.498 392.864 431.382C388.696 444.575 383.767 459.371 383.511 459.456C383.318 459.521 383.26 459.38 383.352 459.075C383.564 458.373 389.468 426.133 389.447 425.789C389.429 425.494 386.358 435.621 382.259 449.491C381.007 453.728 379.876 457.182 379.747 457.165C379.617 457.149 379.537 456.998 379.568 456.83C380.695 450.791 385.314 424.495 385.258 424.438C385.214 424.395 382.522 430.898 379.276 438.89C376.029 446.882 373.329 453.47 373.275 453.529C372.818 454.031 373.354 451.548 376.396 439.06C378.313 431.189 379.847 424.715 379.805 424.673C379.763 424.631 377.404 430.144 374.563 436.924C371.722 443.705 369.24 449.305 369.049 449.368C368.805 449.45 368.753 449.346 368.876 449.024C369.11 448.416 375.528 417.035 375.437 416.944C375.399 416.906 373.042 422.789 370.2 430.019C367.358 437.248 364.917 443.144 364.775 443.122C364.633 443.099 364.55 442.979 364.591 442.856C364.894 441.946 371.097 415.707 371.026 415.636C370.976 415.585 369.039 420.635 366.722 426.856C364.406 433.078 362.409 438.278 362.285 438.414C361.844 438.895 362.093 437.63 365.171 423.784C366.881 416.086 368.239 409.746 368.188 409.695C368.112 409.62 360.449 432.095 359.867 434.096C359.647 434.854 359.119 434.854 359.278 434.096C359.345 433.776 360.993 426.142 362.941 417.132C364.888 408.122 366.444 400.712 366.398 400.666C366.351 400.62 364.063 407.003 361.313 414.85C358.563 422.698 356.21 429.23 356.084 429.365C355.654 429.827 355.854 428.68 358.966 412.868C360.677 404.174 362.145 396.712 362.228 396.285C362.638 394.183 362.393 394.925 353.105 423.884C352.686 425.191 352.047 425.635 352.36 424.401C352.834 422.532 360.462 387.749 360.409 387.697C360.376 387.664 357.398 394.818 353.793 403.595C347.511 418.885 346.951 420.178 346.708 419.924C346.65 419.862 348.559 411.844 350.951 402.105C353.343 392.366 355.273 384.37 355.239 384.337C355.205 384.303 352.511 390.493 349.251 398.092C345.991 405.691 343.254 411.825 343.167 411.724C343.081 411.622 343.971 405.78 345.146 398.742C346.32 391.703 347.247 385.911 347.207 385.87C347.136 385.799 342.79 396.176 341.137 400.364C340.172 402.808 340.163 403.197 341.014 405.323C341.895 407.524 341.758 407.739 340.28 406.474L339.053 405.425L337.784 406.801C336.242 408.474 336.074 408.382 336.73 406.226C337.009 405.309 337.238 404.428 337.239 404.269C337.241 404.034 323.984 392.829 322.166 391.528L321.66 391.166L321.888 391.548C322.094 391.892 328.662 401.207 363.693 450.836C369.514 459.083 374.333 465.977 374.401 466.154C374.715 466.972 373.925 466.29 372.15 464.214C365.622 456.575 325.138 409.85 324.494 409.212L323.712 408.436L324.49 409.471C324.918 410.039 333.336 421.324 343.197 434.548C353.058 447.772 364.25 462.764 368.069 467.862C371.887 472.961 374.972 477.253 374.922 477.4C374.84 477.646 367.065 468.778 327.829 423.69C320.033 414.732 313.415 407.17 313.122 406.885L312.59 406.368L313.069 407.144C313.332 407.57 327.681 429.122 344.956 455.037C362.231 480.952 376.279 502.242 376.172 502.349C376.066 502.455 375.766 502.251 375.506 501.896C375.246 501.541 369.001 493.746 361.629 484.575C354.257 475.403 342.544 460.832 335.601 452.193C328.658 443.555 322.926 436.487 322.862 436.487C322.703 436.487 325.598 440.906 361.714 495.784C367.876 505.149 372.919 512.914 372.919 513.041C372.919 513.453 372.617 513.287 372.051 512.564C371.746 512.175 365.454 504.526 358.068 495.566C350.683 486.606 340.574 474.33 335.604 468.287C330.634 462.244 326.451 457.183 326.308 457.041C325.83 456.565 326.424 457.485 329.23 461.565C330.746 463.769 341.562 479.592 353.267 496.726C364.972 513.86 375.587 529.373 376.856 531.198C378.126 533.024 379.094 534.587 379.008 534.673C378.792 534.889 379.817 536.09 362.186 514.953C353.41 504.43 346.045 495.647 345.821 495.433L345.413 495.046L345.689 495.433C346.173 496.115 377.86 539.606 381.038 543.951C383.915 547.885 384.249 548.411 383.891 548.448C383.811 548.456 379.66 544.122 374.666 538.817C355.674 518.642 349.606 512.238 349.479 512.238C349.407 512.238 349.749 512.791 350.24 513.466C350.73 514.141 357.213 523.478 364.646 534.213C372.08 544.949 378.514 554.227 378.944 554.831C379.953 556.246 379.595 556.64 378.519 555.299C376.839 553.204 339.757 509.756 339.12 509.136C338.756 508.78 339.446 509.943 340.654 511.721C357.807 536.958 372.576 558.639 373.99 560.657C374.965 562.049 375.763 563.241 375.763 563.307C375.763 563.683 375.119 563.317 374.518 562.598C370.65 557.977 334.284 516.777 335.086 517.926C336.734 520.284 355.326 546.693 361.995 556.149C366.743 562.881 370.559 568.459 370.474 568.544C370.267 568.751 371.531 570.181 352.233 547.916C342.805 537.038 334.974 528.021 334.83 527.879C334.277 527.332 336.082 530.143 350.771 552.699C359.105 565.496 365.801 576.009 365.652 576.06C365.502 576.111 365.229 575.936 365.043 575.672C364.525 574.934 336.481 541.394 335.89 540.806C335.604 540.522 336.535 542.042 337.959 544.185C357.507 573.604 364.136 583.7 364.058 583.935C364.006 584.089 363.455 583.523 362.832 582.677C358.253 576.45 331.146 540.209 330.837 539.901C330.624 539.688 331.267 541.084 332.266 543.004C333.266 544.923 338.764 555.568 344.485 566.659C350.206 577.751 356.036 589.023 357.44 591.709C359.947 596.506 360.187 597.047 359.798 597.027C359.691 597.022 354.485 588.946 348.229 579.082C341.972 569.218 336.828 561.172 336.796 561.202C336.765 561.233 341.459 572.05 347.227 585.242C352.995 598.433 357.645 609.295 357.56 609.379C357.356 609.583 358.078 610.799 350.303 597.167C346.491 590.483 343.272 584.904 343.149 584.768C342.955 584.554 347.228 597.31 349.018 602.288C350.086 605.26 349.729 605.405 348.238 602.606C347.674 601.548 347.178 600.717 347.135 600.759C347.078 600.817 351.072 610.572 352.148 613.002C352.516 613.833 351.472 613.156 350.442 611.896C349.811 611.124 349.262 610.525 349.221 610.566C349.18 610.607 349.668 612.011 350.304 613.688C350.94 615.365 351.46 616.841 351.46 616.97C351.46 617.58 350.976 617.03 349.944 615.248C349.323 614.176 348.764 613.35 348.702 613.412C348.639 613.474 349.29 617.074 350.148 621.411C369.706 720.333 380.393 693.533 382.422 785.403C382.719 798.858 382.931 779.973 382.586 783.658L382.422 785.403H346.648L300 785.992V785.403ZM467.46 441.61C467.378 441.403 467.317 441.465 467.304 441.766C467.293 442.038 467.354 442.191 467.44 442.105C467.526 442.019 467.535 441.796 467.46 441.61ZM218.052 422.785L218.604 421.363L217.714 422.268L216.824 423.173L216.681 424.724L216.539 426.275L217.019 425.241C217.283 424.672 217.748 423.567 218.052 422.785ZM39.6873 415.067C39.4295 414.406 37.5579 409.529 35.5283 404.229C33.4987 398.929 31.8078 394.624 31.7708 394.663C31.7063 394.731 36.7333 417.642 36.9666 418.343C37.0435 418.575 37.576 418.295 38.6182 417.476L40.1562 416.268L39.6873 415.067ZM204.305 409.421L201.649 406.756L201.051 407.933L200.453 409.11L200.917 409.72C201.172 410.056 202.603 411.724 204.096 413.427L206.81 416.523L206.886 414.305L206.961 412.086L204.305 409.421ZM41.4837 402.115C39.1444 397.429 37.1915 393.634 37.1442 393.681C37.0665 393.759 39.2889 401.157 42.0351 409.961L43.0752 413.296L44.4062 411.965L45.7372 410.634L41.4837 402.115ZM51.819 404.361C51.819 404.057 41.6467 387.111 41.5326 387.225C41.4801 387.277 42.9683 392 44.8398 397.721L48.2424 408.122L50.0307 406.347C51.0142 405.371 51.819 404.477 51.819 404.361ZM340.613 392.114C341.873 388.02 342.87 384.636 342.828 384.593C342.785 384.551 341.327 387.481 339.588 391.105L336.424 397.693L337.283 398.716C337.755 399.278 338.181 399.697 338.231 399.648C338.28 399.598 339.352 396.208 340.613 392.114ZM61.4282 393.635L62.1179 392.407L61.0759 389.951C60.5028 388.6 59.9967 387.455 59.9513 387.405C59.9059 387.355 59.6858 387.931 59.4622 388.684L59.0558 390.052L59.7385 392.458C60.114 393.781 60.4925 394.863 60.5798 394.863C60.667 394.863 61.0488 394.31 61.4282 393.635ZM331.772 388.246C331.462 386.411 331.132 384.82 331.039 384.71C330.902 384.549 329.036 385 326.942 385.7C326.726 385.772 327.633 386.925 329.375 388.79C330.902 390.427 332.193 391.724 332.244 391.674C332.294 391.623 332.082 390.081 331.772 388.246ZM66.0314 388.061C66.0354 387.946 65.6311 387.319 65.1335 386.667L64.2286 385.482V386.517C64.2286 387.086 64.3049 388.109 64.3982 388.79L64.5678 390.027L65.2961 389.149C65.6967 388.666 66.0276 388.177 66.0314 388.061ZM72.5017 384.514C72.5017 384.368 72.1891 383.001 71.8071 381.476L71.1125 378.705L70.3919 381.549C69.9955 383.113 69.6682 384.48 69.6645 384.587C69.6604 384.693 70.2977 384.781 71.0798 384.781C71.8834 384.781 72.5017 384.665 72.5017 384.514ZM81.2394 378.934C81.2817 378.371 81.2212 377.654 81.1051 377.34L80.8941 376.77L79.8003 378.171C78.4749 379.868 78.4787 379.814 79.676 379.936C81.1038 380.082 81.1557 380.049 81.2394 378.934ZM338.678 378.158C338.585 377.786 338.441 377.146 338.359 376.736C338.277 376.326 338.125 375.99 338.02 375.99C337.807 375.99 335.431 378.472 335.431 378.694C335.431 378.771 336.2 378.834 337.14 378.834H338.848L338.678 378.158ZM490.173 315.471C490.472 308.815 490.483 307.072 490.227 306.924C490.05 306.822 489.507 306.441 489.019 306.077C488.532 305.714 488.11 305.444 488.082 305.478C487.991 305.589 489.614 324.015 489.707 323.922C489.756 323.872 489.966 320.069 490.173 315.471ZM482.182 311.874C483.03 307.73 483.401 305.413 483.215 305.419C483.056 305.423 481.994 305.637 480.857 305.894L478.788 306.362L478.826 306.856C478.924 308.159 480.607 318.337 480.724 318.337C480.798 318.337 481.454 315.429 482.182 311.874ZM459.052 303.767C459.9 302.081 460.557 300.676 460.513 300.644C459.867 300.178 455.905 298.221 455.896 298.364C455.819 299.629 455.958 306.876 456.079 307.817L456.237 309.06L456.875 307.946C457.225 307.334 458.205 305.453 459.052 303.767ZM469.07 307.802C469.457 306.326 470.093 303.479 470.043 303.444C470.018 303.427 469.112 303.525 468.029 303.662L466.059 303.911L465.637 305.832C465.002 308.723 464.874 308.565 467.985 308.728L468.815 308.771L469.07 307.802ZM407.097 293.605C408.119 292.97 408.169 292.827 408.468 289.705L408.622 288.089H407.856H407.09L405.129 291.836C404.05 293.897 403.167 295.651 403.167 295.733C403.167 295.881 405.245 294.756 407.097 293.605ZM412.733 292.202C414.573 291.504 414.803 291.293 414.792 290.319C414.783 289.586 413.185 287.225 412.935 287.578C412.828 287.729 411.211 292.742 411.269 292.742C411.292 292.742 411.951 292.499 412.733 292.202ZM208.557 289.963C208.483 288.719 208.39 287.662 208.349 287.615C208.309 287.568 207.61 288.415 206.796 289.496C205.982 290.578 205.361 291.503 205.417 291.551C205.59 291.703 207.558 292.17 208.139 292.199L208.692 292.225L208.557 289.963ZM186.311 286.74L186.437 284.746L185.248 285.745C184.594 286.294 183.785 287.038 183.45 287.398L182.84 288.052L184.355 288.82L185.869 289.587L186.028 289.161C186.115 288.927 186.242 287.837 186.311 286.74ZM178.304 284.663C178.522 283.348 178.678 282.246 178.651 282.215C178.624 282.183 177.743 283.022 176.693 284.079L174.785 286.001L175.932 286.509C177.842 287.357 177.86 287.343 178.304 284.663ZM168.403 281.975C169.839 279.466 170.983 277.385 170.944 277.35C170.906 277.315 169.141 279.161 167.023 281.452L163.172 285.619L164.179 286.071C164.733 286.32 165.323 286.527 165.489 286.531C165.656 286.535 166.967 284.485 168.403 281.975ZM153.811 285.541L155.621 285.086L159 279.849C160.859 276.968 162.59 274.241 162.847 273.788L163.314 272.964L162.546 273.74C162.124 274.167 159.819 276.61 157.423 279.169C155.028 281.729 152.537 284.383 151.888 285.068L150.708 286.314L151.355 286.155C151.71 286.068 152.815 285.792 153.811 285.541ZM145.918 282.078L147.502 278.911L145.155 281.367C143.864 282.718 142.571 284.143 142.281 284.534L141.754 285.245H143.043H144.333L145.918 282.078ZM139.846 277.786C139.698 277.638 133.817 282.753 133.797 283.047C133.787 283.189 134.324 283.682 134.989 284.142L136.198 284.978L138.07 281.43C139.1 279.479 139.899 277.839 139.846 277.786ZM118.074 282.946C119.89 282.687 121.433 282.419 121.502 282.35C121.741 282.111 127.826 268.869 127.738 268.781C127.689 268.732 125.035 271.573 121.84 275.094C114.576 283.101 114.282 283.437 114.551 283.425C114.673 283.42 116.258 283.204 118.074 282.946ZM129.341 277.812C131.462 273.54 131.421 273.541 128.105 277.859L125.736 280.944L126.459 281.263C126.857 281.439 127.242 281.593 127.315 281.604C127.388 281.616 128.3 279.909 129.341 277.812ZM115.158 275.492C116.236 273.871 117.656 270.592 117.393 270.329C117.07 270.005 112.546 277.891 112.584 278.711C112.599 279.031 113.813 277.512 115.158 275.492ZM346.24 273.65L347.096 273.194L344.323 271.289C342.798 270.242 341.649 269.55 341.769 269.753C342.306 270.653 345.038 274.127 345.202 274.117C345.303 274.111 345.77 273.901 346.24 273.65ZM356.342 270.961C356.277 270.925 354.209 268.918 351.746 266.501C349.283 264.084 347.403 262.371 347.567 262.694C347.837 263.225 349.576 266.034 351.884 269.668L352.747 271.025H354.603C355.623 271.025 356.406 270.996 356.342 270.961ZM364.334 270.056C364.118 269.807 362.223 267.393 360.121 264.691C355.584 258.859 355.516 258.785 356.685 260.943C357.186 261.867 358.551 264.397 359.718 266.566L361.84 270.508H363.283H364.726L364.334 270.056ZM372.215 269.086C373.025 268.518 373.689 267.969 373.691 267.866C373.694 267.687 362.093 255.513 361.919 255.513C361.814 255.513 369.778 269.476 370.146 269.935C370.466 270.336 370.393 270.366 372.215 269.086ZM384.457 266.272C384.513 266.223 373.73 256.466 372.853 255.772L372.036 255.126L373.059 256.554C373.622 257.34 375.478 259.927 377.184 262.304L380.287 266.624L382.355 266.463C383.493 266.374 384.439 266.288 384.457 266.272ZM204.345 256.871C204.325 256.441 203.629 253.41 203.528 253.308C203.467 253.248 202.853 253.773 202.161 254.475L200.904 255.751L201.53 255.991C201.875 256.123 202.564 256.409 203.062 256.627C204.12 257.09 204.358 257.135 204.345 256.871ZM177.596 243.197C180.013 240.839 181.584 239.195 181.086 239.543C180.588 239.892 178.162 241.668 175.695 243.491L171.209 246.806L171.817 247.143C172.877 247.731 173.112 247.57 177.596 243.197ZM194.788 238.973C194.788 238.774 193.226 237.59 193.131 237.716C193.095 237.764 191.92 239.433 190.52 241.423C189.121 243.414 187.676 245.45 187.31 245.948C186.944 246.445 188.477 245.117 190.717 242.996C192.956 240.876 194.788 239.065 194.788 238.973ZM172.163 236.899C172.347 236.591 172.318 236.568 172.022 236.788C171.528 237.156 167.58 240.289 167.271 240.559C167.127 240.684 167.271 241.028 167.625 241.405L168.222 242.04L170.077 239.663C171.097 238.356 172.036 237.112 172.163 236.899ZM161.179 231.955C164.947 228.247 167.681 225.42 167.255 225.672C166.828 225.924 162.961 228.475 158.662 231.34L150.845 236.55L152.328 237.605C153.144 238.185 153.927 238.668 154.069 238.678C154.211 238.688 157.411 235.663 161.179 231.955ZM152.944 227.814C157.26 224.808 160.966 222.184 161.179 221.982C161.53 221.651 150.482 226.96 143.497 230.48L140.68 231.899L142.463 232.558C143.443 232.921 144.436 233.231 144.67 233.248C144.904 233.265 148.627 230.82 152.944 227.814ZM139.788 223.047C143.024 219.077 145.793 215.596 145.941 215.311C146.09 215.027 142.952 218.11 138.968 222.162C134.984 226.215 131.721 229.601 131.716 229.687C131.704 229.88 133.288 230.402 133.645 230.323C133.787 230.291 136.552 227.017 139.788 223.047ZM131.129 224.166C137.765 217.3 140.406 214.507 139.721 215.082C139.365 215.38 136.012 218.274 132.268 221.512L125.462 227.401L126.193 227.882C126.594 228.147 126.956 228.365 126.996 228.366C127.036 228.366 128.895 226.477 131.129 224.166ZM331.811 227.342C331.81 227.219 327.71 225.02 327.039 224.782C326.891 224.73 327.576 225.51 328.561 226.515L330.352 228.343L331.082 227.911C331.483 227.674 331.811 227.418 331.811 227.342ZM127.069 219.512C130.528 215.922 133.888 212.411 134.536 211.71L135.713 210.435L133.897 211.968C127.32 217.52 118.521 225.137 118.521 225.279C118.521 225.444 119.908 225.961 120.491 226.014C120.65 226.029 123.61 223.103 127.069 219.512ZM149.177 220.263C149.948 219.411 150.527 218.663 150.464 218.6C150.29 218.426 146.752 221.409 145.15 223.082L143.728 224.566L145.752 223.189C146.865 222.431 148.406 221.115 149.177 220.263ZM120.589 217.878C126.675 212.259 129.739 209.318 128.474 210.309C128.19 210.532 124.467 213.423 120.201 216.735C115.935 220.046 112.279 222.909 112.076 223.096L111.706 223.437L112.334 223.688C113.655 224.216 113.944 224.013 120.589 217.878ZM318.484 223.765C318.349 223.651 317.269 222.699 316.085 221.65C314.387 220.147 313.882 219.821 313.697 220.113C313.243 220.831 313.48 221.095 315.847 222.506C317.989 223.783 319.177 224.35 318.484 223.765ZM111.48 217.845C121.068 209.079 124.048 206.344 124.467 205.926L124.855 205.54L124.321 205.901C121.898 207.541 102.528 222.818 102.681 222.967C102.79 223.073 103.287 223.208 103.784 223.266C104.282 223.325 104.836 223.391 105.016 223.414C105.196 223.437 108.105 220.931 111.48 217.845ZM342.131 221.853C342.57 221.256 342.929 220.676 342.929 220.564C342.929 220.453 340.107 218.241 336.659 215.651C332.553 212.566 330.702 211.301 331.295 211.986C332.386 213.248 341.231 222.938 341.29 222.938C341.314 222.938 341.692 222.45 342.131 221.853ZM110.098 211.607C116.721 205.873 122.14 201.131 122.14 201.07C122.14 200.961 103.948 213.118 96.0283 218.52L92.021 221.253L94.6064 221.679C96.0283 221.914 97.3861 222.09 97.6236 222.07C97.8612 222.05 103.475 217.341 110.098 211.607ZM329.993 221.533C329.784 221.33 327.52 219.641 324.961 217.781L320.307 214.398L320.225 215.495C320.179 216.099 320.237 216.629 320.354 216.674C320.47 216.719 322.718 217.901 325.348 219.301C330.598 222.094 330.534 222.063 329.993 221.533ZM441.607 221.338C441.524 221.132 441.463 221.193 441.451 221.495C441.439 221.767 441.5 221.92 441.586 221.834C441.672 221.748 441.682 221.525 441.607 221.338ZM350.417 217.16C346.165 213.245 339.542 207.207 339.052 206.799L338.408 206.263L338.824 206.78C339.052 207.064 341.062 209.594 343.29 212.403L347.34 217.509H349.068H350.796L350.417 217.16ZM357.924 210.796C359.417 210.2 360.72 209.635 360.819 209.539C360.918 209.443 356.968 207.562 352.039 205.358C341.662 200.717 341.485 200.639 341.671 200.825C343.03 202.185 354.765 212.03 354.95 211.966C355.093 211.917 356.431 211.391 357.924 210.796ZM368.235 203.855L369.885 203.389L363.452 200.507C354.46 196.48 353.889 196.234 354.13 196.479C354.68 197.039 365.855 204.284 366.197 204.302C366.41 204.313 367.327 204.112 368.235 203.855ZM378.26 201.82C379.02 201.581 379.641 201.311 379.641 201.22C379.641 201.129 376.121 199.444 371.82 197.476C367.518 195.508 363.766 193.784 363.482 193.646C363.198 193.508 363.035 193.472 363.122 193.565C363.545 194.025 376.2 202.215 376.515 202.234C376.716 202.246 377.501 202.06 378.26 201.82ZM189.9 198.049L191.218 197.471L185.7 196.066C182.665 195.293 179.949 194.615 179.664 194.559C179.38 194.503 181.009 195.454 183.284 196.672C187.739 199.058 187.644 199.038 189.9 198.049ZM387.683 195.744C389.089 195.115 389.41 194.88 389.042 194.749C388.339 194.499 381.719 193.627 381.58 193.766C381.461 193.886 385.296 196.506 385.649 196.546C385.755 196.558 386.67 196.197 387.683 195.744ZM374.728 189.218C374.728 189.028 368.283 186.587 365.245 185.627C361.794 184.536 354.444 182.797 353.833 182.926C353.243 183.051 360.74 185.956 364.258 186.965C368.852 188.283 374.728 189.547 374.728 189.218ZM449.892 95.8415C449.806 95.7556 449.583 95.7464 449.396 95.8211C449.19 95.9036 449.251 95.9648 449.552 95.9772C449.825 95.9885 449.978 95.9274 449.892 95.8415ZM450.15 77.7441C450.065 77.6582 449.842 77.649 449.655 77.7237C449.449 77.8062 449.51 77.8675 449.811 77.8799C450.084 77.8911 450.236 77.83 450.15 77.7441Z" fill="#B6E5ED"/>
</svg>
