<svg width="508" height="1204" viewBox="0 0 508 1204" fill="none" xmlns="http://www.w3.org/2000/svg">
<path d="M540.487 1181.49C540.474 1181.1 540.609 1179.03 540.785 1176.89C541.879 1163.65 543.742 1135.15 544.738 1116.42C550.844 1001.58 548.385 912.487 536.511 818.33C534.3 800.799 532.402 787.11 532.184 787.119C532.088 787.123 531.771 789.383 531.478 792.142C531.186 794.9 530.843 797.231 530.717 797.323C530.591 797.414 530.252 790.123 529.963 781.12C529.675 772.117 529.386 764.813 529.321 764.888C529.257 764.963 528.599 769.317 527.86 774.563C527.121 779.809 526.428 784.216 526.321 784.355C526.02 784.746 525.231 768.625 524.623 749.644C524.32 740.206 523.968 732.419 523.84 732.342C523.713 732.264 522.723 742.122 521.64 754.248C519.762 775.294 519.606 776.77 519.285 776.449C519.171 776.336 518.454 739.138 518.088 714.448C518.04 711.161 517.96 708.518 517.912 708.575C517.851 708.645 513.684 765.632 513.636 767.038C513.634 767.091 513.5 767.054 513.338 766.955C513.156 766.844 513.068 765.628 513.107 763.76C513.195 759.597 513.018 702.376 512.917 702.275C512.872 702.231 511.347 715.646 509.529 732.087C505.766 766.101 506.058 763.697 505.686 763.713C505.512 763.721 505.445 762.919 505.512 761.622C505.66 758.748 507.092 699.092 507.119 694.635C507.136 691.973 507.078 691.34 506.893 692.158C506.651 693.232 497.313 743.526 496.227 749.607C495.926 751.295 495.555 752.64 495.403 752.596C495.251 752.552 495.149 752.304 495.177 752.047C495.205 751.789 496.105 740.278 497.177 726.467C498.249 712.656 499.539 696.124 500.044 689.729C500.989 677.748 501.018 677.299 500.823 677.526C500.76 677.6 497.663 690.804 493.943 706.867C490.222 722.931 487.126 736.134 487.062 736.208C486.584 736.763 486.844 734.491 488.53 723.38C492.048 700.184 495.429 677.299 495.349 677.219C495.305 677.175 492.606 688.618 489.352 702.647C484.024 725.611 482.975 729.81 482.938 728.315C482.932 728.067 484.997 713.855 487.527 696.732C490.057 679.609 492.095 665.565 492.057 665.524C492.004 665.466 475.805 718.324 475.303 720.192C475.107 720.919 474.527 720.648 474.695 719.907C475.306 717.214 487.527 655.286 487.46 655.227C487.379 655.154 465.671 711.098 464.312 714.882C463.694 716.603 463.233 717.234 463.206 716.395C463.199 716.197 467.189 698.768 472.071 677.664C476.953 656.559 480.939 639.166 480.929 639.011C480.918 638.856 480.511 639.866 480.024 641.256C477.811 647.573 458.254 704.129 458.113 704.619C458.026 704.922 457.806 705.176 457.624 705.184C457.216 705.202 456.104 709.389 466.134 673.137C470.845 656.108 474.654 642.128 474.597 642.072C474.498 641.972 454.623 699.463 454.041 701.532C453.789 702.43 453.236 702.984 453.232 702.344C453.231 702.216 457.003 688.245 461.613 671.297C466.224 654.35 469.963 640.449 469.921 640.408C469.846 640.332 464.119 657.013 455.009 683.847C449.85 699.042 450.022 698.57 449.746 698.294C449.648 698.195 450.172 696.016 450.911 693.45C452.542 687.793 465.094 643.713 465.326 642.828C465.453 642.344 465.43 642.309 465.226 642.677C464.981 643.119 449.682 688.015 448.263 692.457C447.688 694.256 447.215 694.978 447.186 694.098C447.18 693.907 448.34 689.694 449.763 684.737C456.381 661.693 465.322 630.105 465.249 630.032C465.174 629.958 459.624 644.604 446.781 678.765C444.102 685.892 441.762 691.784 441.581 691.858C441.397 691.933 441.313 691.799 441.39 691.555C441.466 691.315 446.197 673.848 451.903 652.739C457.609 631.63 463.954 608.21 466.005 600.694C468.055 593.178 469.696 586.992 469.651 586.947C469.577 586.873 442.891 662.659 442.148 665.055C441.847 666.025 441.391 666.457 441.37 665.792C441.365 665.623 444.274 653.36 447.836 638.541C463.411 573.742 466.353 561.416 466.265 561.329C466.185 561.248 439.975 642.173 435.909 655.06C434.501 659.522 433.754 661.079 434 659.037C434.058 658.564 437.133 642.237 440.835 622.755C455.308 546.582 459.863 522.481 459.797 522.416C459.731 522.351 454.428 537.59 436.829 588.421C427.466 615.463 428.214 613.384 427.939 613.11C427.83 613.001 428.289 610.684 428.96 607.961C435.858 579.954 448.74 527 448.671 526.931C448.587 526.847 443.645 542.161 429.68 585.779C426.099 596.964 423.133 606.174 423.088 606.248C422.396 607.374 424.138 599.516 432.449 564.022C437.855 540.937 442.231 522.003 442.175 521.946C442.078 521.85 416.5 592.894 415.019 597.376C414.631 598.547 414.207 599.51 414.075 599.516C413.694 599.532 413.766 599.111 414.623 596.326C415.471 593.568 428.775 549.118 429.076 548.033C429.172 547.687 427.951 549.698 426.362 552.502C423.898 556.85 422.381 559.05 422.96 557.435C424.085 554.299 428.159 541.884 428.155 541.606C428.145 541.03 424.905 533.759 424.662 533.77C424.544 533.775 422.965 535.264 421.153 537.08C419.341 538.895 417.638 540.601 417.367 540.87C416.306 541.926 416.605 540.813 418.615 536.22L420.709 531.435L420.283 531.03C419.957 530.722 406.279 519.173 402.963 516.407L402.393 515.931L402.658 516.386C402.803 516.636 405.909 521.448 409.56 527.078C413.212 532.709 416.163 537.449 416.118 537.611C416.074 537.772 412.195 534.495 407.497 530.328C402.8 526.161 398.959 522.819 398.962 522.902C398.966 523.025 412.803 542.285 415.27 545.6C416.687 547.505 415.563 546.998 413.15 544.643C411.802 543.328 406.009 537.793 400.275 532.343C394.542 526.892 388.592 521.217 387.054 519.732C385.516 518.247 384.37 517.237 384.508 517.487C384.685 517.81 407.156 550.185 411.427 556.271C412.118 557.255 411.268 557.007 410.363 555.96C409.035 554.425 373.652 517.649 373.509 517.655C373.447 517.658 374.324 518.984 375.458 520.601C376.591 522.219 383.894 532.708 391.686 543.91C399.478 555.112 406.242 564.771 406.716 565.373C407.552 566.436 407.826 567.164 407.383 567.147C407.263 567.142 406.667 566.484 406.057 565.684C405.125 564.463 367.641 521.173 366.742 520.281C366.156 519.7 367.106 521.1 383.749 545.344C392.981 558.792 400.61 569.985 400.704 570.218C401.078 571.154 400.154 570.287 397.892 567.578C385.095 552.258 361.301 523.872 361.06 523.638C360.559 523.152 364.665 529.381 390.441 568.213C397.972 579.559 398.551 580.484 398.004 580.284C397.842 580.225 392.184 573.632 385.43 565.633C365.351 541.855 361.862 537.748 361.746 537.753C361.657 537.757 393.719 583.14 395.888 586.081C397.031 587.63 396.105 587.368 394.687 585.741C392.212 582.902 345.106 529.631 344.795 529.32C344.259 528.784 344.76 529.549 366.083 561.813C377.671 579.347 387.228 593.884 387.321 594.117C387.748 595.19 386.156 593.519 375.545 581.757C354.197 558.093 348.119 551.403 347.973 551.409C347.893 551.413 347.962 551.585 348.126 551.791C348.29 551.998 356.003 562.679 365.266 575.527C374.529 588.375 382.5 599.386 382.981 599.996C383.924 601.195 384.025 601.446 383.573 601.466C383.412 601.473 376.136 594.414 367.405 585.781C343.581 562.225 333.61 552.432 334.131 553.1C347.136 569.79 378.991 611.401 378.87 611.541C378.778 611.648 377.396 610.468 375.8 608.92C373.131 606.331 349.411 583.417 339.972 574.309C337.76 572.176 336.301 570.835 336.729 571.329C339.284 574.28 370.106 609.155 373.159 612.549C375.186 614.802 376.847 616.723 376.85 616.818C376.863 617.239 376.029 616.968 375.509 616.382C374.806 615.59 360.77 602.371 338.169 581.217C328.755 572.405 317.778 562.115 313.777 558.35C309.776 554.585 306.63 551.727 306.787 551.999C306.944 552.27 318.88 568.163 333.312 587.317C347.743 606.47 359.604 622.287 359.669 622.464C359.994 623.348 358.715 622.089 353.86 616.749C335.471 596.52 312.664 571.6 312.544 571.605C312.466 571.608 312.799 572.118 313.284 572.738C313.769 573.358 320.318 581.992 327.838 591.923C335.358 601.855 344.646 614.111 348.478 619.159C356.425 629.629 356.044 629.089 355.501 629.113C355.276 629.123 343.327 616.318 328.946 600.657C314.565 584.997 302.276 571.648 301.637 570.992L300.475 569.799L301.226 570.854C304.682 575.714 349.804 638.177 350.485 639.046C350.971 639.666 351.325 640.336 351.27 640.535C351.183 640.852 336.775 624.594 302.691 585.718C290.853 572.215 290.977 572.34 294.203 577.067C312.011 603.15 326.779 624.771 332.66 633.371C339.502 643.378 340.212 644.487 339.688 644.343C339.567 644.31 329.214 631.996 316.68 616.977C293.107 588.733 292.891 588.477 293.84 589.984C294.867 591.613 331.253 646.869 333.153 649.685C334.17 651.191 334.959 652.584 334.905 652.779C334.852 652.974 324.564 640.858 312.042 625.855C292.464 602.396 286.572 595.437 288.068 597.541C288.342 597.927 312.907 635.794 322.488 650.602C324.21 653.263 325.823 655.677 326.072 655.966C326.709 656.704 326.264 657.064 325.589 656.356C325.285 656.037 315.389 643.675 303.598 628.886C291.808 614.096 281.89 601.727 281.559 601.4L280.957 600.804L281.583 601.865C281.927 602.448 288.918 614.665 297.118 629.012C305.318 643.36 313.385 657.448 315.044 660.32C316.703 663.192 318.065 665.685 318.07 665.862C318.095 666.621 317.492 665.941 314.943 662.335C310.594 656.182 282.113 616.95 281.759 616.624C281.581 616.461 281.669 616.7 281.954 617.156C282.238 617.613 287.11 625.585 292.779 634.872C298.448 644.159 305.423 655.573 308.28 660.236C311.136 664.899 313.35 668.77 313.2 668.838C313.049 668.906 312.733 668.686 312.496 668.349C311.263 666.594 277.259 622.035 276.864 621.656L276.398 621.21L276.907 622.028C277.187 622.479 283.713 632.67 291.411 644.676C299.108 656.683 305.327 666.595 305.231 666.705C305.136 666.815 304.496 666.236 303.809 665.419C298.209 658.758 265.317 620.036 264.962 619.687C264.32 619.056 264.527 619.415 283.218 651.377C292.48 667.217 299.919 680.233 299.75 680.301C299.378 680.453 302.283 684.1 281.716 657.662C265.473 636.782 263.264 633.977 263.726 634.819C263.818 634.986 270.457 646.783 278.48 661.035C286.502 675.287 293.025 687.099 292.975 687.283C292.924 687.467 292.041 686.471 291.011 685.069C272.175 659.423 258.49 640.893 258.431 640.95C258.389 640.99 259.373 642.853 260.617 645.089C275.715 672.237 287.817 694.325 287.742 694.599C287.69 694.786 280.251 684.438 271.209 671.603C255.376 649.127 253.801 646.93 254.487 648.278C255.178 649.635 278.978 694.885 279.704 696.223C280.452 697.599 280.465 698.718 279.721 697.629C277.159 693.879 245.768 649.532 245.713 649.586C245.644 649.654 269.268 697.542 273.147 705.199C274.055 706.99 274.699 708.57 274.579 708.709C274.459 708.848 274.245 708.758 274.102 708.509C273.136 706.823 232.014 642.926 231.946 643.005C231.909 643.048 234.315 648.705 237.295 655.575C255.838 698.333 270.536 732.399 270.543 732.638C270.569 733.45 269.833 732.418 267.008 727.688C261.239 718.028 231.782 669.78 231.953 670.271C232.238 671.091 255.955 725.903 258.596 731.846C258.714 732.111 258.64 732.224 258.396 732.148C258.038 732.036 253.577 724.69 229.068 683.852C224.155 675.665 220.102 668.999 220.063 669.039C220.023 669.078 227.282 685.358 236.194 705.216C251.348 738.985 253.242 743.338 252.445 742.564C252.277 742.4 247.918 735.035 242.759 726.198C224.138 694.3 221.983 690.629 221.92 690.701C221.86 690.77 228.342 708.504 238.97 737.348C244.506 752.374 244.584 753.048 239.617 742.967C232.793 729.118 214.294 691.989 214.147 691.848C213.911 691.621 213.735 691.06 223.519 721.652C228.572 737.45 232.709 750.455 232.712 750.552C232.744 751.552 230.311 746.497 217.708 719.391C209.691 702.146 203.104 688.067 203.07 688.102C203.021 688.155 220.746 749.149 221.346 750.99C221.783 752.334 220.82 751.359 220.02 749.649C218.258 745.879 196.555 701.438 195.751 699.954C195.299 699.119 195.002 698.712 195.092 699.051C195.651 701.163 207.2 757.901 207.096 758.022C207.025 758.104 206.906 758.109 206.83 758.034C206.713 757.917 201.438 742.509 193.08 717.875C191.895 714.383 190.89 711.567 190.846 711.618C190.787 711.685 196.77 759.139 197.401 763.613C197.449 763.953 197.372 764.277 197.229 764.334C197.086 764.39 195.993 761.08 194.799 756.978C189.555 738.965 186.258 727.888 186.172 727.988C186.094 728.078 186.604 736.43 188.53 766.642C188.623 768.091 188.59 769.352 188.459 769.443C188.043 769.731 183.635 757.734 182.052 752.01C179.635 743.267 175.656 721.182 174.019 707.429C170.327 676.4 173.2 650.881 183.673 621.672C191.18 600.737 197.731 588.357 213.896 564.555C218.195 558.225 229.408 539.924 229.412 539.231C229.415 538.691 219.008 507.827 218.96 508.234C218.93 508.483 219.694 515.788 220.657 524.466C222.159 538.008 222.476 542.354 221.82 540.4C221.74 540.161 219.38 532.414 216.575 523.184C213.77 513.954 211.446 506.436 211.41 506.478C211.374 506.52 212.268 514.877 213.396 525.05C215.194 541.266 215.462 544.361 215.016 543.805C214.96 543.736 212.822 536.533 210.264 527.797C207.706 519.062 205.585 511.95 205.551 511.992C205.517 512.035 206.633 520.483 208.032 530.767C209.431 541.051 210.476 549.597 210.354 549.759C210.227 549.93 210.073 549.871 209.989 549.62C209.909 549.381 207.912 542.941 205.55 535.308C203.188 527.676 201.234 521.676 201.207 521.974C201.181 522.273 202.284 530.022 203.66 539.196C205.036 548.369 206.062 556.007 205.94 556.169C205.812 556.34 205.657 556.281 205.572 556.03C205.491 555.791 203.209 548.606 200.502 540.062C197.795 531.519 195.537 524.577 195.485 524.635C195.433 524.694 196.546 533.446 197.959 544.086C200.152 560.593 200.575 564.512 200.082 563.73C200.038 563.66 197.864 555.63 195.251 545.884C192.637 536.138 190.455 528.214 190.402 528.276C190.28 528.416 191.968 562.575 192.413 568.986C192.634 572.167 192.644 573.717 192.442 573.726C192.043 573.743 192.377 575.185 187.648 553.012C185.342 542.203 183.422 533.484 183.381 533.635C183.339 533.787 183.946 541.697 184.73 551.212C186.018 566.846 186.153 569.122 185.768 568.705C185.704 568.637 183.715 560.029 181.347 549.577C178.979 539.125 177.014 530.607 176.981 530.648C176.947 530.689 176.79 539.682 176.631 550.632C176.471 561.581 176.284 570.753 176.215 571.012C175.908 572.161 175.471 569.293 173.324 552.019C171.691 538.877 171.014 534.169 170.905 535.181C170.822 535.954 170.408 544.786 169.984 554.807C169.561 564.828 169.165 573.364 169.105 573.776C168.791 575.937 168.391 572.42 167.13 556.408C166.368 546.738 165.672 538.829 165.583 538.833C165.493 538.837 164.99 547.008 164.465 556.99C163.939 566.973 163.456 575.668 163.391 576.312C163.212 578.097 162.778 577.728 162.714 575.737C162.619 572.748 160.333 538.007 160.225 537.899C160.17 537.844 160.057 538.472 159.974 539.296C159.892 540.12 158.93 548.876 157.836 558.756C156.743 568.635 155.821 577.128 155.789 577.629C155.756 578.13 155.553 578.611 155.336 578.698L154.943 578.857L155.045 576.559C155.102 575.295 154.982 566.994 154.78 558.111L154.413 541.962L150.891 563.721C148.955 575.689 147.321 585.541 147.262 585.615C146.88 586.088 146.871 583.344 147.2 564.81C147.401 553.469 147.528 544.153 147.483 544.108C147.438 544.063 145.674 554.337 143.562 566.94C139.175 593.122 139.57 590.95 139.198 590.966C139.026 590.974 138.964 590.449 139.044 589.652C139.266 587.421 141.825 546.571 141.747 546.493C141.707 546.453 139.625 556.893 137.12 569.692C134.616 582.492 132.524 593.025 132.472 593.098C132.061 593.679 132.158 590.239 133.099 570.863C133.687 558.751 134.125 548.798 134.072 548.745C133.972 548.646 127.146 588.557 126.905 590.646C126.741 592.074 126.281 592.217 126.237 590.854C126.22 590.312 126.511 581.031 126.885 570.23C127.259 559.429 127.519 550.314 127.463 549.974C127.407 549.635 125.842 558.237 123.984 569.09C122.126 579.943 120.561 588.882 120.506 588.956C120.098 589.5 120.255 586.333 121.574 567.468C122.393 555.752 123.026 546.13 122.981 546.085C122.936 546.04 120.131 555.24 116.748 566.529C113.364 577.819 110.438 587.12 110.245 587.198C110.003 587.297 109.947 587.132 110.066 586.675C110.378 585.472 117.345 547.669 117.269 547.593C117.228 547.552 115.63 551.317 113.719 555.961C102.886 582.273 100.142 588.792 99.8476 588.914C99.6419 588.998 99.5858 588.845 99.6961 588.5C100.316 586.56 111.751 544.787 111.681 544.718C111.634 544.671 105.186 555.082 97.3534 567.854C89.5205 580.626 82.8885 591.358 82.6157 591.703C81.6946 592.865 81.7638 591.992 82.7329 590.224C83.2623 589.258 87.8408 580.474 92.9073 570.705C97.9739 560.936 102.608 552.013 103.205 550.875C103.802 549.738 104.437 548.486 104.615 548.094C104.89 547.489 91.0136 563.611 71.4739 586.6C68.7619 589.79 66.4477 592.305 66.3311 592.189C66.2146 592.073 66.7404 591.145 67.4997 590.127C70.5008 586.104 97.6706 548.694 97.8838 548.291C98.0088 548.054 97.048 548.89 95.7486 550.148C94.4492 551.407 83.6153 561.79 71.6732 573.223C59.7311 584.656 49.4645 594.525 48.8584 595.154C48.2524 595.783 47.7084 596.159 47.6495 595.989C47.5401 595.673 59.4594 581.896 90.3138 546.675C91.7327 545.055 91.0933 545.601 62.6774 570.275C47.4689 583.48 34.9492 594.208 34.8558 594.115C34.6195 593.879 33.362 595.153 58.5779 570.073C79.1112 549.651 83.4308 545.3 82.0754 546.407C81.8432 546.596 70.8263 555.587 57.5934 566.386C44.3604 577.185 32.4822 586.901 31.1973 587.976C28.783 589.997 27.5872 590.331 29.568 588.432C30.1844 587.841 41.657 576.852 55.0628 564.012C80.3687 539.774 81.5709 538.593 78.9984 540.5C77.8235 541.37 29.546 578.405 26.3921 580.855C26.0578 581.114 25.7169 581.217 25.6346 581.083C25.5523 580.949 31.4389 575.452 38.7159 568.867C78.1234 533.206 79.2508 532.179 78.317 532.756C77.6075 533.195 27.3053 567.753 25.7142 568.895C23.7907 570.275 23.6462 570.346 23.6323 569.914C23.6274 569.759 35.4293 559.922 49.8588 548.052C75.4646 526.988 78.2754 524.625 75.6575 526.358C74.9576 526.821 64.8353 533.315 53.1633 540.789C41.4914 548.263 31.0714 554.956 30.0078 555.661C28.9441 556.367 27.9558 556.95 27.8114 556.956C27.1081 556.987 27.8248 556.298 30.8577 554.031C36.0419 550.155 75.5717 520.037 75.7323 519.84C75.9202 519.611 61.19 528.345 50.297 534.922C45.58 537.77 41.6554 539.995 41.5755 539.866C41.4956 539.738 48.9299 533.4 58.0961 525.782C67.2623 518.164 74.8875 511.795 75.041 511.629C75.3997 511.24 71.6592 513.353 52.9427 524.114C39.5006 531.842 36.5616 533.415 37.6066 532.319C37.75 532.169 45.4496 526.357 54.7167 519.404C63.9838 512.451 71.5213 506.718 71.4666 506.663C71.412 506.609 64.0358 510.24 55.0751 514.734C46.1144 519.227 38.7385 522.905 38.6841 522.907C38.1115 522.932 39.0967 522.018 41.7427 520.07C43.4883 518.785 50.6293 513.533 57.6116 508.4C64.594 503.266 70.432 498.919 70.5851 498.738C70.7705 498.519 70.769 498.471 70.5804 498.592C69.9802 498.979 39.8778 514.542 39.4052 514.71C38.5762 515.004 38.8259 514.371 39.8057 513.693C41.649 512.418 68.3664 492.316 68.6365 492C68.7896 491.822 68.5323 491.902 68.0647 492.178C67.5971 492.454 64.4705 494.233 61.1166 496.13C57.7628 498.028 53.13 500.694 50.8214 502.056C48.5128 503.417 46.5669 504.533 46.4972 504.536C45.9125 504.562 46.7078 503.726 48.5395 502.391C55.3029 497.46 75.1468 482.46 74.892 482.471C74.7267 482.478 70.1996 483.948 64.8318 485.737C59.464 487.526 54.9806 488.891 54.8687 488.771C54.7568 488.65 54.7972 488.493 54.9585 488.423C55.9092 488.005 91.5494 465.695 102.225 458.834C132.084 439.646 149.244 429.553 183.189 411.213C187.821 408.711 191.578 406.631 191.538 406.592C191.36 406.414 185.378 408.723 173.025 413.738C161.483 418.423 158.325 419.548 159.567 418.534C171.399 408.872 173.774 407.598 199.438 397.141C220.726 388.467 232.716 384.011 242.385 381.18C257.383 376.789 279.979 372.736 302.439 370.408L305.941 370.046L308.682 363.518C312.884 353.51 317.497 342.27 317.401 342.274C317.353 342.276 312.959 347.795 307.637 354.538C302.314 361.28 297.912 366.66 297.854 366.492C297.795 366.323 300.333 361.356 303.493 355.454C306.653 349.551 309.201 344.695 309.155 344.662C309.109 344.629 304.57 349.964 299.067 356.518C293.565 363.072 289.012 368.288 288.95 368.109C288.888 367.93 291.341 361.97 294.401 354.864C297.462 347.759 299.709 342.236 299.395 342.592C299.081 342.947 294.343 349.49 288.864 357.13C280.366 368.984 278.168 371.851 278.494 370.659C278.525 370.547 281.034 364.213 284.071 356.582C290.412 340.65 291.003 339.112 290.615 339.554C290.257 339.964 271.366 369.454 271.052 370.093C270.925 370.353 270.714 370.46 270.583 370.33C270.453 370.2 273.465 362.725 277.276 353.72C281.087 344.715 284.083 337.492 283.934 337.669C283.785 337.847 277.717 346.015 270.45 355.821C255.152 376.464 256.799 374.295 256.586 374.083C256.493 373.99 260.797 366.207 266.151 356.788C271.504 347.369 275.843 339.632 275.793 339.595C275.719 339.541 257.627 361.243 247.955 372.986C246.762 374.434 245.706 375.539 245.609 375.442C245.511 375.344 250.01 367.298 255.606 357.562C261.202 347.825 265.728 339.861 265.663 339.864C265.551 339.869 237.881 373.951 236.099 376.28C235.055 377.644 234.521 377.363 235.432 375.93C236.887 373.642 257.367 339.583 257.363 339.459C257.359 339.323 246.044 352.988 232.466 369.529C228.35 374.543 224.936 378.509 224.878 378.343C224.821 378.177 229.372 370.456 234.993 361.185C240.614 351.914 245.632 343.612 246.144 342.734L247.075 341.139L246.147 342.295C245.636 342.931 238.226 352.186 229.679 362.862C221.133 373.538 214.095 382.14 214.038 381.978C213.982 381.816 219.475 372.854 226.244 362.063C240.209 339.8 240.382 339.516 238.476 341.863C222.834 361.12 203.774 384.176 203.692 383.939C203.633 383.769 206.051 379.983 209.064 375.528C213.226 369.374 230.88 343.132 233.904 338.604C234.516 337.687 222.735 351.138 205.889 370.587C197.893 379.819 191.257 387.279 191.142 387.164C191.027 387.049 191.428 386.268 192.033 385.429C193.476 383.426 223.316 340.759 223.709 340.136C223.989 339.692 217.981 346.477 192.534 375.34C187.172 381.421 182.741 386.268 182.686 386.109C182.631 385.951 189.306 375.827 197.52 363.612C205.734 351.397 212.639 341.115 212.865 340.764C213.386 339.952 207.447 346.976 188.589 369.473C180.328 379.328 173.523 387.257 173.466 387.093C173.408 386.93 174.795 384.597 176.546 381.91C178.298 379.223 183.542 371.193 188.201 364.066C205.409 337.736 205.533 337.541 203.909 339.317C203.08 340.224 194.784 349.434 185.472 359.783C176.161 370.133 168.46 378.604 168.358 378.608C167.924 378.627 168.714 377.355 173.249 370.731C177.229 364.919 190.235 345.813 193.826 340.505L194.801 339.063L193.281 340.714C192.446 341.621 184.429 350.434 175.467 360.298C157.636 379.921 156.8 380.818 156.571 380.59C156.486 380.504 156.964 379.591 157.635 378.562C159.544 375.632 180.066 342.996 181.121 341.213L182.065 339.618L181.153 340.746C180.651 341.366 173.376 350.566 164.986 361.19C147.55 383.267 147.938 382.787 147.721 382.57C147.631 382.481 153.121 372.246 159.921 359.826C166.72 347.407 172.384 337.031 172.506 336.77C172.802 336.139 171.875 337.224 154.433 357.919C134.263 381.852 134.309 381.799 134.107 381.597C134.009 381.499 140.074 371.823 147.583 360.094C155.092 348.365 161.19 338.732 161.135 338.687C161.053 338.621 144.204 357.206 126.606 376.773C124.137 379.518 122.964 380.552 123.271 379.712C123.356 379.48 149.841 339.78 150.75 338.523L151.193 337.91L150.748 338.212C150.504 338.378 141.72 347.491 131.228 358.463C120.736 369.436 111.98 378.556 111.771 378.73C110.89 379.462 111.078 378.543 112.102 377.112C113.689 374.892 135.427 342.36 135.703 341.792L135.934 341.315L135.517 341.8C135.287 342.066 128.303 350.554 119.996 360.662C111.689 370.77 104.791 379.091 104.666 379.154C104.213 379.38 104.436 378.596 105.205 377.255C105.846 376.136 126.929 337.058 128.358 334.34L128.776 333.544L128.34 334.03C128.012 334.394 102.439 367.361 96.3293 375.294C95.8184 375.957 95.3351 376.503 95.2554 376.506C94.8299 376.525 95.3271 375.522 97.6515 371.671C100.35 367.202 118.071 337.473 119.014 335.835C119.71 334.624 118.632 335.815 102.896 353.634C95.8458 361.617 89.1096 369.24 87.9263 370.574C86.743 371.908 85.7002 372.925 85.609 372.834C85.5178 372.743 88.8738 367.009 93.0668 360.091C103.491 342.892 104.01 342.013 103.391 342.611C103.092 342.899 95.7554 349.979 87.0868 358.345C78.4182 366.71 71.2086 373.514 71.0654 373.464C70.9223 373.415 75.7844 366.605 81.8702 358.331C87.956 350.057 92.8914 343.246 92.8377 343.194C92.784 343.142 90.9574 344.738 88.7785 346.74C76.7188 357.822 59.7229 373.251 59.4501 373.363C58.7198 373.665 59.8813 372.194 71.017 358.713C77.4442 350.932 82.8158 344.351 82.9537 344.089C83.0917 343.826 82.389 344.358 81.3922 345.271C80.3953 346.185 73.0103 352.786 64.9811 359.942C56.9518 367.098 50.0615 373.297 49.6692 373.717C48.8712 374.572 48.5496 374.686 48.5661 374.109C48.5722 373.895 49.2907 373 50.1627 372.12C51.6085 370.66 76.886 343.926 77.8599 342.826L78.2779 342.354L77.7118 342.709C77.4004 342.904 69.2858 349.201 59.6795 356.702C50.0731 364.204 42.1584 370.199 42.0913 370.026C42.0242 369.852 42.2918 369.436 42.6859 369.102C43.5516 368.367 72.0555 341.211 72.4511 340.744C72.8493 340.275 36.0786 363.978 30.6348 367.7C28.9973 368.82 28.4418 369.052 28.4573 368.612C28.4619 368.483 35.6421 362.428 44.4133 355.156C59.2294 342.871 62.2124 340.355 61.4786 340.762C61.1394 340.951 32.884 359.152 26.3098 363.418C23.7729 365.064 21.613 366.326 21.51 366.223C21.2517 365.965 20.077 366.907 38.5403 352.566C47.7224 345.434 55.1949 339.558 55.1459 339.509C55.097 339.461 46.4361 343.928 35.8994 349.437C25.3628 354.946 16.5172 359.539 16.2426 359.644C14.363 360.36 17.5756 358.069 31.1439 349.017C39.6177 343.365 46.5049 338.694 46.4488 338.638C46.3928 338.582 38.8855 342.287 29.7661 346.871C14.7933 354.397 12.2908 355.562 13.1407 354.61C14.3108 353.299 34.6403 340.252 43.0897 335.39C67.8664 321.132 83.6117 316.657 141.123 307.527C176.959 301.838 198.124 299.999 250.548 298.018L281.264 296.858L298.145 281.768C307.43 273.469 314.995 266.643 314.957 266.599C314.893 266.527 279.113 289.103 276.913 290.604C276.388 290.961 275.875 291.17 275.772 291.068C275.536 290.831 274.998 291.347 288.346 279.032C294.57 273.289 299.861 268.395 300.103 268.156C300.689 267.579 300.794 267.508 283.642 279.234C270.221 288.41 267.173 290.317 268.883 288.47C276.354 280.403 291.886 263.391 291.883 263.279C291.88 263.196 291.465 263.422 290.96 263.781C290.456 264.141 283.176 269.105 274.782 274.814C266.389 280.522 259.233 285.414 258.879 285.685C258.043 286.326 257.628 285.913 258.397 285.205C258.721 284.907 264.732 279.376 271.756 272.914C278.779 266.453 284.493 261.129 284.454 261.084C284.415 261.038 277.301 265.441 268.646 270.869C252.101 281.245 251.891 281.372 252.052 280.86C252.108 280.684 258.269 274.711 265.743 267.587C273.218 260.464 279.458 254.485 279.611 254.3C279.953 253.887 281.15 253.051 261.958 266.614C253.184 272.814 245.953 277.746 245.89 277.574C245.828 277.401 247.951 274.693 250.61 271.556C258.797 261.894 271.224 246.979 271.08 246.985C271.006 246.989 264.078 253.303 255.686 261.018C247.293 268.732 240.319 275.052 240.187 275.061C239.707 275.093 240.319 274.277 252.602 258.493C266.717 240.355 266.85 240.175 264.362 242.588C246.293 260.111 237.494 268.719 236.947 269.411C236.577 269.879 236.168 270.267 236.037 270.273C235.448 270.299 235.89 269.387 237.264 267.741C238.084 266.76 243.397 259.67 249.072 251.985C254.747 244.3 259.715 237.584 260.113 237.06C260.582 236.442 260.64 236.276 260.278 236.587C259.723 237.063 242.763 253.523 234.853 261.262C230.775 265.253 229.541 266.075 231.16 263.723C232.12 262.329 252.678 231.694 253.133 230.981C253.3 230.718 252.428 231.525 251.194 232.775C236.587 247.572 226.073 258.136 225.86 258.229C225.149 258.541 226.403 256.72 236.756 242.418C242.89 233.943 247.871 226.966 247.825 226.913C247.779 226.859 242.146 231.99 235.306 238.314C217.729 254.564 217.951 254.364 217.759 254.172C217.664 254.077 222.843 246.386 229.269 237.081C235.694 227.776 240.768 220.324 240.543 220.522C239.685 221.277 211.74 246.612 210.741 247.541C209.495 248.7 208.985 248.491 209.989 247.233C210.376 246.748 215.591 239.842 221.578 231.887C227.565 223.932 232.787 217.003 233.182 216.49C233.823 215.657 226.449 222.054 207.797 238.513C204.457 241.46 201.646 243.792 201.549 243.695C201.407 243.553 208.481 233.546 221.876 214.94C223.532 212.639 224.007 212.209 208.01 227.504C200.515 234.669 194.247 240.591 194.08 240.662C193.354 240.973 193.042 241.454 209.762 216.442C212.391 212.508 214.492 209.239 214.43 209.177C214.368 209.115 207.064 214.714 198.201 221.619C183.402 233.149 179.41 235.983 183.037 232.384C185.134 230.304 203.932 211.064 204.568 210.348L205.125 209.719L204.271 210.103C203.801 210.313 196.018 213.896 186.974 218.064C177.93 222.232 170.446 225.558 170.342 225.454C170.106 225.218 168.396 226.548 183.295 215.378C190.394 210.056 196.159 205.657 196.106 205.604C196.052 205.551 188.828 208.283 180.051 211.675C162.984 218.272 162.803 218.338 162.807 217.928C162.809 217.779 169.356 213.261 177.357 207.887C185.357 202.513 191.902 198.077 191.901 198.03C191.899 197.983 191.48 198.086 190.969 198.258C188.798 198.993 153.294 209.834 153.02 209.846C152.41 209.873 152.729 209.363 153.56 208.984C154.976 208.339 184.487 193.1 184.429 193.045C184.4 193.016 174.368 194.954 162.136 197.35C149.904 199.747 139.67 201.719 139.392 201.732C137.847 201.807 139.547 201.073 145.09 199.27C155.692 195.821 177.736 188.462 177.659 188.397C177.618 188.363 167.818 189.717 155.882 191.406C143.945 193.095 133.757 194.5 133.241 194.529C131.957 194.602 132.042 194.096 133.363 193.809C135.01 193.45 173.506 182.736 173.427 182.658C173.375 182.606 148.155 184.807 132.689 186.213C130.646 186.399 130.728 185.846 132.797 185.476C133.71 185.312 143.954 183.468 155.56 181.378L176.662 177.577L174.637 177.461C173.524 177.397 162.993 177.243 151.236 177.118C129.274 176.884 128.855 176.87 129.291 176.394C129.683 175.966 172.024 173.456 183.452 173.184C201.547 172.752 204.859 173.288 222.493 179.505C267.387 195.333 302.436 209.294 318.518 217.752C330.873 224.25 350.624 237.035 368.916 250.375L373.854 253.977L384.353 255.569C390.128 256.444 394.9 257.106 394.958 257.039C395.016 256.972 389.399 254.596 382.477 251.759C371.2 247.138 368.204 245.72 370.672 246.172C371.112 246.252 375.776 247.113 381.038 248.085C386.3 249.057 390.641 249.811 390.685 249.76C390.729 249.709 384.245 246.817 376.276 243.334C363.379 237.695 359.96 236.022 362.57 236.626C366.634 237.566 389.542 242.393 389.603 242.322C389.689 242.222 359.156 229.723 357.567 229.207C356.696 228.925 356.242 228.355 356.866 228.328C357.092 228.318 373.921 233.052 388.04 237.098C390.348 237.759 392.282 238.248 392.337 238.183C392.421 238.086 353.442 219.751 348.552 217.588C347.695 217.209 346.989 216.753 346.983 216.575C346.97 216.167 344.353 215.374 370.864 223.81C383.443 227.813 393.779 231.037 393.833 230.974C393.922 230.871 376.766 222.732 350.614 210.47C345.253 207.956 340.862 205.77 340.857 205.613C340.845 205.252 337.995 204.457 366.051 212.64C379.352 216.519 390.263 219.661 390.297 219.621C390.356 219.552 380.677 215.623 352.655 204.341C345.978 201.652 340.459 199.397 340.391 199.329C339.825 198.768 343.479 199.628 364.504 205.003C377.679 208.372 388.501 211.079 388.553 211.018C388.605 210.958 378.541 206.738 366.189 201.64C353.836 196.542 343.73 192.232 343.731 192.062C343.732 191.893 343.864 191.78 344.024 191.812C350.238 193.058 388.16 200.205 388.215 200.141C388.258 200.09 378.199 196.024 365.86 191.105C353.521 186.186 343.299 182.054 343.144 181.922C342.473 181.354 344.98 181.893 364.434 186.497C375.725 189.169 385.006 191.307 385.057 191.247C385.141 191.149 342.786 173.384 339.861 172.29C338.777 171.885 338.184 171.317 338.818 171.29C338.937 171.285 349.233 173.42 361.697 176.034C374.161 178.648 384.398 180.742 384.445 180.688C384.492 180.633 381.333 179.183 377.425 177.465C334.624 158.651 336.033 159.287 337.046 159.243C337.261 159.233 347.866 162.413 360.615 166.309C373.364 170.205 383.827 173.352 383.867 173.302C383.94 173.21 340.494 150.752 339.006 150.112C338.037 149.696 337.917 149.122 338.835 149.297C339.195 149.366 349.133 152.511 360.921 156.287C372.708 160.063 382.394 163.104 382.444 163.045C382.495 162.986 372.035 157.76 359.2 151.431C338.931 141.436 335.075 139.432 336.034 139.39C336.201 139.383 348.881 143.017 378.512 151.562C383.626 153.037 387.856 154.191 387.911 154.126C387.967 154.062 383.884 151.941 378.837 149.414C352.649 136.298 334.762 127.296 334.632 127.167C333.873 126.409 338.379 127.82 361.566 135.602C376.272 140.537 388.396 144.571 388.508 144.564C388.62 144.559 385.936 143.091 382.543 141.305C379.151 139.518 367.895 133.579 357.53 128.106C347.165 122.634 337.947 117.805 337.045 117.375C335.041 116.42 334.733 115.6 336.621 116.242C337.303 116.474 348.434 120.167 361.356 124.448C374.279 128.73 385.231 132.373 385.695 132.545C386.16 132.716 386.581 132.808 386.631 132.75C386.726 132.64 385.242 131.845 356.484 116.578C347.032 111.561 339.174 107.342 339.021 107.203C338.528 106.755 339.023 106.59 339.891 106.913C342.611 107.926 380.408 120.651 380.472 120.576C380.515 120.526 370.092 115.297 357.309 108.956C344.527 102.615 333.943 97.3124 333.791 97.1731C333.301 96.7266 333.79 96.5582 334.66 96.8732C336.23 97.441 373.955 108.818 374.016 108.742C374.05 108.7 365.521 104.492 355.064 99.3907C344.607 94.289 336.037 90.0106 336.018 89.8832C335.953 89.4326 336.874 89.6756 353.9 94.6035C363.356 97.3405 371.125 99.5428 371.164 99.4974C371.203 99.452 363.215 95.4578 353.413 90.6215C336.043 82.0517 334.191 81.0813 335.719 81.3513C336.253 81.4457 359.909 90.0145 371.648 94.3658C372.936 94.8435 372.234 94.4024 354.663 83.7017C345.131 77.8969 337.134 73.0257 336.891 72.8767C336.648 72.7277 336.529 72.508 336.627 72.3885C336.725 72.269 344.244 75.7851 353.337 80.2022C362.43 84.6192 369.668 88.0353 369.422 87.7934C369.04 87.4176 335.164 62.7618 333.499 61.6473C333.174 61.4301 332.99 61.1545 333.089 61.0349C333.188 60.9152 342.103 65.759 352.899 71.7988C363.696 77.8386 372.554 82.7431 372.585 82.6976C372.635 82.624 338.052 53.8009 336.449 52.58C336.092 52.308 335.888 51.9835 335.995 51.8589C336.103 51.7343 344.391 57.0065 354.414 63.575C364.437 70.1434 373.036 75.7627 373.522 76.0623L374.405 76.607L373.921 76.0186C373.654 75.6949 367.309 67.8627 359.821 58.6136C352.332 49.3646 345.797 41.3624 345.298 40.8309C344.434 39.9109 344.358 39.0786 345.192 39.6761C345.409 39.8316 353.371 46.7546 362.885 55.0605C372.399 63.3665 380.504 70.4072 380.897 70.7066L381.611 71.251L379.924 68.1065C378.997 66.377 373.765 56.6231 368.298 46.4311C362.83 36.2391 358.417 27.7699 358.491 27.6107C358.655 27.2534 357.174 25.3159 372.824 46.3661C380.107 56.1625 386.11 64.1267 386.163 64.0644C386.217 64.0021 383.385 55.6479 379.87 45.4995C374.47 29.912 373.19 25.8868 373.916 26.7823C373.972 26.8511 379.16 36.1964 385.445 47.5497C391.73 58.903 396.971 68.3009 397.093 68.4339C397.215 68.5669 397.245 68.006 397.16 67.1875C397.075 66.3689 396.557 59.7032 396.009 52.3747C395.461 45.0462 394.914 38.1802 394.794 37.1168C394.651 35.8558 394.681 35.1787 394.88 35.17C395.267 35.1532 394.698 33.0879 400.125 54.2162C402.709 64.2773 404.909 72.6072 405.013 72.7272C405.117 72.8472 405.377 66.9602 405.591 59.645C405.805 52.3298 406.077 46.2251 406.195 46.079C406.488 45.7157 406.572 46.2297 408.421 59.7031C409.486 67.4583 410.1 71.1851 410.202 70.5064C410.287 69.9365 410.44 65.1298 410.542 59.8249C410.733 49.8513 410.779 49.0995 411.182 49.5637C411.313 49.7148 412.359 57.5618 413.507 67.0014C414.655 76.4411 415.681 84.2646 415.787 84.3869C415.893 84.5093 416.162 78.3049 416.385 70.5993C416.625 62.2879 416.906 56.5546 417.076 56.5041C417.428 56.3992 417.3 55.051 418.659 73.1162C419.286 81.4484 419.881 87.9277 419.981 87.5146C420.08 87.1015 420.326 80.9507 420.525 73.8461C420.725 66.7415 420.933 60.7431 420.987 60.5161C421.386 58.839 421.686 62.4922 422.325 76.7895C422.727 85.7966 423.15 93.5116 423.265 93.9341C423.383 94.366 423.827 89.6834 424.281 83.2345C425.058 72.1799 425.497 69.3615 425.778 73.6174C426.34 82.1002 428.128 106.638 428.19 106.699C428.232 106.741 428.729 99.865 429.294 91.4188C429.86 82.9726 430.367 75.8763 430.422 75.6494C430.813 74.035 431.064 78.071 431.764 97.1881C432.2 109.111 432.59 118.9 432.629 118.941C432.711 119.028 436.896 88.0542 437.11 85.7811C437.251 84.278 437.943 83.7756 437.85 85.2433C437.824 85.6569 437.598 93.6986 437.349 103.114C437.099 112.529 436.843 121.073 436.779 122.1C436.716 123.128 436.729 123.892 436.81 123.799C437.005 123.573 446.264 88.7639 446.25 88.3121C446.243 88.1183 446.368 87.954 446.527 87.9471C446.986 87.9271 446.965 88.1024 444.147 107.636C442.669 117.874 441.487 126.28 441.519 126.315C441.595 126.397 452.174 93.6023 452.361 92.7091C452.501 92.0365 453.001 91.747 453.02 92.3276C453.025 92.4983 450.988 102.116 448.492 113.7C445.996 125.284 443.995 134.802 444.044 134.851C444.094 134.901 447.232 126.319 451.019 115.782C454.805 105.244 457.937 96.563 457.98 96.4899C458.57 95.4815 457.826 99.9301 454.551 116.996C452.413 128.139 450.707 137.297 450.76 137.349C450.859 137.446 461.864 101.68 462.129 100.403C462.359 99.2896 462.878 99.5358 462.728 100.687C462.656 101.246 460.677 112.629 458.331 125.982C455.986 139.336 454.099 150.296 454.139 150.338C454.224 150.427 469.143 108.218 469.318 107.395C469.443 106.804 469.937 106.613 469.954 107.148C469.96 107.326 467.71 118.489 464.953 131.954C462.197 145.42 459.985 156.48 460.038 156.533C460.091 156.586 463.683 145.719 468.02 132.384C472.357 119.049 476.003 108.129 476.122 108.119C476.494 108.086 476.48 108.161 470.753 136.246C467.669 151.367 465.188 163.78 465.24 163.831C465.353 163.944 479.763 115.858 479.749 115.415C479.743 115.243 479.868 115.096 480.027 115.09C480.483 115.07 480.606 114.457 474.805 141.18C471.764 155.194 469.316 166.699 469.365 166.748C469.455 166.838 482.884 122.639 483.429 120.457C483.702 119.364 484.19 118.829 484.214 119.595C484.223 119.879 478.438 148.166 472.582 176.467C471.694 180.762 471.011 184.319 471.064 184.372C471.154 184.462 485.484 134.766 486.121 132.156C486.384 131.077 486.874 130.519 486.898 131.271C486.904 131.444 484.654 142 481.899 154.727C473.916 191.6 473.788 192.201 473.898 192.311C473.991 192.403 487.513 145.04 488.574 140.909C488.962 139.397 489.458 138.686 489.468 139.627C489.471 139.84 486.369 154.21 482.576 171.559C478.782 188.908 475.713 203.138 475.756 203.181C475.825 203.25 488.327 164.064 490.769 156.124C491.853 152.603 491.841 152.631 492.113 152.902C492.221 153.01 492.073 154.054 491.785 155.222C485.585 180.331 479.193 206.614 479.269 206.689C479.359 206.779 490.735 170.808 493.276 162.398C493.876 160.411 494.528 158.72 494.723 158.641C494.953 158.547 495.03 158.703 494.942 159.088C494.867 159.413 493.877 163.357 492.741 167.852C488.235 185.691 478.381 225.636 478.465 225.721C478.541 225.796 497.639 171.16 498.923 167.194C499.301 166.024 499.831 165.382 499.853 166.067C499.857 166.196 495.791 181.158 490.818 199.317C485.844 217.475 481.809 232.365 481.851 232.407C481.893 232.449 485.674 222.011 490.253 209.211C499.397 183.655 498.674 185.598 498.942 185.866C499.049 185.973 498.47 188.714 497.657 191.959C492.418 212.86 483.73 248.107 483.8 248.177C483.878 248.254 499.868 203.433 500.854 200.374C501.231 199.206 501.762 198.561 501.783 199.246C501.786 199.374 498.398 211.294 494.253 225.735C490.107 240.175 486.759 252.033 486.812 252.086C486.864 252.138 490.371 243.186 494.605 232.192C498.839 221.198 502.756 211.029 503.309 209.594C504.425 206.699 505.211 205.991 504.396 208.614C502.492 214.742 487.492 265.687 487.569 265.764C487.621 265.816 491.572 258.474 496.348 249.449C506.252 230.732 505.613 231.895 505.858 232.14C506.001 232.282 492.816 266.016 490.886 270.446C489.647 273.29 491.577 269.724 498.036 257.233C506.361 241.134 505.439 242.84 505.684 243.085C505.79 243.19 503.922 249.486 501.532 257.074C499.143 264.662 497.115 271.154 497.026 271.5C496.841 272.221 497.212 271.519 500.532 264.875C503.259 259.419 503.086 259.723 503.325 259.962C503.424 260.06 503.011 261.581 502.407 263.34C497.578 277.412 494.925 291.415 494.625 304.402L494.55 307.67L496.898 301.039C516.799 244.83 538.027 209.232 577.112 166.522C604.714 136.359 624.235 119.099 641.276 109.787C656.648 101.388 692.505 87.9966 753.409 67.9109C767.557 63.2448 771.756 62.0222 769.439 63.2439C769.048 63.4497 753.308 69.6497 734.461 77.0217C715.614 84.3937 700.233 90.4661 700.281 90.5159C700.376 90.613 710.576 87.2629 745.58 75.6369C757.759 71.5919 768.096 68.1962 768.552 68.0908C769.987 67.7592 769.146 68.5346 767.385 69.167C766.486 69.4901 752.402 74.9522 736.088 81.3048C719.774 87.6575 703.958 93.8136 700.94 94.9851C697.922 96.1567 695.502 97.1647 695.562 97.2252C695.672 97.3343 760.349 77.1572 763.048 76.1723C764.646 75.5886 765.758 75.4563 765.354 75.8976C765.208 76.0571 751.344 81.1521 734.545 87.2199C717.746 93.2877 698.898 100.095 692.661 102.348C686.424 104.601 681.37 106.492 681.429 106.552C681.522 106.644 730.849 92.1437 750.104 86.3636C756.93 84.3146 757.405 84.2 757.418 84.6003C757.422 84.733 755.53 85.5099 753.214 86.3268C750.898 87.1436 737.12 92.1155 722.598 97.3752C708.076 102.635 691.916 108.482 686.687 110.369C681.457 112.256 677.29 113.834 677.426 113.876C677.672 113.953 742.723 97.7081 748.043 96.2414C750.828 95.4736 752.22 95.3944 750.855 96.0813C750.465 96.278 733.774 101.322 713.765 107.29C693.756 113.258 677.419 118.173 677.459 118.214C677.499 118.254 692.562 115.608 710.932 112.333C747.504 105.814 745.058 106.225 744.678 106.665C744.53 106.837 742.026 107.558 739.113 108.268C719.192 113.125 679.543 123.039 679.765 123.109C680.064 123.202 740.039 114.76 741.583 114.408C742.282 114.249 742.515 114.297 742.436 114.584C742.369 114.83 740.813 115.301 738.331 115.825C724.264 118.799 681.965 128.23 682.453 128.284C682.949 128.338 740.488 121.301 741.865 121.017C742.117 120.965 742.353 121.061 742.39 121.231C742.426 121.4 741.967 121.645 741.369 121.776C740.77 121.907 726.446 124.974 709.536 128.593C692.627 132.211 678.831 135.211 678.879 135.258C678.977 135.356 730.46 129.258 735.972 128.496C737.927 128.226 739.601 128.079 739.692 128.17C740.054 128.532 739.397 128.755 736.84 129.136C729.646 130.207 680.119 138.12 679.871 138.237C679.715 138.311 680.431 138.347 681.462 138.315C688.164 138.113 737.869 137.469 737.983 137.583C738.312 137.911 735.954 138.21 708.127 141.376C692.065 143.203 678.472 144.805 677.92 144.937C676.895 145.181 723.678 144.829 731.425 144.534C734.711 144.409 735.679 144.463 735.597 144.765C735.531 145.007 734.835 145.218 733.786 145.315C726.58 145.98 676.693 151.01 676.242 151.117C675.92 151.194 676.061 151.255 676.565 151.256C677.058 151.258 686.617 151.491 697.806 151.773C708.995 152.055 719.84 152.317 721.906 152.356C723.972 152.394 725.601 152.549 725.527 152.701C725.383 152.993 709.675 153.693 686.888 154.424C679.351 154.665 673.317 154.923 673.478 154.997C673.748 155.12 709.503 159.341 711.428 159.477C711.893 159.51 712.334 159.714 712.408 159.931C712.513 160.237 712.132 160.303 710.708 160.224C708.304 160.091 667.342 159.767 667.244 159.88C667.173 159.962 698.417 166.796 706.672 168.503C708.822 168.948 710.64 169.479 710.711 169.683C710.802 169.947 710.558 170.013 709.866 169.913C708.267 169.68 666.64 166.056 666.565 166.143C666.509 166.208 676.094 168.781 701.788 175.6C703.145 175.961 703.835 176.775 702.538 176.486C701.237 176.195 657.694 169.53 657.307 169.562C657.088 169.58 666.16 172.549 677.467 176.16C688.773 179.77 698.085 182.785 698.159 182.86C698.644 183.344 695.44 182.92 672.52 179.465C658.493 177.35 646.991 175.65 646.961 175.685C646.912 175.743 660.389 180.833 681.923 188.891C685.698 190.304 688.842 191.619 688.909 191.814C688.986 192.036 688.829 192.109 688.487 192.008C686.735 191.492 647.534 182.103 647.465 182.184C647.381 182.281 684.081 196.667 685.878 197.242C687.039 197.613 687.177 198.248 686.047 198.025C685.608 197.938 675.091 195.172 662.677 191.879C650.263 188.586 640.084 185.917 640.056 185.949C640.028 185.981 648.548 190.04 658.987 194.97C669.427 199.899 677.985 204.071 678.005 204.241C678.049 204.621 681.081 205.553 657.256 197.864C646.033 194.242 636.813 191.322 636.767 191.375C636.721 191.428 643.128 194.949 651.004 199.2C658.881 203.45 667.937 208.337 671.129 210.06C674.32 211.783 676.937 213.337 676.942 213.514C676.948 213.696 676.73 213.751 676.441 213.641C672.734 212.234 631.554 197.745 631.486 197.824C631.434 197.884 633.88 199.509 636.921 201.435C644.226 206.064 667.638 220.942 668.389 221.434C669.824 222.374 668.41 222.115 665.892 220.977C664.376 220.292 654.645 215.886 644.265 211.185C633.886 206.484 625.359 202.679 625.316 202.729C625.253 202.802 650.048 225.298 654.786 229.466C655.524 230.116 655.805 230.524 655.528 230.544C655.282 230.561 654.954 230.452 654.798 230.3C654.417 229.928 621.633 210.859 621.563 210.968C621.516 211.04 630.548 219.578 643.38 231.595C646.343 234.369 646.879 235.352 644.684 233.986C640.335 231.278 628.113 225.139 620.656 221.917C613.877 218.987 602.017 214.626 601.731 214.957C601.679 215.018 603.715 216.144 606.255 217.46C619.643 224.394 632.778 231.744 640.725 236.746C642.284 237.727 640.544 237.429 637.955 236.272C633.904 234.46 622.281 229.885 614.542 227.057C607.742 224.572 592.241 219.527 592.058 219.74C592.008 219.798 601.194 223.974 612.471 229.02C629.997 236.862 635.022 239.276 632.484 238.632C632.203 238.56 623.994 236.452 614.24 233.947C604.486 231.441 596.461 229.443 596.407 229.505C596.353 229.568 597.92 230.189 599.89 230.886C609.712 234.357 629.173 241.386 629.292 241.506C629.805 242.018 626.759 241.497 606.82 237.657C594.536 235.291 584.445 233.401 584.397 233.458C584.348 233.514 592.878 236.823 603.351 240.81L622.393 248.06L628.075 245.841C658.951 233.783 683.663 227.656 728.866 220.85C774.33 214.005 820.542 210.938 844.847 213.153C866.088 215.088 876.897 218.492 890.645 227.577C895.796 230.981 905.881 238.94 905.902 239.618C905.917 240.073 905.474 239.886 889.942 232.906C881.406 229.07 873.966 225.743 873.41 225.512L872.398 225.093L873.434 226.245C876.569 229.73 897.407 252.982 898.389 254.09C899.79 255.671 899.624 256.136 898.091 254.923C897.48 254.44 889.92 248.639 881.29 242.032C872.661 235.425 864.744 229.347 863.697 228.525C862.65 227.703 861.921 227.242 862.076 227.501C862.232 227.759 868.266 235.93 875.487 245.658C882.707 255.386 888.804 263.612 889.035 263.939C889.736 264.929 889.107 265.065 888.285 264.101C886.424 261.919 866.223 239.754 866.16 239.826C866.122 239.87 869.143 245.854 872.873 253.124C886.324 279.341 887.377 281.435 887.21 281.628C887.001 281.87 889.715 285.58 868.598 256.181C858.566 242.216 850.313 230.843 850.256 230.908C850.2 230.973 853.807 242.848 858.271 257.297C865.116 279.449 866.68 284.867 865.939 283.856C865.856 283.743 860.226 271.069 847.094 241.435C844.591 235.786 842.504 231.209 842.457 231.264C842.409 231.319 844.359 241.856 846.789 254.68C850.56 274.579 851.319 279.109 850.749 278.3C850.7 278.231 847.054 268.539 842.646 256.762C838.239 244.985 834.543 235.244 834.434 235.115C834.324 234.986 834.291 235.267 834.361 235.74C834.61 237.437 840.58 291.753 840.606 292.556C840.62 293.008 840.503 293.384 840.344 293.39C840.185 293.397 840.049 293.188 840.04 292.926C840.026 292.465 827.387 242.217 826.817 240.353C826.651 239.81 826.877 250.324 827.368 265.974C827.926 283.759 828.105 292.555 827.909 292.634C827.749 292.7 827.61 292.507 827.6 292.206C827.579 291.551 816.157 241.806 815.987 241.627C815.922 241.559 816.137 250.153 816.466 260.726C817.112 281.54 817.262 291.09 816.945 291.216C816.833 291.26 816.206 289.259 815.551 286.769C814.896 284.279 812.093 273.877 809.324 263.653L804.288 245.064L804.494 257.646C804.608 264.566 804.861 276.516 805.057 284.201C805.273 292.718 805.306 298.18 805.139 298.188C804.989 298.194 802.389 286.836 799.361 272.947C796.332 259.058 793.793 247.487 793.718 247.234C793.642 246.981 793.865 256.344 794.211 268.042C794.939 292.576 795.061 301.381 794.678 301.545C794.529 301.608 794.407 301.474 794.408 301.245C794.41 300.503 783.831 255.418 783.758 255.856C783.718 256.09 784.972 265.808 786.543 277.453C788.115 289.097 789.41 298.925 789.422 299.292C789.471 300.838 788.944 299.738 787.946 296.214C784.783 285.043 774.615 250.799 774.619 251.33C774.622 251.672 775.758 263.018 777.144 276.545C779.89 303.352 779.848 302.864 779.43 302.882C779.272 302.889 779.139 302.72 779.134 302.506C779.126 302.071 764.313 248.506 764.23 248.61C764.201 248.646 765.119 260.316 766.271 274.543C767.423 288.77 768.389 301.074 768.419 301.885C768.48 303.568 768.064 303.875 767.748 302.38C767.295 300.239 753.632 253.834 753.627 254.42C753.624 254.762 754.738 266.78 756.102 281.127C758.243 303.635 758.595 308.219 758.131 307.514C758.086 307.445 755.17 296.554 751.653 283.312C748.135 270.07 745.228 259.425 745.193 259.656C745.157 259.886 746.377 270.557 747.902 283.367C750.898 308.534 750.861 308.167 750.435 308.186C750.277 308.193 750.141 308.034 750.135 307.832C750.126 307.56 735.334 263.263 734.651 261.464C734.366 260.713 734.677 263.808 736.973 284.572C739.617 308.493 739.603 308.347 739.179 308.365C739.021 308.372 738.885 308.203 738.878 307.99C738.86 307.409 726.089 263.232 725.977 263.362C725.924 263.424 726.913 273.258 728.176 285.215C729.438 297.172 730.484 307.357 730.5 307.849C730.53 308.792 729.972 309.156 729.924 308.224C729.909 307.926 727.103 297.241 723.689 284.48C720.276 271.719 717.556 261.835 717.646 262.515C718.394 268.187 722.849 310.997 722.708 311.16C722.447 311.463 723.136 313.285 712.713 284.702C707.415 270.173 703.046 258.412 703.004 258.566C702.962 258.72 704.577 269.685 706.593 282.932C710.539 308.856 710.432 308.063 710.005 308.081C709.846 308.088 709.712 307.919 709.707 307.706C709.693 307.18 697.586 265.711 697.481 265.832C697.436 265.885 698.956 276.063 700.86 288.45C704.58 312.659 704.497 312.051 704.069 312.07C703.91 312.077 703.775 311.908 703.768 311.695C703.739 310.809 690.917 266.843 690.858 267.43C690.822 267.783 691.686 277.398 692.776 288.797C695.453 316.789 695.376 315.868 695.027 315.884C694.863 315.891 694.624 315.307 694.496 314.585C693.85 310.924 683.664 268.836 683.682 269.901C683.694 270.584 684.249 280.213 684.917 291.298C685.584 302.383 686.186 312.421 686.255 313.606C686.337 315.018 686.265 315.806 686.047 315.895C685.864 315.969 685.713 315.843 685.711 315.616C685.705 314.825 677.215 280.463 677.145 280.944C677.075 281.425 682.098 316.14 682.471 317.752C682.592 318.275 682.544 318.603 682.346 318.612C681.947 318.629 682.604 320.833 676.795 299.973C674.056 290.136 671.774 282.134 671.724 282.192C671.674 282.25 672.809 290.487 674.247 300.496C675.684 310.506 676.899 318.973 676.946 319.313C676.994 319.653 676.905 319.937 676.748 319.944C676.592 319.95 675.081 315.679 673.39 310.453C671.699 305.226 669.249 297.66 667.947 293.64C666.644 289.62 665.543 286.459 665.5 286.617C665.437 286.844 669.256 310.052 670.275 315.64C670.406 316.361 670.398 316.956 670.256 316.962C670.114 316.968 666.836 309.102 662.972 299.481C659.107 289.861 655.781 281.665 655.58 281.267L655.214 280.546L655.373 282.209C655.575 284.335 658.058 318.045 658.093 319.149C658.133 320.388 657.649 320.169 657.414 318.843C656.735 314.997 650.467 283.348 650.4 283.425C650.356 283.477 649.854 291.854 649.287 302.041C648.719 312.228 648.206 320.623 648.147 320.697C647.83 321.096 647.562 319.238 645.946 305.387C644.976 297.075 644.142 290.079 644.092 289.841C644 289.402 638.864 323.73 638.907 324.493C638.92 324.72 638.794 324.864 638.626 324.811C638.421 324.747 638.192 320.753 637.927 312.614C637.71 305.957 637.485 300.653 637.427 300.827C637.369 301 636.654 306.899 635.839 313.934C635.023 320.97 634.296 326.795 634.223 326.88C633.939 327.209 633.808 326.54 632.642 318.841C631.981 314.472 631.408 310.934 631.369 310.979C631.33 311.025 631.396 314.797 631.515 319.362C631.635 323.928 631.63 327.738 631.504 327.829C631.378 327.92 629.394 324.852 627.095 321.01C624.795 317.169 622.868 314.08 622.811 314.146C622.754 314.212 623.81 318.034 625.158 322.639C626.506 327.244 627.542 331.089 627.461 331.184C627.269 331.406 627.446 331.551 619.287 324.494C615.445 321.172 612.047 318.242 611.736 317.984L611.17 317.514L611.447 317.988C611.699 318.418 622.451 334.29 622.652 334.529C622.7 334.585 628.092 334.106 634.635 333.464C648.992 332.056 668.732 330.257 683.964 328.969C726.026 325.41 765.646 323.684 795.704 324.101C846.534 324.807 887.622 330.919 937.876 345.251C956.168 350.468 987.275 360.709 986.706 361.328C986.581 361.464 983.21 360.966 979.216 360.223C975.221 359.479 971.759 358.874 971.522 358.88C971.285 358.885 972.747 359.772 974.769 360.85C981.622 364.504 987.529 368.428 992.81 372.836C995.781 375.315 998.618 378.293 998.178 378.472C998.04 378.528 987.133 373.517 973.94 367.335C960.746 361.153 949.918 356.134 949.877 356.182C949.835 356.23 952.635 358.684 956.099 361.635C966.049 370.114 972.567 376.266 971.596 376.266C971.464 376.266 962.611 371.009 951.923 364.583C941.235 358.158 932.446 352.94 932.392 352.988C932.276 353.091 951.377 374.842 951.82 375.112C952.197 375.342 952.233 375.876 951.872 375.892C951.724 375.898 946.984 372.941 941.338 369.32C935.692 365.7 930.91 362.676 930.711 362.601C930.513 362.526 933.721 367.865 937.84 374.465C941.96 381.064 945.257 386.55 945.167 386.655C944.985 386.865 944.365 386.348 930.287 374.248C924.897 369.616 920.441 365.876 920.384 365.936C920.328 365.997 922.18 369.978 924.5 374.783C926.82 379.589 928.651 383.598 928.568 383.694C928.486 383.789 927.919 383.398 927.308 382.823C926.697 382.249 921.038 376.92 914.733 370.981C908.428 365.042 902.687 359.637 901.974 358.97L900.678 357.758L901.883 359.726C902.546 360.809 906.618 367.344 910.932 374.249C915.245 381.154 918.844 386.977 918.928 387.191C919.396 388.378 917.661 386.721 909.593 378.277C904.692 373.147 899.834 368.077 898.798 367.011L896.915 365.072L897.531 366.511C905.428 384.954 910.374 396.753 910.262 396.883C909.947 397.248 909.117 395.988 897.598 377.657C891.012 367.175 885.592 358.636 885.554 358.681C885.516 358.725 888.511 365.758 892.21 374.308C898.755 389.434 899.594 391.51 899.026 391.164C898.876 391.073 894.739 384.938 889.834 377.531C884.928 370.125 880.87 364.115 880.817 364.177C880.764 364.238 882.905 370.858 885.576 378.887C888.247 386.916 890.33 393.595 890.206 393.73C890.082 393.865 889.926 393.832 889.861 393.658C889.514 392.73 873.37 364.398 873.311 364.614C873.272 364.754 874.89 371.715 876.906 380.081C880.766 396.097 880.764 396.086 880.31 396.106C880.151 396.113 875.791 387.769 870.619 377.564C865.447 367.36 861.163 359.012 861.099 359.015C861.035 359.018 861.044 359.262 861.119 359.558C861.195 359.854 862.743 367.866 864.56 377.362C866.377 386.858 867.937 394.857 868.027 395.138C868.37 396.209 867.597 396.007 867.134 394.905C865.403 390.779 853.134 363.45 853.055 363.542C852.973 363.638 859.687 394.027 860.277 396.231C860.634 397.565 859.942 397.028 859.006 395.246C848.3 374.869 840.361 359.916 840.29 359.998C840.209 360.092 851.421 396.185 851.905 397.389C852.016 397.666 851.996 397.974 851.86 398.072C851.724 398.171 847.591 389.978 842.676 379.866C837.76 369.755 833.71 361.515 833.675 361.555C833.64 361.596 836.219 370.185 839.406 380.643C842.593 391.1 845.293 400.036 845.405 400.502C845.659 401.552 845.115 401.668 844.745 400.642C844.376 399.619 822.935 356.627 822.846 356.731C822.764 356.826 833.421 395.875 834.669 400.05C835.561 403.037 835.613 403.337 835.233 403.354C835.089 403.36 834.764 402.78 834.511 402.064C833.89 400.31 816.795 359.98 816.429 359.406C816.204 359.052 816.178 359.087 816.31 359.566C816.403 359.904 818.371 368.282 820.683 378.184C822.994 388.086 825.253 397.617 825.701 399.364C826.606 402.885 826.658 403.222 826.265 402.982C826.115 402.891 825.676 401.888 825.288 400.752C824.899 399.617 820.92 388.845 816.445 376.814C811.969 364.784 807.916 353.87 807.437 352.561C806.958 351.252 806.523 350.231 806.47 350.292C806.418 350.353 808.905 362.006 811.997 376.187C816.803 398.23 817.763 403.054 817.18 402.249C817.13 402.18 815.681 397.218 813.96 391.223C807.08 367.266 802.876 352.852 802.795 352.947C802.706 353.049 809.271 400.434 809.62 402.215C809.808 403.173 809.342 403.729 809.08 402.861C809.016 402.65 806.415 393.326 803.299 382.141C800.183 370.956 797.598 361.931 797.553 362.085C797.479 362.344 798.961 372.303 802.654 396.35C803.447 401.515 804.104 405.998 804.114 406.313C804.161 407.755 803.611 406.592 802.616 403.14C801.66 399.826 789.762 359.878 788.059 354.268L787.407 352.12L787.454 354.294C787.48 355.49 788.218 368.818 789.095 383.912C789.971 399.006 790.744 412.367 790.812 413.603C790.881 414.839 790.828 415.89 790.695 415.939C790.562 415.989 788.521 405.481 786.159 392.589C783.797 379.697 781.795 368.872 781.709 368.534C781.624 368.196 781.938 377.765 782.408 389.799C782.878 401.833 783.285 411.769 783.313 411.879C783.341 411.989 783.236 412.105 783.079 412.136C782.923 412.168 780.873 402.939 778.524 391.627C776.174 380.316 774.224 371.429 774.19 371.879C774.137 372.562 776.974 410.975 777.283 413.778C777.339 414.285 777.227 414.744 777.027 414.826C776.831 414.906 776.668 414.785 776.665 414.557C776.652 413.6 766.215 372.81 766.158 373.492C766.123 373.904 767.118 383.643 768.368 395.136C769.618 406.628 770.652 416.399 770.667 416.849C770.699 417.871 770.237 417.944 770.027 416.95C769.798 415.863 757.694 376.615 757.616 376.705C757.58 376.746 758.803 387.557 760.335 400.728C761.867 413.899 763.131 424.991 763.143 425.376C763.193 426.916 762.681 425.913 761.67 422.486C759.551 415.303 750.994 387.6 750.989 387.903C750.985 388.074 751.852 395.101 752.913 403.519C755.026 420.264 755.021 420.214 754.604 420.232C754.446 420.239 754.313 420.07 754.311 419.857C754.301 419.193 744.236 380.236 744.153 380.541C744.11 380.699 743.665 387.682 743.164 396.059L742.254 411.288L743.939 413.08C744.866 414.066 750.531 419.952 756.527 426.162C767.241 437.257 768.058 438.156 767.262 437.975C766.987 437.913 732.214 419.49 725.251 415.717C724.987 415.574 726.202 419.943 726.503 420.217C727.214 420.866 739.041 428.932 746.228 433.671C762.788 444.588 774.209 451.411 793.427 461.865C811.21 471.538 811.43 471.696 820.661 481.428C826.886 487.989 829.735 490.706 833.778 493.935C839.631 498.609 848.092 504.191 852.879 506.536C854.049 507.11 855.011 507.716 855.016 507.885C855.031 508.346 854.55 508.279 853.264 507.64C852.625 507.323 849.962 506.163 847.346 505.062C841.202 502.478 840.51 502.199 840.69 502.374C840.772 502.455 844.899 505.526 849.86 509.199C860.353 516.967 859.173 516.045 858.95 516.304C858.851 516.419 856.373 515.478 853.443 514.214C850.512 512.95 848.079 511.958 848.035 512.009C847.97 512.084 873.164 532.397 874.875 533.649C875.133 533.838 875.263 534.085 875.164 534.2C875.066 534.314 870.778 532.297 865.636 529.717C860.494 527.137 856.251 525.057 856.206 525.095C856.161 525.133 858.173 528.109 860.677 531.71C864.796 537.632 865.537 538.822 865.114 538.84C865.04 538.844 863.613 537.887 861.942 536.714C860.271 535.541 857.575 533.681 855.952 532.581L853 530.582L861.043 538.654C865.466 543.094 869.003 546.822 868.902 546.939C868.802 547.055 860.681 542.849 850.857 537.592C830.074 526.471 832.331 527.657 832.706 528.057C833.078 528.455 876.444 556.684 876.987 556.882C877.204 556.961 877.389 557.229 877.397 557.478C877.406 557.787 875.986 557.206 872.934 555.653C870.472 554.399 860.271 549.294 850.264 544.307C840.257 539.321 830.155 534.271 827.814 533.085C825.473 531.899 823.692 531.067 823.856 531.237C824.02 531.406 834.662 539.077 847.504 548.284C875.2 568.141 872.377 566.068 872.13 566.367C872.019 566.501 871.758 566.474 871.55 566.307C870.663 565.591 822.731 536.736 823.181 537.188C823.345 537.354 835.559 547.479 850.324 559.691C882.81 586.558 879.88 584.091 879.644 584.376C879.536 584.506 878.942 584.218 878.324 583.735C876.877 582.605 829.168 548.394 828.583 548.067C827.921 547.697 826.834 546.708 855.5 572.543C870.219 585.808 884.185 598.398 886.536 600.521C888.887 602.643 890.684 604.432 890.529 604.495C890.374 604.557 881.621 598.527 871.078 591.095C860.534 583.662 851.51 577.316 851.023 576.993C850.536 576.67 859.3 585.567 870.498 596.764C881.697 607.961 890.86 617.163 890.862 617.213C890.876 617.642 889.879 617.021 887.824 615.321C882.392 610.826 848.745 583.958 848.677 584.06C848.636 584.121 857.63 594.83 868.662 607.857C889.869 632.899 889.8 632.815 889.552 633.103C889.464 633.205 887.797 631.629 885.848 629.602C854.595 597.091 843.353 585.464 843.359 585.655C843.363 585.768 857.002 610.617 865.768 626.48C868.582 631.573 870.816 635.874 870.733 636.039C870.65 636.204 870.46 636.142 870.312 635.902C865.049 627.375 842.361 591.009 842.218 590.871C842.107 590.763 842.223 591.156 842.478 591.743C844.077 595.437 862.015 635.427 862.418 636.198C863.488 638.242 862.83 638.402 861.697 636.372C861.255 635.58 855.063 624.483 847.938 611.713C840.813 598.943 834.869 588.365 834.729 588.207C834.589 588.048 834.685 588.534 834.944 589.285C835.202 590.037 838.865 601.203 843.084 614.1C847.302 626.997 850.9 637.922 851.08 638.378C851.289 638.909 851.308 639.279 851.133 639.406C850.983 639.515 850.791 639.423 850.706 639.203C846.199 627.416 831.532 590.08 831.447 590.178C831.359 590.28 842.782 638.671 843.399 640.813C843.923 642.63 843.254 642.631 842.697 640.814C838.175 626.081 825.949 588.186 825.903 588.763C825.857 589.354 829.512 631.566 830.049 636.651C830.107 637.198 830.024 637.636 829.865 637.623C829.706 637.611 829.234 635.433 828.817 632.784C826.788 619.902 822.022 591.132 821.934 591.234C821.879 591.297 822.178 597.675 822.598 605.408C824.191 634.741 824.285 636.84 823.992 636.538C823.833 636.374 822.706 628.449 821.487 618.927C820.269 609.404 818.9 598.762 818.446 595.277L817.62 588.939L817.792 601.056C818.179 628.304 818.202 632.012 817.985 631.773C817.86 631.636 816.623 621.224 815.237 608.634C813.85 596.045 812.657 585.686 812.586 585.615C812.515 585.544 812.481 586.242 812.512 587.167C812.612 590.152 812.361 628.957 812.242 629.096C811.957 629.427 811.692 627.641 808.607 604.561C806.812 591.134 805.295 579.87 805.236 579.531C804.899 577.599 804.839 582.009 804.92 602.705C804.97 615.27 804.909 625.678 804.784 625.834C804.489 626.204 804.7 627.467 800.666 601.18C798.736 588.611 797.103 578.272 797.036 578.203C796.969 578.135 797.03 579.531 797.173 581.306C797.7 587.874 799.912 626.335 799.772 626.498C799.474 626.843 799.334 626 796.58 607.265C795.032 596.731 793.367 585.542 792.88 582.4L791.994 576.687L792.691 594.377C793.075 604.107 793.584 615.661 793.823 620.053C794.13 625.691 794.166 628.044 793.946 628.053C793.774 628.061 793.548 627.616 793.442 627.065C793.337 626.514 791.272 615.027 788.853 601.539C786.435 588.051 784.398 576.878 784.328 576.71C784.258 576.542 784.528 586.946 784.929 599.829C785.329 612.713 785.543 623.126 785.403 622.969C785.264 622.813 784.182 615.662 782.999 607.079C781.817 598.496 780.798 591.336 780.735 591.167C780.673 590.999 780.829 597.672 781.084 605.997C781.512 620.017 781.422 624.103 780.787 619.377C777.801 597.117 776.39 586.413 776.373 585.867C776.361 585.496 776.289 585.265 776.213 585.353C776.137 585.441 775.864 593.051 775.606 602.264C775.178 617.571 775.074 619.607 774.737 619.226C774.677 619.158 773.762 611.1 772.705 601.32C771.648 591.54 770.723 583.478 770.649 583.405C770.575 583.331 770.522 583.468 770.531 583.71C770.573 584.86 768.099 610.402 767.924 610.632C767.634 611.01 767.212 605.211 766.578 592.163C766.273 585.887 765.975 580.809 765.916 580.878C765.856 580.946 764.679 587.262 763.298 594.913C761.918 602.564 760.678 608.863 760.543 608.911C760.28 609.005 760.097 603.517 759.788 586.328C759.673 579.909 759.5 575.865 759.357 576.243C759.099 576.929 752.132 598.281 751.872 599.186C751.785 599.489 751.579 599.742 751.416 599.75C751.059 599.765 751.054 599.651 751.343 598.043C751.839 595.289 754.884 572.743 754.794 572.485C754.741 572.333 751.552 578.965 747.705 587.222C743.859 595.48 740.67 602.296 740.617 602.37C739.936 603.325 740.868 599.584 744.699 585.989C747.2 577.111 749.207 569.806 749.158 569.757C749.109 569.708 746.483 575.17 743.323 581.894C740.162 588.618 737.483 594.062 737.368 593.993C737.253 593.923 738.674 586.919 740.524 578.429C742.375 569.939 743.852 562.959 743.808 562.916C743.763 562.874 741.406 569.327 738.571 577.256C735.735 585.186 733.379 591.733 733.334 591.806C732.886 592.541 733.037 589.131 734.105 574.359C734.789 564.904 735.307 557.128 735.256 557.077C735.177 556.999 728.127 603.904 726.306 616.618C725.72 620.718 725.272 622.231 725.211 620.324C725.198 619.899 725.968 603.404 726.923 583.668C727.878 563.932 728.626 547.752 728.586 547.712C728.505 547.631 716.621 619.983 716.405 621.87C716.256 623.178 715.783 623.486 715.745 622.3C715.732 621.88 716.554 604.825 717.572 584.4C718.589 563.974 719.382 547.15 719.333 547.012C719.236 546.74 709.414 615.161 709.459 615.799C709.474 616.012 709.338 616.193 709.157 616.201C708.737 616.219 708.571 618.771 711.591 578.663C712.998 559.981 714.105 544.5 714.051 544.26C713.964 543.878 703.67 607.291 703.328 610.315C703.199 611.454 702.709 611.992 702.678 611.028C702.67 610.764 704.464 593.668 706.664 573.037C708.865 552.406 710.624 535.485 710.573 535.434C710.485 535.346 696.433 602.422 695.828 605.823C695.509 607.612 694.934 608.123 695.091 606.477C695.144 605.919 697.583 590.196 700.51 571.536C703.437 552.877 705.789 537.569 705.738 537.517C705.657 537.436 691.889 598.273 689.94 607.323C689.346 610.08 688.829 611.388 688.792 610.228C688.786 610.045 692.082 593.232 696.116 572.865C700.15 552.498 703.415 535.799 703.372 535.756C703.33 535.713 698.467 553.287 692.566 574.809C686.665 596.331 681.725 613.952 681.588 613.966C681.204 614.007 681.25 613.766 686.442 588.434C694.031 551.409 695.399 544.622 695.294 544.518C695.24 544.464 691.619 558.355 687.246 575.386C680.352 602.239 678.629 608.452 678.571 606.668C678.561 606.348 682 589.28 690.672 546.615C691.827 540.935 692.732 536.249 692.683 536.201C692.635 536.153 691.773 538.907 690.767 542.323C683.935 565.529 672.835 603.038 672.768 603.148C672.121 604.215 673.399 597.855 679.389 570.206C683.285 552.224 686.43 537.469 686.377 537.416C686.325 537.364 681.583 552.455 675.839 570.952C670.096 589.449 665.359 604.643 665.313 604.716C664.662 605.756 665.969 599.626 672.106 572.849C676.092 555.454 679.313 541.181 679.263 541.13C679.166 541.033 659.12 601.776 658.897 602.842C658.764 603.479 658.264 603.75 658.247 603.195C658.241 603.03 661.393 589.657 665.25 573.476C669.107 557.296 672.215 544.009 672.155 543.95C672.063 543.858 654.418 597.225 653.086 601.622C652.626 603.143 652.018 603.721 652.23 602.436C652.294 602.049 655.585 588.866 659.544 573.142C663.502 557.418 666.704 544.517 666.66 544.472C666.587 544.4 653.308 584.465 649.077 597.522C647.264 603.114 647.343 602.915 647.054 602.626C646.939 602.512 647.346 600.687 647.957 598.571C651.983 584.631 664.06 541.876 663.992 541.808C663.915 541.731 643.541 598.966 642.817 601.292C642.457 602.45 641.915 602.711 642.106 601.633C642.175 601.246 646.221 587.127 651.098 570.259C655.975 553.391 659.919 539.544 659.861 539.486C659.771 539.396 640.829 591.952 640 594.594C639.693 595.571 639.245 595.965 639.223 595.277C639.217 595.09 641.527 586.351 644.355 575.857C653.99 540.118 657.253 527.867 657.163 527.776C657.082 527.696 640.762 572.007 638.985 577.13C638.294 579.122 637.656 579.922 637.891 578.501C637.955 578.113 640.688 567.416 643.963 554.729C647.239 542.042 649.866 531.608 649.801 531.544C649.737 531.48 649.256 532.811 648.733 534.503C639.03 565.868 636.507 573.823 636.223 573.938C635.987 574.035 635.944 573.851 636.08 573.332C636.55 571.548 647.466 520.197 647.392 520.123C647.309 520.04 633.019 568.451 632.197 571.599C631.959 572.507 631.66 573.254 631.532 573.26C631.164 573.276 631.229 572.653 631.895 569.811C633.737 561.945 644.671 512.898 644.599 512.826C644.551 512.779 640.209 526.067 634.949 542.357C629.689 558.646 625.263 571.978 625.114 571.985C624.964 571.991 624.905 571.679 624.983 571.291C625.593 568.218 631.934 530.23 631.85 530.146C631.791 530.087 631.258 531.913 630.667 534.204C626.526 550.249 621.597 568.256 621.315 568.371C621.103 568.457 621.032 568.291 621.123 567.921C621.333 567.067 626.677 528.066 626.64 527.655C626.609 527.302 623.573 539.611 619.535 556.465C618.301 561.614 617.173 565.816 617.028 565.803C616.883 565.79 616.788 565.612 616.817 565.408C617.841 558.102 621.981 526.301 621.916 526.236C621.865 526.186 619.113 534.126 615.8 543.88C612.486 553.635 609.728 561.677 609.67 561.75C609.18 562.376 609.681 559.367 612.594 544.224C614.429 534.68 615.891 526.831 615.842 526.783C615.794 526.734 613.375 533.469 610.467 541.749C607.559 550.028 605.007 556.873 604.796 556.959C604.527 557.069 604.465 556.946 604.591 556.555C604.827 555.813 610.778 517.819 610.673 517.714C610.629 517.67 608.227 524.849 605.336 533.668C602.444 542.488 599.948 549.686 599.789 549.666C599.629 549.645 599.532 549.506 599.573 549.356C599.877 548.249 605.785 516.439 605.703 516.357C605.645 516.299 603.68 522.457 601.335 530.04C598.99 537.623 596.963 543.965 596.831 544.133C596.357 544.733 596.586 543.202 599.486 526.426C601.097 517.099 602.368 509.421 602.309 509.362C602.222 509.275 594.539 536.635 593.968 539.066C593.751 539.988 593.162 540.013 593.31 539.095C593.372 538.707 594.917 529.461 596.743 518.547C598.568 507.633 600.018 498.66 599.965 498.606C599.911 498.553 597.605 506.329 594.839 515.886C592.074 525.443 589.701 533.4 589.566 533.569C589.104 534.145 589.283 532.758 592.145 513.619C593.719 503.097 595.069 494.065 595.145 493.549C595.522 491.005 595.276 491.908 586.032 527.132C585.615 528.722 584.92 529.286 585.221 527.789C585.678 525.522 592.847 483.384 592.786 483.324C592.747 483.286 589.702 492.021 586.018 502.736C579.601 521.401 579.025 522.981 578.745 522.688C578.677 522.616 580.498 512.895 582.791 501.085C585.085 489.274 586.929 479.579 586.89 479.54C586.851 479.501 584.084 487.065 580.741 496.348C577.397 505.632 574.58 513.131 574.48 513.013C574.38 512.895 575.148 505.837 576.187 497.328C577.226 488.819 578.037 481.818 577.99 481.771C577.908 481.69 573.46 494.361 571.778 499.471C570.796 502.452 570.8 502.919 571.832 505.432C572.899 508.031 572.754 508.296 571.057 506.85L569.648 505.649L568.286 507.363C566.631 509.447 566.44 509.345 567.088 506.723C567.364 505.609 567.585 504.54 567.58 504.349C567.573 504.067 552.356 491.256 550.278 489.782L549.7 489.372L549.969 489.819C550.212 490.222 557.896 501.089 598.879 558.982C605.689 568.602 611.329 576.646 611.412 576.856C611.794 577.822 610.886 577.043 608.827 574.635C601.251 565.779 554.299 511.639 553.556 510.904L552.654 510.01L553.561 511.214C554.06 511.876 563.884 525.019 575.391 540.419C586.899 555.82 599.96 573.277 604.415 579.214C608.87 585.151 612.475 590.155 612.426 590.334C612.344 590.634 603.33 580.363 557.832 528.127C548.792 517.748 541.12 508.989 540.783 508.662L540.169 508.067L540.732 508.975C541.042 509.474 557.877 534.657 578.142 564.937C598.408 595.216 614.895 620.099 614.781 620.232C614.666 620.365 614.324 620.135 614.02 619.721C613.717 619.307 606.451 610.251 597.875 599.596C589.3 588.941 575.675 572.012 567.598 561.976C559.522 551.94 552.856 543.732 552.785 543.735C552.608 543.743 556.007 548.908 598.401 613.052C605.635 623.997 611.558 633.078 611.563 633.23C611.579 633.724 611.236 633.54 610.577 632.699C610.222 632.246 602.91 623.367 594.327 612.966C585.745 602.566 573.997 588.317 568.221 581.301C562.446 574.286 557.585 568.412 557.42 568.248C556.868 567.7 557.566 568.776 560.853 573.539C562.628 576.112 575.302 594.586 589.017 614.593C602.731 634.599 615.168 652.711 616.654 654.842C618.14 656.972 619.28 658.803 619.188 658.91C618.955 659.18 620.144 660.572 599.666 636.046C589.472 623.837 580.92 613.647 580.662 613.402L580.192 612.956L580.514 613.409C581.08 614.203 618.097 664.888 621.809 669.952C625.17 674.536 625.562 675.151 625.164 675.213C625.075 675.227 620.278 670.224 614.504 664.097C592.545 640.793 585.53 633.397 585.388 633.404C585.308 633.407 585.711 634.054 586.284 634.841C586.857 635.628 594.447 646.525 603.151 659.055C611.855 671.585 619.389 682.414 619.893 683.118C621.072 684.768 620.688 685.258 619.437 683.7C617.481 681.267 574.449 630.895 573.715 630.181C573.295 629.772 574.109 631.136 575.525 633.211C595.628 662.683 612.936 688 614.591 690.355C615.732 691.978 616.667 693.372 616.67 693.451C616.684 693.903 615.953 693.494 615.254 692.66C610.762 687.298 568.615 639.592 569.554 640.932C571.482 643.685 593.236 674.493 601.038 685.524C606.594 693.377 611.064 699.89 610.973 699.996C610.749 700.255 612.214 701.911 589.834 676.112C578.899 663.507 569.818 653.061 569.652 652.897C569.013 652.266 571.136 655.554 588.387 681.926C598.174 696.888 606.048 709.186 605.883 709.255C605.719 709.324 605.407 709.127 605.19 708.819C604.584 707.958 572.013 669.045 571.331 668.368C571.001 668.04 572.098 669.821 573.769 672.325C596.704 706.702 604.487 718.504 604.409 718.789C604.357 718.977 603.72 718.324 602.993 717.338C597.646 710.083 566.017 667.882 565.661 667.527C565.415 667.281 566.186 668.926 567.374 671.183C568.563 673.439 575.105 685.955 581.913 698.995C588.721 712.036 595.657 725.288 597.326 728.445C600.307 734.084 600.596 734.722 600.162 734.717C600.042 734.716 593.925 725.272 586.567 713.731C579.209 702.19 573.161 692.778 573.127 692.816C573.094 692.854 578.745 705.616 585.687 721.175C592.628 736.735 598.232 749.553 598.141 749.658C597.921 749.913 598.774 751.337 589.576 735.346C585.067 727.506 581.262 720.963 581.12 720.805C580.896 720.557 586.153 735.667 588.34 741.558C589.646 745.074 589.253 745.266 587.482 741.978C586.812 740.734 586.227 739.76 586.181 739.813C586.12 739.885 590.951 751.406 592.244 754.271C592.686 755.251 591.496 754.489 590.299 753.026C589.565 752.129 588.929 751.437 588.885 751.488C588.842 751.539 589.439 753.202 590.213 755.184C590.987 757.167 591.624 758.915 591.629 759.069C591.653 759.802 591.092 759.165 589.871 757.075C589.138 755.818 588.483 754.853 588.416 754.931C588.349 755.009 589.213 759.299 590.337 764.466C615.959 882.301 629.765 982.503 635.565 1092.72C636.414 1108.86 638.255 1171.41 638.012 1175.85L637.896 1177.96L589.203 1180.08L540.509 1182.2L540.487 1181.49ZM714.263 542.863C714.163 542.62 714.097 542.696 714.094 543.059C714.092 543.386 714.166 543.567 714.259 543.459C714.351 543.352 714.353 543.084 714.263 542.863ZM435.356 532.371L435.917 530.637L434.959 531.767L434.001 532.897L433.902 534.766L433.802 536.636L434.298 535.371C434.571 534.675 435.047 533.325 435.356 532.371ZM236.116 531.766C235.803 530.985 233.528 525.219 231.06 518.954C228.593 512.688 226.541 507.601 226.501 507.65C226.432 507.734 232.921 535.002 233.208 535.832C233.303 536.106 233.886 535.745 235.017 534.711L236.686 533.185L236.116 531.766ZM419.508 516.992L416.443 513.92L415.821 515.362L415.2 516.805L415.741 517.515C416.039 517.906 417.698 519.839 419.429 521.812L422.576 525.398L422.575 522.731L422.574 520.063L419.508 516.992ZM237.621 516.125C234.832 510.613 232.508 506.15 232.457 506.21C232.373 506.307 235.137 515.082 238.538 525.521L239.827 529.475L241.26 527.812L242.694 526.149L237.621 516.125ZM249.236 518.321C249.224 517.956 237.226 498.101 237.103 498.243C237.046 498.309 238.888 503.908 241.196 510.686L245.391 523.01L247.317 520.792C248.377 519.573 249.24 518.461 249.236 518.321ZM570.875 489.59C572.124 484.612 573.105 480.5 573.057 480.451C573.008 480.402 571.494 483.992 569.693 488.427L566.419 496.493L567.415 497.678C567.963 498.33 568.455 498.813 568.509 498.752C568.562 498.69 569.627 494.567 570.875 489.59ZM259.54 504.974L260.263 503.466L259.006 500.568C258.315 498.974 257.706 497.623 257.653 497.565C257.601 497.508 257.378 498.21 257.157 499.124L256.757 500.787L257.611 503.643C258.08 505.213 258.544 506.495 258.641 506.49C258.739 506.486 259.143 505.804 259.54 504.974ZM560.866 485.374C560.45 483.186 560.021 481.291 559.913 481.164C559.753 480.977 557.689 481.609 555.381 482.551C555.143 482.649 556.199 483.989 558.213 486.144C559.98 488.035 561.47 489.53 561.524 489.467C561.579 489.404 561.283 487.562 560.866 485.374ZM264.46 498.058C264.46 497.92 263.985 497.186 263.405 496.427L262.35 495.048L262.39 496.291C262.412 496.975 262.536 498.199 262.667 499.012L262.903 500.49L263.682 499.4C264.11 498.8 264.46 498.197 264.46 498.058ZM271.541 493.484C271.535 493.308 271.134 491.682 270.649 489.87L269.767 486.576L269.073 490.026C268.691 491.924 268.379 493.581 268.379 493.709C268.378 493.837 269.092 493.911 269.965 493.873C270.861 493.834 271.546 493.665 271.541 493.484ZM281.071 486.36C281.097 485.682 281.002 484.824 280.86 484.452L280.603 483.778L279.437 485.512C278.024 487.615 278.026 487.55 279.366 487.639C280.964 487.745 281.021 487.702 281.071 486.36ZM568.181 472.925C568.063 472.483 567.878 471.721 567.771 471.233C567.663 470.744 567.48 470.349 567.363 470.354C567.126 470.365 564.571 473.46 564.58 473.726C564.583 473.819 565.443 473.857 566.491 473.812L568.396 473.729L568.181 472.925ZM734.741 390.293C734.818 382.286 734.763 380.193 734.472 380.027C734.271 379.913 733.65 379.482 733.092 379.069C732.534 378.657 732.054 378.353 732.024 378.395C731.927 378.533 734.446 400.58 734.546 400.464C734.599 400.402 734.687 395.825 734.741 390.293ZM725.689 386.362C726.476 381.345 726.8 378.545 726.593 378.56C726.415 378.573 725.24 378.882 723.981 379.246L721.692 379.908L721.753 380.499C721.912 382.06 724.181 394.2 724.312 394.194C724.394 394.19 725.014 390.666 725.689 386.362ZM699.579 377.751C700.46 375.685 701.138 373.966 701.088 373.93C700.349 373.401 695.855 371.244 695.851 371.416C695.813 372.939 696.248 381.634 696.418 382.758L696.643 384.243L697.311 382.875C697.678 382.122 698.699 379.816 699.579 377.751ZM710.907 382.109C711.283 380.319 711.883 376.868 711.825 376.829C711.797 376.81 710.79 376.972 709.587 377.189L707.4 377.584L707.003 379.91C706.406 383.412 706.257 383.229 709.733 383.274L710.661 383.286L710.907 382.109ZM641.239 368.071C642.354 367.259 642.404 367.085 642.617 363.321L642.727 361.373L641.873 361.41L641.019 361.448L638.975 366.043C637.851 368.57 636.934 370.719 636.937 370.817C636.943 370.995 639.217 369.543 641.239 368.071ZM647.471 366.113C649.496 365.185 649.745 364.921 649.694 363.752C649.656 362.872 647.783 360.115 647.519 360.55C647.405 360.737 645.794 366.836 645.859 366.833C645.885 366.831 646.61 366.508 647.471 366.113ZM419.653 373.34C419.523 371.85 419.378 370.585 419.331 370.531C419.284 370.476 418.537 371.527 417.671 372.865C416.804 374.204 416.148 375.344 416.212 375.4C416.41 375.573 418.623 376.039 419.273 376.045L419.891 376.05L419.653 373.34ZM394.717 370.551L394.78 368.149L393.492 369.407C392.784 370.099 391.911 371.031 391.55 371.48L390.896 372.294L392.614 373.143L394.333 373.99L394.494 373.471C394.582 373.186 394.682 371.871 394.717 370.551ZM385.706 368.445C385.898 366.855 386.03 365.524 385.999 365.488C385.968 365.452 385.017 366.502 383.887 367.822L381.832 370.222L383.131 370.777C385.295 371.702 385.314 371.685 385.706 368.445ZM374.559 365.699C376.064 362.616 377.26 360.061 377.215 360.021C377.171 359.98 375.274 362.283 373 365.138L368.865 370.328L370.006 370.822C370.633 371.094 371.299 371.314 371.485 371.31C371.671 371.307 373.054 368.781 374.559 365.699ZM358.421 370.689L360.422 370.055L363.99 363.602C365.952 360.052 367.778 356.693 368.047 356.137L368.537 355.125L367.71 356.094C367.255 356.627 364.778 359.672 362.204 362.862C359.631 366.052 356.955 369.36 356.258 370.214L354.99 371.767L355.705 371.545C356.098 371.423 357.32 371.038 358.421 370.689ZM349.483 366.914L351.129 363.034L348.606 366.097C347.218 367.782 345.83 369.556 345.522 370.039L344.961 370.919L346.4 370.856L347.838 370.793L349.483 366.914ZM342.546 362.055C342.375 361.885 336.013 368.312 336.002 368.666C335.997 368.838 336.614 369.403 337.373 369.923L338.755 370.869L340.706 366.517C341.779 364.124 342.607 362.116 342.546 362.055ZM318.461 369.308C320.477 368.91 322.187 368.513 322.262 368.426C322.519 368.127 328.796 351.931 328.694 351.829C328.638 351.773 325.788 355.313 322.36 359.697C314.566 369.664 314.25 370.082 314.551 370.055C314.686 370.042 316.445 369.707 318.461 369.308ZM330.831 362.596C333.032 357.363 332.986 357.367 329.454 362.712L326.93 366.532L327.749 366.881C328.199 367.073 328.634 367.238 328.717 367.248C328.799 367.259 329.75 365.165 330.831 362.596ZM314.921 360.499C316.062 358.501 317.52 354.494 317.216 354.191C316.843 353.818 312.1 363.506 312.175 364.49C312.203 364.873 313.5 362.99 314.921 360.499ZM572.593 347.065L573.529 346.476L570.363 344.323C568.622 343.139 567.314 342.365 567.456 342.602C568.089 343.657 571.27 347.696 571.453 347.676C571.565 347.664 572.078 347.389 572.593 347.065ZM583.756 343.345C583.683 343.306 581.299 340.996 578.459 338.213C575.619 335.43 573.455 333.464 573.651 333.844C573.972 334.469 576.02 337.757 578.735 342.009L579.749 343.597L581.819 343.507C582.957 343.458 583.829 343.385 583.756 343.345ZM592.636 341.87C592.386 341.582 590.178 338.775 587.73 335.633C582.445 328.85 582.367 328.765 583.754 331.299C584.348 332.384 585.967 335.356 587.353 337.903L589.871 342.535L591.48 342.465L593.09 342.395L592.636 341.87ZM601.389 340.323C602.271 339.601 602.99 338.909 602.988 338.786C602.985 338.571 589.576 324.517 589.382 324.525C589.265 324.53 598.686 340.909 599.113 341.443C599.486 341.909 599.406 341.948 601.389 340.323ZM614.935 336.349C614.996 336.288 602.592 325.095 601.588 324.304L600.652 323.568L601.848 325.234C602.505 326.15 604.676 329.166 606.67 331.937L610.297 336.975L612.598 336.68C613.863 336.518 614.915 336.369 614.935 336.349ZM413.682 333.807C413.643 333.292 412.75 329.686 412.633 329.569C412.563 329.5 411.898 330.16 411.153 331.036L409.801 332.63L410.508 332.888C410.898 333.029 411.677 333.339 412.241 333.577C413.439 334.081 413.706 334.124 413.682 333.807ZM383.32 318.687C385.925 315.738 387.614 313.688 387.072 314.13C386.531 314.573 383.893 316.824 381.211 319.133L376.335 323.331L377.026 323.706C378.231 324.36 378.487 324.156 383.32 318.687ZM402.333 312.78C402.326 312.541 400.538 311.195 400.436 311.352C400.398 311.411 399.151 313.471 397.667 315.93C396.183 318.388 394.65 320.903 394.261 321.518C393.872 322.134 395.53 320.464 397.947 317.809C400.363 315.154 402.337 312.89 402.333 312.78ZM377.018 311.388C377.212 311.01 377.178 310.984 376.857 311.262C376.32 311.728 372.037 315.681 371.702 316.02C371.547 316.178 371.72 316.584 372.13 317.019L372.82 317.753L374.797 314.809C375.885 313.19 376.884 311.651 377.018 311.388ZM364.576 305.985C368.637 301.35 371.577 297.822 371.111 298.145C370.645 298.469 366.43 301.72 361.746 305.369L353.227 312.004L354.922 313.199C355.854 313.856 356.746 314.398 356.905 314.403C357.064 314.408 360.516 310.62 364.576 305.985ZM355.231 301.413C359.93 297.593 363.962 294.262 364.193 294.01C364.572 293.595 352.453 300.507 344.797 305.073L341.71 306.914L343.724 307.618C344.831 308.006 345.951 308.33 346.213 308.34C346.475 308.349 350.533 305.232 355.231 301.413ZM340.374 296.327C343.831 291.402 346.786 287.088 346.94 286.739C347.095 286.391 343.713 290.245 339.426 295.305C335.139 300.365 331.629 304.589 331.626 304.693C331.621 304.925 333.408 305.474 333.803 305.362C333.96 305.317 336.918 301.251 340.374 296.327ZM330.759 298.091C337.897 289.524 340.736 286.042 339.993 286.766C339.608 287.141 335.979 290.779 331.928 294.849L324.564 302.251L325.397 302.794C325.855 303.092 326.267 303.336 326.311 303.335C326.356 303.334 328.357 300.975 330.759 298.091ZM554.716 292.159C554.71 292.011 550.052 289.569 549.295 289.317C549.128 289.261 549.922 290.164 551.06 291.324L553.127 293.432L553.925 292.878C554.364 292.574 554.72 292.25 554.716 292.159ZM326.052 292.701C329.772 288.221 333.384 283.842 334.08 282.968L335.344 281.38L333.377 283.31C326.256 290.295 316.734 299.87 316.74 300.041C316.746 300.238 318.313 300.792 318.965 300.827C319.144 300.837 322.333 297.18 326.052 292.701ZM350.739 292.528C351.566 291.468 352.184 290.541 352.111 290.469C351.91 290.268 348.079 294.022 346.356 296.109L344.828 297.96L347.032 296.208C348.244 295.244 349.913 293.588 350.739 292.528ZM318.762 291.053C325.334 284.01 328.638 280.33 327.266 281.581C326.957 281.862 322.916 285.515 318.285 289.699C313.655 293.882 309.687 297.497 309.467 297.732L309.068 298.16L309.778 298.431C311.272 299 311.586 298.742 318.762 291.053ZM539.714 288.511C539.559 288.38 538.319 287.29 536.957 286.088C535.005 284.365 534.429 283.999 534.235 284.358C533.756 285.242 534.03 285.548 536.725 287.127C539.163 288.556 540.51 289.18 539.714 288.511ZM308.6 291.455C318.957 280.463 322.176 277.034 322.627 276.513L323.045 276.03L322.463 276.49C319.824 278.577 298.807 297.861 298.984 298.033C299.11 298.155 299.668 298.293 300.226 298.339C300.783 298.385 301.404 298.438 301.606 298.456C301.807 298.475 304.955 295.324 308.6 291.455ZM566.015 285.067C566.482 284.329 566.86 283.615 566.856 283.481C566.852 283.346 563.62 280.828 559.674 277.885C554.975 274.38 552.862 272.951 553.549 273.745C554.816 275.207 565.053 286.413 565.12 286.41C565.146 286.409 565.549 285.805 566.015 285.067ZM306.819 284.032C313.986 276.824 319.847 270.867 319.845 270.794C319.841 270.663 300.018 286.145 291.392 293.016L287.028 296.492L289.928 296.879C291.523 297.092 293.044 297.237 293.308 297.201C293.572 297.166 299.652 291.239 306.819 284.032ZM552.465 285.272C552.225 285.038 549.634 283.12 546.708 281.01L541.387 277.175L541.337 278.496C541.31 279.223 541.395 279.857 541.527 279.906C541.658 279.954 544.211 281.264 547.199 282.817C553.161 285.916 553.089 285.882 552.465 285.272ZM676.948 279.618C676.848 279.374 676.782 279.451 676.78 279.813C676.778 280.141 676.852 280.321 676.945 280.214C677.037 280.106 677.039 279.838 676.948 279.618ZM575.077 279.029C570.183 274.534 562.564 267.606 562.003 267.14L561.263 266.526L561.747 267.127C562.013 267.458 564.352 270.398 566.944 273.663L571.658 279.597L573.586 279.513L575.513 279.429L575.077 279.029ZM583.205 271.022C584.847 270.235 586.279 269.492 586.386 269.373C586.493 269.253 582.014 267.185 576.432 264.778C564.679 259.709 564.479 259.624 564.693 259.838C566.262 261.405 579.729 272.657 579.934 272.572C580.09 272.507 581.562 271.809 583.205 271.022ZM594.438 262.187L596.261 261.547L588.975 258.399C578.79 254 578.145 253.732 578.423 254.015C579.058 254.661 591.801 262.818 592.182 262.822C592.421 262.825 593.436 262.539 594.438 262.187ZM605.542 259.257C606.38 258.933 607.062 258.578 607.059 258.469C607.055 258.36 603.065 256.508 598.192 254.353C593.318 252.198 589.067 250.311 588.744 250.159C588.422 250.007 588.24 249.971 588.339 250.079C588.829 250.611 603.259 259.831 603.612 259.838C603.836 259.843 604.705 259.581 605.542 259.257ZM395.306 263.875L396.754 263.118L390.545 261.699C387.13 260.918 384.074 260.236 383.755 260.182C383.435 260.129 385.289 261.192 387.873 262.544C392.935 265.192 392.827 265.173 395.306 263.875ZM615.818 251.503C617.363 250.679 617.712 250.381 617.296 250.242C616.502 249.976 609.084 249.251 608.935 249.424C608.806 249.573 613.185 252.533 613.581 252.564C613.699 252.573 614.705 252.096 615.818 251.503ZM601.118 244.295C601.11 244.067 593.827 241.45 590.402 240.444C586.511 239.302 578.246 237.57 577.569 237.755C576.916 237.934 585.39 241.058 589.352 242.099C594.527 243.458 601.13 244.691 601.118 244.295ZM681.359 128.519C681.26 128.42 681.01 128.42 680.805 128.518C680.578 128.627 680.649 128.698 680.985 128.698C681.29 128.699 681.458 128.618 681.359 128.519ZM680.95 106.775C680.851 106.676 680.602 106.676 680.397 106.774C680.17 106.884 680.241 106.954 680.577 106.954C680.882 106.955 681.05 106.874 680.95 106.775Z" fill="url(#paint0_linear_10976_379)"/>
<defs>
<linearGradient id="paint0_linear_10976_379" x1="494.543" y1="21.4061" x2="545.077" y2="1182" gradientUnits="userSpaceOnUse">
<stop stop-color="#B17AA1"/>
<stop offset="1" stop-color="#422DC4"/>
</linearGradient>
</defs>
</svg>
