<svg width="31" height="35" viewBox="0 0 31 35" fill="none" xmlns="http://www.w3.org/2000/svg">
<mask id="path-1-outside-1_10990_323" maskUnits="userSpaceOnUse" x="-1.44248e-06" y="-1.31134e-07" width="31" height="35" fill="black">
<rect fill="white" x="-1.44248e-06" y="-1.31134e-07" width="31" height="35"/>
<path d="M3 17.3699L29.8973 32.7397L29.8973 2L3 17.3699Z"/>
</mask>
<path d="M3 17.3699L29.8973 32.7397L29.8973 2L3 17.3699Z" fill="#B6E5ED"/>
<path d="M29.8973 32.7397L30.8973 32.7397L30.8973 34.4629L29.4011 33.608L29.8973 32.7397ZM3 17.3699L2.50386 18.2381L0.984435 17.3699L2.50386 16.5016L3 17.3699ZM29.8973 2L29.4011 1.13176L30.8973 0.276822L30.8973 2L29.8973 2ZM29.8973 32.7397L29.4011 33.608L2.50386 18.2381L3 17.3699L3.49614 16.5016L30.3934 31.8715L29.8973 32.7397ZM3 17.3699L2.50386 16.5016L29.4011 1.13176L29.8973 2L30.3934 2.86824L3.49614 18.2381L3 17.3699ZM29.8973 32.7397L28.8973 32.7397L28.8973 2L29.8973 2L30.8973 2L30.8973 32.7397L29.8973 32.7397Z" fill="black" mask="url(#path-1-outside-1_10990_323)"/>
</svg>
