<svg width="58" height="15" viewBox="0 0 58 15" fill="none" xmlns="http://www.w3.org/2000/svg">
<path d="M34.0331 0.227583H31.3516V14.1865H31.4277H34.0331H41.1747L42.573 11.5045H34.0331V0.227583Z" fill="white"/>
<path fill-rule="evenodd" clip-rule="evenodd" d="M17.8819 0.308343V0.296922H29.0272L27.6291 2.9789H19.2208V5.94683H26.0478L24.6495 8.6288H19.2208V11.5739H29.0272L27.6291 14.2559H19.2208H16.5391V8.6288V5.94683V0.308343H17.8819Z" fill="white"/>
<path d="M45.3761 7.21476C45.3761 9.6715 47.368 11.6629 49.8243 11.6629C52.2808 11.6629 54.2729 9.6715 54.2729 7.21476C54.2729 4.75802 52.2808 2.76658 49.8243 2.76658C47.368 2.76658 45.3761 4.75802 45.3761 7.21476ZM57.0396 7.21476C57.0396 11.1995 53.809 14.4297 49.8243 14.4297C45.84 14.4297 42.6094 11.1995 42.6094 7.21476C42.6094 3.23007 45.84 -0.000161171 49.8243 -0.000161171C53.809 -0.000161171 57.0396 3.23007 57.0396 7.21476Z" fill="white"/>
<path d="M12.1999 0.29441L6.22656 11.8601L7.55613 14.4297H7.56875L14.8676 0.29441H12.1999Z" fill="white"/>
<path d="M10.7548 0.295113H8.0828L5.37738 5.53923L2.66795 0.295113H0L5.37738 10.708L10.7548 0.295113Z" fill="white"/>
</svg>
