<svg width="104" height="33" viewBox="0 0 104 33" fill="none" xmlns="http://www.w3.org/2000/svg">
<path d="M11.7549 0.5V11.3574L18.5518 0.730469L18.6992 0.5H40.3672L40.4863 0.832031L43.9287 10.4775L47.373 0.832031L47.4912 0.5H71.0322V32.5H59.7783V0.774414L59.5322 1.23535L49.5566 19.9248V32.5H38.3018V19.9219L29.2627 2.70215L20.5703 14.5654L31.5234 31.7314L32.0146 32.5H19.1201L18.9775 32.2432L13.3232 22.0723L11.7549 23.9736V32.5H0.5V0.5H11.7549ZM83.123 0.5L83.1963 0.913086L86.8936 21.8018L90.5918 0.913086L90.665 0.5H102.655L102.482 1.13184L93.9922 32.1318L93.8916 32.5H79.8945L79.7949 32.1299L71.4697 1.12988L71.3008 0.5H83.123Z" stroke="white"/>
</svg>
