<svg width="72" height="13" viewBox="0 0 72 13" fill="none" xmlns="http://www.w3.org/2000/svg">
<path d="M4.19365 12.5617V3.88805H0V0.941406H12.9135V3.88805H8.70138V12.5617H4.19365Z" fill="black"/>
<path d="M12.8672 12.5624V3.56543H16.8853V6.33656L16.756 8.47958L20.2569 3.56543H24.8847V12.5624H20.8666V9.79124L21.042 7.32495L17.4396 12.5624H12.8672Z" fill="black"/>
<path d="M25.6172 12.5617V0.941406H30.1064V4.95956L34.2354 0.941406H40.3227L35.4917 5.13504L40.803 12.5617H35.2145L32.0832 7.84153L30.1064 9.43957V12.5617H25.6172Z" fill="black"/>
<path d="M40.7656 12.5624V3.56543H44.7838V6.33656L44.6545 8.47958L48.1553 3.56543H52.7831V12.5624H48.765V9.79124L48.9405 7.32495L45.338 12.5624H40.7656Z" fill="black"/>
<path d="M52.7656 0H55.9616V2.2908H52.7656V0ZM54.447 3.55629H58.4651V12.5625H54.447V3.55629ZM56.9777 0H60.1742V2.2908H56.9777V0Z" fill="black"/>
<path d="M60.1016 12.5624V3.56543H67.7317C68.9232 3.56543 69.7825 3.75941 70.3086 4.14737C70.8353 4.53533 71.0941 5.145 71.0941 5.9763C71.0941 6.3643 70.9554 6.74299 70.6785 7.13098C70.4011 7.51892 70.1056 7.75907 69.8006 7.86993C70.3458 8.01772 70.78 8.28561 71.1031 8.67355C71.4267 9.06154 71.5925 9.49566 71.5925 9.97601C71.5925 10.9921 71.2418 11.6756 70.5398 12.0266C69.8378 12.3776 68.6739 12.5532 67.0664 12.5532H60.1016V12.5624ZM64.1202 5.70846V6.99239H66.2629C66.5584 6.99239 66.7709 6.94621 66.891 6.8446C67.0111 6.74299 67.0664 6.57671 67.0664 6.35505C67.0664 6.13334 67.0111 5.96706 66.891 5.86545C66.7709 5.76384 66.5679 5.71766 66.2629 5.71766H64.1202V5.70846ZM64.1202 8.9137V10.3178H66.5865C66.9096 10.3178 67.1312 10.2623 67.2699 10.1515C67.4086 10.0406 67.4825 9.86516 67.4825 9.61576C67.4825 9.14465 67.1865 8.9137 66.5865 8.9137H64.1202Z" fill="black"/>
</svg>
