<svg width="93" height="38" viewBox="0 0 93 38" fill="none" xmlns="http://www.w3.org/2000/svg">
<path d="M29.1872 0.0546494C29.1561 0.0779667 29.1328 3.96415 29.1328 8.68197V17.2549L43.5688 17.2393L57.9969 17.216L58.5797 17.0062C60.188 16.4155 61.47 14.9465 61.8118 13.2988C61.9905 12.4205 61.9361 4.43826 61.7419 3.79315C61.2602 2.16873 60.0404 0.839657 58.5331 0.303364L57.9969 0.116829L50.9111 0.0935116L43.8174 0.0779667L43.8019 6.48239L43.7785 12.8868L39.1945 8.02909C36.6771 5.34763 33.9344 2.44854 33.1109 1.57803L31.6113 0.000242233H30.4226C29.7699 0.000242233 29.2105 0.0235596 29.1872 0.0546494ZM31.4171 1.18164C31.6036 1.38372 31.6269 1.46922 31.588 1.70239C31.4637 2.52626 30.306 2.53403 30.1739 1.71016C30.1429 1.50031 30.1662 1.38372 30.2983 1.2205C30.6401 0.793024 31.0441 0.777479 31.4171 1.18164ZM57.927 2.78275C58.3932 2.9926 58.8827 3.47449 59.1391 3.96415C59.31 4.29836 59.3178 4.3994 59.3411 6.15595L59.3644 8.00577H53.3041H47.236V5.28545V2.55735L52.3873 2.58067L57.5308 2.60398L57.927 2.78275ZM36.4751 9.32708C39.0313 12.0863 41.2146 14.4335 41.3156 14.5501L41.5176 14.7677H36.6072H31.6968V9.46698C31.6968 6.51348 31.7279 4.19732 31.7667 4.23618C31.7978 4.28281 33.9189 6.56789 36.4751 9.32708ZM34.9989 4.6248C35.1465 4.7647 35.1931 4.89683 35.1931 5.13C35.1931 5.78288 34.455 6.086 33.9966 5.62743C33.5382 5.16886 33.8412 4.43049 34.4938 4.43049C34.7269 4.43049 34.859 4.47712 34.9989 4.6248ZM37.9125 7.88919C38.3243 8.09904 38.433 8.59647 38.1456 8.96177C37.8037 9.39703 37.0734 9.27267 36.9102 8.75969C36.8014 8.43325 36.8869 8.16899 37.1821 7.93582C37.4308 7.74151 37.6095 7.73374 37.9125 7.88919ZM59.3411 11.0914C59.3178 12.9257 59.31 13.0345 59.1391 13.3532C58.7428 14.0993 58.1523 14.5346 57.3365 14.69C57.0879 14.7366 54.9901 14.7677 52.0843 14.7677H47.236V11.9697V9.17163H53.3041H59.3644L59.3411 11.0914ZM41.2379 11.3168C41.502 11.6199 41.471 12.0552 41.168 12.3117C41.0359 12.4282 40.8339 12.5137 40.7095 12.5137C40.3677 12.5137 40.0103 12.1718 40.0103 11.8375C40.0103 11.4956 40.1113 11.3013 40.3832 11.1536C40.6629 10.9981 41.0126 11.0681 41.2379 11.3168ZM43.965 14.3402C44.54 14.6356 44.4157 15.5061 43.7785 15.6693C43.3745 15.7704 42.8773 15.374 42.885 14.9465C42.8928 14.7289 43.0793 14.4491 43.2813 14.3325C43.5221 14.2003 43.7008 14.2003 43.965 14.3402Z" fill="white"/>
<path d="M0 30.3898V37.2295H1.01005H2.0201L2.03564 32.022L2.05895 26.8223L6.87611 32.022L11.6933 37.2217H12.7266L13.7522 37.2295V30.3898V23.5501H12.7422H11.7321L11.7166 28.6643L11.6933 33.7863L6.87611 28.6721L2.05895 23.5579L1.03336 23.5501H0V30.3898Z" fill="white"/>
<path d="M16.0781 30.3898V37.2295H22.9542H29.8381L29.8148 36.2346L29.7915 35.2475L23.9487 35.2242L18.0982 35.2087V33.3044V31.4002H22.9542H27.8103V30.3898V29.3794H22.9542H18.0982V27.4363V25.4932H23.9643H29.8304V24.5217V23.5501H22.9542H16.0781V30.3898Z" fill="white"/>
<path d="M31.7734 30.3898V37.2295H38.6496H45.5334L45.5101 36.2346L45.4868 35.2475L39.6441 35.2242L33.7935 35.2087V33.3044V31.4002H38.6496H43.5056V30.3898V29.3794H38.6496H33.7935V27.4363V25.4932H39.6596H45.5257V24.5217V23.5501H38.6496H31.7734V30.3898Z" fill="white"/>
<path d="M47.4688 30.3898V37.2295H52.5579C55.9687 37.2295 57.7713 37.1984 58.051 37.144C59.1931 36.9031 60.2809 36.0403 60.7936 34.9677C61.1977 34.1128 61.2365 33.6076 61.2054 29.9934C61.1666 26.5891 61.1588 26.527 60.7004 25.6098C60.4285 25.0813 59.6748 24.3118 59.1387 24.032C58.2064 23.5346 58.3618 23.5501 52.6589 23.5501H47.4688V30.3898ZM57.9966 25.672C58.455 25.8741 58.8668 26.3249 59.0455 26.7912C59.1931 27.1798 59.2009 27.4052 59.2009 30.3432C59.2009 33.7863 59.1776 33.9884 58.7347 34.5247C58.6104 34.6802 58.3229 34.8978 58.0976 35.0066L57.6936 35.2087H53.5912H49.4889V30.351V25.4855L53.5912 25.5088C57.3362 25.5321 57.7091 25.5476 57.9966 25.672Z" fill="white"/>
<path d="M63.3984 30.3898V37.2295H70.2746H77.1584L77.1351 36.2346L77.1118 35.2475L71.2691 35.2242L65.4185 35.2087V29.3794V23.5501H64.4085H63.3984V30.3898Z" fill="white"/>
<path d="M78.4688 30.3898V37.2295H85.3449H92.2287L92.2054 36.2346L92.1821 35.2475L86.3394 35.2242L80.4889 35.2087V33.3044V31.4002H85.3449H90.2009V30.3898V29.3794H85.3449H80.4889V27.4363V25.4932H86.3549H92.221V24.5217V23.5501H85.3449H78.4688V30.3898Z" fill="white"/>
</svg>
