<svg width="36" height="41" viewBox="0 0 36 41" fill="none" xmlns="http://www.w3.org/2000/svg">
<path d="M16.6899 7.48568L9.70082 0.351967C9.52909 0.190294 9.24133 0 9.00076 0H0.922538C0.432878 0 0.046875 0.555411 0.046875 1.03888V34.0959C0.046875 34.5794 0.521837 35.0296 1.02001 35.0381L34.231 35.1139C34.7291 35.1139 35.037 34.6196 35.037 34.1276V26.0749C35.037 25.846 35.0386 25.5984 34.8753 25.429L27.8824 18.6867V27.6414H7.24943L7.29662 7.48568H16.6899Z" fill="white"/>
<path fill-rule="evenodd" clip-rule="evenodd" d="M21.6719 7.00356L22.2466 3.12109L22.816 3.20541L22.2404 7.08788L21.6719 7.00356Z" fill="white"/>
<path fill-rule="evenodd" clip-rule="evenodd" d="M24.7844 7.23376L23.9219 1.6255L24.4904 1.53809L25.3529 7.14635L24.7844 7.23376Z" fill="white"/>
<path fill-rule="evenodd" clip-rule="evenodd" d="M25.7578 6.99378L28.2502 0.283203L28.7894 0.483553L26.297 7.19413L25.7578 6.99378Z" fill="white"/>
<path fill-rule="evenodd" clip-rule="evenodd" d="M27.4219 7.02709L32.0709 0.268555L32.5451 0.594221L27.8953 7.35276L27.4219 7.02709Z" fill="white"/>
<path fill-rule="evenodd" clip-rule="evenodd" d="M28.3828 7.05913L34.4707 5.18945L34.6393 5.73945L28.5522 7.60913L28.3828 7.05913Z" fill="white"/>
<path fill-rule="evenodd" clip-rule="evenodd" d="M28.2188 10.6363L34.3546 6.80176L34.6594 7.28987L28.5235 11.1244L28.2188 10.6363Z" fill="white"/>
<path fill-rule="evenodd" clip-rule="evenodd" d="M28.4766 13.1338H31.5924V13.7093H28.4766V13.1338Z" fill="white"/>
<path fill-rule="evenodd" clip-rule="evenodd" d="M18.9538 6.73533H27.8311C28.3077 6.73533 28.6937 7.12211 28.6937 7.59862V16.3096L34.223 10.2078C34.2547 10.173 34.2725 10.1274 34.2725 10.0794V0.958433C34.2725 0.852456 34.1867 0.766592 34.0807 0.766592H25.5329C25.485 0.766592 25.4385 0.785157 25.403 0.817646L18.9538 6.73533ZM16.9844 7.5027L24.8847 0.252178C25.0618 0.0897321 25.2931 0 25.5329 0H34.0807C34.6106 0 35.0391 0.429322 35.0391 0.958433V10.0794C35.0391 10.3177 34.9509 10.5466 34.7908 10.723L27.9271 18.2976V7.59862C27.9271 7.54524 27.8845 7.5027 27.8311 7.5027H16.9844Z" fill="white"/>
<path d="M32.1351 40.8894C32.0701 40.8894 32.0237 40.8259 32.0438 40.764L33.0695 37.5321C33.0827 37.4919 33.119 37.4648 33.1608 37.4648H33.8818C33.9235 37.4648 33.9607 37.4919 33.973 37.5321L34.9996 40.764C35.0189 40.8259 34.9733 40.8894 34.9083 40.8894H34.3513C34.308 40.8894 34.2701 40.86 34.2585 40.8182L33.8052 39.1249C33.7565 38.9493 33.7069 38.766 33.6582 38.5733C33.6133 38.3838 33.5669 38.2005 33.519 38.021C33.5174 38.0156 33.512 38.011 33.5058 38.011C33.4996 38.011 33.4942 38.0156 33.4927 38.0218C33.4517 38.2005 33.4068 38.3846 33.3588 38.5733C33.3132 38.766 33.266 38.9493 33.2173 39.1249L32.7586 40.8182C32.747 40.86 32.7091 40.8894 32.6657 40.8894H32.1351ZM32.7926 40.0385C32.74 40.0385 32.6975 39.9951 32.6975 39.9425V39.572C32.6975 39.5194 32.74 39.4761 32.7926 39.4761H34.2399C34.2925 39.4761 34.3358 39.5194 34.3358 39.572V39.9425C34.3358 39.9951 34.2925 40.0385 34.2399 40.0385H32.7926Z" fill="white"/>
<path fill-rule="evenodd" clip-rule="evenodd" d="M33.7982 39.125C33.7495 38.9494 33.7 38.7661 33.6513 38.5735C33.6103 38.401 33.5685 38.2323 33.5244 38.0676C33.5229 38.0629 33.5213 38.0575 33.5205 38.0521C33.5182 38.0443 33.5159 38.0358 33.5136 38.0281C33.5136 38.0258 33.5128 38.0235 33.512 38.0211C33.5105 38.0157 33.5051 38.0111 33.4989 38.0111C33.4927 38.0111 33.4873 38.0157 33.4857 38.0219C33.4857 38.0242 33.485 38.0266 33.4842 38.0289C33.4826 38.0366 33.4803 38.0443 33.4788 38.0529C33.4772 38.0583 33.4764 38.0637 33.4749 38.0683C33.437 38.2323 33.396 38.401 33.3519 38.5735C33.3063 38.7661 33.2591 38.9494 33.2103 39.125L33.1144 39.4762H33.8926L33.7982 39.125ZM32.7516 40.8183C32.74 40.8601 32.7021 40.8895 32.6588 40.8895H32.1281C32.0632 40.8895 32.0168 40.826 32.0369 40.7642L33.0626 37.5323C33.0757 37.492 33.1121 37.465 33.1539 37.465H33.8748C33.9166 37.465 33.9537 37.492 33.9661 37.5323L34.9926 40.7642C35.012 40.826 34.9663 40.8895 34.9013 40.8895H34.3444C34.3011 40.8895 34.2632 40.8601 34.2515 40.8183L34.0427 40.0386H32.9628L32.7516 40.8183ZM32.9992 40.0865L32.7973 40.8307C32.7802 40.8933 32.7238 40.9374 32.6588 40.9374H32.1281C32.0307 40.9374 31.9618 40.8423 31.9912 40.7495L33.017 37.5176C33.0363 37.458 33.0912 37.417 33.1539 37.417H33.8748C33.9375 37.417 33.9932 37.458 34.0125 37.5176L35.0383 40.7495C35.0676 40.8423 34.9988 40.9374 34.9013 40.9374H34.3444C34.2794 40.9374 34.2222 40.8933 34.2051 40.8307L34.0063 40.0865H32.9992ZM33.83 39.4282L33.7518 39.1374C33.7031 38.9618 33.6536 38.7777 33.6049 38.5851V38.5843C33.5708 38.4427 33.5368 38.3035 33.5012 38.1673C33.4687 38.3035 33.4347 38.4427 33.3983 38.5851C33.3527 38.7777 33.3055 38.9618 33.256 39.1374L33.1771 39.4282H33.83Z" fill="white"/>
<path d="M30.2309 40.8894C30.1884 40.8894 30.1513 40.8615 30.1389 40.8213L29.1526 37.5886C29.134 37.5275 29.1797 37.4648 29.2439 37.4648H29.8024C29.8457 37.4648 29.8836 37.4942 29.8952 37.536L30.3122 39.0986C30.3679 39.2912 30.4151 39.4761 30.4537 39.6548C30.4947 39.8273 30.5411 40.0075 30.593 40.1963C30.5945 40.2024 30.5999 40.2063 30.6061 40.2063C30.6123 40.2063 30.6177 40.2024 30.6193 40.1963C30.6742 40.0075 30.7222 39.8273 30.7639 39.6548C30.8057 39.4761 30.8513 39.2912 30.9001 39.0986L31.307 37.5368C31.3178 37.4942 31.3557 37.4648 31.3998 37.4648H31.9366C32.0008 37.4648 32.0473 37.5275 32.0279 37.5886L31.0416 40.8213C31.0293 40.8615 30.9921 40.8894 30.9504 40.8894H30.2309Z" fill="white"/>
<path fill-rule="evenodd" clip-rule="evenodd" d="M30.9012 39.0987L31.3081 37.5369C31.3189 37.4943 31.3568 37.465 31.4009 37.465H31.9378C32.002 37.465 32.0484 37.5276 32.029 37.5887L31.0428 40.8214C31.0304 40.8616 30.9933 40.8895 30.9515 40.8895H30.2321C30.1895 40.8895 30.1524 40.8616 30.14 40.8214L29.1537 37.5887C29.1352 37.5276 29.1808 37.465 29.245 37.465H29.8035C29.8468 37.465 29.8848 37.4943 29.8964 37.5361L30.3133 39.0987C30.369 39.2913 30.4162 39.4762 30.4549 39.6549C30.4935 39.8142 30.5361 39.9813 30.5825 40.1546C30.584 40.1585 30.5848 40.1623 30.5856 40.1662C30.5879 40.1732 30.5895 40.1809 30.5918 40.1879C30.5926 40.191 30.5933 40.1933 30.5941 40.1964C30.5956 40.2026 30.6011 40.2064 30.6073 40.2064C30.6134 40.2064 30.6189 40.2026 30.6204 40.1964C30.6212 40.194 30.622 40.191 30.6227 40.1886C30.625 40.1809 30.6274 40.1739 30.6297 40.1662C30.6305 40.1631 30.6312 40.1592 30.6328 40.1554C30.6823 39.9813 30.7264 39.8142 30.7651 39.6549C30.8068 39.4762 30.8525 39.2913 30.9012 39.0987ZM30.7179 39.6441C30.7604 39.4654 30.8061 39.2797 30.8548 39.0863L31.2617 37.5245C31.2779 37.4619 31.3352 37.417 31.4009 37.417H31.9378C32.0345 37.417 32.1033 37.5106 32.0755 37.6034L31.0884 40.8353C31.0706 40.8957 31.0141 40.9374 30.9515 40.9374H30.2321C30.1686 40.9374 30.113 40.8957 30.0944 40.8353L29.1081 37.6034C29.0795 37.5106 29.1483 37.417 29.245 37.417H29.8035C29.8685 37.417 29.9258 37.4611 29.9428 37.5237L30.3597 39.0855C30.4154 39.2789 30.4634 39.4654 30.502 39.6441C30.5338 39.7794 30.5693 39.9194 30.608 40.0649C30.649 39.9194 30.6854 39.7794 30.7179 39.6441Z" fill="white"/>
<path d="M26.7912 40.8894C26.7379 40.8894 26.6953 40.846 26.6953 40.7934V37.5608C26.6953 37.5082 26.7379 37.4648 26.7912 37.4648H28.7205C28.7739 37.4648 28.8164 37.5082 28.8164 37.5608V37.9731C28.8164 38.0264 28.7739 38.069 28.7205 38.069H27.5106C27.4573 38.069 27.4147 38.1123 27.4147 38.1649V38.7188C27.4147 38.7721 27.4573 38.8147 27.5106 38.8147H28.5108C28.5634 38.8147 28.6068 38.858 28.6068 38.9106V39.3283C28.6068 39.3809 28.5634 39.4243 28.5108 39.4243H27.5106C27.4573 39.4243 27.4147 39.4668 27.4147 39.5202V40.1893C27.4147 40.2419 27.4573 40.2852 27.5106 40.2852H28.7731C28.8265 40.2852 28.869 40.3278 28.869 40.3811V40.7934C28.869 40.846 28.8265 40.8894 28.7731 40.8894H26.7912Z" fill="white"/>
<path fill-rule="evenodd" clip-rule="evenodd" d="M26.6484 40.7936V37.5609C26.6484 37.482 26.7126 37.417 26.7923 37.417H28.7216C28.8012 37.417 28.8654 37.482 28.8654 37.5609V37.9732C28.8654 38.0529 28.8012 38.1171 28.7216 38.1171H27.5117C27.4846 38.1171 27.4638 38.1387 27.4638 38.165V38.7189C27.4638 38.7452 27.4846 38.7668 27.5117 38.7668H28.5119C28.5916 38.7668 28.6558 38.831 28.6558 38.9107V39.3284C28.6558 39.4073 28.5916 39.4723 28.5119 39.4723H27.5117C27.4846 39.4723 27.4638 39.4932 27.4638 39.5195V40.1894C27.4638 40.2157 27.4846 40.2374 27.5117 40.2374H28.7742C28.8538 40.2374 28.918 40.3016 28.918 40.3812V40.7936C28.918 40.8725 28.8538 40.9374 28.7742 40.9374H26.7923C26.7126 40.9374 26.6484 40.8725 26.6484 40.7936ZM26.6964 40.7936C26.6964 40.8462 26.7389 40.8895 26.7923 40.8895H28.7742C28.8275 40.8895 28.8701 40.8462 28.8701 40.7936V40.3812C28.8701 40.3279 28.8275 40.2853 28.7742 40.2853H27.5117C27.4583 40.2853 27.4158 40.242 27.4158 40.1894V39.5195C27.4158 39.4669 27.4583 39.4244 27.5117 39.4244H28.5119C28.5645 39.4244 28.6078 39.381 28.6078 39.3284V38.9107C28.6078 38.8581 28.5645 38.8148 28.5119 38.8148H27.5117C27.4583 38.8148 27.4158 38.7723 27.4158 38.7189V38.165C27.4158 38.1124 27.4583 38.0691 27.5117 38.0691H28.7216C28.7749 38.0691 28.8175 38.0266 28.8175 37.9732V37.5609C28.8175 37.5083 28.7749 37.465 28.7216 37.465H26.7923C26.7389 37.465 26.6964 37.5083 26.6964 37.5609V40.7936Z" fill="white"/>
<path d="M25.2444 40.8894C25.191 40.8894 25.1484 40.846 25.1484 40.7934V37.5608C25.1484 37.5082 25.191 37.4648 25.2444 37.4648H25.7719C25.8245 37.4648 25.8678 37.5082 25.8678 37.5608V40.7934C25.8678 40.846 25.8245 40.8894 25.7719 40.8894H25.2444Z" fill="white"/>
<path fill-rule="evenodd" clip-rule="evenodd" d="M25.0938 40.7936V37.5609C25.0938 37.482 25.158 37.417 25.2376 37.417H25.7652C25.8441 37.417 25.9091 37.482 25.9091 37.5609V40.7936C25.9091 40.8725 25.8441 40.9374 25.7652 40.9374H25.2376C25.158 40.9374 25.0938 40.8725 25.0938 40.7936ZM25.1417 40.7936C25.1417 40.8462 25.1843 40.8895 25.2376 40.8895H25.7652C25.8178 40.8895 25.8611 40.8462 25.8611 40.7936V37.5609C25.8611 37.5083 25.8178 37.465 25.7652 37.465H25.2376C25.1843 37.465 25.1417 37.5083 25.1417 37.5609V40.7936Z" fill="white"/>
<path d="M22.549 40.8894C22.4964 40.8894 22.4531 40.846 22.4531 40.7934V37.5608C22.4531 37.5082 22.4964 37.4648 22.549 37.4648H23.0766C23.13 37.4648 23.1725 37.5082 23.1725 37.5608V40.1893C23.1725 40.2419 23.2158 40.2852 23.2685 40.2852H24.4528C24.5054 40.2852 24.5487 40.3278 24.5487 40.3811V40.7934C24.5487 40.846 24.5054 40.8894 24.4528 40.8894H22.549Z" fill="white"/>
<path fill-rule="evenodd" clip-rule="evenodd" d="M22.4062 40.7936V37.5609C22.4062 37.482 22.4705 37.417 22.5501 37.417H23.0777C23.1574 37.417 23.2216 37.482 23.2216 37.5609V40.1894C23.2216 40.2157 23.2432 40.2374 23.2695 40.2374H24.4538C24.5335 40.2374 24.5977 40.3016 24.5977 40.3812V40.7936C24.5977 40.8725 24.5335 40.9374 24.4538 40.9374H22.5501C22.4705 40.9374 22.4062 40.8725 22.4062 40.7936ZM22.4542 40.7936C22.4542 40.8462 22.4975 40.8895 22.5501 40.8895H24.4538C24.5064 40.8895 24.5498 40.8462 24.5498 40.7936V40.3812C24.5498 40.3279 24.5064 40.2853 24.4538 40.2853H23.2695C23.2169 40.2853 23.1736 40.242 23.1736 40.1894V37.5609C23.1736 37.5083 23.1311 37.465 23.0777 37.465H22.5501C22.4975 37.465 22.4542 37.5083 22.4542 37.5609V40.7936Z" fill="white"/>
<path d="M20.303 40.952C20.0895 40.952 19.8984 40.9203 19.7305 40.8576C19.5619 40.7942 19.4204 40.6983 19.3051 40.5691C19.1891 40.4392 19.1016 40.2713 19.0421 40.0648C18.9825 39.8582 18.9531 39.613 18.9531 39.3291V37.5608C18.9531 37.5082 18.9957 37.4648 19.049 37.4648H19.582C19.6346 37.4648 19.6779 37.5082 19.6779 37.5608V39.398C19.6779 39.6285 19.7019 39.8126 19.7514 39.9487C19.8002 40.0856 19.8721 40.1839 19.9665 40.2434C20.0609 40.2991 20.173 40.327 20.303 40.327C20.436 40.327 20.5497 40.2991 20.6441 40.2434C20.7385 40.1839 20.812 40.0856 20.8646 39.9487C20.9172 39.8126 20.9435 39.6285 20.9435 39.398V37.5608C20.9435 37.5082 20.986 37.4648 21.0394 37.4648H21.5407C21.5933 37.4648 21.6366 37.5082 21.6366 37.5608V39.3291C21.6366 39.613 21.6064 39.8582 21.5476 40.0648C21.4912 40.2713 21.4053 40.4392 21.29 40.5691C21.1779 40.6983 21.0379 40.7942 20.87 40.8576C20.7052 40.9203 20.5165 40.952 20.303 40.952Z" fill="white"/>
<path fill-rule="evenodd" clip-rule="evenodd" d="M20.3041 41.0001C20.0851 41.0001 19.8887 40.9676 19.7146 40.9026C19.5398 40.8369 19.3913 40.7363 19.2698 40.6009C19.1491 40.4648 19.0586 40.29 18.9975 40.078C18.9364 39.8661 18.9062 39.6162 18.9062 39.3292V37.5609C18.9062 37.482 18.9705 37.417 19.0501 37.417H19.5831C19.662 37.417 19.727 37.482 19.727 37.5609V39.3981C19.727 39.6263 19.751 39.8034 19.7974 39.9334C19.8438 40.0625 19.9095 40.15 19.9923 40.2026C20.0782 40.2528 20.1818 40.2791 20.3041 40.2791C20.4294 40.2791 20.5346 40.2528 20.6204 40.2026C20.7032 40.15 20.7713 40.0618 20.8208 39.9318C20.8703 39.8034 20.8966 39.6263 20.8966 39.3981V37.5609C20.8966 37.482 20.9608 37.417 21.0405 37.417H21.5417C21.6214 37.417 21.6856 37.482 21.6856 37.5609V39.3292C21.6856 39.6162 21.6555 39.8661 21.5943 40.0772C21.5371 40.2892 21.4481 40.464 21.3267 40.6002C21.2099 40.7363 21.0629 40.8369 20.8881 40.9026C20.7171 40.9676 20.5222 41.0001 20.3041 41.0001ZM20.8711 40.8578C21.0389 40.7943 21.179 40.6984 21.2911 40.5692C21.4064 40.4393 21.4922 40.2714 21.5487 40.0649C21.6075 39.8583 21.6377 39.6131 21.6377 39.3292V37.5609C21.6377 37.5083 21.5943 37.465 21.5417 37.465H21.0405C20.9871 37.465 20.9446 37.5083 20.9446 37.5609V39.3981C20.9446 39.6286 20.9183 39.8127 20.8657 39.9488C20.8131 40.0858 20.7396 40.184 20.6452 40.2436C20.5508 40.2993 20.4371 40.3271 20.3041 40.3271C20.1741 40.3271 20.0619 40.2993 19.9676 40.2436C19.8732 40.184 19.8013 40.0858 19.7525 39.9488C19.703 39.8127 19.679 39.6286 19.679 39.3981V37.5609C19.679 37.5083 19.6357 37.465 19.5831 37.465H19.0501C18.9968 37.465 18.9542 37.5083 18.9542 37.5609V39.3292C18.9542 39.6131 18.9836 39.8583 19.0432 40.0649C19.1027 40.2714 19.1901 40.4393 19.3062 40.5692C19.4214 40.6984 19.563 40.7943 19.7316 40.8578C19.8995 40.9204 20.0898 40.9521 20.3041 40.9521C20.5176 40.9521 20.7063 40.9204 20.8711 40.8578Z" fill="white"/>
<path d="M15.8694 40.8894C15.8168 40.8894 15.7734 40.846 15.7734 40.7934V37.5608C15.7734 37.5082 15.8168 37.4648 15.8694 37.4648H16.3969C16.4503 37.4648 16.4928 37.5082 16.4928 37.5608V38.9006C16.4928 38.9083 16.499 38.9145 16.5068 38.9145C16.5114 38.9145 16.5153 38.9122 16.5184 38.9091L17.5673 37.5035C17.5851 37.4795 17.6137 37.4648 17.6439 37.4648H18.1993C18.279 37.4648 18.3238 37.5569 18.2751 37.6196L17.3886 38.7683C17.3646 38.7992 17.3623 38.8425 17.3824 38.8758L18.4917 40.7439C18.5296 40.8081 18.484 40.8894 18.4097 40.8894H17.8404C17.8063 40.8894 17.7746 40.8708 17.7576 40.8406L16.9949 39.5117C16.9608 39.4521 16.8781 39.4467 16.8363 39.5008L16.513 39.9178C16.4998 39.9348 16.4928 39.9557 16.4928 39.9766V40.7934C16.4928 40.846 16.4503 40.8894 16.3969 40.8894H15.8694Z" fill="white"/>
<path fill-rule="evenodd" clip-rule="evenodd" d="M15.7266 40.7936V37.5609C15.7266 37.482 15.7908 37.417 15.8704 37.417H16.398C16.4777 37.417 16.5419 37.482 16.5419 37.5609V38.7986L17.5297 37.475C17.5568 37.4387 17.5993 37.417 17.645 37.417H18.2004C18.3195 37.417 18.3868 37.5547 18.3141 37.6491L17.4276 38.7978C17.416 38.8133 17.4145 38.8349 17.4245 38.8519L18.5346 40.7201C18.591 40.816 18.5222 40.9374 18.4108 40.9374H17.8415C17.7904 40.9374 17.7424 40.9096 17.7169 40.8647L16.9542 39.5358C16.9372 39.5056 16.8962 39.5033 16.8753 39.5296L16.5519 39.9473C16.5458 39.9558 16.5419 39.9659 16.5419 39.9767V40.7936C16.5419 40.8725 16.4777 40.9374 16.398 40.9374H15.8704C15.7908 40.9374 15.7266 40.8725 15.7266 40.7936ZM17.5684 37.5036C17.5862 37.4797 17.6148 37.465 17.645 37.465H18.2004C18.2801 37.465 18.3249 37.5562 18.2762 37.6197L17.3897 38.7684C17.3657 38.7993 17.3634 38.8427 17.3835 38.8759L18.4928 40.744C18.5307 40.8083 18.4851 40.8895 18.4108 40.8895H17.8415C17.8074 40.8895 17.7757 40.8709 17.7587 40.8407L16.996 39.5118C16.9619 39.4522 16.8792 39.4468 16.8374 39.5009L16.514 39.9179C16.5009 39.9349 16.4939 39.9558 16.4939 39.9767V40.7936C16.4939 40.8462 16.4514 40.8895 16.398 40.8895H15.8704C15.8178 40.8895 15.7745 40.8462 15.7745 40.7936V37.5609C15.7745 37.5083 15.8178 37.465 15.8704 37.465H16.398C16.4514 37.465 16.4939 37.5083 16.4939 37.5609V38.9007C16.4939 38.9084 16.5001 38.9146 16.5079 38.9146C16.5125 38.9146 16.5164 38.9123 16.5195 38.9092L17.5684 37.5036Z" fill="white"/>
<path d="M11.432 40.8894C11.367 40.8894 11.3206 40.8259 11.3407 40.764L12.3664 37.5321C12.3796 37.4919 12.4159 37.4648 12.4577 37.4648H13.1786C13.2204 37.4648 13.2575 37.4919 13.2699 37.5321L14.2964 40.764C14.3158 40.8259 14.2701 40.8894 14.2051 40.8894H13.6482C13.6049 40.8894 13.567 40.86 13.5554 40.8182L13.1021 39.1249C13.0533 38.9493 13.0038 38.766 12.9551 38.5733C12.9102 38.3838 12.8638 38.2005 12.8158 38.021C12.8143 38.0156 12.8089 38.011 12.8027 38.011C12.7965 38.011 12.7911 38.0156 12.7895 38.0218C12.7485 38.2005 12.7037 38.3846 12.6557 38.5733C12.6101 38.766 12.5629 38.9493 12.5142 39.1249L12.0554 40.8182C12.0438 40.86 12.0059 40.8894 11.9626 40.8894H11.432ZM12.0895 40.0385C12.0369 40.0385 11.9943 39.9951 11.9943 39.9425V39.572C11.9943 39.5194 12.0369 39.4761 12.0895 39.4761H13.5368C13.5894 39.4761 13.6327 39.5194 13.6327 39.572V39.9425C13.6327 39.9951 13.5894 40.0385 13.5368 40.0385H12.0895Z" fill="white"/>
<path fill-rule="evenodd" clip-rule="evenodd" d="M13.0951 39.125C13.0464 38.9494 12.9969 38.7661 12.9481 38.5735C12.9071 38.401 12.8654 38.2323 12.8213 38.0676C12.8197 38.0629 12.8182 38.0575 12.8174 38.0521C12.8151 38.0443 12.8128 38.0358 12.8105 38.0281C12.8105 38.0258 12.8097 38.0235 12.8089 38.0211C12.8074 38.0157 12.8019 38.0111 12.7958 38.0111C12.7896 38.0111 12.7842 38.0157 12.7826 38.0219C12.7826 38.0242 12.7818 38.0266 12.7811 38.0289C12.7795 38.0366 12.7772 38.0443 12.7756 38.0529C12.7741 38.0583 12.7733 38.0637 12.7718 38.0683C12.7339 38.2323 12.6929 38.401 12.6488 38.5735C12.6031 38.7661 12.556 38.9494 12.5072 39.125L12.4113 39.4762H13.1895L13.0951 39.125ZM12.0485 40.8183C12.0369 40.8601 11.999 40.8895 11.9557 40.8895H11.425C11.36 40.8895 11.3136 40.826 11.3337 40.7642L12.3595 37.5323C12.3726 37.492 12.409 37.465 12.4508 37.465H13.1717C13.2135 37.465 13.2506 37.492 13.263 37.5323L14.2895 40.7642C14.3088 40.826 14.2632 40.8895 14.1982 40.8895H13.6413C13.5979 40.8895 13.56 40.8601 13.5484 40.8183L13.3396 40.0386H12.2597L12.0485 40.8183ZM12.296 40.0865L12.0941 40.8307C12.0771 40.8933 12.0207 40.9374 11.9557 40.9374H11.425C11.3276 40.9374 11.2587 40.8423 11.2881 40.7495L12.3138 37.5176C12.3332 37.458 12.3881 37.417 12.4508 37.417H13.1717C13.2344 37.417 13.2901 37.458 13.3094 37.5176L14.3351 40.7495C14.3645 40.8423 14.2957 40.9374 14.1982 40.9374H13.6413C13.5763 40.9374 13.519 40.8933 13.502 40.8307L13.3032 40.0865H12.296ZM13.1268 39.4282L13.0487 39.1374C13 38.9618 12.9505 38.7777 12.9017 38.5851V38.5843C12.8677 38.4427 12.8337 38.3035 12.7981 38.1673C12.7656 38.3035 12.7316 38.4427 12.6952 38.5851C12.6496 38.7777 12.6024 38.9618 12.5529 39.1374L12.474 39.4282H13.1268Z" fill="white"/>
<path d="M10.2834 40.8894C10.2308 40.8894 10.1875 40.846 10.1875 40.7934V37.5608C10.1875 37.5082 10.2308 37.4648 10.2834 37.4648H10.8118C10.8644 37.4648 10.9069 37.5082 10.9069 37.5608V40.7934C10.9069 40.846 10.8644 40.8894 10.8118 40.8894H10.2834Z" fill="white"/>
<path fill-rule="evenodd" clip-rule="evenodd" d="M10.1484 40.7936V37.5609C10.1484 37.482 10.2134 37.417 10.2923 37.417H10.8207C10.8996 37.417 10.9638 37.482 10.9638 37.5609V40.7936C10.9638 40.8725 10.8996 40.9374 10.8207 40.9374H10.2923C10.2134 40.9374 10.1484 40.8725 10.1484 40.7936ZM10.1964 40.7936C10.1964 40.8462 10.2397 40.8895 10.2923 40.8895H10.8207C10.8733 40.8895 10.9166 40.8462 10.9166 40.7936V37.5609C10.9166 37.5083 10.8733 37.465 10.8207 37.465H10.2923C10.2397 37.465 10.1964 37.5083 10.1964 37.5609V40.7936Z" fill="white"/>
<path d="M7.10373 40.8894C7.05113 40.8894 7.00781 40.846 7.00781 40.7934V37.5608C7.00781 37.5082 7.05113 37.4648 7.10373 37.4648H8.2161C8.45745 37.4648 8.67637 37.4966 8.87208 37.56C9.06856 37.6226 9.22404 37.7309 9.34008 37.8849C9.45843 38.0396 9.51799 38.2492 9.51799 38.5153C9.51799 38.7714 9.45843 38.981 9.34008 39.1458C9.22404 39.3067 9.06856 39.4273 8.87208 39.5078C8.67637 39.5852 8.45745 39.6238 8.2161 39.6238H7.82314C7.77054 39.6238 7.72722 39.6664 7.72722 39.719V40.7934C7.72722 40.846 7.68467 40.8894 7.63207 40.8894H7.10373ZM8.92468 40.8894C8.88909 40.8894 8.85661 40.87 8.84036 40.8383L8.12018 39.4954C8.0993 39.4567 8.10781 39.4088 8.14107 39.3786L8.5 39.0568C8.54564 39.0158 8.61758 39.0274 8.64775 39.0808L9.59458 40.7455C9.63093 40.8097 9.58452 40.8894 9.51103 40.8894H8.92468ZM7.72722 38.9501C7.72722 39.0027 7.77054 39.046 7.82314 39.046H8.15267C8.36617 39.046 8.52939 39.0019 8.64156 38.9145C8.75372 38.8232 8.80942 38.6902 8.80942 38.5153C8.80942 38.3366 8.75372 38.2129 8.64156 38.1425C8.52939 38.0729 8.36617 38.0373 8.15267 38.0373H7.82314C7.77054 38.0373 7.72722 38.0806 7.72722 38.1332V38.9501Z" fill="white"/>
<path fill-rule="evenodd" clip-rule="evenodd" d="M7.82422 39.6239C7.77162 39.6239 7.7283 39.6665 7.7283 39.7191V40.7936C7.7283 40.8462 7.68576 40.8895 7.63238 40.8895H7.10482C7.05222 40.8895 7.0089 40.8462 7.0089 40.7936V37.5609C7.0089 37.5083 7.05222 37.465 7.10482 37.465H8.21719C8.45854 37.465 8.67745 37.4967 8.87316 37.5601C9.06964 37.6228 9.22513 37.7311 9.34116 37.885C9.45952 38.0397 9.51908 38.2493 9.51908 38.5154C9.51908 38.7707 9.45952 38.9811 9.34116 39.1459C9.23673 39.2905 9.10059 39.4027 8.93195 39.4824C8.91725 39.4893 8.90256 39.4955 8.88786 39.5017L9.59566 40.7456C9.63202 40.8098 9.5856 40.8895 9.51212 40.8895H8.92576C8.89018 40.8895 8.85769 40.8701 8.84145 40.8384L8.19011 39.6239H7.82422ZM8.16149 39.6711H7.82422C7.79792 39.6711 7.77626 39.6928 7.77626 39.7191V40.7936C7.77626 40.8725 7.71206 40.9374 7.63238 40.9374H7.10482C7.02592 40.9374 6.96094 40.8725 6.96094 40.7936V37.5609C6.96094 37.482 7.02592 37.417 7.10482 37.417H8.21719C8.4624 37.417 8.68674 37.4495 8.88786 37.5145C9.09285 37.5802 9.25684 37.6939 9.37907 37.8564C9.5067 38.0211 9.56704 38.2431 9.56704 38.5154C9.56704 38.7784 9.50593 38.9989 9.37984 39.1737M8.16149 39.6711L8.7989 40.8616C8.82365 40.908 8.87239 40.9374 8.92576 40.9374H9.51212C9.62274 40.9374 9.69158 40.8183 9.63743 40.7224L8.95593 39.5242C9.12998 39.4414 9.27154 39.3246 9.37984 39.1737M7.82422 38.9981H8.15376C8.36184 38.9981 8.51191 38.9556 8.61247 38.8775C8.71072 38.797 8.76254 38.6794 8.76254 38.5154C8.76254 38.3468 8.70994 38.2416 8.61712 38.1836C8.51578 38.1202 8.36339 38.0853 8.15376 38.0853H7.82422C7.79792 38.0853 7.77626 38.107 7.77626 38.1333V38.9502C7.77626 38.9765 7.79792 38.9981 7.82422 38.9981ZM8.64264 38.9146C8.53048 39.002 8.36726 39.0461 8.15376 39.0461H7.82422C7.77162 39.0461 7.7283 39.0028 7.7283 38.9502V38.1333C7.7283 38.0807 7.77162 38.0374 7.82422 38.0374H8.15376C8.36726 38.0374 8.53048 38.073 8.64264 38.1426C8.75403 38.213 8.8105 38.3367 8.8105 38.5154C8.8105 38.6903 8.75403 38.8233 8.64264 38.9146Z" fill="white"/>
<path d="M3.71295 40.8894C3.64797 40.8894 3.60233 40.8259 3.62167 40.764L4.6474 37.5321C4.66055 37.4919 4.69768 37.4648 4.73945 37.4648H5.4604C5.50218 37.4648 5.53853 37.4919 5.55168 37.5321L6.57742 40.764C6.59753 40.8259 6.55112 40.8894 6.48614 40.8894H5.92918C5.88586 40.8894 5.84795 40.86 5.83713 40.8182L5.38305 39.1249C5.33432 38.9493 5.28481 38.766 5.23607 38.5733C5.19121 38.3838 5.14479 38.2005 5.09683 38.021C5.09529 38.0156 5.08987 38.011 5.08368 38.011C5.0775 38.011 5.07208 38.0156 5.07131 38.0218C5.02954 38.2005 4.98467 38.3846 4.93671 38.5733C4.89107 38.766 4.84388 38.9493 4.79515 39.1249L4.33643 40.8182C4.32483 40.86 4.28692 40.8894 4.2436 40.8894H3.71295ZM4.37124 40.0385C4.31787 40.0385 4.27532 39.9951 4.27532 39.9425V39.572C4.27532 39.5194 4.31787 39.4761 4.37124 39.4761H5.81779C5.87039 39.4761 5.91371 39.5194 5.91371 39.572V39.9425C5.91371 39.9951 5.87039 40.0385 5.81779 40.0385H4.37124Z" fill="white"/>
<path fill-rule="evenodd" clip-rule="evenodd" d="M5.38418 39.125C5.33545 38.9494 5.28672 38.7661 5.23721 38.5735C5.19621 38.401 5.15444 38.2323 5.11035 38.0676C5.10957 38.0629 5.10803 38.0575 5.10648 38.0521C5.10416 38.0443 5.10261 38.0358 5.10029 38.0281C5.09952 38.0258 5.09874 38.0235 5.09797 38.0211C5.09642 38.0157 5.09101 38.0111 5.08559 38.0111C5.0794 38.0111 5.07399 38.0157 5.07244 38.0219C5.07167 38.0242 5.07089 38.0266 5.07089 38.0289C5.06857 38.0366 5.06703 38.0443 5.06471 38.0529C5.06393 38.0583 5.06239 38.0637 5.06161 38.0683C5.02293 38.2323 4.98194 38.401 4.93784 38.5735C4.8922 38.7661 4.84502 38.9494 4.79628 39.125L4.70114 39.4762H5.47856L5.38418 39.125ZM4.33757 40.8183C4.32596 40.8601 4.28806 40.8895 4.24474 40.8895H3.71408C3.6491 40.8895 3.60346 40.826 3.6228 40.7642L4.64931 37.5323C4.66168 37.492 4.69882 37.465 4.74059 37.465H5.46154C5.50331 37.465 5.54044 37.492 5.55282 37.5323L6.57855 40.7642C6.59866 40.826 6.55225 40.8895 6.48727 40.8895H5.93031C5.88699 40.8895 5.84909 40.8601 5.83826 40.8183L5.6294 40.0386H4.54875L4.33757 40.8183ZM4.5851 40.0865L4.38398 40.8307C4.36696 40.8933 4.30972 40.9374 4.24474 40.9374H3.71408C3.61661 40.9374 3.54777 40.8423 3.57716 40.7495L4.60367 37.5176C4.62223 37.458 4.67793 37.417 4.74059 37.417H5.46154C5.5242 37.417 5.57912 37.458 5.59846 37.5176L6.62496 40.7495C6.65436 40.8423 6.58474 40.9374 6.48727 40.9374H5.93031C5.86533 40.9374 5.80887 40.8933 5.79185 40.8307L5.59227 40.0865H4.5851ZM5.4159 39.4282L5.33854 39.1374C5.28904 38.9618 5.2403 38.7777 5.1908 38.5851V38.5843C5.15753 38.4427 5.12272 38.3035 5.08714 38.1673C5.05465 38.3035 5.02061 38.4427 4.98426 38.5851C4.93939 38.7777 4.89143 38.9618 4.8427 39.1374L4.76379 39.4282H5.4159Z" fill="white"/>
<path d="M0.142796 40.8894C0.0894205 40.8894 0.046875 40.846 0.046875 40.7934V37.5608C0.046875 37.5082 0.0894205 37.4648 0.142796 37.4648H0.772468C0.812693 37.4648 0.84905 37.4904 0.862974 37.5283L1.4122 39.0352C1.44701 39.1365 1.48027 39.244 1.51199 39.3554C1.54602 39.4606 1.58006 39.5658 1.61409 39.671C1.61564 39.6772 1.62106 39.6811 1.62724 39.6811C1.63421 39.6811 1.63962 39.6772 1.64117 39.671C1.67521 39.5658 1.70769 39.4606 1.73786 39.3554C1.77267 39.244 1.80826 39.1365 1.84307 39.0352L2.3714 37.529C2.38533 37.4911 2.42168 37.4648 2.46191 37.4648H3.097C3.1496 37.4648 3.19214 37.5082 3.19214 37.5608V40.7934C3.19214 40.846 3.1496 40.8894 3.097 40.8894H2.62668C2.57407 40.8894 2.53076 40.846 2.53076 40.7934V39.5287C2.53076 39.4204 2.53617 39.2997 2.54623 39.1667C2.56092 39.0297 2.57485 38.8936 2.58877 38.7567C2.60192 38.6259 2.61353 38.5076 2.62436 38.4024C2.62513 38.3954 2.61971 38.3892 2.61275 38.3892C2.60734 38.3892 2.60347 38.3923 2.60192 38.397L2.32576 39.1984L1.83997 40.5219C1.82605 40.5598 1.78969 40.5846 1.74947 40.5846H1.47408C1.43386 40.5846 1.3975 40.5598 1.38358 40.5219L0.897784 39.1984L0.62704 38.397C0.625493 38.3923 0.620852 38.3892 0.61621 38.3892C0.609248 38.3892 0.603834 38.3954 0.604607 38.4024C0.614663 38.5076 0.62704 38.6259 0.640191 38.7567C0.654115 38.8936 0.666492 39.0297 0.677321 39.1667C0.687377 39.2997 0.692792 39.4204 0.692792 39.5287V40.7934C0.692792 40.846 0.650247 40.8894 0.596872 40.8894H0.142796Z" fill="white"/>
<path fill-rule="evenodd" clip-rule="evenodd" d="M1.45892 39.0198C1.49373 39.1219 1.52699 39.2294 1.55871 39.3416L1.62833 39.5566C1.65076 39.4855 1.67242 39.4135 1.69254 39.3424L1.69331 39.3416C1.72812 39.2287 1.7637 39.1219 1.79851 39.0198L2.32762 37.5137C2.34774 37.4557 2.40188 37.417 2.46299 37.417H3.09808C3.17698 37.417 3.24119 37.482 3.24119 37.5609V40.7936C3.24119 40.8725 3.17698 40.9374 3.09808 40.9374H2.62776C2.54809 40.9374 2.48388 40.8725 2.48388 40.7936V39.5288C2.48388 39.4189 2.4893 39.2967 2.50013 39.1629V39.1621L2.5419 38.7521C2.54344 38.7374 2.54499 38.7228 2.54654 38.7081L2.37172 39.2147L1.88592 40.5383C1.86504 40.5948 1.81089 40.6327 1.75055 40.6327H1.47517C1.41483 40.6327 1.36068 40.5948 1.33979 40.5383L0.85323 39.2132L0.685368 38.7166C0.686915 38.7282 0.687689 38.7398 0.689236 38.7521C0.70316 38.8891 0.715537 39.026 0.725593 39.1629C0.736423 39.2967 0.741838 39.4189 0.741838 39.5288V40.7936C0.741838 40.8725 0.677633 40.9374 0.597957 40.9374H0.143881C0.0642051 40.9374 0 40.8725 0 40.7936V37.5609C0 37.482 0.0642051 37.417 0.143881 37.417H0.773554C0.833891 37.417 0.888039 37.4549 0.908925 37.5121L1.45892 39.0198ZM1.51307 39.3555L1.61518 39.6711C1.61673 39.6773 1.62214 39.6812 1.62833 39.6812C1.63452 39.6812 1.64071 39.6773 1.64225 39.6711C1.64303 39.668 1.64457 39.6649 1.64535 39.6618C1.64767 39.6549 1.64922 39.6487 1.65154 39.6425C1.65231 39.6402 1.65308 39.6379 1.65386 39.6355C1.68325 39.5427 1.71187 39.4491 1.73895 39.3555C1.77376 39.2434 1.80857 39.1366 1.84415 39.0353L2.37249 37.5292C2.38641 37.4913 2.42277 37.465 2.46299 37.465H3.09808C3.15068 37.465 3.19323 37.5083 3.19323 37.5609V40.7936C3.19323 40.8462 3.15068 40.8895 3.09808 40.8895H2.62776C2.57516 40.8895 2.53184 40.8462 2.53184 40.7936V39.5288C2.53184 39.4205 2.53726 39.2998 2.54731 39.1668L2.58986 38.7568C2.59837 38.6686 2.60688 38.5866 2.61461 38.51C2.61693 38.4853 2.61925 38.4605 2.62157 38.4365C2.61925 38.4373 2.61616 38.4373 2.61384 38.4373C2.60533 38.4373 2.59759 38.4342 2.5914 38.4296L2.56742 38.5M0.638955 38.4303L0.628125 38.3971C0.626578 38.3924 0.621937 38.3893 0.617296 38.3893C0.610334 38.3893 0.604919 38.3955 0.605692 38.4025C0.605692 38.4033 0.605692 38.404 0.605692 38.4048C0.607239 38.4149 0.608013 38.4257 0.608787 38.4365C0.611881 38.4613 0.614201 38.4868 0.616522 38.5131" fill="white"/>
</svg>
