<svg width="43" height="40" viewBox="0 0 43 40" fill="none" xmlns="http://www.w3.org/2000/svg">
<path d="M12.5405 0.0138931C10.3955 0.150805 9.0264 0.515907 7.21915 1.41953C5.98694 2.0402 4.3166 3.2998 3.73244 4.04826C3.63203 4.17605 3.4221 4.42249 3.26693 4.58678C2.8927 4.9884 2.45458 5.87377 2.27203 6.6131C2.0621 7.41632 1.97995 10.6201 2.13512 11.5055C2.25378 12.1991 2.27203 12.3361 2.40895 13.4587C2.5276 14.3897 2.58237 14.7183 2.65539 14.9648C2.71015 15.1747 2.94747 15.4668 3.057 15.4668C3.19391 15.4668 3.41297 15.0469 3.5864 14.4536C4.20707 12.3817 5.23848 10.045 6.16036 8.65766C7.17351 7.12424 9.01727 5.14356 10.4868 4.00262C11.071 3.55537 12.1845 2.86168 12.6318 2.67C12.86 2.5696 13.1612 2.43269 13.3163 2.3688C14.0557 2.03108 14.3843 1.9398 15.2788 1.84853C16.4836 1.72074 17.4694 1.8394 18.9298 2.29577C20.0981 2.66088 21.2116 3.18114 22.1609 3.82007C22.8546 4.28558 22.9459 4.31296 22.9459 4.07564C22.9459 3.86571 22.6903 3.62839 21.3942 2.67C19.3314 1.13658 16.8852 0.196444 14.6398 0.0869131C14.1104 0.0595303 13.5171 0.0230207 13.3163 0.0138931C13.1155 -0.00436211 12.7687 -0.00436211 12.5405 0.0138931Z" fill="white"/>
<path d="M15.3604 2.46887C14.2834 2.59666 12.8869 3.18082 11.4812 4.09357C10.6232 4.65035 9.37277 5.80955 8.51478 6.84096C7.83022 7.66243 6.46109 9.62485 6.10512 10.3003C5.74914 10.9757 5.77653 11.0487 6.3972 11.1309C7.17304 11.2222 7.45599 11.3773 8.20445 12.1075C9.73787 13.5953 11.4995 17.0455 12.4944 20.4866C12.613 20.9156 12.7773 21.445 12.8504 21.6732C12.9234 21.9014 13.1059 22.6133 13.252 23.2705C13.4071 23.9186 13.6627 24.8039 13.8179 25.2329C13.973 25.6619 14.1647 26.2096 14.2377 26.4651C14.5937 27.6426 15.6343 29.8149 16.5014 31.1749C17.1494 32.1881 18.8837 34.3057 19.7508 35.1363C21.4485 36.761 23.6665 38.1666 25.2638 38.6321C28.0021 39.4262 28.568 39.5175 30.6947 39.4445C32.4015 39.3988 32.9948 39.2346 33.5516 38.696C33.9167 38.3492 34.5556 38.2031 36.2533 38.1119L37.3121 38.0571V35.6201C37.3121 34.2874 37.2847 29.4225 37.2391 24.8131C37.2026 20.2037 37.1935 16.4522 37.2117 16.4796C37.23 16.4979 37.3304 16.9086 37.4399 17.3833C37.5494 17.8579 37.7137 18.6155 37.8141 19.0718C37.9237 19.5191 38.0423 20.0759 38.088 20.3041C38.1336 20.5322 38.3162 21.3537 38.4987 22.1296C38.6721 22.9054 38.9825 24.2654 39.1741 25.1417C39.375 26.0179 39.8861 28.318 40.3242 30.2531C41.4286 35.1728 41.4195 35.1089 41.6842 36.3229C42.0676 38.0754 42.1041 38.1758 42.314 38.2305C42.4235 38.2579 42.5148 38.267 42.5239 38.2579C42.5513 38.2305 42.6426 30.0705 42.7065 22.0565C42.7521 15.8407 42.743 14.9188 42.6243 14.9188C42.5057 14.9188 42.4874 15.576 42.4327 19.5008C42.3779 24.667 42.2866 34.0866 42.2866 36.0856C42.2866 36.8066 42.2684 37.3817 42.2501 37.3634C42.2319 37.3452 41.9398 36.1129 41.6112 34.6343C41.2826 33.1556 40.8719 31.3027 40.6893 30.5269C40.5159 29.7511 40.1873 28.2906 39.9591 27.2866C39.5484 25.4337 38.7817 22.0292 37.8415 17.8853C37.5586 16.6257 37.303 15.4847 37.2756 15.3387L37.2209 15.074L36.3994 15.0922C35.943 15.1105 35.2493 15.1288 34.8477 15.1379C34.4461 15.1561 32.867 15.1835 31.3336 15.2018L28.5497 15.2383L28.5223 14.9188C28.4676 14.1156 28.0751 13.0933 26.6786 10.1086C25.9027 8.4474 23.5661 5.47183 22.4343 4.69599C21.412 3.99317 18.9384 2.92525 17.7336 2.65142C17.0764 2.50538 15.8533 2.4141 15.3604 2.46887ZM23.4292 9.72526C23.8216 9.81653 24.3967 10.0356 24.707 10.209C25.7658 10.8114 27.2719 12.4818 27.7921 13.6227C28.139 14.3894 28.2029 15.1288 28.0112 16.2149C27.8286 17.2281 27.5913 19.4096 27.6461 19.5008C27.6643 19.5373 27.6461 19.7473 27.5913 19.9755C27.4635 20.5414 27.637 22.7594 27.9108 24.092C27.9838 24.4388 28.0477 24.74 28.0477 24.7492C28.0477 24.7583 27.856 24.7127 27.6187 24.6396C26.8429 24.4023 26.0396 24.6944 25.5559 25.379C25.3368 25.6984 25.2912 25.8445 25.2912 26.31C25.2912 27.0676 25.5376 27.5878 26.1218 28.0442C26.4412 28.2998 26.7151 28.4367 26.998 28.4823C27.2262 28.5097 27.4088 28.5462 27.4088 28.5645C27.4088 28.5736 27.3266 28.7835 27.2171 29.0209C27.0619 29.3768 27.0345 29.5959 27.0528 30.2348C27.0893 31.0198 27.0893 31.0198 26.8429 31.1111C26.642 31.1841 26.5599 31.1567 26.3226 30.9559C25.8662 30.5725 25.5102 30.5543 24.4058 30.8555C23.849 31.0015 23.201 31.1111 22.8815 31.1111C22.0874 31.1111 21.2294 30.6547 20.0702 29.605C19.2031 28.82 19.1575 28.7927 18.7285 28.7927C18.3908 28.7927 18.263 28.8383 18.1626 28.9843C17.9526 29.2855 18.0987 29.6233 18.5368 29.8697C19.0023 30.1253 19.0479 30.0705 18.6098 29.7967C18.0713 29.4681 18.0987 28.9752 18.6463 28.9752C19.0206 28.9752 19.5135 29.386 20.4171 30.4447C22.0874 32.3889 22.6168 32.8453 24.1137 33.5846C25.0356 34.041 25.4737 34.1779 26.0579 34.1779H26.496L26.3956 34.4243C26.3408 34.5704 26.3043 35.3919 26.3135 36.3411C26.3135 37.8928 26.3043 38.0206 26.1309 38.194C25.9118 38.4131 25.8845 38.4131 25.2547 38.2305C23.7669 37.8015 21.6219 36.405 19.9424 34.7803C19.2761 34.1414 17.9618 32.6262 17.6879 32.179C17.6423 32.0968 17.405 31.75 17.1768 31.394C15.8168 29.3221 15.6616 29.0482 15.1231 27.7156C14.1465 25.3242 13.5075 23.0606 13.1333 20.66C12.9051 19.227 12.8869 18.9806 12.9781 18.3782C13.042 18.0131 13.1698 17.5293 13.2702 17.3011C13.3798 17.0638 13.5441 16.6622 13.6353 16.3884C14.0369 15.2383 15.1596 13.5041 16.3918 12.1075C16.8939 11.5416 17.4324 11.0122 17.5875 10.9301C17.7427 10.8479 18.0439 10.6654 18.2447 10.5285C18.6463 10.2547 20.2163 9.63398 20.7457 9.53358C21.2751 9.4423 22.6624 9.53358 23.4292 9.72526ZM36.1894 16.3518C36.2077 16.8447 36.2351 19.0353 36.2442 21.2259L36.2716 25.2055L34.6104 25.2603C33.6976 25.2968 32.5567 25.3242 32.0729 25.3242H31.1967L31.0233 24.2472C30.932 23.663 30.7586 22.5859 30.6308 21.8557C30.5121 21.1255 30.3752 20.2858 30.3296 19.9846C30.2566 19.51 29.9371 17.6023 29.8276 16.936C29.8093 16.8173 29.7637 16.5253 29.7363 16.2971C29.6998 16.0689 29.6541 15.8042 29.6359 15.722C29.5811 15.5304 29.8002 15.5212 33.5425 15.4847L36.1621 15.4665L36.1894 16.3518ZM28.7231 16.0324C28.787 16.5435 28.9787 17.8122 29.1886 19.1631C29.2617 19.6104 29.4351 20.6783 29.5629 21.5363C29.6906 22.3851 29.8549 23.4804 29.928 23.9551C30.001 24.4297 30.1196 25.2694 30.2018 25.8262C30.2748 26.3739 30.3661 26.8576 30.3843 26.8941C30.4117 26.9306 30.0375 26.9672 29.5629 26.9672H28.6866V26.5199C28.6866 26.2643 28.6227 25.7897 28.5406 25.4429C28.4584 25.1051 28.3763 24.74 28.3489 24.6396C28.0568 23.3527 27.9382 22.2208 27.929 20.6235C27.929 19.6651 27.9747 18.5972 28.0294 18.2504C28.0842 17.8944 28.1755 17.3011 28.2302 16.9269C28.3306 16.1145 28.4858 15.5577 28.5862 15.5577C28.6319 15.5577 28.6866 15.7768 28.7231 16.0324ZM36.2898 27.8525C36.3264 29.1395 36.3537 31.8869 36.3537 33.9588V37.7194L36.016 37.6737C35.8243 37.6555 35.1124 37.6007 34.437 37.5733L33.2139 37.5095L32.6023 33.7672C32.2646 31.7043 31.936 29.7602 31.8813 29.4316C31.5253 27.3505 31.2697 25.7258 31.2971 25.6984C31.3153 25.671 32.2646 25.6345 33.4147 25.598C34.5556 25.5615 35.6509 25.5341 35.8609 25.525L36.2351 25.5068L36.2898 27.8525ZM30.4574 27.5331C30.5578 28.0168 30.6947 28.8839 30.7859 29.5776C30.8407 29.9792 30.8955 30.39 30.9137 30.4904C30.932 30.5817 30.9776 30.8464 31.005 31.0745C31.0415 31.3027 31.1328 31.8504 31.1967 32.3068C31.2697 32.754 31.434 33.8037 31.5618 34.6343C31.6896 35.4649 31.8265 36.3868 31.8813 36.688C32.0273 37.5642 32.0547 37.5277 31.4066 37.4821C30.5212 37.4273 28.9878 37.2174 28.285 37.0531C27.6004 36.8979 27.1349 36.6058 26.852 36.1494C26.5782 35.7205 26.642 34.5613 26.9706 33.9954C27.2719 33.4751 27.3449 33.1191 27.2353 32.7358C27.1623 32.4984 27.1806 32.3798 27.3175 32.1425C27.5731 31.6952 27.6096 31.3392 27.4909 30.536C27.3631 29.6233 27.4544 29.1943 27.9473 28.4367C28.139 28.1355 28.3489 27.7704 28.4128 27.6152L28.5223 27.3323H29.4716C30.3752 27.3323 30.4208 27.3414 30.4574 27.5331ZM26.0396 32.5532C26.5599 32.827 26.6968 33.0461 26.4504 33.2286C26.1127 33.4751 25.3003 33.2378 24.8531 32.7631C24.6614 32.5623 24.6523 32.5076 24.7618 32.4437C24.9991 32.2885 25.6198 32.3433 26.0396 32.5532Z" fill="white"/>
<path d="M22.168 11.5148C20.7441 11.7156 19.6853 12.528 19.0281 13.9154C18.7726 14.4448 18.6722 14.8099 18.517 15.75C18.4714 16.0786 18.4622 16.0877 17.942 16.1516C17.0475 16.2611 16.1804 16.7814 15.8609 17.4112C15.6327 17.8402 15.7696 18.4517 16.153 18.8168C16.6915 19.3189 17.3943 19.328 18.1884 18.8351C18.4349 18.6891 18.6539 18.5704 18.6813 18.5704C18.7543 18.5704 18.9277 19.1272 18.8821 19.2093C18.8638 19.2458 18.59 19.3645 18.2706 19.4832C17.7777 19.6657 17.6042 19.684 16.9288 19.6292L16.1438 19.5744L16.5089 19.9487C16.7098 20.1495 17.0657 20.4415 17.3122 20.5967C17.7868 20.9162 17.8051 20.9527 17.586 21.1352C17.5038 21.2083 17.3304 21.4364 17.2026 21.6464C17.0749 21.8563 16.7919 22.1484 16.5728 22.3036C16.299 22.5135 16.1895 22.6504 16.1895 22.8238C16.1895 23.0246 16.226 23.052 16.4359 23.0246C16.6093 23.0064 16.7463 22.8877 16.9106 22.6048C17.0383 22.3857 17.3304 22.0845 17.5495 21.9385C17.9237 21.692 18.6265 21.4364 18.7087 21.5186C18.7269 21.5368 18.6722 21.7103 18.59 21.9111C18.4622 22.1849 18.4257 22.5409 18.4257 23.4993C18.4166 24.4577 18.3801 24.8136 18.2614 25.0966C17.942 25.8177 18.4896 26.5844 18.9551 26.0732C19.1468 25.8633 19.1559 25.3339 18.9734 24.8958C18.7634 24.4029 18.8 23.6271 19.0555 23.0794C19.3659 22.404 19.9409 22.0389 20.7532 21.9932C20.9814 21.975 21.4834 21.9019 21.8759 21.8198C22.7978 21.6281 23.5189 21.765 24.0026 22.2305C24.3677 22.5865 24.3769 22.5591 24.1031 21.9293C23.6832 20.9983 23.1903 20.4507 22.2045 19.8209C21.7208 19.5105 20.662 18.4517 20.4612 18.0866C20.379 17.9315 20.3973 17.9223 20.662 17.9771C21.1549 18.0866 21.7208 18.3696 22.2137 18.7621C22.7339 19.1728 23.0169 19.1637 22.6061 18.7347C22.1771 18.2874 21.3557 17.8402 20.7441 17.7215C20.1873 17.6211 20.1782 17.612 19.9683 17.1556C19.7036 16.5989 19.6945 16.4711 19.9318 16.4711C20.2421 16.4711 21.7755 17.0187 22.2958 17.3108C23.1355 17.7946 24.0026 18.6891 24.386 19.474C24.6872 20.0947 24.7237 20.2407 24.7146 20.8432C24.7055 21.4547 24.7146 21.5003 24.8333 21.3452C24.9245 21.2174 24.9519 20.9892 24.9337 20.5328C24.8424 18.8625 23.2998 17.1921 21.2188 16.5076C20.8354 16.3798 20.3425 16.252 20.1143 16.2246C19.8861 16.1972 19.6762 16.1242 19.6397 16.0695C19.4845 15.823 19.4663 15.0289 19.6123 14.3991C19.8587 13.3038 20.5068 12.5371 21.6112 12.0351C22.6335 11.5696 23.8292 11.9073 24.4408 12.8201C24.7328 13.2673 24.8424 13.888 24.6781 14.1983C24.5686 14.39 24.5686 14.4083 24.6963 14.2987C25.1162 13.961 24.9063 13.0482 24.2673 12.4093C23.5919 11.7248 22.8617 11.4144 22.168 11.5148ZM18.5079 17.1283C18.5444 17.5481 18.5809 18.0045 18.59 18.1505C18.6083 18.3879 18.5535 18.4426 18.0332 18.7164C17.3578 19.0724 16.9197 19.1089 16.4816 18.8442C16.1804 18.6617 15.9157 18.1962 15.9157 17.8493C15.9157 17.7489 16.0526 17.4934 16.2169 17.2834C16.5637 16.827 17.4673 16.3889 18.0698 16.3798H18.444L18.5079 17.1283Z" fill="white"/>
<path d="M1.46102 7.13239C1.34236 7.32407 0.566518 9.18608 0.402222 9.67897C0.0827586 10.6556 -0.0085167 11.3584 0.000610823 13.0014C0.000610823 14.2519 0.0462485 14.7904 0.192289 15.5023C0.292692 15.9952 0.420477 16.4425 0.466115 16.4881C0.603028 16.625 0.758196 16.4881 0.758196 16.2234C0.758196 15.7488 1.23283 14.0328 1.54316 13.3756L1.87175 12.7093L1.71659 12.0521C1.50665 11.0937 1.45189 9.8889 1.57967 8.75709C1.73484 7.44272 1.73484 7.14152 1.60706 7.09588C1.55229 7.07762 1.47927 7.09588 1.46102 7.13239Z" fill="white"/>
<path d="M2.74305 15.831C2.41446 16.0865 2.35056 16.4425 2.57875 16.7528L2.7613 16.9993L2.4966 17.1088C1.85768 17.3735 1.21875 18.4323 1.21875 19.199C1.22788 19.5185 1.51083 20.1209 1.77553 20.3582C2.11325 20.6594 2.89822 20.8785 3.46412 20.8328C3.98439 20.7872 4.43164 20.5134 4.815 20.0022C5.07057 19.6554 5.12533 18.7791 4.9154 18.2498C4.74198 17.7842 4.05741 17.1271 3.66493 17.0449C3.42761 16.9993 3.41848 16.981 3.54627 16.8076C3.83835 16.3877 3.61016 15.6484 3.1903 15.6484C3.07164 15.6484 2.87083 15.7306 2.74305 15.831ZM4.05741 19.0438C4.36775 19.1351 4.386 19.1625 4.25822 19.2538C4.10305 19.3724 4.15781 19.7193 4.32211 19.6189C4.50466 19.5002 4.40426 19.8653 4.1852 20.0753C3.93875 20.3308 3.43674 20.3856 3.35459 20.1757C3.32721 20.1026 3.37285 19.911 3.46412 19.7649C3.72882 19.3177 3.5554 19.2355 2.75217 19.4089C2.38707 19.4911 2.04023 19.5276 1.96721 19.5094C1.72076 19.4089 1.9307 19.2447 2.50573 19.0986C3.20855 18.9161 3.59191 18.8978 4.05741 19.0438Z" fill="white"/>
</svg>
