<svg width="24" height="48" viewBox="0 0 24 48" fill="none" xmlns="http://www.w3.org/2000/svg">
<path d="M10.9393 47.0607C11.5251 47.6464 12.4749 47.6464 13.0607 47.0607L22.6066 37.5147C23.1924 36.9289 23.1924 35.9792 22.6066 35.3934C22.0208 34.8076 21.0711 34.8076 20.4853 35.3934L12 43.8787L3.51473 35.3934C2.92894 34.8076 1.97919 34.8076 1.39341 35.3934C0.807619 35.9792 0.807618 36.9289 1.3934 37.5147L10.9393 47.0607ZM10.5 44L10.5 46L13.5 46L13.5 44L10.5 44Z" fill="white"/>
<path d="M10.9393 30.0607C11.5251 30.6464 12.4749 30.6464 13.0607 30.0607L22.6066 20.5147C23.1924 19.9289 23.1924 18.9792 22.6066 18.3934C22.0208 17.8076 21.0711 17.8076 20.4853 18.3934L12 26.8787L3.51473 18.3934C2.92894 17.8076 1.97919 17.8076 1.39341 18.3934C0.807619 18.9792 0.807618 19.9289 1.3934 20.5147L10.9393 30.0607ZM10.5 27L10.5 29L13.5 29L13.5 27L10.5 27Z" fill="white"/>
<path d="M10.9393 13.0607C11.5251 13.6464 12.4749 13.6464 13.0607 13.0607L22.6066 3.51473C23.1924 2.92894 23.1924 1.97919 22.6066 1.39341C22.0208 0.807621 21.0711 0.80762 20.4853 1.39341L12 9.87868L3.51473 1.39339C2.92894 0.807604 1.97919 0.807603 1.39341 1.39339C0.807619 1.97917 0.807618 2.92892 1.3934 3.51471L10.9393 13.0607ZM10.5 10L10.5 12L13.5 12L13.5 10L10.5 10Z" fill="white"/>
</svg>
