<svg width="1228" height="6" viewBox="0 0 1228 6" fill="none" xmlns="http://www.w3.org/2000/svg">
<g opacity="0.5">
<mask id="path-1-inside-1_5728_9888" fill="white">
<path fill-rule="evenodd" clip-rule="evenodd" d="M1221 0H1228V5V6L0 5.99989V4.99989L1221 5V0Z"/>
</mask>
<path fill-rule="evenodd" clip-rule="evenodd" d="M1221 0H1228V5V6L0 5.99989V4.99989L1221 5V0Z" fill="#DF0252"/>
<path d="M1228 0V-1H1229V0H1228ZM1221 0H1220V-1H1221V0ZM1228 6H1229V7H1228L1228 6ZM0 5.99989V6.99989H-1V5.99989H0ZM0 4.99989H-1V3.99989H0V4.99989ZM1221 5H1222V6H1221V5ZM1228 1H1221V-1H1228V1ZM1227 5V0H1229V5H1227ZM1229 5V6H1227V5H1229ZM1228 7L0 6.99989V4.99989L1228 5L1228 7ZM-1 5.99989V4.99989H1V5.99989H-1ZM0 3.99989L1221 4V6L0 5.99989V3.99989ZM1222 0V5H1220V0H1222Z" fill="#DF0252" mask="url(#path-1-inside-1_5728_9888)"/>
</g>
</svg>
