<svg width="756" height="726" viewBox="0 0 756 726" fill="none" xmlns="http://www.w3.org/2000/svg">
<path opacity="0.5" d="M825.5 725L410 725L314 629L1 629L1.00001 508L1.00002 356.5L42.5 356.5L42.5 205" stroke="#DF0252" stroke-linecap="round"/>
<path opacity="0.5" d="M947 1.5C947.276 1.5 947.5 1.27614 947.5 1C947.5 0.723858 947.276 0.5 947 0.5V1.5ZM656 1V0.5H655.5V1H656ZM656 252.5H655.5V252.725L655.668 252.874L656 252.5ZM745.5 332H746V331.775L745.832 331.626L745.5 332ZM745 605V605.5H746V605H745ZM947 0.5H656V1.5H947V0.5ZM655.5 1V252.5H656.5V1H655.5ZM655.668 252.874L745.168 332.374L745.832 331.626L656.332 252.126L655.668 252.874ZM745 332V605H746V332H745Z" fill="#DF0252"/>
</svg>
