<svg width="1920" height="857" viewBox="0 0 1920 857" fill="none" xmlns="http://www.w3.org/2000/svg">
<path opacity="0.5" d="M2.18557e-08 1.5C-0.276142 1.5 -0.5 1.27614 -0.5 1C-0.5 0.723858 -0.276142 0.5 -2.18557e-08 0.5L2.18557e-08 1.5ZM285.5 0.999988L285.5 0.499988L285.685 0.499988L285.826 0.620921L285.5 0.999988ZM571.5 247L571.5 247.5L571.315 247.5L571.174 247.379L571.5 247ZM1084 246.5L1084.5 246.5L1084.5 247.5L1084 247.5L1084 246.5ZM-2.18557e-08 0.5L285.5 0.499988L285.5 1.49999L2.18557e-08 1.5L-2.18557e-08 0.5ZM285.826 0.620921L571.826 246.621L571.174 247.379L285.174 1.37905L285.826 0.620921ZM571.5 246.5L1084 246.5L1084 247.5L571.5 247.5L571.5 246.5Z" fill="#DF0252"/>
<path opacity="0.5" d="M1084 610.5C1084.28 610.5 1084.5 610.276 1084.5 610C1084.5 609.724 1084.28 609.5 1084 609.5L1084 610.5ZM798.5 610L798.5 609.5L798.315 609.5L798.174 609.621L798.5 610ZM512.5 856L512.5 856.5L512.685 856.5L512.826 856.379L512.5 856ZM-1.07311e-05 855.5L-0.500011 855.5L-0.500011 856.5L-1.07749e-05 856.5L-1.07311e-05 855.5ZM1084 609.5L798.5 609.5L798.5 610.5L1084 610.5L1084 609.5ZM798.174 609.621L512.174 855.621L512.826 856.379L798.826 610.379L798.174 609.621ZM512.5 855.5L-1.07311e-05 855.5L-1.07749e-05 856.5L512.5 856.5L512.5 855.5Z" fill="#DF0252"/>
<path opacity="0.5" d="M1920 50C1920.28 50 1920.5 49.7761 1920.5 49.5C1920.5 49.2239 1920.28 49 1920 49V50ZM1319 49.5V49H1318.5V49.5H1319ZM1319 301H1318.5V301.225L1318.67 301.374L1319 301ZM1408.5 380.5H1409V380.275L1408.83 380.126L1408.5 380.5ZM1408 653.5V654H1409V653.5H1408ZM1920 49H1319V50H1920V49ZM1318.5 49.5V301H1319.5V49.5H1318.5ZM1318.67 301.374L1408.17 380.874L1408.83 380.126L1319.33 300.626L1318.67 301.374ZM1408 380.5V653.5H1409V380.5H1408Z" fill="#DF0252"/>
</svg>
