<svg width="735" height="396" viewBox="0 0 735 396" fill="none" xmlns="http://www.w3.org/2000/svg">
<g clip-path="url(#clip0_5911_314)">
<g filter="url(#filter0_d_5911_314)">
<path d="M36 376C36 331.744 44.7168 287.922 61.6526 247.036C78.5885 206.149 103.412 168.998 134.705 137.705C165.998 106.412 203.149 81.5884 244.036 64.6526C284.922 47.7167 328.745 39 373 39C417.256 39 461.078 47.7167 501.964 64.6526C542.851 81.5884 580.002 106.412 611.295 137.705C642.588 168.998 667.412 206.149 684.347 247.036C701.283 287.922 710 331.745 710 376L373 376L36 376Z" fill="#FFF1C9"/>
</g>
</g>
<defs>
<filter id="filter0_d_5911_314" x="-3.2" y="-0.200001" width="752.4" height="415.4" filterUnits="userSpaceOnUse" color-interpolation-filters="sRGB">
<feFlood flood-opacity="0" result="BackgroundImageFix"/>
<feColorMatrix in="SourceAlpha" type="matrix" values="0 0 0 0 0 0 0 0 0 0 0 0 0 0 0 0 0 0 127 0" result="hardAlpha"/>
<feOffset/>
<feGaussianBlur stdDeviation="19.6"/>
<feComposite in2="hardAlpha" operator="out"/>
<feColorMatrix type="matrix" values="0 0 0 0 1 0 0 0 0 0.945098 0 0 0 0 0.788235 0 0 0 1 0"/>
<feBlend mode="normal" in2="BackgroundImageFix" result="effect1_dropShadow_5911_314"/>
<feBlend mode="normal" in="SourceGraphic" in2="effect1_dropShadow_5911_314" result="shape"/>
</filter>
<clipPath id="clip0_5911_314">
<rect width="735" height="434" fill="white" transform="translate(0 -38)"/>
</clipPath>
</defs>
</svg>
