<svg width="1920" height="1036" viewBox="0 0 1920 1036" fill="none" xmlns="http://www.w3.org/2000/svg">
<g clip-path="url(#clip0_5726_8380)">
<line x1="1.99902" y1="376.5" x2="1922" y2="376.5" stroke="#84ECE4" stroke-width="3"/>
<line x1="1.99902" y1="473.5" x2="1922" y2="473.5" stroke="#84ECE4" stroke-width="3"/>
<line x1="-56" y1="610.5" x2="1922" y2="610.5" stroke="#84ECE4" stroke-width="3"/>
<line x1="-31" y1="794.5" x2="1922" y2="794.5" stroke="#84ECE4" stroke-width="3"/>
<line x1="-18" y1="1034.5" x2="1922" y2="1034.5" stroke="#84ECE4" stroke-width="3"/>
<line x1="577.965" y1="376.057" x2="-6.93565" y2="965.057" stroke="#84ECE4" stroke-width="3"/>
<line x1="747.188" y1="375.77" x2="353.288" y2="1034.77" stroke="#84ECE4" stroke-width="3"/>
<line x1="941.364" y1="377.331" x2="792.463" y2="1036.33" stroke="#84ECE4" stroke-width="3"/>
<line x1="1120.39" y1="377.875" x2="1175.49" y2="1035.87" stroke="#84ECE4" stroke-width="3"/>
<line x1="1314.41" y1="375.485" x2="1555.41" y2="1034.48" stroke="#84ECE4" stroke-width="3"/>
<line x1="1558.31" y1="375.27" x2="1931.31" y2="1044.27" stroke="#84ECE4" stroke-width="3"/>
<line x1="247.838" y1="376.17" x2="-420.062" y2="912.17" stroke="#84ECE4" stroke-width="3"/>
<circle cx="503" cy="797" r="44.527" fill="#FFF1C9" stroke="#FFF1C9"/>
<circle cx="503" cy="797" r="68.3649" stroke="#FFF1C9"/>
<circle cx="503" cy="797" r="96.5" stroke="#FFF1C9" stroke-width="3"/>
<path d="M485.218 792.537C487.04 792.537 488.531 793.155 489.692 794.392C490.863 795.628 491.448 797.209 491.448 799.135C491.448 801.052 490.877 802.741 489.735 804.205C488.593 805.668 486.818 806.399 484.411 806.399C481.824 806.399 479.917 805.319 478.69 803.157C477.736 801.467 477.26 799.286 477.26 796.615C477.26 795.048 477.326 793.773 477.458 792.792C477.694 791.045 478.152 789.591 478.832 788.43C479.417 787.439 480.181 786.641 481.125 786.037C482.079 785.433 483.216 785.131 484.538 785.131C486.445 785.131 487.965 785.622 489.098 786.604C490.23 787.576 490.868 788.874 491.009 790.498H486.988C486.988 790.167 486.86 789.804 486.605 789.407C486.171 788.765 485.515 788.444 484.637 788.444C483.325 788.444 482.39 789.181 481.833 790.653C481.531 791.465 481.324 792.664 481.21 794.25C481.711 793.655 482.291 793.221 482.952 792.947C483.613 792.674 484.368 792.537 485.218 792.537ZM482.499 796.388C481.706 797.002 481.31 797.993 481.31 799.362C481.31 800.466 481.607 801.368 482.202 802.066C482.796 802.765 483.552 803.114 484.467 803.114C485.364 803.114 486.067 802.779 486.577 802.109C487.096 801.429 487.356 800.551 487.356 799.475C487.356 798.276 487.063 797.361 486.478 796.728C485.893 796.086 485.175 795.765 484.326 795.765C483.637 795.765 483.028 795.973 482.499 796.388ZM500.482 806.371C497.868 806.371 496.031 805.455 494.974 803.624C493.926 801.793 493.402 799.182 493.402 795.793C493.402 792.404 493.926 789.79 494.974 787.949C496.031 786.108 497.868 785.188 500.482 785.188C503.097 785.188 504.933 786.108 505.991 787.949C507.039 789.79 507.562 792.404 507.562 795.793C507.562 799.182 507.034 801.793 505.977 803.624C504.929 805.455 503.097 806.371 500.482 806.371ZM502.847 801.203C503.215 799.957 503.399 798.153 503.399 795.793C503.399 793.32 503.211 791.489 502.833 790.299C502.465 789.11 501.681 788.515 500.482 788.515C499.284 788.515 498.491 789.11 498.104 790.299C497.716 791.489 497.523 793.32 497.523 795.793C497.523 798.153 497.716 799.961 498.104 801.217C498.491 802.463 499.284 803.086 500.482 803.086C501.681 803.086 502.47 802.458 502.847 801.203ZM516.625 806.371C514.01 806.371 512.174 805.455 511.117 803.624C510.069 801.793 509.545 799.182 509.545 795.793C509.545 792.404 510.069 789.79 511.117 787.949C512.174 786.108 514.01 785.188 516.625 785.188C519.24 785.188 521.076 786.108 522.133 787.949C523.181 789.79 523.705 792.404 523.705 795.793C523.705 799.182 523.176 801.793 522.119 803.624C521.071 805.455 519.24 806.371 516.625 806.371ZM518.99 801.203C519.358 799.957 519.542 798.153 519.542 795.793C519.542 793.32 519.353 791.489 518.976 790.299C518.607 789.11 517.824 788.515 516.625 788.515C515.426 788.515 514.633 789.11 514.246 790.299C513.859 791.489 513.666 793.32 513.666 795.793C513.666 798.153 513.859 799.961 514.246 801.217C514.633 802.463 515.426 803.086 516.625 803.086C517.824 803.086 518.612 802.458 518.99 801.203Z" fill="black"/>
<circle cx="884" cy="606" r="29.8649" fill="#FFF1C9"/>
<circle cx="884" cy="606" r="45.1757" stroke="#FFF1C9"/>
<circle cx="884" cy="606" r="63.5" stroke="#FFF1C9" stroke-width="3"/>
<path d="M873.074 602.34C873.074 602.098 872.964 601.812 872.788 601.526C872.436 601.042 871.952 600.778 871.292 600.778C870.28 600.778 869.576 601.35 869.158 602.472C868.938 603.066 868.762 603.99 868.674 605.2C869.07 604.738 869.51 604.408 870.016 604.21C870.5 603.99 871.072 603.902 871.732 603.902C873.118 603.902 874.24 604.364 875.12 605.288C876 606.234 876.462 607.444 876.462 608.896C876.462 610.348 876.022 611.646 875.142 612.746C874.284 613.846 872.942 614.418 871.116 614.418C869.136 614.418 867.706 613.582 866.782 611.954C866.056 610.678 865.682 609.006 865.682 606.982C865.682 605.794 865.748 604.826 865.836 604.078C866.012 602.758 866.364 601.658 866.87 600.778C867.31 600.03 867.904 599.414 868.63 598.952C869.356 598.49 870.214 598.27 871.204 598.27C872.656 598.27 873.8 598.644 874.658 599.37C875.538 600.118 876 601.108 876.11 602.34H873.074ZM869.444 611.118C869.884 611.646 870.456 611.91 871.16 611.91C871.842 611.91 872.37 611.668 872.766 611.14C873.162 610.634 873.338 609.974 873.338 609.16C873.338 608.236 873.118 607.554 872.678 607.07C872.238 606.586 871.688 606.344 871.05 606.344C870.522 606.344 870.06 606.498 869.664 606.806C869.07 607.268 868.762 608.038 868.762 609.072C868.762 609.908 868.982 610.59 869.444 611.118ZM880.855 609.842C880.965 610.502 881.207 611.008 881.559 611.36C881.889 611.734 882.395 611.91 883.055 611.91C883.825 611.91 884.397 611.646 884.793 611.118C885.189 610.59 885.387 609.908 885.387 609.094C885.387 608.302 885.211 607.62 884.837 607.092C884.463 606.542 883.869 606.256 883.099 606.256C882.725 606.256 882.395 606.3 882.131 606.41C881.647 606.586 881.295 606.894 881.031 607.356L878.281 607.224L879.381 598.622H887.961V601.218H881.603L881.031 604.628C881.515 604.32 881.867 604.122 882.153 604.012C882.593 603.858 883.143 603.77 883.759 603.77C885.057 603.77 886.179 604.21 887.147 605.068C888.093 605.948 888.577 607.202 888.577 608.852C888.577 610.304 888.115 611.58 887.191 612.702C886.267 613.846 884.881 614.418 883.055 614.418C881.559 614.418 880.349 614 879.403 613.208C878.435 612.416 877.907 611.294 877.797 609.842H880.855ZM899.679 600.404C900.471 601.812 900.889 603.792 900.889 606.366C900.889 608.94 900.471 610.92 899.679 612.306C898.887 613.692 897.501 614.396 895.499 614.396C893.519 614.396 892.133 613.692 891.341 612.306C890.527 610.92 890.131 608.94 890.131 606.366C890.131 603.792 890.527 601.812 891.341 600.404C892.133 599.018 893.519 598.314 895.499 598.314C897.501 598.314 898.887 599.018 899.679 600.404ZM893.695 610.458C894.003 611.426 894.597 611.888 895.499 611.888C896.423 611.888 897.017 611.426 897.303 610.458C897.589 609.512 897.721 608.148 897.721 606.366C897.721 604.474 897.589 603.088 897.303 602.186C897.017 601.284 896.423 600.844 895.499 600.844C894.597 600.844 894.003 601.284 893.695 602.186C893.409 603.088 893.255 604.474 893.255 606.366C893.255 608.148 893.409 609.512 893.695 610.458Z" fill="black"/>
<rect x="314.025" y="485.448" width="8.322" height="8.32251" fill="#DF0252"/>
<rect x="1158.71" y="561.391" width="8.322" height="8.32251" fill="#DF0252"/>
<rect x="973.543" y="809.22" width="8.322" height="8.32251" fill="#DF0252"/>
<rect x="1063" y="391.819" width="8.322" height="8.32251" fill="#DF0252"/>
<rect x="409.66" y="880.767" width="8.322" height="8.32251" fill="#DF0252"/>
<rect x="1209.68" y="950.468" width="8.322" height="8.32251" fill="#DF0252"/>
<rect x="1578.97" y="527.061" width="8.322" height="8.32251" fill="#DF0252"/>
<rect x="272.415" y="749.688" width="8.322" height="8.32251" fill="#DF0252"/>
<rect x="1335.55" y="770.494" width="8.322" height="8.32251" fill="#DF0252"/>
<rect x="981.865" y="159.83" width="8.322" height="8.32251" fill="#DF0252"/>
<rect x="522.075" y="101.572" width="8.322" height="8.32251" fill="#DF0252"/>
<rect x="233.926" y="233.692" width="8.322" height="8.32251" fill="#DF0252"/>
<rect x="530.396" y="944.226" width="18.7245" height="21.0663" fill="#DF0252"/>
<rect x="1690.28" y="273.224" width="18.7245" height="21.0663" fill="#DF0252"/>
<rect x="1340.75" y="436.553" width="18.7245" height="21.0663" fill="#DF0252"/>
<rect x="1289.78" y="889.09" width="8.322" height="8.32251" fill="#DF0252"/>
<rect x="1510.31" y="89.0889" width="18.7245" height="21.0663" fill="#DF0252"/>
<rect x="1381.32" y="303.393" width="8.322" height="8.32251" fill="#DF0252"/>
<circle cx="1352" cy="466" r="29.8649" fill="#FFF1C9"/>
<circle cx="1352" cy="466" r="45.1757" stroke="#FFF1C9"/>
<circle cx="1352" cy="466" r="63.5" stroke="#FFF1C9" stroke-width="3"/>
<path d="M1344.59 461.02C1344.13 461.482 1343.52 462.274 1342.68 463.44C1341.87 464.584 1341.18 465.772 1340.63 467.026C1340.19 467.994 1339.82 469.16 1339.45 470.568C1339.09 471.954 1338.94 473.098 1338.94 474H1335.75C1335.84 471.206 1336.76 468.302 1338.5 465.288C1339.62 463.418 1340.57 462.12 1341.32 461.372H1333.55L1333.59 458.622H1344.59V461.02ZM1355.45 460.404C1356.25 461.812 1356.66 463.792 1356.66 466.366C1356.66 468.94 1356.25 470.92 1355.45 472.306C1354.66 473.692 1353.28 474.396 1351.27 474.396C1349.29 474.396 1347.91 473.692 1347.12 472.306C1346.3 470.92 1345.91 468.94 1345.91 466.366C1345.91 463.792 1346.3 461.812 1347.12 460.404C1347.91 459.018 1349.29 458.314 1351.27 458.314C1353.28 458.314 1354.66 459.018 1355.45 460.404ZM1349.47 470.458C1349.78 471.426 1350.37 471.888 1351.27 471.888C1352.2 471.888 1352.79 471.426 1353.08 470.458C1353.36 469.512 1353.5 468.148 1353.5 466.366C1353.5 464.474 1353.36 463.088 1353.08 462.186C1352.79 461.284 1352.2 460.844 1351.27 460.844C1350.37 460.844 1349.78 461.284 1349.47 462.186C1349.18 463.088 1349.03 464.474 1349.03 466.366C1349.03 468.148 1349.18 469.512 1349.47 470.458ZM1367.68 460.404C1368.47 461.812 1368.89 463.792 1368.89 466.366C1368.89 468.94 1368.47 470.92 1367.68 472.306C1366.89 473.692 1365.5 474.396 1363.5 474.396C1361.52 474.396 1360.13 473.692 1359.34 472.306C1358.53 470.92 1358.13 468.94 1358.13 466.366C1358.13 463.792 1358.53 461.812 1359.34 460.404C1360.13 459.018 1361.52 458.314 1363.5 458.314C1365.5 458.314 1366.89 459.018 1367.68 460.404ZM1361.7 470.458C1362 471.426 1362.6 471.888 1363.5 471.888C1364.42 471.888 1365.02 471.426 1365.3 470.458C1365.59 469.512 1365.72 468.148 1365.72 466.366C1365.72 464.474 1365.59 463.088 1365.3 462.186C1365.02 461.284 1364.42 460.844 1363.5 460.844C1362.6 460.844 1362 461.284 1361.7 462.186C1361.41 463.088 1361.26 464.474 1361.26 466.366C1361.26 468.148 1361.41 469.512 1361.7 470.458Z" fill="black"/>
</g>
<defs>
<clipPath id="clip0_5726_8380">
<rect width="1920" height="1036" fill="white"/>
</clipPath>
</defs>
</svg>
