<svg width="42" height="17" viewBox="0 0 42 17" fill="none" xmlns="http://www.w3.org/2000/svg">
<rect x="4" y="1" width="38" height="8" fill="black"/>
<g filter="url(#filter0_d_5726_8349)">
<line x1="5" y1="1" x2="5" y2="9" stroke="#FF003C" stroke-width="2"/>
</g>
<path d="M15.504 8V1.52H16.808C17.24 1.52 17.5973 1.57867 17.88 1.696C18.1627 1.808 18.3707 1.992 18.504 2.248C18.6427 2.49867 18.712 2.82933 18.712 3.24C18.712 3.49067 18.6853 3.72 18.632 3.928C18.5787 4.13067 18.4933 4.304 18.376 4.448C18.2587 4.58667 18.104 4.688 17.912 4.752L18.832 8H17.96L17.112 4.96H16.408V8H15.504ZM16.408 4.312H16.752C17.008 4.312 17.216 4.28 17.376 4.216C17.536 4.152 17.6533 4.04267 17.728 3.888C17.8027 3.73333 17.84 3.51733 17.84 3.24C17.84 2.86133 17.7707 2.58933 17.632 2.424C17.4933 2.25333 17.2187 2.168 16.808 2.168H16.408V4.312ZM21.0764 8V7.392L22.7244 4.824C22.8471 4.632 22.9591 4.45333 23.0604 4.288C23.1671 4.12267 23.2524 3.94933 23.3164 3.768C23.3858 3.58133 23.4204 3.368 23.4204 3.128C23.4204 2.82933 23.3724 2.59467 23.2764 2.424C23.1804 2.25333 23.0124 2.168 22.7724 2.168C22.5698 2.168 22.4124 2.224 22.3004 2.336C22.1884 2.448 22.1111 2.59467 22.0684 2.776C22.0258 2.95733 22.0044 3.152 22.0044 3.36V3.576H21.1484V3.352C21.1484 2.96267 21.1991 2.62933 21.3004 2.352C21.4071 2.06933 21.5751 1.85067 21.8044 1.696C22.0391 1.54133 22.3484 1.464 22.7324 1.464C23.2551 1.464 23.6444 1.61333 23.9004 1.912C24.1564 2.20533 24.2844 2.61333 24.2844 3.136C24.2844 3.41333 24.2498 3.656 24.1804 3.864C24.1164 4.072 24.0311 4.26667 23.9244 4.448C23.8178 4.62933 23.7004 4.816 23.5724 5.008L22.0844 7.28H24.1324V8H21.0764ZM28.1127 8.064C27.7234 8.064 27.4141 7.98933 27.1847 7.84C26.9554 7.69067 26.7901 7.47467 26.6887 7.192C26.5927 6.90933 26.5447 6.57333 26.5447 6.184H27.4007C27.4007 6.376 27.4167 6.56533 27.4487 6.752C27.4807 6.93333 27.5474 7.08533 27.6487 7.208C27.7554 7.32533 27.9154 7.384 28.1287 7.384C28.3634 7.384 28.5314 7.31733 28.6328 7.184C28.7341 7.04533 28.7981 6.86133 28.8247 6.632C28.8514 6.39733 28.8647 6.13333 28.8647 5.84C28.8647 5.54667 28.8487 5.29867 28.8168 5.096C28.7847 4.888 28.7181 4.73067 28.6168 4.624C28.5154 4.512 28.3554 4.456 28.1367 4.456C27.9607 4.456 27.8114 4.512 27.6887 4.624C27.5661 4.73067 27.4754 4.85333 27.4167 4.992H26.6887V1.52H29.4808V2.376H27.4647L27.4087 4.168C27.5154 4.056 27.6461 3.968 27.8007 3.904C27.9607 3.84 28.1421 3.808 28.3447 3.808C28.6968 3.808 28.9714 3.89067 29.1688 4.056C29.3714 4.22133 29.5127 4.448 29.5928 4.736C29.6781 5.024 29.7208 5.35467 29.7208 5.728C29.7208 6.05867 29.6968 6.368 29.6488 6.656C29.6008 6.93867 29.5154 7.18667 29.3928 7.4C29.2754 7.608 29.1127 7.77067 28.9047 7.888C28.6967 8.00533 28.4327 8.064 28.1127 8.064Z" fill="#FFF1C9"/>
<defs>
<filter id="filter0_d_5726_8349" x="0" y="1" width="10" height="16" filterUnits="userSpaceOnUse" color-interpolation-filters="sRGB">
<feFlood flood-opacity="0" result="BackgroundImageFix"/>
<feColorMatrix in="SourceAlpha" type="matrix" values="0 0 0 0 0 0 0 0 0 0 0 0 0 0 0 0 0 0 127 0" result="hardAlpha"/>
<feOffset dy="4"/>
<feGaussianBlur stdDeviation="2"/>
<feComposite in2="hardAlpha" operator="out"/>
<feColorMatrix type="matrix" values="0 0 0 0 0 0 0 0 0 0 0 0 0 0 0 0 0 0 0.25 0"/>
<feBlend mode="normal" in2="BackgroundImageFix" result="effect1_dropShadow_5726_8349"/>
<feBlend mode="normal" in="SourceGraphic" in2="effect1_dropShadow_5726_8349" result="shape"/>
</filter>
</defs>
</svg>
