<svg width="765" height="390" viewBox="0 0 765 390" fill="none" xmlns="http://www.w3.org/2000/svg">
<path d="M21 35C21 27.268 27.268 21 35 21H392.5H578.75H677.343C680.85 21 684.229 22.316 686.812 24.6876L759.469 91.4C762.356 94.0514 764 97.7921 764 101.712V375C764 382.732 757.732 389 750 389H101.366C97.1183 389 93.1004 387.072 90.4434 383.758L24.0774 300.987C22.0855 298.502 21 295.413 21 292.229V205V35Z" stroke="#84ECE4" stroke-width="2"/>
<path d="M1 15C1 7.26802 7.26801 1 15 1H372.5H558.75H657.343C660.85 1 664.229 2.31596 666.812 4.68763L739.469 71.4C742.356 74.0514 744 77.7921 744 81.7124V355C744 362.732 737.732 369 730 369H83.7166C79.5487 369 75.5975 367.143 72.9377 363.934L4.22106 281.026C2.13928 278.514 1 275.354 1 272.092V185V15Z" stroke="#84ECE4" stroke-width="2"/>
</svg>
