<svg width="765" height="366" viewBox="0 0 765 366" fill="none" xmlns="http://www.w3.org/2000/svg">
<path d="M744 329C744 336.732 737.732 343 730 343H372.5H186.25H87.347C84.0147 343 80.7917 341.811 78.2573 339.648L5.91034 277.888C2.79449 275.228 1 271.337 1 267.24V15C1 7.26804 7.26807 1 15 1H660.825C664.791 1 668.571 2.68185 671.225 5.62781L740.4 82.3894C742.717 84.9609 744 88.2999 744 91.7616V172V329Z" stroke="#FFF1C9" stroke-width="2"/>
<path d="M764 351C764 358.732 757.732 365 750 365H392.5H206.25H107.347C104.015 365 100.792 363.811 98.2573 361.648L25.9103 299.888C22.7944 297.228 21 293.337 21 289.24V37C21 29.268 27.268 23 35 23H682.395C686.413 23 690.238 24.7267 692.895 27.7407L760.501 104.409C762.756 106.967 764 110.259 764 113.669V194V351Z" stroke="#FFF1C9" stroke-width="2"/>
</svg>
