<svg width="30" height="30" viewBox="0 0 30 30" fill="none" xmlns="http://www.w3.org/2000/svg">
<path d="M18.4076 4.37223L21.9385 0.442134C22.0644 0.301971 22.2138 0.190778 22.3783 0.114913C22.5428 0.0390487 22.7191 0 22.8971 0C23.0752 0 23.2515 0.0390487 23.416 0.114913C23.5805 0.190778 23.7299 0.301971 23.8557 0.442134L29.6033 6.83852C29.8573 7.12123 30 7.5046 30 7.90434C30 8.30408 29.8573 8.68745 29.6033 8.97015L24.4844 14.6655V28.4925C24.4844 28.8923 24.3417 29.2757 24.0876 29.5585C23.8335 29.8412 23.4889 30 23.1295 30H6.8705C6.51115 30 6.16652 29.8412 5.91243 29.5585C5.65833 29.2757 5.51558 28.8923 5.51558 28.4925V14.6655L0.396701 8.97015C0.142694 8.68745 0 8.30408 0 7.90434C0 7.5046 0.142694 7.12123 0.396701 6.83852L6.14426 0.442134C6.2701 0.301971 6.41953 0.190778 6.58401 0.114913C6.7485 0.0390487 6.92481 0 7.10287 0C7.28092 0 7.45723 0.0390487 7.62172 0.114913C7.7862 0.190778 7.93563 0.301971 8.06147 0.442134L11.5924 4.37223H18.4076ZM19.5295 7.38726H10.4705L7.10354 3.64108L3.27048 7.90434L8.22541 13.4173V26.985H21.7746V13.4173L26.7295 7.90434L22.8965 3.64108L19.5295 7.38726Z" fill="#FF0000"/>
</svg>
