<svg width="25" height="30" viewBox="0 0 25 30" fill="none" xmlns="http://www.w3.org/2000/svg">
<path d="M12.5 26.0953L19.375 19.2608C20.7346 17.9091 21.6604 16.187 22.0355 14.3122C22.4105 12.4374 22.2179 10.4941 21.4821 8.72814C20.7462 6.96215 19.5001 5.45275 17.9013 4.39079C16.3025 3.32883 14.4228 2.76201 12.5 2.76201C10.5772 2.76201 8.69752 3.32883 7.09873 4.39079C5.49994 5.45275 4.25382 6.96215 3.51794 8.72814C2.78206 10.4941 2.58947 12.4374 2.96452 14.3122C3.33957 16.187 4.26543 17.9091 5.625 19.2608L12.5 26.0953ZM12.5 30L3.66112 21.2131C1.91298 19.4753 0.722481 17.2611 0.240178 14.8506C-0.242124 12.4401 0.00542617 9.94161 0.951526 7.67099C1.89763 5.40037 3.49978 3.45964 5.55539 2.09422C7.611 0.728792 10.0277 0 12.5 0C14.9723 0 17.389 0.728792 19.4446 2.09422C21.5002 3.45964 23.1024 5.40037 24.0485 7.67099C24.9946 9.94161 25.2421 12.4401 24.7598 14.8506C24.2775 17.2611 23.087 19.4753 21.3389 21.2131L12.5 30ZM12.5 15.1877C13.2367 15.1877 13.9433 14.8968 14.4642 14.3789C14.9851 13.8611 15.2778 13.1587 15.2778 12.4263C15.2778 11.6939 14.9851 10.9915 14.4642 10.4737C13.9433 9.95581 13.2367 9.66488 12.5 9.66488C11.7633 9.66488 11.0568 9.95581 10.5358 10.4737C10.0149 10.9915 9.72222 11.6939 9.72222 12.4263C9.72222 13.1587 10.0149 13.8611 10.5358 14.3789C11.0568 14.8968 11.7633 15.1877 12.5 15.1877ZM12.5 17.9491C11.0266 17.9491 9.6135 17.3673 8.57163 16.3315C7.52976 15.2958 6.94445 13.891 6.94445 12.4263C6.94445 10.9615 7.52976 9.55679 8.57163 8.52106C9.6135 7.48532 11.0266 6.90345 12.5 6.90345C13.9734 6.90345 15.3865 7.48532 16.4284 8.52106C17.4702 9.55679 18.0556 10.9615 18.0556 12.4263C18.0556 13.891 17.4702 15.2958 16.4284 16.3315C15.3865 17.3673 13.9734 17.9491 12.5 17.9491Z" fill="#FF0000"/>
</svg>
