<svg width="30" height="26" viewBox="0 0 30 26" fill="none" xmlns="http://www.w3.org/2000/svg">
<path d="M15 0C23.2841 0 30 4.36475 30 9.75V16.25C30 21.6353 23.2841 26 15 26C6.86318 26 0.24 21.7896 0.00681818 16.5376L0 16.25V9.75C0 4.36475 6.71591 0 15 0ZM15 19.5C9.92727 19.5 5.44091 17.8636 2.72727 15.3562V16.25C2.72727 19.3083 8.02227 22.75 15 22.75C21.8318 22.75 27.0518 19.4513 27.2659 16.4417L27.2727 16.25L27.2741 15.3562C24.5605 17.862 20.0741 19.5 15 19.5ZM15 3.25C8.02227 3.25 2.72727 6.69175 2.72727 9.75C2.72727 12.8083 8.02227 16.25 15 16.25C21.9777 16.25 27.2727 12.8083 27.2727 9.75C27.2727 6.69175 21.9777 3.25 15 3.25Z" fill="#FF0000"/>
</svg>
