<svg width="31" height="40" viewBox="0 0 31 40" fill="none" xmlns="http://www.w3.org/2000/svg">
<g clip-path="url(#clip0_4967_1393)">
<path d="M13.7949 5.41408L13.795 5.41408L3.88788 2.90805L4.45331 0.672184L16.0944 3.61662L16.107 6.81718L30.8037 6.75922L28.4547 39.8273L9.40133 39.9024L6.79159 6.85392L13.8005 6.82628L13.7949 5.41408ZM28.3271 9.07545L16.1161 9.12361L16.1252 11.43L28.1632 11.3826L28.3271 9.07545ZM11.5322 37.5876L26.3058 37.5293L27.9992 13.6896L9.65064 13.7619L11.5322 37.5876ZM9.28649 9.15054L9.4686 11.4563L13.8187 11.4391L13.8096 9.1327L9.28649 9.15054Z" fill="#FF0000"/>
<path d="M19.5257 15.7578L22.511 21.9999L16.2688 24.9851L13.2836 18.743L19.5257 15.7578ZM17.3546 21.9094L19.4353 20.9143L18.4401 18.8337L16.3595 19.8287L17.3546 21.9094Z" fill="#FF0000"/>
<path d="M16.9309 26.5989L23.6895 28.0801L22.2083 34.8389L15.4496 33.3576L16.9309 26.5989ZM20.4492 32.0923L20.9429 29.8395L18.69 29.3457L18.1963 31.5986L20.4492 32.0923Z" fill="#FF0000"/>
</g>
<defs>
<clipPath id="clip0_4967_1393">
<rect width="31" height="40" fill="white"/>
</clipPath>
</defs>
</svg>
