<svg width="30" height="28" viewBox="0 0 30 28" fill="none" xmlns="http://www.w3.org/2000/svg">
<path d="M15 28C13.2709 28 11.5587 27.6614 9.96125 27.0037C8.36377 26.3459 6.91227 25.3818 5.68961 24.1664C4.46695 22.9509 3.49709 21.508 2.83539 19.92C2.17369 18.332 1.83312 16.63 1.83312 14.9111C1.83312 13.1923 2.17369 11.4903 2.83539 9.90224C3.49709 8.31422 4.46695 6.87132 5.68961 5.6559C6.91227 4.44049 8.36377 3.47637 9.96125 2.81859C11.5587 2.16082 13.2709 1.82226 15 1.82226C18.4921 1.82226 21.8411 3.20126 24.3104 5.6559C26.7797 8.11054 28.1669 11.4397 28.1669 14.9111C28.1669 18.3825 26.7797 21.7117 24.3104 24.1664C21.8411 26.621 18.4921 28 15 28ZM15 25.0914C16.3449 25.0914 17.6765 24.828 18.919 24.3164C20.1615 23.8048 21.2905 23.055 22.2414 22.1096C23.1924 21.1643 23.9467 20.0421 24.4614 18.8069C24.976 17.5718 25.2409 16.248 25.2409 14.9111C25.2409 13.5742 24.976 12.2504 24.4614 11.0153C23.9467 9.7802 23.1924 8.65794 22.2414 7.71262C21.2905 6.7673 20.1615 6.01743 18.919 5.50582C17.6765 4.99422 16.3449 4.7309 15 4.7309C12.2839 4.7309 9.67913 5.80346 7.75859 7.71262C5.83804 9.62178 4.75909 12.2112 4.75909 14.9111C4.75909 17.6111 5.83804 20.2005 7.75859 22.1096C9.67913 24.0188 12.2839 25.0914 15 25.0914ZM16.463 14.9111H20.8519V17.8198H13.537V7.63954H16.463V14.9111ZM0 5.14102L5.17166 0L7.24178 2.05641L2.0672 7.19888L0 5.14102ZM24.8269 0L30 5.14102L27.9313 7.19888L22.7582 2.05641L24.8283 0H24.8269Z" fill="#FF0000"/>
</svg>
