<svg width="1438" height="873" viewBox="0 0 1438 873" fill="none" xmlns="http://www.w3.org/2000/svg">
<mask id="mask0_4807_84868" style="mask-type:alpha" maskUnits="userSpaceOnUse" x="0" y="0" width="1438" height="873">
<rect width="1438" height="873" fill="#D9D9D9"/>
</mask>
<g mask="url(#mask0_4807_84868)">
<mask id="mask1_4807_84868" style="mask-type:luminance" maskUnits="userSpaceOnUse" x="0" y="-137" width="1620" height="1146">
<path d="M1619.74 1008.28L1619.74 -137L0.000854492 -137L0.00080443 1008.28L1619.74 1008.28Z" fill="white"/>
</mask>
<g mask="url(#mask1_4807_84868)">
<path d="M1733.47 801.455L729.078 435.619L1761.5 712.435C1753.44 742.66 1744.05 772.365 1733.47 801.455Z" fill="#961618"/>
<path d="M1654.63 970.379L729.084 435.621L1697.77 887.649C1684.59 915.912 1670.18 943.521 1654.63 970.379Z" fill="#961618"/>
<path d="M1547.65 1122.97L729.078 435.621L1604.47 1049.03C1586.61 1074.5 1567.64 1099.19 1547.65 1122.97Z" fill="#961618"/>
<path d="M1415.96 1254.79L729.077 435.621L1484.68 1191.77C1462.71 1213.76 1439.78 1234.79 1415.96 1254.79Z" fill="#961618"/>
<path d="M1263.45 1361.84L729.075 435.619L1342.02 1311.64C1316.63 1329.46 1290.4 1346.22 1263.45 1361.84Z" fill="#961618"/>
<path d="M1094.64 1440.72L729.076 435.619L1180.78 1404.99C1152.73 1418.11 1123.98 1430.04 1094.64 1440.72Z" fill="#961618"/>
<path d="M914.661 1488.86L729.078 435.619L1005.72 1468.77C975.861 1476.74 945.482 1483.45 914.661 1488.86Z" fill="#961618"/>
<path d="M729.077 1504.96L729.077 435.619L822.195 1500.94C791.509 1503.58 760.456 1504.96 729.077 1504.96Z" fill="#961618"/>
<path d="M729.078 435.619L635.921 1500.94C604.715 1498.25 573.855 1494.19 543.495 1488.86L729.078 435.619Z" fill="#961618"/>
<path d="M729.078 435.619L452.436 1468.77C422.23 1460.67 392.563 1451.32 363.511 1440.74L729.078 435.619Z" fill="#961618"/>
<path d="M729.078 435.619L277.357 1404.99C249.114 1391.8 221.544 1377.39 194.705 1361.84L729.078 435.619Z" fill="#961618"/>
<path d="M729.078 435.619L116.132 1311.64C90.6397 1293.73 65.9748 1274.76 42.195 1254.79L729.078 435.619Z" fill="#961618"/>
<path d="M729.078 435.619L-26.5281 1191.76C-48.5187 1169.75 -69.5088 1146.82 -89.537 1122.96L729.078 435.619Z" fill="#961618"/>
<path d="M729.078 435.619L-146.312 1049.03C-164.147 1023.59 -180.905 997.37 -196.508 970.396L729.078 435.619Z" fill="#961618"/>
<path d="M729.078 435.619L-239.642 887.648C-252.744 859.558 -264.653 830.795 -275.35 801.475L729.078 435.619Z" fill="#961618"/>
<path d="M729.078 435.619L-303.363 712.454C-311.328 682.575 -318.042 652.216 -323.429 621.356L729.078 435.619Z" fill="#961618"/>
<path d="M729.078 435.619L-335.512 528.834C-338.148 498.128 -339.533 467.037 -339.533 435.619L729.078 435.619Z" fill="#961618"/>
<path d="M729.078 435.62L-335.512 342.444C-332.818 311.199 -328.778 280.339 -323.429 249.922L729.078 435.62Z" fill="#961618"/>
<path d="M729.078 435.62L-303.363 158.823C-295.282 128.598 -285.932 98.8926 -275.35 69.8027L729.078 435.62Z" fill="#961618"/>
<path d="M729.078 435.619L-239.642 -16.39C-226.444 -44.6526 -212.034 -72.2611 -196.508 -99.1192L729.078 435.619Z" fill="#961618"/>
<path d="M729.078 435.619L-146.312 -177.751C-128.439 -203.243 -109.488 -227.908 -89.5369 -251.707L729.078 435.619Z" fill="#961618"/>
<path d="M729.078 435.618L-26.5281 -320.507C-4.55676 -342.498 18.3766 -363.526 42.1949 -383.535L729.078 435.618Z" fill="#961618"/>
<path d="M729.078 435.621L116.132 -440.385C141.508 -458.2 167.732 -474.958 194.705 -490.58L729.078 435.621Z" fill="#961618"/>
<path d="M729.078 435.62L277.358 -533.735C305.428 -546.857 334.171 -558.785 363.511 -569.463L729.078 435.62Z" fill="#961618"/>
<path d="M729.078 435.62L452.436 -597.514C482.295 -605.498 512.655 -612.213 543.495 -617.6L729.078 435.62Z" fill="#961618"/>
<path d="M729.078 435.62L635.921 -629.682C666.608 -632.318 697.699 -633.703 729.078 -633.703L729.078 435.62Z" fill="#961618"/>
<path d="M729.077 435.62L822.196 -629.682C853.421 -626.988 884.262 -622.929 914.66 -617.599L729.077 435.62Z" fill="#961618"/>
<path d="M729.078 435.62L1005.72 -597.514C1035.93 -589.414 1065.57 -580.064 1094.64 -569.482L729.078 435.62Z" fill="#961618"/>
<path d="M729.075 435.621L1180.78 -533.734C1209.06 -520.536 1236.61 -506.126 1263.47 -490.581L729.075 435.621Z" fill="#961618"/>
<path d="M729.07 435.619L1342.02 -440.387C1367.49 -422.475 1392.15 -403.505 1415.95 -383.534L729.07 435.619Z" fill="#961618"/>
<path d="M1547.65 -251.725L729.078 435.62L1484.68 -320.506C1506.66 -298.496 1527.66 -275.563 1547.65 -251.725Z" fill="#961618"/>
<path d="M1654.62 -99.1364L729.078 435.621L1604.47 -177.768C1622.28 -152.333 1639.02 -126.11 1654.62 -99.1364Z" fill="#961618"/>
<path d="M1733.47 69.7844L729.077 435.62L1697.76 -16.3887C1710.88 11.7008 1722.81 40.4636 1733.47 69.7844Z" fill="#961618"/>
<path d="M1781.58 249.903L729.076 435.621L1761.5 158.824C1769.46 188.684 1776.2 219.063 1781.58 249.903Z" fill="#961618"/>
<path d="M1797.65 435.621L729.078 435.621L1793.65 342.426C1796.3 373.132 1797.65 404.223 1797.65 435.621Z" fill="#961618"/>
<path d="M1781.58 621.358L729.073 435.621L1793.62 528.836C1790.93 560.08 1786.89 590.94 1781.58 621.358Z" fill="#961618"/>
</g>
</g>
</svg>
